G04 Layer: TopSilkLayer*
G04 EasyEDA v6.4.17, 2021-03-02T21:28:07+01:00*
G04 1007e7e2c1864e39a1c220729244a999,9c416354eb984020824aaf9c885bead6,10*
G04 Gerber Generator version 0.2*
G04 Scale: 100 percent, Rotated: No, Reflected: No *
G04 Dimensions in inches *
G04 leading zeros omitted , absolute positions ,3 integer and 6 decimal *
%FSLAX36Y36*%
%MOIN*%

%ADD10C,0.0100*%
%ADD43C,0.0080*%
%ADD44C,0.0059*%
%ADD45C,0.0080*%
%ADD46C,0.0080*%
%ADD47C,0.0079*%
%ADD48C,0.0079*%
%ADD49C,0.0059*%
%ADD50C,0.0070*%
%ADD51C,0.0060*%

%LPD*%
D45*
X1161800Y837600D02*
G01*
X1161800Y808499D01*
X1160000Y803099D01*
X1158199Y801300D01*
X1154499Y799499D01*
X1149099Y799499D01*
X1145500Y801300D01*
X1161800Y832199D02*
G01*
X1158199Y835799D01*
X1154499Y837600D01*
X1149099Y837600D01*
X1145500Y835799D01*
X1141800Y832199D01*
X1140000Y826700D01*
X1140000Y823099D01*
X1141800Y817600D01*
X1145500Y814000D01*
X1149099Y812199D01*
X1154499Y812199D01*
X1158199Y814000D01*
X1161800Y817600D01*
X1173800Y837600D02*
G01*
X1173800Y812199D01*
X1173800Y830399D02*
G01*
X1179300Y835799D01*
X1182899Y837600D01*
X1188400Y837600D01*
X1191999Y835799D01*
X1193800Y830399D01*
X1193800Y812199D01*
X1227600Y850399D02*
G01*
X1227600Y812199D01*
X1227600Y832199D02*
G01*
X1223999Y835799D01*
X1220399Y837600D01*
X1214899Y837600D01*
X1211300Y835799D01*
X1207600Y832199D01*
X1205799Y826700D01*
X1205799Y823099D01*
X1207600Y817600D01*
X1211300Y814000D01*
X1214899Y812199D01*
X1220399Y812199D01*
X1223999Y814000D01*
X1227600Y817600D01*
X1271300Y850399D02*
G01*
X1291300Y850399D01*
X1280399Y835799D01*
X1285799Y835799D01*
X1289499Y834000D01*
X1291300Y832199D01*
X1293100Y826700D01*
X1293100Y823099D01*
X1291300Y817600D01*
X1287600Y814000D01*
X1282200Y812199D01*
X1276700Y812199D01*
X1271300Y814000D01*
X1269499Y815799D01*
X1267600Y819499D01*
X1305100Y837600D02*
G01*
X1316000Y812199D01*
X1326899Y837600D02*
G01*
X1316000Y812199D01*
X1342500Y850399D02*
G01*
X1362500Y850399D01*
X1351599Y835799D01*
X1357100Y835799D01*
X1360699Y834000D01*
X1362500Y832199D01*
X1364399Y826700D01*
X1364399Y823099D01*
X1362500Y817600D01*
X1358900Y814000D01*
X1353500Y812199D01*
X1348000Y812199D01*
X1342500Y814000D01*
X1340699Y815799D01*
X1338900Y819499D01*
X1424399Y832199D02*
G01*
X1422500Y835799D01*
X1417100Y837600D01*
X1411599Y837600D01*
X1406199Y835799D01*
X1404399Y832199D01*
X1406199Y828499D01*
X1409799Y826700D01*
X1418900Y824899D01*
X1422500Y823099D01*
X1424399Y819499D01*
X1424399Y817600D01*
X1422500Y814000D01*
X1417100Y812199D01*
X1411599Y812199D01*
X1406199Y814000D01*
X1404399Y817600D01*
X1458199Y832199D02*
G01*
X1454499Y835799D01*
X1450900Y837600D01*
X1445500Y837600D01*
X1441800Y835799D01*
X1438199Y832199D01*
X1436400Y826700D01*
X1436400Y823099D01*
X1438199Y817600D01*
X1441800Y814000D01*
X1445500Y812199D01*
X1450900Y812199D01*
X1454499Y814000D01*
X1458199Y817600D01*
X1470200Y850399D02*
G01*
X1470200Y812199D01*
X1530200Y832199D02*
G01*
X1528400Y835799D01*
X1522899Y837600D01*
X1517500Y837600D01*
X1511999Y835799D01*
X1510200Y832199D01*
X1511999Y828499D01*
X1515600Y826700D01*
X1524700Y824899D01*
X1528400Y823099D01*
X1530200Y819499D01*
X1530200Y817600D01*
X1528400Y814000D01*
X1522899Y812199D01*
X1517500Y812199D01*
X1511999Y814000D01*
X1510200Y817600D01*
X1563999Y850399D02*
G01*
X1563999Y812199D01*
X1563999Y832199D02*
G01*
X1560399Y835799D01*
X1556700Y837600D01*
X1551300Y837600D01*
X1547600Y835799D01*
X1543999Y832199D01*
X1542200Y826700D01*
X1542200Y823099D01*
X1543999Y817600D01*
X1547600Y814000D01*
X1551300Y812199D01*
X1556700Y812199D01*
X1560399Y814000D01*
X1563999Y817600D01*
X1597799Y837600D02*
G01*
X1597799Y812199D01*
X1597799Y832199D02*
G01*
X1594200Y835799D01*
X1590500Y837600D01*
X1585100Y837600D01*
X1581499Y835799D01*
X1577799Y832199D01*
X1576000Y826700D01*
X1576000Y823099D01*
X1577799Y817600D01*
X1581499Y814000D01*
X1585100Y812199D01*
X1590500Y812199D01*
X1594200Y814000D01*
X1597799Y817600D01*
X850000Y-609299D02*
G01*
X850000Y-685599D01*
X924899Y-620199D02*
G01*
X917600Y-612899D01*
X906700Y-609299D01*
X892199Y-609299D01*
X881300Y-612899D01*
X874000Y-620199D01*
X874000Y-627500D01*
X877600Y-634699D01*
X881300Y-638400D01*
X888499Y-641999D01*
X910399Y-649299D01*
X917600Y-652899D01*
X921300Y-656500D01*
X924899Y-663800D01*
X924899Y-674699D01*
X917600Y-681999D01*
X906700Y-685599D01*
X892199Y-685599D01*
X881300Y-681999D01*
X874000Y-674699D01*
X948899Y-609299D02*
G01*
X948899Y-685599D01*
X948899Y-609299D02*
G01*
X981599Y-609299D01*
X992500Y-612899D01*
X996199Y-616500D01*
X999799Y-623800D01*
X999799Y-634699D01*
X996199Y-641999D01*
X992500Y-645599D01*
X981599Y-649299D01*
X948899Y-649299D01*
X374499Y-664600D02*
G01*
X354099Y-664600D01*
X351999Y-683000D01*
X354099Y-680999D01*
X360199Y-678899D01*
X366399Y-678899D01*
X372500Y-680999D01*
X376599Y-685000D01*
X378600Y-691199D01*
X378600Y-695300D01*
X376599Y-701399D01*
X372500Y-705500D01*
X366399Y-707500D01*
X360199Y-707500D01*
X354099Y-705500D01*
X351999Y-703499D01*
X350000Y-699400D01*
X392100Y-664600D02*
G01*
X408499Y-707500D01*
X424899Y-664600D02*
G01*
X408499Y-707500D01*
X536999Y-664600D02*
G01*
X559499Y-664600D01*
X547199Y-680999D01*
X553299Y-680999D01*
X557399Y-683000D01*
X559499Y-685000D01*
X561500Y-691199D01*
X561500Y-695300D01*
X559499Y-701399D01*
X555399Y-705500D01*
X549200Y-707500D01*
X543099Y-707500D01*
X536999Y-705500D01*
X534899Y-703499D01*
X532899Y-699400D01*
X575000Y-664600D02*
G01*
X591399Y-707500D01*
X607699Y-664600D02*
G01*
X591399Y-707500D01*
X625300Y-664600D02*
G01*
X647800Y-664600D01*
X635500Y-680999D01*
X641700Y-680999D01*
X645799Y-683000D01*
X647800Y-685000D01*
X649899Y-691199D01*
X649899Y-695300D01*
X647800Y-701399D01*
X643699Y-705500D01*
X637600Y-707500D01*
X631500Y-707500D01*
X625300Y-705500D01*
X623299Y-703499D01*
X621199Y-699400D01*
X751799Y890399D02*
G01*
X733600Y890399D01*
X731799Y874000D01*
X733600Y875799D01*
X739099Y877600D01*
X744499Y877600D01*
X750000Y875799D01*
X753600Y872199D01*
X755500Y866700D01*
X755500Y863099D01*
X753600Y857600D01*
X750000Y854000D01*
X744499Y852199D01*
X739099Y852199D01*
X733600Y854000D01*
X731799Y855799D01*
X730000Y859499D01*
X767500Y890399D02*
G01*
X781999Y852199D01*
X796500Y890399D02*
G01*
X781999Y852199D01*
X733600Y-719600D02*
G01*
X753600Y-719600D01*
X742699Y-734200D01*
X748200Y-734200D01*
X751799Y-735999D01*
X753600Y-737800D01*
X755500Y-743299D01*
X755500Y-746900D01*
X753600Y-752399D01*
X750000Y-755999D01*
X744499Y-757800D01*
X739099Y-757800D01*
X733600Y-755999D01*
X731799Y-754200D01*
X730000Y-750500D01*
X767500Y-719600D02*
G01*
X781999Y-757800D01*
X796500Y-719600D02*
G01*
X781999Y-757800D01*
X812199Y-719600D02*
G01*
X832199Y-719600D01*
X821300Y-734200D01*
X826700Y-734200D01*
X830399Y-735999D01*
X832199Y-737800D01*
X834000Y-743299D01*
X834000Y-746900D01*
X832199Y-752399D01*
X828499Y-755999D01*
X823099Y-757800D01*
X817600Y-757800D01*
X812199Y-755999D01*
X810399Y-754200D01*
X808499Y-750500D01*
X381500Y959699D02*
G01*
X363600Y959699D01*
X361799Y943600D01*
X363600Y945399D01*
X368899Y947199D01*
X374299Y947199D01*
X379699Y945399D01*
X383299Y941799D01*
X385100Y936500D01*
X385100Y932899D01*
X383299Y927500D01*
X379699Y923899D01*
X374299Y922100D01*
X368899Y922100D01*
X363600Y923899D01*
X361799Y925700D01*
X360000Y929299D01*
X396900Y959699D02*
G01*
X411199Y922100D01*
X425500Y959699D02*
G01*
X411199Y922100D01*
X523600Y959699D02*
G01*
X543200Y959699D01*
X532500Y945399D01*
X537899Y945399D01*
X541500Y943600D01*
X543200Y941799D01*
X545000Y936500D01*
X545000Y932899D01*
X543200Y927500D01*
X539699Y923899D01*
X534299Y922100D01*
X528899Y922100D01*
X523600Y923899D01*
X521799Y925700D01*
X520000Y929299D01*
X556900Y959699D02*
G01*
X571199Y922100D01*
X585500Y959699D02*
G01*
X571199Y922100D01*
X600900Y959699D02*
G01*
X620599Y959699D01*
X609800Y945399D01*
X615199Y945399D01*
X618800Y943600D01*
X620599Y941799D01*
X622300Y936500D01*
X622300Y932899D01*
X620599Y927500D01*
X616999Y923899D01*
X611599Y922100D01*
X606199Y922100D01*
X600900Y923899D01*
X599099Y925700D01*
X597300Y929299D01*
D50*
X3194499Y305399D02*
G01*
X3194499Y262500D01*
X3194499Y285000D02*
G01*
X3190500Y289000D01*
X3186400Y291100D01*
X3180200Y291100D01*
X3176099Y289000D01*
X3171999Y285000D01*
X3170000Y278800D01*
X3170000Y274699D01*
X3171999Y268600D01*
X3176099Y264499D01*
X3180200Y262500D01*
X3186400Y262500D01*
X3190500Y264499D01*
X3194499Y268600D01*
X3232600Y305399D02*
G01*
X3232600Y262500D01*
X3232600Y285000D02*
G01*
X3228500Y289000D01*
X3224399Y291100D01*
X3218299Y291100D01*
X3214200Y289000D01*
X3210100Y285000D01*
X3208000Y278800D01*
X3208000Y274699D01*
X3210100Y268600D01*
X3214200Y264499D01*
X3218299Y262500D01*
X3224399Y262500D01*
X3228500Y264499D01*
X3232600Y268600D01*
X3270600Y305399D02*
G01*
X3270600Y262500D01*
X3270600Y285000D02*
G01*
X3266499Y289000D01*
X3262500Y291100D01*
X3256300Y291100D01*
X3252200Y289000D01*
X3248100Y285000D01*
X3246099Y278800D01*
X3246099Y274699D01*
X3248100Y268600D01*
X3252200Y264499D01*
X3256300Y262500D01*
X3262500Y262500D01*
X3266499Y264499D01*
X3270600Y268600D01*
D51*
X2400000Y797199D02*
G01*
X2404099Y799299D01*
X2410200Y805399D01*
X2410200Y762500D01*
X2436000Y805399D02*
G01*
X2429899Y803400D01*
X2425799Y797199D01*
X2423699Y786999D01*
X2423699Y780900D01*
X2425799Y770599D01*
X2429899Y764499D01*
X2436000Y762500D01*
X2440100Y762500D01*
X2446199Y764499D01*
X2450299Y770599D01*
X2452399Y780900D01*
X2452399Y786999D01*
X2450299Y797199D01*
X2446199Y803400D01*
X2440100Y805399D01*
X2436000Y805399D01*
X2465900Y791100D02*
G01*
X2465900Y770599D01*
X2467899Y764499D01*
X2471999Y762500D01*
X2478100Y762500D01*
X2482200Y764499D01*
X2488400Y770599D01*
X2488400Y791100D02*
G01*
X2488400Y762500D01*
X2501899Y805399D02*
G01*
X2501899Y762500D01*
X2501899Y805399D02*
G01*
X2528500Y805399D01*
X2501899Y785000D02*
G01*
X2518199Y785000D01*
X2212799Y-460000D02*
G01*
X2210699Y-455900D01*
X2204600Y-449800D01*
X2247500Y-449800D01*
X2204600Y-424000D02*
G01*
X2206599Y-430100D01*
X2212799Y-434200D01*
X2223000Y-436300D01*
X2229099Y-436300D01*
X2239399Y-434200D01*
X2245500Y-430100D01*
X2247500Y-424000D01*
X2247500Y-419899D01*
X2245500Y-413800D01*
X2239399Y-409699D01*
X2229099Y-407600D01*
X2223000Y-407600D01*
X2212799Y-409699D01*
X2206599Y-413800D01*
X2204600Y-419899D01*
X2204600Y-424000D01*
X2218900Y-394099D02*
G01*
X2239399Y-394099D01*
X2245500Y-392100D01*
X2247500Y-388000D01*
X2247500Y-381900D01*
X2245500Y-377800D01*
X2239399Y-371599D01*
X2218900Y-371599D02*
G01*
X2247500Y-371599D01*
X2204600Y-358099D02*
G01*
X2247500Y-358099D01*
X2204600Y-358099D02*
G01*
X2204600Y-331500D01*
X2225000Y-358099D02*
G01*
X2225000Y-341799D01*
X2420000Y-749600D02*
G01*
X2420000Y-787800D01*
X2420000Y-749600D02*
G01*
X2443599Y-749600D01*
X2420000Y-767800D02*
G01*
X2434499Y-767800D01*
X2420000Y-787800D02*
G01*
X2443599Y-787800D01*
X2455600Y-749600D02*
G01*
X2455600Y-787800D01*
X2455600Y-749600D02*
G01*
X2471999Y-749600D01*
X2477500Y-751500D01*
X2479300Y-753299D01*
X2481099Y-756900D01*
X2481099Y-760500D01*
X2479300Y-764200D01*
X2477500Y-765999D01*
X2471999Y-767800D01*
X2455600Y-767800D01*
X2468400Y-767800D02*
G01*
X2481099Y-787800D01*
X2493100Y-749600D02*
G01*
X2493100Y-787800D01*
X2493100Y-749600D02*
G01*
X2509499Y-749600D01*
X2514899Y-751500D01*
X2516700Y-753299D01*
X2518500Y-756900D01*
X2518500Y-760500D01*
X2516700Y-764200D01*
X2514899Y-765999D01*
X2509499Y-767800D01*
X2493100Y-767800D01*
X2505799Y-767800D02*
G01*
X2518500Y-787800D01*
X1554600Y-930000D02*
G01*
X1597500Y-930000D01*
X1554600Y-930000D02*
G01*
X1554600Y-911599D01*
X1556599Y-905500D01*
X1558699Y-903400D01*
X1562799Y-901399D01*
X1566899Y-901399D01*
X1571000Y-903400D01*
X1573000Y-905500D01*
X1575000Y-911599D01*
X1575000Y-930000D01*
X1575000Y-915700D02*
G01*
X1597500Y-901399D01*
X1554600Y-887899D02*
G01*
X1597500Y-887899D01*
X1554600Y-887899D02*
G01*
X1554600Y-861300D01*
X1575000Y-887899D02*
G01*
X1575000Y-871500D01*
X1597500Y-887899D02*
G01*
X1597500Y-861300D01*
X1560699Y-819099D02*
G01*
X1556599Y-823200D01*
X1554600Y-829400D01*
X1554600Y-837500D01*
X1556599Y-843699D01*
X1560699Y-847800D01*
X1564799Y-847800D01*
X1568900Y-845700D01*
X1571000Y-843699D01*
X1573000Y-839600D01*
X1577100Y-827300D01*
X1579099Y-823200D01*
X1581199Y-821199D01*
X1585299Y-819099D01*
X1591400Y-819099D01*
X1595500Y-823200D01*
X1597500Y-829400D01*
X1597500Y-837500D01*
X1595500Y-843699D01*
X1591400Y-847800D01*
X2290000Y-749600D02*
G01*
X2290000Y-787800D01*
X2290000Y-749600D02*
G01*
X2306400Y-749600D01*
X2311800Y-751500D01*
X2313599Y-753299D01*
X2315500Y-756900D01*
X2315500Y-760500D01*
X2313599Y-764200D01*
X2311800Y-765999D01*
X2306400Y-767800D01*
X2290000Y-767800D01*
X2302700Y-767800D02*
G01*
X2315500Y-787800D01*
X2327500Y-749600D02*
G01*
X2327500Y-787800D01*
X2327500Y-749600D02*
G01*
X2340200Y-749600D01*
X2345600Y-751500D01*
X2349300Y-755100D01*
X2351099Y-758699D01*
X2352899Y-764200D01*
X2352899Y-773299D01*
X2351099Y-778699D01*
X2349300Y-782399D01*
X2345600Y-785999D01*
X2340200Y-787800D01*
X2327500Y-787800D01*
X2364899Y-749600D02*
G01*
X2379499Y-767800D01*
X2379499Y-787800D01*
X2393999Y-749600D02*
G01*
X2379499Y-767800D01*
X2550000Y-749600D02*
G01*
X2559099Y-787800D01*
X2568199Y-749600D02*
G01*
X2559099Y-787800D01*
X2568199Y-749600D02*
G01*
X2577299Y-787800D01*
X2586400Y-749600D02*
G01*
X2577299Y-787800D01*
X2598400Y-749600D02*
G01*
X2598400Y-787800D01*
X2598400Y-749600D02*
G01*
X2614700Y-749600D01*
X2620200Y-751500D01*
X2621999Y-753299D01*
X2623800Y-756900D01*
X2623800Y-760500D01*
X2621999Y-764200D01*
X2620200Y-765999D01*
X2614700Y-767800D01*
X2598400Y-767800D01*
X2611099Y-767800D02*
G01*
X2623800Y-787800D01*
X1713599Y-759600D02*
G01*
X1733599Y-759600D01*
X1722700Y-774200D01*
X1728199Y-774200D01*
X1731800Y-775999D01*
X1733599Y-777800D01*
X1735500Y-783299D01*
X1735500Y-786900D01*
X1733599Y-792399D01*
X1730000Y-795999D01*
X1724499Y-797800D01*
X1719099Y-797800D01*
X1713599Y-795999D01*
X1711800Y-794200D01*
X1710000Y-790500D01*
X1747500Y-759600D02*
G01*
X1761999Y-797800D01*
X1776499Y-759600D02*
G01*
X1761999Y-797800D01*
X1792200Y-759600D02*
G01*
X1812200Y-759600D01*
X1801300Y-774200D01*
X1806700Y-774200D01*
X1810399Y-775999D01*
X1812200Y-777800D01*
X1813999Y-783299D01*
X1813999Y-786900D01*
X1812200Y-792399D01*
X1808500Y-795999D01*
X1803100Y-797800D01*
X1797600Y-797800D01*
X1792200Y-795999D01*
X1790399Y-794200D01*
X1788500Y-790500D01*
X1871800Y-759600D02*
G01*
X1853599Y-759600D01*
X1851800Y-775999D01*
X1853599Y-774200D01*
X1859099Y-772399D01*
X1864499Y-772399D01*
X1870000Y-774200D01*
X1873599Y-777800D01*
X1875500Y-783299D01*
X1875500Y-786900D01*
X1873599Y-792399D01*
X1870000Y-795999D01*
X1864499Y-797800D01*
X1859099Y-797800D01*
X1853599Y-795999D01*
X1851800Y-794200D01*
X1850000Y-790500D01*
X1887500Y-759600D02*
G01*
X1901999Y-797800D01*
X1916499Y-759600D02*
G01*
X1901999Y-797800D01*
X1744579Y-304600D02*
G01*
X1724080Y-304600D01*
X1722079Y-323000D01*
X1724080Y-320999D01*
X1730180Y-318899D01*
X1736379Y-318899D01*
X1742479Y-320999D01*
X1746580Y-325000D01*
X1748680Y-331199D01*
X1748680Y-335300D01*
X1746580Y-341399D01*
X1742479Y-345500D01*
X1736379Y-347500D01*
X1730180Y-347500D01*
X1724080Y-345500D01*
X1722079Y-343499D01*
X1719979Y-339400D01*
X1762179Y-312800D02*
G01*
X1766180Y-310700D01*
X1772380Y-304600D01*
X1772380Y-347500D01*
X1785879Y-304600D02*
G01*
X1785879Y-347500D01*
X1785879Y-304600D02*
G01*
X1804279Y-304600D01*
X1810379Y-306599D01*
X1812479Y-308699D01*
X1814480Y-312800D01*
X1814480Y-316900D01*
X1812479Y-320999D01*
X1810379Y-323000D01*
X1804279Y-325000D01*
X1785879Y-325000D01*
X1800180Y-325000D02*
G01*
X1814480Y-347500D01*
X1734579Y-544600D02*
G01*
X1714080Y-544600D01*
X1712079Y-563000D01*
X1714080Y-560999D01*
X1720180Y-558899D01*
X1726379Y-558899D01*
X1732479Y-560999D01*
X1736580Y-565000D01*
X1738680Y-571199D01*
X1738680Y-575300D01*
X1736580Y-581399D01*
X1732479Y-585500D01*
X1726379Y-587500D01*
X1720180Y-587500D01*
X1714080Y-585500D01*
X1712079Y-583499D01*
X1709979Y-579400D01*
X1752179Y-552800D02*
G01*
X1756180Y-550700D01*
X1762380Y-544600D01*
X1762380Y-587500D01*
X1775879Y-544600D02*
G01*
X1775879Y-587500D01*
X1775879Y-544600D02*
G01*
X1794279Y-544600D01*
X1800379Y-546599D01*
X1802479Y-548699D01*
X1804480Y-552800D01*
X1804480Y-556900D01*
X1802479Y-560999D01*
X1800379Y-563000D01*
X1794279Y-565000D01*
X1775879Y-565000D01*
X1790180Y-565000D02*
G01*
X1804480Y-587500D01*
X350000Y-14699D02*
G01*
X350000Y-48099D01*
X350000Y-14699D02*
G01*
X364299Y-14699D01*
X369099Y-16300D01*
X370700Y-17899D01*
X372300Y-20999D01*
X372300Y-24200D01*
X370700Y-27399D01*
X369099Y-29000D01*
X364299Y-30599D01*
X350000Y-30599D01*
X361100Y-30599D02*
G01*
X372300Y-48099D01*
X405000Y-19499D02*
G01*
X401900Y-16300D01*
X397100Y-14699D01*
X390700Y-14699D01*
X385999Y-16300D01*
X382800Y-19499D01*
X382800Y-22600D01*
X384400Y-25799D01*
X385999Y-27399D01*
X389099Y-29000D01*
X398699Y-32199D01*
X401900Y-33800D01*
X403499Y-35399D01*
X405000Y-38499D01*
X405000Y-43299D01*
X401900Y-46500D01*
X397100Y-48099D01*
X390700Y-48099D01*
X385999Y-46500D01*
X382800Y-43299D01*
X426700Y-14699D02*
G01*
X426700Y-48099D01*
X415500Y-14699D02*
G01*
X437800Y-14699D01*
X483899Y-22600D02*
G01*
X482300Y-19499D01*
X479099Y-16300D01*
X475900Y-14699D01*
X469499Y-14699D01*
X466399Y-16300D01*
X463200Y-19499D01*
X461599Y-22600D01*
X460000Y-27399D01*
X460000Y-35399D01*
X461599Y-40100D01*
X463200Y-43299D01*
X466399Y-46500D01*
X469499Y-48099D01*
X475900Y-48099D01*
X479099Y-46500D01*
X482300Y-43299D01*
X483899Y-40100D01*
X494400Y-14699D02*
G01*
X494400Y-48099D01*
X494400Y-48099D02*
G01*
X513499Y-48099D01*
X524000Y-14699D02*
G01*
X524000Y-48099D01*
X546199Y-14699D02*
G01*
X524000Y-36999D01*
X531900Y-29000D02*
G01*
X546199Y-48099D01*
X570000Y-14699D02*
G01*
X570000Y-48099D01*
X570000Y-14699D02*
G01*
X582699Y-48099D01*
X595500Y-14699D02*
G01*
X582699Y-48099D01*
X595500Y-14699D02*
G01*
X595500Y-48099D01*
X605999Y-14699D02*
G01*
X605999Y-48099D01*
X638699Y-19499D02*
G01*
X635500Y-16300D01*
X630799Y-14699D01*
X624400Y-14699D01*
X619600Y-16300D01*
X616500Y-19499D01*
X616500Y-22600D01*
X618000Y-25799D01*
X619600Y-27399D01*
X622800Y-29000D01*
X632399Y-32199D01*
X635500Y-33800D01*
X637100Y-35399D01*
X638699Y-38499D01*
X638699Y-43299D01*
X635500Y-46500D01*
X630799Y-48099D01*
X624400Y-48099D01*
X619600Y-46500D01*
X616500Y-43299D01*
X658800Y-14699D02*
G01*
X655599Y-16300D01*
X652399Y-19499D01*
X650799Y-22600D01*
X649200Y-27399D01*
X649200Y-35399D01*
X650799Y-40100D01*
X652399Y-43299D01*
X655599Y-46500D01*
X658800Y-48099D01*
X665100Y-48099D01*
X668299Y-46500D01*
X671500Y-43299D01*
X673099Y-40100D01*
X674699Y-35399D01*
X674699Y-27399D01*
X673099Y-22600D01*
X671500Y-19499D01*
X668299Y-16300D01*
X665100Y-14699D01*
X658800Y-14699D01*
X373899Y-222600D02*
G01*
X372300Y-219499D01*
X369099Y-216300D01*
X365900Y-214699D01*
X359499Y-214699D01*
X356399Y-216300D01*
X353200Y-219499D01*
X351599Y-222600D01*
X350000Y-227399D01*
X350000Y-235399D01*
X351599Y-240100D01*
X353200Y-243299D01*
X356399Y-246500D01*
X359499Y-248099D01*
X365900Y-248099D01*
X369099Y-246500D01*
X372300Y-243299D01*
X373899Y-240100D01*
X373899Y-235399D01*
X365900Y-235399D02*
G01*
X373899Y-235399D01*
X384400Y-214699D02*
G01*
X384400Y-248099D01*
X384400Y-214699D02*
G01*
X406599Y-248099D01*
X406599Y-214699D02*
G01*
X406599Y-248099D01*
X417100Y-214699D02*
G01*
X417100Y-248099D01*
X417100Y-214699D02*
G01*
X428299Y-214699D01*
X433000Y-216300D01*
X436199Y-219499D01*
X437800Y-222600D01*
X439400Y-227399D01*
X439400Y-235399D01*
X437800Y-240100D01*
X436199Y-243299D01*
X433000Y-246500D01*
X428299Y-248099D01*
X417100Y-248099D01*
X460000Y-214699D02*
G01*
X460000Y-248099D01*
X460000Y-214699D02*
G01*
X472699Y-248099D01*
X485500Y-214699D02*
G01*
X472699Y-248099D01*
X485500Y-214699D02*
G01*
X485500Y-248099D01*
X505500Y-214699D02*
G01*
X502300Y-216300D01*
X499099Y-219499D01*
X497500Y-222600D01*
X495999Y-227399D01*
X495999Y-235399D01*
X497500Y-240100D01*
X499099Y-243299D01*
X502300Y-246500D01*
X505500Y-248099D01*
X511900Y-248099D01*
X515000Y-246500D01*
X518200Y-243299D01*
X519800Y-240100D01*
X521399Y-235399D01*
X521399Y-227399D01*
X519800Y-222600D01*
X518200Y-219499D01*
X515000Y-216300D01*
X511900Y-214699D01*
X505500Y-214699D01*
X554200Y-219499D02*
G01*
X550999Y-216300D01*
X546199Y-214699D01*
X539899Y-214699D01*
X535100Y-216300D01*
X531900Y-219499D01*
X531900Y-222600D01*
X533499Y-225799D01*
X535100Y-227399D01*
X538299Y-229000D01*
X547800Y-232199D01*
X550999Y-233800D01*
X552600Y-235399D01*
X554200Y-238499D01*
X554200Y-243299D01*
X550999Y-246500D01*
X546199Y-248099D01*
X539899Y-248099D01*
X535100Y-246500D01*
X531900Y-243299D01*
X564699Y-214699D02*
G01*
X564699Y-248099D01*
X580000Y-214699D02*
G01*
X592699Y-248099D01*
X605500Y-214699D02*
G01*
X592699Y-248099D01*
X639800Y-222600D02*
G01*
X638200Y-219499D01*
X635000Y-216300D01*
X631900Y-214699D01*
X625500Y-214699D01*
X622300Y-216300D01*
X619099Y-219499D01*
X617500Y-222600D01*
X615999Y-227399D01*
X615999Y-235399D01*
X617500Y-240100D01*
X619099Y-243299D01*
X622300Y-246500D01*
X625500Y-248099D01*
X631900Y-248099D01*
X635000Y-246500D01*
X638200Y-243299D01*
X639800Y-240100D01*
X674200Y-222600D02*
G01*
X672600Y-219499D01*
X669400Y-216300D01*
X666199Y-214699D01*
X659899Y-214699D01*
X656700Y-216300D01*
X653499Y-219499D01*
X651900Y-222600D01*
X650300Y-227399D01*
X650300Y-235399D01*
X651900Y-240100D01*
X653499Y-243299D01*
X656700Y-246500D01*
X659899Y-248099D01*
X666199Y-248099D01*
X669400Y-246500D01*
X672600Y-243299D01*
X674200Y-240100D01*
X2022294Y-714598D02*
G01*
X2018194Y-716599D01*
X2014093Y-720698D01*
X2011994Y-724798D01*
X2009993Y-730999D01*
X2009993Y-741199D01*
X2011994Y-747298D01*
X2014093Y-751399D01*
X2018194Y-755498D01*
X2022294Y-757498D01*
X2030493Y-757498D01*
X2034494Y-755498D01*
X2038594Y-751399D01*
X2040694Y-747298D01*
X2042694Y-741199D01*
X2042694Y-730999D01*
X2040694Y-724798D01*
X2038594Y-720698D01*
X2034494Y-716599D01*
X2030493Y-714598D01*
X2022294Y-714598D01*
X2056193Y-714598D02*
G01*
X2056193Y-757498D01*
X2056193Y-714598D02*
G01*
X2084894Y-757498D01*
X2084894Y-714598D02*
G01*
X2084894Y-757498D01*
X2135194Y-706399D02*
G01*
X2098393Y-771898D01*
X2160994Y-714598D02*
G01*
X2156894Y-716599D01*
X2152794Y-720698D01*
X2150694Y-724798D01*
X2148693Y-730999D01*
X2148693Y-741199D01*
X2150694Y-747298D01*
X2152794Y-751399D01*
X2156894Y-755498D01*
X2160994Y-757498D01*
X2169093Y-757498D01*
X2173194Y-755498D01*
X2177294Y-751399D01*
X2179394Y-747298D01*
X2181394Y-741199D01*
X2181394Y-730999D01*
X2179394Y-724798D01*
X2177294Y-720698D01*
X2173194Y-716599D01*
X2169093Y-714598D01*
X2160994Y-714598D01*
X2194894Y-714598D02*
G01*
X2194894Y-757498D01*
X2194894Y-714598D02*
G01*
X2221494Y-714598D01*
X2194894Y-734998D02*
G01*
X2211293Y-734998D01*
X2234993Y-714598D02*
G01*
X2234993Y-757498D01*
X2234993Y-714598D02*
G01*
X2261593Y-714598D01*
X2234993Y-734998D02*
G01*
X2251394Y-734998D01*
X2380000Y-522795D02*
G01*
X2384099Y-520695D01*
X2390200Y-514594D01*
X2390200Y-557494D01*
X2416000Y-514594D02*
G01*
X2409899Y-516595D01*
X2405799Y-522795D01*
X2403699Y-532995D01*
X2403699Y-539095D01*
X2405799Y-549394D01*
X2409899Y-555495D01*
X2416000Y-557494D01*
X2420100Y-557494D01*
X2426199Y-555495D01*
X2430299Y-549394D01*
X2432399Y-539095D01*
X2432399Y-532995D01*
X2430299Y-522795D01*
X2426199Y-516595D01*
X2420100Y-514594D01*
X2416000Y-514594D01*
X2445900Y-514594D02*
G01*
X2445900Y-557494D01*
X2474499Y-514594D02*
G01*
X2445900Y-543195D01*
X2456099Y-532995D02*
G01*
X2474499Y-557494D01*
X1439997Y-692795D02*
G01*
X1444098Y-690695D01*
X1450198Y-684596D01*
X1450198Y-727496D01*
X1475997Y-684596D02*
G01*
X1469898Y-686595D01*
X1465798Y-692795D01*
X1463698Y-702995D01*
X1463698Y-709095D01*
X1465798Y-719396D01*
X1469898Y-725495D01*
X1475997Y-727496D01*
X1480097Y-727496D01*
X1486198Y-725495D01*
X1490298Y-719396D01*
X1492398Y-709095D01*
X1492398Y-702995D01*
X1490298Y-692795D01*
X1486198Y-686595D01*
X1480097Y-684596D01*
X1475997Y-684596D01*
X1505897Y-684596D02*
G01*
X1505897Y-727496D01*
X1534498Y-684596D02*
G01*
X1505897Y-713195D01*
X1516098Y-702995D02*
G01*
X1534498Y-727496D01*
X1509997Y-2795D02*
G01*
X1514098Y-695D01*
X1520198Y5403D01*
X1520198Y-37496D01*
X1545997Y5403D02*
G01*
X1539898Y3404D01*
X1535798Y-2795D01*
X1533698Y-12995D01*
X1533698Y-19095D01*
X1535798Y-29396D01*
X1539898Y-35495D01*
X1545997Y-37496D01*
X1550097Y-37496D01*
X1556198Y-35495D01*
X1560298Y-29396D01*
X1562398Y-19095D01*
X1562398Y-12995D01*
X1560298Y-2795D01*
X1556198Y3404D01*
X1550097Y5403D01*
X1545997Y5403D01*
X1575897Y5403D02*
G01*
X1575897Y-37496D01*
X1604498Y5403D02*
G01*
X1575897Y-23195D01*
X1586098Y-12995D02*
G01*
X1604498Y-37496D01*
X1274600Y-930000D02*
G01*
X1317500Y-930000D01*
X1274600Y-930000D02*
G01*
X1274600Y-911599D01*
X1276599Y-905500D01*
X1278699Y-903400D01*
X1282799Y-901399D01*
X1288900Y-901399D01*
X1293000Y-903400D01*
X1295000Y-905500D01*
X1297100Y-911599D01*
X1297100Y-930000D01*
X1274600Y-887899D02*
G01*
X1317500Y-887899D01*
X1274600Y-887899D02*
G01*
X1274600Y-869499D01*
X1276599Y-863299D01*
X1278699Y-861300D01*
X1282799Y-859200D01*
X1286899Y-859200D01*
X1291000Y-861300D01*
X1293000Y-863299D01*
X1295000Y-869499D01*
X1295000Y-887899D02*
G01*
X1295000Y-869499D01*
X1297100Y-863299D01*
X1299099Y-861300D01*
X1303199Y-859200D01*
X1309399Y-859200D01*
X1313500Y-861300D01*
X1315500Y-863299D01*
X1317500Y-869499D01*
X1317500Y-887899D01*
X1274600Y-841599D02*
G01*
X1274600Y-819099D01*
X1291000Y-831399D01*
X1291000Y-825300D01*
X1293000Y-821199D01*
X1295000Y-819099D01*
X1301199Y-817100D01*
X1305299Y-817100D01*
X1311400Y-819099D01*
X1315500Y-823200D01*
X1317500Y-829400D01*
X1317500Y-835500D01*
X1315500Y-841599D01*
X1313500Y-843699D01*
X1309399Y-845700D01*
X1414600Y-930000D02*
G01*
X1457500Y-930000D01*
X1414600Y-930000D02*
G01*
X1414600Y-911599D01*
X1416599Y-905500D01*
X1418699Y-903400D01*
X1422799Y-901399D01*
X1428900Y-901399D01*
X1433000Y-903400D01*
X1435000Y-905500D01*
X1437100Y-911599D01*
X1437100Y-930000D01*
X1414600Y-887899D02*
G01*
X1457500Y-887899D01*
X1414600Y-887899D02*
G01*
X1414600Y-869499D01*
X1416599Y-863299D01*
X1418699Y-861300D01*
X1422799Y-859200D01*
X1426899Y-859200D01*
X1431000Y-861300D01*
X1433000Y-863299D01*
X1435000Y-869499D01*
X1435000Y-887899D02*
G01*
X1435000Y-869499D01*
X1437100Y-863299D01*
X1439099Y-861300D01*
X1443199Y-859200D01*
X1449399Y-859200D01*
X1453500Y-861300D01*
X1455500Y-863299D01*
X1457500Y-869499D01*
X1457500Y-887899D01*
X1414600Y-825300D02*
G01*
X1443199Y-845700D01*
X1443199Y-815000D01*
X1414600Y-825300D02*
G01*
X1457500Y-825300D01*
X1134600Y-930000D02*
G01*
X1177500Y-930000D01*
X1134600Y-930000D02*
G01*
X1134600Y-911599D01*
X1136599Y-905500D01*
X1138699Y-903400D01*
X1142799Y-901399D01*
X1148900Y-901399D01*
X1153000Y-903400D01*
X1155000Y-905500D01*
X1157100Y-911599D01*
X1157100Y-930000D01*
X1134600Y-887899D02*
G01*
X1177500Y-887899D01*
X1134600Y-887899D02*
G01*
X1134600Y-869499D01*
X1136599Y-863299D01*
X1138699Y-861300D01*
X1142799Y-859200D01*
X1146899Y-859200D01*
X1151000Y-861300D01*
X1153000Y-863299D01*
X1155000Y-869499D01*
X1155000Y-887899D02*
G01*
X1155000Y-869499D01*
X1157100Y-863299D01*
X1159099Y-861300D01*
X1163199Y-859200D01*
X1169399Y-859200D01*
X1173500Y-861300D01*
X1175500Y-863299D01*
X1177500Y-869499D01*
X1177500Y-887899D01*
X1144799Y-843699D02*
G01*
X1142799Y-843699D01*
X1138699Y-841599D01*
X1136599Y-839600D01*
X1134600Y-835500D01*
X1134600Y-827300D01*
X1136599Y-823200D01*
X1138699Y-821199D01*
X1142799Y-819099D01*
X1146899Y-819099D01*
X1151000Y-821199D01*
X1157100Y-825300D01*
X1177500Y-845700D01*
X1177500Y-817100D01*
X994600Y-930000D02*
G01*
X1037500Y-930000D01*
X994600Y-930000D02*
G01*
X994600Y-911599D01*
X996599Y-905500D01*
X998699Y-903400D01*
X1002799Y-901399D01*
X1008900Y-901399D01*
X1013000Y-903400D01*
X1015000Y-905500D01*
X1017100Y-911599D01*
X1017100Y-930000D01*
X994600Y-887899D02*
G01*
X1037500Y-887899D01*
X994600Y-887899D02*
G01*
X994600Y-869499D01*
X996599Y-863299D01*
X998699Y-861300D01*
X1002799Y-859200D01*
X1006899Y-859200D01*
X1011000Y-861300D01*
X1013000Y-863299D01*
X1015000Y-869499D01*
X1015000Y-887899D02*
G01*
X1015000Y-869499D01*
X1017100Y-863299D01*
X1019099Y-861300D01*
X1023199Y-859200D01*
X1029399Y-859200D01*
X1033500Y-861300D01*
X1035500Y-863299D01*
X1037500Y-869499D01*
X1037500Y-887899D01*
X1002799Y-845700D02*
G01*
X1000699Y-841599D01*
X994600Y-835500D01*
X1037500Y-835500D01*
X854600Y-930000D02*
G01*
X897500Y-930000D01*
X854600Y-930000D02*
G01*
X854600Y-911599D01*
X856599Y-905500D01*
X858699Y-903400D01*
X862800Y-901399D01*
X868899Y-901399D01*
X873000Y-903400D01*
X875000Y-905500D01*
X877100Y-911599D01*
X877100Y-930000D01*
X854600Y-887899D02*
G01*
X897500Y-887899D01*
X854600Y-887899D02*
G01*
X854600Y-869499D01*
X856599Y-863299D01*
X858699Y-861300D01*
X862800Y-859200D01*
X866900Y-859200D01*
X870999Y-861300D01*
X873000Y-863299D01*
X875000Y-869499D01*
X875000Y-887899D02*
G01*
X875000Y-869499D01*
X877100Y-863299D01*
X879099Y-861300D01*
X883200Y-859200D01*
X889400Y-859200D01*
X893499Y-861300D01*
X895500Y-863299D01*
X897500Y-869499D01*
X897500Y-887899D01*
X854600Y-833499D02*
G01*
X856599Y-839600D01*
X862800Y-843699D01*
X873000Y-845700D01*
X879099Y-845700D01*
X889400Y-843699D01*
X895500Y-839600D01*
X897500Y-833499D01*
X897500Y-829400D01*
X895500Y-823200D01*
X889400Y-819099D01*
X879099Y-817100D01*
X873000Y-817100D01*
X862800Y-819099D01*
X856599Y-823200D01*
X854600Y-829400D01*
X854600Y-833499D01*
X1320933Y-71799D02*
G01*
X1314732Y-73800D01*
X1310632Y-80000D01*
X1308632Y-90199D01*
X1308632Y-96300D01*
X1310632Y-106599D01*
X1314732Y-112699D01*
X1320933Y-114699D01*
X1325033Y-114699D01*
X1331132Y-112699D01*
X1335232Y-106599D01*
X1337232Y-96300D01*
X1337232Y-90199D01*
X1335232Y-80000D01*
X1331132Y-73800D01*
X1325033Y-71799D01*
X1320933Y-71799D01*
X1352833Y-104499D02*
G01*
X1350733Y-106599D01*
X1352833Y-108600D01*
X1354832Y-106599D01*
X1352833Y-104499D01*
X1368333Y-80000D02*
G01*
X1372433Y-77899D01*
X1378632Y-71799D01*
X1378632Y-114699D01*
X1392133Y-86100D02*
G01*
X1392133Y-106599D01*
X1394133Y-112699D01*
X1398233Y-114699D01*
X1404332Y-114699D01*
X1408433Y-112699D01*
X1414633Y-106599D01*
X1414633Y-86100D02*
G01*
X1414633Y-114699D01*
X2061700Y242433D02*
G01*
X2063699Y236233D01*
X2069899Y232132D01*
X2080100Y230133D01*
X2086199Y230133D01*
X2096499Y232132D01*
X2102600Y236233D01*
X2104600Y242433D01*
X2104600Y246532D01*
X2102600Y252633D01*
X2096499Y256732D01*
X2086199Y258733D01*
X2080100Y258733D01*
X2069899Y256732D01*
X2063699Y252633D01*
X2061700Y246532D01*
X2061700Y242433D01*
X2094399Y274333D02*
G01*
X2096499Y272233D01*
X2098500Y274333D01*
X2096499Y276332D01*
X2094399Y274333D01*
X2069899Y289832D02*
G01*
X2067799Y293933D01*
X2061700Y300133D01*
X2104600Y300133D01*
X2076000Y313632D02*
G01*
X2096499Y313632D01*
X2102600Y315632D01*
X2104600Y319733D01*
X2104600Y325832D01*
X2102600Y329933D01*
X2096499Y336132D01*
X2076000Y336132D02*
G01*
X2104600Y336132D01*
X2304600Y242303D02*
G01*
X2306599Y236102D01*
X2312799Y232002D01*
X2323000Y230003D01*
X2329099Y230003D01*
X2339399Y232002D01*
X2345500Y236102D01*
X2347500Y242303D01*
X2347500Y246403D01*
X2345500Y252503D01*
X2339399Y256603D01*
X2329099Y258602D01*
X2323000Y258602D01*
X2312799Y256603D01*
X2306599Y252503D01*
X2304600Y246403D01*
X2304600Y242303D01*
X2337299Y274203D02*
G01*
X2339399Y272103D01*
X2341400Y274203D01*
X2339399Y276203D01*
X2337299Y274203D01*
X2312799Y289702D02*
G01*
X2310699Y293802D01*
X2304600Y300003D01*
X2347500Y300003D01*
X2318900Y313503D02*
G01*
X2339399Y313503D01*
X2345500Y315502D01*
X2347500Y319603D01*
X2347500Y325702D01*
X2345500Y329803D01*
X2339399Y336003D01*
X2318900Y336003D02*
G01*
X2347500Y336003D01*
X2060699Y398600D02*
G01*
X2056598Y394501D01*
X2054598Y388400D01*
X2054598Y380201D01*
X2056598Y374101D01*
X2060699Y370001D01*
X2064799Y370001D01*
X2068899Y372001D01*
X2070999Y374101D01*
X2072998Y378200D01*
X2077098Y390500D01*
X2079098Y394501D01*
X2081198Y396601D01*
X2085299Y398600D01*
X2091399Y398600D01*
X2095498Y394501D01*
X2097498Y388400D01*
X2097498Y380201D01*
X2095498Y374101D01*
X2091399Y370001D01*
X2054598Y412100D02*
G01*
X2097498Y412100D01*
X2054598Y412100D02*
G01*
X2097498Y440801D01*
X2054598Y440801D02*
G01*
X2097498Y440801D01*
X2054598Y482901D02*
G01*
X2097498Y462501D01*
X2054598Y454301D02*
G01*
X2054598Y482901D01*
X2054598Y516900D02*
G01*
X2083199Y496401D01*
X2083199Y527100D01*
X2054598Y516900D02*
G01*
X2097498Y516900D01*
X2054598Y557001D02*
G01*
X2097498Y540601D01*
X2054598Y557001D02*
G01*
X2097498Y573301D01*
X2083199Y546700D02*
G01*
X2083199Y567201D01*
X2054598Y586801D02*
G01*
X2097498Y586801D01*
X2054598Y615500D02*
G01*
X2097498Y615500D01*
X2074998Y586801D02*
G01*
X2074998Y615500D01*
X2064799Y659600D02*
G01*
X2060699Y657600D01*
X2056598Y653501D01*
X2054598Y649400D01*
X2054598Y641201D01*
X2056598Y637100D01*
X2060699Y633000D01*
X2064799Y631001D01*
X2070999Y629000D01*
X2081198Y629000D01*
X2087299Y631001D01*
X2091399Y633000D01*
X2095498Y637100D01*
X2097498Y641201D01*
X2097498Y649400D01*
X2095498Y653501D01*
X2091399Y657600D01*
X2087299Y659600D01*
X2062799Y673101D02*
G01*
X2060699Y677201D01*
X2054598Y683400D01*
X2097498Y683400D01*
X2064799Y698901D02*
G01*
X2062799Y698901D01*
X2058698Y701001D01*
X2056598Y703000D01*
X2054598Y707100D01*
X2054598Y715300D01*
X2056598Y719400D01*
X2058698Y721401D01*
X2062799Y723501D01*
X2066899Y723501D01*
X2070999Y721401D01*
X2077098Y717301D01*
X2097498Y696900D01*
X2097498Y725500D01*
X2054598Y763501D02*
G01*
X2054598Y743101D01*
X2072998Y741001D01*
X2070999Y743101D01*
X2068899Y749200D01*
X2068899Y755401D01*
X2070999Y761500D01*
X2074998Y765601D01*
X2081198Y767600D01*
X2085299Y767600D01*
X2091399Y765601D01*
X2095498Y761500D01*
X2097498Y755401D01*
X2097498Y749200D01*
X2095498Y743101D01*
X2093499Y741001D01*
X2089399Y739000D01*
X2054598Y781100D02*
G01*
X2097498Y781100D01*
X2054598Y781100D02*
G01*
X2054598Y795500D01*
X2056598Y801601D01*
X2060699Y805700D01*
X2064799Y807701D01*
X2070999Y809801D01*
X2081198Y809801D01*
X2087299Y807701D01*
X2091399Y805700D01*
X2095498Y801601D01*
X2097498Y795500D01*
X2097498Y781100D01*
X2054598Y823301D02*
G01*
X2097498Y823301D01*
X2054598Y823301D02*
G01*
X2054598Y841700D01*
X2056598Y847800D01*
X2058698Y849900D01*
X2062799Y851900D01*
X2066899Y851900D01*
X2070999Y849900D01*
X2072998Y847800D01*
X2074998Y841700D01*
X2074998Y823301D01*
X2074998Y837600D02*
G01*
X2097498Y851900D01*
X2096400Y-164600D02*
G01*
X2080000Y-207500D01*
X2096400Y-164600D02*
G01*
X2112700Y-207500D01*
X2086099Y-193200D02*
G01*
X2106599Y-193200D01*
X2126199Y-164600D02*
G01*
X2126199Y-207500D01*
X2126199Y-164600D02*
G01*
X2142600Y-207500D01*
X2158999Y-164600D02*
G01*
X2142600Y-207500D01*
X2158999Y-164600D02*
G01*
X2158999Y-207500D01*
X2201099Y-170700D02*
G01*
X2196999Y-166599D01*
X2190900Y-164600D01*
X2182700Y-164600D01*
X2176499Y-166599D01*
X2172500Y-170700D01*
X2172500Y-174800D01*
X2174499Y-178899D01*
X2176499Y-180999D01*
X2180600Y-183000D01*
X2192899Y-187100D01*
X2196999Y-189099D01*
X2198999Y-191199D01*
X2201099Y-195300D01*
X2201099Y-201399D01*
X2196999Y-205500D01*
X2190900Y-207500D01*
X2182700Y-207500D01*
X2176499Y-205500D01*
X2172500Y-201399D01*
X2214600Y-172800D02*
G01*
X2218699Y-170700D01*
X2224799Y-164600D01*
X2224799Y-207500D01*
X2238299Y-172800D02*
G01*
X2242399Y-170700D01*
X2248500Y-164600D01*
X2248500Y-207500D01*
X2261999Y-172800D02*
G01*
X2266099Y-170700D01*
X2272299Y-164600D01*
X2272299Y-207500D01*
X2314399Y-164600D02*
G01*
X2293999Y-207500D01*
X2285799Y-164600D02*
G01*
X2314399Y-164600D01*
X2327899Y-189099D02*
G01*
X2364700Y-189099D01*
X2382299Y-164600D02*
G01*
X2404799Y-164600D01*
X2392500Y-180999D01*
X2398699Y-180999D01*
X2402799Y-183000D01*
X2404799Y-185000D01*
X2406899Y-191199D01*
X2406899Y-195300D01*
X2404799Y-201399D01*
X2400699Y-205500D01*
X2394600Y-207500D01*
X2388500Y-207500D01*
X2382299Y-205500D01*
X2380299Y-203499D01*
X2378199Y-199400D01*
X2422399Y-197300D02*
G01*
X2420399Y-199400D01*
X2422399Y-201399D01*
X2424499Y-199400D01*
X2422399Y-197300D01*
X2441999Y-164600D02*
G01*
X2464499Y-164600D01*
X2452299Y-180999D01*
X2458400Y-180999D01*
X2462500Y-183000D01*
X2464499Y-185000D01*
X2466599Y-191199D01*
X2466599Y-195300D01*
X2464499Y-201399D01*
X2460500Y-205500D01*
X2454300Y-207500D01*
X2448199Y-207500D01*
X2441999Y-205500D01*
X2440000Y-203499D01*
X2438000Y-199400D01*
D10*
X2378425Y859369D02*
G01*
X2378425Y780630D01*
X2240630Y867244D02*
G01*
X2193386Y867244D01*
X2240630Y772755D02*
G01*
X2193386Y772755D01*
X2319371Y867244D02*
G01*
X2366613Y867244D01*
X2319371Y772755D02*
G01*
X2366613Y772755D01*
X2181575Y859369D02*
G01*
X2181575Y780630D01*
X2189449Y867244D02*
G01*
X2193386Y867244D01*
X2189449Y772755D02*
G01*
X2193386Y772755D01*
X2370551Y867244D02*
G01*
X2366613Y867244D01*
X2370551Y772755D02*
G01*
X2366613Y772755D01*
X2100630Y-311574D02*
G01*
X2179369Y-311574D01*
X2092755Y-449369D02*
G01*
X2092755Y-496613D01*
X2187244Y-449369D02*
G01*
X2187244Y-496613D01*
X2092755Y-370628D02*
G01*
X2092755Y-323386D01*
X2187244Y-370628D02*
G01*
X2187244Y-323386D01*
X2100630Y-508425D02*
G01*
X2179369Y-508425D01*
X2092755Y-500551D02*
G01*
X2092755Y-496613D01*
X2187244Y-500551D02*
G01*
X2187244Y-496613D01*
X2092755Y-319448D02*
G01*
X2092755Y-323386D01*
X2187244Y-319448D02*
G01*
X2187244Y-323386D01*
X496062Y977932D02*
G01*
X496062Y899193D01*
X444881Y977932D02*
G01*
X444881Y899193D01*
X496062Y977932D02*
G01*
X444881Y977932D01*
X635000Y855684D02*
G01*
X635000Y822703D01*
X365000Y855684D02*
G01*
X365000Y822703D01*
X384594Y779193D02*
G01*
X375241Y779193D01*
X443654Y779193D02*
G01*
X438229Y779193D01*
X561765Y779193D02*
G01*
X497289Y779193D01*
X624758Y779193D02*
G01*
X615399Y779193D01*
X375241Y899193D02*
G01*
X624758Y899193D01*
X496062Y-672067D02*
G01*
X496062Y-750806D01*
X444881Y-672067D02*
G01*
X444881Y-750806D01*
X496062Y-672067D02*
G01*
X444881Y-672067D01*
X635000Y-794315D02*
G01*
X635000Y-827296D01*
X365000Y-794315D02*
G01*
X365000Y-827296D01*
X384594Y-870806D02*
G01*
X375241Y-870806D01*
X443654Y-870806D02*
G01*
X438229Y-870806D01*
X561765Y-870806D02*
G01*
X497289Y-870806D01*
X624758Y-870806D02*
G01*
X615399Y-870806D01*
X375241Y-750806D02*
G01*
X624758Y-750806D01*
X-78499Y-744960D02*
G01*
X-2640Y-744960D01*
X-78499Y-615039D02*
G01*
X-2640Y-615039D01*
X-2640Y-744960D01*
X18359Y-744960D01*
X18359Y-615039D01*
X-2640Y-615039D01*
X-141500Y-744960D02*
G01*
X-217359Y-744960D01*
X-217359Y-615039D01*
X-141500Y-615039D01*
X-78499Y615039D02*
G01*
X-2640Y615039D01*
X-78499Y744960D02*
G01*
X-2640Y744960D01*
X-2640Y615039D01*
X18359Y615039D01*
X18359Y744960D01*
X-2640Y744960D01*
X-141500Y615039D02*
G01*
X-217359Y615039D01*
X-217359Y744960D01*
X-141500Y744960D01*
X2446000Y-810500D02*
G01*
X2446000Y-868499D01*
X2513999Y-810500D02*
G01*
X2513999Y-868499D01*
X2513999Y-810500D02*
G01*
X2446000Y-810500D01*
X2446000Y-891500D02*
G01*
X2446000Y-937500D01*
X2513999Y-892500D02*
G01*
X2513999Y-937500D01*
X2513999Y-937500D02*
G01*
X2500000Y-951500D01*
X2460000Y-951500D01*
X2446000Y-937500D01*
D43*
X2496000Y-876999D02*
G01*
X2465000Y-876999D01*
X2480312Y-876999D02*
G01*
X2480312Y-883904D01*
D10*
X1606000Y-810500D02*
G01*
X1606000Y-868499D01*
X1673999Y-810500D02*
G01*
X1673999Y-868499D01*
X1673999Y-810500D02*
G01*
X1606000Y-810500D01*
X1606000Y-891500D02*
G01*
X1606000Y-937500D01*
X1673999Y-892500D02*
G01*
X1673999Y-937500D01*
X1673999Y-937500D02*
G01*
X1660000Y-951500D01*
X1620000Y-951500D01*
X1606000Y-937500D01*
D43*
X1656000Y-876999D02*
G01*
X1625000Y-876999D01*
X1640312Y-876999D02*
G01*
X1640312Y-883904D01*
D10*
X2346000Y-810500D02*
G01*
X2346000Y-868499D01*
X2413999Y-810500D02*
G01*
X2413999Y-868499D01*
X2413999Y-810500D02*
G01*
X2346000Y-810500D01*
X2346000Y-891500D02*
G01*
X2346000Y-937500D01*
X2413999Y-892500D02*
G01*
X2413999Y-937500D01*
X2413999Y-937500D02*
G01*
X2400000Y-951500D01*
X2360000Y-951500D01*
X2346000Y-937500D01*
D43*
X2396000Y-876999D02*
G01*
X2365000Y-876999D01*
X2380312Y-876999D02*
G01*
X2380312Y-883904D01*
D10*
X2546000Y-810500D02*
G01*
X2546000Y-868499D01*
X2613999Y-810500D02*
G01*
X2613999Y-868499D01*
X2613999Y-810500D02*
G01*
X2546000Y-810500D01*
X2546000Y-891500D02*
G01*
X2546000Y-937500D01*
X2613999Y-892500D02*
G01*
X2613999Y-937500D01*
X2613999Y-937500D02*
G01*
X2600000Y-951500D01*
X2560000Y-951500D01*
X2546000Y-937500D01*
D43*
X2596000Y-876999D02*
G01*
X2565000Y-876999D01*
X2580312Y-876999D02*
G01*
X2580312Y-883904D01*
D10*
X2238425Y-580630D02*
G01*
X2238425Y-659369D01*
X2041575Y-580630D02*
G01*
X2041575Y-659369D01*
X2179371Y-667244D02*
G01*
X2226613Y-667244D01*
X2179371Y-572755D02*
G01*
X2226613Y-572755D01*
X2100630Y-667244D02*
G01*
X2053387Y-667244D01*
X2100630Y-572755D02*
G01*
X2053387Y-572755D01*
X1746000Y-810500D02*
G01*
X1746000Y-868499D01*
X1813999Y-810500D02*
G01*
X1813999Y-868499D01*
X1813999Y-810500D02*
G01*
X1746000Y-810500D01*
X1746000Y-891500D02*
G01*
X1746000Y-937500D01*
X1813999Y-892500D02*
G01*
X1813999Y-937500D01*
X1813999Y-937500D02*
G01*
X1800000Y-951500D01*
X1760000Y-951500D01*
X1746000Y-937500D01*
D44*
X1795000Y-874499D02*
G01*
X1763999Y-874499D01*
X1773999Y-884499D01*
X1788000Y-884499D01*
X1798000Y-874499D01*
X1788999Y-874499D01*
X1771000Y-879499D02*
G01*
X1791000Y-879499D01*
D10*
X1846000Y-810500D02*
G01*
X1846000Y-868499D01*
X1913999Y-810500D02*
G01*
X1913999Y-868499D01*
X1913999Y-810500D02*
G01*
X1846000Y-810500D01*
X1846000Y-891500D02*
G01*
X1846000Y-937500D01*
X1913999Y-892500D02*
G01*
X1913999Y-937500D01*
X1913999Y-937500D02*
G01*
X1900000Y-951500D01*
X1860000Y-951500D01*
X1846000Y-937500D01*
D44*
X1895000Y-874499D02*
G01*
X1863999Y-874499D01*
X1873999Y-884499D01*
X1888000Y-884499D01*
X1898000Y-874499D01*
X1888999Y-874499D01*
X1871000Y-879499D02*
G01*
X1891000Y-879499D01*
D10*
X1821048Y-431496D02*
G01*
X1821048Y-368503D01*
X1748189Y-368703D02*
G01*
X1698977Y-368703D01*
X1748189Y-431698D02*
G01*
X1698977Y-431698D01*
X1771833Y-368503D02*
G01*
X1821048Y-368503D01*
X1771833Y-431496D02*
G01*
X1821048Y-431496D01*
X1698977Y-431698D02*
G01*
X1698977Y-368703D01*
X1821048Y-521496D02*
G01*
X1821048Y-458503D01*
X1748189Y-458703D02*
G01*
X1698977Y-458703D01*
X1748189Y-521698D02*
G01*
X1698977Y-521698D01*
X1771833Y-458503D02*
G01*
X1821048Y-458503D01*
X1771833Y-521496D02*
G01*
X1821048Y-521496D01*
X1698977Y-521698D02*
G01*
X1698977Y-458703D01*
X2123936Y-1017932D02*
G01*
X2123936Y-939193D01*
X2175119Y-1017932D02*
G01*
X2175119Y-939193D01*
X2123936Y-1017932D02*
G01*
X2175119Y-1017932D01*
X1985000Y-895684D02*
G01*
X1985000Y-862703D01*
X2255000Y-895684D02*
G01*
X2255000Y-862703D01*
X2235405Y-819193D02*
G01*
X2244758Y-819193D01*
X2176345Y-819193D02*
G01*
X2181770Y-819193D01*
X2058235Y-819193D02*
G01*
X2122710Y-819193D01*
X1995241Y-819193D02*
G01*
X2004601Y-819193D01*
X2244758Y-939193D02*
G01*
X1995241Y-939193D01*
D45*
X660000Y-490000D02*
G01*
X660000Y-290000D01*
X360000Y-290000D01*
X360000Y-490000D01*
X660000Y-490000D01*
X468330Y-490000D01*
X1570000Y960000D02*
G01*
X1570000Y860000D01*
X1170000Y860000D01*
X1170000Y960000D01*
X1245000Y960000D01*
D46*
X1570000Y960000D02*
G01*
X1245000Y960000D01*
D10*
X1656850Y-290077D02*
G01*
X1656850Y-549922D01*
X1263149Y-290077D02*
G01*
X1275045Y-290077D01*
X1344955Y-290077D02*
G01*
X1375045Y-290077D01*
X1444955Y-290077D02*
G01*
X1472446Y-290077D01*
X1547554Y-290077D02*
G01*
X1572446Y-290077D01*
X1647554Y-290077D02*
G01*
X1656850Y-290077D01*
X1263149Y-549922D02*
G01*
X1275045Y-549922D01*
X1344955Y-549922D02*
G01*
X1375045Y-549922D01*
X1444955Y-549922D02*
G01*
X1475045Y-549922D01*
X1544955Y-549922D02*
G01*
X1575045Y-549922D01*
X1644955Y-549922D02*
G01*
X1656850Y-549922D01*
X1263149Y-549922D02*
G01*
X1263149Y-469212D01*
X1263149Y-290077D02*
G01*
X1263149Y-370787D01*
D45*
X2040000Y-630000D02*
G01*
X2040000Y-630000D01*
X1940000Y-630000D01*
X1940000Y870000D01*
X2040000Y870000D01*
X2040000Y795000D01*
D43*
X2040000Y-630000D02*
G01*
X2040000Y795000D01*
D45*
X2550000Y870000D02*
G01*
X2550000Y870000D01*
X2650000Y870000D01*
X2650000Y-630000D01*
X2550000Y-630000D01*
X2550000Y-555000D01*
D43*
X2550000Y870000D02*
G01*
X2550000Y-555000D01*
D47*
X2493604Y-647716D02*
G01*
X2493604Y-687078D01*
X2346364Y-687087D01*
X2346364Y-646138D01*
X2346379Y-612285D02*
G01*
X2346379Y-572134D01*
X2493620Y-572125D01*
X2493620Y-613081D01*
X1286395Y-692283D02*
G01*
X1286395Y-652921D01*
X1433635Y-652912D01*
X1433635Y-693861D01*
X1433620Y-727714D02*
G01*
X1433620Y-767865D01*
X1286379Y-767874D01*
X1286379Y-726918D01*
X1486395Y-102283D02*
G01*
X1486395Y-62921D01*
X1633635Y-62912D01*
X1633635Y-103861D01*
X1633620Y-137714D02*
G01*
X1633620Y-177865D01*
X1486379Y-177874D01*
X1486379Y-136918D01*
D10*
X1326000Y-810500D02*
G01*
X1326000Y-868499D01*
X1393999Y-810500D02*
G01*
X1393999Y-868499D01*
X1393999Y-810500D02*
G01*
X1326000Y-810500D01*
X1326000Y-891500D02*
G01*
X1326000Y-937500D01*
X1393999Y-892500D02*
G01*
X1393999Y-937500D01*
X1393999Y-937500D02*
G01*
X1380000Y-951500D01*
X1340000Y-951500D01*
X1326000Y-937500D01*
D44*
X1375000Y-874499D02*
G01*
X1343999Y-874499D01*
X1353999Y-884499D01*
X1368000Y-884499D01*
X1378000Y-874499D01*
X1368999Y-874499D01*
X1351000Y-879499D02*
G01*
X1371000Y-879499D01*
D10*
X1466000Y-810500D02*
G01*
X1466000Y-868499D01*
X1533999Y-810500D02*
G01*
X1533999Y-868499D01*
X1533999Y-810500D02*
G01*
X1466000Y-810500D01*
X1466000Y-891500D02*
G01*
X1466000Y-937500D01*
X1533999Y-892500D02*
G01*
X1533999Y-937500D01*
X1533999Y-937500D02*
G01*
X1520000Y-951500D01*
X1480000Y-951500D01*
X1466000Y-937500D01*
D44*
X1515000Y-874499D02*
G01*
X1483999Y-874499D01*
X1493999Y-884499D01*
X1508000Y-884499D01*
X1518000Y-874499D01*
X1508999Y-874499D01*
X1491000Y-879499D02*
G01*
X1511000Y-879499D01*
D10*
X1186000Y-810500D02*
G01*
X1186000Y-868499D01*
X1253999Y-810500D02*
G01*
X1253999Y-868499D01*
X1253999Y-810500D02*
G01*
X1186000Y-810500D01*
X1186000Y-891500D02*
G01*
X1186000Y-937500D01*
X1253999Y-892500D02*
G01*
X1253999Y-937500D01*
X1253999Y-937500D02*
G01*
X1240000Y-951500D01*
X1200000Y-951500D01*
X1186000Y-937500D01*
D44*
X1235000Y-874499D02*
G01*
X1203999Y-874499D01*
X1213999Y-884499D01*
X1228000Y-884499D01*
X1238000Y-874499D01*
X1228999Y-874499D01*
X1211000Y-879499D02*
G01*
X1231000Y-879499D01*
D10*
X1046000Y-810500D02*
G01*
X1046000Y-868499D01*
X1113999Y-810500D02*
G01*
X1113999Y-868499D01*
X1113999Y-810500D02*
G01*
X1046000Y-810500D01*
X1046000Y-891500D02*
G01*
X1046000Y-937500D01*
X1113999Y-892500D02*
G01*
X1113999Y-937500D01*
X1113999Y-937500D02*
G01*
X1100000Y-951500D01*
X1060000Y-951500D01*
X1046000Y-937500D01*
D44*
X1095000Y-874499D02*
G01*
X1063999Y-874499D01*
X1073999Y-884499D01*
X1088000Y-884499D01*
X1098000Y-874499D01*
X1088999Y-874499D01*
X1071000Y-879499D02*
G01*
X1091000Y-879499D01*
D10*
X905999Y-810500D02*
G01*
X905999Y-868499D01*
X973999Y-810500D02*
G01*
X973999Y-868499D01*
X973999Y-810500D02*
G01*
X905999Y-810500D01*
X905999Y-891500D02*
G01*
X905999Y-937500D01*
X973999Y-892500D02*
G01*
X973999Y-937500D01*
X973999Y-937500D02*
G01*
X960000Y-951500D01*
X920000Y-951500D01*
X905999Y-937500D01*
D44*
X955000Y-874499D02*
G01*
X924000Y-874499D01*
X934000Y-884499D01*
X948000Y-884499D01*
X958000Y-874499D01*
X949000Y-874499D01*
X930999Y-879499D02*
G01*
X950999Y-879499D01*
D45*
X1030000Y-280000D02*
G01*
X830000Y-280000D01*
X830000Y-580000D01*
X1030000Y-580000D01*
X1030000Y-280000D01*
X1030000Y-471669D01*
D10*
X1295038Y-183622D02*
G01*
X1295038Y-136377D01*
X1375747Y-191496D02*
G01*
X1415118Y-191496D01*
X1375747Y-128503D02*
G01*
X1415118Y-128503D01*
X1344247Y-191496D02*
G01*
X1304881Y-191496D01*
X1344247Y-128503D02*
G01*
X1304881Y-128503D01*
X1424961Y-183622D02*
G01*
X1424961Y-136377D01*
X1417087Y-191496D02*
G01*
X1415118Y-191496D01*
X1417085Y-128503D02*
G01*
X1415118Y-128503D01*
X1302912Y-191496D02*
G01*
X1304881Y-191496D01*
X1302914Y-128503D02*
G01*
X1304881Y-128503D01*
X2173622Y215039D02*
G01*
X2126378Y215039D01*
X2181496Y295747D02*
G01*
X2181496Y335118D01*
X2118503Y295747D02*
G01*
X2118503Y335118D01*
X2181496Y264247D02*
G01*
X2181496Y224881D01*
X2118503Y264247D02*
G01*
X2118503Y224881D01*
X2173622Y344960D02*
G01*
X2126378Y344960D01*
X2181496Y337087D02*
G01*
X2181496Y335118D01*
X2118503Y337085D02*
G01*
X2118503Y335118D01*
X2181496Y222912D02*
G01*
X2181496Y224881D01*
X2118503Y222914D02*
G01*
X2118503Y224881D01*
X2283622Y215039D02*
G01*
X2236378Y215039D01*
X2291496Y295747D02*
G01*
X2291496Y335118D01*
X2228503Y295747D02*
G01*
X2228503Y335118D01*
X2291496Y264247D02*
G01*
X2291496Y224881D01*
X2228503Y264247D02*
G01*
X2228503Y224881D01*
X2283622Y344960D02*
G01*
X2236378Y344960D01*
X2291496Y337087D02*
G01*
X2291496Y335118D01*
X2228503Y337085D02*
G01*
X2228503Y335118D01*
X2291496Y222912D02*
G01*
X2291496Y224881D01*
X2228503Y222914D02*
G01*
X2228503Y224881D01*
X2303000Y740999D02*
G01*
X2345000Y740999D01*
X2345000Y396772D01*
X2345000Y396772D02*
G01*
X2195334Y396772D01*
X2195334Y396772D02*
G01*
X2195334Y740000D01*
X2238000Y740000D01*
D48*
X2117899Y74099D02*
G01*
X2381700Y74099D01*
X2381700Y-53800D01*
X2117899Y-53800D01*
X2117899Y74099D01*
D10*
G75*
G01*
X2181575Y859370D02*
G02*
X2189449Y867244I7874J0D01*
G75*
G01*
X2181575Y780630D02*
G03*
X2189449Y772756I7874J0D01*
G75*
G01*
X2378426Y859370D02*
G03*
X2370552Y867244I-7874J0D01*
G75*
G01*
X2378426Y780630D02*
G02*
X2370552Y772756I-7874J0D01*
G75*
G01*
X2100630Y-508425D02*
G02*
X2092756Y-500551I0J7874D01*
G75*
G01*
X2179370Y-508425D02*
G03*
X2187244Y-500551I0J7874D01*
G75*
G01*
X2100630Y-311574D02*
G03*
X2092756Y-319448I0J-7874D01*
G75*
G01*
X2179370Y-311574D02*
G02*
X2187244Y-319448I0J-7874D01*
G75*
G01*
X2144331Y-656614D02*
G02*
X2139995Y-620000I-1213J18420D01*
G75*
G01*
X2132520Y-585748D02*
G02*
X2134598Y-621818I467J-18068D01*
D49*
G75*
G01*
X1305000Y-505000D02*
G03*
X1304990Y-505443I-10000J4D01*
D10*
G75*
G01*
X1263149Y-370787D02*
G02*
X1263100Y-469200I-245J-49206D01*
G75*
G01*
X1424961Y-183623D02*
G02*
X1417087Y-191497I-7874J0D01*
G75*
G01*
X1424961Y-136378D02*
G03*
X1417086Y-128503I-7875J0D01*
G75*
G01*
X1295039Y-183623D02*
G03*
X1302913Y-191497I7874J0D01*
G75*
G01*
X1295039Y-136378D02*
G02*
X1302914Y-128503I7875J0D01*
G75*
G01*
X2173623Y344961D02*
G02*
X2181497Y337087I0J-7874D01*
G75*
G01*
X2126378Y344961D02*
G03*
X2118503Y337086I0J-7875D01*
G75*
G01*
X2173623Y215039D02*
G03*
X2181497Y222913I0J7874D01*
G75*
G01*
X2126378Y215039D02*
G02*
X2118503Y222914I0J7875D01*
G75*
G01*
X2283623Y344961D02*
G02*
X2291497Y337087I0J-7874D01*
G75*
G01*
X2236378Y344961D02*
G03*
X2228503Y337086I0J-7875D01*
G75*
G01*
X2283623Y215039D02*
G03*
X2291497Y222913I0J7874D01*
G75*
G01*
X2236378Y215039D02*
G02*
X2228503Y222914I0J7875D01*
G75*
G01*
X2303000Y741000D02*
G02*
X2240000Y740000I-31485J-1473D01*
M02*
