M48
INCH,LZ
;FILE_FORMAT=2:4
;TYPE=PLATED
;Layer: Drill PTH
;EasyEDA v6.4.17, 2021-03-02T21:28:07+01:00
;1007e7e2c1864e39a1c220729244a999,9c416354eb984020824aaf9c885bead6,10
;Gerber Generator version 0.2
;Holesize 1 = 0.0120 inch
T01C0.0120
;Holesize 2 = 0.0120 inch
T02C0.0120
;Holesize 3 = 0.0350 inch
T03C0.0350
;Holesize 4 = 0.0390 inch
T04C0.0390
;Holesize 5 = 0.0430 inch
T05C0.0430
;Holesize 6 = 0.0990 inch
T06C0.0990
%
G05
G90
T01
X006900Y008400
X003200Y008400
X003600Y007500
X003200Y007500
X007300Y-008599
X007300Y-009100
X007300Y-008100
X009900Y006600
X016700Y-001600
X010700Y-001700
X025200Y005700
X018500Y-004900
X018500Y-004000
X010700Y-000900
X010700Y-001300
X010700Y-002100
X012700Y-007100
X012400Y-006700
X023200Y004200
X020800Y005200
X022600Y006200
X024700Y005700
X023200Y007200
X020800Y001200
X014800Y-007400
X022850Y-006000
X023050Y-005800
X023450Y002400
X023450Y002800
X021200Y008100
X022100Y004700
T02
X009231Y004882
X009231Y002882
X009231Y000882
X023163Y-000134
X023665Y009421
X025665Y009421
X025665Y-006579
X014100Y-005100
X016800Y-003400
X017500Y-001500
X018400Y-002200
X018600Y-002600
X008400Y004900
X008400Y002900
X008400Y001300
X-002335Y-006721
X-002335Y005421
X015665Y-008579
T03
X001500Y-005512
X000500Y-005512
X-000500Y-005512
X-001500Y-005512
X-001500Y005512
X-000500Y005512
X000500Y005512
X001500Y005512
X006100Y-003400
X006100Y-004400
X005100Y-003400
X005100Y-004400
X004100Y-003400
X004100Y-004400
X012200Y009100
X013200Y009100
X014200Y009100
X015200Y009100
X019900Y-005800
X019900Y-004800
X019900Y-003800
X019900Y-002800
X019900Y-001800
X019900Y-000800
X019900Y000200
X019900Y001200
X019900Y002200
X019900Y003200
X019900Y004200
X019900Y005200
X019900Y006200
X019900Y007200
X019900Y008200
X026000Y008200
X026000Y007200
X026000Y006200
X026000Y005200
X026000Y004200
X026000Y003200
X026000Y002200
X026000Y001200
X026000Y000200
X026000Y-000800
X026000Y-001800
X026000Y-002800
X026000Y-003800
X026000Y-004800
X026000Y-005800
X008800Y-003300
X009800Y-003300
X008800Y-004300
X009800Y-004300
X008800Y-005300
X009800Y-005300
T04
X004100Y002800
X004100Y003800
X005100Y003800
X005100Y002800
X006100Y002800
X006100Y003800
X003100Y003800
X003100Y002800
X004100Y001800
X005100Y001800
X006100Y001800
X007100Y002800
X007100Y003800
X006100Y004800
X005100Y004800
X004100Y004800
X013100Y-005775
X014100Y-005775
X015100Y-005775
X016100Y-005775
X016100Y-002625
X014100Y-002625
X013100Y-002625
X015100Y-002625
T05
X002000Y-009150
X002000Y-008150
X001000Y-009150
X001000Y-008150
X000000Y-009150
X000000Y-008150
X-001000Y-009150
X-001000Y-008150
X-002000Y-009150
X-002000Y-008150
X002000Y008150
X002000Y009150
X001000Y008150
X001000Y009150
X000000Y008150
X000000Y009150
X-001000Y008150
X-001000Y009150
X-002000Y008150
X-002000Y009150
T06
X009105Y008800G85X009695Y008800
X017705Y008800G85X018295Y008800
X009105Y-000300G85X009695Y-000300
X017705Y-000300G85X018295Y-000300
M30
