G04 Layer: BottomSilkLayer*
G04 EasyEDA v6.4.17, 2021-03-02T21:28:07+01:00*
G04 1007e7e2c1864e39a1c220729244a999,9c416354eb984020824aaf9c885bead6,10*
G04 Gerber Generator version 0.2*
G04 Scale: 100 percent, Rotated: No, Reflected: No *
G04 Dimensions in inches *
G04 leading zeros omitted , absolute positions ,3 integer and 6 decimal *
%FSLAX36Y36*%
%MOIN*%

%ADD10C,0.0100*%
%ADD14C,0.0157*%
%ADD45C,0.0080*%
%ADD46C,0.0080*%

%LPD*%
D14*
X1916364Y322545D02*
G01*
X1916364Y326181D01*
X1912727Y333454D01*
X1909090Y337091D01*
X1901818Y340727D01*
X1887272Y340727D01*
X1880000Y337091D01*
X1876364Y333454D01*
X1872727Y326181D01*
X1872727Y318908D01*
X1876364Y311635D01*
X1883635Y300727D01*
X1920000Y264364D01*
X1869090Y264364D01*
X1823272Y340727D02*
G01*
X1834182Y337091D01*
X1841454Y326181D01*
X1845091Y308000D01*
X1845091Y297091D01*
X1841454Y278908D01*
X1834182Y268000D01*
X1823272Y264364D01*
X1816000Y264364D01*
X1805091Y268000D01*
X1797817Y278908D01*
X1794182Y297091D01*
X1794182Y308000D01*
X1797817Y326181D01*
X1805091Y337091D01*
X1816000Y340727D01*
X1823272Y340727D01*
X1766544Y322545D02*
G01*
X1766544Y326181D01*
X1762908Y333454D01*
X1759273Y337091D01*
X1751999Y340727D01*
X1737455Y340727D01*
X1730182Y337091D01*
X1726544Y333454D01*
X1722908Y326181D01*
X1722908Y318908D01*
X1726544Y311635D01*
X1733818Y300727D01*
X1770182Y264364D01*
X1719273Y264364D01*
X1673455Y340727D02*
G01*
X1684363Y337091D01*
X1691635Y326181D01*
X1695272Y308000D01*
X1695272Y297091D01*
X1691635Y278908D01*
X1684363Y268000D01*
X1673455Y264364D01*
X1666181Y264364D01*
X1655272Y268000D01*
X1648000Y278908D01*
X1644363Y297091D01*
X1644363Y308000D01*
X1648000Y326181D01*
X1655272Y337091D01*
X1666181Y340727D01*
X1673455Y340727D01*
X1920000Y610909D02*
G01*
X1920000Y515455D01*
X1920000Y610909D02*
G01*
X1879090Y610909D01*
X1865455Y606363D01*
X1860909Y601817D01*
X1856364Y592726D01*
X1856364Y583636D01*
X1860909Y574544D01*
X1865455Y570000D01*
X1879090Y565455D01*
X1920000Y565455D01*
X1888181Y565455D02*
G01*
X1856364Y515455D01*
X1826364Y610909D02*
G01*
X1826364Y515455D01*
X1826364Y610909D02*
G01*
X1767272Y610909D01*
X1826364Y565455D02*
G01*
X1790000Y565455D01*
X1826364Y515455D02*
G01*
X1767272Y515455D01*
X1737272Y610909D02*
G01*
X1700909Y515455D01*
X1664544Y610909D02*
G01*
X1700909Y515455D01*
X1496364Y588182D02*
G01*
X1500909Y597273D01*
X1510000Y606363D01*
X1519090Y610909D01*
X1537272Y610909D01*
X1546364Y606363D01*
X1555455Y597273D01*
X1560000Y588182D01*
X1564544Y574544D01*
X1564544Y551817D01*
X1560000Y538182D01*
X1555455Y529090D01*
X1546364Y520000D01*
X1537272Y515455D01*
X1519090Y515455D01*
X1510000Y520000D01*
X1500909Y529090D01*
X1496364Y538182D01*
X1877051Y779184D02*
G01*
X1920000Y666442D01*
X1877051Y779184D02*
G01*
X1834102Y666442D01*
X1903894Y704023D02*
G01*
X1850208Y704023D01*
X1761087Y779184D02*
G01*
X1761087Y666442D01*
X1798668Y779184D02*
G01*
X1723508Y779184D01*
X1650493Y779184D02*
G01*
X1650493Y666442D01*
X1688074Y779184D02*
G01*
X1612914Y779184D01*
X1577480Y779184D02*
G01*
X1577480Y666442D01*
X1542048Y779184D02*
G01*
X1542048Y666442D01*
X1542048Y779184D02*
G01*
X1466886Y666442D01*
X1466886Y779184D02*
G01*
X1466886Y666442D01*
X1431454Y779184D02*
G01*
X1388504Y725497D01*
X1388504Y666442D01*
X1345555Y779184D02*
G01*
X1388504Y725497D01*
X1227446Y779184D02*
G01*
X1227446Y666442D01*
X1227446Y779184D02*
G01*
X1157654Y779184D01*
X1227446Y725497D02*
G01*
X1184497Y725497D01*
X1122220Y779184D02*
G01*
X1122220Y666442D01*
X1122220Y666442D02*
G01*
X1057797Y666442D01*
X979414Y779184D02*
G01*
X1022363Y666442D01*
X979414Y779184D02*
G01*
X936466Y666442D01*
X1006257Y704023D02*
G01*
X952572Y704023D01*
X825871Y763078D02*
G01*
X836608Y773814D01*
X852714Y779184D01*
X874189Y779184D01*
X890295Y773814D01*
X901033Y763078D01*
X901033Y752341D01*
X895664Y741603D01*
X890295Y736235D01*
X879558Y730866D01*
X847345Y720129D01*
X836608Y714760D01*
X831241Y709391D01*
X825871Y698654D01*
X825871Y682548D01*
X836608Y671810D01*
X852714Y666442D01*
X874189Y666442D01*
X890295Y671810D01*
X901033Y682548D01*
X790439Y779184D02*
G01*
X790439Y666442D01*
X715277Y779184D02*
G01*
X715277Y666442D01*
X790439Y725497D02*
G01*
X715277Y725497D01*
X679845Y779184D02*
G01*
X679845Y666442D01*
X679845Y779184D02*
G01*
X610052Y779184D01*
X679845Y725497D02*
G01*
X636896Y725497D01*
X679845Y666442D02*
G01*
X610052Y666442D01*
X574619Y779184D02*
G01*
X574619Y666442D01*
X574619Y779184D02*
G01*
X526302Y779184D01*
X510196Y773814D01*
X504827Y768445D01*
X499459Y757708D01*
X499459Y746972D01*
X504827Y736235D01*
X510196Y730866D01*
X526302Y725497D01*
X574619Y725497D01*
X537038Y725497D02*
G01*
X499459Y666442D01*
X1920000Y440727D02*
G01*
X1920000Y364364D01*
X1920000Y440727D02*
G01*
X1890909Y364364D01*
X1861818Y440727D02*
G01*
X1890909Y364364D01*
X1861818Y440727D02*
G01*
X1861818Y364364D01*
X1808726Y440727D02*
G01*
X1837817Y364364D01*
X1808726Y440727D02*
G01*
X1779636Y364364D01*
X1826908Y389818D02*
G01*
X1790545Y389818D01*
X1755636Y440727D02*
G01*
X1755636Y364364D01*
X1755636Y364364D02*
G01*
X1711999Y364364D01*
X1688000Y440727D02*
G01*
X1658909Y404364D01*
X1658909Y364364D01*
X1629817Y440727D02*
G01*
X1658909Y404364D01*
X1554908Y429818D02*
G01*
X1562182Y437091D01*
X1573091Y440727D01*
X1587636Y440727D01*
X1598545Y437091D01*
X1605817Y429818D01*
X1605817Y422545D01*
X1602182Y415273D01*
X1598545Y411635D01*
X1591273Y408000D01*
X1569454Y400727D01*
X1562182Y397091D01*
X1558545Y393454D01*
X1554908Y386181D01*
X1554908Y375273D01*
X1562182Y368000D01*
X1573091Y364364D01*
X1587636Y364364D01*
X1598545Y368000D01*
X1605817Y375273D01*
X1530909Y440727D02*
G01*
X1530909Y364364D01*
X1480000Y440727D02*
G01*
X1480000Y364364D01*
X1530909Y404364D02*
G01*
X1480000Y404364D01*
X1456000Y440727D02*
G01*
X1456000Y364364D01*
X1456000Y440727D02*
G01*
X1408726Y440727D01*
X1456000Y404364D02*
G01*
X1426908Y404364D01*
X1456000Y364364D02*
G01*
X1408726Y364364D01*
X1384727Y440727D02*
G01*
X1384727Y364364D01*
X1384727Y440727D02*
G01*
X1333818Y364364D01*
X1333818Y440727D02*
G01*
X1333818Y364364D01*
X1309817Y440727D02*
G01*
X1309817Y364364D01*
X1258909Y440727D02*
G01*
X1309817Y389818D01*
X1291635Y408000D02*
G01*
X1258909Y364364D01*
X1213091Y440727D02*
G01*
X1220363Y437091D01*
X1227636Y429818D01*
X1231273Y422545D01*
X1234908Y411635D01*
X1234908Y393454D01*
X1231273Y382545D01*
X1227636Y375273D01*
X1220363Y368000D01*
X1213091Y364364D01*
X1198545Y364364D01*
X1191273Y368000D01*
X1183999Y375273D01*
X1180363Y382545D01*
X1176727Y393454D01*
X1176727Y411635D01*
X1180363Y422545D01*
X1183999Y429818D01*
X1191273Y437091D01*
X1198545Y440727D01*
X1213091Y440727D01*
X1067636Y440727D02*
G01*
X1096727Y364364D01*
X1067636Y440727D02*
G01*
X1038545Y364364D01*
X1085817Y389818D02*
G01*
X1049454Y389818D01*
X1010909Y382545D02*
G01*
X1014544Y378908D01*
X1010909Y375273D01*
X1007272Y378908D01*
X1010909Y382545D01*
X976000Y378908D02*
G01*
X979636Y375273D01*
X983272Y378908D01*
X979636Y382545D01*
X976000Y378908D01*
X976000Y371635D01*
X983272Y364364D01*
D45*
X-200000Y-501181D02*
G01*
X-200000Y-601181D01*
X200000Y-601181D01*
X200000Y-501181D01*
X125000Y-501181D01*
D46*
X-200000Y-501181D02*
G01*
X125000Y-501181D01*
D45*
X200000Y501181D02*
G01*
X200000Y601181D01*
X-200000Y601181D01*
X-200000Y501181D01*
X-125000Y501181D01*
D46*
X200000Y501181D02*
G01*
X-125000Y501181D01*
D10*
X-259054Y-765000D02*
G01*
X-259054Y-965000D01*
X259054Y-965000D02*
G01*
X-259054Y-965000D01*
X259054Y-765000D02*
G01*
X-259054Y-765000D01*
X259054Y-864722D02*
G01*
X150000Y-864722D01*
X150000Y-965000D01*
X259054Y-765000D02*
G01*
X259054Y-965000D01*
X-259054Y965000D02*
G01*
X-259054Y765000D01*
X259054Y765000D02*
G01*
X-259054Y765000D01*
X259054Y965000D02*
G01*
X-259054Y965000D01*
X259054Y865277D02*
G01*
X150000Y865277D01*
X150000Y765000D01*
X259054Y965000D02*
G01*
X259054Y765000D01*
M02*
