G04 Layer: BottomSolderMaskLayer*
G04 EasyEDA v6.4.25, 2021-12-03T12:42:08+01:00*
G04 2d58df8d6caf48aab7ee05f2cd6f65b2,9c416354eb984020824aaf9c885bead6,10*
G04 Gerber Generator version 0.2*
G04 Scale: 100 percent, Rotated: No, Reflected: No *
G04 Dimensions in inches *
G04 leading zeros omitted , absolute positions ,3 integer and 6 decimal *
%FSLAX36Y36*%
%MOIN*%

%ADD72C,0.0414*%
%ADD73C,0.0434*%
%ADD76C,0.1655*%
%ADD81R,0.0660X0.0660*%
%ADD82C,0.0660*%
%ADD84C,0.0709*%
%ADD96C,0.0670*%
%ADD100C,0.0749*%

%LPD*%
D72*
X2167485Y786849D02*
G01*
X2155673Y786849D01*
X2364336Y786849D02*
G01*
X2352524Y786849D01*
D73*
X2397799Y882323D02*
G01*
X2397799Y903976D01*
X2122209Y882323D02*
G01*
X2122209Y903976D01*
D76*
X940000Y880000D02*
G01*
X940000Y880000D01*
X1800000Y880000D02*
G01*
X1800000Y880000D01*
X940000Y-50000D02*
G01*
X940000Y-50000D01*
X1800000Y-50000D02*
G01*
X1800000Y-50000D01*
G36*
X116999Y-584200D02*
G01*
X116999Y-518200D01*
X183000Y-518200D01*
X183000Y-584200D01*
G37*
D82*
G01*
X50000Y-551199D03*
G01*
X-50000Y-551199D03*
G01*
X-150000Y-551199D03*
G01*
X-150000Y551199D03*
G01*
X-50000Y551199D03*
G01*
X50000Y551199D03*
G01*
X150000Y551199D03*
G36*
X164499Y-950500D02*
G01*
X164499Y-879499D01*
X235500Y-879499D01*
X235500Y-950500D01*
G37*
D84*
G01*
X200000Y-815000D03*
G36*
X64499Y-950500D02*
G01*
X64499Y-879499D01*
X135500Y-879499D01*
X135500Y-950500D01*
G37*
G01*
X100000Y-815000D03*
G36*
X-35500Y-950500D02*
G01*
X-35500Y-879499D01*
X35500Y-879499D01*
X35500Y-950500D01*
G37*
G01*
X0Y-815000D03*
G36*
X-135500Y-950500D02*
G01*
X-135500Y-879499D01*
X-64499Y-879499D01*
X-64499Y-950500D01*
G37*
G01*
X-100000Y-815000D03*
G36*
X-235500Y-950500D02*
G01*
X-235500Y-879499D01*
X-164499Y-879499D01*
X-164499Y-950500D01*
G37*
G01*
X-200000Y-815000D03*
G36*
X164499Y779499D02*
G01*
X164499Y850500D01*
X235500Y850500D01*
X235500Y779499D01*
G37*
G01*
X200000Y915000D03*
G36*
X64499Y779499D02*
G01*
X64499Y850500D01*
X135500Y850500D01*
X135500Y779499D01*
G37*
G01*
X100000Y915000D03*
G36*
X-35500Y779499D02*
G01*
X-35500Y850500D01*
X35500Y850500D01*
X35500Y779499D01*
G37*
G01*
X0Y915000D03*
G36*
X-135500Y779499D02*
G01*
X-135500Y850500D01*
X-64499Y850500D01*
X-64499Y779499D01*
G37*
G01*
X-100000Y915000D03*
G36*
X-235500Y779499D02*
G01*
X-235500Y850500D01*
X-164499Y850500D01*
X-164499Y779499D01*
G37*
G01*
X-200000Y915000D03*
G36*
X1276499Y-603499D02*
G01*
X1276499Y-536500D01*
X1343500Y-536500D01*
X1343500Y-603499D01*
G37*
D96*
G01*
X1410000Y-570000D03*
G01*
X1510000Y-570000D03*
G01*
X1610000Y-570000D03*
G01*
X1610000Y-270000D03*
G01*
X1510000Y-270000D03*
G01*
X1410000Y-270000D03*
G01*
X1310000Y-270000D03*
D100*
G01*
X870000Y530000D03*
G01*
X870000Y430000D03*
G36*
X832600Y296999D02*
G01*
X832600Y363000D01*
X907399Y363000D01*
X907399Y296999D01*
G37*
D82*
G01*
X870000Y-330000D03*
G01*
X970000Y-330000D03*
G01*
X870000Y-430000D03*
G01*
X970000Y-430000D03*
G01*
X870000Y-530000D03*
D81*
G01*
X970000Y-530000D03*
D82*
G01*
X2600000Y-510000D03*
G01*
X2500000Y-510000D03*
G01*
X2600000Y-410000D03*
G01*
X2500000Y-410000D03*
G01*
X2600000Y-310000D03*
G36*
X2466999Y-343000D02*
G01*
X2466999Y-276999D01*
X2533000Y-276999D01*
X2533000Y-343000D01*
G37*
G36*
X1186999Y876999D02*
G01*
X1186999Y943000D01*
X1253000Y943000D01*
X1253000Y876999D01*
G37*
G01*
X1320000Y910000D03*
G01*
X1420000Y910000D03*
G01*
X1520000Y910000D03*
M02*
