G04 Layer: TopSolderMaskLayer*
G04 EasyEDA v6.4.25, 2021-12-03T12:42:08+01:00*
G04 2d58df8d6caf48aab7ee05f2cd6f65b2,9c416354eb984020824aaf9c885bead6,10*
G04 Gerber Generator version 0.2*
G04 Scale: 100 percent, Rotated: No, Reflected: No *
G04 Dimensions in inches *
G04 leading zeros omitted , absolute positions ,3 integer and 6 decimal *
%FSLAX36Y36*%
%MOIN*%

%ADD71C,0.0277*%
%ADD72C,0.0414*%
%ADD73C,0.0434*%
%ADD74C,0.0217*%
%ADD75C,0.0316*%
%ADD76C,0.1655*%
%ADD77C,0.0580*%
%ADD78C,0.0530*%
%ADD79C,0.0280*%
%ADD80C,0.0480*%
%ADD81R,0.0660X0.0660*%
%ADD82C,0.0660*%
%ADD84C,0.0709*%
%ADD96C,0.0670*%
%ADD100C,0.0749*%

%LPD*%
D71*
X2469247Y625000D02*
G01*
X2415352Y625000D01*
X2469247Y575000D02*
G01*
X2415352Y575000D01*
X2469247Y525000D02*
G01*
X2415352Y525000D01*
X2469247Y475000D02*
G01*
X2415352Y475000D01*
X2469247Y425000D02*
G01*
X2415352Y425000D01*
X2469247Y375000D02*
G01*
X2415352Y375000D01*
X2469247Y325000D02*
G01*
X2415352Y325000D01*
X2469247Y275000D02*
G01*
X2415352Y275000D01*
X2684648Y625000D02*
G01*
X2630752Y625000D01*
X2684648Y575000D02*
G01*
X2630752Y575000D01*
X2684648Y525000D02*
G01*
X2630752Y525000D01*
X2684648Y475000D02*
G01*
X2630752Y475000D01*
X2684648Y425000D02*
G01*
X2630752Y425000D01*
X2684648Y375000D02*
G01*
X2630752Y375000D01*
X2684648Y325000D02*
G01*
X2630752Y325000D01*
X2684648Y275000D02*
G01*
X2630752Y275000D01*
D72*
X2167485Y786849D02*
G01*
X2155673Y786849D01*
X2364336Y786849D02*
G01*
X2352524Y786849D01*
D73*
X2397799Y882323D02*
G01*
X2397799Y903976D01*
X2122209Y882323D02*
G01*
X2122209Y903976D01*
D74*
X2360722Y136633D02*
G01*
X2327317Y103227D01*
X2383002Y114353D02*
G01*
X2349597Y80947D01*
X2405272Y92082D02*
G01*
X2371867Y58676D01*
X2427542Y69812D02*
G01*
X2394137Y36406D01*
X2449813Y47543D02*
G01*
X2416406Y14137D01*
X2472083Y25273D02*
G01*
X2438676Y-8132D01*
X2494353Y3002D02*
G01*
X2460946Y-30403D01*
X2516633Y-19277D02*
G01*
X2483226Y-52683D01*
X2516273Y-140372D02*
G01*
X2482866Y-106966D01*
X2494003Y-162653D02*
G01*
X2460596Y-129247D01*
X2471733Y-184922D02*
G01*
X2438326Y-151516D01*
X2449462Y-207193D02*
G01*
X2416057Y-173787D01*
X2427192Y-229463D02*
G01*
X2393787Y-196057D01*
X2404922Y-251732D02*
G01*
X2371517Y-218326D01*
X2382653Y-274002D02*
G01*
X2349246Y-240596D01*
X2360372Y-296273D02*
G01*
X2326967Y-262867D01*
X2272682Y-263227D02*
G01*
X2239277Y-296633D01*
X2250402Y-240947D02*
G01*
X2216997Y-274353D01*
X2228132Y-218676D02*
G01*
X2194727Y-252082D01*
X2205862Y-196406D02*
G01*
X2172457Y-229812D01*
X2183593Y-174137D02*
G01*
X2150186Y-207543D01*
X2161323Y-151867D02*
G01*
X2127916Y-185273D01*
X2139053Y-129596D02*
G01*
X2105646Y-163002D01*
X2116773Y-107316D02*
G01*
X2083366Y-140722D01*
X2117133Y-53033D02*
G01*
X2083726Y-19627D01*
X2139403Y-30763D02*
G01*
X2105996Y2642D01*
X2161673Y-8483D02*
G01*
X2128266Y24922D01*
X2183942Y13777D02*
G01*
X2150537Y47182D01*
X2206223Y36057D02*
G01*
X2172816Y69463D01*
X2228482Y58326D02*
G01*
X2195077Y91732D01*
X2250762Y80596D02*
G01*
X2217357Y114002D01*
X2273032Y102867D02*
G01*
X2239627Y136273D01*
D75*
X1635000Y241494D02*
G01*
X1635000Y308424D01*
X1685000Y241494D02*
G01*
X1685000Y308424D01*
X1735000Y241494D02*
G01*
X1735000Y308424D01*
X1785000Y241494D02*
G01*
X1785000Y308424D01*
X1835000Y241494D02*
G01*
X1835000Y308424D01*
X1885000Y241494D02*
G01*
X1885000Y308424D01*
X1935000Y241494D02*
G01*
X1935000Y308424D01*
X1985000Y241494D02*
G01*
X1985000Y308424D01*
X2035000Y241494D02*
G01*
X2035000Y308424D01*
X2085000Y241494D02*
G01*
X2085000Y308424D01*
X1635000Y611574D02*
G01*
X1635000Y678503D01*
X1685000Y611574D02*
G01*
X1685000Y678503D01*
X1735000Y611574D02*
G01*
X1735000Y678503D01*
X1785000Y611574D02*
G01*
X1785000Y678503D01*
X1835000Y611574D02*
G01*
X1835000Y678503D01*
X1885000Y611574D02*
G01*
X1885000Y678503D01*
X1935000Y611574D02*
G01*
X1935000Y678503D01*
X1985000Y611574D02*
G01*
X1985000Y678503D01*
X2035000Y611574D02*
G01*
X2035000Y678503D01*
X2085000Y611574D02*
G01*
X2085000Y678503D01*
D76*
X940000Y880000D02*
G01*
X940000Y880000D01*
X1800000Y880000D02*
G01*
X1800000Y880000D01*
X940000Y-50000D02*
G01*
X940000Y-50000D01*
X1800000Y-50000D02*
G01*
X1800000Y-50000D01*
D77*
G01*
X840000Y-790000D03*
G01*
X1100000Y770000D03*
D78*
G01*
X1410000Y320000D03*
D77*
G01*
X2480000Y860000D03*
D79*
G01*
X2360000Y520000D03*
G01*
X2400000Y230000D03*
D80*
G01*
X2620000Y-190000D03*
G36*
X116999Y-584200D02*
G01*
X116999Y-518200D01*
X183000Y-518200D01*
X183000Y-584200D01*
G37*
D82*
G01*
X50000Y-551199D03*
G01*
X-50000Y-551199D03*
G01*
X-150000Y-551199D03*
G01*
X-150000Y551199D03*
G01*
X-50000Y551199D03*
G01*
X50000Y551199D03*
G01*
X150000Y551199D03*
G36*
X164499Y-950500D02*
G01*
X164499Y-879499D01*
X235500Y-879499D01*
X235500Y-950500D01*
G37*
D84*
G01*
X200000Y-815000D03*
G36*
X64499Y-950500D02*
G01*
X64499Y-879499D01*
X135500Y-879499D01*
X135500Y-950500D01*
G37*
G01*
X100000Y-815000D03*
G36*
X-35500Y-950500D02*
G01*
X-35500Y-879499D01*
X35500Y-879499D01*
X35500Y-950500D01*
G37*
G01*
X0Y-815000D03*
G36*
X-135500Y-950500D02*
G01*
X-135500Y-879499D01*
X-64499Y-879499D01*
X-64499Y-950500D01*
G37*
G01*
X-100000Y-815000D03*
G36*
X-235500Y-950500D02*
G01*
X-235500Y-879499D01*
X-164499Y-879499D01*
X-164499Y-950500D01*
G37*
G01*
X-200000Y-815000D03*
G36*
X164499Y779499D02*
G01*
X164499Y850500D01*
X235500Y850500D01*
X235500Y779499D01*
G37*
G01*
X200000Y915000D03*
G36*
X64499Y779499D02*
G01*
X64499Y850500D01*
X135500Y850500D01*
X135500Y779499D01*
G37*
G01*
X100000Y915000D03*
G36*
X-35500Y779499D02*
G01*
X-35500Y850500D01*
X35500Y850500D01*
X35500Y779499D01*
G37*
G01*
X0Y915000D03*
G36*
X-135500Y779499D02*
G01*
X-135500Y850500D01*
X-64499Y850500D01*
X-64499Y779499D01*
G37*
G01*
X-100000Y915000D03*
G36*
X-235500Y779499D02*
G01*
X-235500Y850500D01*
X-164499Y850500D01*
X-164499Y779499D01*
G37*
G01*
X-200000Y915000D03*
G36*
X271199Y735300D02*
G01*
X271199Y802600D01*
X368800Y802600D01*
X368800Y735300D01*
G37*
G36*
X271199Y877399D02*
G01*
X271199Y944699D01*
X368800Y944699D01*
X368800Y877399D01*
G37*
G36*
X281199Y-944699D02*
G01*
X281199Y-877399D01*
X378800Y-877399D01*
X378800Y-944699D01*
G37*
G36*
X281199Y-802600D02*
G01*
X281199Y-735300D01*
X378800Y-735300D01*
X378800Y-802600D01*
G37*
G36*
X973900Y-632600D02*
G01*
X973900Y-607399D01*
X1000200Y-607399D01*
X1000200Y-632600D01*
G37*
G36*
X939800Y-632600D02*
G01*
X939800Y-607399D01*
X966099Y-607399D01*
X966099Y-632600D01*
G37*
G36*
X2478100Y200199D02*
G01*
X2450200Y228099D01*
X2469700Y247699D01*
X2497700Y219699D01*
G37*
G36*
X2450299Y172300D02*
G01*
X2422299Y200300D01*
X2441899Y219800D01*
X2469799Y191900D01*
G37*
G36*
X2620299Y2300D02*
G01*
X2592299Y30300D01*
X2611899Y49800D01*
X2639799Y21900D01*
G37*
G36*
X2648100Y30199D02*
G01*
X2620200Y58099D01*
X2639700Y77699D01*
X2667700Y49699D01*
G37*
G36*
X2517799Y107199D02*
G01*
X2476000Y149000D01*
X2512200Y185300D01*
X2553999Y143499D01*
G37*
G36*
X2578999Y45999D02*
G01*
X2537200Y87800D01*
X2573500Y124000D01*
X2615299Y82199D01*
G37*
G36*
X2627799Y94699D02*
G01*
X2586000Y136500D01*
X2622200Y172800D01*
X2663999Y130999D01*
G37*
G36*
X2566499Y155999D02*
G01*
X2524700Y197800D01*
X2561000Y234000D01*
X2602799Y192199D01*
G37*
G36*
X2250100Y758200D02*
G01*
X2250100Y815399D01*
X2269899Y815399D01*
X2269899Y758200D01*
G37*
G36*
X2224499Y758200D02*
G01*
X2224499Y815399D01*
X2244300Y815399D01*
X2244300Y758200D01*
G37*
G36*
X2198900Y758200D02*
G01*
X2198900Y815399D01*
X2218699Y815399D01*
X2218699Y758200D01*
G37*
G36*
X2275699Y758200D02*
G01*
X2275699Y815399D01*
X2295500Y815399D01*
X2295500Y758200D01*
G37*
G36*
X2301300Y758200D02*
G01*
X2301300Y815399D01*
X2321099Y815399D01*
X2321099Y758200D01*
G37*
G36*
X1298000Y-763200D02*
G01*
X1298000Y-727699D01*
X1327600Y-727699D01*
X1327600Y-763200D01*
G37*
G36*
X1298000Y-692300D02*
G01*
X1298000Y-656799D01*
X1327600Y-656799D01*
X1327600Y-692300D01*
G37*
G36*
X1332399Y-763200D02*
G01*
X1332399Y-727699D01*
X1356099Y-727699D01*
X1356099Y-763200D01*
G37*
G36*
X1332399Y-692300D02*
G01*
X1332399Y-656799D01*
X1356099Y-656799D01*
X1356099Y-692300D01*
G37*
G36*
X1363900Y-763200D02*
G01*
X1363900Y-727699D01*
X1387600Y-727699D01*
X1387600Y-763200D01*
G37*
G36*
X1363900Y-692300D02*
G01*
X1363900Y-656799D01*
X1387600Y-656799D01*
X1387600Y-692300D01*
G37*
G36*
X1392399Y-763200D02*
G01*
X1392399Y-727699D01*
X1421999Y-727699D01*
X1421999Y-763200D01*
G37*
G36*
X1392399Y-692300D02*
G01*
X1392399Y-656799D01*
X1421999Y-656799D01*
X1421999Y-692300D01*
G37*
G36*
X1498000Y-173200D02*
G01*
X1498000Y-137699D01*
X1527600Y-137699D01*
X1527600Y-173200D01*
G37*
G36*
X1498000Y-102300D02*
G01*
X1498000Y-66799D01*
X1527600Y-66799D01*
X1527600Y-102300D01*
G37*
G36*
X1532399Y-173200D02*
G01*
X1532399Y-137699D01*
X1556099Y-137699D01*
X1556099Y-173200D01*
G37*
G36*
X1532399Y-102300D02*
G01*
X1532399Y-66799D01*
X1556099Y-66799D01*
X1556099Y-102300D01*
G37*
G36*
X1563900Y-173200D02*
G01*
X1563900Y-137699D01*
X1587600Y-137699D01*
X1587600Y-173200D01*
G37*
G36*
X1563900Y-102300D02*
G01*
X1563900Y-66799D01*
X1587600Y-66799D01*
X1587600Y-102300D01*
G37*
G36*
X1592399Y-173200D02*
G01*
X1592399Y-137699D01*
X1621999Y-137699D01*
X1621999Y-173200D01*
G37*
G36*
X1592399Y-102300D02*
G01*
X1592399Y-66799D01*
X1621999Y-66799D01*
X1621999Y-102300D01*
G37*
G36*
X2343699Y-721500D02*
G01*
X2318599Y-696399D01*
X2339600Y-675399D01*
X2364700Y-700500D01*
G37*
G36*
X2293599Y-671399D02*
G01*
X2268500Y-646300D01*
X2289499Y-625300D01*
X2314600Y-650399D01*
G37*
G36*
X2368100Y-697100D02*
G01*
X2343000Y-671999D01*
X2359700Y-655300D01*
X2384799Y-680399D01*
G37*
G36*
X2318000Y-646999D02*
G01*
X2292899Y-621900D01*
X2309600Y-605199D01*
X2334700Y-630300D01*
G37*
G36*
X2390399Y-674800D02*
G01*
X2365299Y-649699D01*
X2381999Y-633000D01*
X2407100Y-658099D01*
G37*
G36*
X2340299Y-624699D02*
G01*
X2315200Y-599600D01*
X2331899Y-582899D01*
X2356999Y-608000D01*
G37*
G36*
X2410500Y-654699D02*
G01*
X2385399Y-629600D01*
X2406400Y-608600D01*
X2431499Y-633699D01*
G37*
G36*
X2360399Y-604499D02*
G01*
X2335299Y-579400D01*
X2356300Y-558499D01*
X2381400Y-583600D01*
G37*
G36*
X1622299Y-864200D02*
G01*
X1622299Y-828800D01*
X1657700Y-828800D01*
X1657700Y-864200D01*
G37*
G36*
X1622299Y-931199D02*
G01*
X1622299Y-895799D01*
X1657700Y-895799D01*
X1657700Y-931199D01*
G37*
G36*
X1323199Y489800D02*
G01*
X1323199Y515399D01*
X1366599Y515399D01*
X1366599Y489800D01*
G37*
G36*
X1323199Y527199D02*
G01*
X1323199Y552800D01*
X1366599Y552800D01*
X1366599Y527199D01*
G37*
G36*
X1323199Y564600D02*
G01*
X1323199Y590199D01*
X1366599Y590199D01*
X1366599Y564600D01*
G37*
G36*
X1433400Y564600D02*
G01*
X1433400Y590199D01*
X1476800Y590199D01*
X1476800Y564600D01*
G37*
G36*
X1433400Y527199D02*
G01*
X1433400Y552800D01*
X1476800Y552800D01*
X1476800Y527199D01*
G37*
G36*
X1433400Y489800D02*
G01*
X1433400Y515399D01*
X1476800Y515399D01*
X1476800Y489800D01*
G37*
G36*
X2151700Y614899D02*
G01*
X2151700Y639899D01*
X2197899Y639899D01*
X2197899Y614899D01*
G37*
G36*
X2151700Y577500D02*
G01*
X2151700Y602500D01*
X2197899Y602500D01*
X2197899Y577500D01*
G37*
G36*
X2151700Y540100D02*
G01*
X2151700Y565100D01*
X2197899Y565100D01*
X2197899Y540100D01*
G37*
G36*
X2242100Y540100D02*
G01*
X2242100Y565100D01*
X2288299Y565100D01*
X2288299Y540100D01*
G37*
G36*
X2242100Y577500D02*
G01*
X2242100Y602500D01*
X2288299Y602500D01*
X2288299Y577500D01*
G37*
G36*
X2242100Y614899D02*
G01*
X2242100Y639899D01*
X2288299Y639899D01*
X2288299Y614899D01*
G37*
G36*
X1276499Y-603499D02*
G01*
X1276499Y-536500D01*
X1343500Y-536500D01*
X1343500Y-603499D01*
G37*
D96*
G01*
X1410000Y-570000D03*
G01*
X1510000Y-570000D03*
G01*
X1610000Y-570000D03*
G01*
X1610000Y-270000D03*
G01*
X1510000Y-270000D03*
G01*
X1410000Y-270000D03*
G01*
X1310000Y-270000D03*
G36*
X2132799Y371199D02*
G01*
X2132799Y428800D01*
X2185200Y428800D01*
X2185200Y371199D01*
G37*
G36*
X2304799Y371199D02*
G01*
X2304799Y428800D01*
X2357200Y428800D01*
X2357200Y371199D01*
G37*
G36*
X1669799Y-738800D02*
G01*
X1669799Y-681199D01*
X1722200Y-681199D01*
X1722200Y-738800D01*
G37*
G36*
X1497799Y-738800D02*
G01*
X1497799Y-681199D01*
X1550200Y-681199D01*
X1550200Y-738800D01*
G37*
G36*
X501700Y-925999D02*
G01*
X501700Y-859000D01*
X541100Y-859000D01*
X541100Y-925999D01*
G37*
G36*
X560799Y-925999D02*
G01*
X560799Y-859000D01*
X600199Y-859000D01*
X600199Y-925999D01*
G37*
G36*
X678899Y-925999D02*
G01*
X678899Y-859000D01*
X718299Y-859000D01*
X718299Y-925999D01*
G37*
G36*
X438699Y-873800D02*
G01*
X438699Y-834400D01*
X482100Y-834400D01*
X482100Y-873800D01*
G37*
G36*
X438699Y-787199D02*
G01*
X438699Y-747800D01*
X482100Y-747800D01*
X482100Y-787199D01*
G37*
G36*
X737899Y-873800D02*
G01*
X737899Y-834400D01*
X781300Y-834400D01*
X781300Y-873800D01*
G37*
G36*
X737899Y-787199D02*
G01*
X737899Y-747800D01*
X781300Y-747800D01*
X781300Y-787199D01*
G37*
G36*
X501700Y724000D02*
G01*
X501700Y790999D01*
X541100Y790999D01*
X541100Y724000D01*
G37*
G36*
X560799Y724000D02*
G01*
X560799Y790999D01*
X600199Y790999D01*
X600199Y724000D01*
G37*
G36*
X678899Y724000D02*
G01*
X678899Y790999D01*
X718299Y790999D01*
X718299Y724000D01*
G37*
G36*
X438699Y776199D02*
G01*
X438699Y815599D01*
X482100Y815599D01*
X482100Y776199D01*
G37*
G36*
X438699Y862800D02*
G01*
X438699Y902199D01*
X482100Y902199D01*
X482100Y862800D01*
G37*
G36*
X737899Y776199D02*
G01*
X737899Y815599D01*
X781300Y815599D01*
X781300Y776199D01*
G37*
G36*
X737899Y862800D02*
G01*
X737899Y902199D01*
X781300Y902199D01*
X781300Y862800D01*
G37*
G36*
X875799Y220300D02*
G01*
X875799Y259699D01*
X903499Y259699D01*
X903499Y220300D01*
G37*
G36*
X836500Y220300D02*
G01*
X836500Y259699D01*
X864200Y259699D01*
X864200Y220300D01*
G37*
D100*
G01*
X870000Y530000D03*
G01*
X870000Y430000D03*
G36*
X832600Y296999D02*
G01*
X832600Y363000D01*
X907399Y363000D01*
X907399Y296999D01*
G37*
G36*
X2461000Y682500D02*
G01*
X2461000Y718200D01*
X2498999Y718200D01*
X2498999Y682500D01*
G37*
G36*
X2461000Y741799D02*
G01*
X2461000Y777500D01*
X2498999Y777500D01*
X2498999Y741799D01*
G37*
D82*
G01*
X870000Y-330000D03*
G01*
X970000Y-330000D03*
G01*
X870000Y-430000D03*
G01*
X970000Y-430000D03*
G01*
X870000Y-530000D03*
D81*
G01*
X970000Y-530000D03*
D82*
G01*
X2600000Y-510000D03*
G01*
X2500000Y-510000D03*
G01*
X2600000Y-410000D03*
G01*
X2500000Y-410000D03*
G01*
X2600000Y-310000D03*
G36*
X2466999Y-343000D02*
G01*
X2466999Y-276999D01*
X2533000Y-276999D01*
X2533000Y-343000D01*
G37*
G36*
X885799Y-209699D02*
G01*
X885799Y-170300D01*
X913499Y-170300D01*
X913499Y-209699D01*
G37*
G36*
X846500Y-209699D02*
G01*
X846500Y-170300D01*
X874200Y-170300D01*
X874200Y-209699D01*
G37*
G36*
X885799Y-639699D02*
G01*
X885799Y-600300D01*
X913499Y-600300D01*
X913499Y-639699D01*
G37*
G36*
X846500Y-639699D02*
G01*
X846500Y-600300D01*
X874200Y-600300D01*
X874200Y-639699D01*
G37*
G36*
X1404700Y107100D02*
G01*
X1404700Y252899D01*
X1499300Y252899D01*
X1499300Y107100D01*
G37*
G36*
X1160699Y63800D02*
G01*
X1160699Y115100D01*
X1255299Y115100D01*
X1255299Y63800D01*
G37*
G36*
X1160699Y154299D02*
G01*
X1160699Y205700D01*
X1255299Y205700D01*
X1255299Y154299D01*
G37*
G36*
X1160699Y244899D02*
G01*
X1160699Y296199D01*
X1255299Y296199D01*
X1255299Y244899D01*
G37*
G36*
X1536499Y190300D02*
G01*
X1536499Y229699D01*
X1564200Y229699D01*
X1564200Y190300D01*
G37*
G36*
X1575799Y190300D02*
G01*
X1575799Y229699D01*
X1603500Y229699D01*
X1603500Y190300D01*
G37*
G36*
X1610299Y706500D02*
G01*
X1610299Y734200D01*
X1649700Y734200D01*
X1649700Y706500D01*
G37*
G36*
X1610299Y745799D02*
G01*
X1610299Y773499D01*
X1649700Y773499D01*
X1649700Y745799D01*
G37*
G36*
X1545799Y420300D02*
G01*
X1545799Y459699D01*
X1573500Y459699D01*
X1573500Y420300D01*
G37*
G36*
X1506499Y420300D02*
G01*
X1506499Y459699D01*
X1534200Y459699D01*
X1534200Y420300D01*
G37*
G36*
X1670299Y706500D02*
G01*
X1670299Y734200D01*
X1709700Y734200D01*
X1709700Y706500D01*
G37*
G36*
X1670299Y745799D02*
G01*
X1670299Y773499D01*
X1709700Y773499D01*
X1709700Y745799D01*
G37*
G36*
X1545799Y480300D02*
G01*
X1545799Y519800D01*
X1573500Y519800D01*
X1573500Y480300D01*
G37*
G36*
X1506499Y480300D02*
G01*
X1506499Y519800D01*
X1534200Y519800D01*
X1534200Y480300D01*
G37*
G36*
X1762200Y102199D02*
G01*
X1762200Y137800D01*
X1819399Y137800D01*
X1819399Y102199D01*
G37*
G36*
X1860600Y139600D02*
G01*
X1860600Y175199D01*
X1917799Y175199D01*
X1917799Y139600D01*
G37*
G36*
X1860600Y64800D02*
G01*
X1860600Y100399D01*
X1917799Y100399D01*
X1917799Y64800D01*
G37*
G36*
X1602200Y139600D02*
G01*
X1602200Y175199D01*
X1659399Y175199D01*
X1659399Y139600D01*
G37*
G36*
X1602200Y64800D02*
G01*
X1602200Y100399D01*
X1659399Y100399D01*
X1659399Y64800D01*
G37*
G36*
X1700600Y102199D02*
G01*
X1700600Y137800D01*
X1757799Y137800D01*
X1757799Y102199D01*
G37*
G36*
X1332200Y-217800D02*
G01*
X1332200Y-160599D01*
X1367799Y-160599D01*
X1367799Y-217800D01*
G37*
G36*
X1294799Y-119400D02*
G01*
X1294799Y-62199D01*
X1330399Y-62199D01*
X1330399Y-119400D01*
G37*
G36*
X1369600Y-119400D02*
G01*
X1369600Y-62199D01*
X1405200Y-62199D01*
X1405200Y-119400D01*
G37*
G36*
X1430299Y-104200D02*
G01*
X1430299Y-76500D01*
X1469700Y-76500D01*
X1469700Y-104200D01*
G37*
G36*
X1430299Y-143499D02*
G01*
X1430299Y-115799D01*
X1469700Y-115799D01*
X1469700Y-143499D01*
G37*
G36*
X1230299Y-133499D02*
G01*
X1230299Y-105799D01*
X1269700Y-105799D01*
X1269700Y-133499D01*
G37*
G36*
X1230299Y-94200D02*
G01*
X1230299Y-66500D01*
X1269700Y-66500D01*
X1269700Y-94200D01*
G37*
G36*
X2090299Y-953499D02*
G01*
X2090299Y-925799D01*
X2129700Y-925799D01*
X2129700Y-953499D01*
G37*
G36*
X2090299Y-914200D02*
G01*
X2090299Y-886500D01*
X2129700Y-886500D01*
X2129700Y-914200D01*
G37*
G36*
X1929700Y-347699D02*
G01*
X1910200Y-328099D01*
X1938100Y-300199D01*
X1957700Y-319699D01*
G37*
G36*
X1901899Y-319800D02*
G01*
X1882299Y-300300D01*
X1910299Y-272300D01*
X1929799Y-291900D01*
G37*
G36*
X2030299Y-953499D02*
G01*
X2030299Y-925799D01*
X2069700Y-925799D01*
X2069700Y-953499D01*
G37*
G36*
X2030299Y-914200D02*
G01*
X2030299Y-886500D01*
X2069700Y-886500D01*
X2069700Y-914200D01*
G37*
G36*
X1970299Y-953499D02*
G01*
X1970299Y-925799D01*
X2009700Y-925799D01*
X2009700Y-953499D01*
G37*
G36*
X1970299Y-914200D02*
G01*
X1970299Y-886500D01*
X2009700Y-886500D01*
X2009700Y-914200D01*
G37*
G36*
X1910299Y-953499D02*
G01*
X1910299Y-925799D01*
X1949700Y-925799D01*
X1949700Y-953499D01*
G37*
G36*
X1910299Y-914200D02*
G01*
X1910299Y-886500D01*
X1949700Y-886500D01*
X1949700Y-914200D01*
G37*
G36*
X2462299Y-864200D02*
G01*
X2462299Y-828800D01*
X2497700Y-828800D01*
X2497700Y-864200D01*
G37*
G36*
X2462299Y-931199D02*
G01*
X2462299Y-895799D01*
X2497700Y-895799D01*
X2497700Y-931199D01*
G37*
G36*
X2545799Y912300D02*
G01*
X2545799Y947699D01*
X2581199Y947699D01*
X2581199Y912300D01*
G37*
G36*
X2478800Y912300D02*
G01*
X2478800Y947699D01*
X2514200Y947699D01*
X2514200Y912300D01*
G37*
G36*
X2562299Y-864200D02*
G01*
X2562299Y-828800D01*
X2597700Y-828800D01*
X2597700Y-864200D01*
G37*
G36*
X2562299Y-931199D02*
G01*
X2562299Y-895799D01*
X2597700Y-895799D01*
X2597700Y-931199D01*
G37*
G36*
X2362299Y-864200D02*
G01*
X2362299Y-828800D01*
X2397700Y-828800D01*
X2397700Y-864200D01*
G37*
G36*
X2362299Y-931199D02*
G01*
X2362299Y-895799D01*
X2397700Y-895799D01*
X2397700Y-931199D01*
G37*
G36*
X1686499Y-449699D02*
G01*
X1686499Y-410300D01*
X1714200Y-410300D01*
X1714200Y-449699D01*
G37*
G36*
X1725799Y-449699D02*
G01*
X1725799Y-410300D01*
X1753500Y-410300D01*
X1753500Y-449699D01*
G37*
G36*
X1686499Y-509699D02*
G01*
X1686499Y-470300D01*
X1714200Y-470300D01*
X1714200Y-509699D01*
G37*
G36*
X1725799Y-509699D02*
G01*
X1725799Y-470300D01*
X1753500Y-470300D01*
X1753500Y-509699D01*
G37*
G36*
X1940299Y96500D02*
G01*
X1940299Y124200D01*
X1979700Y124200D01*
X1979700Y96500D01*
G37*
G36*
X1940299Y135799D02*
G01*
X1940299Y163499D01*
X1979700Y163499D01*
X1979700Y135799D01*
G37*
G36*
X1230299Y-223499D02*
G01*
X1230299Y-195799D01*
X1269799Y-195799D01*
X1269799Y-223499D01*
G37*
G36*
X1230299Y-184200D02*
G01*
X1230299Y-156500D01*
X1269799Y-156500D01*
X1269799Y-184200D01*
G37*
G36*
X2068100Y150199D02*
G01*
X2040200Y178099D01*
X2059700Y197699D01*
X2087700Y169699D01*
G37*
G36*
X2040299Y122300D02*
G01*
X2012299Y150300D01*
X2031899Y169800D01*
X2059799Y141900D01*
G37*
G36*
X2545799Y-239699D02*
G01*
X2545799Y-200199D01*
X2573500Y-200199D01*
X2573500Y-239699D01*
G37*
G36*
X2506499Y-239699D02*
G01*
X2506499Y-200199D01*
X2534200Y-200199D01*
X2534200Y-239699D01*
G37*
G36*
X2526499Y660199D02*
G01*
X2526499Y699699D01*
X2554200Y699699D01*
X2554200Y660199D01*
G37*
G36*
X2565799Y660199D02*
G01*
X2565799Y699699D01*
X2593500Y699699D01*
X2593500Y660199D01*
G37*
G36*
X2620299Y-127699D02*
G01*
X2592299Y-99699D01*
X2611899Y-80199D01*
X2639799Y-108099D01*
G37*
G36*
X2648100Y-99800D02*
G01*
X2620200Y-71900D01*
X2639700Y-52300D01*
X2667700Y-80300D01*
G37*
G36*
X1515500Y606900D02*
G01*
X1515500Y654299D01*
X1584499Y654299D01*
X1584499Y606900D01*
G37*
G36*
X1515500Y685700D02*
G01*
X1515500Y733099D01*
X1584499Y733099D01*
X1584499Y685700D01*
G37*
G36*
X1545799Y540300D02*
G01*
X1545799Y579800D01*
X1573500Y579800D01*
X1573500Y540300D01*
G37*
G36*
X1506499Y540300D02*
G01*
X1506499Y579800D01*
X1534200Y579800D01*
X1534200Y540300D01*
G37*
G36*
X1156899Y395500D02*
G01*
X1156899Y464499D01*
X1204300Y464499D01*
X1204300Y395500D01*
G37*
G36*
X1235699Y395500D02*
G01*
X1235699Y464499D01*
X1283100Y464499D01*
X1283100Y395500D01*
G37*
G36*
X1216499Y490199D02*
G01*
X1216499Y529699D01*
X1244200Y529699D01*
X1244200Y490199D01*
G37*
G36*
X1255799Y490199D02*
G01*
X1255799Y529699D01*
X1283500Y529699D01*
X1283500Y490199D01*
G37*
G36*
X1006499Y70199D02*
G01*
X1006499Y109699D01*
X1034200Y109699D01*
X1034200Y70199D01*
G37*
G36*
X1045799Y70199D02*
G01*
X1045799Y109699D01*
X1073500Y109699D01*
X1073500Y70199D01*
G37*
G36*
X1166499Y320199D02*
G01*
X1166499Y359699D01*
X1194200Y359699D01*
X1194200Y320199D01*
G37*
G36*
X1205799Y320199D02*
G01*
X1205799Y359699D01*
X1233500Y359699D01*
X1233500Y320199D01*
G37*
G36*
X2246499Y170300D02*
G01*
X2246499Y209699D01*
X2274200Y209699D01*
X2274200Y170300D01*
G37*
G36*
X2285799Y170300D02*
G01*
X2285799Y209699D01*
X2313500Y209699D01*
X2313500Y170300D01*
G37*
G36*
X1506499Y360300D02*
G01*
X1506499Y399699D01*
X1534200Y399699D01*
X1534200Y360300D01*
G37*
G36*
X1545799Y360300D02*
G01*
X1545799Y399699D01*
X1573500Y399699D01*
X1573500Y360300D01*
G37*
G36*
X2068100Y-289800D02*
G01*
X2040200Y-261900D01*
X2059700Y-242300D01*
X2087700Y-270300D01*
G37*
G36*
X2040299Y-317699D02*
G01*
X2012299Y-289699D01*
X2031899Y-270199D01*
X2059799Y-298099D01*
G37*
G36*
X1841899Y-259800D02*
G01*
X1822299Y-240300D01*
X1850299Y-212300D01*
X1869799Y-231900D01*
G37*
G36*
X1869700Y-287699D02*
G01*
X1850200Y-268099D01*
X1878100Y-240199D01*
X1897700Y-259699D01*
G37*
G36*
X1198400Y555399D02*
G01*
X1198400Y610700D01*
X1261599Y610700D01*
X1261599Y555399D01*
G37*
G36*
X1198400Y689299D02*
G01*
X1198400Y744600D01*
X1261599Y744600D01*
X1261599Y689299D01*
G37*
G36*
X1186999Y876999D02*
G01*
X1186999Y943000D01*
X1253000Y943000D01*
X1253000Y876999D01*
G37*
G01*
X1320000Y910000D03*
G01*
X1420000Y910000D03*
G01*
X1520000Y910000D03*
G36*
X916500Y-871999D02*
G01*
X916500Y-820999D01*
X963500Y-820999D01*
X963500Y-871999D01*
G37*
G36*
X916500Y-939000D02*
G01*
X916500Y-888000D01*
X963500Y-888000D01*
X963500Y-939000D01*
G37*
G36*
X1056499Y-871999D02*
G01*
X1056499Y-820999D01*
X1103500Y-820999D01*
X1103500Y-871999D01*
G37*
G36*
X1056499Y-939000D02*
G01*
X1056499Y-888000D01*
X1103500Y-888000D01*
X1103500Y-939000D01*
G37*
G36*
X1196499Y-871999D02*
G01*
X1196499Y-820999D01*
X1243500Y-820999D01*
X1243500Y-871999D01*
G37*
G36*
X1196499Y-939000D02*
G01*
X1196499Y-888000D01*
X1243500Y-888000D01*
X1243500Y-939000D01*
G37*
G36*
X1336499Y-871999D02*
G01*
X1336499Y-820999D01*
X1383500Y-820999D01*
X1383500Y-871999D01*
G37*
G36*
X1336499Y-939000D02*
G01*
X1336499Y-888000D01*
X1383500Y-888000D01*
X1383500Y-939000D01*
G37*
G36*
X1476499Y-871999D02*
G01*
X1476499Y-820999D01*
X1523500Y-820999D01*
X1523500Y-871999D01*
G37*
G36*
X1476499Y-939000D02*
G01*
X1476499Y-888000D01*
X1523500Y-888000D01*
X1523500Y-939000D01*
G37*
G36*
X1326800Y386300D02*
G01*
X1326800Y433699D01*
X1370200Y433699D01*
X1370200Y386300D01*
G37*
G36*
X1389799Y386300D02*
G01*
X1389799Y433699D01*
X1433199Y433699D01*
X1433199Y386300D01*
G37*
G36*
X1540299Y96500D02*
G01*
X1540299Y124200D01*
X1579700Y124200D01*
X1579700Y96500D01*
G37*
G36*
X1540299Y135799D02*
G01*
X1540299Y163499D01*
X1579700Y163499D01*
X1579700Y135799D01*
G37*
G36*
X1466800Y286300D02*
G01*
X1466800Y333699D01*
X1510200Y333699D01*
X1510200Y286300D01*
G37*
G36*
X1529799Y286300D02*
G01*
X1529799Y333699D01*
X1573199Y333699D01*
X1573199Y286300D01*
G37*
G36*
X2108000Y-479800D02*
G01*
X2108000Y-385799D01*
X2171999Y-385799D01*
X2171999Y-479800D01*
G37*
G36*
X2108000Y-834200D02*
G01*
X2108000Y-740199D01*
X2171999Y-740199D01*
X2171999Y-834200D01*
G37*
G36*
X2008000Y-834200D02*
G01*
X2008000Y-740199D01*
X2071999Y-740199D01*
X2071999Y-834200D01*
G37*
G36*
X2008000Y-479800D02*
G01*
X2008000Y-385799D01*
X2071999Y-385799D01*
X2071999Y-479800D01*
G37*
G36*
X1908000Y-479800D02*
G01*
X1908000Y-385799D01*
X1971999Y-385799D01*
X1971999Y-479800D01*
G37*
G36*
X1908000Y-834200D02*
G01*
X1908000Y-740199D01*
X1971999Y-740199D01*
X1971999Y-834200D01*
G37*
G36*
X2125500Y76700D02*
G01*
X2076700Y125500D01*
X2110200Y159000D01*
X2158999Y110199D01*
G37*
G36*
X2069799Y20999D02*
G01*
X2021000Y69800D01*
X2054499Y103299D01*
X2103299Y54499D01*
G37*
G36*
X2225500Y-864299D02*
G01*
X2225500Y-816900D01*
X2294499Y-816900D01*
X2294499Y-864299D01*
G37*
G36*
X2225500Y-943099D02*
G01*
X2225500Y-895700D01*
X2294499Y-895700D01*
X2294499Y-943099D01*
G37*
G36*
X2186499Y470199D02*
G01*
X2186499Y509699D01*
X2214200Y509699D01*
X2214200Y470199D01*
G37*
G36*
X2225799Y470199D02*
G01*
X2225799Y509699D01*
X2253500Y509699D01*
X2253500Y470199D01*
G37*
G36*
X2616499Y660199D02*
G01*
X2616499Y699699D01*
X2644200Y699699D01*
X2644200Y660199D01*
G37*
G36*
X2655799Y660199D02*
G01*
X2655799Y699699D01*
X2683500Y699699D01*
X2683500Y660199D01*
G37*
G36*
X2570299Y776500D02*
G01*
X2570299Y804200D01*
X2609700Y804200D01*
X2609700Y776500D01*
G37*
G36*
X2570299Y815799D02*
G01*
X2570299Y843499D01*
X2609700Y843499D01*
X2609700Y815799D01*
G37*
G36*
X1309399Y648600D02*
G01*
X1309399Y731399D01*
X1364600Y731399D01*
X1364600Y648600D01*
G37*
G36*
X1435399Y648600D02*
G01*
X1435399Y731399D01*
X1490600Y731399D01*
X1490600Y648600D01*
G37*
G36*
X2016400Y-249499D02*
G01*
X1971700Y-204899D01*
X2009399Y-167199D01*
X2053999Y-211799D01*
G37*
G36*
X1910600Y-232800D02*
G01*
X1865900Y-188200D01*
X1903599Y-150500D01*
X1936599Y-183400D01*
X1936000Y-207399D01*
G37*
G36*
X1955100Y-188200D02*
G01*
X1910500Y-143600D01*
X1948199Y-105900D01*
X1992799Y-150599D01*
G37*
G36*
X1971800Y-294000D02*
G01*
X1927200Y-249400D01*
X1964899Y-211700D01*
X2009499Y-256399D01*
G37*
G36*
X1736499Y-871999D02*
G01*
X1736499Y-820999D01*
X1783500Y-820999D01*
X1783500Y-871999D01*
G37*
G36*
X1736499Y-939000D02*
G01*
X1736499Y-888000D01*
X1783500Y-888000D01*
X1783500Y-939000D01*
G37*
G36*
X1826499Y-871999D02*
G01*
X1826499Y-820999D01*
X1873500Y-820999D01*
X1873500Y-871999D01*
G37*
G36*
X1826499Y-939000D02*
G01*
X1826499Y-888000D01*
X1873500Y-888000D01*
X1873500Y-939000D01*
G37*
M02*
