G04 Layer: BottomLayer*
G04 EasyEDA v6.4.25, 2021-12-03T12:49:28+01:00*
G04 accffd0c38b74f39b4550f21fb377da6,9c416354eb984020824aaf9c885bead6,10*
G04 Gerber Generator version 0.2*
G04 Scale: 100 percent, Rotated: No, Reflected: No *
G04 Dimensions in inches *
G04 leading zeros omitted , absolute positions ,3 integer and 6 decimal *
%FSLAX36Y36*%
%MOIN*%

%ADD10C,0.0100*%
%ADD11C,0.0200*%
%ADD12C,0.0150*%
%ADD16C,0.0240*%
%ADD43R,0.0620X0.0620*%
%ADD44C,0.0620*%
%ADD46C,0.0669*%
%ADD47C,0.0709*%
%ADD48R,0.0709X0.0620*%
%ADD49R,0.0709X0.0709*%
%ADD50C,0.0591*%
%ADD51C,0.0433*%

%LPD*%
G36*
X1877580Y710200D02*
G01*
X1876020Y710520D01*
X1874700Y711440D01*
X1873839Y712800D01*
X1873580Y714380D01*
X1873980Y715920D01*
X1874940Y717200D01*
X1879120Y720879D01*
X1882680Y724920D01*
X1885680Y729400D01*
X1888060Y734240D01*
X1889780Y739340D01*
X1890840Y744620D01*
X1891200Y750000D01*
X1890840Y755380D01*
X1889780Y760660D01*
X1888060Y765759D01*
X1885680Y770600D01*
X1882680Y775080D01*
X1879120Y779120D01*
X1875080Y782680D01*
X1870600Y785680D01*
X1865760Y788060D01*
X1860660Y789780D01*
X1855300Y790860D01*
X1829720Y793100D01*
X1828380Y793460D01*
X1827240Y794260D01*
X1765880Y855600D01*
X1763440Y857620D01*
X1760800Y859020D01*
X1757960Y859880D01*
X1754800Y860200D01*
X1170800Y860200D01*
X1169160Y860560D01*
X1167820Y861540D01*
X1166980Y863000D01*
X1166820Y864659D01*
X1167360Y866260D01*
X1168500Y867480D01*
X1169260Y868000D01*
X1172000Y870740D01*
X1174220Y873900D01*
X1175840Y877420D01*
X1176840Y881140D01*
X1177180Y885000D01*
X1176840Y888860D01*
X1175840Y892580D01*
X1174220Y896100D01*
X1172000Y899260D01*
X1169260Y902000D01*
X1166100Y904220D01*
X1162580Y905840D01*
X1158860Y906840D01*
X1155000Y907180D01*
X1151140Y906840D01*
X1147420Y905840D01*
X1143900Y904220D01*
X1141740Y902760D01*
X1137180Y900580D01*
X1135460Y900200D01*
X867960Y900200D01*
X866420Y900500D01*
X865120Y901380D01*
X844560Y921919D01*
X843620Y923420D01*
X842060Y927820D01*
X840840Y932580D01*
X839220Y936100D01*
X837000Y939260D01*
X834260Y942000D01*
X831100Y944220D01*
X827580Y945840D01*
X823860Y946840D01*
X820000Y947180D01*
X816140Y946840D01*
X812420Y945840D01*
X808900Y944220D01*
X805740Y942000D01*
X803000Y939260D01*
X800780Y936100D01*
X799160Y932580D01*
X798160Y928860D01*
X797820Y925000D01*
X798160Y921140D01*
X799160Y917420D01*
X800780Y913900D01*
X803000Y910740D01*
X805740Y908000D01*
X808900Y905780D01*
X812420Y904160D01*
X817180Y902940D01*
X821580Y901380D01*
X823080Y900440D01*
X849120Y874400D01*
X851560Y872380D01*
X854200Y870980D01*
X857039Y870120D01*
X860200Y869800D01*
X1135460Y869800D01*
X1137180Y869419D01*
X1140540Y867820D01*
X1141760Y866900D01*
X1142560Y865600D01*
X1142820Y864080D01*
X1142480Y862580D01*
X1141600Y861340D01*
X1140320Y860500D01*
X1138820Y860200D01*
X827960Y860200D01*
X826420Y860500D01*
X825120Y861380D01*
X771380Y915120D01*
X770500Y916420D01*
X770200Y917960D01*
X770200Y1074200D01*
X770560Y1075840D01*
X771540Y1077180D01*
X773000Y1078020D01*
X774659Y1078180D01*
X776260Y1077640D01*
X777480Y1076500D01*
X778000Y1075740D01*
X780740Y1073000D01*
X783900Y1070780D01*
X787420Y1069160D01*
X792180Y1067940D01*
X796580Y1066380D01*
X798080Y1065440D01*
X934120Y929400D01*
X936560Y927380D01*
X939200Y925980D01*
X942039Y925120D01*
X945200Y924800D01*
X1352040Y924800D01*
X1353580Y924500D01*
X1354880Y923620D01*
X1369120Y909400D01*
X1371560Y907380D01*
X1374199Y905980D01*
X1377040Y905120D01*
X1380200Y904800D01*
X1792040Y904800D01*
X1793580Y904500D01*
X1794880Y903620D01*
X1914180Y784320D01*
X1914960Y783199D01*
X1915320Y781880D01*
X1915220Y780520D01*
X1910320Y761040D01*
X1909160Y755360D01*
X1908800Y750000D01*
X1909160Y744620D01*
X1910220Y739340D01*
X1911940Y734240D01*
X1914319Y729400D01*
X1917320Y724920D01*
X1920880Y720879D01*
X1925060Y717200D01*
X1926020Y715920D01*
X1926420Y714380D01*
X1926160Y712800D01*
X1925300Y711440D01*
X1923980Y710520D01*
X1922420Y710200D01*
G37*

%LPD*%
G36*
X2077380Y710040D02*
G01*
X2075800Y710360D01*
X2074480Y711280D01*
X2073620Y712640D01*
X2073380Y714220D01*
X2073779Y715780D01*
X2074740Y717060D01*
X2079139Y720879D01*
X2082680Y724920D01*
X2085680Y729400D01*
X2088060Y734240D01*
X2089780Y739340D01*
X2090840Y744620D01*
X2091200Y750000D01*
X2090840Y755380D01*
X2089780Y760660D01*
X2088060Y765759D01*
X2085680Y770600D01*
X2082680Y775080D01*
X2079120Y779120D01*
X2075080Y782680D01*
X2070600Y785680D01*
X2065760Y788060D01*
X2060660Y789780D01*
X2055300Y790860D01*
X2029720Y793100D01*
X2028380Y793460D01*
X2027240Y794260D01*
X1865880Y955600D01*
X1863440Y957620D01*
X1860800Y959020D01*
X1857960Y959880D01*
X1854800Y960200D01*
X1397960Y960200D01*
X1396420Y960500D01*
X1395120Y961380D01*
X1211380Y1145120D01*
X1210500Y1146420D01*
X1210200Y1147960D01*
X1210200Y1175460D01*
X1210580Y1177180D01*
X1212760Y1181740D01*
X1214220Y1183900D01*
X1215840Y1187420D01*
X1216840Y1191140D01*
X1217180Y1195000D01*
X1216840Y1198860D01*
X1215840Y1202580D01*
X1214220Y1206100D01*
X1212520Y1208500D01*
X1211860Y1210100D01*
X1211940Y1211840D01*
X1212740Y1213380D01*
X1214100Y1214420D01*
X1215800Y1214800D01*
X1929800Y1214800D01*
X1932960Y1215120D01*
X1935800Y1215980D01*
X1938440Y1217380D01*
X1940880Y1219400D01*
X2127240Y1405740D01*
X2128380Y1406540D01*
X2129720Y1406900D01*
X2155300Y1409139D01*
X2160660Y1410220D01*
X2165760Y1411940D01*
X2170600Y1414319D01*
X2175080Y1417320D01*
X2179120Y1420880D01*
X2182680Y1424920D01*
X2185680Y1429400D01*
X2188060Y1434240D01*
X2189780Y1439340D01*
X2190840Y1444620D01*
X2191200Y1450000D01*
X2190840Y1455380D01*
X2189780Y1460660D01*
X2188060Y1465760D01*
X2185680Y1470600D01*
X2182680Y1475080D01*
X2179120Y1479120D01*
X2174940Y1482800D01*
X2173980Y1484079D01*
X2173580Y1485620D01*
X2173840Y1487200D01*
X2174700Y1488560D01*
X2176020Y1489480D01*
X2177580Y1489800D01*
X2394120Y1489800D01*
X2395640Y1489500D01*
X2396940Y1488620D01*
X2588620Y1296940D01*
X2589500Y1295640D01*
X2589800Y1294120D01*
X2589800Y905879D01*
X2589500Y904360D01*
X2588620Y903060D01*
X2396940Y711360D01*
X2395640Y710500D01*
X2394120Y710200D01*
X2194240Y710100D01*
X2192740Y710380D01*
X2191480Y711200D01*
X2190600Y712440D01*
X2190240Y713920D01*
X2190460Y715420D01*
X2190920Y716740D01*
X2191200Y719220D01*
X2191200Y732000D01*
X2168000Y732000D01*
X2168000Y714080D01*
X2167700Y712560D01*
X2166820Y711260D01*
X2165540Y710400D01*
X2164000Y710080D01*
X2136000Y710080D01*
X2134480Y710380D01*
X2133180Y711240D01*
X2132300Y712540D01*
X2132000Y714080D01*
X2132000Y732000D01*
X2108800Y732000D01*
X2108800Y719220D01*
X2109080Y716740D01*
X2109560Y715380D01*
X2109780Y713880D01*
X2109420Y712400D01*
X2108540Y711160D01*
X2107280Y710340D01*
X2105780Y710060D01*
G37*

%LPC*%
G36*
X2108800Y768000D02*
G01*
X2132000Y768000D01*
X2132000Y791200D01*
X2119220Y791200D01*
X2116740Y790920D01*
X2114580Y790160D01*
X2112660Y788960D01*
X2111040Y787340D01*
X2109840Y785420D01*
X2109080Y783259D01*
X2108800Y780780D01*
G37*
G36*
X2168000Y768000D02*
G01*
X2191200Y768000D01*
X2191200Y780780D01*
X2190920Y783259D01*
X2190160Y785420D01*
X2188960Y787340D01*
X2187340Y788960D01*
X2185420Y790160D01*
X2183260Y790920D01*
X2180780Y791200D01*
X2168000Y791200D01*
G37*
G36*
X2409800Y953800D02*
G01*
X2424780Y953800D01*
X2424780Y977000D01*
X2399360Y977000D01*
X2399360Y964220D01*
X2399640Y961740D01*
X2400400Y959580D01*
X2401620Y957660D01*
X2403220Y956040D01*
X2405160Y954840D01*
X2407300Y954080D01*
G37*
G36*
X2465220Y953800D02*
G01*
X2480200Y953800D01*
X2482700Y954080D01*
X2484840Y954840D01*
X2486780Y956040D01*
X2488380Y957660D01*
X2489600Y959580D01*
X2490360Y961740D01*
X2490640Y964220D01*
X2490640Y977000D01*
X2465220Y977000D01*
G37*
G36*
X1560000Y1002820D02*
G01*
X1563860Y1003160D01*
X1567580Y1004160D01*
X1571100Y1005780D01*
X1574259Y1008000D01*
X1574880Y1008620D01*
X1576180Y1009500D01*
X1577720Y1009800D01*
X1612280Y1009800D01*
X1613820Y1009500D01*
X1615120Y1008620D01*
X1615740Y1008000D01*
X1618899Y1005780D01*
X1622420Y1004160D01*
X1626140Y1003160D01*
X1630000Y1002820D01*
X1633860Y1003160D01*
X1637580Y1004160D01*
X1641100Y1005780D01*
X1644259Y1008000D01*
X1647000Y1010740D01*
X1649220Y1013900D01*
X1650840Y1017420D01*
X1651840Y1021140D01*
X1652180Y1025000D01*
X1651840Y1028860D01*
X1650840Y1032580D01*
X1649220Y1036100D01*
X1647000Y1039260D01*
X1644259Y1042000D01*
X1641100Y1044220D01*
X1637580Y1045840D01*
X1633860Y1046840D01*
X1630000Y1047180D01*
X1626140Y1046840D01*
X1622420Y1045840D01*
X1618899Y1044220D01*
X1615740Y1042000D01*
X1615120Y1041380D01*
X1613820Y1040500D01*
X1612280Y1040200D01*
X1577720Y1040200D01*
X1576180Y1040500D01*
X1574880Y1041380D01*
X1574259Y1042000D01*
X1571100Y1044220D01*
X1567580Y1045840D01*
X1563860Y1046840D01*
X1560000Y1047180D01*
X1556140Y1046840D01*
X1552420Y1045840D01*
X1548899Y1044220D01*
X1545740Y1042000D01*
X1543000Y1039260D01*
X1540780Y1036100D01*
X1539160Y1032580D01*
X1538160Y1028860D01*
X1537820Y1025000D01*
X1538160Y1021140D01*
X1539160Y1017420D01*
X1540780Y1013900D01*
X1543000Y1010740D01*
X1545740Y1008000D01*
X1548899Y1005780D01*
X1552420Y1004160D01*
X1556140Y1003160D01*
G37*
G36*
X2235000Y1002820D02*
G01*
X2238860Y1003160D01*
X2242580Y1004160D01*
X2246100Y1005780D01*
X2249260Y1008000D01*
X2249880Y1008620D01*
X2251180Y1009500D01*
X2252720Y1009800D01*
X2287280Y1009800D01*
X2288820Y1009500D01*
X2290120Y1008620D01*
X2290740Y1008000D01*
X2293900Y1005780D01*
X2297420Y1004160D01*
X2301140Y1003160D01*
X2305000Y1002820D01*
X2308860Y1003160D01*
X2312580Y1004160D01*
X2316100Y1005780D01*
X2319260Y1008000D01*
X2322000Y1010740D01*
X2324220Y1013900D01*
X2325840Y1017420D01*
X2326840Y1021140D01*
X2327180Y1025000D01*
X2326840Y1028860D01*
X2325840Y1032580D01*
X2324220Y1036100D01*
X2322000Y1039260D01*
X2319260Y1042000D01*
X2316100Y1044220D01*
X2312580Y1045840D01*
X2308860Y1046840D01*
X2305000Y1047180D01*
X2301140Y1046840D01*
X2297420Y1045840D01*
X2293900Y1044220D01*
X2290740Y1042000D01*
X2290120Y1041380D01*
X2288820Y1040500D01*
X2287280Y1040200D01*
X2252720Y1040200D01*
X2251180Y1040500D01*
X2249880Y1041380D01*
X2249260Y1042000D01*
X2246100Y1044220D01*
X2242580Y1045840D01*
X2238860Y1046840D01*
X2235000Y1047180D01*
X2231140Y1046840D01*
X2227420Y1045840D01*
X2223900Y1044220D01*
X2220740Y1042000D01*
X2218000Y1039260D01*
X2215780Y1036100D01*
X2214160Y1032580D01*
X2213160Y1028860D01*
X2212820Y1025000D01*
X2213160Y1021140D01*
X2214160Y1017420D01*
X2215780Y1013900D01*
X2218000Y1010740D01*
X2220740Y1008000D01*
X2223900Y1005780D01*
X2227420Y1004160D01*
X2231140Y1003160D01*
G37*
G36*
X1900000Y1007820D02*
G01*
X1903860Y1008160D01*
X1907580Y1009160D01*
X1911100Y1010780D01*
X1914259Y1013000D01*
X1914880Y1013620D01*
X1916180Y1014500D01*
X1917720Y1014800D01*
X1952280Y1014800D01*
X1953820Y1014500D01*
X1955120Y1013620D01*
X1955740Y1013000D01*
X1958899Y1010780D01*
X1962420Y1009160D01*
X1966140Y1008160D01*
X1970000Y1007820D01*
X1973860Y1008160D01*
X1977580Y1009160D01*
X1981100Y1010780D01*
X1984259Y1013000D01*
X1987000Y1015740D01*
X1989220Y1018900D01*
X1990840Y1022420D01*
X1991840Y1026140D01*
X1992180Y1030000D01*
X1991840Y1033860D01*
X1990840Y1037580D01*
X1989220Y1041100D01*
X1987000Y1044260D01*
X1984259Y1047000D01*
X1981100Y1049220D01*
X1977580Y1050840D01*
X1973860Y1051840D01*
X1970000Y1052180D01*
X1966140Y1051840D01*
X1962420Y1050840D01*
X1958899Y1049220D01*
X1955740Y1047000D01*
X1955120Y1046380D01*
X1953820Y1045500D01*
X1952280Y1045200D01*
X1917720Y1045200D01*
X1916180Y1045500D01*
X1914880Y1046380D01*
X1914259Y1047000D01*
X1911100Y1049220D01*
X1907580Y1050840D01*
X1903860Y1051840D01*
X1900000Y1052180D01*
X1896140Y1051840D01*
X1892420Y1050840D01*
X1888899Y1049220D01*
X1885740Y1047000D01*
X1883000Y1044260D01*
X1880780Y1041100D01*
X1879160Y1037580D01*
X1878160Y1033860D01*
X1877820Y1030000D01*
X1878160Y1026140D01*
X1879160Y1022420D01*
X1880780Y1018900D01*
X1883000Y1015740D01*
X1885740Y1013000D01*
X1888899Y1010780D01*
X1892420Y1009160D01*
X1896140Y1008160D01*
G37*
G36*
X2399360Y1013000D02*
G01*
X2424780Y1013000D01*
X2424780Y1036200D01*
X2409800Y1036200D01*
X2407300Y1035920D01*
X2405160Y1035160D01*
X2403220Y1033960D01*
X2401620Y1032340D01*
X2400400Y1030420D01*
X2399640Y1028259D01*
X2399360Y1025780D01*
G37*
G36*
X2465220Y1013000D02*
G01*
X2490640Y1013000D01*
X2490640Y1025780D01*
X2490360Y1028259D01*
X2489600Y1030420D01*
X2488380Y1032340D01*
X2486780Y1033960D01*
X2484840Y1035160D01*
X2482700Y1035920D01*
X2480200Y1036200D01*
X2465220Y1036200D01*
G37*
G36*
X2445000Y1049380D02*
G01*
X2450720Y1049740D01*
X2456340Y1050800D01*
X2461800Y1052580D01*
X2466980Y1055020D01*
X2471820Y1058080D01*
X2476240Y1061740D01*
X2480160Y1065920D01*
X2483520Y1070560D01*
X2486280Y1075580D01*
X2488400Y1080900D01*
X2489820Y1086460D01*
X2490540Y1092140D01*
X2490540Y1097860D01*
X2489820Y1103540D01*
X2488400Y1109100D01*
X2486280Y1114420D01*
X2483520Y1119440D01*
X2480160Y1124080D01*
X2476240Y1128260D01*
X2471820Y1131920D01*
X2466980Y1134980D01*
X2461800Y1137420D01*
X2456340Y1139200D01*
X2450720Y1140260D01*
X2445000Y1140620D01*
X2439280Y1140260D01*
X2433660Y1139200D01*
X2428200Y1137420D01*
X2423020Y1134980D01*
X2418180Y1131920D01*
X2413760Y1128260D01*
X2409840Y1124080D01*
X2406480Y1119440D01*
X2403720Y1114420D01*
X2401600Y1109100D01*
X2400180Y1103540D01*
X2399460Y1097860D01*
X2399460Y1092140D01*
X2400180Y1086460D01*
X2401600Y1080900D01*
X2403720Y1075580D01*
X2406480Y1070560D01*
X2409840Y1065920D01*
X2413760Y1061740D01*
X2418180Y1058080D01*
X2423020Y1055020D01*
X2428200Y1052580D01*
X2433660Y1050800D01*
X2439280Y1049740D01*
G37*
G36*
X1375000Y1067820D02*
G01*
X1378860Y1068160D01*
X1382580Y1069160D01*
X1386100Y1070780D01*
X1389259Y1073000D01*
X1389880Y1073620D01*
X1391180Y1074500D01*
X1392720Y1074800D01*
X1407280Y1074800D01*
X1408820Y1074500D01*
X1410120Y1073620D01*
X1410740Y1073000D01*
X1413899Y1070780D01*
X1417420Y1069160D01*
X1421140Y1068160D01*
X1425000Y1067820D01*
X1428860Y1068160D01*
X1432580Y1069160D01*
X1436100Y1070780D01*
X1439259Y1073000D01*
X1442000Y1075740D01*
X1444220Y1078900D01*
X1445840Y1082420D01*
X1446840Y1086140D01*
X1447180Y1090000D01*
X1446879Y1093500D01*
X1447100Y1095220D01*
X1448040Y1096680D01*
X1449500Y1097620D01*
X1455360Y1098160D01*
X1459079Y1099160D01*
X1462600Y1100780D01*
X1465760Y1103000D01*
X1466380Y1103620D01*
X1467680Y1104500D01*
X1469220Y1104800D01*
X1914800Y1104800D01*
X1917960Y1105120D01*
X1920800Y1105980D01*
X1923440Y1107380D01*
X1925880Y1109400D01*
X2023220Y1206720D01*
X2024360Y1207520D01*
X2025700Y1207880D01*
X2028860Y1208160D01*
X2032580Y1209160D01*
X2036100Y1210780D01*
X2039259Y1213000D01*
X2042000Y1215740D01*
X2044220Y1218900D01*
X2045840Y1222420D01*
X2046840Y1226140D01*
X2047180Y1230000D01*
X2046840Y1233860D01*
X2045840Y1237580D01*
X2044220Y1241100D01*
X2042000Y1244260D01*
X2039259Y1247000D01*
X2036100Y1249220D01*
X2032580Y1250840D01*
X2028860Y1251840D01*
X2025000Y1252180D01*
X2021140Y1251840D01*
X2017420Y1250840D01*
X2013899Y1249220D01*
X2010740Y1247000D01*
X2008000Y1244260D01*
X2005780Y1241100D01*
X2004160Y1237580D01*
X2003160Y1233860D01*
X2002880Y1230700D01*
X2002520Y1229360D01*
X2001720Y1228220D01*
X1909880Y1136380D01*
X1908580Y1135500D01*
X1907040Y1135200D01*
X1743760Y1135200D01*
X1742200Y1135520D01*
X1740880Y1136420D01*
X1740020Y1137760D01*
X1739760Y1139340D01*
X1740140Y1140900D01*
X1740840Y1142420D01*
X1741840Y1146140D01*
X1742180Y1150000D01*
X1741840Y1153860D01*
X1740840Y1157580D01*
X1739220Y1161100D01*
X1737000Y1164260D01*
X1734259Y1167000D01*
X1731100Y1169220D01*
X1727580Y1170840D01*
X1723860Y1171840D01*
X1720000Y1172180D01*
X1716140Y1171840D01*
X1712420Y1170840D01*
X1708899Y1169220D01*
X1705740Y1167000D01*
X1705120Y1166380D01*
X1703820Y1165500D01*
X1702280Y1165200D01*
X1360200Y1165200D01*
X1357040Y1164880D01*
X1354199Y1164020D01*
X1351560Y1162620D01*
X1349120Y1160600D01*
X1329400Y1140880D01*
X1327380Y1138440D01*
X1325980Y1135800D01*
X1325120Y1132960D01*
X1324800Y1129800D01*
X1324800Y1110200D01*
X1325120Y1107040D01*
X1325980Y1104200D01*
X1327380Y1101560D01*
X1329400Y1099120D01*
X1349120Y1079400D01*
X1351560Y1077380D01*
X1354199Y1075980D01*
X1357040Y1075120D01*
X1358700Y1074720D01*
X1359820Y1073920D01*
X1360740Y1073000D01*
X1363899Y1070780D01*
X1367420Y1069160D01*
X1371140Y1068160D01*
G37*
G36*
X2445000Y1149380D02*
G01*
X2450720Y1149740D01*
X2456340Y1150800D01*
X2461800Y1152580D01*
X2466980Y1155020D01*
X2471820Y1158080D01*
X2476240Y1161740D01*
X2480160Y1165920D01*
X2483520Y1170560D01*
X2486280Y1175580D01*
X2488400Y1180900D01*
X2489820Y1186460D01*
X2490540Y1192140D01*
X2490540Y1197860D01*
X2489820Y1203540D01*
X2488400Y1209100D01*
X2486280Y1214420D01*
X2483520Y1219440D01*
X2480160Y1224080D01*
X2476240Y1228260D01*
X2471820Y1231920D01*
X2466980Y1234980D01*
X2461800Y1237420D01*
X2456340Y1239200D01*
X2450720Y1240260D01*
X2445000Y1240620D01*
X2439280Y1240260D01*
X2433660Y1239200D01*
X2428200Y1237420D01*
X2423020Y1234980D01*
X2418180Y1231920D01*
X2413760Y1228260D01*
X2409840Y1224080D01*
X2406480Y1219440D01*
X2403720Y1214420D01*
X2401600Y1209100D01*
X2400180Y1203540D01*
X2399460Y1197860D01*
X2399460Y1192140D01*
X2400180Y1186460D01*
X2401600Y1180900D01*
X2403720Y1175580D01*
X2406480Y1170560D01*
X2409840Y1165920D01*
X2413760Y1161740D01*
X2418180Y1158080D01*
X2423020Y1155020D01*
X2428200Y1152580D01*
X2433660Y1150800D01*
X2439280Y1149740D01*
G37*

%LPD*%
G36*
X644960Y709220D02*
G01*
X643360Y709640D01*
X642080Y710680D01*
X641440Y711440D01*
X638980Y713460D01*
X636200Y714940D01*
X633160Y715860D01*
X630000Y716180D01*
X626840Y715860D01*
X623800Y714940D01*
X621880Y713920D01*
X620660Y713500D01*
X619340Y713500D01*
X618120Y713920D01*
X616200Y714940D01*
X613160Y715860D01*
X610000Y716180D01*
X606840Y715860D01*
X603800Y714940D01*
X601880Y713920D01*
X600660Y713500D01*
X599340Y713500D01*
X598120Y713920D01*
X596200Y714940D01*
X593160Y715860D01*
X590000Y716180D01*
X586840Y715860D01*
X583800Y714940D01*
X581880Y713920D01*
X580660Y713500D01*
X579340Y713500D01*
X578120Y713920D01*
X576200Y714940D01*
X573160Y715860D01*
X570000Y716180D01*
X566840Y715860D01*
X563800Y714940D01*
X561020Y713460D01*
X558560Y711440D01*
X557940Y710699D01*
X556580Y709620D01*
X554900Y709240D01*
X552880Y709740D01*
X549940Y710200D01*
X205880Y710200D01*
X204360Y710500D01*
X203060Y711380D01*
X11379Y903060D01*
X10500Y904360D01*
X10200Y905879D01*
X10200Y1294120D01*
X10500Y1295640D01*
X11379Y1296940D01*
X203060Y1488620D01*
X204360Y1489500D01*
X205880Y1489800D01*
X1805740Y1489800D01*
X1807220Y1489520D01*
X1808500Y1488700D01*
X1809379Y1487460D01*
X1809720Y1485980D01*
X1809500Y1484480D01*
X1809079Y1483260D01*
X1808800Y1480780D01*
X1808800Y1419220D01*
X1809079Y1416740D01*
X1809840Y1414580D01*
X1811040Y1412660D01*
X1812660Y1411040D01*
X1814580Y1409840D01*
X1816740Y1409079D01*
X1819220Y1408800D01*
X1877640Y1408800D01*
X1879180Y1408500D01*
X1880480Y1407620D01*
X1881339Y1406339D01*
X1881639Y1404800D01*
X1881339Y1403260D01*
X1880480Y1401980D01*
X1774880Y1296380D01*
X1773580Y1295500D01*
X1772040Y1295200D01*
X1160200Y1295200D01*
X1157040Y1294880D01*
X1154200Y1294019D01*
X1151560Y1292620D01*
X1149120Y1290600D01*
X1067820Y1209320D01*
X1066540Y1208460D01*
X1065000Y1208160D01*
X1063460Y1208460D01*
X1062180Y1209320D01*
X800879Y1470600D01*
X798439Y1472620D01*
X795800Y1474019D01*
X792960Y1474880D01*
X789800Y1475200D01*
X695200Y1475200D01*
X692039Y1474880D01*
X689200Y1474019D01*
X686560Y1472620D01*
X684120Y1470600D01*
X667760Y1454259D01*
X666620Y1453460D01*
X665280Y1453100D01*
X639700Y1450860D01*
X634340Y1449780D01*
X629240Y1448060D01*
X624400Y1445680D01*
X619920Y1442680D01*
X615880Y1439120D01*
X612320Y1435080D01*
X609320Y1430600D01*
X606940Y1425760D01*
X605220Y1420660D01*
X604160Y1415380D01*
X603800Y1410000D01*
X604160Y1404620D01*
X605220Y1399340D01*
X606940Y1394240D01*
X609320Y1389400D01*
X612320Y1384920D01*
X615880Y1380880D01*
X619920Y1377320D01*
X624400Y1374319D01*
X629240Y1371940D01*
X634340Y1370220D01*
X639620Y1369160D01*
X645000Y1368800D01*
X650380Y1369160D01*
X655660Y1370220D01*
X660759Y1371940D01*
X665600Y1374319D01*
X670080Y1377320D01*
X674120Y1380880D01*
X677680Y1384920D01*
X680680Y1389400D01*
X683060Y1394240D01*
X684780Y1399340D01*
X685860Y1404700D01*
X688100Y1430280D01*
X688460Y1431620D01*
X689260Y1432760D01*
X700120Y1443620D01*
X701420Y1444500D01*
X702960Y1444800D01*
X712020Y1444800D01*
X713520Y1444520D01*
X714780Y1443680D01*
X715660Y1442460D01*
X716020Y1440980D01*
X715800Y1439480D01*
X715020Y1438160D01*
X712320Y1435080D01*
X709320Y1430600D01*
X706940Y1425760D01*
X705220Y1420660D01*
X704160Y1415380D01*
X703800Y1410000D01*
X704160Y1404620D01*
X705220Y1399340D01*
X706940Y1394240D01*
X709320Y1389400D01*
X712320Y1384920D01*
X715879Y1380880D01*
X719920Y1377320D01*
X724400Y1374319D01*
X729240Y1371940D01*
X734340Y1370220D01*
X739700Y1369139D01*
X765280Y1366900D01*
X766620Y1366540D01*
X767760Y1365740D01*
X998620Y1134880D01*
X999500Y1133580D01*
X999800Y1132040D01*
X999800Y1095200D01*
X1000120Y1092040D01*
X1000980Y1089200D01*
X1002380Y1086560D01*
X1004400Y1084120D01*
X1045440Y1043080D01*
X1046380Y1041580D01*
X1047940Y1037180D01*
X1049160Y1032420D01*
X1050780Y1028900D01*
X1053000Y1025740D01*
X1055740Y1023000D01*
X1058900Y1020780D01*
X1062480Y1019120D01*
X1063540Y1018780D01*
X1064900Y1018040D01*
X1065880Y1016840D01*
X1066320Y1015360D01*
X1066180Y1013820D01*
X1065460Y1012440D01*
X1064260Y1011460D01*
X1062780Y1011000D01*
X1055280Y1010200D01*
X1017960Y1010200D01*
X1016420Y1010500D01*
X1015120Y1011380D01*
X981380Y1045120D01*
X980500Y1046420D01*
X980200Y1047960D01*
X980200Y1124800D01*
X979880Y1127960D01*
X979020Y1130800D01*
X977620Y1133440D01*
X975600Y1135880D01*
X905879Y1205600D01*
X903439Y1207620D01*
X900800Y1209020D01*
X897960Y1209880D01*
X894800Y1210200D01*
X802960Y1210200D01*
X801420Y1210500D01*
X800120Y1211380D01*
X748960Y1262540D01*
X748040Y1263980D01*
X747800Y1265680D01*
X748300Y1267320D01*
X749440Y1268600D01*
X751000Y1269280D01*
X755660Y1270220D01*
X760759Y1271940D01*
X765600Y1274320D01*
X770080Y1277320D01*
X774120Y1280880D01*
X777680Y1284920D01*
X780680Y1289400D01*
X783060Y1294240D01*
X784780Y1299340D01*
X785840Y1304620D01*
X786200Y1310000D01*
X785840Y1315380D01*
X784780Y1320660D01*
X783060Y1325760D01*
X780680Y1330600D01*
X777680Y1335080D01*
X774120Y1339120D01*
X770080Y1342680D01*
X765600Y1345680D01*
X760759Y1348060D01*
X755660Y1349780D01*
X750380Y1350840D01*
X745000Y1351200D01*
X739620Y1350840D01*
X734340Y1349780D01*
X729240Y1348060D01*
X724400Y1345680D01*
X719920Y1342680D01*
X715879Y1339120D01*
X712320Y1335080D01*
X709320Y1330600D01*
X706940Y1325760D01*
X705220Y1320660D01*
X704160Y1315380D01*
X703800Y1310000D01*
X704160Y1304620D01*
X705220Y1299340D01*
X706940Y1294240D01*
X709320Y1289400D01*
X711320Y1286420D01*
X711940Y1284820D01*
X711840Y1283120D01*
X711040Y1281600D01*
X709659Y1280560D01*
X708000Y1280200D01*
X697960Y1280200D01*
X696420Y1280500D01*
X695120Y1281380D01*
X689260Y1287240D01*
X688460Y1288380D01*
X688100Y1289720D01*
X685860Y1315300D01*
X684780Y1320660D01*
X683060Y1325760D01*
X680680Y1330600D01*
X677680Y1335080D01*
X674120Y1339120D01*
X670080Y1342680D01*
X665600Y1345680D01*
X660759Y1348060D01*
X655660Y1349780D01*
X650380Y1350840D01*
X645000Y1351200D01*
X639620Y1350840D01*
X634340Y1349780D01*
X629240Y1348060D01*
X624400Y1345680D01*
X619920Y1342680D01*
X616840Y1339980D01*
X615520Y1339199D01*
X614020Y1338980D01*
X612540Y1339340D01*
X611320Y1340220D01*
X610480Y1341480D01*
X610200Y1342980D01*
X610200Y1359800D01*
X609880Y1362960D01*
X609020Y1365800D01*
X607620Y1368440D01*
X605600Y1370880D01*
X589260Y1387240D01*
X588460Y1388380D01*
X588100Y1389720D01*
X585860Y1415300D01*
X584780Y1420660D01*
X583060Y1425760D01*
X580680Y1430600D01*
X577680Y1435080D01*
X574120Y1439120D01*
X570080Y1442680D01*
X565600Y1445680D01*
X560760Y1448060D01*
X555660Y1449780D01*
X550380Y1450840D01*
X545000Y1451200D01*
X539620Y1450840D01*
X534340Y1449780D01*
X529240Y1448060D01*
X524400Y1445680D01*
X519920Y1442680D01*
X515880Y1439120D01*
X512320Y1435080D01*
X509320Y1430600D01*
X506940Y1425760D01*
X505220Y1420660D01*
X504159Y1415380D01*
X503800Y1410000D01*
X504159Y1404620D01*
X505220Y1399340D01*
X506940Y1394240D01*
X509320Y1389400D01*
X512320Y1384920D01*
X515880Y1380880D01*
X519920Y1377320D01*
X524400Y1374319D01*
X529240Y1371940D01*
X534340Y1370220D01*
X539700Y1369139D01*
X565280Y1366900D01*
X566620Y1366540D01*
X567760Y1365740D01*
X575480Y1358020D01*
X576340Y1356740D01*
X576640Y1355200D01*
X576340Y1353660D01*
X575480Y1352380D01*
X574180Y1351500D01*
X572640Y1351200D01*
X563000Y1351200D01*
X563000Y1328000D01*
X575800Y1328000D01*
X577340Y1327700D01*
X578620Y1326819D01*
X579500Y1325540D01*
X579800Y1324000D01*
X579800Y1296000D01*
X579500Y1294460D01*
X578620Y1293180D01*
X577340Y1292300D01*
X575800Y1292000D01*
X563000Y1292000D01*
X563000Y1268800D01*
X575780Y1268800D01*
X578260Y1269080D01*
X580400Y1269820D01*
X582760Y1271320D01*
X584000Y1271840D01*
X585340Y1271920D01*
X586640Y1271560D01*
X587720Y1270780D01*
X634120Y1224400D01*
X636560Y1222380D01*
X639200Y1220980D01*
X642039Y1220120D01*
X645200Y1219800D01*
X697039Y1219800D01*
X698580Y1219500D01*
X699880Y1218620D01*
X775680Y1142820D01*
X776540Y1141540D01*
X776840Y1140000D01*
X776540Y1138460D01*
X775680Y1137180D01*
X744400Y1105880D01*
X742380Y1103440D01*
X740980Y1100800D01*
X740120Y1097960D01*
X739800Y1094800D01*
X739800Y910200D01*
X740120Y907039D01*
X740980Y904200D01*
X742380Y901560D01*
X744400Y899120D01*
X809120Y834400D01*
X811560Y832380D01*
X814200Y830980D01*
X817039Y830120D01*
X820200Y829800D01*
X1747040Y829800D01*
X1748580Y829500D01*
X1749880Y828620D01*
X1805740Y772760D01*
X1806540Y771620D01*
X1806900Y770280D01*
X1809139Y744700D01*
X1810220Y739340D01*
X1811940Y734240D01*
X1814319Y729400D01*
X1817320Y724920D01*
X1820880Y720879D01*
X1825060Y717200D01*
X1826020Y715920D01*
X1826420Y714380D01*
X1826160Y712800D01*
X1825300Y711440D01*
X1823980Y710520D01*
X1822420Y710200D01*
X650240Y710200D01*
X647680Y709880D01*
X646580Y709479D01*
G37*

%LPC*%
G36*
X117579Y938940D02*
G01*
X120100Y939479D01*
X124360Y941080D01*
X128360Y943259D01*
X131980Y945980D01*
X135200Y949180D01*
X137920Y952820D01*
X140040Y956720D01*
X117579Y956720D01*
G37*
G36*
X77140Y938940D02*
G01*
X77140Y956720D01*
X54660Y956720D01*
X56780Y952820D01*
X59520Y949180D01*
X62720Y945980D01*
X66360Y943259D01*
X70340Y941080D01*
X74600Y939479D01*
G37*
G36*
X54660Y983360D02*
G01*
X77140Y983360D01*
X77140Y1001140D01*
X74600Y1000600D01*
X70340Y999000D01*
X66360Y996820D01*
X62720Y994100D01*
X59520Y990900D01*
X56780Y987260D01*
G37*
G36*
X117579Y983360D02*
G01*
X140040Y983360D01*
X137920Y987260D01*
X135200Y990900D01*
X131980Y994100D01*
X128360Y996820D01*
X124360Y999000D01*
X120100Y1000600D01*
X117579Y1001140D01*
G37*
G36*
X77160Y1198860D02*
G01*
X77160Y1216640D01*
X54680Y1216640D01*
X56800Y1212740D01*
X59520Y1209100D01*
X62740Y1205900D01*
X66380Y1203180D01*
X70360Y1201000D01*
X74620Y1199400D01*
G37*
G36*
X117579Y1198860D02*
G01*
X120120Y1199400D01*
X124380Y1201000D01*
X128360Y1203180D01*
X132000Y1205900D01*
X135220Y1209100D01*
X137940Y1212740D01*
X140060Y1216640D01*
X117579Y1216640D01*
G37*
G36*
X54680Y1243280D02*
G01*
X77160Y1243280D01*
X77160Y1261060D01*
X74620Y1260520D01*
X70360Y1258920D01*
X66380Y1256740D01*
X62740Y1254020D01*
X59520Y1250820D01*
X56800Y1247180D01*
G37*
G36*
X117579Y1243280D02*
G01*
X140060Y1243280D01*
X137940Y1247180D01*
X135220Y1250820D01*
X132000Y1254020D01*
X128360Y1256740D01*
X124380Y1258920D01*
X120120Y1260520D01*
X117579Y1261060D01*
G37*
G36*
X514219Y1268800D02*
G01*
X527000Y1268800D01*
X527000Y1292000D01*
X503800Y1292000D01*
X503800Y1279220D01*
X504080Y1276740D01*
X504840Y1274580D01*
X506040Y1272660D01*
X507660Y1271040D01*
X509580Y1269840D01*
X511740Y1269080D01*
G37*
G36*
X503800Y1328000D02*
G01*
X527000Y1328000D01*
X527000Y1351200D01*
X514219Y1351200D01*
X511740Y1350920D01*
X509580Y1350160D01*
X507660Y1348959D01*
X506040Y1347340D01*
X504840Y1345420D01*
X504080Y1343260D01*
X503800Y1340780D01*
G37*

%LPD*%
G36*
X2077380Y-189960D02*
G01*
X2075800Y-189640D01*
X2074480Y-188720D01*
X2073620Y-187360D01*
X2073380Y-185780D01*
X2073760Y-184220D01*
X2074740Y-182940D01*
X2079139Y-179120D01*
X2082680Y-175080D01*
X2085680Y-170600D01*
X2088060Y-165760D01*
X2089780Y-160660D01*
X2090840Y-155380D01*
X2091200Y-150000D01*
X2090840Y-144620D01*
X2089780Y-139340D01*
X2088060Y-134240D01*
X2085680Y-129400D01*
X2082640Y-124860D01*
X2066140Y-105200D01*
X2065440Y-103980D01*
X2065200Y-102620D01*
X2065200Y4800D01*
X2064880Y7960D01*
X2064019Y10800D01*
X2062620Y13440D01*
X2060600Y15880D01*
X2005880Y70600D01*
X2003440Y72620D01*
X2000800Y74020D01*
X1997960Y74880D01*
X1994800Y75200D01*
X1943860Y75200D01*
X1942320Y75500D01*
X1941020Y76380D01*
X1940160Y77660D01*
X1939860Y79200D01*
X1940160Y80740D01*
X1941020Y82020D01*
X2163100Y304120D01*
X2165120Y306560D01*
X2166520Y309200D01*
X2167380Y312040D01*
X2167700Y315200D01*
X2167700Y503459D01*
X2167900Y504720D01*
X2168500Y505860D01*
X2182600Y524800D01*
X2185680Y529400D01*
X2188060Y534240D01*
X2189780Y539340D01*
X2190840Y544620D01*
X2191200Y550000D01*
X2190840Y555380D01*
X2189780Y560660D01*
X2188060Y565760D01*
X2185680Y570600D01*
X2182680Y575080D01*
X2179120Y579120D01*
X2174940Y582800D01*
X2173980Y584080D01*
X2173580Y585620D01*
X2173840Y587200D01*
X2174700Y588560D01*
X2176020Y589480D01*
X2177580Y589800D01*
X2494120Y589800D01*
X2495640Y589500D01*
X2496940Y588620D01*
X2588620Y496940D01*
X2589500Y495640D01*
X2589800Y494120D01*
X2589800Y-94120D01*
X2589500Y-95640D01*
X2588620Y-96940D01*
X2496940Y-188640D01*
X2495640Y-189500D01*
X2494120Y-189800D01*
X2194240Y-189920D01*
X2192740Y-189620D01*
X2191460Y-188800D01*
X2190580Y-187560D01*
X2190240Y-186100D01*
X2190460Y-184600D01*
X2190920Y-183260D01*
X2191200Y-180780D01*
X2191200Y-168000D01*
X2168000Y-168000D01*
X2168000Y-185920D01*
X2167700Y-187460D01*
X2166820Y-188760D01*
X2165540Y-189620D01*
X2164000Y-189920D01*
X2136000Y-189940D01*
X2134480Y-189640D01*
X2133180Y-188760D01*
X2132300Y-187460D01*
X2132000Y-185940D01*
X2132000Y-168000D01*
X2108800Y-168000D01*
X2108800Y-180780D01*
X2109080Y-183260D01*
X2109560Y-184620D01*
X2109780Y-186119D01*
X2109420Y-187600D01*
X2108540Y-188840D01*
X2107280Y-189660D01*
X2105780Y-189940D01*
G37*

%LPC*%
G36*
X2108800Y-132000D02*
G01*
X2132000Y-132000D01*
X2132000Y-108800D01*
X2119220Y-108800D01*
X2116740Y-109080D01*
X2114580Y-109840D01*
X2112660Y-111039D01*
X2111040Y-112660D01*
X2109840Y-114580D01*
X2109080Y-116740D01*
X2108800Y-119220D01*
G37*
G36*
X2168000Y-132000D02*
G01*
X2191200Y-132000D01*
X2191200Y-119220D01*
X2190920Y-116740D01*
X2190160Y-114580D01*
X2188960Y-112660D01*
X2187340Y-111039D01*
X2185420Y-109840D01*
X2183260Y-109080D01*
X2180780Y-108800D01*
X2168000Y-108800D01*
G37*

%LPD*%
G36*
X644960Y-190780D02*
G01*
X643360Y-190360D01*
X642080Y-189320D01*
X641440Y-188560D01*
X638980Y-186540D01*
X636200Y-185060D01*
X633160Y-184140D01*
X630000Y-183820D01*
X626840Y-184140D01*
X623800Y-185060D01*
X621880Y-186080D01*
X620660Y-186500D01*
X619340Y-186500D01*
X618120Y-186080D01*
X616200Y-185060D01*
X613160Y-184140D01*
X610000Y-183820D01*
X606840Y-184140D01*
X603800Y-185060D01*
X601880Y-186080D01*
X600660Y-186500D01*
X599340Y-186500D01*
X598120Y-186080D01*
X596200Y-185060D01*
X593160Y-184140D01*
X590000Y-183820D01*
X586840Y-184140D01*
X583800Y-185060D01*
X581880Y-186080D01*
X580660Y-186500D01*
X579340Y-186500D01*
X578120Y-186080D01*
X576200Y-185060D01*
X573160Y-184140D01*
X570000Y-183820D01*
X566840Y-184140D01*
X563800Y-185060D01*
X561020Y-186540D01*
X558560Y-188560D01*
X557940Y-189300D01*
X556580Y-190380D01*
X554900Y-190760D01*
X552880Y-190260D01*
X549940Y-189800D01*
X105879Y-189800D01*
X104360Y-189500D01*
X103059Y-188619D01*
X11379Y-96940D01*
X10500Y-95640D01*
X10200Y-94120D01*
X10200Y494120D01*
X10500Y495640D01*
X11379Y496940D01*
X103059Y588640D01*
X104360Y589500D01*
X105879Y589800D01*
X549760Y589960D01*
X552320Y590280D01*
X553320Y590660D01*
X554940Y590920D01*
X556540Y590480D01*
X557820Y589460D01*
X558560Y588560D01*
X561020Y586540D01*
X563800Y585060D01*
X566840Y584140D01*
X570000Y583820D01*
X573160Y584140D01*
X576200Y585060D01*
X578120Y586080D01*
X579340Y586500D01*
X580660Y586500D01*
X581880Y586080D01*
X583800Y585060D01*
X586840Y584140D01*
X590000Y583820D01*
X593160Y584140D01*
X596200Y585060D01*
X598120Y586080D01*
X599340Y586500D01*
X600660Y586500D01*
X601880Y586080D01*
X603800Y585060D01*
X606840Y584140D01*
X610000Y583820D01*
X613160Y584140D01*
X616200Y585060D01*
X618120Y586080D01*
X619340Y586500D01*
X620660Y586500D01*
X621880Y586080D01*
X623800Y585060D01*
X626840Y584140D01*
X630000Y583820D01*
X633160Y584140D01*
X636200Y585060D01*
X638980Y586540D01*
X641440Y588560D01*
X642080Y589320D01*
X643360Y590360D01*
X644960Y590780D01*
X646580Y590520D01*
X647680Y590120D01*
X650240Y589800D01*
X1805740Y589800D01*
X1807220Y589520D01*
X1808500Y588700D01*
X1809379Y587460D01*
X1809720Y585980D01*
X1809500Y584480D01*
X1809079Y583260D01*
X1808800Y580780D01*
X1808800Y519219D01*
X1809079Y516740D01*
X1809840Y514580D01*
X1811040Y512660D01*
X1812660Y511040D01*
X1814580Y509840D01*
X1816740Y509080D01*
X1819220Y508800D01*
X1880780Y508800D01*
X1883260Y509080D01*
X1885420Y509840D01*
X1887340Y511040D01*
X1888959Y512660D01*
X1890160Y514580D01*
X1890920Y516740D01*
X1891200Y519219D01*
X1891200Y580780D01*
X1890920Y583260D01*
X1890500Y584480D01*
X1890280Y585980D01*
X1890620Y587460D01*
X1891500Y588700D01*
X1892780Y589520D01*
X1894280Y589800D01*
X1922420Y589800D01*
X1923980Y589480D01*
X1925300Y588560D01*
X1926160Y587200D01*
X1926420Y585620D01*
X1926020Y584080D01*
X1925060Y582800D01*
X1920880Y579120D01*
X1917320Y575080D01*
X1914319Y570600D01*
X1911940Y565760D01*
X1910220Y560660D01*
X1909160Y555380D01*
X1908800Y550000D01*
X1909160Y544620D01*
X1910220Y539340D01*
X1911940Y534240D01*
X1914319Y529400D01*
X1917320Y524920D01*
X1920880Y520880D01*
X1924920Y517320D01*
X1929400Y514320D01*
X1932560Y512760D01*
X1933740Y511880D01*
X1934520Y510620D01*
X1934800Y509180D01*
X1934800Y252960D01*
X1934500Y251420D01*
X1933620Y250120D01*
X1874880Y191380D01*
X1873580Y190500D01*
X1872040Y190200D01*
X1070840Y190200D01*
X1069380Y190479D01*
X1068140Y191260D01*
X1067240Y192440D01*
X1065840Y197580D01*
X1064220Y201100D01*
X1062000Y204259D01*
X1059260Y207000D01*
X1056100Y209220D01*
X1052580Y210840D01*
X1047820Y212060D01*
X1043420Y213619D01*
X1041919Y214560D01*
X961380Y295120D01*
X960500Y296420D01*
X960200Y297960D01*
X960200Y419799D01*
X959880Y422960D01*
X959020Y425800D01*
X957620Y428440D01*
X955600Y430880D01*
X865879Y520600D01*
X863439Y522620D01*
X860800Y524020D01*
X857960Y524880D01*
X854800Y525200D01*
X755200Y525200D01*
X752039Y524880D01*
X749200Y524020D01*
X746560Y522620D01*
X744120Y520600D01*
X732760Y509260D01*
X731620Y508459D01*
X730280Y508100D01*
X704700Y505860D01*
X699340Y504780D01*
X694240Y503060D01*
X689400Y500680D01*
X684920Y497680D01*
X680879Y494120D01*
X677320Y490080D01*
X674320Y485600D01*
X671940Y480760D01*
X670220Y475660D01*
X669160Y470379D01*
X668800Y465000D01*
X669160Y459620D01*
X670220Y454340D01*
X671940Y449240D01*
X674320Y444400D01*
X677320Y439920D01*
X680879Y435880D01*
X684920Y432320D01*
X689400Y429320D01*
X694240Y426940D01*
X699340Y425220D01*
X704620Y424159D01*
X710000Y423800D01*
X715380Y424159D01*
X720660Y425220D01*
X725759Y426940D01*
X730600Y429320D01*
X735080Y432320D01*
X739120Y435880D01*
X742680Y439920D01*
X745680Y444400D01*
X748060Y449240D01*
X749780Y454340D01*
X750860Y459700D01*
X753100Y485280D01*
X753460Y486620D01*
X754260Y487760D01*
X760120Y493620D01*
X761420Y494500D01*
X762960Y494799D01*
X773000Y494799D01*
X774659Y494440D01*
X776040Y493400D01*
X776840Y491880D01*
X776940Y490180D01*
X776320Y488579D01*
X774320Y485600D01*
X771940Y480760D01*
X770220Y475660D01*
X769160Y470379D01*
X768800Y465000D01*
X769160Y459620D01*
X770220Y454340D01*
X771940Y449240D01*
X774320Y444400D01*
X777320Y439920D01*
X780879Y435880D01*
X784920Y432320D01*
X789400Y429320D01*
X794240Y426940D01*
X799340Y425220D01*
X804700Y424140D01*
X830280Y421900D01*
X831620Y421540D01*
X832760Y420740D01*
X883620Y369880D01*
X884500Y368579D01*
X884800Y367040D01*
X884800Y295200D01*
X885120Y292040D01*
X885980Y289200D01*
X887380Y286560D01*
X889400Y284120D01*
X1020440Y153080D01*
X1021380Y151580D01*
X1022940Y147180D01*
X1024160Y142420D01*
X1025780Y138900D01*
X1028000Y135740D01*
X1030740Y133000D01*
X1033900Y130780D01*
X1037420Y129160D01*
X1041140Y128160D01*
X1045000Y127820D01*
X1048860Y128160D01*
X1052580Y129160D01*
X1056100Y130780D01*
X1058260Y132240D01*
X1062820Y134420D01*
X1064540Y134800D01*
X1919800Y134800D01*
X1922960Y135120D01*
X1925800Y135980D01*
X1928440Y137380D01*
X1930880Y139400D01*
X2060600Y269120D01*
X2062620Y271560D01*
X2064019Y274200D01*
X2064880Y277040D01*
X2065200Y280200D01*
X2065200Y502620D01*
X2065440Y503980D01*
X2066140Y505200D01*
X2082640Y524860D01*
X2085680Y529400D01*
X2088060Y534240D01*
X2089780Y539340D01*
X2090840Y544620D01*
X2091200Y550000D01*
X2090840Y555380D01*
X2089780Y560660D01*
X2088060Y565760D01*
X2085680Y570600D01*
X2082680Y575080D01*
X2079120Y579120D01*
X2074940Y582800D01*
X2073980Y584080D01*
X2073580Y585620D01*
X2073839Y587200D01*
X2074700Y588560D01*
X2076020Y589480D01*
X2077580Y589800D01*
X2122420Y589800D01*
X2123980Y589480D01*
X2125300Y588560D01*
X2126160Y587200D01*
X2126420Y585620D01*
X2126020Y584080D01*
X2125060Y582800D01*
X2120880Y579120D01*
X2117320Y575080D01*
X2114320Y570600D01*
X2111940Y565760D01*
X2110220Y560660D01*
X2109160Y555380D01*
X2108800Y550000D01*
X2109160Y544620D01*
X2110220Y539340D01*
X2111940Y534240D01*
X2114320Y529400D01*
X2117320Y524920D01*
X2120660Y521079D01*
X2136200Y504660D01*
X2137020Y503400D01*
X2137300Y501920D01*
X2137300Y322960D01*
X2137000Y321420D01*
X2136120Y320120D01*
X1916100Y100100D01*
X1915340Y99500D01*
X1914199Y99019D01*
X1911560Y97620D01*
X1909720Y96100D01*
X1908540Y95440D01*
X1907180Y95200D01*
X1631579Y95200D01*
X1630220Y95440D01*
X1629040Y96100D01*
X1627200Y97620D01*
X1624560Y99019D01*
X1621720Y99880D01*
X1618560Y100200D01*
X1067600Y100200D01*
X1066160Y100460D01*
X1064920Y101220D01*
X1063120Y102840D01*
X1062000Y104260D01*
X1059260Y107000D01*
X1056100Y109220D01*
X1052580Y110840D01*
X1048860Y111840D01*
X1045000Y112180D01*
X1041140Y111840D01*
X1037420Y110840D01*
X1033900Y109220D01*
X1031740Y107760D01*
X1027180Y105580D01*
X1025460Y105200D01*
X1007960Y105200D01*
X1006420Y105500D01*
X1005120Y106380D01*
X825879Y285600D01*
X823439Y287620D01*
X820800Y289020D01*
X817960Y289880D01*
X814800Y290200D01*
X807960Y290200D01*
X806420Y290500D01*
X805120Y291380D01*
X754260Y342239D01*
X753460Y343380D01*
X753100Y344720D01*
X750860Y370300D01*
X749780Y375660D01*
X748060Y380760D01*
X745680Y385600D01*
X742680Y390080D01*
X739120Y394120D01*
X735080Y397680D01*
X730600Y400680D01*
X725759Y403060D01*
X720660Y404780D01*
X715380Y405840D01*
X710000Y406200D01*
X704620Y405840D01*
X699340Y404780D01*
X694240Y403060D01*
X689400Y400680D01*
X684920Y397680D01*
X681840Y394980D01*
X680520Y394200D01*
X679020Y393980D01*
X677540Y394340D01*
X676320Y395220D01*
X675480Y396480D01*
X675200Y397980D01*
X675200Y414799D01*
X674880Y417960D01*
X674020Y420800D01*
X672620Y423440D01*
X670600Y425880D01*
X654260Y442239D01*
X653460Y443380D01*
X653100Y444720D01*
X650860Y470300D01*
X649780Y475660D01*
X648060Y480760D01*
X645680Y485600D01*
X642680Y490080D01*
X639120Y494120D01*
X635080Y497680D01*
X630600Y500680D01*
X625760Y503060D01*
X620660Y504780D01*
X615380Y505840D01*
X610000Y506200D01*
X604620Y505840D01*
X599340Y504780D01*
X594240Y503060D01*
X589400Y500680D01*
X584920Y497680D01*
X580880Y494120D01*
X577320Y490080D01*
X574320Y485600D01*
X571940Y480760D01*
X570220Y475660D01*
X569160Y470379D01*
X568800Y465000D01*
X569160Y459620D01*
X570220Y454340D01*
X571940Y449240D01*
X574320Y444400D01*
X577320Y439920D01*
X580880Y435880D01*
X584920Y432320D01*
X589400Y429320D01*
X594240Y426940D01*
X599340Y425220D01*
X604700Y424140D01*
X630280Y421900D01*
X631620Y421540D01*
X632760Y420740D01*
X640480Y413020D01*
X641340Y411740D01*
X641640Y410200D01*
X641340Y408660D01*
X640480Y407380D01*
X639180Y406500D01*
X637640Y406200D01*
X628000Y406200D01*
X628000Y383000D01*
X640800Y383000D01*
X642340Y382700D01*
X643620Y381820D01*
X644500Y380540D01*
X644800Y379000D01*
X644800Y351000D01*
X644500Y349460D01*
X643620Y348180D01*
X642340Y347299D01*
X640800Y347000D01*
X628000Y347000D01*
X628000Y323800D01*
X640819Y323800D01*
X642260Y323540D01*
X643500Y322760D01*
X644400Y321599D01*
X644800Y320200D01*
X645120Y317040D01*
X645980Y314200D01*
X647380Y311560D01*
X649400Y309120D01*
X684120Y274400D01*
X686560Y272380D01*
X689200Y270980D01*
X692039Y270120D01*
X695200Y269800D01*
X722039Y269800D01*
X723580Y269500D01*
X724880Y268620D01*
X750440Y243080D01*
X751500Y241220D01*
X751720Y239740D01*
X751400Y238280D01*
X750560Y237060D01*
X704400Y190880D01*
X702380Y188440D01*
X700980Y185799D01*
X700120Y182960D01*
X699800Y179800D01*
X699800Y65199D01*
X700120Y62040D01*
X700980Y59200D01*
X702380Y56560D01*
X704400Y54120D01*
X749120Y9400D01*
X751560Y7380D01*
X754200Y5980D01*
X757039Y5120D01*
X760200Y4800D01*
X1357280Y4800D01*
X1358820Y4500D01*
X1360120Y3620D01*
X1360740Y3000D01*
X1363899Y780D01*
X1367420Y-840D01*
X1371140Y-1840D01*
X1375000Y-2180D01*
X1378860Y-1840D01*
X1382580Y-840D01*
X1386100Y780D01*
X1389259Y3000D01*
X1389880Y3620D01*
X1391180Y4500D01*
X1392720Y4800D01*
X1827040Y4800D01*
X1828580Y4500D01*
X1829880Y3620D01*
X1833620Y-120D01*
X1834500Y-1419D01*
X1834800Y-2960D01*
X1834800Y-109179D01*
X1834520Y-110620D01*
X1833740Y-111880D01*
X1832560Y-112760D01*
X1829400Y-114320D01*
X1824920Y-117320D01*
X1820880Y-120879D01*
X1817320Y-124920D01*
X1814319Y-129400D01*
X1811940Y-134240D01*
X1810220Y-139340D01*
X1809160Y-144620D01*
X1808800Y-150000D01*
X1809160Y-155380D01*
X1810220Y-160660D01*
X1811940Y-165760D01*
X1814319Y-170600D01*
X1817320Y-175080D01*
X1820880Y-179120D01*
X1825060Y-182800D01*
X1826020Y-184080D01*
X1826420Y-185620D01*
X1826160Y-187200D01*
X1825300Y-188560D01*
X1823980Y-189480D01*
X1822420Y-189800D01*
X650240Y-189800D01*
X647680Y-190120D01*
X646580Y-190520D01*
G37*

%LPC*%
G36*
X60800Y-64120D02*
G01*
X68020Y-64120D01*
X68020Y-41660D01*
X25000Y-41660D01*
X26280Y-44240D01*
X29160Y-48560D01*
X32580Y-52480D01*
X36500Y-55900D01*
X40820Y-58780D01*
X45480Y-61080D01*
X50400Y-62760D01*
X55480Y-63760D01*
G37*
G36*
X151760Y-64120D02*
G01*
X158960Y-64120D01*
X164280Y-63760D01*
X169380Y-62760D01*
X174300Y-61080D01*
X178960Y-58780D01*
X183280Y-55900D01*
X187180Y-52480D01*
X190600Y-48560D01*
X193500Y-44240D01*
X194780Y-41660D01*
X151760Y-41660D01*
G37*
G36*
X151760Y-7120D02*
G01*
X194780Y-7120D01*
X193500Y-4520D01*
X190600Y-200D01*
X187180Y3700D01*
X183280Y7120D01*
X178960Y10000D01*
X174300Y12300D01*
X169380Y13980D01*
X164280Y15000D01*
X158960Y15340D01*
X151760Y15340D01*
G37*
G36*
X25000Y-7120D02*
G01*
X68020Y-7120D01*
X68020Y15340D01*
X60800Y15340D01*
X55480Y15000D01*
X50400Y13980D01*
X45480Y12300D01*
X40820Y10000D01*
X36500Y7120D01*
X32580Y3700D01*
X29160Y-200D01*
X26280Y-4520D01*
G37*
G36*
X109900Y77620D02*
G01*
X114700Y77960D01*
X119420Y78980D01*
X123940Y80680D01*
X128180Y82980D01*
X132040Y85879D01*
X135440Y89280D01*
X138340Y93140D01*
X140640Y97380D01*
X142340Y101900D01*
X143360Y106620D01*
X143700Y111420D01*
X143360Y116240D01*
X142340Y120960D01*
X140640Y125480D01*
X138340Y129700D01*
X135440Y133580D01*
X132040Y136980D01*
X128180Y139880D01*
X123940Y142180D01*
X119420Y143880D01*
X114700Y144900D01*
X109900Y145240D01*
X105079Y144900D01*
X100360Y143880D01*
X95840Y142180D01*
X91620Y139880D01*
X87739Y136980D01*
X84340Y133580D01*
X81440Y129700D01*
X79140Y125480D01*
X77440Y120960D01*
X76420Y116240D01*
X76080Y111420D01*
X76420Y106620D01*
X77440Y101900D01*
X79140Y97380D01*
X81440Y93140D01*
X84340Y89280D01*
X87739Y85879D01*
X91620Y82980D01*
X95840Y80680D01*
X100360Y78980D01*
X105079Y77960D01*
G37*
G36*
X109900Y254780D02*
G01*
X114700Y255140D01*
X119420Y256160D01*
X123940Y257840D01*
X128180Y260159D01*
X132040Y263040D01*
X135440Y266460D01*
X138340Y270320D01*
X140640Y274560D01*
X142340Y279080D01*
X143360Y283780D01*
X143700Y288600D01*
X143360Y293420D01*
X142340Y298120D01*
X140640Y302640D01*
X138340Y306880D01*
X135440Y310740D01*
X132040Y314160D01*
X128180Y317040D01*
X123940Y319360D01*
X119420Y321040D01*
X114700Y322060D01*
X109900Y322420D01*
X105079Y322060D01*
X100360Y321040D01*
X95840Y319360D01*
X91620Y317040D01*
X87739Y314160D01*
X84340Y310740D01*
X81440Y306880D01*
X79140Y302640D01*
X77440Y298120D01*
X76420Y293420D01*
X76080Y288600D01*
X76420Y283780D01*
X77440Y279080D01*
X79140Y274560D01*
X81440Y270320D01*
X84340Y266460D01*
X87739Y263040D01*
X91620Y260159D01*
X95840Y257840D01*
X100360Y256160D01*
X105079Y255140D01*
G37*
G36*
X579220Y323800D02*
G01*
X592000Y323800D01*
X592000Y347000D01*
X568800Y347000D01*
X568800Y334219D01*
X569080Y331740D01*
X569840Y329580D01*
X571040Y327660D01*
X572660Y326040D01*
X574580Y324840D01*
X576740Y324080D01*
G37*
G36*
X810000Y323800D02*
G01*
X815380Y324159D01*
X820660Y325220D01*
X825759Y326940D01*
X830600Y329320D01*
X835080Y332320D01*
X839120Y335880D01*
X842680Y339920D01*
X845680Y344400D01*
X848060Y349240D01*
X849780Y354340D01*
X850840Y359620D01*
X851200Y365000D01*
X850840Y370379D01*
X849780Y375660D01*
X848060Y380760D01*
X845680Y385600D01*
X842680Y390080D01*
X839120Y394120D01*
X835080Y397680D01*
X830600Y400680D01*
X825759Y403060D01*
X820660Y404780D01*
X815380Y405840D01*
X810000Y406200D01*
X804620Y405840D01*
X799340Y404780D01*
X794240Y403060D01*
X789400Y400680D01*
X784920Y397680D01*
X780879Y394120D01*
X777320Y390080D01*
X774320Y385600D01*
X771940Y380760D01*
X770220Y375660D01*
X769160Y370379D01*
X768800Y365000D01*
X769160Y359620D01*
X770220Y354340D01*
X771940Y349240D01*
X774320Y344400D01*
X777320Y339920D01*
X780879Y335880D01*
X784920Y332320D01*
X789400Y329320D01*
X794240Y326940D01*
X799340Y325220D01*
X804620Y324159D01*
G37*
G36*
X568800Y383000D02*
G01*
X592000Y383000D01*
X592000Y406200D01*
X579220Y406200D01*
X576740Y405920D01*
X574580Y405160D01*
X572660Y403960D01*
X571040Y402340D01*
X569840Y400420D01*
X569080Y398260D01*
X568800Y395780D01*
G37*
G36*
X60800Y384700D02*
G01*
X68020Y384700D01*
X68020Y407160D01*
X25000Y407160D01*
X26280Y404560D01*
X29160Y400240D01*
X32580Y396340D01*
X36500Y392920D01*
X40820Y390040D01*
X45480Y387740D01*
X50400Y386060D01*
X55480Y385040D01*
G37*
G36*
X151760Y384700D02*
G01*
X158960Y384700D01*
X164280Y385040D01*
X169380Y386060D01*
X174300Y387740D01*
X178960Y390040D01*
X183280Y392920D01*
X187180Y396340D01*
X190600Y400240D01*
X193500Y404560D01*
X194780Y407160D01*
X151760Y407160D01*
G37*
G36*
X151760Y441700D02*
G01*
X194780Y441700D01*
X193500Y444280D01*
X190600Y448600D01*
X187180Y452520D01*
X183280Y455940D01*
X178960Y458820D01*
X174300Y461120D01*
X169380Y462800D01*
X164280Y463800D01*
X158960Y464159D01*
X151760Y464159D01*
G37*
G36*
X25000Y441700D02*
G01*
X68020Y441700D01*
X68020Y464159D01*
X60800Y464159D01*
X55480Y463800D01*
X50400Y462800D01*
X45480Y461120D01*
X40820Y458820D01*
X36500Y455940D01*
X32580Y452520D01*
X29160Y448600D01*
X26280Y444280D01*
G37*

%LPD*%
G36*
X1999319Y-1086500D02*
G01*
X1998100Y-1086080D01*
X1996180Y-1085060D01*
X1993140Y-1084140D01*
X1989980Y-1083820D01*
X1986819Y-1084140D01*
X1983760Y-1085060D01*
X1982060Y-1085200D01*
X1980460Y-1084600D01*
X1979240Y-1083400D01*
X1978640Y-1081800D01*
X1978760Y-1080100D01*
X1979600Y-1078600D01*
X1982680Y-1075080D01*
X1985680Y-1070600D01*
X1988060Y-1065760D01*
X1989780Y-1060660D01*
X1990840Y-1055380D01*
X1991200Y-1050000D01*
X1990840Y-1044620D01*
X1989780Y-1039340D01*
X1988060Y-1034240D01*
X1985680Y-1029400D01*
X1982680Y-1024920D01*
X1979120Y-1020879D01*
X1975080Y-1017320D01*
X1970600Y-1014320D01*
X1965760Y-1011940D01*
X1960660Y-1010220D01*
X1955380Y-1009160D01*
X1950000Y-1008800D01*
X1945660Y-1009020D01*
X1924240Y-1010740D01*
X1922540Y-1010520D01*
X1921080Y-1009599D01*
X1743520Y-832020D01*
X1742660Y-830740D01*
X1742360Y-829200D01*
X1742660Y-827660D01*
X1743520Y-826380D01*
X1744820Y-825500D01*
X1746360Y-825200D01*
X1802040Y-825200D01*
X1803580Y-825500D01*
X1804880Y-826380D01*
X2005740Y-1027240D01*
X2006540Y-1028379D01*
X2006900Y-1029720D01*
X2009139Y-1055300D01*
X2010220Y-1060660D01*
X2011940Y-1065760D01*
X2014319Y-1070600D01*
X2017320Y-1075080D01*
X2020420Y-1078620D01*
X2021240Y-1080100D01*
X2021380Y-1081820D01*
X2020780Y-1083420D01*
X2019560Y-1084620D01*
X2017960Y-1085220D01*
X2016260Y-1085080D01*
X2013140Y-1084140D01*
X2009980Y-1083820D01*
X2006819Y-1084140D01*
X2003779Y-1085060D01*
X2001860Y-1086080D01*
X2000640Y-1086500D01*
G37*

%LPD*%
G36*
X2077460Y-1089900D02*
G01*
X2075880Y-1089580D01*
X2074560Y-1088660D01*
X2073720Y-1087300D01*
X2073460Y-1085720D01*
X2073860Y-1084160D01*
X2074820Y-1082880D01*
X2079120Y-1079120D01*
X2082680Y-1075080D01*
X2085680Y-1070600D01*
X2088060Y-1065760D01*
X2089780Y-1060660D01*
X2090840Y-1055380D01*
X2091200Y-1050000D01*
X2090840Y-1044620D01*
X2089780Y-1039340D01*
X2088060Y-1034240D01*
X2085680Y-1029400D01*
X2082680Y-1024920D01*
X2079120Y-1020879D01*
X2075080Y-1017320D01*
X2070600Y-1014320D01*
X2065760Y-1011940D01*
X2060660Y-1010220D01*
X2055300Y-1009140D01*
X2029720Y-1006900D01*
X2028380Y-1006540D01*
X2027240Y-1005740D01*
X1820880Y-799400D01*
X1818440Y-797380D01*
X1815800Y-795980D01*
X1812960Y-795120D01*
X1809800Y-794800D01*
X987960Y-794800D01*
X986420Y-794500D01*
X985120Y-793620D01*
X943880Y-752380D01*
X943000Y-751080D01*
X942700Y-749539D01*
X942700Y-724539D01*
X943080Y-722820D01*
X945260Y-718259D01*
X946720Y-716100D01*
X948340Y-712580D01*
X949340Y-708860D01*
X949680Y-705000D01*
X949320Y-700800D01*
X949500Y-699200D01*
X950320Y-697800D01*
X951620Y-696840D01*
X953180Y-696460D01*
X954780Y-696740D01*
X956140Y-697620D01*
X1024120Y-765600D01*
X1026560Y-767620D01*
X1029200Y-769020D01*
X1032020Y-769880D01*
X1035800Y-770220D01*
X1037180Y-770580D01*
X1041740Y-772760D01*
X1043900Y-774220D01*
X1047420Y-775840D01*
X1051140Y-776840D01*
X1055000Y-777180D01*
X1058860Y-776840D01*
X1062580Y-775840D01*
X1066100Y-774220D01*
X1069260Y-772000D01*
X1072000Y-769260D01*
X1073120Y-767840D01*
X1074920Y-766220D01*
X1076160Y-765460D01*
X1077600Y-765200D01*
X1959800Y-765200D01*
X1962960Y-764880D01*
X1965800Y-764020D01*
X1968440Y-762620D01*
X1970880Y-760600D01*
X2160600Y-570880D01*
X2162620Y-568440D01*
X2164020Y-565800D01*
X2164880Y-562960D01*
X2165200Y-559800D01*
X2165200Y-397380D01*
X2165440Y-396019D01*
X2166140Y-394799D01*
X2182640Y-375140D01*
X2185680Y-370600D01*
X2188060Y-365760D01*
X2189780Y-360660D01*
X2190840Y-355379D01*
X2191200Y-350000D01*
X2190840Y-344620D01*
X2189780Y-339340D01*
X2188060Y-334240D01*
X2185680Y-329400D01*
X2182680Y-324920D01*
X2179120Y-320880D01*
X2174940Y-317200D01*
X2173980Y-315920D01*
X2173580Y-314380D01*
X2173840Y-312800D01*
X2174700Y-311440D01*
X2176020Y-310520D01*
X2177580Y-310200D01*
X2394120Y-310200D01*
X2395640Y-310500D01*
X2396940Y-311380D01*
X2588620Y-503060D01*
X2589500Y-504360D01*
X2589800Y-505880D01*
X2589800Y-894120D01*
X2589500Y-895660D01*
X2588620Y-896940D01*
X2396940Y-1088720D01*
X2395640Y-1089600D01*
X2394120Y-1089900D01*
X2194240Y-1089900D01*
X2192740Y-1089620D01*
X2191480Y-1088800D01*
X2190600Y-1087560D01*
X2190240Y-1086080D01*
X2190460Y-1084580D01*
X2190920Y-1083260D01*
X2191200Y-1080780D01*
X2191200Y-1068000D01*
X2168000Y-1068000D01*
X2168000Y-1085900D01*
X2167700Y-1087440D01*
X2166820Y-1088720D01*
X2165540Y-1089600D01*
X2164000Y-1089900D01*
X2136000Y-1089900D01*
X2134460Y-1089600D01*
X2133180Y-1088720D01*
X2132300Y-1087440D01*
X2132000Y-1085900D01*
X2132000Y-1068000D01*
X2108800Y-1068000D01*
X2108800Y-1080780D01*
X2109080Y-1083260D01*
X2109540Y-1084580D01*
X2109760Y-1086080D01*
X2109400Y-1087560D01*
X2108520Y-1088800D01*
X2107260Y-1089620D01*
X2105760Y-1089900D01*
G37*

%LPC*%
G36*
X2168000Y-1032000D02*
G01*
X2191200Y-1032000D01*
X2191200Y-1019220D01*
X2190920Y-1016740D01*
X2190160Y-1014580D01*
X2188960Y-1012660D01*
X2187340Y-1011040D01*
X2185420Y-1009840D01*
X2183260Y-1009080D01*
X2180780Y-1008800D01*
X2168000Y-1008800D01*
G37*
G36*
X2108800Y-1032000D02*
G01*
X2132000Y-1032000D01*
X2132000Y-1008800D01*
X2119220Y-1008800D01*
X2116740Y-1009080D01*
X2114580Y-1009840D01*
X2112660Y-1011040D01*
X2111040Y-1012660D01*
X2109840Y-1014580D01*
X2109080Y-1016740D01*
X2108800Y-1019220D01*
G37*
G36*
X2090000Y-877180D02*
G01*
X2093860Y-876840D01*
X2097580Y-875840D01*
X2101100Y-874220D01*
X2102220Y-873420D01*
X2103320Y-872880D01*
X2104520Y-872700D01*
X2340480Y-872700D01*
X2341680Y-872880D01*
X2342780Y-873420D01*
X2343900Y-874220D01*
X2347420Y-875840D01*
X2351140Y-876840D01*
X2355000Y-877180D01*
X2358860Y-876840D01*
X2362580Y-875840D01*
X2366100Y-874220D01*
X2369260Y-872000D01*
X2372000Y-869260D01*
X2374220Y-866100D01*
X2375840Y-862580D01*
X2376840Y-858860D01*
X2377180Y-855000D01*
X2376840Y-851140D01*
X2375840Y-847420D01*
X2374220Y-843900D01*
X2372000Y-840740D01*
X2369260Y-838000D01*
X2366100Y-835780D01*
X2362580Y-834160D01*
X2358860Y-833160D01*
X2355000Y-832820D01*
X2351140Y-833160D01*
X2347420Y-834160D01*
X2343900Y-835780D01*
X2342780Y-836580D01*
X2341680Y-837120D01*
X2340480Y-837300D01*
X2104520Y-837300D01*
X2103320Y-837120D01*
X2102220Y-836580D01*
X2101100Y-835780D01*
X2097580Y-834160D01*
X2093860Y-833160D01*
X2090000Y-832820D01*
X2086140Y-833160D01*
X2082420Y-834160D01*
X2078899Y-835780D01*
X2075740Y-838000D01*
X2073000Y-840740D01*
X2070780Y-843900D01*
X2069160Y-847420D01*
X2068160Y-851140D01*
X2067820Y-855000D01*
X2068160Y-858860D01*
X2069160Y-862580D01*
X2070780Y-866100D01*
X2073000Y-869260D01*
X2075740Y-872000D01*
X2078899Y-874220D01*
X2082420Y-875840D01*
X2086140Y-876840D01*
G37*

%LPD*%
G36*
X644960Y-1090780D02*
G01*
X643360Y-1090360D01*
X642080Y-1089320D01*
X641440Y-1088560D01*
X638980Y-1086540D01*
X636200Y-1085060D01*
X633160Y-1084140D01*
X630000Y-1083820D01*
X626840Y-1084140D01*
X623800Y-1085060D01*
X621880Y-1086080D01*
X620660Y-1086500D01*
X619340Y-1086500D01*
X618120Y-1086080D01*
X616200Y-1085060D01*
X613160Y-1084140D01*
X610000Y-1083820D01*
X606840Y-1084140D01*
X603800Y-1085060D01*
X601880Y-1086080D01*
X600660Y-1086500D01*
X599340Y-1086500D01*
X598120Y-1086080D01*
X596200Y-1085060D01*
X593160Y-1084140D01*
X590000Y-1083820D01*
X586840Y-1084140D01*
X583800Y-1085060D01*
X581880Y-1086080D01*
X580660Y-1086500D01*
X579340Y-1086500D01*
X578120Y-1086080D01*
X576200Y-1085060D01*
X573160Y-1084140D01*
X570000Y-1083820D01*
X566840Y-1084140D01*
X563800Y-1085060D01*
X561020Y-1086540D01*
X558560Y-1088560D01*
X557940Y-1089300D01*
X556580Y-1090380D01*
X554900Y-1090760D01*
X552880Y-1090260D01*
X549940Y-1089800D01*
X205880Y-1089800D01*
X204360Y-1089500D01*
X203060Y-1088620D01*
X11379Y-896940D01*
X10500Y-895639D01*
X10200Y-894120D01*
X10200Y-505880D01*
X10500Y-504360D01*
X11379Y-503060D01*
X203060Y-311360D01*
X204360Y-310500D01*
X205880Y-310200D01*
X549760Y-310040D01*
X552320Y-309720D01*
X553320Y-309340D01*
X554940Y-309080D01*
X556540Y-309520D01*
X557820Y-310540D01*
X558560Y-311440D01*
X561020Y-313460D01*
X563800Y-314940D01*
X566840Y-315860D01*
X570000Y-316180D01*
X573160Y-315860D01*
X576200Y-314940D01*
X578120Y-313920D01*
X579340Y-313500D01*
X580660Y-313500D01*
X581880Y-313920D01*
X583800Y-314940D01*
X586840Y-315860D01*
X590000Y-316180D01*
X593160Y-315860D01*
X596200Y-314940D01*
X598120Y-313920D01*
X599340Y-313500D01*
X600660Y-313500D01*
X601880Y-313920D01*
X603800Y-314940D01*
X606840Y-315860D01*
X610000Y-316180D01*
X613160Y-315860D01*
X616200Y-314940D01*
X618120Y-313920D01*
X619340Y-313500D01*
X620660Y-313500D01*
X621880Y-313920D01*
X623800Y-314940D01*
X626840Y-315860D01*
X630000Y-316180D01*
X633160Y-315860D01*
X636200Y-314940D01*
X638980Y-313460D01*
X641440Y-311440D01*
X642080Y-310680D01*
X643360Y-309640D01*
X644960Y-309220D01*
X646580Y-309480D01*
X647680Y-309880D01*
X650240Y-310200D01*
X1805740Y-310200D01*
X1807220Y-310480D01*
X1808500Y-311300D01*
X1809379Y-312540D01*
X1809720Y-314020D01*
X1809500Y-315520D01*
X1809079Y-316740D01*
X1808800Y-319220D01*
X1808800Y-380780D01*
X1809079Y-383260D01*
X1809840Y-385420D01*
X1811040Y-387340D01*
X1812660Y-388960D01*
X1814580Y-390160D01*
X1816740Y-390920D01*
X1819220Y-391200D01*
X1880780Y-391200D01*
X1883260Y-390920D01*
X1885420Y-390160D01*
X1887340Y-388960D01*
X1888959Y-387340D01*
X1890160Y-385420D01*
X1890920Y-383260D01*
X1891200Y-380780D01*
X1891200Y-319220D01*
X1890920Y-316740D01*
X1890500Y-315520D01*
X1890280Y-314020D01*
X1890620Y-312540D01*
X1891500Y-311300D01*
X1892780Y-310480D01*
X1894280Y-310200D01*
X1922420Y-310200D01*
X1923980Y-310520D01*
X1925300Y-311440D01*
X1926160Y-312800D01*
X1926420Y-314380D01*
X1926020Y-315920D01*
X1925060Y-317200D01*
X1920880Y-320880D01*
X1917320Y-324920D01*
X1914319Y-329400D01*
X1911940Y-334240D01*
X1910220Y-339340D01*
X1909160Y-344620D01*
X1908800Y-350000D01*
X1909160Y-355379D01*
X1910220Y-360660D01*
X1911940Y-365760D01*
X1914319Y-370600D01*
X1917320Y-375080D01*
X1920880Y-379120D01*
X1924920Y-382680D01*
X1929400Y-385680D01*
X1932560Y-387239D01*
X1933740Y-388120D01*
X1934520Y-389380D01*
X1934800Y-390820D01*
X1934800Y-542040D01*
X1934500Y-543580D01*
X1933620Y-544880D01*
X1839880Y-638620D01*
X1838580Y-639500D01*
X1837040Y-639800D01*
X1072720Y-639800D01*
X1071180Y-639500D01*
X1069880Y-638620D01*
X1069260Y-638000D01*
X1066100Y-635780D01*
X1062580Y-634160D01*
X1057820Y-632940D01*
X1053420Y-631380D01*
X1051920Y-630440D01*
X850879Y-429400D01*
X848439Y-427380D01*
X845800Y-425980D01*
X842960Y-425120D01*
X839800Y-424799D01*
X615620Y-424799D01*
X614100Y-424500D01*
X612800Y-423620D01*
X523560Y-334400D01*
X521100Y-332380D01*
X518480Y-330980D01*
X515640Y-330120D01*
X512480Y-329799D01*
X425200Y-329799D01*
X422040Y-330120D01*
X419200Y-330980D01*
X416560Y-332380D01*
X414120Y-334400D01*
X402760Y-345740D01*
X401620Y-346540D01*
X400280Y-346900D01*
X374700Y-349140D01*
X369340Y-350220D01*
X364240Y-351940D01*
X359400Y-354320D01*
X354920Y-357320D01*
X350880Y-360880D01*
X347320Y-364920D01*
X344320Y-369400D01*
X341940Y-374240D01*
X340220Y-379340D01*
X339159Y-384620D01*
X338800Y-390000D01*
X339159Y-395379D01*
X340220Y-400660D01*
X341940Y-405760D01*
X344320Y-410600D01*
X347320Y-415080D01*
X350880Y-419120D01*
X354920Y-422680D01*
X359400Y-425680D01*
X364240Y-428060D01*
X369340Y-429780D01*
X374620Y-430840D01*
X380000Y-431200D01*
X385379Y-430840D01*
X390660Y-429780D01*
X395760Y-428060D01*
X400600Y-425680D01*
X405080Y-422680D01*
X409120Y-419120D01*
X412680Y-415080D01*
X415680Y-410600D01*
X418060Y-405760D01*
X419780Y-400660D01*
X420860Y-395300D01*
X423100Y-369720D01*
X423459Y-368380D01*
X424260Y-367239D01*
X430120Y-361380D01*
X431420Y-360500D01*
X432960Y-360200D01*
X443000Y-360200D01*
X444660Y-360560D01*
X446040Y-361599D01*
X446840Y-363120D01*
X446940Y-364820D01*
X446320Y-366420D01*
X444320Y-369400D01*
X441940Y-374240D01*
X440220Y-379340D01*
X439159Y-384620D01*
X438800Y-390000D01*
X439159Y-395379D01*
X440220Y-400660D01*
X441940Y-405760D01*
X444320Y-410600D01*
X447320Y-415080D01*
X450880Y-419120D01*
X454920Y-422680D01*
X459400Y-425680D01*
X464240Y-428060D01*
X469340Y-429780D01*
X474700Y-430860D01*
X500280Y-433100D01*
X501620Y-433459D01*
X502760Y-434260D01*
X544120Y-475600D01*
X546560Y-477620D01*
X549200Y-479020D01*
X552040Y-479880D01*
X555200Y-480200D01*
X802039Y-480200D01*
X803580Y-480500D01*
X804880Y-481380D01*
X1030180Y-706680D01*
X1030720Y-707340D01*
X1034180Y-712740D01*
X1035780Y-716100D01*
X1038000Y-719260D01*
X1040740Y-722000D01*
X1043900Y-724220D01*
X1047420Y-725840D01*
X1048500Y-726140D01*
X1050020Y-726940D01*
X1051080Y-728300D01*
X1051460Y-730000D01*
X1051080Y-731700D01*
X1050020Y-733060D01*
X1048500Y-733860D01*
X1047420Y-734160D01*
X1043900Y-735780D01*
X1042760Y-736600D01*
X1041500Y-737180D01*
X1040120Y-737300D01*
X1038780Y-736940D01*
X1037640Y-736140D01*
X860879Y-559400D01*
X858439Y-557380D01*
X855800Y-555980D01*
X852960Y-555120D01*
X849800Y-554800D01*
X467960Y-554800D01*
X466420Y-554500D01*
X465120Y-553620D01*
X424260Y-512760D01*
X423459Y-511620D01*
X423100Y-510280D01*
X420860Y-484700D01*
X419780Y-479340D01*
X418060Y-474240D01*
X415680Y-469400D01*
X412680Y-464920D01*
X409120Y-460880D01*
X405080Y-457320D01*
X400600Y-454320D01*
X395760Y-451940D01*
X390660Y-450220D01*
X385379Y-449159D01*
X380000Y-448800D01*
X374620Y-449159D01*
X369340Y-450220D01*
X364240Y-451940D01*
X359400Y-454320D01*
X354920Y-457320D01*
X351840Y-460020D01*
X350520Y-460800D01*
X349020Y-461019D01*
X347540Y-460660D01*
X346320Y-459780D01*
X345480Y-458519D01*
X345200Y-457020D01*
X345200Y-440200D01*
X344880Y-437040D01*
X344020Y-434200D01*
X342620Y-431560D01*
X340600Y-429120D01*
X324260Y-412760D01*
X323459Y-411620D01*
X323100Y-410280D01*
X320860Y-384700D01*
X319780Y-379340D01*
X318060Y-374240D01*
X315680Y-369400D01*
X312680Y-364920D01*
X309120Y-360880D01*
X305080Y-357320D01*
X300600Y-354320D01*
X295760Y-351940D01*
X290660Y-350220D01*
X285380Y-349159D01*
X280000Y-348800D01*
X274620Y-349159D01*
X269340Y-350220D01*
X264240Y-351940D01*
X259400Y-354320D01*
X254920Y-357320D01*
X250880Y-360880D01*
X247320Y-364920D01*
X244320Y-369400D01*
X241940Y-374240D01*
X240219Y-379340D01*
X239160Y-384620D01*
X238800Y-390000D01*
X239160Y-395379D01*
X240219Y-400660D01*
X241940Y-405760D01*
X244320Y-410600D01*
X247320Y-415080D01*
X250880Y-419120D01*
X254920Y-422680D01*
X259400Y-425680D01*
X264240Y-428060D01*
X269340Y-429780D01*
X274700Y-430860D01*
X300280Y-433100D01*
X301620Y-433459D01*
X302760Y-434260D01*
X310480Y-441980D01*
X311340Y-443260D01*
X311640Y-444799D01*
X311340Y-446340D01*
X310480Y-447620D01*
X309180Y-448500D01*
X307640Y-448800D01*
X298000Y-448800D01*
X298000Y-472000D01*
X310800Y-472000D01*
X312340Y-472299D01*
X313620Y-473180D01*
X314500Y-474460D01*
X314800Y-476000D01*
X314800Y-504000D01*
X314500Y-505540D01*
X313620Y-506820D01*
X312340Y-507700D01*
X310800Y-508000D01*
X298000Y-508000D01*
X298000Y-531200D01*
X310780Y-531200D01*
X313260Y-530920D01*
X315400Y-530180D01*
X317760Y-528680D01*
X319000Y-528160D01*
X320340Y-528080D01*
X321640Y-528440D01*
X322720Y-529220D01*
X474120Y-680600D01*
X476560Y-682620D01*
X479200Y-684020D01*
X482040Y-684880D01*
X485200Y-685200D01*
X685800Y-685200D01*
X687340Y-685500D01*
X688620Y-686380D01*
X689500Y-687660D01*
X689800Y-689200D01*
X689800Y-749800D01*
X690120Y-752960D01*
X690980Y-755800D01*
X692380Y-758439D01*
X694400Y-760879D01*
X799120Y-865600D01*
X801560Y-867620D01*
X804200Y-869020D01*
X807039Y-869880D01*
X810200Y-870200D01*
X1340460Y-870200D01*
X1342180Y-870580D01*
X1346740Y-872760D01*
X1348899Y-874220D01*
X1352420Y-875840D01*
X1356140Y-876840D01*
X1360000Y-877180D01*
X1363860Y-876840D01*
X1367580Y-875840D01*
X1371100Y-874220D01*
X1373260Y-872760D01*
X1377820Y-870580D01*
X1379540Y-870200D01*
X1647040Y-870200D01*
X1648580Y-870500D01*
X1649880Y-871380D01*
X1805740Y-1027240D01*
X1806540Y-1028379D01*
X1806900Y-1029720D01*
X1809139Y-1055300D01*
X1810220Y-1060660D01*
X1811940Y-1065760D01*
X1814319Y-1070600D01*
X1817320Y-1075080D01*
X1820880Y-1079120D01*
X1825060Y-1082800D01*
X1826020Y-1084080D01*
X1826420Y-1085620D01*
X1826160Y-1087200D01*
X1825300Y-1088560D01*
X1823980Y-1089480D01*
X1822420Y-1089800D01*
X650240Y-1089800D01*
X647680Y-1090120D01*
X646580Y-1090520D01*
G37*

%LPC*%
G36*
X117579Y-861060D02*
G01*
X120100Y-860520D01*
X124360Y-858920D01*
X128360Y-856740D01*
X131980Y-854020D01*
X135200Y-850819D01*
X137920Y-847180D01*
X140040Y-843280D01*
X117579Y-843280D01*
G37*
G36*
X77140Y-861060D02*
G01*
X77140Y-843280D01*
X54660Y-843280D01*
X56780Y-847180D01*
X59520Y-850819D01*
X62720Y-854020D01*
X66360Y-856740D01*
X70340Y-858920D01*
X74600Y-860520D01*
G37*
G36*
X54660Y-816640D02*
G01*
X77140Y-816640D01*
X77140Y-798860D01*
X74600Y-799400D01*
X70340Y-801000D01*
X66360Y-803180D01*
X62720Y-805900D01*
X59520Y-809100D01*
X56780Y-812740D01*
G37*
G36*
X117579Y-816640D02*
G01*
X140040Y-816640D01*
X137920Y-812740D01*
X135200Y-809100D01*
X131980Y-805900D01*
X128360Y-803180D01*
X124360Y-801000D01*
X120100Y-799400D01*
X117579Y-798860D01*
G37*
G36*
X77160Y-601140D02*
G01*
X77160Y-583360D01*
X54680Y-583360D01*
X56800Y-587260D01*
X59520Y-590900D01*
X62740Y-594100D01*
X66380Y-596820D01*
X70360Y-599000D01*
X74620Y-600600D01*
G37*
G36*
X117579Y-601140D02*
G01*
X120120Y-600600D01*
X124380Y-599000D01*
X128360Y-596820D01*
X132000Y-594100D01*
X135220Y-590900D01*
X137940Y-587260D01*
X140060Y-583360D01*
X117579Y-583360D01*
G37*
G36*
X54680Y-556720D02*
G01*
X77160Y-556720D01*
X77160Y-538940D01*
X74620Y-539480D01*
X70360Y-541080D01*
X66380Y-543260D01*
X62740Y-545980D01*
X59520Y-549180D01*
X56800Y-552820D01*
G37*
G36*
X117579Y-556720D02*
G01*
X140060Y-556720D01*
X137940Y-552820D01*
X135220Y-549180D01*
X132000Y-545980D01*
X128360Y-543260D01*
X124380Y-541080D01*
X120120Y-539480D01*
X117579Y-538940D01*
G37*
G36*
X249220Y-531200D02*
G01*
X262000Y-531200D01*
X262000Y-508000D01*
X238800Y-508000D01*
X238800Y-520780D01*
X239080Y-523260D01*
X239840Y-525420D01*
X241040Y-527340D01*
X242659Y-528960D01*
X244579Y-530160D01*
X246740Y-530920D01*
G37*
G36*
X480000Y-531200D02*
G01*
X485379Y-530840D01*
X490660Y-529780D01*
X495760Y-528060D01*
X500600Y-525680D01*
X505080Y-522680D01*
X509120Y-519120D01*
X512680Y-515080D01*
X515680Y-510600D01*
X518060Y-505760D01*
X519780Y-500660D01*
X520840Y-495379D01*
X521200Y-490000D01*
X520840Y-484620D01*
X519780Y-479340D01*
X518060Y-474240D01*
X515680Y-469400D01*
X512680Y-464920D01*
X509120Y-460880D01*
X505080Y-457320D01*
X500600Y-454320D01*
X495760Y-451940D01*
X490660Y-450220D01*
X485379Y-449159D01*
X480000Y-448800D01*
X474620Y-449159D01*
X469340Y-450220D01*
X464240Y-451940D01*
X459400Y-454320D01*
X454920Y-457320D01*
X450880Y-460880D01*
X447320Y-464920D01*
X444320Y-469400D01*
X441940Y-474240D01*
X440220Y-479340D01*
X439159Y-484620D01*
X438800Y-490000D01*
X439159Y-495379D01*
X440220Y-500660D01*
X441940Y-505760D01*
X444320Y-510600D01*
X447320Y-515080D01*
X450880Y-519120D01*
X454920Y-522680D01*
X459400Y-525680D01*
X464240Y-528060D01*
X469340Y-529780D01*
X474620Y-530840D01*
G37*
G36*
X238800Y-472000D02*
G01*
X262000Y-472000D01*
X262000Y-448800D01*
X249220Y-448800D01*
X246740Y-449080D01*
X244579Y-449840D01*
X242659Y-451040D01*
X241040Y-452660D01*
X239840Y-454580D01*
X239080Y-456740D01*
X238800Y-459219D01*
G37*

%LPD*%
G36*
X862960Y-1739800D02*
G01*
X861420Y-1739500D01*
X860120Y-1738620D01*
X496680Y-1375180D01*
X495880Y-1374019D01*
X495520Y-1372660D01*
X493579Y-1347240D01*
X492860Y-1341660D01*
X491440Y-1336240D01*
X489340Y-1331060D01*
X486580Y-1326180D01*
X483240Y-1321699D01*
X477860Y-1316060D01*
X477420Y-1314500D01*
X477620Y-1312880D01*
X478459Y-1311480D01*
X479799Y-1310540D01*
X481400Y-1310200D01*
X518660Y-1310200D01*
X520220Y-1310520D01*
X521540Y-1311420D01*
X522400Y-1312760D01*
X522660Y-1314319D01*
X522299Y-1315880D01*
X521360Y-1317160D01*
X518640Y-1319620D01*
X515020Y-1323880D01*
X511960Y-1328580D01*
X509540Y-1333620D01*
X507780Y-1338920D01*
X506700Y-1344420D01*
X506340Y-1350000D01*
X506700Y-1355580D01*
X507780Y-1361080D01*
X509540Y-1366380D01*
X511960Y-1371420D01*
X515020Y-1376120D01*
X518640Y-1380380D01*
X522780Y-1384139D01*
X527360Y-1387340D01*
X532320Y-1389920D01*
X537580Y-1391860D01*
X543040Y-1393100D01*
X548600Y-1393640D01*
X554200Y-1393460D01*
X559720Y-1392560D01*
X565080Y-1390980D01*
X570200Y-1388700D01*
X574980Y-1385800D01*
X579360Y-1382320D01*
X583240Y-1378300D01*
X586580Y-1373820D01*
X589340Y-1368940D01*
X591440Y-1363760D01*
X592860Y-1358340D01*
X593560Y-1352800D01*
X593560Y-1347200D01*
X592860Y-1341660D01*
X591440Y-1336240D01*
X589340Y-1331060D01*
X586580Y-1326180D01*
X583680Y-1322280D01*
X583020Y-1320900D01*
X582920Y-1319379D01*
X583400Y-1317920D01*
X584400Y-1316759D01*
X585760Y-1316060D01*
X587280Y-1315920D01*
X590020Y-1316180D01*
X593160Y-1315860D01*
X596200Y-1314940D01*
X598120Y-1313920D01*
X599360Y-1313500D01*
X600660Y-1313500D01*
X601900Y-1313920D01*
X603820Y-1314940D01*
X606860Y-1315860D01*
X610020Y-1316180D01*
X612780Y-1315900D01*
X614340Y-1316060D01*
X615720Y-1316819D01*
X616700Y-1318040D01*
X617160Y-1319540D01*
X616980Y-1321100D01*
X616220Y-1322480D01*
X615020Y-1323880D01*
X611960Y-1328580D01*
X609540Y-1333620D01*
X607780Y-1338920D01*
X606700Y-1344420D01*
X606340Y-1350000D01*
X606700Y-1355580D01*
X607780Y-1361080D01*
X609540Y-1366380D01*
X611960Y-1371420D01*
X615020Y-1376120D01*
X618640Y-1380380D01*
X622780Y-1384139D01*
X627360Y-1387340D01*
X632320Y-1389920D01*
X637580Y-1391860D01*
X643040Y-1393100D01*
X648600Y-1393640D01*
X654200Y-1393460D01*
X659720Y-1392560D01*
X665080Y-1390980D01*
X670200Y-1388700D01*
X674980Y-1385800D01*
X679360Y-1382320D01*
X683240Y-1378300D01*
X686580Y-1373820D01*
X689340Y-1368940D01*
X691440Y-1363760D01*
X692860Y-1358340D01*
X693560Y-1352800D01*
X693560Y-1347200D01*
X692860Y-1341660D01*
X691440Y-1336240D01*
X689340Y-1331060D01*
X686580Y-1326180D01*
X683240Y-1321699D01*
X679360Y-1317680D01*
X678860Y-1317280D01*
X677820Y-1316020D01*
X677360Y-1314460D01*
X677580Y-1312840D01*
X678420Y-1311440D01*
X679740Y-1310500D01*
X681340Y-1310160D01*
X799860Y-1310000D01*
X801340Y-1309880D01*
X804120Y-1309079D01*
X806060Y-1308000D01*
X807320Y-1306900D01*
X902860Y-1211380D01*
X904160Y-1210500D01*
X905680Y-1210200D01*
X1900400Y-1210200D01*
X1902040Y-1210540D01*
X1903400Y-1211540D01*
X1904220Y-1212980D01*
X1904360Y-1214800D01*
X1904360Y-1285200D01*
X1904640Y-1287700D01*
X1905400Y-1289840D01*
X1906620Y-1291780D01*
X1908220Y-1293380D01*
X1910160Y-1294600D01*
X1912300Y-1295360D01*
X1914800Y-1295640D01*
X1973240Y-1295640D01*
X1974760Y-1295940D01*
X1976060Y-1296800D01*
X1976920Y-1298100D01*
X1977240Y-1299640D01*
X1976920Y-1301160D01*
X1976060Y-1302460D01*
X1744900Y-1533620D01*
X1743600Y-1534500D01*
X1742060Y-1534800D01*
X1276920Y-1534800D01*
X1275400Y-1534500D01*
X1274100Y-1533620D01*
X1273240Y-1532340D01*
X1272920Y-1530800D01*
X1272920Y-1272920D01*
X1272620Y-1269760D01*
X1271760Y-1266920D01*
X1270340Y-1264300D01*
X1268340Y-1261840D01*
X1240880Y-1234400D01*
X1238440Y-1232380D01*
X1235800Y-1230980D01*
X1232960Y-1230120D01*
X1229800Y-1229800D01*
X1155200Y-1229800D01*
X1152040Y-1230120D01*
X1149200Y-1230980D01*
X1146560Y-1232380D01*
X1144120Y-1234400D01*
X1107760Y-1270740D01*
X1106620Y-1271540D01*
X1105280Y-1271900D01*
X1079700Y-1274140D01*
X1074340Y-1275220D01*
X1069240Y-1276940D01*
X1064400Y-1279320D01*
X1059920Y-1282320D01*
X1055880Y-1285880D01*
X1052320Y-1289920D01*
X1049320Y-1294400D01*
X1046940Y-1299240D01*
X1045220Y-1304340D01*
X1044160Y-1309620D01*
X1043800Y-1315000D01*
X1044160Y-1320380D01*
X1045220Y-1325660D01*
X1046940Y-1330760D01*
X1049320Y-1335600D01*
X1052320Y-1340080D01*
X1055880Y-1344120D01*
X1059920Y-1347680D01*
X1064400Y-1350680D01*
X1069240Y-1353060D01*
X1074340Y-1354780D01*
X1079620Y-1355840D01*
X1085000Y-1356200D01*
X1090380Y-1355840D01*
X1095660Y-1354780D01*
X1100760Y-1353060D01*
X1105600Y-1350680D01*
X1110080Y-1347680D01*
X1114120Y-1344120D01*
X1117680Y-1340080D01*
X1120680Y-1335600D01*
X1123060Y-1330760D01*
X1124780Y-1325660D01*
X1125860Y-1320300D01*
X1128100Y-1294720D01*
X1128460Y-1293380D01*
X1129260Y-1292240D01*
X1160120Y-1261380D01*
X1161420Y-1260500D01*
X1162960Y-1260200D01*
X1222040Y-1260200D01*
X1223580Y-1260500D01*
X1224880Y-1261380D01*
X1241360Y-1277860D01*
X1242220Y-1279140D01*
X1242520Y-1280680D01*
X1242520Y-1530800D01*
X1242220Y-1532340D01*
X1241360Y-1533620D01*
X1240060Y-1534500D01*
X1238520Y-1534800D01*
X1091360Y-1534800D01*
X1089820Y-1534500D01*
X1088520Y-1533620D01*
X1087660Y-1532340D01*
X1087360Y-1530800D01*
X1087660Y-1529259D01*
X1088520Y-1527980D01*
X1145600Y-1470880D01*
X1147620Y-1468440D01*
X1149020Y-1465800D01*
X1149880Y-1462960D01*
X1150200Y-1459800D01*
X1150200Y-1447980D01*
X1150480Y-1446480D01*
X1151320Y-1445220D01*
X1152540Y-1444340D01*
X1154020Y-1443980D01*
X1155520Y-1444199D01*
X1156840Y-1444980D01*
X1159920Y-1447680D01*
X1164400Y-1450680D01*
X1169240Y-1453060D01*
X1174340Y-1454780D01*
X1179620Y-1455840D01*
X1185000Y-1456200D01*
X1190380Y-1455840D01*
X1195660Y-1454780D01*
X1200760Y-1453060D01*
X1205600Y-1450680D01*
X1210080Y-1447680D01*
X1214120Y-1444120D01*
X1217680Y-1440080D01*
X1220680Y-1435600D01*
X1223060Y-1430760D01*
X1224780Y-1425660D01*
X1225840Y-1420380D01*
X1226200Y-1415000D01*
X1225840Y-1409620D01*
X1224780Y-1404340D01*
X1223060Y-1399240D01*
X1220680Y-1394400D01*
X1217680Y-1389920D01*
X1214120Y-1385880D01*
X1210080Y-1382320D01*
X1205600Y-1379319D01*
X1200760Y-1376940D01*
X1195660Y-1375220D01*
X1190380Y-1374160D01*
X1185000Y-1373800D01*
X1179620Y-1374160D01*
X1174340Y-1375220D01*
X1169240Y-1376940D01*
X1164400Y-1379319D01*
X1159920Y-1382320D01*
X1156840Y-1385020D01*
X1155520Y-1385800D01*
X1154020Y-1386020D01*
X1152540Y-1385660D01*
X1151320Y-1384780D01*
X1150480Y-1383520D01*
X1150200Y-1382020D01*
X1150200Y-1377960D01*
X1150500Y-1376420D01*
X1151380Y-1375120D01*
X1165620Y-1360880D01*
X1166600Y-1360160D01*
X1167760Y-1359760D01*
X1191040Y-1355760D01*
X1195660Y-1354780D01*
X1200760Y-1353060D01*
X1205600Y-1350680D01*
X1210080Y-1347680D01*
X1214120Y-1344120D01*
X1217680Y-1340080D01*
X1220680Y-1335600D01*
X1223060Y-1330760D01*
X1224780Y-1325660D01*
X1225840Y-1320380D01*
X1226200Y-1315000D01*
X1225840Y-1309620D01*
X1224780Y-1304340D01*
X1223060Y-1299240D01*
X1220680Y-1294400D01*
X1217680Y-1289920D01*
X1214120Y-1285880D01*
X1210080Y-1282320D01*
X1205600Y-1279320D01*
X1200760Y-1276940D01*
X1195660Y-1275220D01*
X1190380Y-1274160D01*
X1185000Y-1273800D01*
X1179620Y-1274160D01*
X1174340Y-1275220D01*
X1169240Y-1276940D01*
X1164400Y-1279320D01*
X1159920Y-1282320D01*
X1155880Y-1285880D01*
X1152320Y-1289920D01*
X1149320Y-1294400D01*
X1146940Y-1299240D01*
X1145220Y-1304340D01*
X1144160Y-1309620D01*
X1143800Y-1315140D01*
X1143740Y-1338120D01*
X1143440Y-1339640D01*
X1142580Y-1340940D01*
X1124400Y-1359120D01*
X1122380Y-1361560D01*
X1120980Y-1364199D01*
X1120120Y-1367040D01*
X1119800Y-1370200D01*
X1119800Y-1382020D01*
X1119520Y-1383520D01*
X1118680Y-1384780D01*
X1117460Y-1385660D01*
X1115980Y-1386020D01*
X1114480Y-1385800D01*
X1113160Y-1385020D01*
X1110080Y-1382320D01*
X1105600Y-1379319D01*
X1100760Y-1376940D01*
X1095660Y-1375220D01*
X1090380Y-1374160D01*
X1085000Y-1373800D01*
X1079620Y-1374160D01*
X1074340Y-1375220D01*
X1069240Y-1376940D01*
X1064400Y-1379319D01*
X1059920Y-1382320D01*
X1055880Y-1385880D01*
X1052320Y-1389920D01*
X1049320Y-1394400D01*
X1046940Y-1399240D01*
X1045220Y-1404340D01*
X1044160Y-1409620D01*
X1043800Y-1415000D01*
X1044160Y-1420360D01*
X1045340Y-1426120D01*
X1050220Y-1445520D01*
X1050320Y-1446879D01*
X1049960Y-1448200D01*
X1049180Y-1449319D01*
X1014880Y-1483620D01*
X1013580Y-1484500D01*
X1012039Y-1484800D01*
X885200Y-1484800D01*
X882039Y-1485120D01*
X879200Y-1485980D01*
X876560Y-1487380D01*
X874120Y-1489400D01*
X839400Y-1524120D01*
X837380Y-1526560D01*
X835980Y-1529199D01*
X835120Y-1532040D01*
X834800Y-1535200D01*
X834800Y-1589800D01*
X835120Y-1592960D01*
X835980Y-1595800D01*
X837380Y-1598440D01*
X839400Y-1600880D01*
X885440Y-1646920D01*
X886380Y-1648420D01*
X887940Y-1652820D01*
X889160Y-1657580D01*
X890780Y-1661100D01*
X893000Y-1664259D01*
X895740Y-1667000D01*
X898900Y-1669220D01*
X902420Y-1670840D01*
X906140Y-1671840D01*
X910000Y-1672180D01*
X913860Y-1671840D01*
X917580Y-1670840D01*
X921100Y-1669220D01*
X923259Y-1667760D01*
X927820Y-1665580D01*
X929539Y-1665200D01*
X1436440Y-1665200D01*
X1437980Y-1665500D01*
X1439300Y-1666380D01*
X1440160Y-1667700D01*
X1440440Y-1669240D01*
X1440120Y-1670780D01*
X1439220Y-1672080D01*
X1437900Y-1673360D01*
X1434620Y-1677520D01*
X1431920Y-1682080D01*
X1429840Y-1686980D01*
X1428440Y-1692080D01*
X1427720Y-1697340D01*
X1427720Y-1702660D01*
X1428440Y-1707920D01*
X1429840Y-1713020D01*
X1431920Y-1717920D01*
X1434620Y-1722480D01*
X1437900Y-1726639D01*
X1441720Y-1730340D01*
X1444760Y-1732580D01*
X1445880Y-1733820D01*
X1446380Y-1735400D01*
X1446200Y-1737040D01*
X1445360Y-1738480D01*
X1444019Y-1739460D01*
X1442400Y-1739800D01*
G37*

%LPC*%
G36*
X1003000Y-1456200D02*
G01*
X1015780Y-1456200D01*
X1018259Y-1455920D01*
X1020420Y-1455160D01*
X1022340Y-1453959D01*
X1023960Y-1452340D01*
X1025160Y-1450420D01*
X1025920Y-1448260D01*
X1026200Y-1445780D01*
X1026200Y-1433000D01*
X1003000Y-1433000D01*
G37*
G36*
X954220Y-1456200D02*
G01*
X967000Y-1456200D01*
X967000Y-1433000D01*
X943800Y-1433000D01*
X943800Y-1445780D01*
X944080Y-1448260D01*
X944840Y-1450420D01*
X946040Y-1452340D01*
X947660Y-1453959D01*
X949580Y-1455160D01*
X951740Y-1455920D01*
G37*
G36*
X1003000Y-1397000D02*
G01*
X1026200Y-1397000D01*
X1026200Y-1384220D01*
X1025920Y-1381740D01*
X1025160Y-1379580D01*
X1023960Y-1377660D01*
X1022340Y-1376040D01*
X1020420Y-1374840D01*
X1018259Y-1374079D01*
X1015780Y-1373800D01*
X1003000Y-1373800D01*
G37*
G36*
X943800Y-1397000D02*
G01*
X967000Y-1397000D01*
X967000Y-1373800D01*
X954220Y-1373800D01*
X951740Y-1374079D01*
X949580Y-1374840D01*
X947660Y-1376040D01*
X946040Y-1377660D01*
X944840Y-1379580D01*
X944080Y-1381740D01*
X943800Y-1384220D01*
G37*
G36*
X985000Y-1356200D02*
G01*
X990380Y-1355840D01*
X995660Y-1354780D01*
X1000759Y-1353060D01*
X1005600Y-1350680D01*
X1010080Y-1347680D01*
X1014120Y-1344120D01*
X1017680Y-1340080D01*
X1020680Y-1335600D01*
X1023060Y-1330760D01*
X1024780Y-1325660D01*
X1025840Y-1320380D01*
X1026200Y-1315000D01*
X1025840Y-1309620D01*
X1024780Y-1304340D01*
X1023060Y-1299240D01*
X1020680Y-1294400D01*
X1017680Y-1289920D01*
X1014120Y-1285880D01*
X1010080Y-1282320D01*
X1005600Y-1279320D01*
X1000759Y-1276940D01*
X995660Y-1275220D01*
X990380Y-1274160D01*
X985000Y-1273800D01*
X979620Y-1274160D01*
X974340Y-1275220D01*
X969240Y-1276940D01*
X964400Y-1279320D01*
X959920Y-1282320D01*
X955879Y-1285880D01*
X952320Y-1289920D01*
X949320Y-1294400D01*
X946940Y-1299240D01*
X945220Y-1304340D01*
X944160Y-1309620D01*
X943800Y-1315000D01*
X944160Y-1320380D01*
X945220Y-1325660D01*
X946940Y-1330760D01*
X949320Y-1335600D01*
X952320Y-1340080D01*
X955879Y-1344120D01*
X959920Y-1347680D01*
X964400Y-1350680D01*
X969240Y-1353060D01*
X974340Y-1354780D01*
X979620Y-1355840D01*
G37*

%LPD*%
G36*
X1492360Y-1739800D02*
G01*
X1490700Y-1739440D01*
X1489340Y-1738420D01*
X1488520Y-1736920D01*
X1488400Y-1735220D01*
X1489000Y-1733620D01*
X1490220Y-1732420D01*
X1490920Y-1731980D01*
X1494980Y-1728560D01*
X1498540Y-1724620D01*
X1501540Y-1720240D01*
X1503920Y-1715500D01*
X1505660Y-1710500D01*
X1506720Y-1705300D01*
X1507080Y-1700000D01*
X1506720Y-1694700D01*
X1505660Y-1689500D01*
X1503920Y-1684500D01*
X1501540Y-1679760D01*
X1498540Y-1675380D01*
X1495360Y-1671879D01*
X1494580Y-1670580D01*
X1494340Y-1669060D01*
X1494680Y-1667580D01*
X1495560Y-1666320D01*
X1496840Y-1665500D01*
X1498340Y-1665200D01*
X1731720Y-1665200D01*
X1733260Y-1665500D01*
X1734580Y-1666380D01*
X1735440Y-1667700D01*
X1735720Y-1669240D01*
X1735400Y-1670780D01*
X1734500Y-1672080D01*
X1733180Y-1673360D01*
X1729900Y-1677520D01*
X1727200Y-1682080D01*
X1725120Y-1686980D01*
X1723720Y-1692080D01*
X1723000Y-1697340D01*
X1723000Y-1702660D01*
X1723720Y-1707920D01*
X1725120Y-1713020D01*
X1727200Y-1717920D01*
X1729900Y-1722480D01*
X1733180Y-1726639D01*
X1737000Y-1730340D01*
X1740040Y-1732580D01*
X1741160Y-1733820D01*
X1741660Y-1735400D01*
X1741480Y-1737040D01*
X1740640Y-1738480D01*
X1739300Y-1739460D01*
X1737680Y-1739800D01*
G37*

%LPD*%
G36*
X105879Y-2089800D02*
G01*
X104360Y-2089500D01*
X103059Y-2088620D01*
X11399Y-1996960D01*
X10520Y-1995660D01*
X10220Y-1994139D01*
X10220Y-1405860D01*
X10520Y-1404340D01*
X11399Y-1403040D01*
X103059Y-1311380D01*
X104360Y-1310500D01*
X105879Y-1310200D01*
X302600Y-1310200D01*
X304240Y-1310540D01*
X305580Y-1311540D01*
X306400Y-1312980D01*
X306580Y-1314640D01*
X306340Y-1316759D01*
X306340Y-1330760D01*
X330760Y-1330760D01*
X330760Y-1314199D01*
X331079Y-1312660D01*
X331940Y-1311380D01*
X333240Y-1310500D01*
X334760Y-1310200D01*
X365240Y-1310200D01*
X366760Y-1310500D01*
X368060Y-1311380D01*
X368920Y-1312660D01*
X369240Y-1314199D01*
X369240Y-1330760D01*
X393660Y-1330760D01*
X393660Y-1316759D01*
X393420Y-1314640D01*
X393600Y-1312980D01*
X394420Y-1311540D01*
X395760Y-1310540D01*
X397400Y-1310200D01*
X418660Y-1310200D01*
X420220Y-1310520D01*
X421540Y-1311420D01*
X422400Y-1312760D01*
X422660Y-1314319D01*
X422299Y-1315880D01*
X421360Y-1317160D01*
X418640Y-1319620D01*
X415020Y-1323880D01*
X411960Y-1328580D01*
X409540Y-1333620D01*
X407780Y-1338920D01*
X406700Y-1344420D01*
X406340Y-1350000D01*
X406700Y-1355580D01*
X407780Y-1361080D01*
X409540Y-1366380D01*
X411960Y-1371420D01*
X415020Y-1376120D01*
X418640Y-1380380D01*
X422780Y-1384139D01*
X427360Y-1387340D01*
X432320Y-1389920D01*
X437580Y-1391860D01*
X443040Y-1393100D01*
X447380Y-1393580D01*
X472660Y-1395520D01*
X474020Y-1395880D01*
X475180Y-1396680D01*
X521960Y-1443460D01*
X522900Y-1444940D01*
X523120Y-1446680D01*
X522560Y-1448340D01*
X521360Y-1449620D01*
X519720Y-1450240D01*
X514799Y-1449800D01*
X455200Y-1449800D01*
X452040Y-1450120D01*
X449200Y-1450980D01*
X446560Y-1452380D01*
X444120Y-1454400D01*
X434400Y-1464120D01*
X432380Y-1466560D01*
X430980Y-1469199D01*
X430120Y-1472040D01*
X429799Y-1475200D01*
X429799Y-1534800D01*
X430120Y-1537960D01*
X430980Y-1540800D01*
X432380Y-1543440D01*
X434400Y-1545880D01*
X449120Y-1560600D01*
X451560Y-1562620D01*
X454200Y-1564019D01*
X457040Y-1564880D01*
X460200Y-1565200D01*
X470460Y-1565200D01*
X472180Y-1565580D01*
X476740Y-1567760D01*
X478900Y-1569220D01*
X482420Y-1570840D01*
X483500Y-1571140D01*
X485020Y-1571940D01*
X486079Y-1573300D01*
X486460Y-1575000D01*
X486079Y-1576699D01*
X485020Y-1578060D01*
X483500Y-1578860D01*
X482420Y-1579160D01*
X478900Y-1580780D01*
X475740Y-1583000D01*
X473000Y-1585740D01*
X470780Y-1588899D01*
X469159Y-1592420D01*
X468160Y-1596140D01*
X467819Y-1600000D01*
X468160Y-1603860D01*
X469159Y-1607580D01*
X470780Y-1611100D01*
X473000Y-1614259D01*
X475740Y-1617000D01*
X478900Y-1619220D01*
X482420Y-1620840D01*
X486140Y-1621840D01*
X490000Y-1622180D01*
X493860Y-1621840D01*
X497580Y-1620840D01*
X501100Y-1619220D01*
X504260Y-1617000D01*
X507000Y-1614259D01*
X509219Y-1611100D01*
X510840Y-1607580D01*
X511840Y-1603860D01*
X512180Y-1600000D01*
X511840Y-1596140D01*
X510840Y-1592420D01*
X509219Y-1588899D01*
X507000Y-1585740D01*
X504260Y-1583000D01*
X501100Y-1580780D01*
X497580Y-1579160D01*
X496500Y-1578860D01*
X494980Y-1578060D01*
X493920Y-1576699D01*
X493540Y-1575000D01*
X493920Y-1573300D01*
X494980Y-1571940D01*
X496500Y-1571140D01*
X497580Y-1570840D01*
X501100Y-1569220D01*
X504260Y-1567000D01*
X507000Y-1564259D01*
X509219Y-1561100D01*
X510840Y-1557580D01*
X511840Y-1553860D01*
X511940Y-1552740D01*
X512360Y-1551279D01*
X513280Y-1550100D01*
X514560Y-1549319D01*
X516040Y-1549079D01*
X517520Y-1549420D01*
X518760Y-1550260D01*
X771480Y-1802980D01*
X772340Y-1804259D01*
X772640Y-1805800D01*
X772340Y-1807340D01*
X771480Y-1808620D01*
X770180Y-1809500D01*
X768640Y-1809800D01*
X575200Y-1809800D01*
X572040Y-1810120D01*
X569200Y-1810980D01*
X566560Y-1812380D01*
X564120Y-1814400D01*
X375180Y-2003320D01*
X374020Y-2004120D01*
X372660Y-2004480D01*
X345900Y-2006519D01*
X340280Y-2007440D01*
X334920Y-2009040D01*
X329799Y-2011300D01*
X325020Y-2014199D01*
X320640Y-2017680D01*
X316760Y-2021699D01*
X313420Y-2026180D01*
X310660Y-2031060D01*
X308560Y-2036240D01*
X307140Y-2041660D01*
X306440Y-2047200D01*
X306440Y-2052800D01*
X307140Y-2058340D01*
X308560Y-2063760D01*
X310660Y-2068940D01*
X313420Y-2073820D01*
X316760Y-2078300D01*
X322140Y-2083940D01*
X322580Y-2085500D01*
X322380Y-2087120D01*
X321540Y-2088520D01*
X320200Y-2089460D01*
X318600Y-2089800D01*
G37*

%LPC*%
G36*
X77140Y-1861060D02*
G01*
X77140Y-1843280D01*
X54660Y-1843280D01*
X56780Y-1847180D01*
X59520Y-1850820D01*
X62720Y-1854019D01*
X66360Y-1856740D01*
X70340Y-1858920D01*
X74600Y-1860520D01*
G37*
G36*
X117579Y-1861060D02*
G01*
X120100Y-1860520D01*
X124360Y-1858920D01*
X128360Y-1856740D01*
X131980Y-1854019D01*
X135200Y-1850820D01*
X137920Y-1847180D01*
X140040Y-1843280D01*
X117579Y-1843280D01*
G37*
G36*
X54660Y-1816639D02*
G01*
X77140Y-1816639D01*
X77140Y-1798860D01*
X74600Y-1799400D01*
X70340Y-1801000D01*
X66360Y-1803180D01*
X62720Y-1805900D01*
X59520Y-1809100D01*
X56780Y-1812740D01*
G37*
G36*
X117579Y-1816639D02*
G01*
X140040Y-1816639D01*
X137920Y-1812740D01*
X135200Y-1809100D01*
X131980Y-1805900D01*
X128360Y-1803180D01*
X124360Y-1801000D01*
X120100Y-1799400D01*
X117579Y-1798860D01*
G37*
G36*
X77160Y-1601140D02*
G01*
X77160Y-1583360D01*
X54680Y-1583360D01*
X56800Y-1587260D01*
X59520Y-1590900D01*
X62740Y-1594100D01*
X66380Y-1596819D01*
X70360Y-1599000D01*
X74620Y-1600600D01*
G37*
G36*
X117579Y-1601140D02*
G01*
X120120Y-1600600D01*
X124380Y-1599000D01*
X128360Y-1596819D01*
X132000Y-1594100D01*
X135220Y-1590900D01*
X137940Y-1587260D01*
X140060Y-1583360D01*
X117579Y-1583360D01*
G37*
G36*
X117579Y-1556720D02*
G01*
X140060Y-1556720D01*
X137940Y-1552820D01*
X135220Y-1549180D01*
X132000Y-1545980D01*
X128360Y-1543260D01*
X124380Y-1541080D01*
X120120Y-1539480D01*
X117579Y-1538940D01*
G37*
G36*
X54680Y-1556720D02*
G01*
X77160Y-1556720D01*
X77160Y-1538940D01*
X74620Y-1539480D01*
X70360Y-1541080D01*
X66380Y-1543260D01*
X62740Y-1545980D01*
X59520Y-1549180D01*
X56800Y-1552820D01*
G37*
G36*
X369240Y-1393660D02*
G01*
X383240Y-1393660D01*
X385720Y-1393380D01*
X387879Y-1392640D01*
X389799Y-1391420D01*
X391420Y-1389800D01*
X392640Y-1387880D01*
X393380Y-1385720D01*
X393660Y-1383240D01*
X393660Y-1369240D01*
X369240Y-1369240D01*
G37*
G36*
X316760Y-1393660D02*
G01*
X330760Y-1393660D01*
X330760Y-1369240D01*
X306340Y-1369240D01*
X306340Y-1383240D01*
X306620Y-1385720D01*
X307360Y-1387880D01*
X308580Y-1389800D01*
X310200Y-1391420D01*
X312120Y-1392640D01*
X314280Y-1393380D01*
G37*

%LPD*%
G36*
X906780Y-2189800D02*
G01*
X905260Y-2189500D01*
X903960Y-2188620D01*
X808220Y-2092900D01*
X807080Y-2091920D01*
X804539Y-2090520D01*
X802420Y-2089920D01*
X800740Y-2089800D01*
X697400Y-2089800D01*
X695759Y-2089460D01*
X694419Y-2088460D01*
X693600Y-2087020D01*
X693420Y-2085360D01*
X693660Y-2083240D01*
X693660Y-2036519D01*
X693860Y-2035240D01*
X697380Y-2024700D01*
X698360Y-2023140D01*
X805120Y-1916380D01*
X806420Y-1915500D01*
X807960Y-1915200D01*
X924800Y-1915200D01*
X927960Y-1914880D01*
X930800Y-1914019D01*
X933439Y-1912620D01*
X935879Y-1910600D01*
X955120Y-1891380D01*
X956420Y-1890500D01*
X957960Y-1890200D01*
X1010460Y-1890200D01*
X1012180Y-1890580D01*
X1016740Y-1892760D01*
X1018900Y-1894220D01*
X1022420Y-1895840D01*
X1026140Y-1896840D01*
X1030000Y-1897180D01*
X1033860Y-1896840D01*
X1037580Y-1895840D01*
X1041100Y-1894220D01*
X1044260Y-1892000D01*
X1047000Y-1889259D01*
X1049220Y-1886100D01*
X1050840Y-1882580D01*
X1051840Y-1878860D01*
X1052180Y-1875000D01*
X1051840Y-1871140D01*
X1051600Y-1870240D01*
X1051480Y-1868779D01*
X1051900Y-1867380D01*
X1052800Y-1866220D01*
X1054040Y-1865460D01*
X1055460Y-1865200D01*
X1104800Y-1865200D01*
X1107960Y-1864880D01*
X1110800Y-1864019D01*
X1113440Y-1862620D01*
X1115880Y-1860600D01*
X1126680Y-1849820D01*
X1127340Y-1849280D01*
X1132740Y-1845820D01*
X1136100Y-1844220D01*
X1139260Y-1842000D01*
X1142000Y-1839259D01*
X1144220Y-1836100D01*
X1145840Y-1832580D01*
X1146840Y-1828860D01*
X1147180Y-1825000D01*
X1146840Y-1821140D01*
X1145840Y-1817420D01*
X1145140Y-1815900D01*
X1144760Y-1814340D01*
X1145020Y-1812760D01*
X1145880Y-1811420D01*
X1147200Y-1810520D01*
X1148760Y-1810200D01*
X1747040Y-1810200D01*
X1748580Y-1810500D01*
X1749880Y-1811380D01*
X1815440Y-1876940D01*
X1816380Y-1878440D01*
X1817940Y-1882820D01*
X1819160Y-1887580D01*
X1820800Y-1891100D01*
X1823020Y-1894259D01*
X1825740Y-1897000D01*
X1828920Y-1899220D01*
X1832420Y-1900840D01*
X1836160Y-1901840D01*
X1840020Y-1902180D01*
X1843400Y-1901879D01*
X1845100Y-1902120D01*
X1846560Y-1903040D01*
X1933640Y-1990120D01*
X1934520Y-1991420D01*
X1934820Y-1992960D01*
X1934820Y-2104320D01*
X1934500Y-2105860D01*
X1933620Y-2107180D01*
X1932300Y-2108040D01*
X1930580Y-2108720D01*
X1925560Y-2111480D01*
X1920920Y-2114840D01*
X1916740Y-2118760D01*
X1913080Y-2123180D01*
X1910020Y-2128020D01*
X1907580Y-2133200D01*
X1905800Y-2138660D01*
X1904740Y-2144280D01*
X1904379Y-2150000D01*
X1904740Y-2155720D01*
X1905800Y-2161340D01*
X1907580Y-2166800D01*
X1910020Y-2171980D01*
X1913080Y-2176820D01*
X1916740Y-2181240D01*
X1918500Y-2182880D01*
X1919420Y-2184180D01*
X1919760Y-2185720D01*
X1919480Y-2187280D01*
X1918620Y-2188600D01*
X1917320Y-2189480D01*
X1915760Y-2189800D01*
G37*

%LPD*%
G36*
X2184120Y-2189920D02*
G01*
X2182560Y-2189600D01*
X2181260Y-2188720D01*
X2180400Y-2187400D01*
X2180120Y-2185840D01*
X2180460Y-2184300D01*
X2181380Y-2183000D01*
X2183260Y-2181240D01*
X2186920Y-2176820D01*
X2189980Y-2171980D01*
X2192420Y-2166800D01*
X2194200Y-2161340D01*
X2195260Y-2155720D01*
X2195620Y-2150000D01*
X2195260Y-2144280D01*
X2194200Y-2138660D01*
X2192420Y-2133200D01*
X2189980Y-2128020D01*
X2186920Y-2123180D01*
X2183260Y-2118760D01*
X2179080Y-2114840D01*
X2174440Y-2111480D01*
X2169420Y-2108720D01*
X2167740Y-2108060D01*
X2166420Y-2107200D01*
X2165540Y-2105880D01*
X2165220Y-2104340D01*
X2165220Y-2039840D01*
X2164900Y-2036680D01*
X2164040Y-2033820D01*
X2162640Y-2031200D01*
X2160620Y-2028740D01*
X2044620Y-1912740D01*
X2043839Y-1911620D01*
X2043480Y-1910280D01*
X2043200Y-1907120D01*
X2042200Y-1903380D01*
X2040560Y-1899880D01*
X2038340Y-1896699D01*
X2035620Y-1893980D01*
X2032440Y-1891759D01*
X2028940Y-1890120D01*
X2024160Y-1888899D01*
X2019800Y-1887360D01*
X2018300Y-1886399D01*
X1876279Y-1744400D01*
X1873839Y-1742380D01*
X1871200Y-1740980D01*
X1868360Y-1740120D01*
X1865200Y-1739800D01*
X1787640Y-1739800D01*
X1785980Y-1739440D01*
X1784620Y-1738420D01*
X1783800Y-1736920D01*
X1783680Y-1735220D01*
X1784280Y-1733620D01*
X1785500Y-1732420D01*
X1786200Y-1731980D01*
X1790260Y-1728560D01*
X1793820Y-1724620D01*
X1796819Y-1720240D01*
X1799199Y-1715500D01*
X1800940Y-1710500D01*
X1802000Y-1705300D01*
X1802360Y-1700000D01*
X1802000Y-1694700D01*
X1800940Y-1689500D01*
X1799199Y-1684500D01*
X1796819Y-1679760D01*
X1793820Y-1675380D01*
X1790640Y-1671879D01*
X1789860Y-1670580D01*
X1789620Y-1669060D01*
X1789960Y-1667580D01*
X1790840Y-1666320D01*
X1792120Y-1665500D01*
X1793620Y-1665200D01*
X1849820Y-1665200D01*
X1852980Y-1664880D01*
X1855820Y-1664019D01*
X1858460Y-1662620D01*
X1860900Y-1660600D01*
X2222900Y-1298620D01*
X2224060Y-1297820D01*
X2225440Y-1297460D01*
X2252820Y-1295540D01*
X2258540Y-1294820D01*
X2264100Y-1293400D01*
X2269420Y-1291279D01*
X2274440Y-1288520D01*
X2279080Y-1285160D01*
X2283260Y-1281240D01*
X2286920Y-1276820D01*
X2289980Y-1271980D01*
X2292420Y-1266800D01*
X2294200Y-1261340D01*
X2295260Y-1255720D01*
X2295620Y-1250000D01*
X2295260Y-1244280D01*
X2294200Y-1238660D01*
X2292420Y-1233200D01*
X2289980Y-1228020D01*
X2286920Y-1223180D01*
X2283260Y-1218760D01*
X2281500Y-1217120D01*
X2280580Y-1215820D01*
X2280240Y-1214280D01*
X2280520Y-1212720D01*
X2281380Y-1211400D01*
X2282680Y-1210520D01*
X2284240Y-1210200D01*
X2494120Y-1210200D01*
X2495640Y-1210500D01*
X2496940Y-1211380D01*
X2588620Y-1303060D01*
X2589500Y-1304360D01*
X2589800Y-1305880D01*
X2589800Y-2094120D01*
X2589500Y-2095640D01*
X2588620Y-2096940D01*
X2496940Y-2188640D01*
X2495640Y-2189500D01*
X2494120Y-2189800D01*
X2299580Y-2189880D01*
X2297960Y-2189520D01*
X2296600Y-2188540D01*
X2295780Y-2187080D01*
X2295640Y-2185200D01*
X2295640Y-2170220D01*
X2270220Y-2170220D01*
X2270220Y-2185880D01*
X2269920Y-2187420D01*
X2269040Y-2188720D01*
X2267740Y-2189580D01*
X2266220Y-2189880D01*
X2233780Y-2189900D01*
X2232260Y-2189600D01*
X2230960Y-2188720D01*
X2230080Y-2187440D01*
X2229780Y-2185900D01*
X2229780Y-2170220D01*
X2204360Y-2170220D01*
X2204360Y-2185200D01*
X2204240Y-2187120D01*
X2203400Y-2188580D01*
X2202060Y-2189560D01*
X2200420Y-2189920D01*
G37*

%LPC*%
G36*
X2270220Y-2129780D02*
G01*
X2295640Y-2129780D01*
X2295640Y-2114800D01*
X2295360Y-2112300D01*
X2294600Y-2110160D01*
X2293380Y-2108220D01*
X2291780Y-2106620D01*
X2289840Y-2105400D01*
X2287700Y-2104640D01*
X2285200Y-2104360D01*
X2270220Y-2104360D01*
G37*
G36*
X2204360Y-2129780D02*
G01*
X2229780Y-2129780D01*
X2229780Y-2104360D01*
X2214800Y-2104360D01*
X2212300Y-2104640D01*
X2210160Y-2105400D01*
X2208220Y-2106620D01*
X2206620Y-2108220D01*
X2205400Y-2110160D01*
X2204640Y-2112300D01*
X2204360Y-2114800D01*
G37*

%LPD*%
G36*
X648000Y-3295000D02*
G01*
X646580Y-3294740D01*
X645360Y-3294000D01*
X644460Y-3292880D01*
X643460Y-3291019D01*
X641460Y-3288560D01*
X639000Y-3286540D01*
X636200Y-3285059D01*
X633160Y-3284140D01*
X630020Y-3283820D01*
X626860Y-3284140D01*
X623820Y-3285059D01*
X621900Y-3286080D01*
X620660Y-3286500D01*
X619360Y-3286500D01*
X618120Y-3286080D01*
X616200Y-3285059D01*
X613160Y-3284140D01*
X610020Y-3283820D01*
X606860Y-3284140D01*
X603820Y-3285059D01*
X601900Y-3286080D01*
X600660Y-3286500D01*
X599360Y-3286500D01*
X598120Y-3286080D01*
X596200Y-3285059D01*
X593160Y-3284140D01*
X590020Y-3283820D01*
X586860Y-3284140D01*
X583820Y-3285059D01*
X581900Y-3286080D01*
X580660Y-3286500D01*
X579360Y-3286500D01*
X578120Y-3286080D01*
X576200Y-3285059D01*
X573160Y-3284140D01*
X570020Y-3283820D01*
X566860Y-3284140D01*
X563820Y-3285059D01*
X561020Y-3286540D01*
X558560Y-3288560D01*
X557960Y-3289300D01*
X556600Y-3290380D01*
X554920Y-3290760D01*
X552900Y-3290260D01*
X549960Y-3289800D01*
X105879Y-3289800D01*
X104360Y-3289500D01*
X103059Y-3288620D01*
X11399Y-3196960D01*
X10520Y-3195659D01*
X10220Y-3194140D01*
X10220Y-2405860D01*
X10520Y-2404340D01*
X11399Y-2403040D01*
X103059Y-2311360D01*
X104360Y-2310500D01*
X105879Y-2310200D01*
X194240Y-2310160D01*
X195920Y-2310540D01*
X197300Y-2311600D01*
X198100Y-2313120D01*
X198180Y-2314860D01*
X197520Y-2316460D01*
X195799Y-2318900D01*
X194160Y-2322420D01*
X193200Y-2326040D01*
X192800Y-2327000D01*
X192160Y-2327840D01*
X177040Y-2342980D01*
X174980Y-2345700D01*
X173540Y-2348620D01*
X172640Y-2351760D01*
X172320Y-2355180D01*
X172320Y-2485200D01*
X172060Y-2486640D01*
X171300Y-2487880D01*
X170140Y-2488780D01*
X168740Y-2489180D01*
X167280Y-2489060D01*
X163860Y-2488160D01*
X160020Y-2487820D01*
X156160Y-2488160D01*
X152420Y-2489160D01*
X148920Y-2490780D01*
X145740Y-2493000D01*
X143020Y-2495740D01*
X140800Y-2498900D01*
X139160Y-2502420D01*
X138160Y-2506140D01*
X137820Y-2510000D01*
X138160Y-2513860D01*
X139160Y-2517580D01*
X140800Y-2521100D01*
X143020Y-2524260D01*
X143660Y-2524900D01*
X144520Y-2526200D01*
X144820Y-2527720D01*
X144820Y-2744800D01*
X145140Y-2747960D01*
X146060Y-2751000D01*
X146220Y-2752420D01*
X145880Y-2753800D01*
X145080Y-2754960D01*
X140740Y-2758000D01*
X138020Y-2760740D01*
X135800Y-2763900D01*
X134160Y-2767420D01*
X133160Y-2771139D01*
X132820Y-2775000D01*
X133160Y-2778860D01*
X134160Y-2782580D01*
X135800Y-2786100D01*
X138020Y-2789260D01*
X140740Y-2792000D01*
X143920Y-2794220D01*
X147420Y-2795840D01*
X148500Y-2796139D01*
X150040Y-2796940D01*
X151100Y-2798300D01*
X151460Y-2800000D01*
X151100Y-2801700D01*
X150040Y-2803060D01*
X148500Y-2803860D01*
X147420Y-2804160D01*
X143920Y-2805779D01*
X140740Y-2808000D01*
X138020Y-2810740D01*
X135800Y-2813900D01*
X134160Y-2817420D01*
X133160Y-2821139D01*
X132820Y-2825000D01*
X133160Y-2828860D01*
X134160Y-2832580D01*
X135800Y-2836100D01*
X138020Y-2839260D01*
X138660Y-2839900D01*
X139520Y-2841200D01*
X139820Y-2842720D01*
X139820Y-2979800D01*
X140140Y-2982960D01*
X141000Y-2985800D01*
X142400Y-2988440D01*
X144420Y-2990880D01*
X171720Y-3018200D01*
X172520Y-3019340D01*
X172880Y-3020680D01*
X173160Y-3023860D01*
X174160Y-3027580D01*
X175799Y-3031100D01*
X178020Y-3034260D01*
X180740Y-3037000D01*
X183920Y-3039220D01*
X187420Y-3040840D01*
X191160Y-3041840D01*
X195020Y-3042180D01*
X198860Y-3041840D01*
X202600Y-3040840D01*
X206100Y-3039220D01*
X208520Y-3037520D01*
X210120Y-3036860D01*
X211860Y-3036920D01*
X213400Y-3037720D01*
X214440Y-3039100D01*
X214820Y-3040800D01*
X214820Y-3099320D01*
X215120Y-3102360D01*
X215380Y-3103260D01*
X215500Y-3105000D01*
X214860Y-3106620D01*
X213580Y-3107820D01*
X211920Y-3108380D01*
X210180Y-3108159D01*
X208720Y-3107220D01*
X179600Y-3078100D01*
X178660Y-3076600D01*
X177079Y-3072180D01*
X175859Y-3067420D01*
X174220Y-3063900D01*
X172000Y-3060740D01*
X169280Y-3058000D01*
X166100Y-3055779D01*
X162600Y-3054160D01*
X158860Y-3053159D01*
X155020Y-3052820D01*
X151160Y-3053159D01*
X147420Y-3054160D01*
X143920Y-3055779D01*
X140740Y-3058000D01*
X138020Y-3060740D01*
X135800Y-3063900D01*
X134160Y-3067420D01*
X133160Y-3071139D01*
X132820Y-3075000D01*
X133160Y-3078860D01*
X134160Y-3082580D01*
X135800Y-3086100D01*
X138020Y-3089260D01*
X140740Y-3092000D01*
X143920Y-3094220D01*
X147420Y-3095840D01*
X152200Y-3097060D01*
X156560Y-3098620D01*
X158060Y-3099560D01*
X274120Y-3215600D01*
X276560Y-3217620D01*
X279200Y-3219020D01*
X282040Y-3219880D01*
X285200Y-3220200D01*
X1762000Y-3220200D01*
X1765140Y-3219900D01*
X1767980Y-3219040D01*
X1770620Y-3217640D01*
X1773060Y-3215620D01*
X1796300Y-3192460D01*
X1797600Y-3191600D01*
X1799139Y-3191300D01*
X2188140Y-3191300D01*
X2189680Y-3191600D01*
X2190980Y-3192480D01*
X2206440Y-3207940D01*
X2207280Y-3209160D01*
X2207600Y-3210620D01*
X2207380Y-3212080D01*
X2206620Y-3214280D01*
X2206340Y-3216760D01*
X2206340Y-3230760D01*
X2230760Y-3230760D01*
X2230760Y-3224200D01*
X2231080Y-3222660D01*
X2231940Y-3221380D01*
X2233240Y-3220500D01*
X2234760Y-3220200D01*
X2265240Y-3220200D01*
X2266760Y-3220500D01*
X2268060Y-3221380D01*
X2268920Y-3222660D01*
X2269240Y-3224200D01*
X2269240Y-3230760D01*
X2293660Y-3230760D01*
X2293660Y-3224200D01*
X2293960Y-3222660D01*
X2294840Y-3221380D01*
X2296140Y-3220500D01*
X2297660Y-3220200D01*
X2409200Y-3220200D01*
X2412360Y-3219880D01*
X2415200Y-3219020D01*
X2417840Y-3217620D01*
X2420280Y-3215600D01*
X2455600Y-3180280D01*
X2457620Y-3177840D01*
X2459020Y-3175200D01*
X2459880Y-3172360D01*
X2460200Y-3169200D01*
X2460200Y-3081340D01*
X2460500Y-3079800D01*
X2461380Y-3078500D01*
X2462660Y-3077640D01*
X2464200Y-3077340D01*
X2465740Y-3077640D01*
X2467020Y-3078500D01*
X2511720Y-3123200D01*
X2512520Y-3124340D01*
X2512880Y-3125680D01*
X2513160Y-3128860D01*
X2514160Y-3132580D01*
X2515800Y-3136100D01*
X2518020Y-3139260D01*
X2520740Y-3142000D01*
X2523920Y-3144220D01*
X2527420Y-3145840D01*
X2531160Y-3146840D01*
X2535020Y-3147180D01*
X2538860Y-3146840D01*
X2542600Y-3145840D01*
X2546100Y-3144220D01*
X2549280Y-3142000D01*
X2552000Y-3139260D01*
X2554220Y-3136100D01*
X2555860Y-3132580D01*
X2556860Y-3128860D01*
X2557200Y-3125000D01*
X2556860Y-3121139D01*
X2555860Y-3117420D01*
X2554220Y-3113900D01*
X2552000Y-3110740D01*
X2549280Y-3108000D01*
X2546100Y-3105779D01*
X2542600Y-3104160D01*
X2538860Y-3103159D01*
X2535720Y-3102880D01*
X2534380Y-3102520D01*
X2533240Y-3101720D01*
X2481400Y-3049880D01*
X2480520Y-3048580D01*
X2480220Y-3047040D01*
X2480220Y-2505200D01*
X2479900Y-2502040D01*
X2479040Y-2499200D01*
X2477640Y-2496560D01*
X2475620Y-2494120D01*
X2320900Y-2339400D01*
X2318460Y-2337380D01*
X2315820Y-2335980D01*
X2312980Y-2335120D01*
X2309820Y-2334800D01*
X2293540Y-2334800D01*
X2292000Y-2334500D01*
X2290700Y-2333620D01*
X2289840Y-2332300D01*
X2289340Y-2331060D01*
X2286580Y-2326180D01*
X2283240Y-2321700D01*
X2277860Y-2316060D01*
X2277420Y-2314500D01*
X2277620Y-2312880D01*
X2278460Y-2311480D01*
X2279800Y-2310540D01*
X2281400Y-2310200D01*
X2494120Y-2310200D01*
X2495640Y-2310500D01*
X2496940Y-2311380D01*
X2588639Y-2403080D01*
X2589520Y-2404380D01*
X2589820Y-2405900D01*
X2589820Y-3194100D01*
X2589520Y-3195620D01*
X2588639Y-3196920D01*
X2496940Y-3288620D01*
X2495640Y-3289500D01*
X2494120Y-3289800D01*
X2297400Y-3289800D01*
X2295760Y-3289460D01*
X2294420Y-3288460D01*
X2293600Y-3287020D01*
X2293420Y-3285360D01*
X2293660Y-3283240D01*
X2293660Y-3269240D01*
X2269240Y-3269240D01*
X2269240Y-3285800D01*
X2268920Y-3287340D01*
X2268060Y-3288620D01*
X2266760Y-3289500D01*
X2265240Y-3289800D01*
X2234760Y-3289800D01*
X2233240Y-3289500D01*
X2231940Y-3288620D01*
X2231080Y-3287340D01*
X2230760Y-3285800D01*
X2230760Y-3269240D01*
X2206340Y-3269240D01*
X2206340Y-3283240D01*
X2206580Y-3285360D01*
X2206400Y-3287020D01*
X2205580Y-3288460D01*
X2204240Y-3289460D01*
X2202600Y-3289800D01*
X2181340Y-3289800D01*
X2179780Y-3289480D01*
X2178460Y-3288580D01*
X2177600Y-3287240D01*
X2177340Y-3285680D01*
X2177700Y-3284120D01*
X2178640Y-3282840D01*
X2181360Y-3280380D01*
X2184980Y-3276120D01*
X2188040Y-3271420D01*
X2190460Y-3266380D01*
X2192220Y-3261080D01*
X2193300Y-3255580D01*
X2193660Y-3250000D01*
X2193300Y-3244420D01*
X2192220Y-3238920D01*
X2190460Y-3233620D01*
X2188040Y-3228580D01*
X2184980Y-3223880D01*
X2181360Y-3219620D01*
X2177220Y-3215860D01*
X2172640Y-3212660D01*
X2167680Y-3210080D01*
X2162420Y-3208140D01*
X2156960Y-3206900D01*
X2151400Y-3206360D01*
X2145800Y-3206540D01*
X2140280Y-3207440D01*
X2134920Y-3209040D01*
X2129800Y-3211300D01*
X2125020Y-3214200D01*
X2120640Y-3217679D01*
X2116760Y-3221700D01*
X2113420Y-3226180D01*
X2110660Y-3231060D01*
X2108560Y-3236240D01*
X2107140Y-3241660D01*
X2106440Y-3247200D01*
X2106440Y-3252799D01*
X2107140Y-3258340D01*
X2108560Y-3263759D01*
X2110660Y-3268940D01*
X2113420Y-3273820D01*
X2116760Y-3278300D01*
X2122140Y-3283940D01*
X2122580Y-3285500D01*
X2122380Y-3287120D01*
X2121540Y-3288519D01*
X2120200Y-3289460D01*
X2118600Y-3289800D01*
X2081339Y-3289800D01*
X2079780Y-3289480D01*
X2078460Y-3288580D01*
X2077600Y-3287240D01*
X2077340Y-3285680D01*
X2077700Y-3284120D01*
X2078640Y-3282840D01*
X2081360Y-3280380D01*
X2084980Y-3276120D01*
X2088040Y-3271420D01*
X2090460Y-3266380D01*
X2092220Y-3261080D01*
X2093300Y-3255580D01*
X2093660Y-3250000D01*
X2093300Y-3244420D01*
X2092220Y-3238920D01*
X2090460Y-3233620D01*
X2088040Y-3228580D01*
X2084980Y-3223880D01*
X2081360Y-3219620D01*
X2077220Y-3215860D01*
X2072640Y-3212660D01*
X2067680Y-3210080D01*
X2062420Y-3208140D01*
X2056960Y-3206900D01*
X2051399Y-3206360D01*
X2045800Y-3206540D01*
X2040280Y-3207440D01*
X2034920Y-3209040D01*
X2029800Y-3211300D01*
X2025020Y-3214200D01*
X2020640Y-3217679D01*
X2016759Y-3221700D01*
X2013420Y-3226180D01*
X2010660Y-3231060D01*
X2008560Y-3236240D01*
X2007140Y-3241660D01*
X2006440Y-3247200D01*
X2006440Y-3252799D01*
X2007140Y-3258340D01*
X2008560Y-3263759D01*
X2010660Y-3268940D01*
X2013420Y-3273820D01*
X2016320Y-3277720D01*
X2016980Y-3279100D01*
X2017080Y-3280620D01*
X2016600Y-3282080D01*
X2015600Y-3283240D01*
X2014240Y-3283940D01*
X2012720Y-3284080D01*
X2010000Y-3283820D01*
X2006840Y-3284140D01*
X2003800Y-3285059D01*
X2001879Y-3286080D01*
X2000640Y-3286500D01*
X1999340Y-3286500D01*
X1998100Y-3286080D01*
X1996180Y-3285059D01*
X1993140Y-3284140D01*
X1990000Y-3283820D01*
X1987220Y-3284100D01*
X1985660Y-3283940D01*
X1984280Y-3283180D01*
X1983300Y-3281960D01*
X1982840Y-3280460D01*
X1983020Y-3278900D01*
X1983779Y-3277520D01*
X1984980Y-3276120D01*
X1988040Y-3271420D01*
X1990460Y-3266380D01*
X1992220Y-3261080D01*
X1993300Y-3255580D01*
X1993660Y-3250000D01*
X1993300Y-3244420D01*
X1992220Y-3238920D01*
X1990460Y-3233620D01*
X1988040Y-3228580D01*
X1984980Y-3223880D01*
X1981360Y-3219620D01*
X1977220Y-3215860D01*
X1972640Y-3212660D01*
X1967680Y-3210080D01*
X1962420Y-3208140D01*
X1956960Y-3206900D01*
X1951399Y-3206360D01*
X1945800Y-3206540D01*
X1940280Y-3207440D01*
X1934920Y-3209040D01*
X1929800Y-3211300D01*
X1925020Y-3214200D01*
X1920640Y-3217679D01*
X1916759Y-3221700D01*
X1913420Y-3226180D01*
X1910660Y-3231060D01*
X1908560Y-3236240D01*
X1907140Y-3241660D01*
X1906440Y-3247200D01*
X1906440Y-3252799D01*
X1907140Y-3258340D01*
X1908560Y-3263759D01*
X1910660Y-3268940D01*
X1913420Y-3273820D01*
X1916759Y-3278300D01*
X1920640Y-3282320D01*
X1925020Y-3285800D01*
X1927940Y-3287580D01*
X1929199Y-3288759D01*
X1929820Y-3290360D01*
X1929720Y-3292080D01*
X1928920Y-3293600D01*
X1927560Y-3294640D01*
X1925880Y-3295000D01*
G37*

%LPD*%
G36*
X2177580Y-4289800D02*
G01*
X2176020Y-4289480D01*
X2174700Y-4288560D01*
X2173840Y-4287200D01*
X2173580Y-4285620D01*
X2173980Y-4284080D01*
X2174940Y-4282800D01*
X2179120Y-4279120D01*
X2182680Y-4275080D01*
X2185680Y-4270600D01*
X2188060Y-4265760D01*
X2189780Y-4260660D01*
X2190840Y-4255380D01*
X2191200Y-4250000D01*
X2190840Y-4244620D01*
X2189780Y-4239340D01*
X2188060Y-4234240D01*
X2185680Y-4229400D01*
X2182680Y-4224920D01*
X2179120Y-4220880D01*
X2175080Y-4217320D01*
X2170600Y-4214320D01*
X2167440Y-4212760D01*
X2166260Y-4211880D01*
X2165480Y-4210620D01*
X2165200Y-4209180D01*
X2165200Y-4175200D01*
X2164880Y-4172040D01*
X2164020Y-4169200D01*
X2162620Y-4166560D01*
X2160600Y-4164120D01*
X2045880Y-4049400D01*
X2043440Y-4047380D01*
X2040800Y-4045980D01*
X2037960Y-4045120D01*
X2034800Y-4044800D01*
X1237960Y-4044800D01*
X1236420Y-4044500D01*
X1235120Y-4043620D01*
X1118280Y-3926780D01*
X1117480Y-3925640D01*
X1117120Y-3924300D01*
X1116840Y-3921139D01*
X1115840Y-3917420D01*
X1114220Y-3913900D01*
X1112000Y-3910740D01*
X1109260Y-3908000D01*
X1106100Y-3905779D01*
X1102580Y-3904160D01*
X1101500Y-3903860D01*
X1099980Y-3903060D01*
X1098920Y-3901700D01*
X1098540Y-3900000D01*
X1098920Y-3898300D01*
X1099980Y-3896940D01*
X1101500Y-3896139D01*
X1102580Y-3895840D01*
X1106100Y-3894220D01*
X1109260Y-3892000D01*
X1112000Y-3889260D01*
X1114220Y-3886100D01*
X1115840Y-3882580D01*
X1116840Y-3878860D01*
X1117180Y-3875000D01*
X1116840Y-3871139D01*
X1115840Y-3867420D01*
X1114220Y-3863900D01*
X1112000Y-3860740D01*
X1109260Y-3858000D01*
X1106100Y-3855779D01*
X1102580Y-3854160D01*
X1101500Y-3853860D01*
X1099980Y-3853060D01*
X1098920Y-3851700D01*
X1098540Y-3850000D01*
X1098920Y-3848300D01*
X1099980Y-3846940D01*
X1101500Y-3846139D01*
X1102580Y-3845840D01*
X1106100Y-3844220D01*
X1109260Y-3842000D01*
X1112000Y-3839260D01*
X1114220Y-3836100D01*
X1115840Y-3832580D01*
X1116840Y-3828860D01*
X1117180Y-3825000D01*
X1116840Y-3821139D01*
X1115840Y-3817420D01*
X1115140Y-3815899D01*
X1114760Y-3814340D01*
X1115020Y-3812760D01*
X1115880Y-3811420D01*
X1117200Y-3810520D01*
X1118760Y-3810200D01*
X1312040Y-3810200D01*
X1313580Y-3810500D01*
X1314880Y-3811380D01*
X1480440Y-3976920D01*
X1481380Y-3978420D01*
X1482940Y-3982820D01*
X1484160Y-3987580D01*
X1485780Y-3991100D01*
X1488000Y-3994260D01*
X1490740Y-3997000D01*
X1493899Y-3999220D01*
X1497420Y-4000840D01*
X1501140Y-4001840D01*
X1505000Y-4002180D01*
X1508860Y-4001840D01*
X1512580Y-4000840D01*
X1516100Y-3999220D01*
X1519259Y-3997000D01*
X1522000Y-3994260D01*
X1524220Y-3991100D01*
X1525840Y-3987580D01*
X1527060Y-3982820D01*
X1528620Y-3978420D01*
X1529560Y-3976920D01*
X1535120Y-3971380D01*
X1536420Y-3970500D01*
X1537960Y-3970200D01*
X1744199Y-3970200D01*
X1745840Y-3970560D01*
X1747180Y-3971540D01*
X1748020Y-3973000D01*
X1748180Y-3974660D01*
X1747640Y-3976259D01*
X1746500Y-3977480D01*
X1745740Y-3978000D01*
X1743000Y-3980740D01*
X1740780Y-3983900D01*
X1739160Y-3987420D01*
X1738160Y-3991139D01*
X1737820Y-3995000D01*
X1738160Y-3998860D01*
X1739160Y-4002580D01*
X1740780Y-4006100D01*
X1743000Y-4009260D01*
X1745740Y-4012000D01*
X1748899Y-4014220D01*
X1752420Y-4015840D01*
X1756140Y-4016840D01*
X1760000Y-4017180D01*
X1763860Y-4016840D01*
X1767580Y-4015840D01*
X1768180Y-4015580D01*
X1769860Y-4015200D01*
X1974920Y-4015200D01*
X1976759Y-4015120D01*
X1978500Y-4014880D01*
X1980220Y-4014500D01*
X1981900Y-4013980D01*
X1983540Y-4013300D01*
X1985100Y-4012500D01*
X1986579Y-4011540D01*
X1987980Y-4010480D01*
X1989340Y-4009220D01*
X2027200Y-3971380D01*
X2028500Y-3970500D01*
X2030020Y-3970200D01*
X2063000Y-3970200D01*
X2064660Y-3970560D01*
X2066040Y-3971600D01*
X2066840Y-3973120D01*
X2066940Y-3974820D01*
X2066320Y-3976420D01*
X2064319Y-3979400D01*
X2061940Y-3984240D01*
X2060220Y-3989340D01*
X2059160Y-3994620D01*
X2058800Y-4000000D01*
X2059160Y-4005380D01*
X2060220Y-4010659D01*
X2061940Y-4015760D01*
X2064319Y-4020600D01*
X2067320Y-4025080D01*
X2070880Y-4029120D01*
X2074920Y-4032679D01*
X2079400Y-4035680D01*
X2084240Y-4038060D01*
X2089340Y-4039780D01*
X2094620Y-4040840D01*
X2100000Y-4041200D01*
X2105380Y-4040840D01*
X2110660Y-4039780D01*
X2115760Y-4038060D01*
X2120600Y-4035680D01*
X2125080Y-4032679D01*
X2129120Y-4029120D01*
X2132680Y-4025080D01*
X2135680Y-4020600D01*
X2138060Y-4015760D01*
X2139780Y-4010659D01*
X2140840Y-4005380D01*
X2141200Y-4000000D01*
X2140840Y-3994620D01*
X2139780Y-3989340D01*
X2138060Y-3984240D01*
X2135680Y-3979400D01*
X2133680Y-3976420D01*
X2133060Y-3974820D01*
X2133160Y-3973120D01*
X2133960Y-3971600D01*
X2135340Y-3970560D01*
X2137000Y-3970200D01*
X2154800Y-3970200D01*
X2156340Y-3970500D01*
X2157620Y-3971380D01*
X2158500Y-3972660D01*
X2158800Y-3974200D01*
X2158800Y-3982000D01*
X2182000Y-3982000D01*
X2182000Y-3974200D01*
X2182300Y-3972660D01*
X2183180Y-3971380D01*
X2184460Y-3970500D01*
X2186000Y-3970200D01*
X2214000Y-3970200D01*
X2215540Y-3970500D01*
X2216820Y-3971380D01*
X2217700Y-3972660D01*
X2218000Y-3974200D01*
X2218000Y-3982000D01*
X2241200Y-3982000D01*
X2241200Y-3974200D01*
X2241500Y-3972660D01*
X2242380Y-3971380D01*
X2243660Y-3970500D01*
X2245200Y-3970200D01*
X2274920Y-3970200D01*
X2276760Y-3970120D01*
X2278500Y-3969880D01*
X2280220Y-3969500D01*
X2281900Y-3968980D01*
X2283540Y-3968300D01*
X2285100Y-3967500D01*
X2286580Y-3966540D01*
X2287980Y-3965480D01*
X2289340Y-3964220D01*
X2332200Y-3921380D01*
X2333500Y-3920500D01*
X2335020Y-3920200D01*
X2397200Y-3920200D01*
X2398600Y-3920460D01*
X2399820Y-3921180D01*
X2414740Y-3934160D01*
X2418180Y-3936920D01*
X2423020Y-3939980D01*
X2428200Y-3942420D01*
X2433660Y-3944200D01*
X2439280Y-3945260D01*
X2445000Y-3945620D01*
X2450720Y-3945260D01*
X2456340Y-3944200D01*
X2461800Y-3942420D01*
X2466980Y-3939980D01*
X2471820Y-3936920D01*
X2476240Y-3933260D01*
X2480160Y-3929080D01*
X2483520Y-3924440D01*
X2486280Y-3919420D01*
X2488400Y-3914100D01*
X2489820Y-3908540D01*
X2490540Y-3902860D01*
X2490540Y-3897140D01*
X2489820Y-3891460D01*
X2488400Y-3885899D01*
X2486280Y-3880580D01*
X2483520Y-3875560D01*
X2480160Y-3870920D01*
X2476240Y-3866740D01*
X2471820Y-3863080D01*
X2466980Y-3860020D01*
X2461800Y-3857580D01*
X2456340Y-3855800D01*
X2450720Y-3854740D01*
X2447700Y-3854440D01*
X2428040Y-3853080D01*
X2426660Y-3852720D01*
X2425480Y-3851920D01*
X2421340Y-3847760D01*
X2420460Y-3846440D01*
X2420160Y-3844880D01*
X2420500Y-3843340D01*
X2421420Y-3842040D01*
X2422760Y-3841200D01*
X2424320Y-3840940D01*
X2425860Y-3841320D01*
X2428200Y-3842420D01*
X2433660Y-3844200D01*
X2439280Y-3845260D01*
X2445000Y-3845620D01*
X2450720Y-3845260D01*
X2456340Y-3844200D01*
X2461800Y-3842420D01*
X2466980Y-3839980D01*
X2471820Y-3836920D01*
X2476240Y-3833260D01*
X2480160Y-3829080D01*
X2483520Y-3824440D01*
X2486280Y-3819420D01*
X2488400Y-3814100D01*
X2489820Y-3808540D01*
X2490540Y-3802860D01*
X2490540Y-3797140D01*
X2489820Y-3791460D01*
X2488400Y-3785899D01*
X2486280Y-3780580D01*
X2483520Y-3775560D01*
X2480160Y-3770920D01*
X2476240Y-3766740D01*
X2471820Y-3763080D01*
X2466980Y-3760020D01*
X2461800Y-3757580D01*
X2456340Y-3755800D01*
X2450720Y-3754740D01*
X2445000Y-3754380D01*
X2439280Y-3754740D01*
X2433660Y-3755800D01*
X2428200Y-3757580D01*
X2423020Y-3760020D01*
X2418180Y-3763080D01*
X2413760Y-3766740D01*
X2409840Y-3770920D01*
X2406480Y-3775560D01*
X2403720Y-3780580D01*
X2401600Y-3785899D01*
X2400180Y-3791460D01*
X2399460Y-3797140D01*
X2399460Y-3802860D01*
X2400180Y-3808540D01*
X2401600Y-3814100D01*
X2403640Y-3819220D01*
X2403920Y-3820740D01*
X2403600Y-3822260D01*
X2402720Y-3823540D01*
X2401420Y-3824400D01*
X2399900Y-3824700D01*
X2398380Y-3824380D01*
X2397080Y-3823519D01*
X2359340Y-3785779D01*
X2357980Y-3784520D01*
X2356580Y-3783460D01*
X2355100Y-3782500D01*
X2353540Y-3781700D01*
X2351900Y-3781019D01*
X2350220Y-3780500D01*
X2348500Y-3780120D01*
X2346760Y-3779880D01*
X2344920Y-3779800D01*
X2241440Y-3779800D01*
X2240060Y-3779560D01*
X2238860Y-3778860D01*
X2225140Y-3767360D01*
X2220600Y-3764320D01*
X2215760Y-3761940D01*
X2210660Y-3760220D01*
X2205380Y-3759160D01*
X2200000Y-3758800D01*
X2194620Y-3759160D01*
X2189340Y-3760220D01*
X2184240Y-3761940D01*
X2179400Y-3764320D01*
X2174920Y-3767320D01*
X2170880Y-3770880D01*
X2167320Y-3774920D01*
X2164320Y-3779400D01*
X2161940Y-3784240D01*
X2160220Y-3789340D01*
X2159160Y-3794620D01*
X2158800Y-3800000D01*
X2159160Y-3805380D01*
X2160220Y-3810659D01*
X2161940Y-3815760D01*
X2164320Y-3820600D01*
X2167320Y-3825080D01*
X2170880Y-3829120D01*
X2174920Y-3832679D01*
X2179400Y-3835680D01*
X2184240Y-3838060D01*
X2189340Y-3839780D01*
X2194620Y-3840840D01*
X2200000Y-3841200D01*
X2205380Y-3840840D01*
X2210660Y-3839780D01*
X2215760Y-3838060D01*
X2220600Y-3835680D01*
X2225140Y-3832640D01*
X2238860Y-3821139D01*
X2240060Y-3820440D01*
X2241440Y-3820200D01*
X2334980Y-3820200D01*
X2336500Y-3820500D01*
X2337800Y-3821380D01*
X2389400Y-3872980D01*
X2390280Y-3874260D01*
X2390580Y-3875800D01*
X2390280Y-3877340D01*
X2389400Y-3878620D01*
X2388100Y-3879500D01*
X2386580Y-3879800D01*
X2325080Y-3879800D01*
X2323240Y-3879880D01*
X2321500Y-3880120D01*
X2319780Y-3880500D01*
X2318100Y-3881019D01*
X2316460Y-3881700D01*
X2314900Y-3882500D01*
X2313420Y-3883460D01*
X2312020Y-3884520D01*
X2310660Y-3885779D01*
X2267800Y-3928620D01*
X2266500Y-3929500D01*
X2264980Y-3929800D01*
X2237000Y-3929800D01*
X2235340Y-3929440D01*
X2233960Y-3928399D01*
X2233160Y-3926880D01*
X2233060Y-3925179D01*
X2233680Y-3923580D01*
X2235680Y-3920600D01*
X2238060Y-3915760D01*
X2239780Y-3910659D01*
X2240840Y-3905380D01*
X2241200Y-3900000D01*
X2240840Y-3894620D01*
X2239780Y-3889340D01*
X2238060Y-3884240D01*
X2235680Y-3879400D01*
X2232680Y-3874920D01*
X2229120Y-3870880D01*
X2225080Y-3867320D01*
X2220600Y-3864320D01*
X2215760Y-3861940D01*
X2210660Y-3860220D01*
X2205380Y-3859160D01*
X2200000Y-3858800D01*
X2194620Y-3859160D01*
X2189340Y-3860220D01*
X2184240Y-3861940D01*
X2179400Y-3864320D01*
X2174920Y-3867320D01*
X2170880Y-3870880D01*
X2167320Y-3874920D01*
X2164320Y-3879400D01*
X2161940Y-3884240D01*
X2160220Y-3889340D01*
X2159160Y-3894620D01*
X2158800Y-3900000D01*
X2159160Y-3905380D01*
X2160220Y-3910659D01*
X2161940Y-3915760D01*
X2164320Y-3920600D01*
X2166320Y-3923580D01*
X2166940Y-3925179D01*
X2166840Y-3926880D01*
X2166040Y-3928399D01*
X2164660Y-3929440D01*
X2163000Y-3929800D01*
X2137000Y-3929800D01*
X2135340Y-3929440D01*
X2133960Y-3928399D01*
X2133160Y-3926880D01*
X2133060Y-3925179D01*
X2133680Y-3923580D01*
X2135680Y-3920600D01*
X2138060Y-3915760D01*
X2139780Y-3910659D01*
X2140840Y-3905380D01*
X2141200Y-3900000D01*
X2140840Y-3894620D01*
X2139780Y-3889340D01*
X2138060Y-3884240D01*
X2135680Y-3879400D01*
X2132680Y-3874920D01*
X2129120Y-3870880D01*
X2125080Y-3867320D01*
X2120600Y-3864320D01*
X2115760Y-3861940D01*
X2110660Y-3860220D01*
X2105380Y-3859160D01*
X2100000Y-3858800D01*
X2094620Y-3859160D01*
X2089340Y-3860220D01*
X2084240Y-3861940D01*
X2079400Y-3864320D01*
X2074920Y-3867320D01*
X2070880Y-3870880D01*
X2067320Y-3874920D01*
X2064319Y-3879400D01*
X2061940Y-3884240D01*
X2060220Y-3889340D01*
X2059160Y-3894620D01*
X2058800Y-3900000D01*
X2059160Y-3905380D01*
X2060220Y-3910659D01*
X2061940Y-3915760D01*
X2064319Y-3920600D01*
X2066320Y-3923580D01*
X2066940Y-3925179D01*
X2066840Y-3926880D01*
X2066040Y-3928399D01*
X2064660Y-3929440D01*
X2063000Y-3929800D01*
X2020080Y-3929800D01*
X2018240Y-3929880D01*
X2016500Y-3930120D01*
X2014780Y-3930500D01*
X2013100Y-3931019D01*
X2011459Y-3931700D01*
X2009900Y-3932500D01*
X2008420Y-3933460D01*
X2007020Y-3934520D01*
X2005660Y-3935779D01*
X1967800Y-3973620D01*
X1966500Y-3974500D01*
X1964980Y-3974800D01*
X1855860Y-3974800D01*
X1854280Y-3974480D01*
X1852940Y-3973540D01*
X1852100Y-3972140D01*
X1851879Y-3970539D01*
X1852300Y-3968980D01*
X1853320Y-3967700D01*
X1855880Y-3965600D01*
X2227240Y-3594260D01*
X2228380Y-3593460D01*
X2229720Y-3593100D01*
X2255300Y-3590860D01*
X2260660Y-3589780D01*
X2265760Y-3588060D01*
X2270600Y-3585680D01*
X2275080Y-3582679D01*
X2279120Y-3579120D01*
X2282680Y-3575080D01*
X2285680Y-3570600D01*
X2288060Y-3565760D01*
X2289780Y-3560659D01*
X2290840Y-3555380D01*
X2291200Y-3550000D01*
X2290840Y-3544620D01*
X2289780Y-3539340D01*
X2288060Y-3534240D01*
X2285680Y-3529400D01*
X2282680Y-3524920D01*
X2279120Y-3520880D01*
X2274940Y-3517200D01*
X2273980Y-3515920D01*
X2273580Y-3514380D01*
X2273840Y-3512799D01*
X2274700Y-3511440D01*
X2276020Y-3510520D01*
X2277580Y-3510200D01*
X2394120Y-3510200D01*
X2395640Y-3510500D01*
X2396940Y-3511380D01*
X2588620Y-3703060D01*
X2589500Y-3704360D01*
X2589800Y-3705880D01*
X2589800Y-4094120D01*
X2589500Y-4095640D01*
X2588620Y-4096940D01*
X2396940Y-4288620D01*
X2395640Y-4289500D01*
X2394120Y-4289800D01*
X2294280Y-4289800D01*
X2292780Y-4289520D01*
X2291500Y-4288700D01*
X2290620Y-4287460D01*
X2290280Y-4285980D01*
X2290500Y-4284480D01*
X2290920Y-4283260D01*
X2291200Y-4280780D01*
X2291200Y-4268000D01*
X2268000Y-4268000D01*
X2268000Y-4285800D01*
X2267700Y-4287340D01*
X2266820Y-4288620D01*
X2265540Y-4289500D01*
X2264000Y-4289800D01*
X2236000Y-4289800D01*
X2234480Y-4289500D01*
X2233180Y-4288620D01*
X2232300Y-4287340D01*
X2232000Y-4285800D01*
X2232000Y-4268000D01*
X2208800Y-4268000D01*
X2208800Y-4280780D01*
X2209080Y-4283260D01*
X2209500Y-4284480D01*
X2209720Y-4285980D01*
X2209380Y-4287460D01*
X2208500Y-4288700D01*
X2207220Y-4289520D01*
X2205740Y-4289800D01*
G37*

%LPC*%
G36*
X2268000Y-4232000D02*
G01*
X2291200Y-4232000D01*
X2291200Y-4219220D01*
X2290920Y-4216740D01*
X2290160Y-4214580D01*
X2288960Y-4212660D01*
X2287340Y-4211040D01*
X2285420Y-4209840D01*
X2283260Y-4209080D01*
X2280780Y-4208800D01*
X2268000Y-4208800D01*
G37*
G36*
X2208800Y-4232000D02*
G01*
X2232000Y-4232000D01*
X2232000Y-4208800D01*
X2219220Y-4208800D01*
X2216740Y-4209080D01*
X2214580Y-4209840D01*
X2212660Y-4211040D01*
X2211040Y-4212660D01*
X2209840Y-4214580D01*
X2209080Y-4216740D01*
X2208800Y-4219220D01*
G37*
G36*
X2218000Y-4041200D02*
G01*
X2230780Y-4041200D01*
X2233260Y-4040920D01*
X2235420Y-4040160D01*
X2237340Y-4038960D01*
X2238960Y-4037340D01*
X2240160Y-4035419D01*
X2240920Y-4033260D01*
X2241200Y-4030779D01*
X2241200Y-4018000D01*
X2218000Y-4018000D01*
G37*
G36*
X2169220Y-4041200D02*
G01*
X2182000Y-4041200D01*
X2182000Y-4018000D01*
X2158800Y-4018000D01*
X2158800Y-4030779D01*
X2159080Y-4033260D01*
X2159840Y-4035419D01*
X2161040Y-4037340D01*
X2162660Y-4038960D01*
X2164580Y-4040160D01*
X2166740Y-4040920D01*
G37*
G36*
X2465220Y-4041200D02*
G01*
X2480200Y-4041200D01*
X2482700Y-4040920D01*
X2484840Y-4040160D01*
X2486780Y-4038960D01*
X2488380Y-4037340D01*
X2489600Y-4035419D01*
X2490360Y-4033260D01*
X2490640Y-4030779D01*
X2490640Y-4018000D01*
X2465220Y-4018000D01*
G37*
G36*
X2409800Y-4041200D02*
G01*
X2424780Y-4041200D01*
X2424780Y-4018000D01*
X2399360Y-4018000D01*
X2399360Y-4030779D01*
X2399640Y-4033260D01*
X2400400Y-4035419D01*
X2401620Y-4037340D01*
X2403220Y-4038960D01*
X2405160Y-4040160D01*
X2407300Y-4040920D01*
G37*
G36*
X2399360Y-3982000D02*
G01*
X2424780Y-3982000D01*
X2424780Y-3958800D01*
X2409800Y-3958800D01*
X2407300Y-3959080D01*
X2405160Y-3959840D01*
X2403220Y-3961040D01*
X2401620Y-3962660D01*
X2400400Y-3964580D01*
X2399640Y-3966740D01*
X2399360Y-3969220D01*
G37*
G36*
X2465220Y-3982000D02*
G01*
X2490640Y-3982000D01*
X2490640Y-3969220D01*
X2490360Y-3966740D01*
X2489600Y-3964580D01*
X2488380Y-3962660D01*
X2486780Y-3961040D01*
X2484840Y-3959840D01*
X2482700Y-3959080D01*
X2480200Y-3958800D01*
X2465220Y-3958800D01*
G37*
G36*
X2100000Y-3841200D02*
G01*
X2105380Y-3840840D01*
X2110660Y-3839780D01*
X2115760Y-3838060D01*
X2120600Y-3835680D01*
X2125080Y-3832679D01*
X2129120Y-3829120D01*
X2132680Y-3825080D01*
X2135680Y-3820600D01*
X2138060Y-3815760D01*
X2139780Y-3810659D01*
X2140840Y-3805380D01*
X2141200Y-3800000D01*
X2140840Y-3794620D01*
X2139780Y-3789340D01*
X2138060Y-3784240D01*
X2135680Y-3779400D01*
X2132680Y-3774920D01*
X2129120Y-3770880D01*
X2125080Y-3767320D01*
X2120600Y-3764320D01*
X2115760Y-3761940D01*
X2110660Y-3760220D01*
X2105380Y-3759160D01*
X2100000Y-3758800D01*
X2094620Y-3759160D01*
X2089340Y-3760220D01*
X2084240Y-3761940D01*
X2079400Y-3764320D01*
X2074920Y-3767320D01*
X2070880Y-3770880D01*
X2067320Y-3774920D01*
X2064319Y-3779400D01*
X2061940Y-3784240D01*
X2060220Y-3789340D01*
X2059160Y-3794620D01*
X2058800Y-3800000D01*
X2059160Y-3805380D01*
X2060220Y-3810659D01*
X2061940Y-3815760D01*
X2064319Y-3820600D01*
X2067320Y-3825080D01*
X2070880Y-3829120D01*
X2074920Y-3832679D01*
X2079400Y-3835680D01*
X2084240Y-3838060D01*
X2089340Y-3839780D01*
X2094620Y-3840840D01*
G37*

%LPD*%
G36*
X905879Y-4389800D02*
G01*
X904360Y-4389500D01*
X903060Y-4388620D01*
X807320Y-4292900D01*
X806180Y-4291920D01*
X803640Y-4290520D01*
X801520Y-4289920D01*
X799840Y-4289800D01*
X205880Y-4289800D01*
X204360Y-4289500D01*
X203060Y-4288620D01*
X11379Y-4096940D01*
X10500Y-4095640D01*
X10200Y-4094120D01*
X10200Y-3705880D01*
X10500Y-3704360D01*
X11379Y-3703060D01*
X203060Y-3511380D01*
X204360Y-3510500D01*
X205880Y-3510200D01*
X549760Y-3510200D01*
X552320Y-3509880D01*
X553420Y-3509480D01*
X555040Y-3509220D01*
X556640Y-3509640D01*
X557920Y-3510680D01*
X558560Y-3511440D01*
X561020Y-3513460D01*
X563800Y-3514940D01*
X566840Y-3515860D01*
X570000Y-3516180D01*
X573160Y-3515860D01*
X576200Y-3514940D01*
X578120Y-3513920D01*
X579340Y-3513500D01*
X580660Y-3513500D01*
X581880Y-3513920D01*
X583800Y-3514940D01*
X586840Y-3515860D01*
X590000Y-3516180D01*
X593160Y-3515860D01*
X596200Y-3514940D01*
X598120Y-3513920D01*
X599340Y-3513500D01*
X600660Y-3513500D01*
X601880Y-3513920D01*
X603800Y-3514940D01*
X606840Y-3515860D01*
X610000Y-3516180D01*
X613160Y-3515860D01*
X616200Y-3514940D01*
X618120Y-3513920D01*
X619340Y-3513500D01*
X620660Y-3513500D01*
X621880Y-3513920D01*
X623800Y-3514940D01*
X626840Y-3515860D01*
X630000Y-3516180D01*
X633160Y-3515860D01*
X636200Y-3514940D01*
X638980Y-3513460D01*
X641440Y-3511440D01*
X642060Y-3510680D01*
X643420Y-3509620D01*
X645100Y-3509220D01*
X647140Y-3509740D01*
X650080Y-3510200D01*
X799840Y-3510200D01*
X801340Y-3510080D01*
X804120Y-3509280D01*
X806040Y-3508200D01*
X807320Y-3507100D01*
X903060Y-3411380D01*
X904360Y-3410500D01*
X905879Y-3410200D01*
X1694120Y-3410200D01*
X1695640Y-3410500D01*
X1696940Y-3411380D01*
X1792680Y-3507100D01*
X1793820Y-3508080D01*
X1796360Y-3509480D01*
X1798480Y-3510080D01*
X1800160Y-3510200D01*
X1905740Y-3510200D01*
X1907220Y-3510480D01*
X1908500Y-3511300D01*
X1909379Y-3512540D01*
X1909720Y-3514020D01*
X1909500Y-3515520D01*
X1909079Y-3516740D01*
X1908800Y-3519220D01*
X1908800Y-3580779D01*
X1909079Y-3583260D01*
X1909840Y-3585419D01*
X1911040Y-3587340D01*
X1912660Y-3588960D01*
X1914580Y-3590160D01*
X1916740Y-3590920D01*
X1919220Y-3591200D01*
X1977660Y-3591200D01*
X1979180Y-3591500D01*
X1980480Y-3592380D01*
X1981360Y-3593660D01*
X1981660Y-3595200D01*
X1981360Y-3596740D01*
X1980480Y-3598020D01*
X1719880Y-3858620D01*
X1718580Y-3859500D01*
X1717060Y-3859800D01*
X1529540Y-3859800D01*
X1527820Y-3859420D01*
X1523260Y-3857240D01*
X1521100Y-3855779D01*
X1517580Y-3854160D01*
X1513860Y-3853159D01*
X1510000Y-3852820D01*
X1506140Y-3853159D01*
X1502420Y-3854160D01*
X1498899Y-3855779D01*
X1495740Y-3858000D01*
X1493000Y-3860740D01*
X1490780Y-3863900D01*
X1489160Y-3867420D01*
X1488160Y-3871139D01*
X1487820Y-3875000D01*
X1487940Y-3876480D01*
X1487760Y-3878080D01*
X1486940Y-3879480D01*
X1485660Y-3880460D01*
X1484079Y-3880820D01*
X1482480Y-3880539D01*
X1481140Y-3879660D01*
X1361200Y-3759800D01*
X1360740Y-3759260D01*
X1358440Y-3757380D01*
X1355800Y-3755980D01*
X1352960Y-3755120D01*
X1349800Y-3754800D01*
X800200Y-3754800D01*
X797039Y-3755120D01*
X794200Y-3755980D01*
X791560Y-3757380D01*
X789120Y-3759400D01*
X744400Y-3804120D01*
X742380Y-3806560D01*
X740980Y-3809200D01*
X740120Y-3812040D01*
X739800Y-3815200D01*
X739800Y-4042280D01*
X739500Y-4043820D01*
X738620Y-4045120D01*
X738000Y-4045740D01*
X735780Y-4048900D01*
X734160Y-4052420D01*
X733160Y-4056139D01*
X732820Y-4060000D01*
X733160Y-4063860D01*
X734160Y-4067580D01*
X735780Y-4071100D01*
X738000Y-4074260D01*
X740740Y-4077000D01*
X743900Y-4079220D01*
X747420Y-4080840D01*
X751140Y-4081840D01*
X755000Y-4082180D01*
X758860Y-4081840D01*
X762580Y-4080840D01*
X766100Y-4079220D01*
X769260Y-4077000D01*
X772000Y-4074260D01*
X774220Y-4071100D01*
X775840Y-4067580D01*
X776840Y-4063860D01*
X777180Y-4060000D01*
X776840Y-4056139D01*
X775840Y-4052420D01*
X774220Y-4048900D01*
X772000Y-4045740D01*
X771380Y-4045120D01*
X770500Y-4043820D01*
X770200Y-4042280D01*
X770200Y-3822960D01*
X770500Y-3821420D01*
X771380Y-3820120D01*
X788439Y-3803060D01*
X789720Y-3802200D01*
X791200Y-3801880D01*
X792700Y-3802140D01*
X794000Y-3802960D01*
X794900Y-3804180D01*
X795780Y-3806100D01*
X798000Y-3809260D01*
X800740Y-3812000D01*
X803900Y-3814220D01*
X807420Y-3815840D01*
X811140Y-3816840D01*
X815000Y-3817180D01*
X818860Y-3816840D01*
X822580Y-3815840D01*
X826100Y-3814220D01*
X828259Y-3812760D01*
X832820Y-3810580D01*
X834539Y-3810200D01*
X1071240Y-3810200D01*
X1072800Y-3810520D01*
X1074120Y-3811420D01*
X1074980Y-3812760D01*
X1075240Y-3814340D01*
X1074860Y-3815899D01*
X1074160Y-3817420D01*
X1072940Y-3822180D01*
X1071380Y-3826580D01*
X1070440Y-3828080D01*
X1029400Y-3869120D01*
X1027380Y-3871560D01*
X1025980Y-3874200D01*
X1025120Y-3877040D01*
X1024800Y-3880200D01*
X1024800Y-3944800D01*
X1025120Y-3947960D01*
X1025980Y-3950800D01*
X1027380Y-3953440D01*
X1029400Y-3955880D01*
X1184120Y-4110600D01*
X1186560Y-4112620D01*
X1189200Y-4114020D01*
X1192040Y-4114880D01*
X1195200Y-4115200D01*
X1862060Y-4115200D01*
X1863580Y-4115500D01*
X1864880Y-4116380D01*
X1933640Y-4185120D01*
X1934500Y-4186420D01*
X1934820Y-4187960D01*
X1934820Y-4209180D01*
X1934540Y-4210620D01*
X1933760Y-4211880D01*
X1932580Y-4212760D01*
X1929400Y-4214320D01*
X1924920Y-4217320D01*
X1920880Y-4220880D01*
X1917320Y-4224920D01*
X1914319Y-4229400D01*
X1911940Y-4234240D01*
X1910220Y-4239340D01*
X1909160Y-4244620D01*
X1908800Y-4250000D01*
X1909160Y-4255380D01*
X1910220Y-4260660D01*
X1911940Y-4265760D01*
X1914319Y-4270600D01*
X1917320Y-4275080D01*
X1920880Y-4279120D01*
X1925060Y-4282800D01*
X1926020Y-4284080D01*
X1926420Y-4285620D01*
X1926160Y-4287200D01*
X1925300Y-4288560D01*
X1923980Y-4289480D01*
X1922420Y-4289800D01*
X1800160Y-4289800D01*
X1798660Y-4289920D01*
X1795880Y-4290720D01*
X1793959Y-4291800D01*
X1792680Y-4292900D01*
X1696940Y-4388620D01*
X1695640Y-4389500D01*
X1694120Y-4389800D01*
G37*

%LPC*%
G36*
X77140Y-4071060D02*
G01*
X77140Y-4053279D01*
X54660Y-4053279D01*
X56780Y-4057180D01*
X59520Y-4060820D01*
X62720Y-4064020D01*
X66360Y-4066740D01*
X70340Y-4068920D01*
X74600Y-4070520D01*
G37*
G36*
X117579Y-4071060D02*
G01*
X120100Y-4070520D01*
X124360Y-4068920D01*
X128360Y-4066740D01*
X131980Y-4064020D01*
X135200Y-4060820D01*
X137920Y-4057180D01*
X140040Y-4053279D01*
X117579Y-4053279D01*
G37*
G36*
X54660Y-4026640D02*
G01*
X77140Y-4026640D01*
X77140Y-4008860D01*
X74600Y-4009400D01*
X70340Y-4011000D01*
X66360Y-4013180D01*
X62720Y-4015899D01*
X59520Y-4019100D01*
X56780Y-4022740D01*
G37*
G36*
X117579Y-4026640D02*
G01*
X140040Y-4026640D01*
X137920Y-4022740D01*
X135200Y-4019100D01*
X131980Y-4015899D01*
X128360Y-4013180D01*
X124360Y-4011000D01*
X120100Y-4009400D01*
X117579Y-4008860D01*
G37*
G36*
X77160Y-3811139D02*
G01*
X77160Y-3793360D01*
X54680Y-3793360D01*
X56800Y-3797260D01*
X59520Y-3800899D01*
X62740Y-3804100D01*
X66380Y-3806820D01*
X70360Y-3809000D01*
X74620Y-3810600D01*
G37*
G36*
X117579Y-3811139D02*
G01*
X120120Y-3810600D01*
X124380Y-3809000D01*
X128360Y-3806820D01*
X132000Y-3804100D01*
X135220Y-3800899D01*
X137940Y-3797260D01*
X140060Y-3793360D01*
X117579Y-3793360D01*
G37*
G36*
X54680Y-3766720D02*
G01*
X77160Y-3766720D01*
X77160Y-3748940D01*
X74620Y-3749480D01*
X70360Y-3751080D01*
X66380Y-3753260D01*
X62740Y-3755980D01*
X59520Y-3759180D01*
X56800Y-3762820D01*
G37*
G36*
X117579Y-3766720D02*
G01*
X140060Y-3766720D01*
X137940Y-3762820D01*
X135220Y-3759180D01*
X132000Y-3755980D01*
X128360Y-3753260D01*
X124380Y-3751080D01*
X120120Y-3749480D01*
X117579Y-3748940D01*
G37*

%LPD*%
G36*
X2108020Y-2849920D02*
G01*
X2099240Y-2853020D01*
X2111980Y-2865760D01*
X2115080Y-2856980D01*
G37*
G36*
X2111980Y-2699240D02*
G01*
X2099260Y-2711980D01*
X2108040Y-2715080D01*
X2115100Y-2708020D01*
G37*
G36*
X1496920Y-3909940D02*
G01*
X1489880Y-3917060D01*
X1493020Y-3925800D01*
X1505700Y-3913020D01*
G37*
G36*
X2421560Y-3873420D02*
G01*
X2396760Y-3895000D01*
X2396760Y-3905000D01*
X2421560Y-3926580D01*
G37*
G36*
X1767940Y-3986000D02*
G01*
X1767940Y-4004000D01*
X1776339Y-4000000D01*
X1776339Y-3990000D01*
G37*
G36*
X2219080Y-3548060D02*
G01*
X2216640Y-3576300D01*
X2223700Y-3583380D01*
X2251960Y-3580940D01*
G37*
G36*
X1513020Y-3964920D02*
G01*
X1504240Y-3968020D01*
X1516980Y-3980760D01*
X1520080Y-3971980D01*
G37*
G36*
X1513020Y-3964920D02*
G01*
X1504240Y-3968020D01*
X1516980Y-3980760D01*
X1520080Y-3971980D01*
G37*
G36*
X2414420Y-3862360D02*
G01*
X2407360Y-3869420D01*
X2409640Y-3902220D01*
X2447220Y-3864640D01*
G37*
G36*
X2220500Y-3776760D02*
G01*
X2220500Y-3823240D01*
X2242200Y-3805000D01*
X2242200Y-3795000D01*
G37*
G36*
X2045000Y-4207800D02*
G01*
X2026759Y-4229500D01*
X2073260Y-4229500D01*
X2055000Y-4207800D01*
G37*
G36*
X1496980Y-3964920D02*
G01*
X1489920Y-3971980D01*
X1493020Y-3980760D01*
X1505760Y-3968020D01*
G37*
G36*
X822940Y-3786000D02*
G01*
X822940Y-3804000D01*
X831340Y-3800000D01*
X831340Y-3790000D01*
G37*
G36*
X1083020Y-3824240D02*
G01*
X1079920Y-3833020D01*
X1086980Y-3840080D01*
X1095760Y-3836980D01*
G37*
G36*
X1083020Y-3874240D02*
G01*
X1079920Y-3883020D01*
X1086980Y-3890080D01*
X1095760Y-3886980D01*
G37*
G36*
X1512940Y-3916000D02*
G01*
X1512940Y-3934000D01*
X1521339Y-3930000D01*
X1521339Y-3920000D01*
G37*
G36*
X2119080Y-3548060D02*
G01*
X2116640Y-3576300D01*
X2123700Y-3583380D01*
X2151960Y-3580940D01*
G37*
G36*
X1517940Y-3866000D02*
G01*
X1517940Y-3884000D01*
X1526339Y-3880000D01*
X1526339Y-3870000D01*
G37*
G36*
X2019079Y-3548060D02*
G01*
X2016639Y-3576300D01*
X2023700Y-3583380D01*
X2051960Y-3580940D01*
G37*
G36*
X1946740Y-1019180D02*
G01*
X1918520Y-1021440D01*
X1912640Y-1029720D01*
X1919820Y-1057100D01*
G37*
G36*
X791979Y-654240D02*
G01*
X779240Y-666979D01*
X788020Y-670080D01*
X795080Y-663020D01*
G37*
G36*
X918500Y-712940D02*
G01*
X922500Y-721340D01*
X932500Y-721340D01*
X936500Y-712940D01*
G37*
G36*
X2023700Y-1016620D02*
G01*
X2016620Y-1023700D01*
X2019060Y-1051940D01*
X2051940Y-1019060D01*
G37*
G36*
X2126760Y-370500D02*
G01*
X2145000Y-392200D01*
X2155000Y-392200D01*
X2173240Y-370500D01*
G37*
G36*
X1059800Y-744000D02*
G01*
X1065320Y-761140D01*
X1072160Y-755000D01*
X1068940Y-745000D01*
G37*
G36*
X1047060Y-746000D02*
G01*
X1038660Y-750000D01*
X1038660Y-760000D01*
X1047060Y-764000D01*
G37*
G36*
X410940Y-488060D02*
G01*
X378060Y-520940D01*
X406300Y-523380D01*
X413380Y-516300D01*
G37*
G36*
X772060Y-596000D02*
G01*
X763660Y-600000D01*
X763660Y-610000D01*
X772060Y-614000D01*
G37*
G36*
X1352060Y-846000D02*
G01*
X1343660Y-850000D01*
X1343660Y-860000D01*
X1352060Y-864000D01*
G37*
G36*
X2026759Y-370500D02*
G01*
X2045000Y-392200D01*
X2055000Y-392200D01*
X2073240Y-370500D01*
G37*
G36*
X1063020Y-689920D02*
G01*
X1054240Y-693020D01*
X1066980Y-705759D01*
X1070080Y-696979D01*
G37*
G36*
X1823700Y-1016620D02*
G01*
X1816620Y-1023700D01*
X1819060Y-1051940D01*
X1851940Y-1019060D01*
G37*
G36*
X1367940Y-846000D02*
G01*
X1367940Y-864000D01*
X1376339Y-860000D01*
X1376339Y-850000D01*
G37*
G36*
X310940Y-388060D02*
G01*
X278060Y-420940D01*
X306300Y-423380D01*
X313380Y-416300D01*
G37*
G36*
X1043980Y-691900D02*
G01*
X1038460Y-700540D01*
X1043460Y-708319D01*
X1053140Y-693139D01*
G37*
G36*
X510940Y-388060D02*
G01*
X478060Y-420940D01*
X506300Y-423380D01*
X513380Y-416300D01*
G37*
G36*
X406300Y-356620D02*
G01*
X378060Y-359060D01*
X410940Y-391940D01*
X413380Y-363700D01*
G37*
G36*
X1046979Y-639920D02*
G01*
X1039920Y-646979D01*
X1043020Y-655759D01*
X1055760Y-643020D01*
G37*
G36*
X406300Y-356620D02*
G01*
X378060Y-359060D01*
X410940Y-391940D01*
X413380Y-363700D01*
G37*
G36*
X840939Y466940D02*
G01*
X808060Y434060D01*
X836300Y431620D01*
X843379Y438700D01*
G37*
G36*
X1036979Y165080D02*
G01*
X1029920Y158020D01*
X1033020Y149240D01*
X1045759Y161980D01*
G37*
G36*
X2026759Y529500D02*
G01*
X2045000Y507800D01*
X2055000Y507800D01*
X2073240Y529500D01*
G37*
G36*
X1052940Y159000D02*
G01*
X1052940Y141000D01*
X1061340Y145000D01*
X1061340Y155000D01*
G37*
G36*
X736300Y498380D02*
G01*
X708060Y495940D01*
X740939Y463060D01*
X743379Y491300D01*
G37*
G36*
X1036979Y205080D02*
G01*
X1029920Y198020D01*
X1033020Y189240D01*
X1045759Y201980D01*
G37*
G36*
X740939Y366940D02*
G01*
X708060Y334060D01*
X736300Y331620D01*
X743379Y338700D01*
G37*
G36*
X1037060Y99000D02*
G01*
X1028660Y95000D01*
X1028660Y85000D01*
X1037060Y81000D01*
G37*
G36*
X766979Y255080D02*
G01*
X759920Y248020D01*
X763020Y239240D01*
X775759Y251980D01*
G37*
G36*
X640939Y466940D02*
G01*
X608060Y434060D01*
X636300Y431620D01*
X643379Y438700D01*
G37*
G36*
X775939Y1411940D02*
G01*
X743060Y1379060D01*
X771300Y1376620D01*
X778379Y1383700D01*
G37*
G36*
X1061980Y1055080D02*
G01*
X1054920Y1048020D01*
X1058020Y1039240D01*
X1070760Y1051980D01*
G37*
G36*
X671300Y1443380D02*
G01*
X643060Y1440940D01*
X675939Y1408060D01*
X678379Y1436300D01*
G37*
G36*
X1065000Y1106340D02*
G01*
X1061000Y1097940D01*
X1079000Y1097940D01*
X1075000Y1106340D01*
G37*
G36*
X1065200Y1001000D02*
G01*
X1056060Y1000000D01*
X1052840Y990000D01*
X1059680Y983860D01*
G37*
G36*
X675939Y1311940D02*
G01*
X643060Y1279060D01*
X671300Y1276620D01*
X678379Y1283700D01*
G37*
G36*
X575940Y1411940D02*
G01*
X543060Y1379060D01*
X571300Y1376620D01*
X578380Y1383700D01*
G37*
G36*
X2446980Y-2524240D02*
G01*
X2434260Y-2536980D01*
X2441480Y-2538540D01*
X2448560Y-2531460D01*
G37*
G36*
X166980Y-3074240D02*
G01*
X154260Y-3086980D01*
X163039Y-3090080D01*
X170100Y-3083000D01*
G37*
G36*
X2411020Y-2882940D02*
G01*
X2415020Y-2891340D01*
X2425020Y-2891340D01*
X2429020Y-2882940D01*
G37*
G36*
X1490320Y-3173860D02*
G01*
X1484820Y-3191000D01*
X1493959Y-3190000D01*
X1497180Y-3180000D01*
G37*
G36*
X2146460Y-3116460D02*
G01*
X2139240Y-3118020D01*
X2151980Y-3130760D01*
X2153540Y-3123540D01*
G37*
G36*
X2336020Y-3032940D02*
G01*
X2340020Y-3041340D01*
X2350020Y-3041340D01*
X2354020Y-3032940D01*
G37*
G36*
X2311020Y-2707940D02*
G01*
X2315020Y-2716340D01*
X2325020Y-2716340D01*
X2329020Y-2707940D01*
G37*
G36*
X447939Y-3116000D02*
G01*
X447939Y-3134000D01*
X456340Y-3130000D01*
X456340Y-3120000D01*
G37*
G36*
X2103020Y-3079920D02*
G01*
X2094259Y-3083020D01*
X2106980Y-3095760D01*
X2110100Y-3086980D01*
G37*
G36*
X2286020Y-2732940D02*
G01*
X2290020Y-2741340D01*
X2300020Y-2741340D01*
X2304020Y-2732940D01*
G37*
G36*
X1055320Y96140D02*
G01*
X1049800Y79000D01*
X1058940Y80000D01*
X1062160Y90000D01*
G37*
G36*
X2174420Y530900D02*
G01*
X2128000Y528160D01*
X2147500Y507580D01*
X2157500Y508160D01*
G37*
G36*
X782940Y149000D02*
G01*
X782940Y131000D01*
X791340Y135000D01*
X791340Y145000D01*
G37*
G36*
X2045000Y-107800D02*
G01*
X2026759Y-129500D01*
X2073240Y-129500D01*
X2055000Y-107800D01*
G37*
G36*
X767060Y199000D02*
G01*
X760000Y195000D01*
X760000Y185000D01*
X767060Y181000D01*
G37*
G36*
X1945000Y-107800D02*
G01*
X1926759Y-129500D01*
X1973240Y-129500D01*
X1955000Y-107800D01*
G37*
G36*
X2023700Y783379D02*
G01*
X2016620Y776300D01*
X2019060Y748060D01*
X2051940Y780939D01*
G37*
G36*
X1186000Y1187060D02*
G01*
X1190000Y1178660D01*
X1200000Y1178660D01*
X1204000Y1187060D01*
G37*
G36*
X1823700Y783379D02*
G01*
X1816620Y776300D01*
X1819060Y748060D01*
X1851940Y780939D01*
G37*
G36*
X916979Y1140080D02*
G01*
X909920Y1133020D01*
X913020Y1124240D01*
X925759Y1136980D01*
G37*
G36*
X1065000Y1106340D02*
G01*
X1061000Y1097940D01*
X1079000Y1097940D01*
X1075000Y1106340D01*
G37*
G36*
X1919060Y1451940D02*
G01*
X1916620Y1423700D01*
X1923700Y1416620D01*
X1951940Y1419060D01*
G37*
G36*
X1078020Y1055080D02*
G01*
X1069240Y1051980D01*
X1081980Y1039240D01*
X1085080Y1048020D01*
G37*
G36*
X2019060Y1451940D02*
G01*
X2016620Y1423700D01*
X2023700Y1416620D01*
X2051940Y1419060D01*
G37*
G36*
X1078020Y1005080D02*
G01*
X1069240Y1001979D01*
X1081980Y989240D01*
X1085080Y998020D01*
G37*
G36*
X2119060Y1451940D02*
G01*
X2116620Y1423700D01*
X2123700Y1416620D01*
X2151940Y1419060D01*
G37*
G36*
X806979Y1090760D02*
G01*
X794240Y1078020D01*
X803020Y1074920D01*
X810080Y1081980D01*
G37*
G36*
X1936680Y790400D02*
G01*
X1927080Y785840D01*
X1920200Y758540D01*
X1962200Y778500D01*
G37*
G36*
X941979Y1025759D02*
G01*
X929240Y1013020D01*
X938020Y1009920D01*
X945080Y1016979D01*
G37*
G36*
X831979Y925759D02*
G01*
X819240Y913020D01*
X828020Y909920D01*
X835080Y916979D01*
G37*
G36*
X1147060Y894000D02*
G01*
X1138660Y890000D01*
X1138660Y880000D01*
X1147060Y876000D01*
G37*
G36*
X2014640Y-1247800D02*
G01*
X2012360Y-1280580D01*
X2019440Y-1287660D01*
X2052220Y-1285360D01*
G37*
G36*
X917940Y-1541000D02*
G01*
X917940Y-1559000D01*
X926340Y-1555000D01*
X926340Y-1545000D01*
G37*
G36*
X1863040Y-1524259D02*
G01*
X1859920Y-1533020D01*
X1867000Y-1540100D01*
X1875760Y-1536980D01*
G37*
G36*
X1883040Y-1509920D02*
G01*
X1874259Y-1513020D01*
X1886980Y-1525760D01*
X1890100Y-1516980D01*
G37*
G36*
X2114640Y-1247800D02*
G01*
X2112360Y-1280580D01*
X2119440Y-1287660D01*
X2152220Y-1285360D01*
G37*
G36*
X917940Y-1591000D02*
G01*
X917940Y-1609000D01*
X926340Y-1605000D01*
X926340Y-1595000D01*
G37*
G36*
X2214640Y-1247800D02*
G01*
X2212360Y-1280580D01*
X2219440Y-1287660D01*
X2252220Y-1285360D01*
G37*
G36*
X917940Y-1641000D02*
G01*
X917940Y-1659000D01*
X926340Y-1655000D01*
X926340Y-1645000D01*
G37*
G36*
X2013340Y-1895880D02*
G01*
X2006260Y-1902940D01*
X2009379Y-1911720D01*
X2022100Y-1899000D01*
G37*
G36*
X483400Y-1347900D02*
G01*
X447900Y-1383400D01*
X478680Y-1385760D01*
X485760Y-1378680D01*
G37*
G36*
X1942680Y-1895600D02*
G01*
X1935620Y-1902680D01*
X1938720Y-1911440D01*
X1951440Y-1898720D01*
G37*
G36*
X482060Y-1541000D02*
G01*
X473660Y-1545000D01*
X473660Y-1555000D01*
X482060Y-1559000D01*
G37*
G36*
X501980Y-1499240D02*
G01*
X489240Y-1511980D01*
X498020Y-1515080D01*
X505080Y-1508020D01*
G37*
G36*
X1832000Y-1864920D02*
G01*
X1824920Y-1871980D01*
X1828040Y-1880760D01*
X1840760Y-1868020D01*
G37*
G36*
X378680Y-2014240D02*
G01*
X347900Y-2016600D01*
X383400Y-2052100D01*
X385760Y-2021320D01*
G37*
G36*
X897060Y-1816000D02*
G01*
X888660Y-1820000D01*
X888660Y-1830000D01*
X897060Y-1834000D01*
G37*
G36*
X1111300Y-1281620D02*
G01*
X1083060Y-1284060D01*
X1115940Y-1316940D01*
X1118380Y-1288700D01*
G37*
G36*
X901979Y-1634920D02*
G01*
X894920Y-1641980D01*
X898020Y-1650760D01*
X910759Y-1638020D01*
G37*
G36*
X1055200Y-1423540D02*
G01*
X1062080Y-1450840D01*
X1071680Y-1455400D01*
X1097200Y-1443500D01*
G37*
G36*
X901979Y-1584920D02*
G01*
X894920Y-1591980D01*
X898020Y-1600760D01*
X910759Y-1588020D01*
G37*
G36*
X1154000Y-1315660D02*
G01*
X1153920Y-1344000D01*
X1161600Y-1350480D01*
X1189520Y-1345660D01*
G37*
G36*
X478680Y-2014240D02*
G01*
X447900Y-2016600D01*
X483400Y-2052100D01*
X485760Y-2021320D01*
G37*
G36*
X1113140Y-1826860D02*
G01*
X1111900Y-1836020D01*
X1120540Y-1841540D01*
X1128320Y-1836519D01*
G37*
G36*
X847060Y-1866000D02*
G01*
X838660Y-1870000D01*
X838660Y-1880000D01*
X847060Y-1884000D01*
G37*
G36*
X578680Y-2014240D02*
G01*
X547900Y-2016600D01*
X583400Y-2052100D01*
X585760Y-2021320D01*
G37*
G36*
X681700Y-2011240D02*
G01*
X665780Y-2016540D01*
X683460Y-2034220D01*
X688760Y-2018300D01*
G37*
G36*
X1022060Y-1866000D02*
G01*
X1013660Y-1870000D01*
X1013660Y-1880000D01*
X1022060Y-1884000D01*
G37*
D10*
X650000Y-2050000D02*
G01*
X800000Y-1900000D01*
X925000Y-1900000D01*
X950000Y-1875000D01*
X1030000Y-1875000D01*
X550000Y-2050000D02*
G01*
X725000Y-1875000D01*
X855000Y-1875000D01*
X450000Y-2050000D02*
G01*
X650000Y-1850000D01*
X1105000Y-1850000D01*
X1125000Y-1830000D01*
X1125000Y-1825000D01*
X910000Y-1600000D02*
G01*
X880000Y-1570000D01*
X880000Y-1535000D01*
X895000Y-1520000D01*
X1075000Y-1520000D01*
X1135000Y-1460000D01*
X1135000Y-1370000D01*
X1185000Y-1320000D01*
X1185000Y-1315000D01*
X910000Y-1650000D02*
G01*
X850000Y-1590000D01*
X850000Y-1535000D01*
X885000Y-1500000D01*
X1020000Y-1500000D01*
X1085000Y-1435000D01*
X1085000Y-1415000D01*
X1085000Y-1315000D02*
G01*
X1155000Y-1245000D01*
X1230000Y-1245000D01*
X1257726Y-1272725D01*
X1257726Y-1550000D01*
X350000Y-2050000D02*
G01*
X575000Y-1825000D01*
X905000Y-1825000D01*
X490000Y-1500000D02*
G01*
X785000Y-1795000D01*
X1755000Y-1795000D01*
X1840000Y-1880000D01*
X1950699Y-1910700D02*
G01*
X1815000Y-1775000D01*
X825000Y-1775000D01*
X515000Y-1465000D01*
X455000Y-1465000D01*
X445000Y-1475000D01*
X445000Y-1535000D01*
X460000Y-1550000D01*
X490000Y-1550000D01*
X2021400Y-1910999D02*
G01*
X1865399Y-1755000D01*
X855000Y-1755000D01*
X450000Y-1350000D01*
X930000Y1025000D02*
G01*
X991715Y963283D01*
X1371715Y963283D01*
X795000Y1090000D02*
G01*
X945000Y940000D01*
X1360000Y940000D01*
X1380000Y920000D01*
X1800000Y920000D01*
X1950000Y770000D01*
X1950000Y750000D01*
X1070000Y990000D02*
G01*
X1165000Y1085000D01*
X1165000Y1205000D01*
X1190000Y1230000D01*
X1930000Y1230000D01*
X2150000Y1450000D01*
X1070000Y1040000D02*
G01*
X1125000Y1095000D01*
X1125000Y1210000D01*
X1170000Y1255000D01*
X1855000Y1255000D01*
X2050000Y1450000D01*
X1070000Y1090000D02*
G01*
X1070000Y1190000D01*
X1160000Y1280000D01*
X1780000Y1280000D01*
X1950000Y1450000D01*
X820000Y925000D02*
G01*
X860000Y885000D01*
X1155000Y885000D01*
X1850000Y750000D02*
G01*
X1755000Y845000D01*
X820000Y845000D01*
X755000Y910000D01*
X755000Y1095000D01*
X800000Y1140000D01*
X910000Y1140000D01*
X925000Y1125000D01*
X2050000Y750000D02*
G01*
X1855000Y945000D01*
X1390000Y945000D01*
X1195000Y1140000D01*
X1195000Y1195000D01*
X2050000Y-150000D02*
G01*
X2050000Y5000D01*
X1995000Y60000D01*
X1607500Y60000D01*
X1602500Y65000D01*
X975000Y65000D01*
X900000Y140000D01*
X775000Y140000D01*
X1950000Y-150000D02*
G01*
X1950000Y-5000D01*
X1905000Y40000D01*
X1594499Y40000D01*
X1589499Y45000D01*
X770000Y45000D01*
X740000Y75000D01*
X740000Y170000D01*
X760000Y190000D01*
X775000Y190000D01*
X1375000Y1120000D02*
G01*
X1451499Y1120000D01*
X1451499Y1120000D02*
G01*
X1915000Y1120000D01*
X2025000Y1230000D01*
X1375000Y1090000D02*
G01*
X1360000Y1090000D01*
X1340000Y1110000D01*
X1340000Y1130000D01*
X1360000Y1150000D01*
X1720000Y1150000D01*
X1425000Y1090000D02*
G01*
X1375000Y1090000D01*
X2235000Y1025000D02*
G01*
X2305000Y1025000D01*
X1900000Y1030000D02*
G01*
X1970000Y1030000D01*
X1560000Y1025000D02*
G01*
X1630000Y1025000D01*
X1045000Y150000D02*
G01*
X1920000Y150000D01*
X2050000Y280000D01*
X2050000Y550000D01*
X1045000Y190000D02*
G01*
X1060000Y175000D01*
X1880000Y175000D01*
X1950000Y245000D01*
X1950000Y550000D01*
X1375000Y20000D02*
G01*
X760000Y20000D01*
X715000Y65000D01*
X715000Y180000D01*
X775000Y240000D01*
X1850000Y-150000D02*
G01*
X1850000Y5000D01*
X1835000Y20000D01*
X1375000Y20000D01*
X1055000Y-655000D02*
G01*
X1845000Y-655000D01*
X1950000Y-550000D01*
X1950000Y-350000D01*
D12*
X2090000Y-855000D02*
G01*
X2355000Y-855000D01*
D10*
X2535020Y-3125000D02*
G01*
X2465020Y-3055000D01*
X2465020Y-2505000D01*
X2310020Y-2350000D01*
X2250020Y-2350000D01*
X2135020Y-2490000D02*
G01*
X2140020Y-2495000D01*
X2370020Y-2495000D01*
X2420020Y-2545000D01*
X2420020Y-2710000D01*
X2405020Y-2725000D01*
X2275020Y-2595000D01*
X2240020Y-2595000D01*
X2240020Y-2950000D01*
X2235020Y-2950000D01*
X2265020Y-2625000D02*
G01*
X2270020Y-2625000D01*
X2270020Y-2965000D01*
X2235020Y-3000000D01*
X2100020Y-3000000D01*
X2435020Y-2525000D02*
G01*
X2365020Y-2455000D01*
X2255020Y-2455000D01*
X2150020Y-2350000D01*
X2395020Y-2570000D02*
G01*
X2375020Y-2550000D01*
X1905020Y-2550000D01*
X1634711Y-3023270D02*
G01*
X2218290Y-3023270D01*
X2265020Y-3070000D01*
X2050020Y-2350000D02*
G01*
X2050020Y-2370000D01*
X2010020Y-2410000D01*
X1674097Y-2410000D01*
X1629097Y-2365000D01*
X265021Y-3135000D02*
G01*
X230021Y-3099502D01*
X230021Y-2850000D01*
X155021Y-2775000D01*
X240021Y-2825000D02*
G01*
X160021Y-2745000D01*
X160021Y-2510000D01*
X2100020Y-2700000D02*
G01*
X2150020Y-2750000D01*
X2150020Y-2814980D01*
X2100000Y-2865000D01*
X155021Y-2825000D02*
G01*
X155021Y-2980000D01*
X195021Y-3020000D01*
X600021Y-3100000D02*
G01*
X500021Y-3100000D01*
X600021Y-2800000D02*
G01*
X500021Y-2800000D01*
X600021Y-2900000D02*
G01*
X535021Y-2900000D01*
X485021Y-2950000D01*
X350021Y-2950000D01*
X330021Y-2930000D01*
X330021Y-2700000D01*
X355021Y-2675000D01*
X600021Y-2500000D02*
G01*
X600021Y-2540000D01*
X490021Y-2650000D01*
X335021Y-2650000D01*
X305021Y-2680000D01*
X305021Y-2940000D01*
X360021Y-2995000D01*
X600021Y-2600000D02*
G01*
X500021Y-2700000D01*
X385021Y-2700000D01*
X360021Y-2725000D01*
X360021Y-2925000D01*
X600021Y-2400000D02*
G01*
X500021Y-2500000D01*
X500021Y-2515000D01*
X600021Y-2700000D02*
G01*
X575021Y-2725000D01*
X500021Y-2725000D01*
X600021Y-3000000D02*
G01*
X500021Y-3000000D01*
X1300020Y-3100000D02*
G01*
X600021Y-3100000D01*
X1300020Y-3000000D02*
G01*
X600021Y-3000000D01*
X1300020Y-2900000D02*
G01*
X600021Y-2900000D01*
X1300020Y-2800000D02*
G01*
X600021Y-2800000D01*
X1300020Y-2700000D02*
G01*
X600021Y-2700000D01*
X1300020Y-2600000D02*
G01*
X600021Y-2600000D01*
X1300020Y-2500000D02*
G01*
X600021Y-2500000D01*
X1300020Y-2400000D02*
G01*
X600021Y-2400000D01*
X1400020Y-2500000D02*
G01*
X2090020Y-2500000D01*
X1400020Y-2600000D02*
G01*
X2100020Y-2600000D01*
X1400020Y-2700000D02*
G01*
X2100020Y-2700000D01*
X1400020Y-2800000D02*
G01*
X2085020Y-2800000D01*
X1400020Y-2900000D02*
G01*
X2100020Y-2900000D01*
X1400020Y-3000000D02*
G01*
X2100020Y-3000000D01*
X1400020Y-3100000D02*
G01*
X1405020Y-3095000D01*
X2095020Y-3095000D01*
X2200020Y-2465000D02*
G01*
X1710020Y-2465000D01*
X1700020Y-2455000D01*
X2180020Y-2430000D02*
G01*
X1525020Y-2430000D01*
X1500020Y-2455000D01*
X1300020Y-2555000D02*
G01*
X1320020Y-2575000D01*
X2290020Y-2575000D01*
X2375020Y-2660000D01*
D12*
X260021Y-2330000D02*
G01*
X215021Y-2330000D01*
X2100020Y-2755000D02*
G01*
X2095020Y-2760000D01*
X500021Y-2760000D01*
X2365020Y-3135000D02*
G01*
X2375020Y-3125000D01*
X2375020Y-2825000D01*
D10*
X2370020Y-2775000D02*
G01*
X2395020Y-2800000D01*
X2395020Y-3150000D01*
X2385020Y-3160000D01*
X2255020Y-3160000D01*
X440021Y-3125000D02*
G01*
X395021Y-3125000D01*
X265021Y-2995000D01*
X265021Y-2630000D01*
X210021Y-2575000D01*
X210021Y-2515000D01*
X360021Y-2365000D01*
X1629121Y-2365000D01*
D12*
X240021Y-2715000D02*
G01*
X190021Y-2665000D01*
X190021Y-2355000D01*
X215021Y-2330000D01*
X1950020Y-2350000D02*
G01*
X1930020Y-2330000D01*
X260021Y-2330000D01*
D10*
X2150020Y-1250000D02*
G01*
X1800020Y-1600000D01*
X910000Y-1600000D01*
X1840020Y-1880000D02*
G01*
X1845020Y-1880000D01*
X1950020Y-1985000D01*
X1950020Y-2150000D01*
X2050020Y-2150000D02*
G01*
X2050020Y-2010000D01*
X1950712Y-1910693D01*
X2150020Y-2150000D02*
G01*
X2150020Y-2039636D01*
X2021358Y-1910974D01*
X2050020Y-1250000D02*
G01*
X1750020Y-1550000D01*
X910000Y-1550000D01*
X2250020Y-1250000D02*
G01*
X1850020Y-1650000D01*
X910000Y-1650000D01*
X2295000Y-2725000D02*
G01*
X2295000Y-3090000D01*
X2290000Y-3095000D01*
X2235000Y-3095000D01*
X2220000Y-3080000D01*
X2110000Y-3080000D01*
X2095000Y-3095000D01*
X440000Y-3125000D02*
G01*
X2105000Y-3125000D01*
X2130000Y-3100000D01*
X2211300Y-3100000D01*
X2226300Y-3115000D01*
X2300000Y-3115000D01*
X2320000Y-3095000D01*
X2320000Y-2700000D01*
X2345020Y-3025000D02*
G01*
X2345020Y-3110000D01*
X2320020Y-3135000D01*
X2213711Y-3135000D01*
X2213711Y-3133712D01*
X2200000Y-3120000D01*
X2150000Y-3120000D01*
X2140000Y-3130000D01*
X1480000Y-3180000D02*
G01*
X1480000Y-3185000D01*
X1751000Y-3185000D01*
X1776000Y-3160000D01*
X2210100Y-3160000D01*
X2235100Y-3185000D01*
X2405000Y-3185000D01*
X2420000Y-3170000D01*
X2420000Y-2875000D01*
X155000Y-3075000D02*
G01*
X285000Y-3205000D01*
X1762200Y-3205000D01*
X1791199Y-3176100D01*
X2196099Y-3176100D01*
X2225000Y-3205000D01*
X2409399Y-3205000D01*
X2445000Y-3169400D01*
X2445000Y-2535000D01*
X2435000Y-2525000D01*
X545000Y1410000D02*
G01*
X595000Y1360000D01*
X595000Y1285000D01*
X645000Y1235000D01*
X705000Y1235000D01*
X800000Y1140000D01*
X645000Y1310000D02*
G01*
X690000Y1265000D01*
X725000Y1265000D01*
X795000Y1195000D01*
X895000Y1195000D01*
X965000Y1125000D01*
X965000Y1040000D01*
X1010000Y995000D01*
X1065000Y995000D01*
X1070000Y990000D01*
X1070000Y1090000D02*
G01*
X1070000Y1180000D01*
X790000Y1460000D01*
X695000Y1460000D01*
X645000Y1410000D01*
X1070000Y1040000D02*
G01*
X1015000Y1095000D01*
X1015000Y1140000D01*
X745000Y1410000D01*
X2152500Y545000D02*
G01*
X2152500Y315000D01*
X1922500Y85000D01*
X1920000Y85000D01*
X1915000Y80000D01*
X1623760Y80000D01*
X1618760Y85000D01*
X1047500Y85000D01*
X610000Y465000D02*
G01*
X660000Y415000D01*
X660000Y320000D01*
X695000Y285000D01*
X730000Y285000D01*
X775000Y240000D01*
X1045000Y90000D02*
G01*
X1000000Y90000D01*
X815000Y275000D01*
X800000Y275000D01*
X710000Y365000D01*
X1045000Y150000D02*
G01*
X900000Y295000D01*
X900000Y375000D01*
X810000Y465000D01*
X1045000Y190000D02*
G01*
X945000Y290000D01*
X945000Y420000D01*
X855000Y510000D01*
X755000Y510000D01*
X710000Y465000D01*
X1055000Y-655000D02*
G01*
X840000Y-440000D01*
X607676Y-440000D01*
X512676Y-345000D01*
X425000Y-345000D01*
X380000Y-390000D01*
X480000Y-390000D02*
G01*
X555000Y-465000D01*
X810000Y-465000D01*
X1050000Y-705000D01*
X1055000Y-705000D01*
X280000Y-390000D02*
G01*
X330000Y-440000D01*
X330000Y-515000D01*
X485000Y-670000D01*
X705000Y-670000D01*
X1850000Y-1050000D02*
G01*
X1655000Y-855000D01*
X1360000Y-855000D01*
X1055000Y-705000D02*
G01*
X1080000Y-680000D01*
X1925000Y-680000D01*
X2050000Y-555000D01*
X2050000Y-350000D01*
X1360000Y-855000D02*
G01*
X810000Y-855000D01*
X705000Y-750000D01*
X705000Y-640000D01*
X740000Y-605000D01*
X780000Y-605000D01*
X380000Y-490000D02*
G01*
X460000Y-570000D01*
X850000Y-570000D01*
X1035000Y-755000D01*
X1055000Y-755000D01*
X2050000Y-1050000D02*
G01*
X1810000Y-810000D01*
X980000Y-810000D01*
X927500Y-757500D01*
X927500Y-705000D01*
X780000Y-655000D02*
G01*
X955000Y-830000D01*
X1720000Y-830000D01*
X1940000Y-1050000D01*
X1950000Y-1050000D01*
X1510000Y-3875000D02*
G01*
X1725010Y-3875000D01*
X2050010Y-3550000D01*
X1505000Y-3925000D02*
G01*
X1775010Y-3925000D01*
X2150010Y-3550000D01*
X1950010Y-4250000D02*
G01*
X1950010Y-4180000D01*
X1870010Y-4100000D01*
X1219269Y-4100000D01*
X1505000Y-3980000D02*
G01*
X1320000Y-3795000D01*
X815000Y-3795000D01*
X1095000Y-3825000D02*
G01*
X1040000Y-3880000D01*
X1040000Y-3945000D01*
X1195000Y-4100000D01*
X1230000Y-4100000D01*
X1211135Y-4041134D02*
G01*
X1230000Y-4060000D01*
X1273046Y-4060000D01*
X1095000Y-3925000D02*
G01*
X1215000Y-4045000D01*
X1249099Y-4060000D02*
G01*
X2035000Y-4060000D01*
X2150000Y-4175000D01*
X2150000Y-4250000D01*
X1095000Y-3875000D02*
G01*
X1065000Y-3905000D01*
X1065000Y-3935000D01*
X1210000Y-4080000D01*
X1960000Y-4080000D01*
X2050000Y-4170000D01*
X2050000Y-4250000D01*
D11*
X2445000Y-3900000D02*
G01*
X2345000Y-3800000D01*
X2200000Y-3800000D01*
D10*
X1505000Y-3980000D02*
G01*
X1530000Y-3955000D01*
X1845000Y-3955000D01*
X2250000Y-3550000D01*
D11*
X1760000Y-3995000D02*
G01*
X1975000Y-3995000D01*
X2020000Y-3950000D01*
X2275000Y-3950000D01*
X2325000Y-3900000D01*
X2445000Y-3900000D01*
D10*
X1055000Y-755000D02*
G01*
X1055000Y-750000D01*
X1960000Y-750000D01*
X2150000Y-560000D01*
X2150000Y-350000D01*
X2100020Y-3050000D02*
G01*
X360021Y-3050000D01*
X285021Y-2975000D01*
X285021Y-2610000D01*
X235021Y-2560000D01*
X235021Y-2540000D01*
X1505000Y-3925000D02*
G01*
X1349899Y-3770000D01*
X755000Y-4060000D02*
G01*
X755000Y-3815000D01*
X800000Y-3770000D01*
X1350000Y-3770000D01*
G36*
X1919009Y-3580999D02*
G01*
X1981009Y-3580999D01*
X1981009Y-3519000D01*
X1919009Y-3519000D01*
G37*
D44*
G01*
X2050010Y-3550000D03*
G01*
X2150010Y-3550000D03*
G01*
X2250010Y-3550000D03*
G36*
X2281009Y-4219000D02*
G01*
X2219009Y-4219000D01*
X2219009Y-4280999D01*
X2281009Y-4280999D01*
G37*
G01*
X2150010Y-4250000D03*
G01*
X2050010Y-4250000D03*
G01*
X1950010Y-4250000D03*
G36*
X1818999Y519000D02*
G01*
X1881000Y519000D01*
X1881000Y580999D01*
X1818999Y580999D01*
G37*
G01*
X1950000Y550000D03*
G01*
X2050000Y550000D03*
G01*
X2150000Y550000D03*
G36*
X2181000Y-119000D02*
G01*
X2118999Y-119000D01*
X2118999Y-180999D01*
X2181000Y-180999D01*
G37*
G01*
X2050000Y-150000D03*
G01*
X1950000Y-150000D03*
G01*
X1850000Y-150000D03*
G36*
X2181000Y780999D02*
G01*
X2118999Y780999D01*
X2118999Y719000D01*
X2181000Y719000D01*
G37*
G01*
X2050000Y750000D03*
G01*
X1950000Y750000D03*
G01*
X1850000Y750000D03*
G36*
X1818999Y1419000D02*
G01*
X1881000Y1419000D01*
X1881000Y1480999D01*
X1818999Y1480999D01*
G37*
G01*
X1950000Y1450000D03*
G01*
X2050000Y1450000D03*
G01*
X2150000Y1450000D03*
G36*
X2181000Y-1019000D02*
G01*
X2118999Y-1019000D01*
X2118999Y-1080999D01*
X2181000Y-1080999D01*
G37*
G01*
X2050000Y-1050000D03*
G01*
X1950000Y-1050000D03*
G01*
X1850000Y-1050000D03*
G36*
X1818999Y-380999D02*
G01*
X1881000Y-380999D01*
X1881000Y-319000D01*
X1818999Y-319000D01*
G37*
G01*
X1950000Y-350000D03*
G01*
X2050000Y-350000D03*
G01*
X2150000Y-350000D03*
G36*
X316534Y-1383465D02*
G01*
X383465Y-1383465D01*
X383465Y-1316534D01*
X316534Y-1316534D01*
G37*
D46*
G01*
X450000Y-1350000D03*
G01*
X550000Y-1350000D03*
G01*
X650000Y-1350000D03*
G36*
X683465Y-2016534D02*
G01*
X616534Y-2016534D01*
X616534Y-2083465D01*
X683465Y-2083465D01*
G37*
G01*
X550000Y-2050000D03*
G01*
X450000Y-2050000D03*
G01*
X350000Y-2050000D03*
G36*
X2283464Y-3216534D02*
G01*
X2216535Y-3216534D01*
X2216535Y-3283465D01*
X2283464Y-3283465D01*
G37*
G01*
X2150000Y-3250000D03*
G01*
X2050000Y-3250000D03*
G01*
X1950000Y-3250000D03*
G36*
X1916535Y-2383465D02*
G01*
X1983464Y-2383465D01*
X1983464Y-2316534D01*
X1916535Y-2316534D01*
G37*
G01*
X2050000Y-2350000D03*
G01*
X2150000Y-2350000D03*
G01*
X2250000Y-2350000D03*
D44*
G01*
X1185000Y-1315000D03*
G01*
X1185000Y-1415000D03*
G01*
X1085000Y-1315000D03*
G01*
X1085000Y-1415000D03*
G01*
X985000Y-1315000D03*
G36*
X953999Y-1384000D02*
G01*
X1016000Y-1384000D01*
X1016000Y-1445999D01*
X953999Y-1445999D01*
G37*
G01*
X2100000Y-3800000D03*
G01*
X2200000Y-3800000D03*
G01*
X2100000Y-3900000D03*
G01*
X2200000Y-3900000D03*
G01*
X2100000Y-4000000D03*
D43*
G01*
X2200000Y-4000000D03*
D47*
G01*
X2445000Y-3800000D03*
G01*
X2445000Y-3900000D03*
D48*
G01*
X2445000Y-4000000D03*
D44*
G01*
X480000Y-390000D03*
G01*
X480000Y-490000D03*
G01*
X380000Y-390000D03*
G01*
X380000Y-490000D03*
G01*
X280000Y-390000D03*
G36*
X249000Y-459000D02*
G01*
X310999Y-459000D01*
X310999Y-520999D01*
X249000Y-520999D01*
G37*
G01*
X810000Y465000D03*
G01*
X810000Y365000D03*
G01*
X710000Y465000D03*
G01*
X710000Y365000D03*
G01*
X610000Y465000D03*
G36*
X579000Y395999D02*
G01*
X640999Y395999D01*
X640999Y334000D01*
X579000Y334000D01*
G37*
G01*
X745000Y1410000D03*
G01*
X745000Y1310000D03*
G01*
X645000Y1410000D03*
G01*
X645000Y1310000D03*
G01*
X545000Y1410000D03*
G36*
X514000Y1340999D02*
G01*
X575999Y1340999D01*
X575999Y1279000D01*
X514000Y1279000D01*
G37*
D47*
G01*
X2445000Y1195000D03*
G01*
X2445000Y1095000D03*
D48*
G01*
X2445000Y995000D03*
D49*
G01*
X2250000Y-2150000D03*
D47*
G01*
X2150000Y-2150000D03*
G01*
X2050000Y-2150000D03*
G01*
X1950000Y-2150000D03*
G36*
X1914566Y-1214567D02*
G01*
X1985433Y-1214567D01*
X1985433Y-1285432D01*
X1914566Y-1285432D01*
G37*
G01*
X2050000Y-1250000D03*
G01*
X2150000Y-1250000D03*
G01*
X2250000Y-1250000D03*
D16*
G01*
X1875010Y-1525000D03*
G01*
X160010Y-2510000D03*
G01*
X240010Y-2825000D03*
G01*
X1840010Y-1880000D03*
G01*
X1950699Y-1910689D03*
G01*
X2021350Y-1910970D03*
G01*
X910000Y-1650000D03*
G01*
X910000Y-1600000D03*
G01*
X910000Y-1550000D03*
G01*
X490000Y-1500000D03*
G01*
X490000Y-1550000D03*
G01*
X490000Y-1600000D03*
G01*
X2100010Y-3050000D03*
G01*
X235010Y-2540000D03*
G01*
X155010Y-3075000D03*
G01*
X2435010Y-2525000D03*
G01*
X2345010Y-3025000D03*
G01*
X2140000Y-3130000D03*
G01*
X2395010Y-2570000D03*
G01*
X2420010Y-2875000D03*
G01*
X2375010Y-2660000D03*
G01*
X2295010Y-2725000D03*
G01*
X2265010Y-2625000D03*
G01*
X2100000Y-2865000D03*
G01*
X2235010Y-2950000D03*
G01*
X265010Y-3135000D03*
G01*
X195010Y-3020000D03*
G01*
X155010Y-2825000D03*
G01*
X155010Y-2775000D03*
G01*
X500010Y-3100000D03*
G01*
X500010Y-2515000D03*
G01*
X355010Y-2675000D03*
G01*
X360010Y-2995000D03*
G01*
X360010Y-2925000D03*
G01*
X500010Y-2725000D03*
G01*
X500010Y-2800000D03*
G01*
X500010Y-3000000D03*
G01*
X1300010Y-2400000D03*
G01*
X1200010Y-2400000D03*
G01*
X1100010Y-2400000D03*
G01*
X1000010Y-2400000D03*
G01*
X900010Y-2400000D03*
G01*
X800010Y-2400000D03*
G01*
X700010Y-2400000D03*
G01*
X600010Y-2400000D03*
G01*
X600010Y-2500000D03*
G01*
X700010Y-2500000D03*
G01*
X800010Y-2500000D03*
G01*
X900010Y-2500000D03*
G01*
X1000010Y-2500000D03*
G01*
X1100010Y-2500000D03*
G01*
X1200010Y-2500000D03*
G01*
X1300010Y-2500000D03*
G01*
X1300010Y-2600000D03*
G01*
X1200010Y-2600000D03*
G01*
X1100010Y-2600000D03*
G01*
X1000010Y-2600000D03*
G01*
X900010Y-2600000D03*
G01*
X800010Y-2600000D03*
G01*
X700010Y-2600000D03*
G01*
X600010Y-2600000D03*
G01*
X600010Y-2700000D03*
G01*
X700010Y-2700000D03*
G01*
X800010Y-2700000D03*
G01*
X900010Y-2700000D03*
G01*
X1000010Y-2700000D03*
G01*
X1100010Y-2700000D03*
G01*
X1200010Y-2700000D03*
G01*
X1300010Y-2700000D03*
G01*
X1200010Y-2800000D03*
G01*
X1100010Y-2800000D03*
G01*
X1000010Y-2800000D03*
G01*
X900010Y-2800000D03*
G01*
X800010Y-2800000D03*
G01*
X700010Y-2800000D03*
G01*
X600010Y-2800000D03*
G01*
X600010Y-2900000D03*
G01*
X700010Y-2900000D03*
G01*
X800010Y-2900000D03*
G01*
X900010Y-2900000D03*
G01*
X1000010Y-2900000D03*
G01*
X1100010Y-2900000D03*
G01*
X1200010Y-2900000D03*
G01*
X1200010Y-3000000D03*
G01*
X1100010Y-3000000D03*
G01*
X1000010Y-3000000D03*
G01*
X900010Y-3000000D03*
G01*
X800010Y-3000000D03*
G01*
X700010Y-3000000D03*
G01*
X600010Y-3000000D03*
G01*
X600010Y-3100000D03*
G01*
X700010Y-3100000D03*
G01*
X800010Y-3100000D03*
G01*
X900010Y-3100000D03*
G01*
X1000010Y-3100000D03*
G01*
X1100010Y-3100000D03*
G01*
X1200010Y-3100000D03*
G01*
X1400010Y-2500000D03*
G01*
X1500010Y-2500000D03*
G01*
X1600010Y-2500000D03*
G01*
X1700010Y-2500000D03*
G01*
X1800010Y-2500000D03*
G01*
X1900010Y-2500000D03*
G01*
X2000010Y-2500000D03*
G01*
X2090010Y-2500000D03*
G01*
X2100010Y-2600000D03*
G01*
X2000010Y-2600000D03*
G01*
X1900010Y-2600000D03*
G01*
X1800010Y-2600000D03*
G01*
X1700010Y-2600000D03*
G01*
X1600010Y-2600000D03*
G01*
X1500010Y-2600000D03*
G01*
X1400010Y-2600000D03*
G01*
X1400010Y-2700000D03*
G01*
X1500010Y-2700000D03*
G01*
X1600010Y-2700000D03*
G01*
X1700010Y-2700000D03*
G01*
X1800010Y-2700000D03*
G01*
X1900010Y-2700000D03*
G01*
X2000010Y-2700000D03*
G01*
X2100010Y-2700000D03*
G01*
X2085010Y-2800000D03*
G01*
X2100010Y-2900000D03*
G01*
X2000010Y-2900000D03*
G01*
X2000010Y-2800000D03*
G01*
X1900010Y-2800000D03*
G01*
X1900010Y-2900000D03*
G01*
X1800010Y-2900000D03*
G01*
X1800010Y-2800000D03*
G01*
X1700010Y-2800000D03*
G01*
X1700010Y-2900000D03*
G01*
X1600010Y-2900000D03*
G01*
X1600010Y-2800000D03*
G01*
X1500010Y-2800000D03*
G01*
X1500010Y-2900000D03*
G01*
X1400010Y-2900000D03*
G01*
X1400010Y-2800000D03*
G01*
X1300010Y-2800000D03*
G01*
X1300010Y-2900000D03*
G01*
X1300010Y-3000000D03*
G01*
X1400010Y-3000000D03*
G01*
X1500010Y-3000000D03*
G01*
X1600010Y-3000000D03*
G01*
X1700010Y-3000000D03*
G01*
X1800010Y-3000000D03*
G01*
X1900010Y-3000000D03*
G01*
X2000010Y-3000000D03*
G01*
X2100010Y-3000000D03*
G01*
X1300010Y-3100000D03*
G01*
X1400010Y-3100000D03*
G01*
X1500010Y-3100000D03*
G01*
X1600010Y-3100000D03*
G01*
X1700010Y-3100000D03*
G01*
X1800010Y-3100000D03*
G01*
X1900010Y-3100000D03*
G01*
X2000010Y-3100000D03*
G01*
X2095010Y-3095000D03*
G01*
X1451499Y1120000D03*
G01*
X1425000Y1090000D03*
G01*
X1720000Y1150000D03*
G01*
X1375000Y1090000D03*
G01*
X1375000Y1120000D03*
G01*
X2025000Y1230000D03*
G01*
X1630000Y1025000D03*
G01*
X1560000Y1025000D03*
G01*
X1970000Y1030000D03*
G01*
X1900000Y1030000D03*
G01*
X2235000Y1025000D03*
G01*
X2305000Y1025000D03*
G01*
X775000Y140000D03*
G01*
X775000Y190000D03*
G01*
X775000Y240000D03*
G01*
X1045000Y90000D03*
G01*
X1045000Y150000D03*
G01*
X1045000Y190000D03*
G01*
X1375000Y20000D03*
G01*
X780000Y-605000D03*
G01*
X780000Y-655000D03*
G01*
X1055000Y-655000D03*
G01*
X1055000Y-705000D03*
G01*
X1055000Y-755000D03*
G01*
X1360000Y-855000D03*
G01*
X2090000Y-855000D03*
G01*
X2355000Y-855000D03*
G01*
X1505000Y-3980000D03*
G01*
X1505000Y-3925000D03*
G01*
X1510000Y-3875000D03*
G01*
X1095000Y-3825000D03*
G01*
X1095000Y-3875000D03*
G01*
X1095000Y-3925000D03*
G01*
X1700010Y-2455000D03*
G01*
X2200010Y-2465000D03*
G01*
X1500010Y-2455000D03*
G01*
X2180010Y-2430000D03*
G01*
X1300010Y-2555000D03*
G01*
X1905010Y-2550000D03*
G01*
X2535010Y-3125000D03*
G01*
X440010Y-3125000D03*
G01*
X2320010Y-2700000D03*
G01*
X2265010Y-3070000D03*
G01*
X1634700Y-3023270D03*
G01*
X1480010Y-3180000D03*
G01*
X2135010Y-2490000D03*
G01*
X2100010Y-2755000D03*
G01*
X500010Y-2760000D03*
G01*
X260010Y-2330000D03*
G01*
X215010Y-2330000D03*
G01*
X240010Y-2715000D03*
G01*
X2360010Y-3135000D03*
G01*
X2370010Y-2825000D03*
G01*
X2370010Y-2775000D03*
G01*
X2255010Y-3160000D03*
G01*
X2505010Y-2390000D03*
G01*
X2535010Y-3225000D03*
G01*
X1285010Y-3240000D03*
G01*
X95010Y-3220000D03*
G01*
X120010Y-2950000D03*
G01*
X120010Y-2900000D03*
G01*
X120010Y-2700000D03*
G01*
X120010Y-2650000D03*
G01*
X2490010Y-2650000D03*
G01*
X2490010Y-2700000D03*
G01*
X2490010Y-2900000D03*
G01*
X2490010Y-2950000D03*
G01*
X80010Y-2385000D03*
G01*
X1580000Y-3240000D03*
G01*
X1835000Y-3240000D03*
G01*
X925000Y1125000D03*
G01*
X795000Y1090000D03*
G01*
X930000Y1025000D03*
G01*
X1070000Y1090000D03*
G01*
X1070000Y1040000D03*
G01*
X1070000Y990000D03*
G01*
X820000Y925000D03*
G01*
X1155000Y885000D03*
G01*
X1195000Y1195000D03*
G01*
X1305000Y1180000D03*
G01*
X1355000Y875000D03*
G01*
X1455000Y875000D03*
G01*
X1790000Y870000D03*
G01*
X1075000Y915000D03*
G01*
X242199Y1457800D03*
G01*
X242199Y857800D03*
G01*
X442199Y1457800D03*
G01*
X442199Y1257800D03*
G01*
X442199Y1057800D03*
G01*
X442199Y857800D03*
G01*
X842200Y1457800D03*
G01*
X842200Y1257800D03*
G01*
X1042200Y1457800D03*
G01*
X1242200Y1457800D03*
G01*
X1442200Y1457800D03*
G01*
X2042200Y857800D03*
G01*
X2242200Y1457800D03*
G01*
X2242200Y857800D03*
G01*
X2442200Y857800D03*
G01*
X1450000Y125000D03*
G01*
X1505000Y125000D03*
G01*
X1545000Y-10000D03*
G01*
X1760000Y-10000D03*
G01*
X927500Y-705000D03*
G01*
X1475000Y-780000D03*
G01*
X1525000Y-780000D03*
G01*
X1790000Y-845000D03*
G01*
X1730000Y-575000D03*
G01*
X1620000Y-575000D03*
G01*
X1930000Y-980000D03*
G01*
X2235000Y-485000D03*
G01*
X2310000Y-365000D03*
G01*
X1360000Y-440000D03*
G01*
X1590000Y-440000D03*
G01*
X815000Y-3795000D03*
G01*
X755000Y-4060000D03*
G01*
X1670000Y-4010000D03*
G01*
X1350000Y-4035000D03*
G01*
X1760000Y-3995000D03*
G01*
X1485000Y-3795000D03*
G01*
X1650000Y-3820000D03*
G01*
X1880000Y-4030000D03*
G01*
X1985000Y-4030000D03*
G01*
X1930000Y-3950000D03*
G01*
X1600000Y-4135000D03*
G01*
X2085000Y400000D03*
G01*
X2197309Y-42199D03*
G01*
X2397309Y557800D03*
G01*
X2397309Y357800D03*
G01*
X2397309Y157800D03*
G01*
X2397309Y-42199D03*
G01*
X42199Y357970D03*
G01*
X42199Y157970D03*
G01*
X242199Y557970D03*
G01*
X242199Y-42029D03*
G01*
X442199Y557970D03*
G01*
X442199Y357970D03*
G01*
X442199Y-42029D03*
G01*
X642199Y557970D03*
G01*
X642199Y-42029D03*
G01*
X842200Y557970D03*
G01*
X842200Y-42029D03*
G01*
X1042200Y557970D03*
G01*
X1242200Y557970D03*
G01*
X1442200Y557970D03*
G01*
X1120000Y-90000D03*
G01*
X1642200Y557970D03*
G01*
X1320000Y-90000D03*
G01*
X2200000Y420000D03*
G01*
X2197309Y-42199D03*
G01*
X2397309Y557800D03*
G01*
X2397309Y357800D03*
G01*
X2397309Y157800D03*
G01*
X2397309Y-42199D03*
G01*
X42199Y357970D03*
G01*
X42199Y157970D03*
G01*
X242199Y557970D03*
G01*
X242199Y-42029D03*
G01*
X442199Y557970D03*
G01*
X442199Y357970D03*
G01*
X442199Y-42029D03*
G01*
X642199Y557970D03*
G01*
X642199Y-42029D03*
G01*
X842200Y557970D03*
G01*
X842200Y-42029D03*
G01*
X1042200Y557970D03*
G01*
X1242200Y557970D03*
G01*
X1442200Y557970D03*
G01*
X1520000Y-85000D03*
G01*
X1642200Y557970D03*
G01*
X1720000Y-85000D03*
G01*
X2254809Y-942199D03*
G01*
X2454809Y-942199D03*
G01*
X242199Y-942130D03*
G01*
X442199Y-942130D03*
G01*
X642199Y-342130D03*
G01*
X642199Y-942130D03*
G01*
X842200Y-342130D03*
G01*
X842200Y-942130D03*
G01*
X1042200Y-342130D03*
G01*
X1242200Y-342130D03*
G01*
X1442200Y-342130D03*
G01*
X1642200Y-342130D03*
G01*
X2254809Y-942199D03*
G01*
X2454809Y-942199D03*
G01*
X242199Y-942130D03*
G01*
X442199Y-942130D03*
G01*
X642199Y-342130D03*
G01*
X642199Y-942130D03*
G01*
X842200Y-342130D03*
G01*
X842200Y-942130D03*
G01*
X1042200Y-342130D03*
G01*
X1242200Y-342130D03*
G01*
X1442200Y-342130D03*
G01*
X1642200Y-342130D03*
G01*
X2341329Y-3542199D03*
G01*
X2341329Y-3742199D03*
G01*
X2341329Y-3942199D03*
G01*
X2341329Y-4142199D03*
G01*
X2430000Y-3675000D03*
G01*
X2540000Y-4065000D03*
G01*
X242199Y-3642199D03*
G01*
X242199Y-4242199D03*
G01*
X442199Y-4242199D03*
G01*
X642199Y-4042199D03*
G01*
X642199Y-4242199D03*
G01*
X842200Y-3642199D03*
G01*
X842200Y-4242199D03*
G01*
X1042200Y-3442199D03*
G01*
X1442200Y-3442199D03*
G01*
X1642200Y-3442199D03*
G01*
X1842200Y-3642199D03*
G01*
X1842200Y-4242199D03*
G01*
X2341329Y-3542199D03*
G01*
X2341329Y-3742199D03*
G01*
X2341329Y-3942199D03*
G01*
X2341329Y-4142199D03*
G01*
X2530000Y-3725000D03*
G01*
X2550000Y-3960000D03*
G01*
X242199Y-3642199D03*
G01*
X242199Y-4242199D03*
G01*
X442199Y-4242199D03*
G01*
X642199Y-4042199D03*
G01*
X642199Y-4242199D03*
G01*
X842200Y-3642199D03*
G01*
X842200Y-4242199D03*
G01*
X1042200Y-3442199D03*
G01*
X1442200Y-3442199D03*
G01*
X1642200Y-3442199D03*
G01*
X1842200Y-3642199D03*
G01*
X1842200Y-4242199D03*
G01*
X905000Y-1825000D03*
G01*
X1125000Y-1825000D03*
G01*
X855000Y-1875000D03*
G01*
X1030000Y-1875000D03*
G01*
X2475000Y-1685000D03*
G01*
X1605000Y-1310000D03*
G01*
X1590000Y-2075000D03*
G01*
X1590000Y-1705000D03*
G01*
X765000Y-1360000D03*
G01*
X995000Y-1700000D03*
G01*
X2025000Y-1585000D03*
G01*
X1995000Y-1810000D03*
G01*
X650000Y-1730000D03*
G01*
X675000Y-1770000D03*
G01*
X1400000Y-1680000D03*
G01*
X1400000Y-1725000D03*
G01*
X42220Y-1442199D03*
G01*
X242220Y-1442199D03*
G01*
X242220Y-2042199D03*
G01*
X442220Y-1642199D03*
G01*
X442220Y-1842199D03*
G01*
X42220Y-1442199D03*
G01*
X242220Y-1442199D03*
G01*
X242220Y-2042199D03*
G01*
X442220Y-1642199D03*
G01*
X442220Y-1842199D03*
G01*
X42220Y-1442199D03*
G01*
X242220Y-1442199D03*
G01*
X242220Y-2042199D03*
G01*
X442220Y-1642199D03*
G01*
X442220Y-1842199D03*
G01*
X1042219Y-1242199D03*
G01*
X1442219Y-1242199D03*
G01*
X1642219Y-1242199D03*
G01*
X1842219Y-1242199D03*
G01*
X725659Y-2042199D03*
G01*
X1125659Y-2042199D03*
G01*
X1325659Y-1842199D03*
G01*
X1325659Y-2042199D03*
G01*
X1525659Y-1842199D03*
G01*
X1525659Y-2042199D03*
G01*
X1725659Y-2042199D03*
G01*
X2125659Y-1642199D03*
G01*
X2325659Y-1242199D03*
G01*
X2325659Y-1642199D03*
G01*
X2325659Y-2042199D03*
G01*
X2525659Y-1442199D03*
G01*
X2525659Y-1642199D03*
G01*
X2525659Y-1842199D03*
G01*
X2525659Y-2042199D03*
D50*
X159103Y424420D02*
G01*
X60677Y424420D01*
X159103Y-24389D02*
G01*
X60677Y-24389D01*
D51*
X111109Y-829920D02*
G01*
X83551Y-829920D01*
X111129Y-570079D02*
G01*
X83571Y-570079D01*
X111109Y-4039920D02*
G01*
X83551Y-4039920D01*
X111129Y-3780079D02*
G01*
X83571Y-3780079D01*
X111109Y-1829920D02*
G01*
X83551Y-1829920D01*
X111129Y-1570079D02*
G01*
X83571Y-1570079D01*
X111109Y970079D02*
G01*
X83551Y970079D01*
X111129Y1229920D02*
G01*
X83571Y1229920D01*
M02*
