G04 Layer: TopPasteMaskLayer*
G04 EasyEDA v6.4.25, 2021-12-03T12:49:28+01:00*
G04 accffd0c38b74f39b4550f21fb377da6,9c416354eb984020824aaf9c885bead6,10*
G04 Gerber Generator version 0.2*
G04 Scale: 100 percent, Rotated: No, Reflected: No *
G04 Dimensions in inches *
G04 leading zeros omitted , absolute positions ,3 integer and 6 decimal *
%FSLAX36Y36*%
%MOIN*%

%ADD13C,0.0220*%
%ADD14C,0.0256*%
%ADD15C,0.0236*%
%ADD17R,0.0197X0.0315*%
%ADD18R,0.0421X0.0236*%
%ADD19R,0.0236X0.0421*%
%ADD20R,0.0422X0.0209*%
%ADD21R,0.0315X0.0197*%
%ADD25R,0.0394X0.0709*%
%ADD26R,0.0709X0.0394*%
%ADD27R,0.0622X0.0315*%
%ADD28R,0.1772X0.1575*%
%ADD29R,0.0787X0.0315*%
%ADD33R,0.0315X0.0315*%
%ADD34R,0.0157X0.0217*%
%ADD35R,0.0098X0.0217*%
%ADD36R,0.0390X0.0430*%
%ADD37R,0.0236X0.0197*%
%ADD38R,0.0217X0.0157*%
%ADD39R,0.0217X0.0098*%
%ADD40R,0.0197X0.0236*%
%ADD41R,0.0315X0.0354*%
%ADD42R,0.0354X0.0315*%

%LPD*%
G36*
X60679Y5140D02*
G01*
X57740Y5000D01*
X54820Y4560D01*
X51960Y3840D01*
X49200Y2819D01*
X46560Y1540D01*
X44040Y20D01*
X41700Y-1760D01*
X39540Y-3760D01*
X37580Y-5980D01*
X35860Y-8360D01*
X34400Y-10920D01*
X33180Y-13600D01*
X32240Y-16379D01*
X31600Y-19260D01*
X31220Y-22180D01*
X31160Y-25120D01*
X31220Y-26600D01*
X31600Y-29520D01*
X32240Y-32380D01*
X33180Y-35180D01*
X34400Y-37860D01*
X35860Y-40400D01*
X37580Y-42800D01*
X39540Y-45000D01*
X40580Y-46040D01*
X42840Y-47920D01*
X45279Y-49580D01*
X47859Y-50980D01*
X50580Y-52140D01*
X53380Y-53000D01*
X56280Y-53580D01*
X59200Y-53880D01*
X159100Y-53920D01*
X162040Y-53760D01*
X164940Y-53320D01*
X167800Y-52600D01*
X170560Y-51600D01*
X173220Y-50320D01*
X175740Y-48780D01*
X178080Y-47000D01*
X180240Y-45000D01*
X182180Y-42800D01*
X183900Y-40400D01*
X185380Y-37860D01*
X186580Y-35180D01*
X187520Y-32380D01*
X188180Y-29520D01*
X188540Y-26600D01*
X188619Y-23640D01*
X188400Y-20720D01*
X187880Y-17820D01*
X187079Y-14980D01*
X186020Y-12240D01*
X184660Y-9620D01*
X183080Y-7140D01*
X181240Y-4840D01*
X179180Y-2740D01*
X176920Y-840D01*
X174500Y820D01*
X171900Y2220D01*
X169200Y3360D01*
X167800Y3840D01*
X164940Y4560D01*
X162040Y5000D01*
X159100Y5140D01*
G37*
G36*
X60679Y453960D02*
G01*
X57740Y453800D01*
X54820Y453360D01*
X51960Y452640D01*
X49200Y451640D01*
X46560Y450360D01*
X44040Y448820D01*
X41700Y447040D01*
X40580Y446079D01*
X38540Y443960D01*
X36700Y441659D01*
X35100Y439180D01*
X33760Y436560D01*
X32679Y433820D01*
X31880Y431000D01*
X31380Y428100D01*
X31220Y426640D01*
X31160Y423680D01*
X31380Y420760D01*
X31880Y417860D01*
X32679Y415020D01*
X33760Y412280D01*
X35100Y409660D01*
X36700Y407180D01*
X38540Y404880D01*
X40580Y402780D01*
X42840Y400880D01*
X45279Y399219D01*
X47859Y397819D01*
X50580Y396680D01*
X51960Y396200D01*
X54820Y395480D01*
X57740Y395040D01*
X60679Y394900D01*
X160560Y394940D01*
X163500Y395220D01*
X166380Y395820D01*
X167800Y396200D01*
X170560Y397220D01*
X173220Y398500D01*
X175740Y400020D01*
X178080Y401800D01*
X180240Y403800D01*
X182180Y406019D01*
X183900Y408400D01*
X185380Y410959D01*
X186580Y413640D01*
X187520Y416420D01*
X188180Y419300D01*
X188540Y422220D01*
X188619Y425160D01*
X188400Y428100D01*
X187880Y431000D01*
X187079Y433820D01*
X186020Y436560D01*
X184660Y439180D01*
X183080Y441659D01*
X181240Y443960D01*
X179180Y446079D01*
X176920Y447960D01*
X174500Y449620D01*
X171900Y451019D01*
X169200Y452180D01*
X166380Y453040D01*
X163500Y453620D01*
X160560Y453920D01*
G37*
G36*
X170900Y361420D02*
G01*
X170900Y314160D01*
X269320Y314160D01*
X269320Y361420D01*
G37*
G36*
X170900Y262980D02*
G01*
X170900Y215740D01*
X269320Y215740D01*
X269320Y262980D01*
G37*
G36*
X170900Y184240D02*
G01*
X170900Y137000D01*
X269320Y137000D01*
X269320Y184240D01*
G37*
G36*
X170900Y85820D02*
G01*
X170900Y38580D01*
X269320Y38580D01*
X269320Y85820D01*
G37*
G36*
X2477440Y-842560D02*
G01*
X2473500Y-846500D01*
X2473500Y-903000D01*
X2477440Y-906919D01*
X2532560Y-906919D01*
X2536500Y-903000D01*
X2536500Y-846500D01*
X2532560Y-842560D01*
X2517980Y-842560D01*
X2514040Y-846500D01*
X2514040Y-860500D01*
X2510100Y-864440D01*
X2499900Y-864440D01*
X2495960Y-860500D01*
X2495960Y-846500D01*
X2492020Y-842560D01*
G37*
G36*
X2477440Y-723080D02*
G01*
X2473500Y-727000D01*
X2473500Y-783500D01*
X2477440Y-787440D01*
X2492020Y-787440D01*
X2495960Y-783500D01*
X2495960Y-769500D01*
X2499900Y-765560D01*
X2510100Y-765560D01*
X2514040Y-769500D01*
X2514040Y-783500D01*
X2517980Y-787440D01*
X2532560Y-787440D01*
X2536500Y-783500D01*
X2536500Y-727000D01*
X2532560Y-723080D01*
G37*
G36*
X2477440Y-617560D02*
G01*
X2473500Y-621500D01*
X2473500Y-678000D01*
X2477440Y-681919D01*
X2532560Y-681919D01*
X2536500Y-678000D01*
X2536500Y-621500D01*
X2532560Y-617560D01*
X2517980Y-617560D01*
X2514040Y-621500D01*
X2514040Y-635500D01*
X2510100Y-639440D01*
X2499900Y-639440D01*
X2495960Y-635500D01*
X2495960Y-621500D01*
X2492020Y-617560D01*
G37*
G36*
X2477440Y-498080D02*
G01*
X2473500Y-502000D01*
X2473500Y-558500D01*
X2477440Y-562440D01*
X2492020Y-562440D01*
X2495960Y-558500D01*
X2495960Y-544500D01*
X2499900Y-540560D01*
X2510100Y-540560D01*
X2514040Y-544500D01*
X2514040Y-558500D01*
X2517980Y-562440D01*
X2532560Y-562440D01*
X2536500Y-558500D01*
X2536500Y-502000D01*
X2532560Y-498080D01*
G37*
G36*
X176100Y-640939D02*
G01*
X176100Y-656700D01*
X229240Y-656700D01*
X229240Y-640939D01*
G37*
G36*
X176100Y-666540D02*
G01*
X176100Y-682280D01*
X229240Y-682280D01*
X229240Y-666540D01*
G37*
G36*
X176100Y-743300D02*
G01*
X176100Y-759060D01*
X229240Y-759060D01*
X229240Y-743300D01*
G37*
G36*
X176100Y-717720D02*
G01*
X176100Y-733460D01*
X229240Y-733460D01*
X229240Y-717720D01*
G37*
G36*
X176100Y-692120D02*
G01*
X176100Y-707880D01*
X229240Y-707880D01*
X229240Y-692120D01*
G37*
G36*
X59960Y-615360D02*
G01*
X59960Y-690160D01*
X134760Y-690160D01*
X134760Y-615360D01*
G37*
G36*
X59960Y-709840D02*
G01*
X59960Y-784640D01*
X134760Y-784640D01*
X134760Y-709840D01*
G37*
G36*
X166500Y-542520D02*
G01*
X166500Y-605520D01*
X221620Y-605520D01*
X221620Y-542520D01*
G37*
G36*
X166500Y-794500D02*
G01*
X166500Y-857480D01*
X221620Y-857480D01*
X221620Y-794500D01*
G37*
G36*
X83560Y-808280D02*
G01*
X80900Y-808439D01*
X78280Y-808920D01*
X76980Y-809280D01*
X74500Y-810260D01*
X73300Y-810840D01*
X71040Y-812260D01*
X68960Y-813920D01*
X67100Y-815840D01*
X65500Y-817960D01*
X64160Y-820280D01*
X63120Y-822720D01*
X62400Y-825300D01*
X62000Y-827920D01*
X61900Y-830600D01*
X62160Y-833240D01*
X62720Y-835840D01*
X63120Y-837120D01*
X64160Y-839580D01*
X65500Y-841880D01*
X67100Y-844020D01*
X68960Y-845920D01*
X71040Y-847600D01*
X73300Y-849000D01*
X75720Y-850120D01*
X78280Y-850920D01*
X80900Y-851420D01*
X83560Y-851580D01*
X112440Y-851540D01*
X113780Y-851420D01*
X116400Y-850920D01*
X118940Y-850120D01*
X121359Y-849000D01*
X123620Y-847600D01*
X125700Y-845920D01*
X127560Y-844020D01*
X129160Y-841880D01*
X130500Y-839580D01*
X131540Y-837120D01*
X132260Y-834560D01*
X132680Y-831919D01*
X132760Y-829260D01*
X132680Y-827920D01*
X132260Y-825300D01*
X131540Y-822720D01*
X130500Y-820280D01*
X129160Y-817960D01*
X127560Y-815840D01*
X125700Y-813920D01*
X123620Y-812260D01*
X121359Y-810840D01*
X118940Y-809740D01*
X117680Y-809280D01*
X115100Y-808640D01*
X112440Y-808319D01*
G37*
G36*
X83560Y-548440D02*
G01*
X80920Y-548620D01*
X79600Y-548820D01*
X77040Y-549480D01*
X74560Y-550460D01*
X72240Y-551720D01*
X70080Y-553260D01*
X68120Y-555060D01*
X66400Y-557080D01*
X64940Y-559300D01*
X63760Y-561680D01*
X62880Y-564180D01*
X62320Y-566780D01*
X62080Y-569420D01*
X62160Y-572080D01*
X62560Y-574700D01*
X63280Y-577260D01*
X64320Y-579700D01*
X65640Y-582000D01*
X67220Y-584120D01*
X69080Y-586040D01*
X71140Y-587700D01*
X73380Y-589120D01*
X75780Y-590240D01*
X78320Y-591060D01*
X80920Y-591560D01*
X83560Y-591740D01*
X111120Y-591740D01*
X113780Y-591560D01*
X116380Y-591060D01*
X118900Y-590240D01*
X121320Y-589120D01*
X123560Y-587700D01*
X125620Y-586040D01*
X127460Y-584120D01*
X129060Y-582000D01*
X130380Y-579700D01*
X131420Y-577260D01*
X132140Y-574700D01*
X132540Y-572080D01*
X132620Y-569420D01*
X132380Y-566780D01*
X131820Y-564180D01*
X130940Y-561680D01*
X129760Y-559300D01*
X128300Y-557080D01*
X126580Y-555060D01*
X124620Y-553260D01*
X122460Y-551720D01*
X120120Y-550460D01*
X117660Y-549480D01*
X115079Y-548820D01*
X112460Y-548480D01*
G37*
G36*
X176100Y-3850940D02*
G01*
X176100Y-3866700D01*
X229240Y-3866700D01*
X229240Y-3850940D01*
G37*
G36*
X176100Y-3876540D02*
G01*
X176100Y-3892280D01*
X229240Y-3892280D01*
X229240Y-3876540D01*
G37*
G36*
X176100Y-3953300D02*
G01*
X176100Y-3969060D01*
X229240Y-3969060D01*
X229240Y-3953300D01*
G37*
G36*
X176100Y-3927720D02*
G01*
X176100Y-3943460D01*
X229240Y-3943460D01*
X229240Y-3927720D01*
G37*
G36*
X176100Y-3902120D02*
G01*
X176100Y-3917880D01*
X229240Y-3917880D01*
X229240Y-3902120D01*
G37*
G36*
X59960Y-3825360D02*
G01*
X59960Y-3900160D01*
X134760Y-3900160D01*
X134760Y-3825360D01*
G37*
G36*
X59960Y-3919840D02*
G01*
X59960Y-3994640D01*
X134760Y-3994640D01*
X134760Y-3919840D01*
G37*
G36*
X166500Y-3752520D02*
G01*
X166500Y-3815520D01*
X221620Y-3815520D01*
X221620Y-3752520D01*
G37*
G36*
X166500Y-4004500D02*
G01*
X166500Y-4067480D01*
X221620Y-4067480D01*
X221620Y-4004500D01*
G37*
G36*
X83560Y-4018279D02*
G01*
X80900Y-4018440D01*
X78280Y-4018920D01*
X76980Y-4019280D01*
X74500Y-4020260D01*
X73300Y-4020840D01*
X71040Y-4022260D01*
X68960Y-4023920D01*
X67100Y-4025840D01*
X65500Y-4027960D01*
X64160Y-4030280D01*
X63120Y-4032720D01*
X62400Y-4035299D01*
X62000Y-4037919D01*
X61900Y-4040600D01*
X62160Y-4043240D01*
X62720Y-4045840D01*
X63120Y-4047120D01*
X64160Y-4049580D01*
X65500Y-4051880D01*
X67100Y-4054020D01*
X68960Y-4055920D01*
X71040Y-4057600D01*
X73300Y-4059000D01*
X75720Y-4060120D01*
X78280Y-4060920D01*
X80900Y-4061420D01*
X83560Y-4061580D01*
X112440Y-4061540D01*
X113780Y-4061420D01*
X116400Y-4060920D01*
X118940Y-4060120D01*
X121359Y-4059000D01*
X123620Y-4057600D01*
X125700Y-4055920D01*
X127560Y-4054020D01*
X129160Y-4051880D01*
X130500Y-4049580D01*
X131540Y-4047120D01*
X132260Y-4044560D01*
X132680Y-4041920D01*
X132760Y-4039260D01*
X132680Y-4037919D01*
X132260Y-4035299D01*
X131540Y-4032720D01*
X130500Y-4030280D01*
X129160Y-4027960D01*
X127560Y-4025840D01*
X125700Y-4023920D01*
X123620Y-4022260D01*
X121359Y-4020840D01*
X118940Y-4019740D01*
X117680Y-4019280D01*
X115100Y-4018639D01*
X112440Y-4018320D01*
G37*
G36*
X83560Y-3758440D02*
G01*
X80920Y-3758620D01*
X79600Y-3758820D01*
X77040Y-3759480D01*
X74560Y-3760460D01*
X72240Y-3761720D01*
X70080Y-3763260D01*
X68120Y-3765059D01*
X66400Y-3767080D01*
X64940Y-3769300D01*
X63760Y-3771680D01*
X62880Y-3774180D01*
X62320Y-3776780D01*
X62080Y-3779420D01*
X62160Y-3782080D01*
X62560Y-3784700D01*
X63280Y-3787260D01*
X64320Y-3789700D01*
X65640Y-3792000D01*
X67220Y-3794120D01*
X69080Y-3796040D01*
X71140Y-3797700D01*
X73380Y-3799120D01*
X75780Y-3800240D01*
X78320Y-3801060D01*
X80920Y-3801560D01*
X83560Y-3801740D01*
X111120Y-3801740D01*
X113780Y-3801560D01*
X116380Y-3801060D01*
X118900Y-3800240D01*
X121320Y-3799120D01*
X123560Y-3797700D01*
X125620Y-3796040D01*
X127460Y-3794120D01*
X129060Y-3792000D01*
X130380Y-3789700D01*
X131420Y-3787260D01*
X132140Y-3784700D01*
X132540Y-3782080D01*
X132620Y-3779420D01*
X132380Y-3776780D01*
X131820Y-3774180D01*
X130940Y-3771680D01*
X129760Y-3769300D01*
X128300Y-3767080D01*
X126580Y-3765059D01*
X124620Y-3763260D01*
X122460Y-3761720D01*
X120120Y-3760460D01*
X117660Y-3759480D01*
X115079Y-3758820D01*
X112460Y-3758480D01*
G37*
G36*
X176100Y-1640940D02*
G01*
X176100Y-1656699D01*
X229240Y-1656699D01*
X229240Y-1640940D01*
G37*
G36*
X176100Y-1666540D02*
G01*
X176100Y-1682280D01*
X229240Y-1682280D01*
X229240Y-1666540D01*
G37*
G36*
X176100Y-1743300D02*
G01*
X176100Y-1759060D01*
X229240Y-1759060D01*
X229240Y-1743300D01*
G37*
G36*
X176100Y-1717720D02*
G01*
X176100Y-1733460D01*
X229240Y-1733460D01*
X229240Y-1717720D01*
G37*
G36*
X176100Y-1692120D02*
G01*
X176100Y-1707880D01*
X229240Y-1707880D01*
X229240Y-1692120D01*
G37*
G36*
X59960Y-1615360D02*
G01*
X59960Y-1690160D01*
X134760Y-1690160D01*
X134760Y-1615360D01*
G37*
G36*
X59960Y-1709840D02*
G01*
X59960Y-1784640D01*
X134760Y-1784640D01*
X134760Y-1709840D01*
G37*
G36*
X166500Y-1542520D02*
G01*
X166500Y-1605520D01*
X221620Y-1605520D01*
X221620Y-1542520D01*
G37*
G36*
X166500Y-1794500D02*
G01*
X166500Y-1857480D01*
X221620Y-1857480D01*
X221620Y-1794500D01*
G37*
G36*
X83560Y-1808280D02*
G01*
X80900Y-1808440D01*
X78280Y-1808920D01*
X76980Y-1809280D01*
X74500Y-1810260D01*
X73300Y-1810840D01*
X71040Y-1812260D01*
X68960Y-1813920D01*
X67100Y-1815840D01*
X65500Y-1817960D01*
X64160Y-1820280D01*
X63120Y-1822720D01*
X62400Y-1825300D01*
X62000Y-1827920D01*
X61900Y-1830600D01*
X62160Y-1833240D01*
X62720Y-1835840D01*
X63120Y-1837120D01*
X64160Y-1839580D01*
X65500Y-1841879D01*
X67100Y-1844019D01*
X68960Y-1845920D01*
X71040Y-1847600D01*
X73300Y-1849000D01*
X75720Y-1850120D01*
X78280Y-1850920D01*
X80900Y-1851420D01*
X83560Y-1851579D01*
X112440Y-1851540D01*
X113780Y-1851420D01*
X116400Y-1850920D01*
X118940Y-1850120D01*
X121359Y-1849000D01*
X123620Y-1847600D01*
X125700Y-1845920D01*
X127560Y-1844019D01*
X129160Y-1841879D01*
X130500Y-1839580D01*
X131540Y-1837120D01*
X132260Y-1834560D01*
X132680Y-1831920D01*
X132760Y-1829259D01*
X132680Y-1827920D01*
X132260Y-1825300D01*
X131540Y-1822720D01*
X130500Y-1820280D01*
X129160Y-1817960D01*
X127560Y-1815840D01*
X125700Y-1813920D01*
X123620Y-1812260D01*
X121359Y-1810840D01*
X118940Y-1809740D01*
X117680Y-1809280D01*
X115100Y-1808640D01*
X112440Y-1808320D01*
G37*
G36*
X83560Y-1548440D02*
G01*
X80920Y-1548620D01*
X79600Y-1548820D01*
X77040Y-1549480D01*
X74560Y-1550460D01*
X72240Y-1551720D01*
X70080Y-1553260D01*
X68120Y-1555060D01*
X66400Y-1557080D01*
X64940Y-1559300D01*
X63760Y-1561680D01*
X62880Y-1564180D01*
X62320Y-1566780D01*
X62080Y-1569420D01*
X62160Y-1572080D01*
X62560Y-1574700D01*
X63280Y-1577260D01*
X64320Y-1579700D01*
X65640Y-1582000D01*
X67220Y-1584120D01*
X69080Y-1586040D01*
X71140Y-1587700D01*
X73380Y-1589120D01*
X75780Y-1590240D01*
X78320Y-1591060D01*
X80920Y-1591560D01*
X83560Y-1591740D01*
X111120Y-1591740D01*
X113780Y-1591560D01*
X116380Y-1591060D01*
X118900Y-1590240D01*
X121320Y-1589120D01*
X123560Y-1587700D01*
X125620Y-1586040D01*
X127460Y-1584120D01*
X129060Y-1582000D01*
X130380Y-1579700D01*
X131420Y-1577260D01*
X132140Y-1574700D01*
X132540Y-1572080D01*
X132620Y-1569420D01*
X132380Y-1566780D01*
X131820Y-1564180D01*
X130940Y-1561680D01*
X129760Y-1559300D01*
X128300Y-1557080D01*
X126580Y-1555060D01*
X124620Y-1553260D01*
X122460Y-1551720D01*
X120120Y-1550460D01*
X117660Y-1549480D01*
X115079Y-1548820D01*
X112460Y-1548480D01*
G37*
G36*
X176100Y1159060D02*
G01*
X176100Y1143300D01*
X229240Y1143300D01*
X229240Y1159060D01*
G37*
G36*
X176100Y1133460D02*
G01*
X176100Y1117720D01*
X229240Y1117720D01*
X229240Y1133460D01*
G37*
G36*
X176100Y1056700D02*
G01*
X176100Y1040939D01*
X229240Y1040939D01*
X229240Y1056700D01*
G37*
G36*
X176100Y1082280D02*
G01*
X176100Y1066540D01*
X229240Y1066540D01*
X229240Y1082280D01*
G37*
G36*
X176100Y1107880D02*
G01*
X176100Y1092120D01*
X229240Y1092120D01*
X229240Y1107880D01*
G37*
G36*
X59960Y1184640D02*
G01*
X59960Y1109840D01*
X134760Y1109840D01*
X134760Y1184640D01*
G37*
G36*
X59960Y1090160D02*
G01*
X59960Y1015360D01*
X134760Y1015360D01*
X134760Y1090160D01*
G37*
G36*
X166500Y1257480D02*
G01*
X166500Y1194480D01*
X221620Y1194480D01*
X221620Y1257480D01*
G37*
G36*
X166500Y1005500D02*
G01*
X166500Y942520D01*
X221620Y942520D01*
X221620Y1005500D01*
G37*
G36*
X83560Y991720D02*
G01*
X80900Y991560D01*
X78280Y991080D01*
X76980Y990720D01*
X74500Y989740D01*
X73300Y989160D01*
X71040Y987740D01*
X68960Y986080D01*
X67100Y984160D01*
X65500Y982039D01*
X64160Y979720D01*
X63120Y977280D01*
X62400Y974700D01*
X62000Y972080D01*
X61900Y969400D01*
X62160Y966760D01*
X62720Y964160D01*
X63120Y962880D01*
X64160Y960420D01*
X65500Y958120D01*
X67100Y955980D01*
X68960Y954080D01*
X71040Y952400D01*
X73300Y951000D01*
X75720Y949880D01*
X78280Y949080D01*
X80900Y948580D01*
X83560Y948420D01*
X112440Y948460D01*
X113780Y948580D01*
X116400Y949080D01*
X118940Y949880D01*
X121359Y951000D01*
X123620Y952400D01*
X125700Y954080D01*
X127560Y955980D01*
X129160Y958120D01*
X130500Y960420D01*
X131540Y962880D01*
X132260Y965440D01*
X132680Y968080D01*
X132760Y970740D01*
X132680Y972080D01*
X132260Y974700D01*
X131540Y977280D01*
X130500Y979720D01*
X129160Y982039D01*
X127560Y984160D01*
X125700Y986080D01*
X123620Y987740D01*
X121359Y989160D01*
X118940Y990260D01*
X117680Y990720D01*
X115100Y991360D01*
X112440Y991680D01*
G37*
G36*
X83560Y1251560D02*
G01*
X80920Y1251380D01*
X79600Y1251180D01*
X77040Y1250520D01*
X74560Y1249540D01*
X72240Y1248280D01*
X70080Y1246740D01*
X68120Y1244940D01*
X66400Y1242920D01*
X64940Y1240700D01*
X63760Y1238320D01*
X62880Y1235820D01*
X62320Y1233220D01*
X62080Y1230580D01*
X62160Y1227920D01*
X62560Y1225300D01*
X63280Y1222740D01*
X64320Y1220300D01*
X65640Y1218000D01*
X67220Y1215880D01*
X69080Y1213960D01*
X71140Y1212300D01*
X73380Y1210880D01*
X75780Y1209760D01*
X78320Y1208940D01*
X80920Y1208440D01*
X83560Y1208260D01*
X111120Y1208260D01*
X113780Y1208440D01*
X116380Y1208940D01*
X118900Y1209760D01*
X121320Y1210880D01*
X123560Y1212300D01*
X125620Y1213960D01*
X127460Y1215880D01*
X129060Y1218000D01*
X130380Y1220300D01*
X131420Y1222740D01*
X132140Y1225300D01*
X132540Y1227920D01*
X132620Y1230580D01*
X132380Y1233220D01*
X131820Y1235820D01*
X130940Y1238320D01*
X129760Y1240700D01*
X128300Y1242920D01*
X126580Y1244940D01*
X124620Y1246740D01*
X122460Y1248280D01*
X120120Y1249540D01*
X117660Y1250520D01*
X115079Y1251180D01*
X112460Y1251520D01*
G37*
D13*
X2510905Y-3075000D02*
G01*
X2584594Y-3075000D01*
X2510905Y-3025000D02*
G01*
X2584594Y-3025000D01*
X2510905Y-2975000D02*
G01*
X2584594Y-2975000D01*
X2510905Y-2925000D02*
G01*
X2584594Y-2925000D01*
X2510905Y-2875000D02*
G01*
X2584594Y-2875000D01*
X2510905Y-2825000D02*
G01*
X2584594Y-2825000D01*
X2510905Y-2775000D02*
G01*
X2584594Y-2775000D01*
X2510905Y-2725000D02*
G01*
X2584594Y-2725000D01*
X2510905Y-2675000D02*
G01*
X2584594Y-2675000D01*
X2510905Y-2625000D02*
G01*
X2584594Y-2625000D01*
X2510905Y-2575000D02*
G01*
X2584594Y-2575000D01*
X2510905Y-2525000D02*
G01*
X2584594Y-2525000D01*
X2135406Y-3075000D02*
G01*
X2209094Y-3075000D01*
X2135406Y-3025000D02*
G01*
X2209094Y-3025000D01*
X2135406Y-2975000D02*
G01*
X2209094Y-2975000D01*
X2135406Y-2925000D02*
G01*
X2209094Y-2925000D01*
X2135406Y-2875000D02*
G01*
X2209094Y-2875000D01*
X2135406Y-2825000D02*
G01*
X2209094Y-2825000D01*
X2135406Y-2775000D02*
G01*
X2209094Y-2775000D01*
X2135406Y-2725000D02*
G01*
X2209094Y-2725000D01*
X2135406Y-2675000D02*
G01*
X2209094Y-2675000D01*
X2135406Y-2625000D02*
G01*
X2209094Y-2625000D01*
X2135406Y-2575000D02*
G01*
X2209094Y-2575000D01*
X2135406Y-2525000D02*
G01*
X2209094Y-2525000D01*
X89095Y-2525000D02*
G01*
X15405Y-2525000D01*
X89095Y-2575000D02*
G01*
X15405Y-2575000D01*
X89095Y-2625000D02*
G01*
X15405Y-2625000D01*
X89095Y-2675000D02*
G01*
X15405Y-2675000D01*
X89095Y-2725000D02*
G01*
X15405Y-2725000D01*
X89095Y-2775000D02*
G01*
X15405Y-2775000D01*
X89095Y-2825000D02*
G01*
X15405Y-2825000D01*
X89095Y-2875000D02*
G01*
X15405Y-2875000D01*
X89095Y-2925000D02*
G01*
X15405Y-2925000D01*
X89095Y-2975000D02*
G01*
X15405Y-2975000D01*
X89095Y-3025000D02*
G01*
X15405Y-3025000D01*
X89095Y-3075000D02*
G01*
X15405Y-3075000D01*
X464594Y-2525000D02*
G01*
X390905Y-2525000D01*
X464594Y-2575000D02*
G01*
X390905Y-2575000D01*
X464594Y-2625000D02*
G01*
X390905Y-2625000D01*
X464594Y-2675000D02*
G01*
X390905Y-2675000D01*
X464594Y-2725000D02*
G01*
X390905Y-2725000D01*
X464594Y-2775000D02*
G01*
X390905Y-2775000D01*
X464594Y-2825000D02*
G01*
X390905Y-2825000D01*
X464594Y-2875000D02*
G01*
X390905Y-2875000D01*
X464594Y-2925000D02*
G01*
X390905Y-2925000D01*
X464594Y-2975000D02*
G01*
X390905Y-2975000D01*
X464594Y-3025000D02*
G01*
X390905Y-3025000D01*
X464594Y-3075000D02*
G01*
X390905Y-3075000D01*
D14*
X1125001Y990000D02*
G01*
X1166338Y990000D01*
X1125001Y1040000D02*
G01*
X1166338Y1040000D01*
X1125001Y1090000D02*
G01*
X1166338Y1090000D01*
X1125001Y1140000D02*
G01*
X1166338Y1140000D01*
X833661Y990000D02*
G01*
X874998Y990000D01*
X833661Y1040000D02*
G01*
X874998Y1040000D01*
X833661Y1090000D02*
G01*
X874998Y1090000D01*
X833661Y1140000D02*
G01*
X874998Y1140000D01*
X1110001Y90000D02*
G01*
X1151338Y90000D01*
X1110001Y140000D02*
G01*
X1151338Y140000D01*
X1110001Y190000D02*
G01*
X1151338Y190000D01*
X1110001Y240000D02*
G01*
X1151338Y240000D01*
X818661Y90000D02*
G01*
X859998Y90000D01*
X818661Y140000D02*
G01*
X859998Y140000D01*
X818661Y190000D02*
G01*
X859998Y190000D01*
X818661Y240000D02*
G01*
X859998Y240000D01*
D15*
X955000Y-1755241D02*
G01*
X955000Y-1719020D01*
X905000Y-1755241D02*
G01*
X905000Y-1719020D01*
X855000Y-1755241D02*
G01*
X855000Y-1719020D01*
X805000Y-1755241D02*
G01*
X805000Y-1719020D01*
X955000Y-1970979D02*
G01*
X955000Y-1934760D01*
X905000Y-1970979D02*
G01*
X905000Y-1934760D01*
X855000Y-1970979D02*
G01*
X855000Y-1934760D01*
X805000Y-1970979D02*
G01*
X805000Y-1934760D01*
D14*
X1115001Y-755000D02*
G01*
X1156338Y-755000D01*
X1115001Y-705000D02*
G01*
X1156338Y-705000D01*
X1115001Y-655000D02*
G01*
X1156338Y-655000D01*
X1115001Y-605000D02*
G01*
X1156338Y-605000D01*
X823661Y-755000D02*
G01*
X864998Y-755000D01*
X823661Y-705000D02*
G01*
X864998Y-705000D01*
X823661Y-655000D02*
G01*
X864998Y-655000D01*
X823661Y-605000D02*
G01*
X864998Y-605000D01*
X1425001Y-4005000D02*
G01*
X1466338Y-4005000D01*
X1425001Y-3955000D02*
G01*
X1466338Y-3955000D01*
X1425001Y-3905000D02*
G01*
X1466338Y-3905000D01*
X1425001Y-3855000D02*
G01*
X1466338Y-3855000D01*
X1133661Y-4005000D02*
G01*
X1174998Y-4005000D01*
X1133661Y-3955000D02*
G01*
X1174998Y-3955000D01*
X1133661Y-3905000D02*
G01*
X1174998Y-3905000D01*
X1133661Y-3855000D02*
G01*
X1174998Y-3855000D01*
X830001Y-1650000D02*
G01*
X871338Y-1650000D01*
X830001Y-1600000D02*
G01*
X871338Y-1600000D01*
X830001Y-1550000D02*
G01*
X871338Y-1550000D01*
X830001Y-1500000D02*
G01*
X871338Y-1500000D01*
X538661Y-1650000D02*
G01*
X579998Y-1650000D01*
X538661Y-1600000D02*
G01*
X579998Y-1600000D01*
X538661Y-1550000D02*
G01*
X579998Y-1550000D01*
X538661Y-1500000D02*
G01*
X579998Y-1500000D01*
D17*
G01*
X640309Y-845000D03*
G01*
X679679Y-845000D03*
D18*
G01*
X961379Y-827600D03*
G01*
X961379Y-902399D03*
G01*
X1058620Y-865000D03*
D19*
G01*
X1117399Y-1666379D03*
G01*
X1042600Y-1666379D03*
G01*
X1080000Y-1763620D03*
G01*
X1477399Y1278620D03*
G01*
X1402600Y1278620D03*
G01*
X1440000Y1181379D03*
G01*
X1812399Y1278620D03*
G01*
X1737600Y1278620D03*
G01*
X1775000Y1181379D03*
G01*
X2157399Y1278620D03*
G01*
X2082600Y1278620D03*
G01*
X2120000Y1181379D03*
D20*
G01*
X439760Y237399D03*
G01*
X439760Y200000D03*
G01*
X439760Y162600D03*
G01*
X530239Y162600D03*
G01*
X530239Y200000D03*
G01*
X530239Y237399D03*
D21*
G01*
X1030000Y-1834690D03*
G01*
X1030000Y-1795320D03*
G36*
X1144174Y-3793096D02*
G01*
X1130255Y-3807015D01*
X1107984Y-3784744D01*
X1121904Y-3770825D01*
G37*
G36*
X1172013Y-3765257D02*
G01*
X1158095Y-3779176D01*
X1135824Y-3756904D01*
X1149742Y-3742986D01*
G37*
G01*
X665000Y-3919690D03*
G01*
X665000Y-3880320D03*
G01*
X340000Y-3779690D03*
G01*
X340000Y-3740320D03*
D25*
G01*
X1359040Y-4161590D03*
G01*
X1240940Y-4161590D03*
G01*
X1240940Y-4358440D03*
G01*
X1359040Y-4358440D03*
G36*
X1516006Y-3999684D02*
G01*
X1566117Y-4049794D01*
X1538278Y-4077633D01*
X1488167Y-4027522D01*
G37*
G36*
X1432497Y-4083193D02*
G01*
X1482608Y-4133303D01*
X1454768Y-4161142D01*
X1404659Y-4111032D01*
G37*
G36*
X1571692Y-4222386D02*
G01*
X1621801Y-4272496D01*
X1593963Y-4300336D01*
X1543852Y-4250225D01*
G37*
G36*
X1655200Y-4138877D02*
G01*
X1705311Y-4188987D01*
X1677471Y-4216826D01*
X1627362Y-4166716D01*
G37*
G36*
X1526126Y-3816275D02*
G01*
X1596993Y-3816275D01*
X1596993Y-3855644D01*
X1526126Y-3855644D01*
G37*
G36*
X1526126Y-3934375D02*
G01*
X1596993Y-3934375D01*
X1596993Y-3973744D01*
X1526126Y-3973744D01*
G37*
G36*
X1722977Y-3934375D02*
G01*
X1793842Y-3934375D01*
X1793842Y-3973744D01*
X1722977Y-3973744D01*
G37*
G36*
X1722977Y-3816275D02*
G01*
X1793842Y-3816275D01*
X1793842Y-3855644D01*
X1722977Y-3855644D01*
G37*
G36*
X1404659Y-3678987D02*
G01*
X1454768Y-3628877D01*
X1482608Y-3656716D01*
X1432497Y-3706826D01*
G37*
G36*
X1488167Y-3762496D02*
G01*
X1538278Y-3712386D01*
X1566117Y-3740225D01*
X1516006Y-3790336D01*
G37*
G36*
X1627362Y-3623303D02*
G01*
X1677471Y-3573193D01*
X1705311Y-3601032D01*
X1655200Y-3651142D01*
G37*
G36*
X1543852Y-3539794D02*
G01*
X1593963Y-3489684D01*
X1621801Y-3517522D01*
X1571692Y-3567633D01*
G37*
G01*
X1240940Y-3638440D03*
G01*
X1359040Y-3638440D03*
G01*
X1359040Y-3441590D03*
G01*
X1240940Y-3441590D03*
G36*
X1073963Y-3790336D02*
G01*
X1023852Y-3740225D01*
X1051692Y-3712386D01*
X1101801Y-3762496D01*
G37*
G36*
X1157471Y-3706826D02*
G01*
X1107362Y-3656716D01*
X1135200Y-3628877D01*
X1185311Y-3678987D01*
G37*
G36*
X1018278Y-3567633D02*
G01*
X968167Y-3517522D01*
X996006Y-3489684D01*
X1046117Y-3539794D01*
G37*
G36*
X934768Y-3651142D02*
G01*
X884659Y-3601032D01*
X912497Y-3573193D01*
X962608Y-3623303D01*
G37*
D26*
G01*
X1033410Y-3954059D03*
G01*
X1033410Y-3835960D03*
G01*
X836559Y-3835960D03*
G01*
X836559Y-3954059D03*
G36*
X1185311Y-4111032D02*
G01*
X1135200Y-4161142D01*
X1107362Y-4133303D01*
X1157471Y-4083193D01*
G37*
G36*
X1101801Y-4027522D02*
G01*
X1051692Y-4077633D01*
X1023852Y-4049794D01*
X1073963Y-3999684D01*
G37*
G36*
X962608Y-4166716D02*
G01*
X912497Y-4216826D01*
X884659Y-4188987D01*
X934768Y-4138877D01*
G37*
G36*
X1046117Y-4250225D02*
G01*
X996006Y-4300336D01*
X968167Y-4272496D01*
X1018278Y-4222386D01*
G37*
G36*
X1350767Y288537D02*
G01*
X1412971Y288537D01*
X1412971Y257042D01*
X1350767Y257042D01*
G37*
G36*
X1586988Y288537D02*
G01*
X1649192Y288537D01*
X1649192Y257042D01*
X1586988Y257042D01*
G37*
G36*
X1350767Y142878D02*
G01*
X1412971Y142878D01*
X1412971Y111381D01*
X1350767Y111381D01*
G37*
G36*
X1586988Y142878D02*
G01*
X1649192Y142878D01*
X1649192Y111381D01*
X1586988Y111381D01*
G37*
G36*
X1700767Y288537D02*
G01*
X1762971Y288537D01*
X1762971Y257042D01*
X1700767Y257042D01*
G37*
G36*
X1936988Y288537D02*
G01*
X1999192Y288537D01*
X1999192Y257042D01*
X1936988Y257042D01*
G37*
G36*
X1700767Y142878D02*
G01*
X1762971Y142878D01*
X1762971Y111381D01*
X1700767Y111381D01*
G37*
G36*
X1936988Y142878D02*
G01*
X1999192Y142878D01*
X1999192Y111381D01*
X1936988Y111381D01*
G37*
G36*
X2050767Y288537D02*
G01*
X2112971Y288537D01*
X2112971Y257042D01*
X2050767Y257042D01*
G37*
G36*
X2286988Y288537D02*
G01*
X2349192Y288537D01*
X2349192Y257042D01*
X2286988Y257042D01*
G37*
G36*
X2050767Y142878D02*
G01*
X2112971Y142878D01*
X2112971Y111381D01*
X2050767Y111381D01*
G37*
G36*
X2286988Y142878D02*
G01*
X2349192Y142878D01*
X2349192Y111381D01*
X2286988Y111381D01*
G37*
D27*
G01*
X738090Y1027130D03*
G01*
X501869Y1027130D03*
G01*
X738090Y1172790D03*
G01*
X501869Y1172790D03*
G36*
X1350767Y-611462D02*
G01*
X1412971Y-611462D01*
X1412971Y-642957D01*
X1350767Y-642957D01*
G37*
G36*
X1586988Y-611462D02*
G01*
X1649192Y-611462D01*
X1649192Y-642957D01*
X1586988Y-642957D01*
G37*
G36*
X1350767Y-757121D02*
G01*
X1412971Y-757121D01*
X1412971Y-788618D01*
X1350767Y-788618D01*
G37*
G36*
X1586988Y-757121D02*
G01*
X1649192Y-757121D01*
X1649192Y-788618D01*
X1586988Y-788618D01*
G37*
G36*
X1700767Y-611462D02*
G01*
X1762971Y-611462D01*
X1762971Y-642957D01*
X1700767Y-642957D01*
G37*
G36*
X1936988Y-611462D02*
G01*
X1999192Y-611462D01*
X1999192Y-642957D01*
X1936988Y-642957D01*
G37*
G36*
X1700767Y-757121D02*
G01*
X1762971Y-757121D01*
X1762971Y-788618D01*
X1700767Y-788618D01*
G37*
G36*
X1936988Y-757121D02*
G01*
X1999192Y-757121D01*
X1999192Y-788618D01*
X1936988Y-788618D01*
G37*
G36*
X2050767Y-611462D02*
G01*
X2112971Y-611462D01*
X2112971Y-642957D01*
X2050767Y-642957D01*
G37*
G36*
X2286988Y-611462D02*
G01*
X2349192Y-611462D01*
X2349192Y-642957D01*
X2286988Y-642957D01*
G37*
G36*
X2050767Y-757121D02*
G01*
X2112971Y-757121D01*
X2112971Y-788618D01*
X2050767Y-788618D01*
G37*
G36*
X2286988Y-757121D02*
G01*
X2349192Y-757121D01*
X2349192Y-788618D01*
X2286988Y-788618D01*
G37*
G36*
X400817Y-3671363D02*
G01*
X463020Y-3671363D01*
X463020Y-3702858D01*
X400817Y-3702858D01*
G37*
G36*
X637037Y-3671363D02*
G01*
X699241Y-3671363D01*
X699241Y-3702858D01*
X637037Y-3702858D01*
G37*
G36*
X400817Y-3817022D02*
G01*
X463020Y-3817022D01*
X463020Y-3848519D01*
X400817Y-3848519D01*
G37*
G36*
X637037Y-3817022D02*
G01*
X699241Y-3817022D01*
X699241Y-3848519D01*
X637037Y-3848519D01*
G37*
G36*
X400817Y-3951363D02*
G01*
X463020Y-3951363D01*
X463020Y-3982858D01*
X400817Y-3982858D01*
G37*
G36*
X637037Y-3951363D02*
G01*
X699241Y-3951363D01*
X699241Y-3982858D01*
X637037Y-3982858D01*
G37*
G36*
X400817Y-4097022D02*
G01*
X463020Y-4097022D01*
X463020Y-4128519D01*
X400817Y-4128519D01*
G37*
G36*
X637037Y-4097022D02*
G01*
X699241Y-4097022D01*
X699241Y-4128519D01*
X637037Y-4128519D01*
G37*
G01*
X2368090Y-1972869D03*
G01*
X2131869Y-1972869D03*
G01*
X2368090Y-1827210D03*
G01*
X2131869Y-1827210D03*
G01*
X2368090Y-1572869D03*
G01*
X2131869Y-1572869D03*
G01*
X2368090Y-1427210D03*
G01*
X2131869Y-1427210D03*
D28*
G01*
X1276419Y-1700000D03*
G01*
X1953580Y-1700000D03*
D29*
G01*
X387210Y-655000D03*
G01*
X387199Y-755000D03*
G01*
X662800Y-755000D03*
G01*
X662800Y-655000D03*
D17*
G01*
X2365309Y-440000D03*
G01*
X2404679Y-440000D03*
D25*
G01*
X954210Y-2050000D03*
G01*
X855789Y-2050000D03*
D33*
G01*
X1655000Y1133499D03*
G01*
X1655000Y1066500D03*
G36*
X1639251Y927247D02*
G01*
X1670748Y927247D01*
X1670748Y895752D01*
X1639251Y895752D01*
G37*
G36*
X1639251Y994247D02*
G01*
X1670748Y994247D01*
X1670748Y962752D01*
X1639251Y962752D01*
G37*
G36*
X1519251Y927247D02*
G01*
X1550748Y927247D01*
X1550748Y895752D01*
X1519251Y895752D01*
G37*
G36*
X1519251Y994247D02*
G01*
X1550748Y994247D01*
X1550748Y962752D01*
X1519251Y962752D01*
G37*
G01*
X1535000Y1133499D03*
G01*
X1535000Y1066500D03*
G01*
X2330000Y1133499D03*
G01*
X2330000Y1066500D03*
G36*
X2314251Y927247D02*
G01*
X2345748Y927247D01*
X2345748Y895752D01*
X2314251Y895752D01*
G37*
G36*
X2314251Y994247D02*
G01*
X2345748Y994247D01*
X2345748Y962752D01*
X2314251Y962752D01*
G37*
G36*
X2194251Y927247D02*
G01*
X2225748Y927247D01*
X2225748Y895752D01*
X2194251Y895752D01*
G37*
G36*
X2194251Y994247D02*
G01*
X2225748Y994247D01*
X2225748Y962752D01*
X2194251Y962752D01*
G37*
G01*
X2210000Y1133499D03*
G01*
X2210000Y1066500D03*
G36*
X674843Y240747D02*
G01*
X694528Y240747D01*
X694528Y209252D01*
X674843Y209252D01*
G37*
G36*
X635473Y240747D02*
G01*
X655158Y240747D01*
X655158Y209252D01*
X635473Y209252D01*
G37*
G36*
X674843Y185747D02*
G01*
X694528Y185747D01*
X694528Y154252D01*
X674843Y154252D01*
G37*
G36*
X635473Y185747D02*
G01*
X655158Y185747D01*
X655158Y154252D01*
X635473Y154252D01*
G37*
G36*
X1244843Y255747D02*
G01*
X1264528Y255747D01*
X1264528Y224252D01*
X1244843Y224252D01*
G37*
G36*
X1205473Y255747D02*
G01*
X1225158Y255747D01*
X1225158Y224252D01*
X1205473Y224252D01*
G37*
G36*
X1244900Y200734D02*
G01*
X1264585Y200734D01*
X1264585Y169238D01*
X1244900Y169238D01*
G37*
G36*
X1205531Y200734D02*
G01*
X1225216Y200734D01*
X1225216Y169238D01*
X1205531Y169238D01*
G37*
G36*
X1244843Y145747D02*
G01*
X1264528Y145747D01*
X1264528Y114252D01*
X1244843Y114252D01*
G37*
G36*
X1205473Y145747D02*
G01*
X1225158Y145747D01*
X1225158Y114252D01*
X1205473Y114252D01*
G37*
G36*
X1249843Y1160747D02*
G01*
X1269528Y1160747D01*
X1269528Y1129252D01*
X1249843Y1129252D01*
G37*
G36*
X1210473Y1160747D02*
G01*
X1230158Y1160747D01*
X1230158Y1129252D01*
X1210473Y1129252D01*
G37*
G36*
X1249900Y1105734D02*
G01*
X1269585Y1105734D01*
X1269585Y1074238D01*
X1249900Y1074238D01*
G37*
G36*
X1210531Y1105734D02*
G01*
X1230216Y1105734D01*
X1230216Y1074238D01*
X1210531Y1074238D01*
G37*
G36*
X1249843Y1050747D02*
G01*
X1269528Y1050747D01*
X1269528Y1019252D01*
X1249843Y1019252D01*
G37*
G36*
X1210473Y1050747D02*
G01*
X1230158Y1050747D01*
X1230158Y1019252D01*
X1210473Y1019252D01*
G37*
G36*
X729843Y970747D02*
G01*
X749528Y970747D01*
X749528Y939252D01*
X729843Y939252D01*
G37*
G36*
X690473Y970747D02*
G01*
X710158Y970747D01*
X710158Y939252D01*
X690473Y939252D01*
G37*
D17*
G01*
X825309Y-885000D03*
G01*
X864679Y-885000D03*
G01*
X2365309Y-500000D03*
G01*
X2404679Y-500000D03*
G01*
X600369Y-570010D03*
G01*
X639740Y-570010D03*
G36*
X1289843Y-634252D02*
G01*
X1309528Y-634252D01*
X1309528Y-665747D01*
X1289843Y-665747D01*
G37*
G36*
X1250473Y-634252D02*
G01*
X1270158Y-634252D01*
X1270158Y-665747D01*
X1250473Y-665747D01*
G37*
G36*
X1289843Y-689252D02*
G01*
X1309528Y-689252D01*
X1309528Y-720747D01*
X1289843Y-720747D01*
G37*
G36*
X1250473Y-689252D02*
G01*
X1270158Y-689252D01*
X1270158Y-720747D01*
X1250473Y-720747D01*
G37*
G36*
X1289843Y-744252D02*
G01*
X1309528Y-744252D01*
X1309528Y-775747D01*
X1289843Y-775747D01*
G37*
G36*
X1250473Y-744252D02*
G01*
X1270158Y-744252D01*
X1270158Y-775747D01*
X1250473Y-775747D01*
G37*
G01*
X825309Y-830000D03*
G01*
X864679Y-830000D03*
D21*
G01*
X700000Y-3779569D03*
G01*
X700000Y-3740200D03*
G01*
X700000Y-4059569D03*
G01*
X700000Y-4020200D03*
G01*
X2100020Y-1880309D03*
G01*
X2100020Y-1919679D03*
G01*
X2100020Y-1480309D03*
G01*
X2100020Y-1519679D03*
G36*
X149863Y-2434252D02*
G01*
X169547Y-2434252D01*
X169547Y-2465749D01*
X149863Y-2465749D01*
G37*
G36*
X110493Y-2434252D02*
G01*
X130178Y-2434252D01*
X130178Y-2465749D01*
X110493Y-2465749D01*
G37*
G36*
X2314862Y-3139252D02*
G01*
X2334548Y-3139252D01*
X2334548Y-3170749D01*
X2314862Y-3170749D01*
G37*
G36*
X2275492Y-3139252D02*
G01*
X2295177Y-3139252D01*
X2295177Y-3170749D01*
X2275492Y-3170749D01*
G37*
D17*
G01*
X1300309Y360000D03*
G01*
X1339679Y360000D03*
G01*
X1235309Y1240000D03*
G01*
X1274679Y1240000D03*
G01*
X1225270Y-515010D03*
G01*
X1264639Y-515010D03*
G36*
X864843Y-1354252D02*
G01*
X884528Y-1354252D01*
X884528Y-1385747D01*
X864843Y-1385747D01*
G37*
G36*
X825473Y-1354252D02*
G01*
X845158Y-1354252D01*
X845158Y-1385747D01*
X825473Y-1385747D01*
G37*
D34*
G01*
X2238500Y1214250D03*
G01*
X2301499Y1245749D03*
G01*
X2301499Y1214250D03*
D35*
G01*
X2260159Y1245749D03*
G01*
X2260159Y1214250D03*
G01*
X2279840Y1245749D03*
G01*
X2279840Y1214250D03*
D34*
G01*
X2238500Y1245749D03*
D36*
G01*
X1995000Y1133499D03*
G01*
X1995000Y1066500D03*
G36*
X1975500Y933000D02*
G01*
X2014499Y933000D01*
X2014499Y890000D01*
X1975500Y890000D01*
G37*
G36*
X1975500Y1000000D02*
G01*
X2014499Y1000000D01*
X2014499Y956999D01*
X1975500Y956999D01*
G37*
G36*
X1855500Y933000D02*
G01*
X1894499Y933000D01*
X1894499Y890000D01*
X1855500Y890000D01*
G37*
G36*
X1855500Y1000000D02*
G01*
X1894499Y1000000D01*
X1894499Y956999D01*
X1855500Y956999D01*
G37*
G01*
X1875000Y1133499D03*
G01*
X1875000Y1066500D03*
D37*
G01*
X1203350Y360000D03*
G01*
X1246649Y360000D03*
D34*
G01*
X1223500Y-5749D03*
G01*
X1286499Y25749D03*
G01*
X1286499Y-5749D03*
D35*
G01*
X1245159Y25749D03*
G01*
X1245159Y-5749D03*
G01*
X1264840Y25749D03*
G01*
X1264840Y-5749D03*
D34*
G01*
X1223500Y25749D03*
D37*
G01*
X1143350Y1240000D03*
G01*
X1186649Y1240000D03*
G36*
X1950020Y-3136080D02*
G01*
X1966723Y-3119378D01*
X1980643Y-3133298D01*
X1963940Y-3150001D01*
G37*
G36*
X1919396Y-3166703D02*
G01*
X1936099Y-3150001D01*
X1950020Y-3163921D01*
X1933316Y-3180623D01*
G37*
D38*
G01*
X1260749Y893499D03*
G01*
X1229250Y956500D03*
G01*
X1260749Y956500D03*
D39*
G01*
X1229250Y915160D03*
G01*
X1260749Y915160D03*
G01*
X1229250Y934839D03*
G01*
X1260749Y934839D03*
D38*
G01*
X1229250Y893499D03*
D34*
G01*
X1248500Y-890749D03*
G01*
X1311499Y-859250D03*
G01*
X1311499Y-890749D03*
D35*
G01*
X1270159Y-859250D03*
G01*
X1270159Y-890749D03*
G01*
X1289840Y-859250D03*
G01*
X1289840Y-890749D03*
D34*
G01*
X1248500Y-859250D03*
G01*
X1903519Y-1455749D03*
G01*
X1966520Y-1424250D03*
G01*
X1966520Y-1455749D03*
D35*
G01*
X1925180Y-1424250D03*
G01*
X1925180Y-1455749D03*
G01*
X1944859Y-1424250D03*
G01*
X1944859Y-1455749D03*
D34*
G01*
X1903519Y-1424250D03*
G01*
X1563500Y1214250D03*
G01*
X1626499Y1245749D03*
G01*
X1626499Y1214250D03*
D35*
G01*
X1585159Y1245749D03*
G01*
X1585159Y1214250D03*
G01*
X1604840Y1245749D03*
G01*
X1604840Y1214250D03*
D34*
G01*
X1563500Y1245749D03*
G01*
X1903500Y1214250D03*
G01*
X1966499Y1245749D03*
G01*
X1966499Y1214250D03*
D35*
G01*
X1925159Y1245749D03*
G01*
X1925159Y1214250D03*
G01*
X1944840Y1245749D03*
G01*
X1944840Y1214250D03*
D34*
G01*
X1903500Y1245749D03*
G36*
X2050020Y-3136080D02*
G01*
X2066723Y-3119378D01*
X2080643Y-3133298D01*
X2063940Y-3150001D01*
G37*
G36*
X2019396Y-3166703D02*
G01*
X2036099Y-3150001D01*
X2050020Y-3163921D01*
X2033316Y-3180623D01*
G37*
G36*
X1850020Y-3136080D02*
G01*
X1866723Y-3119378D01*
X1880643Y-3133298D01*
X1863940Y-3150001D01*
G37*
G36*
X1819396Y-3166703D02*
G01*
X1836099Y-3150001D01*
X1850020Y-3163921D01*
X1833316Y-3180623D01*
G37*
G36*
X1750020Y-3136080D02*
G01*
X1766723Y-3119378D01*
X1780643Y-3133298D01*
X1763940Y-3150001D01*
G37*
G36*
X1719396Y-3166703D02*
G01*
X1736099Y-3150001D01*
X1750020Y-3163921D01*
X1733316Y-3180623D01*
G37*
G36*
X1350020Y-3136080D02*
G01*
X1366723Y-3119378D01*
X1380643Y-3133298D01*
X1363940Y-3150001D01*
G37*
G36*
X1319396Y-3166703D02*
G01*
X1336099Y-3150001D01*
X1350020Y-3163921D01*
X1333316Y-3180623D01*
G37*
G36*
X1450020Y-3136080D02*
G01*
X1466723Y-3119378D01*
X1480643Y-3133298D01*
X1463940Y-3150001D01*
G37*
G36*
X1419396Y-3166703D02*
G01*
X1436099Y-3150001D01*
X1450020Y-3163921D01*
X1433316Y-3180623D01*
G37*
G36*
X1550020Y-3136080D02*
G01*
X1566723Y-3119378D01*
X1580643Y-3133298D01*
X1563940Y-3150001D01*
G37*
G36*
X1519396Y-3166703D02*
G01*
X1536099Y-3150001D01*
X1550020Y-3163921D01*
X1533316Y-3180623D01*
G37*
G36*
X1650020Y-3136080D02*
G01*
X1666723Y-3119378D01*
X1680643Y-3133298D01*
X1663940Y-3150001D01*
G37*
G36*
X1619396Y-3166703D02*
G01*
X1636099Y-3150001D01*
X1650020Y-3163921D01*
X1633316Y-3180623D01*
G37*
G36*
X1650020Y-3036080D02*
G01*
X1666723Y-3019378D01*
X1680643Y-3033298D01*
X1663940Y-3050001D01*
G37*
G36*
X1619396Y-3066703D02*
G01*
X1636099Y-3050001D01*
X1650020Y-3063921D01*
X1633316Y-3080623D01*
G37*
G36*
X1550020Y-3036080D02*
G01*
X1566723Y-3019378D01*
X1580643Y-3033298D01*
X1563940Y-3050001D01*
G37*
G36*
X1519396Y-3066703D02*
G01*
X1536099Y-3050001D01*
X1550020Y-3063921D01*
X1533316Y-3080623D01*
G37*
G36*
X1450020Y-3036080D02*
G01*
X1466723Y-3019378D01*
X1480643Y-3033298D01*
X1463940Y-3050001D01*
G37*
G36*
X1419396Y-3066703D02*
G01*
X1436099Y-3050001D01*
X1450020Y-3063921D01*
X1433316Y-3080623D01*
G37*
G36*
X1350020Y-3036080D02*
G01*
X1366723Y-3019378D01*
X1380643Y-3033298D01*
X1363940Y-3050001D01*
G37*
G36*
X1319396Y-3066703D02*
G01*
X1336099Y-3050001D01*
X1350020Y-3063921D01*
X1333316Y-3080623D01*
G37*
G36*
X1750020Y-3036080D02*
G01*
X1766723Y-3019378D01*
X1780643Y-3033298D01*
X1763940Y-3050001D01*
G37*
G36*
X1719396Y-3066703D02*
G01*
X1736099Y-3050001D01*
X1750020Y-3063921D01*
X1733316Y-3080623D01*
G37*
G36*
X1850020Y-3036080D02*
G01*
X1866723Y-3019378D01*
X1880643Y-3033298D01*
X1863940Y-3050001D01*
G37*
G36*
X1819396Y-3066703D02*
G01*
X1836099Y-3050001D01*
X1850020Y-3063921D01*
X1833316Y-3080623D01*
G37*
G36*
X1950020Y-3036080D02*
G01*
X1966723Y-3019378D01*
X1980643Y-3033298D01*
X1963940Y-3050001D01*
G37*
G36*
X1919396Y-3066703D02*
G01*
X1936099Y-3050001D01*
X1950020Y-3063921D01*
X1933316Y-3080623D01*
G37*
G36*
X2050020Y-3036080D02*
G01*
X2066723Y-3019378D01*
X2080643Y-3033298D01*
X2063940Y-3050001D01*
G37*
G36*
X2019396Y-3066703D02*
G01*
X2036099Y-3050001D01*
X2050020Y-3063921D01*
X2033316Y-3080623D01*
G37*
G36*
X1650020Y-2936080D02*
G01*
X1666723Y-2919378D01*
X1680643Y-2933298D01*
X1663940Y-2950001D01*
G37*
G36*
X1619396Y-2966703D02*
G01*
X1636099Y-2950001D01*
X1650020Y-2963921D01*
X1633316Y-2980623D01*
G37*
G36*
X1550020Y-2936080D02*
G01*
X1566723Y-2919378D01*
X1580643Y-2933298D01*
X1563940Y-2950001D01*
G37*
G36*
X1519396Y-2966703D02*
G01*
X1536099Y-2950001D01*
X1550020Y-2963921D01*
X1533316Y-2980623D01*
G37*
G36*
X1450020Y-2936080D02*
G01*
X1466723Y-2919378D01*
X1480643Y-2933298D01*
X1463940Y-2950001D01*
G37*
G36*
X1419396Y-2966703D02*
G01*
X1436099Y-2950001D01*
X1450020Y-2963921D01*
X1433316Y-2980623D01*
G37*
G36*
X1350020Y-2936080D02*
G01*
X1366723Y-2919378D01*
X1380643Y-2933298D01*
X1363940Y-2950001D01*
G37*
G36*
X1319396Y-2966703D02*
G01*
X1336099Y-2950001D01*
X1350020Y-2963921D01*
X1333316Y-2980623D01*
G37*
G36*
X1750020Y-2936080D02*
G01*
X1766723Y-2919378D01*
X1780643Y-2933298D01*
X1763940Y-2950001D01*
G37*
G36*
X1719396Y-2966703D02*
G01*
X1736099Y-2950001D01*
X1750020Y-2963921D01*
X1733316Y-2980623D01*
G37*
G36*
X1850020Y-2936080D02*
G01*
X1866723Y-2919378D01*
X1880643Y-2933298D01*
X1863940Y-2950001D01*
G37*
G36*
X1819396Y-2966703D02*
G01*
X1836099Y-2950001D01*
X1850020Y-2963921D01*
X1833316Y-2980623D01*
G37*
G36*
X1950020Y-2936080D02*
G01*
X1966723Y-2919378D01*
X1980643Y-2933298D01*
X1963940Y-2950001D01*
G37*
G36*
X1919396Y-2966703D02*
G01*
X1936099Y-2950001D01*
X1950020Y-2963921D01*
X1933316Y-2980623D01*
G37*
G36*
X2050020Y-2936080D02*
G01*
X2066723Y-2919378D01*
X2080643Y-2933298D01*
X2063940Y-2950001D01*
G37*
G36*
X2019396Y-2966703D02*
G01*
X2036099Y-2950001D01*
X2050020Y-2963921D01*
X2033316Y-2980623D01*
G37*
G36*
X1650020Y-2836080D02*
G01*
X1666723Y-2819378D01*
X1680643Y-2833298D01*
X1663940Y-2850001D01*
G37*
G36*
X1619396Y-2866703D02*
G01*
X1636099Y-2850001D01*
X1650020Y-2863921D01*
X1633316Y-2880623D01*
G37*
G36*
X1550020Y-2836080D02*
G01*
X1566723Y-2819378D01*
X1580643Y-2833298D01*
X1563940Y-2850001D01*
G37*
G36*
X1519396Y-2866703D02*
G01*
X1536099Y-2850001D01*
X1550020Y-2863921D01*
X1533316Y-2880623D01*
G37*
G36*
X1450020Y-2836080D02*
G01*
X1466723Y-2819378D01*
X1480643Y-2833298D01*
X1463940Y-2850001D01*
G37*
G36*
X1419396Y-2866703D02*
G01*
X1436099Y-2850001D01*
X1450020Y-2863921D01*
X1433316Y-2880623D01*
G37*
G36*
X1350020Y-2836080D02*
G01*
X1366723Y-2819378D01*
X1380643Y-2833298D01*
X1363940Y-2850001D01*
G37*
G36*
X1319396Y-2866703D02*
G01*
X1336099Y-2850001D01*
X1350020Y-2863921D01*
X1333316Y-2880623D01*
G37*
G36*
X1750020Y-2836080D02*
G01*
X1766723Y-2819378D01*
X1780643Y-2833298D01*
X1763940Y-2850001D01*
G37*
G36*
X1719396Y-2866703D02*
G01*
X1736099Y-2850001D01*
X1750020Y-2863921D01*
X1733316Y-2880623D01*
G37*
G36*
X1850020Y-2836080D02*
G01*
X1866723Y-2819378D01*
X1880643Y-2833298D01*
X1863940Y-2850001D01*
G37*
G36*
X1819396Y-2866703D02*
G01*
X1836099Y-2850001D01*
X1850020Y-2863921D01*
X1833316Y-2880623D01*
G37*
G36*
X1950020Y-2836080D02*
G01*
X1966723Y-2819378D01*
X1980643Y-2833298D01*
X1963940Y-2850001D01*
G37*
G36*
X1919396Y-2866703D02*
G01*
X1936099Y-2850001D01*
X1950020Y-2863921D01*
X1933316Y-2880623D01*
G37*
G36*
X2050020Y-2836080D02*
G01*
X2066723Y-2819378D01*
X2080643Y-2833298D01*
X2063940Y-2850001D01*
G37*
G36*
X2019396Y-2866703D02*
G01*
X2036099Y-2850001D01*
X2050020Y-2863921D01*
X2033316Y-2880623D01*
G37*
G36*
X2050020Y-2436080D02*
G01*
X2066723Y-2419378D01*
X2080643Y-2433298D01*
X2063940Y-2450001D01*
G37*
G36*
X2019396Y-2466703D02*
G01*
X2036099Y-2450001D01*
X2050020Y-2463921D01*
X2033316Y-2480623D01*
G37*
G36*
X1950020Y-2436080D02*
G01*
X1966723Y-2419378D01*
X1980643Y-2433298D01*
X1963940Y-2450001D01*
G37*
G36*
X1919396Y-2466703D02*
G01*
X1936099Y-2450001D01*
X1950020Y-2463921D01*
X1933316Y-2480623D01*
G37*
G36*
X1850020Y-2436080D02*
G01*
X1866723Y-2419378D01*
X1880643Y-2433298D01*
X1863940Y-2450001D01*
G37*
G36*
X1819396Y-2466703D02*
G01*
X1836099Y-2450001D01*
X1850020Y-2463921D01*
X1833316Y-2480623D01*
G37*
G36*
X1750020Y-2436080D02*
G01*
X1766723Y-2419378D01*
X1780643Y-2433298D01*
X1763940Y-2450001D01*
G37*
G36*
X1719396Y-2466703D02*
G01*
X1736099Y-2450001D01*
X1750020Y-2463921D01*
X1733316Y-2480623D01*
G37*
G36*
X1350020Y-2436080D02*
G01*
X1366723Y-2419378D01*
X1380643Y-2433298D01*
X1363940Y-2450001D01*
G37*
G36*
X1319396Y-2466703D02*
G01*
X1336099Y-2450001D01*
X1350020Y-2463921D01*
X1333316Y-2480623D01*
G37*
G36*
X1450020Y-2436080D02*
G01*
X1466723Y-2419378D01*
X1480643Y-2433298D01*
X1463940Y-2450001D01*
G37*
G36*
X1419396Y-2466703D02*
G01*
X1436099Y-2450001D01*
X1450020Y-2463921D01*
X1433316Y-2480623D01*
G37*
G36*
X1550020Y-2436080D02*
G01*
X1566723Y-2419378D01*
X1580643Y-2433298D01*
X1563940Y-2450001D01*
G37*
G36*
X1519396Y-2466703D02*
G01*
X1536099Y-2450001D01*
X1550020Y-2463921D01*
X1533316Y-2480623D01*
G37*
G36*
X1650020Y-2436080D02*
G01*
X1666723Y-2419378D01*
X1680643Y-2433298D01*
X1663940Y-2450001D01*
G37*
G36*
X1619396Y-2466703D02*
G01*
X1636099Y-2450001D01*
X1650020Y-2463921D01*
X1633316Y-2480623D01*
G37*
G36*
X2050020Y-2536080D02*
G01*
X2066723Y-2519378D01*
X2080643Y-2533298D01*
X2063940Y-2550001D01*
G37*
G36*
X2019396Y-2566703D02*
G01*
X2036099Y-2550001D01*
X2050020Y-2563921D01*
X2033316Y-2580623D01*
G37*
G36*
X1950020Y-2536080D02*
G01*
X1966723Y-2519378D01*
X1980643Y-2533298D01*
X1963940Y-2550001D01*
G37*
G36*
X1919396Y-2566703D02*
G01*
X1936099Y-2550001D01*
X1950020Y-2563921D01*
X1933316Y-2580623D01*
G37*
G36*
X1850020Y-2536080D02*
G01*
X1866723Y-2519378D01*
X1880643Y-2533298D01*
X1863940Y-2550001D01*
G37*
G36*
X1819396Y-2566703D02*
G01*
X1836099Y-2550001D01*
X1850020Y-2563921D01*
X1833316Y-2580623D01*
G37*
G36*
X1750020Y-2536080D02*
G01*
X1766723Y-2519378D01*
X1780643Y-2533298D01*
X1763940Y-2550001D01*
G37*
G36*
X1719396Y-2566703D02*
G01*
X1736099Y-2550001D01*
X1750020Y-2563921D01*
X1733316Y-2580623D01*
G37*
G36*
X1350020Y-2536080D02*
G01*
X1366723Y-2519378D01*
X1380643Y-2533298D01*
X1363940Y-2550001D01*
G37*
G36*
X1319396Y-2566703D02*
G01*
X1336099Y-2550001D01*
X1350020Y-2563921D01*
X1333316Y-2580623D01*
G37*
G36*
X1450020Y-2536080D02*
G01*
X1466723Y-2519378D01*
X1480643Y-2533298D01*
X1463940Y-2550001D01*
G37*
G36*
X1419396Y-2566703D02*
G01*
X1436099Y-2550001D01*
X1450020Y-2563921D01*
X1433316Y-2580623D01*
G37*
G36*
X1550020Y-2536080D02*
G01*
X1566723Y-2519378D01*
X1580643Y-2533298D01*
X1563940Y-2550001D01*
G37*
G36*
X1519396Y-2566703D02*
G01*
X1536099Y-2550001D01*
X1550020Y-2563921D01*
X1533316Y-2580623D01*
G37*
G36*
X1650020Y-2536080D02*
G01*
X1666723Y-2519378D01*
X1680643Y-2533298D01*
X1663940Y-2550001D01*
G37*
G36*
X1619396Y-2566703D02*
G01*
X1636099Y-2550001D01*
X1650020Y-2563921D01*
X1633316Y-2580623D01*
G37*
G36*
X2050020Y-2636080D02*
G01*
X2066723Y-2619378D01*
X2080643Y-2633298D01*
X2063940Y-2650001D01*
G37*
G36*
X2019396Y-2666703D02*
G01*
X2036099Y-2650001D01*
X2050020Y-2663921D01*
X2033316Y-2680623D01*
G37*
G36*
X1950020Y-2636080D02*
G01*
X1966723Y-2619378D01*
X1980643Y-2633298D01*
X1963940Y-2650001D01*
G37*
G36*
X1919396Y-2666703D02*
G01*
X1936099Y-2650001D01*
X1950020Y-2663921D01*
X1933316Y-2680623D01*
G37*
G36*
X1850020Y-2636080D02*
G01*
X1866723Y-2619378D01*
X1880643Y-2633298D01*
X1863940Y-2650001D01*
G37*
G36*
X1819396Y-2666703D02*
G01*
X1836099Y-2650001D01*
X1850020Y-2663921D01*
X1833316Y-2680623D01*
G37*
G36*
X1750020Y-2636080D02*
G01*
X1766723Y-2619378D01*
X1780643Y-2633298D01*
X1763940Y-2650001D01*
G37*
G36*
X1719396Y-2666703D02*
G01*
X1736099Y-2650001D01*
X1750020Y-2663921D01*
X1733316Y-2680623D01*
G37*
G36*
X1350020Y-2636080D02*
G01*
X1366723Y-2619378D01*
X1380643Y-2633298D01*
X1363940Y-2650001D01*
G37*
G36*
X1319396Y-2666703D02*
G01*
X1336099Y-2650001D01*
X1350020Y-2663921D01*
X1333316Y-2680623D01*
G37*
G36*
X1450020Y-2636080D02*
G01*
X1466723Y-2619378D01*
X1480643Y-2633298D01*
X1463940Y-2650001D01*
G37*
G36*
X1419396Y-2666703D02*
G01*
X1436099Y-2650001D01*
X1450020Y-2663921D01*
X1433316Y-2680623D01*
G37*
G36*
X1550020Y-2636080D02*
G01*
X1566723Y-2619378D01*
X1580643Y-2633298D01*
X1563940Y-2650001D01*
G37*
G36*
X1519396Y-2666703D02*
G01*
X1536099Y-2650001D01*
X1550020Y-2663921D01*
X1533316Y-2680623D01*
G37*
G36*
X1650020Y-2636080D02*
G01*
X1666723Y-2619378D01*
X1680643Y-2633298D01*
X1663940Y-2650001D01*
G37*
G36*
X1619396Y-2666703D02*
G01*
X1636099Y-2650001D01*
X1650020Y-2663921D01*
X1633316Y-2680623D01*
G37*
G36*
X1650020Y-2736080D02*
G01*
X1666723Y-2719378D01*
X1680643Y-2733298D01*
X1663940Y-2750001D01*
G37*
G36*
X1619396Y-2766703D02*
G01*
X1636099Y-2750001D01*
X1650020Y-2763921D01*
X1633316Y-2780623D01*
G37*
G36*
X1550020Y-2736080D02*
G01*
X1566723Y-2719378D01*
X1580643Y-2733298D01*
X1563940Y-2750001D01*
G37*
G36*
X1519396Y-2766703D02*
G01*
X1536099Y-2750001D01*
X1550020Y-2763921D01*
X1533316Y-2780623D01*
G37*
G36*
X1450020Y-2736080D02*
G01*
X1466723Y-2719378D01*
X1480643Y-2733298D01*
X1463940Y-2750001D01*
G37*
G36*
X1419396Y-2766703D02*
G01*
X1436099Y-2750001D01*
X1450020Y-2763921D01*
X1433316Y-2780623D01*
G37*
G36*
X1350020Y-2736080D02*
G01*
X1366723Y-2719378D01*
X1380643Y-2733298D01*
X1363940Y-2750001D01*
G37*
G36*
X1319396Y-2766703D02*
G01*
X1336099Y-2750001D01*
X1350020Y-2763921D01*
X1333316Y-2780623D01*
G37*
G36*
X1750020Y-2736080D02*
G01*
X1766723Y-2719378D01*
X1780643Y-2733298D01*
X1763940Y-2750001D01*
G37*
G36*
X1719396Y-2766703D02*
G01*
X1736099Y-2750001D01*
X1750020Y-2763921D01*
X1733316Y-2780623D01*
G37*
G36*
X1850020Y-2736080D02*
G01*
X1866723Y-2719378D01*
X1880643Y-2733298D01*
X1863940Y-2750001D01*
G37*
G36*
X1819396Y-2766703D02*
G01*
X1836099Y-2750001D01*
X1850020Y-2763921D01*
X1833316Y-2780623D01*
G37*
G36*
X1950020Y-2736080D02*
G01*
X1966723Y-2719378D01*
X1980643Y-2733298D01*
X1963940Y-2750001D01*
G37*
G36*
X1919396Y-2766703D02*
G01*
X1936099Y-2750001D01*
X1950020Y-2763921D01*
X1933316Y-2780623D01*
G37*
G36*
X2050020Y-2736080D02*
G01*
X2066723Y-2719378D01*
X2080643Y-2733298D01*
X2063940Y-2750001D01*
G37*
G36*
X2019396Y-2766703D02*
G01*
X2036099Y-2750001D01*
X2050020Y-2763921D01*
X2033316Y-2780623D01*
G37*
G36*
X1250020Y-2736080D02*
G01*
X1266723Y-2719378D01*
X1280643Y-2733298D01*
X1263940Y-2750001D01*
G37*
G36*
X1219396Y-2766703D02*
G01*
X1236099Y-2750001D01*
X1250020Y-2763921D01*
X1233316Y-2780623D01*
G37*
G36*
X1150020Y-2736080D02*
G01*
X1166723Y-2719378D01*
X1180643Y-2733298D01*
X1163940Y-2750001D01*
G37*
G36*
X1119396Y-2766703D02*
G01*
X1136099Y-2750001D01*
X1150020Y-2763921D01*
X1133316Y-2780623D01*
G37*
G36*
X1050020Y-2736080D02*
G01*
X1066723Y-2719378D01*
X1080643Y-2733298D01*
X1063940Y-2750001D01*
G37*
G36*
X1019396Y-2766703D02*
G01*
X1036099Y-2750001D01*
X1050020Y-2763921D01*
X1033316Y-2780623D01*
G37*
G36*
X950020Y-2736080D02*
G01*
X966723Y-2719378D01*
X980643Y-2733298D01*
X963940Y-2750001D01*
G37*
G36*
X919396Y-2766703D02*
G01*
X936099Y-2750001D01*
X950020Y-2763921D01*
X933316Y-2780623D01*
G37*
G36*
X550019Y-2736080D02*
G01*
X566723Y-2719378D01*
X580643Y-2733298D01*
X563939Y-2750001D01*
G37*
G36*
X519396Y-2766703D02*
G01*
X536100Y-2750001D01*
X550019Y-2763921D01*
X533317Y-2780623D01*
G37*
G36*
X650019Y-2736080D02*
G01*
X666723Y-2719378D01*
X680643Y-2733298D01*
X663939Y-2750001D01*
G37*
G36*
X619396Y-2766703D02*
G01*
X636100Y-2750001D01*
X650019Y-2763921D01*
X633317Y-2780623D01*
G37*
G36*
X750019Y-2736080D02*
G01*
X766723Y-2719378D01*
X780643Y-2733298D01*
X763940Y-2750001D01*
G37*
G36*
X719396Y-2766703D02*
G01*
X736100Y-2750001D01*
X750019Y-2763921D01*
X733317Y-2780623D01*
G37*
G36*
X850020Y-2736080D02*
G01*
X866723Y-2719378D01*
X880643Y-2733298D01*
X863940Y-2750001D01*
G37*
G36*
X819396Y-2766703D02*
G01*
X836099Y-2750001D01*
X850020Y-2763921D01*
X833316Y-2780623D01*
G37*
G36*
X850020Y-2636080D02*
G01*
X866723Y-2619378D01*
X880643Y-2633298D01*
X863940Y-2650001D01*
G37*
G36*
X819396Y-2666703D02*
G01*
X836099Y-2650001D01*
X850020Y-2663921D01*
X833316Y-2680623D01*
G37*
G36*
X750019Y-2636080D02*
G01*
X766723Y-2619378D01*
X780643Y-2633298D01*
X763940Y-2650001D01*
G37*
G36*
X719396Y-2666703D02*
G01*
X736100Y-2650001D01*
X750019Y-2663921D01*
X733317Y-2680623D01*
G37*
G36*
X650019Y-2636080D02*
G01*
X666723Y-2619378D01*
X680643Y-2633298D01*
X663939Y-2650001D01*
G37*
G36*
X619396Y-2666703D02*
G01*
X636100Y-2650001D01*
X650019Y-2663921D01*
X633317Y-2680623D01*
G37*
G36*
X550019Y-2636080D02*
G01*
X566723Y-2619378D01*
X580643Y-2633298D01*
X563939Y-2650001D01*
G37*
G36*
X519396Y-2666703D02*
G01*
X536100Y-2650001D01*
X550019Y-2663921D01*
X533317Y-2680623D01*
G37*
G36*
X950020Y-2636080D02*
G01*
X966723Y-2619378D01*
X980643Y-2633298D01*
X963940Y-2650001D01*
G37*
G36*
X919396Y-2666703D02*
G01*
X936099Y-2650001D01*
X950020Y-2663921D01*
X933316Y-2680623D01*
G37*
G36*
X1050020Y-2636080D02*
G01*
X1066723Y-2619378D01*
X1080643Y-2633298D01*
X1063940Y-2650001D01*
G37*
G36*
X1019396Y-2666703D02*
G01*
X1036099Y-2650001D01*
X1050020Y-2663921D01*
X1033316Y-2680623D01*
G37*
G36*
X1150020Y-2636080D02*
G01*
X1166723Y-2619378D01*
X1180643Y-2633298D01*
X1163940Y-2650001D01*
G37*
G36*
X1119396Y-2666703D02*
G01*
X1136099Y-2650001D01*
X1150020Y-2663921D01*
X1133316Y-2680623D01*
G37*
G36*
X1250020Y-2636080D02*
G01*
X1266723Y-2619378D01*
X1280643Y-2633298D01*
X1263940Y-2650001D01*
G37*
G36*
X1219396Y-2666703D02*
G01*
X1236099Y-2650001D01*
X1250020Y-2663921D01*
X1233316Y-2680623D01*
G37*
G36*
X850020Y-2536080D02*
G01*
X866723Y-2519378D01*
X880643Y-2533298D01*
X863940Y-2550001D01*
G37*
G36*
X819396Y-2566703D02*
G01*
X836099Y-2550001D01*
X850020Y-2563921D01*
X833316Y-2580623D01*
G37*
G36*
X750019Y-2536080D02*
G01*
X766723Y-2519378D01*
X780643Y-2533298D01*
X763940Y-2550001D01*
G37*
G36*
X719396Y-2566703D02*
G01*
X736100Y-2550001D01*
X750019Y-2563921D01*
X733317Y-2580623D01*
G37*
G36*
X650019Y-2536080D02*
G01*
X666723Y-2519378D01*
X680643Y-2533298D01*
X663939Y-2550001D01*
G37*
G36*
X619396Y-2566703D02*
G01*
X636100Y-2550001D01*
X650019Y-2563921D01*
X633317Y-2580623D01*
G37*
G36*
X550019Y-2536080D02*
G01*
X566723Y-2519378D01*
X580643Y-2533298D01*
X563939Y-2550001D01*
G37*
G36*
X519396Y-2566703D02*
G01*
X536100Y-2550001D01*
X550019Y-2563921D01*
X533317Y-2580623D01*
G37*
G36*
X950020Y-2536080D02*
G01*
X966723Y-2519378D01*
X980643Y-2533298D01*
X963940Y-2550001D01*
G37*
G36*
X919396Y-2566703D02*
G01*
X936099Y-2550001D01*
X950020Y-2563921D01*
X933316Y-2580623D01*
G37*
G36*
X1050020Y-2536080D02*
G01*
X1066723Y-2519378D01*
X1080643Y-2533298D01*
X1063940Y-2550001D01*
G37*
G36*
X1019396Y-2566703D02*
G01*
X1036099Y-2550001D01*
X1050020Y-2563921D01*
X1033316Y-2580623D01*
G37*
G36*
X1150020Y-2536080D02*
G01*
X1166723Y-2519378D01*
X1180643Y-2533298D01*
X1163940Y-2550001D01*
G37*
G36*
X1119396Y-2566703D02*
G01*
X1136099Y-2550001D01*
X1150020Y-2563921D01*
X1133316Y-2580623D01*
G37*
G36*
X1250020Y-2536080D02*
G01*
X1266723Y-2519378D01*
X1280643Y-2533298D01*
X1263940Y-2550001D01*
G37*
G36*
X1219396Y-2566703D02*
G01*
X1236099Y-2550001D01*
X1250020Y-2563921D01*
X1233316Y-2580623D01*
G37*
G36*
X850020Y-2436080D02*
G01*
X866723Y-2419378D01*
X880643Y-2433298D01*
X863940Y-2450001D01*
G37*
G36*
X819396Y-2466703D02*
G01*
X836099Y-2450001D01*
X850020Y-2463921D01*
X833316Y-2480623D01*
G37*
G36*
X750019Y-2436080D02*
G01*
X766723Y-2419378D01*
X780643Y-2433298D01*
X763940Y-2450001D01*
G37*
G36*
X719396Y-2466703D02*
G01*
X736100Y-2450001D01*
X750019Y-2463921D01*
X733317Y-2480623D01*
G37*
G36*
X650019Y-2436080D02*
G01*
X666723Y-2419378D01*
X680643Y-2433298D01*
X663939Y-2450001D01*
G37*
G36*
X619396Y-2466703D02*
G01*
X636100Y-2450001D01*
X650019Y-2463921D01*
X633317Y-2480623D01*
G37*
G36*
X550019Y-2436080D02*
G01*
X566723Y-2419378D01*
X580643Y-2433298D01*
X563939Y-2450001D01*
G37*
G36*
X519396Y-2466703D02*
G01*
X536100Y-2450001D01*
X550019Y-2463921D01*
X533317Y-2480623D01*
G37*
G36*
X950020Y-2436080D02*
G01*
X966723Y-2419378D01*
X980643Y-2433298D01*
X963940Y-2450001D01*
G37*
G36*
X919396Y-2466703D02*
G01*
X936099Y-2450001D01*
X950020Y-2463921D01*
X933316Y-2480623D01*
G37*
G36*
X1050020Y-2436080D02*
G01*
X1066723Y-2419378D01*
X1080643Y-2433298D01*
X1063940Y-2450001D01*
G37*
G36*
X1019396Y-2466703D02*
G01*
X1036099Y-2450001D01*
X1050020Y-2463921D01*
X1033316Y-2480623D01*
G37*
G36*
X1150020Y-2436080D02*
G01*
X1166723Y-2419378D01*
X1180643Y-2433298D01*
X1163940Y-2450001D01*
G37*
G36*
X1119396Y-2466703D02*
G01*
X1136099Y-2450001D01*
X1150020Y-2463921D01*
X1133316Y-2480623D01*
G37*
G36*
X1250020Y-2436080D02*
G01*
X1266723Y-2419378D01*
X1280643Y-2433298D01*
X1263940Y-2450001D01*
G37*
G36*
X1219396Y-2466703D02*
G01*
X1236099Y-2450001D01*
X1250020Y-2463921D01*
X1233316Y-2480623D01*
G37*
G36*
X1250020Y-2836080D02*
G01*
X1266723Y-2819378D01*
X1280643Y-2833298D01*
X1263940Y-2850001D01*
G37*
G36*
X1219396Y-2866703D02*
G01*
X1236099Y-2850001D01*
X1250020Y-2863921D01*
X1233316Y-2880623D01*
G37*
G36*
X1150020Y-2836080D02*
G01*
X1166723Y-2819378D01*
X1180643Y-2833298D01*
X1163940Y-2850001D01*
G37*
G36*
X1119396Y-2866703D02*
G01*
X1136099Y-2850001D01*
X1150020Y-2863921D01*
X1133316Y-2880623D01*
G37*
G36*
X1050020Y-2836080D02*
G01*
X1066723Y-2819378D01*
X1080643Y-2833298D01*
X1063940Y-2850001D01*
G37*
G36*
X1019396Y-2866703D02*
G01*
X1036099Y-2850001D01*
X1050020Y-2863921D01*
X1033316Y-2880623D01*
G37*
G36*
X950020Y-2836080D02*
G01*
X966723Y-2819378D01*
X980643Y-2833298D01*
X963940Y-2850001D01*
G37*
G36*
X919396Y-2866703D02*
G01*
X936099Y-2850001D01*
X950020Y-2863921D01*
X933316Y-2880623D01*
G37*
G36*
X550019Y-2836080D02*
G01*
X566723Y-2819378D01*
X580643Y-2833298D01*
X563939Y-2850001D01*
G37*
G36*
X519396Y-2866703D02*
G01*
X536100Y-2850001D01*
X550019Y-2863921D01*
X533317Y-2880623D01*
G37*
G36*
X650019Y-2836080D02*
G01*
X666723Y-2819378D01*
X680643Y-2833298D01*
X663939Y-2850001D01*
G37*
G36*
X619396Y-2866703D02*
G01*
X636100Y-2850001D01*
X650019Y-2863921D01*
X633317Y-2880623D01*
G37*
G36*
X750019Y-2836080D02*
G01*
X766723Y-2819378D01*
X780643Y-2833298D01*
X763940Y-2850001D01*
G37*
G36*
X719396Y-2866703D02*
G01*
X736100Y-2850001D01*
X750019Y-2863921D01*
X733317Y-2880623D01*
G37*
G36*
X850020Y-2836080D02*
G01*
X866723Y-2819378D01*
X880643Y-2833298D01*
X863940Y-2850001D01*
G37*
G36*
X819396Y-2866703D02*
G01*
X836099Y-2850001D01*
X850020Y-2863921D01*
X833316Y-2880623D01*
G37*
G36*
X1250020Y-2936080D02*
G01*
X1266723Y-2919378D01*
X1280643Y-2933298D01*
X1263940Y-2950001D01*
G37*
G36*
X1219396Y-2966703D02*
G01*
X1236099Y-2950001D01*
X1250020Y-2963921D01*
X1233316Y-2980623D01*
G37*
G36*
X1150020Y-2936080D02*
G01*
X1166723Y-2919378D01*
X1180643Y-2933298D01*
X1163940Y-2950001D01*
G37*
G36*
X1119396Y-2966703D02*
G01*
X1136099Y-2950001D01*
X1150020Y-2963921D01*
X1133316Y-2980623D01*
G37*
G36*
X1050020Y-2936080D02*
G01*
X1066723Y-2919378D01*
X1080643Y-2933298D01*
X1063940Y-2950001D01*
G37*
G36*
X1019396Y-2966703D02*
G01*
X1036099Y-2950001D01*
X1050020Y-2963921D01*
X1033316Y-2980623D01*
G37*
G36*
X950020Y-2936080D02*
G01*
X966723Y-2919378D01*
X980643Y-2933298D01*
X963940Y-2950001D01*
G37*
G36*
X919396Y-2966703D02*
G01*
X936099Y-2950001D01*
X950020Y-2963921D01*
X933316Y-2980623D01*
G37*
G36*
X550019Y-2936080D02*
G01*
X566723Y-2919378D01*
X580643Y-2933298D01*
X563939Y-2950001D01*
G37*
G36*
X519396Y-2966703D02*
G01*
X536100Y-2950001D01*
X550019Y-2963921D01*
X533317Y-2980623D01*
G37*
G36*
X650019Y-2936080D02*
G01*
X666723Y-2919378D01*
X680643Y-2933298D01*
X663939Y-2950001D01*
G37*
G36*
X619396Y-2966703D02*
G01*
X636100Y-2950001D01*
X650019Y-2963921D01*
X633317Y-2980623D01*
G37*
G36*
X750019Y-2936080D02*
G01*
X766723Y-2919378D01*
X780643Y-2933298D01*
X763940Y-2950001D01*
G37*
G36*
X719396Y-2966703D02*
G01*
X736100Y-2950001D01*
X750019Y-2963921D01*
X733317Y-2980623D01*
G37*
G36*
X850020Y-2936080D02*
G01*
X866723Y-2919378D01*
X880643Y-2933298D01*
X863940Y-2950001D01*
G37*
G36*
X819396Y-2966703D02*
G01*
X836099Y-2950001D01*
X850020Y-2963921D01*
X833316Y-2980623D01*
G37*
G36*
X1250020Y-3036080D02*
G01*
X1266723Y-3019378D01*
X1280643Y-3033298D01*
X1263940Y-3050001D01*
G37*
G36*
X1219396Y-3066703D02*
G01*
X1236099Y-3050001D01*
X1250020Y-3063921D01*
X1233316Y-3080623D01*
G37*
G36*
X1150020Y-3036080D02*
G01*
X1166723Y-3019378D01*
X1180643Y-3033298D01*
X1163940Y-3050001D01*
G37*
G36*
X1119396Y-3066703D02*
G01*
X1136099Y-3050001D01*
X1150020Y-3063921D01*
X1133316Y-3080623D01*
G37*
G36*
X1050020Y-3036080D02*
G01*
X1066723Y-3019378D01*
X1080643Y-3033298D01*
X1063940Y-3050001D01*
G37*
G36*
X1019396Y-3066703D02*
G01*
X1036099Y-3050001D01*
X1050020Y-3063921D01*
X1033316Y-3080623D01*
G37*
G36*
X950020Y-3036080D02*
G01*
X966723Y-3019378D01*
X980643Y-3033298D01*
X963940Y-3050001D01*
G37*
G36*
X919396Y-3066703D02*
G01*
X936099Y-3050001D01*
X950020Y-3063921D01*
X933316Y-3080623D01*
G37*
G36*
X550019Y-3036080D02*
G01*
X566723Y-3019378D01*
X580643Y-3033298D01*
X563939Y-3050001D01*
G37*
G36*
X519396Y-3066703D02*
G01*
X536100Y-3050001D01*
X550019Y-3063921D01*
X533317Y-3080623D01*
G37*
G36*
X650019Y-3036080D02*
G01*
X666723Y-3019378D01*
X680643Y-3033298D01*
X663939Y-3050001D01*
G37*
G36*
X619396Y-3066703D02*
G01*
X636100Y-3050001D01*
X650019Y-3063921D01*
X633317Y-3080623D01*
G37*
G36*
X750019Y-3036080D02*
G01*
X766723Y-3019378D01*
X780643Y-3033298D01*
X763940Y-3050001D01*
G37*
G36*
X719396Y-3066703D02*
G01*
X736100Y-3050001D01*
X750019Y-3063921D01*
X733317Y-3080623D01*
G37*
G36*
X850020Y-3036080D02*
G01*
X866723Y-3019378D01*
X880643Y-3033298D01*
X863940Y-3050001D01*
G37*
G36*
X819396Y-3066703D02*
G01*
X836099Y-3050001D01*
X850020Y-3063921D01*
X833316Y-3080623D01*
G37*
G36*
X850020Y-3136080D02*
G01*
X866723Y-3119378D01*
X880643Y-3133298D01*
X863940Y-3150001D01*
G37*
G36*
X819396Y-3166703D02*
G01*
X836099Y-3150001D01*
X850020Y-3163921D01*
X833316Y-3180623D01*
G37*
G36*
X750019Y-3136080D02*
G01*
X766723Y-3119378D01*
X780643Y-3133298D01*
X763940Y-3150001D01*
G37*
G36*
X719396Y-3166703D02*
G01*
X736100Y-3150001D01*
X750019Y-3163921D01*
X733317Y-3180623D01*
G37*
G36*
X650019Y-3136080D02*
G01*
X666723Y-3119378D01*
X680643Y-3133298D01*
X663939Y-3150001D01*
G37*
G36*
X619396Y-3166703D02*
G01*
X636100Y-3150001D01*
X650019Y-3163921D01*
X633317Y-3180623D01*
G37*
G36*
X550019Y-3136080D02*
G01*
X566723Y-3119378D01*
X580643Y-3133298D01*
X563939Y-3150001D01*
G37*
G36*
X519396Y-3166703D02*
G01*
X536100Y-3150001D01*
X550019Y-3163921D01*
X533317Y-3180623D01*
G37*
G36*
X950020Y-3136080D02*
G01*
X966723Y-3119378D01*
X980643Y-3133298D01*
X963940Y-3150001D01*
G37*
G36*
X919396Y-3166703D02*
G01*
X936099Y-3150001D01*
X950020Y-3163921D01*
X933316Y-3180623D01*
G37*
G36*
X1050020Y-3136080D02*
G01*
X1066723Y-3119378D01*
X1080643Y-3133298D01*
X1063940Y-3150001D01*
G37*
G36*
X1019396Y-3166703D02*
G01*
X1036099Y-3150001D01*
X1050020Y-3163921D01*
X1033316Y-3180623D01*
G37*
G36*
X1150020Y-3136080D02*
G01*
X1166723Y-3119378D01*
X1180643Y-3133298D01*
X1163940Y-3150001D01*
G37*
G36*
X1119396Y-3166703D02*
G01*
X1136099Y-3150001D01*
X1150020Y-3163921D01*
X1133316Y-3180623D01*
G37*
G36*
X1250020Y-3136080D02*
G01*
X1266723Y-3119378D01*
X1280643Y-3133298D01*
X1263940Y-3150001D01*
G37*
G36*
X1219396Y-3166703D02*
G01*
X1236099Y-3150001D01*
X1250020Y-3163921D01*
X1233316Y-3180623D01*
G37*
D37*
G01*
X1133350Y-515000D03*
G01*
X1176649Y-515000D03*
G01*
X838350Y-1430000D03*
G01*
X881649Y-1430000D03*
G36*
X2209800Y85734D02*
G01*
X2229485Y85734D01*
X2229485Y54238D01*
X2209800Y54238D01*
G37*
G36*
X2170430Y85734D02*
G01*
X2190115Y85734D01*
X2190115Y54238D01*
X2170430Y54238D01*
G37*
G36*
X1859800Y85734D02*
G01*
X1879485Y85734D01*
X1879485Y54238D01*
X1859800Y54238D01*
G37*
G36*
X1820430Y85734D02*
G01*
X1840115Y85734D01*
X1840115Y54238D01*
X1820430Y54238D01*
G37*
G36*
X1509800Y85734D02*
G01*
X1529485Y85734D01*
X1529485Y54238D01*
X1509800Y54238D01*
G37*
G36*
X1470430Y85734D02*
G01*
X1490115Y85734D01*
X1490115Y54238D01*
X1470430Y54238D01*
G37*
G36*
X589843Y970747D02*
G01*
X609528Y970747D01*
X609528Y939252D01*
X589843Y939252D01*
G37*
G36*
X550473Y970747D02*
G01*
X570158Y970747D01*
X570158Y939252D01*
X550473Y939252D01*
G37*
G36*
X1509900Y-814265D02*
G01*
X1529585Y-814265D01*
X1529585Y-845761D01*
X1509900Y-845761D01*
G37*
G36*
X1470531Y-814265D02*
G01*
X1490216Y-814265D01*
X1490216Y-845761D01*
X1470531Y-845761D01*
G37*
G36*
X1859900Y-814265D02*
G01*
X1879585Y-814265D01*
X1879585Y-845761D01*
X1859900Y-845761D01*
G37*
G36*
X1820531Y-814265D02*
G01*
X1840216Y-814265D01*
X1840216Y-845761D01*
X1820531Y-845761D01*
G37*
G36*
X2209901Y-814265D02*
G01*
X2229585Y-814265D01*
X2229585Y-845761D01*
X2209901Y-845761D01*
G37*
G36*
X2170531Y-814265D02*
G01*
X2190216Y-814265D01*
X2190216Y-845761D01*
X2170531Y-845761D01*
G37*
D21*
G01*
X400000Y-4059569D03*
G01*
X400000Y-4020200D03*
G01*
X400000Y-3779569D03*
G01*
X400000Y-3740200D03*
G01*
X2405020Y-1880309D03*
G01*
X2405020Y-1919679D03*
G01*
X2400020Y-1480309D03*
G01*
X2400020Y-1519679D03*
D17*
G01*
X460309Y310000D03*
G01*
X499679Y310000D03*
G36*
X1656904Y-3524175D02*
G01*
X1642984Y-3510255D01*
X1665255Y-3487984D01*
X1679174Y-3501903D01*
G37*
G36*
X1684742Y-3552013D02*
G01*
X1670824Y-3538095D01*
X1693095Y-3515823D01*
X1707013Y-3529742D01*
G37*
G36*
X1679174Y-4308096D02*
G01*
X1665255Y-4322015D01*
X1642984Y-4299744D01*
X1656904Y-4285825D01*
G37*
G36*
X1707013Y-4280257D02*
G01*
X1693095Y-4294176D01*
X1670824Y-4271904D01*
X1684742Y-4257986D01*
G37*
G01*
X1280309Y-3710000D03*
G01*
X1319679Y-3710000D03*
G36*
X914174Y-3533096D02*
G01*
X900255Y-3547015D01*
X877984Y-3524744D01*
X891904Y-3510825D01*
G37*
G36*
X942013Y-3505257D02*
G01*
X928095Y-3519176D01*
X905824Y-3496904D01*
X919742Y-3482986D01*
G37*
G36*
X1354843Y-4074252D02*
G01*
X1374528Y-4074252D01*
X1374528Y-4105747D01*
X1354843Y-4105747D01*
G37*
G36*
X1315473Y-4074252D02*
G01*
X1335158Y-4074252D01*
X1335158Y-4105747D01*
X1315473Y-4105747D01*
G37*
G01*
X1710309Y-4035000D03*
G01*
X1749679Y-4035000D03*
G36*
X938095Y-4265825D02*
G01*
X952015Y-4279744D01*
X929744Y-4302015D01*
X915825Y-4288096D01*
G37*
G36*
X910257Y-4237986D02*
G01*
X924175Y-4251904D01*
X901904Y-4274176D01*
X887986Y-4260257D01*
G37*
D21*
G01*
X760000Y-3914690D03*
G01*
X760000Y-3875320D03*
D40*
G01*
X2410000Y-638350D03*
G01*
X2410000Y-681649D03*
G36*
X1269843Y-4074252D02*
G01*
X1289528Y-4074252D01*
X1289528Y-4105747D01*
X1269843Y-4105747D01*
G37*
G36*
X1230473Y-4074252D02*
G01*
X1250158Y-4074252D01*
X1250158Y-4105747D01*
X1230473Y-4105747D01*
G37*
D21*
G01*
X590000Y204690D03*
G01*
X590000Y165320D03*
D17*
G01*
X2365309Y-560000D03*
G01*
X2404679Y-560000D03*
G36*
X941692Y372716D02*
G01*
X973189Y372716D01*
X973189Y337283D01*
X941692Y337283D01*
G37*
G36*
X996810Y372716D02*
G01*
X1028307Y372716D01*
X1028307Y337283D01*
X996810Y337283D01*
G37*
G36*
X956728Y1252716D02*
G01*
X988224Y1252716D01*
X988224Y1217283D01*
X956728Y1217283D01*
G37*
G36*
X1011845Y1252716D02*
G01*
X1043342Y1252716D01*
X1043342Y1217283D01*
X1011845Y1217283D01*
G37*
G36*
X481727Y-827283D02*
G01*
X513224Y-827283D01*
X513224Y-862716D01*
X481727Y-862716D01*
G37*
G36*
X536846Y-827283D02*
G01*
X568341Y-827283D01*
X568341Y-862716D01*
X536846Y-862716D01*
G37*
G36*
X946728Y-497283D02*
G01*
X978224Y-497283D01*
X978224Y-532716D01*
X946728Y-532716D01*
G37*
G36*
X1001845Y-497283D02*
G01*
X1033342Y-497283D01*
X1033342Y-532716D01*
X1001845Y-532716D01*
G37*
G36*
X1256702Y-3762283D02*
G01*
X1288199Y-3762283D01*
X1288199Y-3797716D01*
X1256702Y-3797716D01*
G37*
G36*
X1311821Y-3762283D02*
G01*
X1343316Y-3762283D01*
X1343316Y-3797716D01*
X1311821Y-3797716D01*
G37*
D42*
G01*
X725000Y-1852559D03*
G01*
X725000Y-1797440D03*
G36*
X706693Y-1407283D02*
G01*
X738189Y-1407283D01*
X738189Y-1442716D01*
X706693Y-1442716D01*
G37*
G36*
X761810Y-1407283D02*
G01*
X793307Y-1407283D01*
X793307Y-1442716D01*
X761810Y-1442716D01*
G37*
G36*
X206712Y-2432283D02*
G01*
X238209Y-2432283D01*
X238209Y-2467718D01*
X206712Y-2467718D01*
G37*
G36*
X261831Y-2432283D02*
G01*
X293327Y-2432283D01*
X293327Y-2467718D01*
X261831Y-2467718D01*
G37*
D41*
G01*
X2462579Y-3150000D03*
G01*
X2407460Y-3150000D03*
G36*
X206712Y-2362283D02*
G01*
X238209Y-2362283D01*
X238209Y-2397718D01*
X206712Y-2397718D01*
G37*
G36*
X261831Y-2362283D02*
G01*
X293327Y-2362283D01*
X293327Y-2397718D01*
X261831Y-2397718D01*
G37*
G01*
X2462579Y-3220000D03*
G01*
X2407460Y-3220000D03*
M02*
