M48
INCH,LZ
;FILE_FORMAT=2:4
;TYPE=PLATED
;Layer: Drill PTH
;EasyEDA v6.4.25, 2021-12-03T12:49:28+01:00
;accffd0c38b74f39b4550f21fb377da6,9c416354eb984020824aaf9c885bead6,10
;Gerber Generator version 0.2
;Holesize 1 = 0.0120 inch
T01C0.0120
;Holesize 2 = 0.0240 inch
T02C0.0240
;Holesize 3 = 0.0350 inch
T03C0.0350
;Holesize 4 = 0.0390 inch
T04C0.0390
;Holesize 5 = 0.0430 inch
T05C0.0430
;Holesize 6 = 0.0470 inch
T06C0.0470
%
G05
G90
T01
X018750Y-015250
X001600Y-025100
X002400Y-028250
X018400Y-018800
X019507Y-019107
X020214Y-019110
X009100Y-016500
X009100Y-016000
X009100Y-015500
X004900Y-015000
X004900Y-015500
X004900Y-016000
X021000Y-030500
X002350Y-025400
X001550Y-030750
X024350Y-025250
X023450Y-030250
X021400Y-031300
X023950Y-025700
X024200Y-028750
X023750Y-026600
X022950Y-027250
X022650Y-026250
X021000Y-028650
X022350Y-029500
X002650Y-031350
X001950Y-030200
X001550Y-028250
X001550Y-027750
X005000Y-031000
X005000Y-025150
X003550Y-026750
X003600Y-029950
X003600Y-029250
X005000Y-027250
X005000Y-028000
X005000Y-030000
X013000Y-024000
X012000Y-024000
X011000Y-024000
X010000Y-024000
X009000Y-024000
X008000Y-024000
X007000Y-024000
X006000Y-024000
X006000Y-025000
X007000Y-025000
X008000Y-025000
X009000Y-025000
X010000Y-025000
X011000Y-025000
X012000Y-025000
X013000Y-025000
X013000Y-026000
X012000Y-026000
X011000Y-026000
X010000Y-026000
X009000Y-026000
X008000Y-026000
X007000Y-026000
X006000Y-026000
X006000Y-027000
X007000Y-027000
X008000Y-027000
X009000Y-027000
X010000Y-027000
X011000Y-027000
X012000Y-027000
X013000Y-027000
X012000Y-028000
X011000Y-028000
X010000Y-028000
X009000Y-028000
X008000Y-028000
X007000Y-028000
X006000Y-028000
X006000Y-029000
X007000Y-029000
X008000Y-029000
X009000Y-029000
X010000Y-029000
X011000Y-029000
X012000Y-029000
X012000Y-030000
X011000Y-030000
X010000Y-030000
X009000Y-030000
X008000Y-030000
X007000Y-030000
X006000Y-030000
X006000Y-031000
X007000Y-031000
X008000Y-031000
X009000Y-031000
X010000Y-031000
X011000Y-031000
X012000Y-031000
X014000Y-025000
X015000Y-025000
X016000Y-025000
X017000Y-025000
X018000Y-025000
X019000Y-025000
X020000Y-025000
X020900Y-025000
X021000Y-026000
X020000Y-026000
X019000Y-026000
X018000Y-026000
X017000Y-026000
X016000Y-026000
X015000Y-026000
X014000Y-026000
X014000Y-027000
X015000Y-027000
X016000Y-027000
X017000Y-027000
X018000Y-027000
X019000Y-027000
X020000Y-027000
X021000Y-027000
X020850Y-028000
X021000Y-029000
X020000Y-029000
X020000Y-028000
X019000Y-028000
X019000Y-029000
X018000Y-029000
X018000Y-028000
X017000Y-028000
X017000Y-029000
X016000Y-029000
X016000Y-028000
X015000Y-028000
X015000Y-029000
X014000Y-029000
X014000Y-028000
X013000Y-028000
X013000Y-029000
X013000Y-030000
X014000Y-030000
X015000Y-030000
X016000Y-030000
X017000Y-030000
X018000Y-030000
X019000Y-030000
X020000Y-030000
X021000Y-030000
X013000Y-031000
X014000Y-031000
X015000Y-031000
X016000Y-031000
X017000Y-031000
X018000Y-031000
X019000Y-031000
X020000Y-031000
X020950Y-030950
X014515Y011200
X014250Y010900
X017200Y011500
X013750Y010900
X013750Y011200
X020250Y012300
X016300Y010250
X015600Y010250
X019700Y010300
X019000Y010300
X022350Y010250
X023050Y010250
X007750Y001400
X007750Y001900
X007750Y002400
X010450Y000900
X010450Y001500
X010450Y001900
X013750Y000200
X007800Y-006050
X007800Y-006550
X010550Y-006550
X010550Y-007050
X010550Y-007550
X013600Y-008550
X020900Y-008550
X023550Y-008550
X015050Y-039800
X015050Y-039250
X015100Y-038750
X010950Y-038250
X010950Y-038750
X010950Y-039250
X017000Y-024550
X022000Y-024650
X015000Y-024550
X021800Y-024300
X013000Y-025550
X019050Y-025500
X025350Y-031250
X004400Y-031250
X023200Y-027000
X022650Y-030700
X016347Y-030233
X014800Y-031800
X021350Y-024900
X021000Y-027550
X005000Y-027600
X002600Y-023300
X002150Y-023300
X002400Y-027150
X023600Y-031350
X023700Y-028250
X023700Y-027750
X022550Y-031600
X025050Y-023900
X025350Y-032250
X012850Y-032400
X000950Y-032200
X001200Y-029500
X001200Y-029000
X001200Y-027000
X001200Y-026500
X024900Y-026500
X024900Y-027000
X024900Y-029000
X024900Y-029500
X000800Y-023850
X015800Y-032400
X018350Y-032400
X009250Y011250
X007950Y010900
X009300Y010250
X010700Y010900
X010700Y010400
X010700Y009900
X008200Y009250
X011550Y008850
X011950Y011950
X013050Y011800
X013550Y008750
X014550Y008750
X017900Y008700
X010750Y009150
X002422Y014578
X002422Y008578
X004422Y014578
X004422Y012578
X004422Y010578
X004422Y008578
X008422Y014578
X008422Y012578
X010422Y014578
X012422Y014578
X014422Y014578
X020422Y008578
X022422Y014578
X022422Y008578
X024422Y008578
X014500Y001250
X015050Y001250
X015450Y-000100
X017600Y-000100
X009275Y-007050
X014750Y-007800
X015250Y-007800
X017900Y-008450
X017300Y-005750
X016200Y-005750
X019300Y-009800
X022350Y-004850
X023100Y-003650
X013600Y-004400
X015900Y-004400
X008150Y-037950
X007550Y-040600
X016700Y-040100
X013500Y-040350
X017600Y-039950
X014850Y-037950
X016500Y-038200
X018800Y-040300
X019850Y-040300
X019300Y-039500
X016000Y-041350
X020850Y004000
X021973Y-000422
X023973Y005578
X023973Y003578
X023973Y001578
X023973Y-000422
X000422Y003580
X000422Y001580
X002422Y005580
X002422Y-000420
X004422Y005580
X004422Y003580
X004422Y-000420
X006422Y005580
X006422Y-000420
X008422Y005580
X008422Y-000420
X010422Y005580
X012422Y005580
X014422Y005580
X011200Y-000900
X016422Y005580
X013200Y-000900
X022000Y004200
X021973Y-000422
X023973Y005578
X023973Y003578
X023973Y001578
X023973Y-000422
X000422Y003580
X000422Y001580
X002422Y005580
X002422Y-000420
X004422Y005580
X004422Y003580
X004422Y-000420
X006422Y005580
X006422Y-000420
X008422Y005580
X008422Y-000420
X010422Y005580
X012422Y005580
X014422Y005580
X015200Y-000850
X016422Y005580
X017200Y-000850
X022548Y-009422
X024548Y-009422
X002422Y-009421
X004422Y-009421
X006422Y-003421
X006422Y-009421
X008422Y-003421
X008422Y-009421
X010422Y-003421
X012422Y-003421
X014422Y-003421
X016422Y-003421
X022548Y-009422
X024548Y-009422
X002422Y-009421
X004422Y-009421
X006422Y-003421
X006422Y-009421
X008422Y-003421
X008422Y-009421
X010422Y-003421
X012422Y-003421
X014422Y-003421
X016422Y-003421
X023413Y-035422
X023413Y-037422
X023413Y-039422
X023413Y-041422
X024300Y-036750
X025400Y-040650
X002422Y-036422
X002422Y-042422
X004422Y-042422
X006422Y-040422
X006422Y-042422
X008422Y-036422
X008422Y-042422
X010422Y-034422
X014422Y-034422
X016422Y-034422
X018422Y-036422
X018422Y-042422
X023413Y-035422
X023413Y-037422
X023413Y-039422
X023413Y-041422
X025300Y-037250
X025500Y-039600
X002422Y-036422
X002422Y-042422
X004422Y-042422
X006422Y-040422
X006422Y-042422
X008422Y-036422
X008422Y-042422
X010422Y-034422
X014422Y-034422
X016422Y-034422
X018422Y-036422
X018422Y-042422
X009050Y-018250
X011250Y-018250
X008550Y-018750
X010300Y-018750
X024750Y-016850
X016050Y-013100
X015900Y-020750
X015900Y-017050
X007650Y-013600
X009950Y-017000
X020250Y-015850
X019950Y-018100
X006500Y-017300
X006750Y-017700
X014000Y-016800
X014000Y-017250
X000422Y-014422
X002422Y-014422
X002422Y-020422
X004422Y-016422
X004422Y-018422
X000422Y-014422
X002422Y-014422
X002422Y-020422
X004422Y-016422
X004422Y-018422
X000422Y-014422
X002422Y-014422
X002422Y-020422
X004422Y-016422
X004422Y-018422
X010422Y-012422
X014422Y-012422
X016422Y-012422
X018422Y-012422
X007257Y-020422
X011257Y-020422
X013257Y-018422
X013257Y-020422
X015257Y-018422
X015257Y-020422
X017257Y-020422
X021257Y-016422
X023257Y-012422
X023257Y-016422
X023257Y-020422
X025257Y-014422
X025257Y-016422
X025257Y-018422
X025257Y-020422
T02
X000836Y-008300G85X001111Y-008300
X000836Y-005700G85X001112Y-005700
X000836Y-040400G85X001111Y-040400
X000836Y-037800G85X001112Y-037800
X000836Y-018300G85X001111Y-018300
X000836Y-015700G85X001112Y-015700
X000836Y009700G85X001111Y009700
X000836Y012300G85X001112Y012300
T03
X019500Y-035500
X020500Y-035500
X021500Y-035500
X022500Y-035500
X022500Y-042500
X021500Y-042500
X020500Y-042500
X019500Y-042500
X018500Y005500
X019500Y005500
X020500Y005500
X021500Y005500
X021500Y-001500
X020500Y-001500
X019500Y-001500
X018500Y-001500
X021500Y007500
X020500Y007500
X019500Y007500
X018500Y007500
X018500Y014500
X019500Y014500
X020500Y014500
X021500Y014500
X021500Y-010500
X020500Y-010500
X019500Y-010500
X018500Y-010500
X018500Y-003500
X019500Y-003500
X020500Y-003500
X021500Y-003500
X011850Y-013150
X011850Y-014150
X010850Y-013150
X010850Y-014150
X009850Y-013150
X009850Y-014150
X021000Y-038000
X022000Y-038000
X021000Y-039000
X022000Y-039000
X021000Y-040000
X022000Y-040000
X004800Y-003900
X004800Y-004900
X003800Y-003900
X003800Y-004900
X002800Y-003900
X002800Y-004900
X008100Y004650
X008100Y003650
X007100Y004650
X007100Y003650
X006100Y004650
X006100Y003650
X007450Y014100
X007450Y013100
X006450Y014100
X006450Y013100
X005450Y014100
X005450Y013100
T04
X000764Y004244G85X001433Y004244
X000764Y-000244G85X001433Y-000244
T05
X003500Y-013500
X004500Y-013500
X005500Y-013500
X006500Y-013500
X006500Y-020500
X005500Y-020500
X004500Y-020500
X003500Y-020500
X022500Y-032500
X021500Y-032500
X020500Y-032500
X019500Y-032500
X019500Y-023500
X020500Y-023500
X021500Y-023500
X022500Y-023500
T06
X024450Y-038000
X024450Y-039000
X024450Y-040000
X024450Y011950
X024450Y010950
X024450Y009950
X022500Y-021500
X021500Y-021500
X020500Y-021500
X019500Y-021500
X019500Y-012500
X020500Y-012500
X021500Y-012500
X022500Y-012500
M30
