M48
INCH,LZ
;FILE_FORMAT=2:4
;TYPE=NON_PLATED
;Layer: Drill NPTH
;EasyEDA v6.4.25, 2021-12-03T12:49:12+01:00
;610ea2077d8943ff92919c83ebf6a1f2,9c416354eb984020824aaf9c885bead6,10
;Gerber Generator version 0.2
;Holesize 1 = 0.0120 inch
T01C0.0120
;Holesize 2 = 0.0470 inch
T02C0.0470
;Holesize 3 = 0.0590 inch
T03C0.0590
%
G05
G90
T01
X005700Y007000
X005900Y007000
X006100Y007000
X006300Y007000
X006300Y006000
X006100Y006000
X005900Y006000
X005700Y006000
X020300Y007000
X020100Y007000
X019900Y007000
X019700Y007000
X020301Y006000
X020101Y006000
X019901Y006000
X019701Y006000
X006300Y-003000
X006100Y-003000
X005900Y-003000
X005700Y-003000
X020301Y-003000
X020101Y-003000
X019901Y-003000
X019701Y-003000
X005700Y-002000
X005900Y-002000
X006100Y-002000
X006300Y-002000
X019700Y-002000
X019900Y-002000
X020100Y-002000
X020300Y-002000
X005700Y-011000
X005900Y-011000
X006100Y-011000
X006300Y-011000
X019700Y-011000
X019900Y-011000
X020100Y-011000
X020300Y-011000
X006300Y-013000
X006100Y-013000
X005900Y-013000
X005700Y-013000
X020301Y-012000
X020101Y-012000
X019901Y-012000
X019701Y-012000
X006300Y-023000
X006100Y-023000
X005900Y-023000
X005700Y-023000
X020301Y-023000
X020101Y-023000
X019901Y-023000
X019701Y-023000
X005700Y-021000
X005900Y-021000
X006100Y-021000
X006300Y-021000
X019700Y-022000
X019900Y-022000
X020100Y-022000
X020300Y-022000
X006300Y-035000
X006100Y-035000
X005900Y-035000
X005700Y-035000
X020301Y-035000
X020101Y-035000
X019901Y-035000
X019701Y-035000
X005700Y-033000
X005900Y-033000
X006100Y-033000
X006300Y-033000
X019700Y-033000
X019900Y-033000
X020100Y-033000
X020300Y-033000
T02
X001099Y002886
X001099Y001114
T03
X017626Y-017000
X014674Y-017000
M30
