G04 Layer: BottomSolderMaskLayer*
G04 EasyEDA v6.4.25, 2021-12-03T12:49:12+01:00*
G04 610ea2077d8943ff92919c83ebf6a1f2,9c416354eb984020824aaf9c885bead6,10*
G04 Gerber Generator version 0.2*
G04 Scale: 100 percent, Rotated: No, Reflected: No *
G04 Dimensions in inches *
G04 leading zeros omitted , absolute positions ,3 integer and 6 decimal *
%FSLAX36Y36*%
%MOIN*%

%ADD59C,0.0414*%
%ADD60C,0.0434*%
%ADD61C,0.0631*%
%ADD65C,0.0700*%
%ADD67C,0.0709*%
%ADD74C,0.0660*%
%ADD75R,0.0660X0.0660*%
%ADD79C,0.0749*%

%LPD*%
D59*
X198150Y-4002523D02*
G01*
X198150Y-4014335D01*
X198150Y-3805673D02*
G01*
X198150Y-3817485D01*
D60*
X102676Y-3772210D02*
G01*
X81023Y-3772210D01*
X102676Y-4047800D02*
G01*
X81023Y-4047800D01*
D59*
X198150Y-1792523D02*
G01*
X198150Y-1804335D01*
X198150Y-1595673D02*
G01*
X198150Y-1607485D01*
D60*
X102676Y-1562210D02*
G01*
X81023Y-1562210D01*
X102676Y-1837800D02*
G01*
X81023Y-1837800D01*
D59*
X198150Y-792523D02*
G01*
X198150Y-804335D01*
X198150Y-595673D02*
G01*
X198150Y-607485D01*
D60*
X102676Y-562210D02*
G01*
X81023Y-562210D01*
X102676Y-837800D02*
G01*
X81023Y-837800D01*
D59*
X198150Y1007476D02*
G01*
X198150Y995664D01*
X198150Y1204326D02*
G01*
X198150Y1192514D01*
D60*
X102676Y1237790D02*
G01*
X81023Y1237790D01*
X102676Y962199D02*
G01*
X81023Y962199D01*
D61*
X159103Y424420D02*
G01*
X60677Y424420D01*
X159103Y-24389D02*
G01*
X60677Y-24389D01*
G36*
X1915000Y-3585000D02*
G01*
X1915000Y-3515000D01*
X1985000Y-3515000D01*
X1985000Y-3585000D01*
G37*
D65*
G01*
X2050010Y-3550000D03*
G01*
X2150010Y-3550000D03*
G01*
X2250010Y-3550000D03*
G36*
X2215000Y-4285000D02*
G01*
X2215000Y-4215000D01*
X2285000Y-4215000D01*
X2285000Y-4285000D01*
G37*
G01*
X2150010Y-4250000D03*
G01*
X2050010Y-4250000D03*
G01*
X1950010Y-4250000D03*
G36*
X1815000Y515000D02*
G01*
X1815000Y585000D01*
X1885000Y585000D01*
X1885000Y515000D01*
G37*
G01*
X1950000Y550000D03*
G01*
X2050000Y550000D03*
G01*
X2150000Y550000D03*
G36*
X2115000Y-185000D02*
G01*
X2115000Y-115000D01*
X2185000Y-115000D01*
X2185000Y-185000D01*
G37*
G01*
X2050000Y-150000D03*
G01*
X1950000Y-150000D03*
G01*
X1850000Y-150000D03*
G36*
X2115000Y715000D02*
G01*
X2115000Y785000D01*
X2185000Y785000D01*
X2185000Y715000D01*
G37*
G01*
X2050000Y750000D03*
G01*
X1950000Y750000D03*
G01*
X1850000Y750000D03*
G36*
X1815000Y1415000D02*
G01*
X1815000Y1485000D01*
X1885000Y1485000D01*
X1885000Y1415000D01*
G37*
G01*
X1950000Y1450000D03*
G01*
X2050000Y1450000D03*
G01*
X2150000Y1450000D03*
G36*
X2115000Y-1085000D02*
G01*
X2115000Y-1015000D01*
X2185000Y-1015000D01*
X2185000Y-1085000D01*
G37*
G01*
X2050000Y-1050000D03*
G01*
X1950000Y-1050000D03*
G01*
X1850000Y-1050000D03*
G36*
X1815000Y-385000D02*
G01*
X1815000Y-315000D01*
X1885000Y-315000D01*
X1885000Y-385000D01*
G37*
G01*
X1950000Y-350000D03*
G01*
X2050000Y-350000D03*
G01*
X2150000Y-350000D03*
G36*
X314499Y-1385500D02*
G01*
X314499Y-1314499D01*
X385500Y-1314499D01*
X385500Y-1385500D01*
G37*
D67*
G01*
X450000Y-1350000D03*
G01*
X550000Y-1350000D03*
G01*
X650000Y-1350000D03*
G36*
X614499Y-2085500D02*
G01*
X614499Y-2014499D01*
X685500Y-2014499D01*
X685500Y-2085500D01*
G37*
G01*
X550000Y-2050000D03*
G01*
X450000Y-2050000D03*
G01*
X350000Y-2050000D03*
G36*
X2214499Y-3285500D02*
G01*
X2214499Y-3214499D01*
X2285500Y-3214499D01*
X2285500Y-3285500D01*
G37*
G01*
X2150000Y-3250000D03*
G01*
X2050000Y-3250000D03*
G01*
X1950000Y-3250000D03*
G36*
X1914499Y-2385500D02*
G01*
X1914499Y-2314499D01*
X1985500Y-2314499D01*
X1985500Y-2385500D01*
G37*
G01*
X2050000Y-2350000D03*
G01*
X2150000Y-2350000D03*
G01*
X2250000Y-2350000D03*
D74*
G01*
X1185000Y-1315000D03*
G01*
X1185000Y-1415000D03*
G01*
X1085000Y-1315000D03*
G01*
X1085000Y-1415000D03*
G01*
X985000Y-1315000D03*
G36*
X951999Y-1448000D02*
G01*
X951999Y-1381999D01*
X1018000Y-1381999D01*
X1018000Y-1448000D01*
G37*
G01*
X2100000Y-3800000D03*
G01*
X2200000Y-3800000D03*
G01*
X2100000Y-3900000D03*
G01*
X2200000Y-3900000D03*
G01*
X2100000Y-4000000D03*
D75*
G01*
X2200000Y-4000000D03*
D79*
G01*
X2445000Y-3800000D03*
G01*
X2445000Y-3900000D03*
G36*
X2407600Y-4033000D02*
G01*
X2407600Y-3966999D01*
X2482399Y-3966999D01*
X2482399Y-4033000D01*
G37*
D74*
G01*
X480000Y-390000D03*
G01*
X480000Y-490000D03*
G01*
X380000Y-390000D03*
G01*
X380000Y-490000D03*
G01*
X280000Y-390000D03*
G36*
X246999Y-523000D02*
G01*
X246999Y-456999D01*
X313000Y-456999D01*
X313000Y-523000D01*
G37*
G01*
X810000Y465000D03*
G01*
X810000Y365000D03*
G01*
X710000Y465000D03*
G01*
X710000Y365000D03*
G01*
X610000Y465000D03*
G36*
X576999Y331999D02*
G01*
X576999Y398000D01*
X643000Y398000D01*
X643000Y331999D01*
G37*
G01*
X745000Y1410000D03*
G01*
X745000Y1310000D03*
G01*
X645000Y1410000D03*
G01*
X645000Y1310000D03*
G01*
X545000Y1410000D03*
G36*
X511999Y1276999D02*
G01*
X511999Y1343000D01*
X578000Y1343000D01*
X578000Y1276999D01*
G37*
D79*
G01*
X2445000Y1195000D03*
G01*
X2445000Y1095000D03*
G36*
X2407600Y961999D02*
G01*
X2407600Y1028000D01*
X2482399Y1028000D01*
X2482399Y961999D01*
G37*
G36*
X2212600Y-2187399D02*
G01*
X2212600Y-2112600D01*
X2287399Y-2112600D01*
X2287399Y-2187399D01*
G37*
G01*
X2150000Y-2150000D03*
G01*
X2050000Y-2150000D03*
G01*
X1950000Y-2150000D03*
G36*
X1912600Y-1287399D02*
G01*
X1912600Y-1212600D01*
X1987399Y-1212600D01*
X1987399Y-1287399D01*
G37*
G01*
X2050000Y-1250000D03*
G01*
X2150000Y-1250000D03*
G01*
X2250000Y-1250000D03*
M02*
