G04 Layer: TopPasteMaskLayer*
G04 EasyEDA v6.4.25, 2021-12-03T12:49:12+01:00*
G04 610ea2077d8943ff92919c83ebf6a1f2,9c416354eb984020824aaf9c885bead6,10*
G04 Gerber Generator version 0.2*
G04 Scale: 100 percent, Rotated: No, Reflected: No *
G04 Dimensions in inches *
G04 leading zeros omitted , absolute positions ,3 integer and 6 decimal *
%FSLAX36Y36*%
%MOIN*%

%ADD13C,0.0256*%
%ADD14C,0.0236*%
%ADD17R,0.1772X0.1575*%
%ADD18R,0.0622X0.0315*%
%ADD19R,0.0421X0.0236*%
%ADD20R,0.0236X0.0421*%
%ADD21R,0.0422X0.0209*%
%ADD22R,0.0315X0.0197*%
%ADD24R,0.0197X0.0315*%
%ADD27R,0.0394X0.0709*%
%ADD28R,0.0709X0.0394*%
%ADD29R,0.0787X0.0315*%
%ADD30R,0.0315X0.0315*%
%ADD31R,0.0157X0.0217*%
%ADD32R,0.0098X0.0217*%
%ADD33R,0.0390X0.0430*%
%ADD34R,0.0236X0.0197*%
%ADD35R,0.0217X0.0157*%
%ADD36R,0.0217X0.0098*%
%ADD37R,0.0197X0.0236*%
%ADD38R,0.0315X0.0354*%
%ADD39R,0.0354X0.0315*%

%LPD*%
G36*
X81020Y-3752520D02*
G01*
X79060Y-3752620D01*
X77120Y-3752919D01*
X75220Y-3753399D01*
X73380Y-3754060D01*
X71600Y-3754920D01*
X69940Y-3755940D01*
X68360Y-3757120D01*
X66940Y-3758460D01*
X65640Y-3759940D01*
X64480Y-3761520D01*
X63500Y-3763220D01*
X62699Y-3765020D01*
X62080Y-3766880D01*
X61640Y-3768780D01*
X61400Y-3770740D01*
X61340Y-3772700D01*
X61500Y-3774660D01*
X61840Y-3776580D01*
X62360Y-3778480D01*
X63080Y-3780299D01*
X63980Y-3782040D01*
X65039Y-3783700D01*
X66260Y-3785240D01*
X67640Y-3786640D01*
X69140Y-3787900D01*
X70760Y-3789000D01*
X72480Y-3789940D01*
X74300Y-3790700D01*
X76160Y-3791280D01*
X78080Y-3791660D01*
X80040Y-3791860D01*
X102680Y-3791880D01*
X104640Y-3791800D01*
X106580Y-3791500D01*
X108480Y-3791019D01*
X110320Y-3790340D01*
X112100Y-3789500D01*
X113760Y-3788480D01*
X115320Y-3787280D01*
X116760Y-3785940D01*
X118059Y-3784480D01*
X119220Y-3782880D01*
X120200Y-3781180D01*
X121000Y-3779400D01*
X121620Y-3777540D01*
X122060Y-3775620D01*
X122300Y-3773680D01*
X122360Y-3771720D01*
X122200Y-3769760D01*
X121860Y-3767820D01*
X121340Y-3765940D01*
X120620Y-3764100D01*
X119720Y-3762360D01*
X118660Y-3760720D01*
X117440Y-3759180D01*
X116060Y-3757780D01*
X114560Y-3756520D01*
X112940Y-3755400D01*
X111220Y-3754460D01*
X109400Y-3753700D01*
X107540Y-3753120D01*
X105620Y-3752740D01*
X103660Y-3752540D01*
G37*
G36*
X81020Y-4028120D02*
G01*
X79060Y-4028200D01*
X77120Y-4028500D01*
X75220Y-4028980D01*
X73380Y-4029660D01*
X71600Y-4030500D01*
X69940Y-4031520D01*
X68360Y-4032720D01*
X66940Y-4034060D01*
X65640Y-4035520D01*
X64480Y-4037120D01*
X63500Y-4038820D01*
X62699Y-4040600D01*
X62080Y-4042460D01*
X61640Y-4044380D01*
X61400Y-4046320D01*
X61340Y-4048279D01*
X61500Y-4050240D01*
X61840Y-4052180D01*
X62360Y-4054060D01*
X63080Y-4055899D01*
X63980Y-4057640D01*
X65039Y-4059280D01*
X66260Y-4060820D01*
X67640Y-4062220D01*
X69140Y-4063480D01*
X70760Y-4064600D01*
X72480Y-4065539D01*
X74300Y-4066300D01*
X76160Y-4066880D01*
X78080Y-4067260D01*
X80040Y-4067460D01*
X102680Y-4067480D01*
X104640Y-4067380D01*
X106580Y-4067080D01*
X108480Y-4066600D01*
X110320Y-4065940D01*
X112100Y-4065080D01*
X113760Y-4064060D01*
X115320Y-4062880D01*
X116760Y-4061540D01*
X118059Y-4060059D01*
X119220Y-4058480D01*
X120200Y-4056780D01*
X121000Y-4054980D01*
X121620Y-4053120D01*
X122060Y-4051220D01*
X122300Y-4049260D01*
X122360Y-4047300D01*
X122200Y-4045340D01*
X121860Y-4043420D01*
X121340Y-4041520D01*
X120620Y-4039700D01*
X119720Y-4037960D01*
X118660Y-4036300D01*
X117440Y-4034760D01*
X116060Y-4033360D01*
X114560Y-4032100D01*
X112940Y-4031000D01*
X111220Y-4030059D01*
X109400Y-4029300D01*
X107540Y-4028720D01*
X105620Y-4028340D01*
X103660Y-4028140D01*
G37*
G36*
X197680Y-3786980D02*
G01*
X195820Y-3787120D01*
X193980Y-3787440D01*
X192200Y-3787940D01*
X190460Y-3788620D01*
X188800Y-3789480D01*
X187240Y-3790480D01*
X185780Y-3791640D01*
X184440Y-3792940D01*
X183240Y-3794380D01*
X182200Y-3795920D01*
X181300Y-3797559D01*
X180580Y-3799280D01*
X180020Y-3801060D01*
X179660Y-3802880D01*
X179480Y-3804740D01*
X179440Y-3817480D01*
X179540Y-3819340D01*
X179820Y-3821180D01*
X180280Y-3823000D01*
X180920Y-3824740D01*
X181720Y-3826420D01*
X182700Y-3828020D01*
X183820Y-3829500D01*
X185100Y-3830860D01*
X186480Y-3832100D01*
X188000Y-3833180D01*
X189620Y-3834120D01*
X191320Y-3834880D01*
X193080Y-3835480D01*
X194899Y-3835899D01*
X196759Y-3836120D01*
X198619Y-3836180D01*
X200479Y-3836040D01*
X202320Y-3835720D01*
X204100Y-3835200D01*
X205840Y-3834520D01*
X207500Y-3833680D01*
X209060Y-3832660D01*
X210520Y-3831500D01*
X211860Y-3830200D01*
X213060Y-3828780D01*
X214100Y-3827240D01*
X215000Y-3825600D01*
X215720Y-3823880D01*
X216280Y-3822100D01*
X216640Y-3820260D01*
X216820Y-3818420D01*
X216860Y-3805659D01*
X216759Y-3803800D01*
X216480Y-3801960D01*
X216020Y-3800160D01*
X215380Y-3798399D01*
X214579Y-3796720D01*
X213600Y-3795140D01*
X212480Y-3793639D01*
X211200Y-3792280D01*
X209820Y-3791040D01*
X208299Y-3789960D01*
X206680Y-3789020D01*
X204980Y-3788260D01*
X203220Y-3787660D01*
X201400Y-3787260D01*
X199540Y-3787020D01*
G37*
G36*
X197680Y-3983820D02*
G01*
X195820Y-3983960D01*
X193980Y-3984280D01*
X192200Y-3984800D01*
X190460Y-3985480D01*
X188800Y-3986320D01*
X187240Y-3987340D01*
X185780Y-3988500D01*
X184440Y-3989800D01*
X183240Y-3991220D01*
X182200Y-3992760D01*
X181300Y-3994400D01*
X180580Y-3996120D01*
X180020Y-3997900D01*
X179660Y-3999740D01*
X179480Y-4001580D01*
X179440Y-4014340D01*
X179540Y-4016200D01*
X179820Y-4018039D01*
X180280Y-4019840D01*
X180920Y-4021600D01*
X181720Y-4023279D01*
X182700Y-4024860D01*
X183820Y-4026360D01*
X185100Y-4027720D01*
X186480Y-4028960D01*
X188000Y-4030040D01*
X189620Y-4030980D01*
X191320Y-4031740D01*
X193080Y-4032340D01*
X194899Y-4032740D01*
X196759Y-4032980D01*
X198619Y-4033020D01*
X200479Y-4032880D01*
X202320Y-4032559D01*
X204100Y-4032060D01*
X205840Y-4031380D01*
X207500Y-4030520D01*
X209060Y-4029520D01*
X210520Y-4028360D01*
X211860Y-4027060D01*
X213060Y-4025620D01*
X214100Y-4024080D01*
X215000Y-4022440D01*
X215720Y-4020720D01*
X216280Y-4018940D01*
X216640Y-4017120D01*
X216820Y-4015260D01*
X216860Y-4002520D01*
X216759Y-4000659D01*
X216480Y-3998820D01*
X216020Y-3997000D01*
X215380Y-3995260D01*
X214579Y-3993580D01*
X213600Y-3991980D01*
X212480Y-3990500D01*
X211200Y-3989140D01*
X209820Y-3987900D01*
X208299Y-3986820D01*
X206680Y-3985880D01*
X204980Y-3985120D01*
X203220Y-3984520D01*
X201400Y-3984100D01*
X199540Y-3983880D01*
G37*
G36*
X171540Y-3850899D02*
G01*
X171540Y-3866700D01*
X224740Y-3866700D01*
X224740Y-3850899D01*
G37*
G36*
X171540Y-3876500D02*
G01*
X171540Y-3892300D01*
X224740Y-3892300D01*
X224740Y-3876500D01*
G37*
G36*
X171560Y-3902100D02*
G01*
X171560Y-3917900D01*
X224740Y-3917900D01*
X224740Y-3902100D01*
G37*
G36*
X171560Y-3927700D02*
G01*
X171560Y-3943500D01*
X224740Y-3943500D01*
X224740Y-3927700D01*
G37*
G36*
X171540Y-3953300D02*
G01*
X171540Y-3969100D01*
X224740Y-3969100D01*
X224740Y-3953300D01*
G37*
G36*
X81020Y-1542520D02*
G01*
X79060Y-1542620D01*
X77120Y-1542920D01*
X75220Y-1543400D01*
X73380Y-1544060D01*
X71600Y-1544920D01*
X69940Y-1545940D01*
X68360Y-1547120D01*
X66940Y-1548460D01*
X65640Y-1549940D01*
X64480Y-1551519D01*
X63500Y-1553220D01*
X62699Y-1555020D01*
X62080Y-1556879D01*
X61640Y-1558779D01*
X61400Y-1560740D01*
X61340Y-1562700D01*
X61500Y-1564660D01*
X61840Y-1566579D01*
X62360Y-1568480D01*
X63080Y-1570300D01*
X63980Y-1572040D01*
X65039Y-1573700D01*
X66260Y-1575240D01*
X67640Y-1576639D01*
X69140Y-1577900D01*
X70760Y-1579000D01*
X72480Y-1579940D01*
X74300Y-1580700D01*
X76160Y-1581279D01*
X78080Y-1581660D01*
X80040Y-1581860D01*
X102680Y-1581879D01*
X104640Y-1581800D01*
X106580Y-1581500D01*
X108480Y-1581020D01*
X110320Y-1580340D01*
X112100Y-1579500D01*
X113760Y-1578480D01*
X115320Y-1577280D01*
X116760Y-1575940D01*
X118059Y-1574480D01*
X119220Y-1572880D01*
X120200Y-1571180D01*
X121000Y-1569400D01*
X121620Y-1567540D01*
X122060Y-1565620D01*
X122300Y-1563680D01*
X122360Y-1561720D01*
X122200Y-1559760D01*
X121860Y-1557820D01*
X121340Y-1555940D01*
X120620Y-1554100D01*
X119720Y-1552360D01*
X118660Y-1550720D01*
X117440Y-1549180D01*
X116060Y-1547780D01*
X114560Y-1546519D01*
X112940Y-1545400D01*
X111220Y-1544460D01*
X109400Y-1543700D01*
X107540Y-1543120D01*
X105620Y-1542740D01*
X103660Y-1542540D01*
G37*
G36*
X81020Y-1818120D02*
G01*
X79060Y-1818200D01*
X77120Y-1818500D01*
X75220Y-1818980D01*
X73380Y-1819660D01*
X71600Y-1820500D01*
X69940Y-1821519D01*
X68360Y-1822720D01*
X66940Y-1824060D01*
X65640Y-1825520D01*
X64480Y-1827120D01*
X63500Y-1828820D01*
X62699Y-1830600D01*
X62080Y-1832460D01*
X61640Y-1834379D01*
X61400Y-1836320D01*
X61340Y-1838280D01*
X61500Y-1840240D01*
X61840Y-1842180D01*
X62360Y-1844060D01*
X63080Y-1845900D01*
X63980Y-1847640D01*
X65039Y-1849280D01*
X66260Y-1850820D01*
X67640Y-1852220D01*
X69140Y-1853480D01*
X70760Y-1854600D01*
X72480Y-1855540D01*
X74300Y-1856300D01*
X76160Y-1856879D01*
X78080Y-1857260D01*
X80040Y-1857460D01*
X102680Y-1857480D01*
X104640Y-1857380D01*
X106580Y-1857080D01*
X108480Y-1856600D01*
X110320Y-1855940D01*
X112100Y-1855080D01*
X113760Y-1854060D01*
X115320Y-1852880D01*
X116760Y-1851540D01*
X118059Y-1850060D01*
X119220Y-1848480D01*
X120200Y-1846780D01*
X121000Y-1844980D01*
X121620Y-1843120D01*
X122060Y-1841220D01*
X122300Y-1839259D01*
X122360Y-1837300D01*
X122200Y-1835340D01*
X121860Y-1833420D01*
X121340Y-1831519D01*
X120620Y-1829700D01*
X119720Y-1827960D01*
X118660Y-1826300D01*
X117440Y-1824760D01*
X116060Y-1823360D01*
X114560Y-1822100D01*
X112940Y-1821000D01*
X111220Y-1820060D01*
X109400Y-1819300D01*
X107540Y-1818720D01*
X105620Y-1818340D01*
X103660Y-1818140D01*
G37*
G36*
X197680Y-1576980D02*
G01*
X195820Y-1577120D01*
X193980Y-1577440D01*
X192200Y-1577940D01*
X190460Y-1578620D01*
X188800Y-1579480D01*
X187240Y-1580480D01*
X185780Y-1581639D01*
X184440Y-1582940D01*
X183240Y-1584379D01*
X182200Y-1585920D01*
X181300Y-1587560D01*
X180580Y-1589280D01*
X180020Y-1591060D01*
X179660Y-1592880D01*
X179480Y-1594740D01*
X179440Y-1607480D01*
X179540Y-1609340D01*
X179820Y-1611180D01*
X180280Y-1613000D01*
X180920Y-1614740D01*
X181720Y-1616420D01*
X182700Y-1618020D01*
X183820Y-1619500D01*
X185100Y-1620860D01*
X186480Y-1622100D01*
X188000Y-1623180D01*
X189620Y-1624120D01*
X191320Y-1624880D01*
X193080Y-1625480D01*
X194899Y-1625900D01*
X196759Y-1626120D01*
X198619Y-1626180D01*
X200479Y-1626040D01*
X202320Y-1625720D01*
X204100Y-1625200D01*
X205840Y-1624520D01*
X207500Y-1623680D01*
X209060Y-1622660D01*
X210520Y-1621500D01*
X211860Y-1620200D01*
X213060Y-1618779D01*
X214100Y-1617240D01*
X215000Y-1615600D01*
X215720Y-1613880D01*
X216280Y-1612100D01*
X216640Y-1610260D01*
X216820Y-1608420D01*
X216860Y-1595660D01*
X216759Y-1593800D01*
X216480Y-1591960D01*
X216020Y-1590160D01*
X215380Y-1588400D01*
X214579Y-1586720D01*
X213600Y-1585140D01*
X212480Y-1583640D01*
X211200Y-1582280D01*
X209820Y-1581040D01*
X208299Y-1579960D01*
X206680Y-1579019D01*
X204980Y-1578260D01*
X203220Y-1577660D01*
X201400Y-1577260D01*
X199540Y-1577020D01*
G37*
G36*
X197680Y-1773820D02*
G01*
X195820Y-1773959D01*
X193980Y-1774280D01*
X192200Y-1774800D01*
X190460Y-1775480D01*
X188800Y-1776320D01*
X187240Y-1777340D01*
X185780Y-1778500D01*
X184440Y-1779800D01*
X183240Y-1781220D01*
X182200Y-1782760D01*
X181300Y-1784400D01*
X180580Y-1786120D01*
X180020Y-1787900D01*
X179660Y-1789740D01*
X179480Y-1791579D01*
X179440Y-1804340D01*
X179540Y-1806200D01*
X179820Y-1808040D01*
X180280Y-1809840D01*
X180920Y-1811600D01*
X181720Y-1813280D01*
X182700Y-1814860D01*
X183820Y-1816360D01*
X185100Y-1817720D01*
X186480Y-1818959D01*
X188000Y-1820040D01*
X189620Y-1820980D01*
X191320Y-1821740D01*
X193080Y-1822340D01*
X194899Y-1822740D01*
X196759Y-1822980D01*
X198619Y-1823020D01*
X200479Y-1822880D01*
X202320Y-1822560D01*
X204100Y-1822060D01*
X205840Y-1821380D01*
X207500Y-1820520D01*
X209060Y-1819520D01*
X210520Y-1818360D01*
X211860Y-1817060D01*
X213060Y-1815620D01*
X214100Y-1814079D01*
X215000Y-1812440D01*
X215720Y-1810720D01*
X216280Y-1808940D01*
X216640Y-1807120D01*
X216820Y-1805260D01*
X216860Y-1792520D01*
X216759Y-1790660D01*
X216480Y-1788820D01*
X216020Y-1787000D01*
X215380Y-1785260D01*
X214579Y-1783580D01*
X213600Y-1781980D01*
X212480Y-1780500D01*
X211200Y-1779139D01*
X209820Y-1777900D01*
X208299Y-1776819D01*
X206680Y-1775880D01*
X204980Y-1775120D01*
X203220Y-1774520D01*
X201400Y-1774100D01*
X199540Y-1773880D01*
G37*
G36*
X171540Y-1640900D02*
G01*
X171540Y-1656699D01*
X224740Y-1656699D01*
X224740Y-1640900D01*
G37*
G36*
X171540Y-1666500D02*
G01*
X171540Y-1682300D01*
X224740Y-1682300D01*
X224740Y-1666500D01*
G37*
G36*
X171560Y-1692100D02*
G01*
X171560Y-1707900D01*
X224740Y-1707900D01*
X224740Y-1692100D01*
G37*
G36*
X171560Y-1717700D02*
G01*
X171560Y-1733500D01*
X224740Y-1733500D01*
X224740Y-1717700D01*
G37*
G36*
X171540Y-1743300D02*
G01*
X171540Y-1759100D01*
X224740Y-1759100D01*
X224740Y-1743300D01*
G37*
G36*
X81020Y-542520D02*
G01*
X79060Y-542620D01*
X77120Y-542920D01*
X75220Y-543400D01*
X73380Y-544060D01*
X71600Y-544920D01*
X69940Y-545940D01*
X68360Y-547120D01*
X66940Y-548460D01*
X65640Y-549940D01*
X64480Y-551520D01*
X63500Y-553220D01*
X62699Y-555020D01*
X62080Y-556880D01*
X61640Y-558780D01*
X61400Y-560740D01*
X61340Y-562700D01*
X61500Y-564660D01*
X61840Y-566580D01*
X62360Y-568480D01*
X63080Y-570300D01*
X63980Y-572040D01*
X65039Y-573700D01*
X66260Y-575240D01*
X67640Y-576640D01*
X69140Y-577900D01*
X70760Y-579000D01*
X72480Y-579940D01*
X74300Y-580700D01*
X76160Y-581280D01*
X78080Y-581660D01*
X80040Y-581860D01*
X102680Y-581880D01*
X104640Y-581800D01*
X106580Y-581500D01*
X108480Y-581020D01*
X110320Y-580340D01*
X112100Y-579500D01*
X113760Y-578480D01*
X115320Y-577280D01*
X116760Y-575940D01*
X118059Y-574480D01*
X119220Y-572880D01*
X120200Y-571180D01*
X121000Y-569400D01*
X121620Y-567540D01*
X122060Y-565620D01*
X122300Y-563680D01*
X122360Y-561720D01*
X122200Y-559760D01*
X121860Y-557820D01*
X121340Y-555940D01*
X120620Y-554100D01*
X119720Y-552360D01*
X118660Y-550720D01*
X117440Y-549180D01*
X116060Y-547780D01*
X114560Y-546520D01*
X112940Y-545400D01*
X111220Y-544460D01*
X109400Y-543700D01*
X107540Y-543120D01*
X105620Y-542740D01*
X103660Y-542540D01*
G37*
G36*
X81020Y-818120D02*
G01*
X79060Y-818199D01*
X77120Y-818500D01*
X75220Y-818980D01*
X73380Y-819659D01*
X71600Y-820500D01*
X69940Y-821520D01*
X68360Y-822720D01*
X66940Y-824060D01*
X65640Y-825520D01*
X64480Y-827120D01*
X63500Y-828820D01*
X62699Y-830600D01*
X62080Y-832460D01*
X61640Y-834380D01*
X61400Y-836320D01*
X61340Y-838280D01*
X61500Y-840240D01*
X61840Y-842180D01*
X62360Y-844060D01*
X63080Y-845900D01*
X63980Y-847640D01*
X65039Y-849280D01*
X66260Y-850819D01*
X67640Y-852220D01*
X69140Y-853480D01*
X70760Y-854599D01*
X72480Y-855540D01*
X74300Y-856300D01*
X76160Y-856880D01*
X78080Y-857260D01*
X80040Y-857460D01*
X102680Y-857480D01*
X104640Y-857380D01*
X106580Y-857080D01*
X108480Y-856600D01*
X110320Y-855939D01*
X112100Y-855080D01*
X113760Y-854060D01*
X115320Y-852880D01*
X116760Y-851540D01*
X118059Y-850060D01*
X119220Y-848480D01*
X120200Y-846780D01*
X121000Y-844980D01*
X121620Y-843120D01*
X122060Y-841220D01*
X122300Y-839260D01*
X122360Y-837300D01*
X122200Y-835340D01*
X121860Y-833420D01*
X121340Y-831520D01*
X120620Y-829700D01*
X119720Y-827960D01*
X118660Y-826300D01*
X117440Y-824760D01*
X116060Y-823360D01*
X114560Y-822099D01*
X112940Y-821000D01*
X111220Y-820060D01*
X109400Y-819300D01*
X107540Y-818720D01*
X105620Y-818340D01*
X103660Y-818139D01*
G37*
G36*
X197680Y-576980D02*
G01*
X195820Y-577120D01*
X193980Y-577440D01*
X192200Y-577940D01*
X190460Y-578620D01*
X188800Y-579480D01*
X187240Y-580480D01*
X185780Y-581640D01*
X184440Y-582940D01*
X183240Y-584380D01*
X182200Y-585920D01*
X181300Y-587560D01*
X180580Y-589280D01*
X180020Y-591060D01*
X179660Y-592880D01*
X179480Y-594740D01*
X179440Y-607480D01*
X179540Y-609340D01*
X179820Y-611180D01*
X180280Y-613000D01*
X180920Y-614740D01*
X181720Y-616420D01*
X182700Y-618020D01*
X183820Y-619500D01*
X185100Y-620860D01*
X186480Y-622100D01*
X188000Y-623180D01*
X189620Y-624120D01*
X191320Y-624880D01*
X193080Y-625480D01*
X194899Y-625900D01*
X196759Y-626120D01*
X198619Y-626180D01*
X200479Y-626040D01*
X202320Y-625720D01*
X204100Y-625200D01*
X205840Y-624520D01*
X207500Y-623680D01*
X209060Y-622660D01*
X210520Y-621500D01*
X211860Y-620200D01*
X213060Y-618780D01*
X214100Y-617240D01*
X215000Y-615600D01*
X215720Y-613880D01*
X216280Y-612100D01*
X216640Y-610260D01*
X216820Y-608420D01*
X216860Y-595660D01*
X216759Y-593800D01*
X216480Y-591960D01*
X216020Y-590160D01*
X215380Y-588400D01*
X214579Y-586720D01*
X213600Y-585140D01*
X212480Y-583640D01*
X211200Y-582280D01*
X209820Y-581040D01*
X208299Y-579960D01*
X206680Y-579020D01*
X204980Y-578260D01*
X203220Y-577660D01*
X201400Y-577260D01*
X199540Y-577020D01*
G37*
G36*
X197680Y-773820D02*
G01*
X195820Y-773960D01*
X193980Y-774280D01*
X192200Y-774800D01*
X190460Y-775480D01*
X188800Y-776320D01*
X187240Y-777340D01*
X185780Y-778500D01*
X184440Y-779800D01*
X183240Y-781220D01*
X182200Y-782760D01*
X181300Y-784400D01*
X180580Y-786120D01*
X180020Y-787900D01*
X179660Y-789740D01*
X179480Y-791580D01*
X179440Y-804340D01*
X179540Y-806200D01*
X179820Y-808040D01*
X180280Y-809840D01*
X180920Y-811600D01*
X181720Y-813280D01*
X182700Y-814860D01*
X183820Y-816360D01*
X185100Y-817720D01*
X186480Y-818960D01*
X188000Y-820040D01*
X189620Y-820980D01*
X191320Y-821740D01*
X193080Y-822340D01*
X194899Y-822740D01*
X196759Y-822980D01*
X198619Y-823020D01*
X200479Y-822880D01*
X202320Y-822560D01*
X204100Y-822060D01*
X205840Y-821380D01*
X207500Y-820520D01*
X209060Y-819520D01*
X210520Y-818360D01*
X211860Y-817060D01*
X213060Y-815620D01*
X214100Y-814080D01*
X215000Y-812440D01*
X215720Y-810720D01*
X216280Y-808940D01*
X216640Y-807120D01*
X216820Y-805260D01*
X216860Y-792520D01*
X216759Y-790660D01*
X216480Y-788820D01*
X216020Y-787000D01*
X215380Y-785260D01*
X214579Y-783580D01*
X213600Y-781979D01*
X212480Y-780500D01*
X211200Y-779140D01*
X209820Y-777900D01*
X208299Y-776820D01*
X206680Y-775879D01*
X204980Y-775120D01*
X203220Y-774520D01*
X201400Y-774100D01*
X199540Y-773880D01*
G37*
G36*
X171540Y-640900D02*
G01*
X171540Y-656700D01*
X224740Y-656700D01*
X224740Y-640900D01*
G37*
G36*
X171540Y-666500D02*
G01*
X171540Y-682300D01*
X224740Y-682300D01*
X224740Y-666500D01*
G37*
G36*
X171560Y-692099D02*
G01*
X171560Y-707900D01*
X224740Y-707900D01*
X224740Y-692099D01*
G37*
G36*
X171560Y-717700D02*
G01*
X171560Y-733500D01*
X224740Y-733500D01*
X224740Y-717700D01*
G37*
G36*
X171540Y-743300D02*
G01*
X171540Y-759100D01*
X224740Y-759100D01*
X224740Y-743300D01*
G37*
G36*
X81020Y1257480D02*
G01*
X79060Y1257380D01*
X77120Y1257080D01*
X75220Y1256600D01*
X73380Y1255940D01*
X71600Y1255080D01*
X69940Y1254060D01*
X68360Y1252880D01*
X66940Y1251540D01*
X65640Y1250060D01*
X64480Y1248480D01*
X63500Y1246780D01*
X62699Y1244980D01*
X62080Y1243120D01*
X61640Y1241220D01*
X61400Y1239260D01*
X61340Y1237300D01*
X61500Y1235340D01*
X61840Y1233420D01*
X62360Y1231520D01*
X63080Y1229700D01*
X63980Y1227960D01*
X65039Y1226300D01*
X66260Y1224760D01*
X67640Y1223360D01*
X69140Y1222100D01*
X70760Y1221000D01*
X72480Y1220060D01*
X74300Y1219300D01*
X76160Y1218720D01*
X78080Y1218340D01*
X80040Y1218140D01*
X102680Y1218120D01*
X104640Y1218200D01*
X106580Y1218500D01*
X108480Y1218980D01*
X110320Y1219660D01*
X112100Y1220500D01*
X113760Y1221520D01*
X115320Y1222720D01*
X116760Y1224060D01*
X118059Y1225520D01*
X119220Y1227120D01*
X120200Y1228820D01*
X121000Y1230600D01*
X121620Y1232460D01*
X122060Y1234380D01*
X122300Y1236320D01*
X122360Y1238280D01*
X122200Y1240240D01*
X121860Y1242180D01*
X121340Y1244060D01*
X120620Y1245900D01*
X119720Y1247640D01*
X118660Y1249280D01*
X117440Y1250820D01*
X116060Y1252220D01*
X114560Y1253480D01*
X112940Y1254600D01*
X111220Y1255540D01*
X109400Y1256300D01*
X107540Y1256880D01*
X105620Y1257260D01*
X103660Y1257460D01*
G37*
G36*
X81020Y981880D02*
G01*
X79060Y981800D01*
X77120Y981500D01*
X75220Y981020D01*
X73380Y980340D01*
X71600Y979500D01*
X69940Y978480D01*
X68360Y977280D01*
X66940Y975939D01*
X65640Y974479D01*
X64480Y972880D01*
X63500Y971180D01*
X62699Y969400D01*
X62080Y967540D01*
X61640Y965620D01*
X61400Y963680D01*
X61340Y961720D01*
X61500Y959760D01*
X61840Y957820D01*
X62360Y955939D01*
X63080Y954100D01*
X63980Y952360D01*
X65039Y950720D01*
X66260Y949180D01*
X67640Y947780D01*
X69140Y946520D01*
X70760Y945400D01*
X72480Y944460D01*
X74300Y943700D01*
X76160Y943120D01*
X78080Y942740D01*
X80040Y942540D01*
X102680Y942520D01*
X104640Y942620D01*
X106580Y942920D01*
X108480Y943400D01*
X110320Y944060D01*
X112100Y944920D01*
X113760Y945939D01*
X115320Y947120D01*
X116760Y948460D01*
X118059Y949940D01*
X119220Y951520D01*
X120200Y953220D01*
X121000Y955020D01*
X121620Y956880D01*
X122060Y958780D01*
X122300Y960740D01*
X122360Y962700D01*
X122200Y964659D01*
X121860Y966580D01*
X121340Y968480D01*
X120620Y970300D01*
X119720Y972039D01*
X118660Y973700D01*
X117440Y975240D01*
X116060Y976640D01*
X114560Y977900D01*
X112940Y979000D01*
X111220Y979940D01*
X109400Y980699D01*
X107540Y981280D01*
X105620Y981660D01*
X103660Y981860D01*
G37*
G36*
X197680Y1223020D02*
G01*
X195820Y1222880D01*
X193980Y1222560D01*
X192200Y1222060D01*
X190460Y1221380D01*
X188800Y1220520D01*
X187240Y1219520D01*
X185780Y1218360D01*
X184440Y1217060D01*
X183240Y1215620D01*
X182200Y1214080D01*
X181300Y1212440D01*
X180580Y1210720D01*
X180020Y1208940D01*
X179660Y1207120D01*
X179480Y1205260D01*
X179440Y1192520D01*
X179540Y1190660D01*
X179820Y1188820D01*
X180280Y1187000D01*
X180920Y1185260D01*
X181720Y1183580D01*
X182700Y1181980D01*
X183820Y1180500D01*
X185100Y1179140D01*
X186480Y1177900D01*
X188000Y1176820D01*
X189620Y1175880D01*
X191320Y1175120D01*
X193080Y1174520D01*
X194899Y1174100D01*
X196759Y1173880D01*
X198619Y1173820D01*
X200479Y1173960D01*
X202320Y1174280D01*
X204100Y1174800D01*
X205840Y1175480D01*
X207500Y1176320D01*
X209060Y1177340D01*
X210520Y1178500D01*
X211860Y1179800D01*
X213060Y1181220D01*
X214100Y1182760D01*
X215000Y1184400D01*
X215720Y1186120D01*
X216280Y1187900D01*
X216640Y1189740D01*
X216820Y1191580D01*
X216860Y1204340D01*
X216759Y1206200D01*
X216480Y1208040D01*
X216020Y1209840D01*
X215380Y1211600D01*
X214579Y1213280D01*
X213600Y1214860D01*
X212480Y1216360D01*
X211200Y1217720D01*
X209820Y1218960D01*
X208299Y1220040D01*
X206680Y1220980D01*
X204980Y1221740D01*
X203220Y1222340D01*
X201400Y1222740D01*
X199540Y1222980D01*
G37*
G36*
X197680Y1026180D02*
G01*
X195820Y1026040D01*
X193980Y1025720D01*
X192200Y1025200D01*
X190460Y1024520D01*
X188800Y1023680D01*
X187240Y1022660D01*
X185780Y1021500D01*
X184440Y1020200D01*
X183240Y1018780D01*
X182200Y1017240D01*
X181300Y1015600D01*
X180580Y1013880D01*
X180020Y1012099D01*
X179660Y1010260D01*
X179480Y1008420D01*
X179440Y995660D01*
X179540Y993800D01*
X179820Y991960D01*
X180280Y990160D01*
X180920Y988400D01*
X181720Y986720D01*
X182700Y985140D01*
X183820Y983640D01*
X185100Y982280D01*
X186480Y981040D01*
X188000Y979960D01*
X189620Y979020D01*
X191320Y978259D01*
X193080Y977660D01*
X194899Y977260D01*
X196759Y977020D01*
X198619Y976979D01*
X200479Y977120D01*
X202320Y977440D01*
X204100Y977940D01*
X205840Y978620D01*
X207500Y979479D01*
X209060Y980480D01*
X210520Y981640D01*
X211860Y982940D01*
X213060Y984380D01*
X214100Y985920D01*
X215000Y987560D01*
X215720Y989280D01*
X216280Y991060D01*
X216640Y992880D01*
X216820Y994740D01*
X216860Y1007480D01*
X216759Y1009340D01*
X216480Y1011180D01*
X216020Y1013000D01*
X215380Y1014740D01*
X214579Y1016420D01*
X213600Y1018020D01*
X212480Y1019500D01*
X211200Y1020860D01*
X209820Y1022099D01*
X208299Y1023180D01*
X206680Y1024120D01*
X204980Y1024880D01*
X203220Y1025480D01*
X201400Y1025900D01*
X199540Y1026120D01*
G37*
G36*
X171540Y1159100D02*
G01*
X171540Y1143300D01*
X224740Y1143300D01*
X224740Y1159100D01*
G37*
G36*
X171540Y1133500D02*
G01*
X171540Y1117700D01*
X224740Y1117700D01*
X224740Y1133500D01*
G37*
G36*
X171560Y1107900D02*
G01*
X171560Y1092100D01*
X224740Y1092100D01*
X224740Y1107900D01*
G37*
G36*
X171560Y1082300D02*
G01*
X171560Y1066500D01*
X224740Y1066500D01*
X224740Y1082300D01*
G37*
G36*
X171540Y1056700D02*
G01*
X171540Y1040900D01*
X224740Y1040900D01*
X224740Y1056700D01*
G37*
G36*
X60679Y5140D02*
G01*
X57740Y5000D01*
X54820Y4560D01*
X51960Y3840D01*
X49200Y2819D01*
X46560Y1540D01*
X44040Y20D01*
X41700Y-1760D01*
X39540Y-3760D01*
X37580Y-5980D01*
X35860Y-8360D01*
X34400Y-10920D01*
X33180Y-13600D01*
X32240Y-16379D01*
X31600Y-19260D01*
X31220Y-22180D01*
X31160Y-25120D01*
X31220Y-26600D01*
X31600Y-29520D01*
X32240Y-32380D01*
X33180Y-35180D01*
X34400Y-37860D01*
X35860Y-40400D01*
X37580Y-42800D01*
X39540Y-45000D01*
X40580Y-46040D01*
X42840Y-47920D01*
X45279Y-49580D01*
X47859Y-50980D01*
X50580Y-52140D01*
X53380Y-53000D01*
X56280Y-53580D01*
X59200Y-53880D01*
X159100Y-53920D01*
X162040Y-53760D01*
X164940Y-53320D01*
X167800Y-52600D01*
X170560Y-51600D01*
X173220Y-50320D01*
X175740Y-48780D01*
X178080Y-47000D01*
X180240Y-45000D01*
X182180Y-42800D01*
X183900Y-40400D01*
X185380Y-37860D01*
X186580Y-35180D01*
X187520Y-32380D01*
X188180Y-29520D01*
X188540Y-26600D01*
X188619Y-23640D01*
X188400Y-20720D01*
X187880Y-17820D01*
X187079Y-14980D01*
X186020Y-12240D01*
X184660Y-9620D01*
X183080Y-7140D01*
X181240Y-4840D01*
X179180Y-2740D01*
X176920Y-840D01*
X174500Y820D01*
X171900Y2220D01*
X169200Y3360D01*
X167800Y3840D01*
X164940Y4560D01*
X162040Y5000D01*
X159100Y5140D01*
G37*
G36*
X60679Y453960D02*
G01*
X57740Y453800D01*
X54820Y453360D01*
X51960Y452640D01*
X49200Y451640D01*
X46560Y450360D01*
X44040Y448820D01*
X41700Y447040D01*
X40580Y446079D01*
X38540Y443960D01*
X36700Y441659D01*
X35100Y439180D01*
X33760Y436560D01*
X32679Y433820D01*
X31880Y431000D01*
X31380Y428100D01*
X31220Y426640D01*
X31160Y423680D01*
X31380Y420760D01*
X31880Y417860D01*
X32679Y415020D01*
X33760Y412280D01*
X35100Y409660D01*
X36700Y407180D01*
X38540Y404880D01*
X40580Y402780D01*
X42840Y400880D01*
X45279Y399219D01*
X47859Y397819D01*
X50580Y396680D01*
X51960Y396200D01*
X54820Y395480D01*
X57740Y395040D01*
X60679Y394900D01*
X160560Y394940D01*
X163500Y395220D01*
X166380Y395820D01*
X167800Y396200D01*
X170560Y397220D01*
X173220Y398500D01*
X175740Y400020D01*
X178080Y401800D01*
X180240Y403800D01*
X182180Y406019D01*
X183900Y408400D01*
X185380Y410959D01*
X186580Y413640D01*
X187520Y416420D01*
X188180Y419300D01*
X188540Y422220D01*
X188619Y425160D01*
X188400Y428100D01*
X187880Y431000D01*
X187079Y433820D01*
X186020Y436560D01*
X184660Y439180D01*
X183080Y441659D01*
X181240Y443960D01*
X179180Y446079D01*
X176920Y447960D01*
X174500Y449620D01*
X171900Y451019D01*
X169200Y452180D01*
X166380Y453040D01*
X163500Y453620D01*
X160560Y453920D01*
G37*
G36*
X170900Y361420D02*
G01*
X170900Y314160D01*
X269320Y314160D01*
X269320Y361420D01*
G37*
G36*
X170900Y262980D02*
G01*
X170900Y215740D01*
X269320Y215740D01*
X269320Y262980D01*
G37*
G36*
X170900Y184240D02*
G01*
X170900Y137000D01*
X269320Y137000D01*
X269320Y184240D01*
G37*
G36*
X170900Y85820D02*
G01*
X170900Y38580D01*
X269320Y38580D01*
X269320Y85820D01*
G37*
G36*
X2477440Y-842560D02*
G01*
X2473500Y-846500D01*
X2473500Y-903000D01*
X2477440Y-906919D01*
X2532560Y-906919D01*
X2536500Y-903000D01*
X2536500Y-846500D01*
X2532560Y-842560D01*
X2517980Y-842560D01*
X2514040Y-846500D01*
X2514040Y-860500D01*
X2510100Y-864440D01*
X2499900Y-864440D01*
X2495960Y-860500D01*
X2495960Y-846500D01*
X2492020Y-842560D01*
G37*
G36*
X2477440Y-723080D02*
G01*
X2473500Y-727000D01*
X2473500Y-783500D01*
X2477440Y-787440D01*
X2492020Y-787440D01*
X2495960Y-783500D01*
X2495960Y-769500D01*
X2499900Y-765560D01*
X2510100Y-765560D01*
X2514040Y-769500D01*
X2514040Y-783500D01*
X2517980Y-787440D01*
X2532560Y-787440D01*
X2536500Y-783500D01*
X2536500Y-727000D01*
X2532560Y-723080D01*
G37*
G36*
X2477440Y-617560D02*
G01*
X2473500Y-621500D01*
X2473500Y-678000D01*
X2477440Y-681919D01*
X2532560Y-681919D01*
X2536500Y-678000D01*
X2536500Y-621500D01*
X2532560Y-617560D01*
X2517980Y-617560D01*
X2514040Y-621500D01*
X2514040Y-635500D01*
X2510100Y-639440D01*
X2499900Y-639440D01*
X2495960Y-635500D01*
X2495960Y-621500D01*
X2492020Y-617560D01*
G37*
G36*
X2477440Y-498080D02*
G01*
X2473500Y-502000D01*
X2473500Y-558500D01*
X2477440Y-562440D01*
X2492020Y-562440D01*
X2495960Y-558500D01*
X2495960Y-544500D01*
X2499900Y-540560D01*
X2510100Y-540560D01*
X2514040Y-544500D01*
X2514040Y-558500D01*
X2517980Y-562440D01*
X2532560Y-562440D01*
X2536500Y-558500D01*
X2536500Y-502000D01*
X2532560Y-498080D01*
G37*
D13*
X1125001Y990000D02*
G01*
X1166338Y990000D01*
X1125001Y1040000D02*
G01*
X1166338Y1040000D01*
X1125001Y1090000D02*
G01*
X1166338Y1090000D01*
X1125001Y1140000D02*
G01*
X1166338Y1140000D01*
X833661Y990000D02*
G01*
X874998Y990000D01*
X833661Y1040000D02*
G01*
X874998Y1040000D01*
X833661Y1090000D02*
G01*
X874998Y1090000D01*
X833661Y1140000D02*
G01*
X874998Y1140000D01*
X1110001Y90000D02*
G01*
X1151338Y90000D01*
X1110001Y140000D02*
G01*
X1151338Y140000D01*
X1110001Y190000D02*
G01*
X1151338Y190000D01*
X1110001Y240000D02*
G01*
X1151338Y240000D01*
X818661Y90000D02*
G01*
X859998Y90000D01*
X818661Y140000D02*
G01*
X859998Y140000D01*
X818661Y190000D02*
G01*
X859998Y190000D01*
X818661Y240000D02*
G01*
X859998Y240000D01*
D14*
X2137421Y-3075000D02*
G01*
X2192538Y-3075000D01*
X2137421Y-3025000D02*
G01*
X2192538Y-3025000D01*
X2137421Y-2975000D02*
G01*
X2192538Y-2975000D01*
X2137421Y-2925000D02*
G01*
X2192538Y-2925000D01*
X2137421Y-2875000D02*
G01*
X2192538Y-2875000D01*
X2137421Y-2825000D02*
G01*
X2192538Y-2825000D01*
X2137421Y-2775000D02*
G01*
X2192538Y-2775000D01*
X2137421Y-2725000D02*
G01*
X2192538Y-2725000D01*
X2137421Y-2675000D02*
G01*
X2192538Y-2675000D01*
X2137421Y-2625000D02*
G01*
X2192538Y-2625000D01*
X2137421Y-2575000D02*
G01*
X2192538Y-2575000D01*
X2137421Y-2525000D02*
G01*
X2192538Y-2525000D01*
X2507501Y-2525000D02*
G01*
X2562619Y-2525000D01*
X2507501Y-2575000D02*
G01*
X2562619Y-2575000D01*
X2507501Y-2625000D02*
G01*
X2562619Y-2625000D01*
X2507501Y-2675000D02*
G01*
X2562619Y-2675000D01*
X2507501Y-2725000D02*
G01*
X2562619Y-2725000D01*
X2507501Y-2775000D02*
G01*
X2562619Y-2775000D01*
X2507501Y-2825000D02*
G01*
X2562619Y-2825000D01*
X2507501Y-2875000D02*
G01*
X2562619Y-2875000D01*
X2507501Y-2925000D02*
G01*
X2562619Y-2925000D01*
X2507501Y-2975000D02*
G01*
X2562619Y-2975000D01*
X2507501Y-3025000D02*
G01*
X2562619Y-3025000D01*
X2507501Y-3075000D02*
G01*
X2562619Y-3075000D01*
X462618Y-2525000D02*
G01*
X407501Y-2525000D01*
X462618Y-2575000D02*
G01*
X407501Y-2575000D01*
X462618Y-2625000D02*
G01*
X407501Y-2625000D01*
X462618Y-2675000D02*
G01*
X407501Y-2675000D01*
X462618Y-2725000D02*
G01*
X407501Y-2725000D01*
X462618Y-2775000D02*
G01*
X407501Y-2775000D01*
X462618Y-2825000D02*
G01*
X407501Y-2825000D01*
X462618Y-2875000D02*
G01*
X407501Y-2875000D01*
X462618Y-2925000D02*
G01*
X407501Y-2925000D01*
X462618Y-2975000D02*
G01*
X407501Y-2975000D01*
X462618Y-3025000D02*
G01*
X407501Y-3025000D01*
X462618Y-3075000D02*
G01*
X407501Y-3075000D01*
X92539Y-3075000D02*
G01*
X37420Y-3075000D01*
X92539Y-3025000D02*
G01*
X37420Y-3025000D01*
X92539Y-2975000D02*
G01*
X37420Y-2975000D01*
X92539Y-2925000D02*
G01*
X37420Y-2925000D01*
X92539Y-2875000D02*
G01*
X37420Y-2875000D01*
X92539Y-2825000D02*
G01*
X37420Y-2825000D01*
X92539Y-2775000D02*
G01*
X37420Y-2775000D01*
X92539Y-2725000D02*
G01*
X37420Y-2725000D01*
X92539Y-2675000D02*
G01*
X37420Y-2675000D01*
X92539Y-2625000D02*
G01*
X37420Y-2625000D01*
X92539Y-2575000D02*
G01*
X37420Y-2575000D01*
X92539Y-2525000D02*
G01*
X37420Y-2525000D01*
X955000Y-1755241D02*
G01*
X955000Y-1719020D01*
X905000Y-1755241D02*
G01*
X905000Y-1719020D01*
X855000Y-1755241D02*
G01*
X855000Y-1719020D01*
X805000Y-1755241D02*
G01*
X805000Y-1719020D01*
X955000Y-1970979D02*
G01*
X955000Y-1934760D01*
X905000Y-1970979D02*
G01*
X905000Y-1934760D01*
X855000Y-1970979D02*
G01*
X855000Y-1934760D01*
X805000Y-1970979D02*
G01*
X805000Y-1934760D01*
D13*
X1115001Y-755000D02*
G01*
X1156338Y-755000D01*
X1115001Y-705000D02*
G01*
X1156338Y-705000D01*
X1115001Y-655000D02*
G01*
X1156338Y-655000D01*
X1115001Y-605000D02*
G01*
X1156338Y-605000D01*
X823661Y-755000D02*
G01*
X864998Y-755000D01*
X823661Y-705000D02*
G01*
X864998Y-705000D01*
X823661Y-655000D02*
G01*
X864998Y-655000D01*
X823661Y-605000D02*
G01*
X864998Y-605000D01*
X1425001Y-4005000D02*
G01*
X1466338Y-4005000D01*
X1425001Y-3955000D02*
G01*
X1466338Y-3955000D01*
X1425001Y-3905000D02*
G01*
X1466338Y-3905000D01*
X1425001Y-3855000D02*
G01*
X1466338Y-3855000D01*
X1133661Y-4005000D02*
G01*
X1174998Y-4005000D01*
X1133661Y-3955000D02*
G01*
X1174998Y-3955000D01*
X1133661Y-3905000D02*
G01*
X1174998Y-3905000D01*
X1133661Y-3855000D02*
G01*
X1174998Y-3855000D01*
X830001Y-1650000D02*
G01*
X871338Y-1650000D01*
X830001Y-1600000D02*
G01*
X871338Y-1600000D01*
X830001Y-1550000D02*
G01*
X871338Y-1550000D01*
X830001Y-1500000D02*
G01*
X871338Y-1500000D01*
X538661Y-1650000D02*
G01*
X579998Y-1650000D01*
X538661Y-1600000D02*
G01*
X579998Y-1600000D01*
X538661Y-1550000D02*
G01*
X579998Y-1550000D01*
X538661Y-1500000D02*
G01*
X579998Y-1500000D01*
D17*
G01*
X1276419Y-1700000D03*
G01*
X1953580Y-1700000D03*
G36*
X1350767Y288537D02*
G01*
X1412971Y288537D01*
X1412971Y257042D01*
X1350767Y257042D01*
G37*
G36*
X1586988Y288537D02*
G01*
X1649192Y288537D01*
X1649192Y257042D01*
X1586988Y257042D01*
G37*
G36*
X1350767Y142878D02*
G01*
X1412971Y142878D01*
X1412971Y111381D01*
X1350767Y111381D01*
G37*
G36*
X1586988Y142878D02*
G01*
X1649192Y142878D01*
X1649192Y111381D01*
X1586988Y111381D01*
G37*
G36*
X1700767Y288537D02*
G01*
X1762971Y288537D01*
X1762971Y257042D01*
X1700767Y257042D01*
G37*
G36*
X1936988Y288537D02*
G01*
X1999192Y288537D01*
X1999192Y257042D01*
X1936988Y257042D01*
G37*
G36*
X1700767Y142878D02*
G01*
X1762971Y142878D01*
X1762971Y111381D01*
X1700767Y111381D01*
G37*
G36*
X1936988Y142878D02*
G01*
X1999192Y142878D01*
X1999192Y111381D01*
X1936988Y111381D01*
G37*
G36*
X2050767Y288537D02*
G01*
X2112971Y288537D01*
X2112971Y257042D01*
X2050767Y257042D01*
G37*
G36*
X2286988Y288537D02*
G01*
X2349192Y288537D01*
X2349192Y257042D01*
X2286988Y257042D01*
G37*
G36*
X2050767Y142878D02*
G01*
X2112971Y142878D01*
X2112971Y111381D01*
X2050767Y111381D01*
G37*
G36*
X2286988Y142878D02*
G01*
X2349192Y142878D01*
X2349192Y111381D01*
X2286988Y111381D01*
G37*
D18*
G01*
X738090Y1027130D03*
G01*
X501869Y1027130D03*
G01*
X738090Y1172790D03*
G01*
X501869Y1172790D03*
G36*
X1350767Y-611462D02*
G01*
X1412971Y-611462D01*
X1412971Y-642957D01*
X1350767Y-642957D01*
G37*
G36*
X1586988Y-611462D02*
G01*
X1649192Y-611462D01*
X1649192Y-642957D01*
X1586988Y-642957D01*
G37*
G36*
X1350767Y-757121D02*
G01*
X1412971Y-757121D01*
X1412971Y-788618D01*
X1350767Y-788618D01*
G37*
G36*
X1586988Y-757121D02*
G01*
X1649192Y-757121D01*
X1649192Y-788618D01*
X1586988Y-788618D01*
G37*
G36*
X1700767Y-611462D02*
G01*
X1762971Y-611462D01*
X1762971Y-642957D01*
X1700767Y-642957D01*
G37*
G36*
X1936988Y-611462D02*
G01*
X1999192Y-611462D01*
X1999192Y-642957D01*
X1936988Y-642957D01*
G37*
G36*
X1700767Y-757121D02*
G01*
X1762971Y-757121D01*
X1762971Y-788618D01*
X1700767Y-788618D01*
G37*
G36*
X1936988Y-757121D02*
G01*
X1999192Y-757121D01*
X1999192Y-788618D01*
X1936988Y-788618D01*
G37*
G36*
X2050767Y-611462D02*
G01*
X2112971Y-611462D01*
X2112971Y-642957D01*
X2050767Y-642957D01*
G37*
G36*
X2286988Y-611462D02*
G01*
X2349192Y-611462D01*
X2349192Y-642957D01*
X2286988Y-642957D01*
G37*
G36*
X2050767Y-757121D02*
G01*
X2112971Y-757121D01*
X2112971Y-788618D01*
X2050767Y-788618D01*
G37*
G36*
X2286988Y-757121D02*
G01*
X2349192Y-757121D01*
X2349192Y-788618D01*
X2286988Y-788618D01*
G37*
G36*
X400767Y-3671361D02*
G01*
X462971Y-3671361D01*
X462971Y-3702858D01*
X400767Y-3702858D01*
G37*
G36*
X636988Y-3671361D02*
G01*
X699191Y-3671361D01*
X699191Y-3702858D01*
X636988Y-3702858D01*
G37*
G36*
X400767Y-3817022D02*
G01*
X462971Y-3817022D01*
X462971Y-3848517D01*
X400767Y-3848517D01*
G37*
G36*
X636988Y-3817022D02*
G01*
X699191Y-3817022D01*
X699191Y-3848517D01*
X636988Y-3848517D01*
G37*
G36*
X400767Y-3951361D02*
G01*
X462971Y-3951361D01*
X462971Y-3982858D01*
X400767Y-3982858D01*
G37*
G36*
X636988Y-3951361D02*
G01*
X699191Y-3951361D01*
X699191Y-3982858D01*
X636988Y-3982858D01*
G37*
G36*
X400767Y-4097022D02*
G01*
X462971Y-4097022D01*
X462971Y-4128517D01*
X400767Y-4128517D01*
G37*
G36*
X636988Y-4097022D02*
G01*
X699191Y-4097022D01*
X699191Y-4128517D01*
X636988Y-4128517D01*
G37*
G01*
X2368090Y-1972869D03*
G01*
X2131869Y-1972869D03*
G01*
X2368090Y-1827210D03*
G01*
X2131869Y-1827210D03*
G01*
X2368090Y-1572869D03*
G01*
X2131869Y-1572869D03*
G01*
X2368090Y-1427210D03*
G01*
X2131869Y-1427210D03*
D19*
G01*
X961379Y-827600D03*
G01*
X961379Y-902399D03*
G01*
X1058620Y-865000D03*
D20*
G01*
X1117399Y-1666379D03*
G01*
X1042600Y-1666379D03*
G01*
X1080000Y-1763620D03*
G01*
X1477399Y1278620D03*
G01*
X1402600Y1278620D03*
G01*
X1440000Y1181379D03*
G01*
X1812399Y1278620D03*
G01*
X1737600Y1278620D03*
G01*
X1775000Y1181379D03*
G01*
X2157399Y1278620D03*
G01*
X2082600Y1278620D03*
G01*
X2120000Y1181379D03*
D21*
G01*
X439760Y237399D03*
G01*
X439760Y200000D03*
G01*
X439760Y162600D03*
G01*
X530239Y162600D03*
G01*
X530239Y200000D03*
G01*
X530239Y237399D03*
D22*
G01*
X1030000Y-1834690D03*
G01*
X1030000Y-1795320D03*
G36*
X1144174Y-3793096D02*
G01*
X1130255Y-3807015D01*
X1107984Y-3784744D01*
X1121904Y-3770825D01*
G37*
G36*
X1172013Y-3765257D02*
G01*
X1158095Y-3779176D01*
X1135824Y-3756904D01*
X1149742Y-3742986D01*
G37*
G01*
X665000Y-3919690D03*
G01*
X665000Y-3880320D03*
G01*
X340000Y-3779690D03*
G01*
X340000Y-3740320D03*
D27*
G01*
X1359040Y-4161590D03*
G01*
X1240940Y-4161590D03*
G01*
X1240940Y-4358440D03*
G01*
X1359040Y-4358440D03*
G36*
X1516006Y-3999684D02*
G01*
X1566117Y-4049794D01*
X1538278Y-4077633D01*
X1488167Y-4027522D01*
G37*
G36*
X1432497Y-4083193D02*
G01*
X1482608Y-4133303D01*
X1454768Y-4161142D01*
X1404659Y-4111032D01*
G37*
G36*
X1571692Y-4222386D02*
G01*
X1621801Y-4272496D01*
X1593963Y-4300336D01*
X1543852Y-4250225D01*
G37*
G36*
X1655200Y-4138877D02*
G01*
X1705311Y-4188987D01*
X1677471Y-4216826D01*
X1627362Y-4166716D01*
G37*
G36*
X1526126Y-3816275D02*
G01*
X1596993Y-3816275D01*
X1596993Y-3855644D01*
X1526126Y-3855644D01*
G37*
G36*
X1526126Y-3934375D02*
G01*
X1596993Y-3934375D01*
X1596993Y-3973744D01*
X1526126Y-3973744D01*
G37*
G36*
X1722977Y-3934375D02*
G01*
X1793842Y-3934375D01*
X1793842Y-3973744D01*
X1722977Y-3973744D01*
G37*
G36*
X1722977Y-3816275D02*
G01*
X1793842Y-3816275D01*
X1793842Y-3855644D01*
X1722977Y-3855644D01*
G37*
G36*
X1404659Y-3678987D02*
G01*
X1454768Y-3628877D01*
X1482608Y-3656716D01*
X1432497Y-3706826D01*
G37*
G36*
X1488167Y-3762496D02*
G01*
X1538278Y-3712386D01*
X1566117Y-3740225D01*
X1516006Y-3790336D01*
G37*
G36*
X1627362Y-3623303D02*
G01*
X1677471Y-3573193D01*
X1705311Y-3601032D01*
X1655200Y-3651142D01*
G37*
G36*
X1543852Y-3539794D02*
G01*
X1593963Y-3489684D01*
X1621801Y-3517522D01*
X1571692Y-3567633D01*
G37*
G01*
X1240940Y-3638440D03*
G01*
X1359040Y-3638440D03*
G01*
X1359040Y-3441590D03*
G01*
X1240940Y-3441590D03*
G36*
X1073963Y-3790336D02*
G01*
X1023852Y-3740225D01*
X1051692Y-3712386D01*
X1101801Y-3762496D01*
G37*
G36*
X1157471Y-3706826D02*
G01*
X1107362Y-3656716D01*
X1135200Y-3628877D01*
X1185311Y-3678987D01*
G37*
G36*
X1018278Y-3567633D02*
G01*
X968167Y-3517522D01*
X996006Y-3489684D01*
X1046117Y-3539794D01*
G37*
G36*
X934768Y-3651142D02*
G01*
X884659Y-3601032D01*
X912497Y-3573193D01*
X962608Y-3623303D01*
G37*
D28*
G01*
X1033410Y-3954059D03*
G01*
X1033410Y-3835960D03*
G01*
X836559Y-3835960D03*
G01*
X836559Y-3954059D03*
G36*
X1185311Y-4111032D02*
G01*
X1135200Y-4161142D01*
X1107362Y-4133303D01*
X1157471Y-4083193D01*
G37*
G36*
X1101801Y-4027522D02*
G01*
X1051692Y-4077633D01*
X1023852Y-4049794D01*
X1073963Y-3999684D01*
G37*
G36*
X962608Y-4166716D02*
G01*
X912497Y-4216826D01*
X884659Y-4188987D01*
X934768Y-4138877D01*
G37*
G36*
X1046117Y-4250225D02*
G01*
X996006Y-4300336D01*
X968167Y-4272496D01*
X1018278Y-4222386D01*
G37*
D29*
G01*
X387210Y-655000D03*
G01*
X387199Y-755000D03*
G01*
X662800Y-755000D03*
G01*
X662800Y-655000D03*
D24*
G01*
X2365309Y-440000D03*
G01*
X2404679Y-440000D03*
D27*
G01*
X954210Y-2050000D03*
G01*
X855789Y-2050000D03*
D30*
G01*
X1655000Y1133499D03*
G01*
X1655000Y1066500D03*
G36*
X1639251Y927247D02*
G01*
X1670748Y927247D01*
X1670748Y895752D01*
X1639251Y895752D01*
G37*
G36*
X1639251Y994247D02*
G01*
X1670748Y994247D01*
X1670748Y962752D01*
X1639251Y962752D01*
G37*
G36*
X1519251Y927247D02*
G01*
X1550748Y927247D01*
X1550748Y895752D01*
X1519251Y895752D01*
G37*
G36*
X1519251Y994247D02*
G01*
X1550748Y994247D01*
X1550748Y962752D01*
X1519251Y962752D01*
G37*
G01*
X1535000Y1133499D03*
G01*
X1535000Y1066500D03*
G01*
X2330000Y1133499D03*
G01*
X2330000Y1066500D03*
G36*
X2314251Y927247D02*
G01*
X2345748Y927247D01*
X2345748Y895752D01*
X2314251Y895752D01*
G37*
G36*
X2314251Y994247D02*
G01*
X2345748Y994247D01*
X2345748Y962752D01*
X2314251Y962752D01*
G37*
G36*
X2194251Y927247D02*
G01*
X2225748Y927247D01*
X2225748Y895752D01*
X2194251Y895752D01*
G37*
G36*
X2194251Y994247D02*
G01*
X2225748Y994247D01*
X2225748Y962752D01*
X2194251Y962752D01*
G37*
G01*
X2210000Y1133499D03*
G01*
X2210000Y1066500D03*
G36*
X674843Y240747D02*
G01*
X694528Y240747D01*
X694528Y209252D01*
X674843Y209252D01*
G37*
G36*
X635473Y240747D02*
G01*
X655158Y240747D01*
X655158Y209252D01*
X635473Y209252D01*
G37*
G36*
X674843Y185747D02*
G01*
X694528Y185747D01*
X694528Y154252D01*
X674843Y154252D01*
G37*
G36*
X635473Y185747D02*
G01*
X655158Y185747D01*
X655158Y154252D01*
X635473Y154252D01*
G37*
G36*
X1244843Y255747D02*
G01*
X1264528Y255747D01*
X1264528Y224252D01*
X1244843Y224252D01*
G37*
G36*
X1205473Y255747D02*
G01*
X1225158Y255747D01*
X1225158Y224252D01*
X1205473Y224252D01*
G37*
G36*
X1244900Y200734D02*
G01*
X1264585Y200734D01*
X1264585Y169238D01*
X1244900Y169238D01*
G37*
G36*
X1205531Y200734D02*
G01*
X1225216Y200734D01*
X1225216Y169238D01*
X1205531Y169238D01*
G37*
G36*
X1244843Y145747D02*
G01*
X1264528Y145747D01*
X1264528Y114252D01*
X1244843Y114252D01*
G37*
G36*
X1205473Y145747D02*
G01*
X1225158Y145747D01*
X1225158Y114252D01*
X1205473Y114252D01*
G37*
G36*
X1249843Y1160747D02*
G01*
X1269528Y1160747D01*
X1269528Y1129252D01*
X1249843Y1129252D01*
G37*
G36*
X1210473Y1160747D02*
G01*
X1230158Y1160747D01*
X1230158Y1129252D01*
X1210473Y1129252D01*
G37*
G36*
X1249900Y1105734D02*
G01*
X1269585Y1105734D01*
X1269585Y1074238D01*
X1249900Y1074238D01*
G37*
G36*
X1210531Y1105734D02*
G01*
X1230216Y1105734D01*
X1230216Y1074238D01*
X1210531Y1074238D01*
G37*
G36*
X1249843Y1050747D02*
G01*
X1269528Y1050747D01*
X1269528Y1019252D01*
X1249843Y1019252D01*
G37*
G36*
X1210473Y1050747D02*
G01*
X1230158Y1050747D01*
X1230158Y1019252D01*
X1210473Y1019252D01*
G37*
G36*
X729843Y970747D02*
G01*
X749528Y970747D01*
X749528Y939252D01*
X729843Y939252D01*
G37*
G36*
X690473Y970747D02*
G01*
X710158Y970747D01*
X710158Y939252D01*
X690473Y939252D01*
G37*
D24*
G01*
X825309Y-885000D03*
G01*
X864679Y-885000D03*
G01*
X2365309Y-500000D03*
G01*
X2404679Y-500000D03*
G01*
X600369Y-570010D03*
G01*
X639740Y-570010D03*
G36*
X1289843Y-634252D02*
G01*
X1309528Y-634252D01*
X1309528Y-665747D01*
X1289843Y-665747D01*
G37*
G36*
X1250473Y-634252D02*
G01*
X1270158Y-634252D01*
X1270158Y-665747D01*
X1250473Y-665747D01*
G37*
G36*
X1289843Y-689252D02*
G01*
X1309528Y-689252D01*
X1309528Y-720747D01*
X1289843Y-720747D01*
G37*
G36*
X1250473Y-689252D02*
G01*
X1270158Y-689252D01*
X1270158Y-720747D01*
X1250473Y-720747D01*
G37*
G36*
X1289843Y-744252D02*
G01*
X1309528Y-744252D01*
X1309528Y-775747D01*
X1289843Y-775747D01*
G37*
G36*
X1250473Y-744252D02*
G01*
X1270158Y-744252D01*
X1270158Y-775747D01*
X1250473Y-775747D01*
G37*
G01*
X825309Y-830000D03*
G01*
X864679Y-830000D03*
D22*
G01*
X700000Y-3779569D03*
G01*
X700000Y-3740200D03*
G01*
X700000Y-4059569D03*
G01*
X700000Y-4020200D03*
G01*
X2100020Y-1880309D03*
G01*
X2100020Y-1919679D03*
G01*
X2100020Y-1480309D03*
G01*
X2100020Y-1519679D03*
G36*
X149863Y-2434252D02*
G01*
X169547Y-2434252D01*
X169547Y-2465749D01*
X149863Y-2465749D01*
G37*
G36*
X110493Y-2434252D02*
G01*
X130178Y-2434252D01*
X130178Y-2465749D01*
X110493Y-2465749D01*
G37*
G36*
X2314862Y-3139252D02*
G01*
X2334548Y-3139252D01*
X2334548Y-3170749D01*
X2314862Y-3170749D01*
G37*
G36*
X2275492Y-3139252D02*
G01*
X2295177Y-3139252D01*
X2295177Y-3170749D01*
X2275492Y-3170749D01*
G37*
D24*
G01*
X1300309Y360000D03*
G01*
X1339679Y360000D03*
G01*
X1235309Y1240000D03*
G01*
X1274679Y1240000D03*
G01*
X1225270Y-515010D03*
G01*
X1264639Y-515010D03*
G36*
X864843Y-1354252D02*
G01*
X884528Y-1354252D01*
X884528Y-1385747D01*
X864843Y-1385747D01*
G37*
G36*
X825473Y-1354252D02*
G01*
X845158Y-1354252D01*
X845158Y-1385747D01*
X825473Y-1385747D01*
G37*
D31*
G01*
X2238500Y1214250D03*
G01*
X2301499Y1245749D03*
G01*
X2301499Y1214250D03*
D32*
G01*
X2260159Y1245749D03*
G01*
X2260159Y1214250D03*
G01*
X2279840Y1245749D03*
G01*
X2279840Y1214250D03*
D31*
G01*
X2238500Y1245749D03*
D33*
G01*
X1995000Y1133499D03*
G01*
X1995000Y1066500D03*
G36*
X1975500Y933000D02*
G01*
X2014499Y933000D01*
X2014499Y890000D01*
X1975500Y890000D01*
G37*
G36*
X1975500Y1000000D02*
G01*
X2014499Y1000000D01*
X2014499Y956999D01*
X1975500Y956999D01*
G37*
G36*
X1855500Y933000D02*
G01*
X1894499Y933000D01*
X1894499Y890000D01*
X1855500Y890000D01*
G37*
G36*
X1855500Y1000000D02*
G01*
X1894499Y1000000D01*
X1894499Y956999D01*
X1855500Y956999D01*
G37*
G01*
X1875000Y1133499D03*
G01*
X1875000Y1066500D03*
D34*
G01*
X1203350Y360000D03*
G01*
X1246649Y360000D03*
D31*
G01*
X1223500Y-5749D03*
G01*
X1286499Y25749D03*
G01*
X1286499Y-5749D03*
D32*
G01*
X1245159Y25749D03*
G01*
X1245159Y-5749D03*
G01*
X1264840Y25749D03*
G01*
X1264840Y-5749D03*
D31*
G01*
X1223500Y25749D03*
D34*
G01*
X1143350Y1240000D03*
G01*
X1186649Y1240000D03*
G36*
X1950020Y-3136080D02*
G01*
X1966723Y-3119378D01*
X1980643Y-3133298D01*
X1963940Y-3150001D01*
G37*
G36*
X1919396Y-3166703D02*
G01*
X1936099Y-3150001D01*
X1950020Y-3163921D01*
X1933316Y-3180623D01*
G37*
D35*
G01*
X1260749Y893499D03*
G01*
X1229250Y956500D03*
G01*
X1260749Y956500D03*
D36*
G01*
X1229250Y915160D03*
G01*
X1260749Y915160D03*
G01*
X1229250Y934839D03*
G01*
X1260749Y934839D03*
D35*
G01*
X1229250Y893499D03*
D31*
G01*
X1248500Y-890749D03*
G01*
X1311499Y-859250D03*
G01*
X1311499Y-890749D03*
D32*
G01*
X1270159Y-859250D03*
G01*
X1270159Y-890749D03*
G01*
X1289840Y-859250D03*
G01*
X1289840Y-890749D03*
D31*
G01*
X1248500Y-859250D03*
G01*
X1903519Y-1455749D03*
G01*
X1966520Y-1424250D03*
G01*
X1966520Y-1455749D03*
D32*
G01*
X1925180Y-1424250D03*
G01*
X1925180Y-1455749D03*
G01*
X1944859Y-1424250D03*
G01*
X1944859Y-1455749D03*
D31*
G01*
X1903519Y-1424250D03*
G01*
X1563500Y1214250D03*
G01*
X1626499Y1245749D03*
G01*
X1626499Y1214250D03*
D32*
G01*
X1585159Y1245749D03*
G01*
X1585159Y1214250D03*
G01*
X1604840Y1245749D03*
G01*
X1604840Y1214250D03*
D31*
G01*
X1563500Y1245749D03*
G01*
X1903500Y1214250D03*
G01*
X1966499Y1245749D03*
G01*
X1966499Y1214250D03*
D32*
G01*
X1925159Y1245749D03*
G01*
X1925159Y1214250D03*
G01*
X1944840Y1245749D03*
G01*
X1944840Y1214250D03*
D31*
G01*
X1903500Y1245749D03*
G36*
X2050020Y-3136080D02*
G01*
X2066723Y-3119378D01*
X2080643Y-3133298D01*
X2063940Y-3150001D01*
G37*
G36*
X2019396Y-3166703D02*
G01*
X2036099Y-3150001D01*
X2050020Y-3163921D01*
X2033316Y-3180623D01*
G37*
G36*
X1850020Y-3136080D02*
G01*
X1866723Y-3119378D01*
X1880643Y-3133298D01*
X1863940Y-3150001D01*
G37*
G36*
X1819396Y-3166703D02*
G01*
X1836099Y-3150001D01*
X1850020Y-3163921D01*
X1833316Y-3180623D01*
G37*
G36*
X1750020Y-3136080D02*
G01*
X1766723Y-3119378D01*
X1780643Y-3133298D01*
X1763940Y-3150001D01*
G37*
G36*
X1719396Y-3166703D02*
G01*
X1736099Y-3150001D01*
X1750020Y-3163921D01*
X1733316Y-3180623D01*
G37*
G36*
X1350020Y-3136080D02*
G01*
X1366723Y-3119378D01*
X1380643Y-3133298D01*
X1363940Y-3150001D01*
G37*
G36*
X1319396Y-3166703D02*
G01*
X1336099Y-3150001D01*
X1350020Y-3163921D01*
X1333316Y-3180623D01*
G37*
G36*
X1450020Y-3136080D02*
G01*
X1466723Y-3119378D01*
X1480643Y-3133298D01*
X1463940Y-3150001D01*
G37*
G36*
X1419396Y-3166703D02*
G01*
X1436099Y-3150001D01*
X1450020Y-3163921D01*
X1433316Y-3180623D01*
G37*
G36*
X1550020Y-3136080D02*
G01*
X1566723Y-3119378D01*
X1580643Y-3133298D01*
X1563940Y-3150001D01*
G37*
G36*
X1519396Y-3166703D02*
G01*
X1536099Y-3150001D01*
X1550020Y-3163921D01*
X1533316Y-3180623D01*
G37*
G36*
X1650020Y-3136080D02*
G01*
X1666723Y-3119378D01*
X1680643Y-3133298D01*
X1663940Y-3150001D01*
G37*
G36*
X1619396Y-3166703D02*
G01*
X1636099Y-3150001D01*
X1650020Y-3163921D01*
X1633316Y-3180623D01*
G37*
G36*
X1650020Y-3036080D02*
G01*
X1666723Y-3019378D01*
X1680643Y-3033298D01*
X1663940Y-3050001D01*
G37*
G36*
X1619396Y-3066703D02*
G01*
X1636099Y-3050001D01*
X1650020Y-3063921D01*
X1633316Y-3080623D01*
G37*
G36*
X1550020Y-3036080D02*
G01*
X1566723Y-3019378D01*
X1580643Y-3033298D01*
X1563940Y-3050001D01*
G37*
G36*
X1519396Y-3066703D02*
G01*
X1536099Y-3050001D01*
X1550020Y-3063921D01*
X1533316Y-3080623D01*
G37*
G36*
X1450020Y-3036080D02*
G01*
X1466723Y-3019378D01*
X1480643Y-3033298D01*
X1463940Y-3050001D01*
G37*
G36*
X1419396Y-3066703D02*
G01*
X1436099Y-3050001D01*
X1450020Y-3063921D01*
X1433316Y-3080623D01*
G37*
G36*
X1350020Y-3036080D02*
G01*
X1366723Y-3019378D01*
X1380643Y-3033298D01*
X1363940Y-3050001D01*
G37*
G36*
X1319396Y-3066703D02*
G01*
X1336099Y-3050001D01*
X1350020Y-3063921D01*
X1333316Y-3080623D01*
G37*
G36*
X1750020Y-3036080D02*
G01*
X1766723Y-3019378D01*
X1780643Y-3033298D01*
X1763940Y-3050001D01*
G37*
G36*
X1719396Y-3066703D02*
G01*
X1736099Y-3050001D01*
X1750020Y-3063921D01*
X1733316Y-3080623D01*
G37*
G36*
X1850020Y-3036080D02*
G01*
X1866723Y-3019378D01*
X1880643Y-3033298D01*
X1863940Y-3050001D01*
G37*
G36*
X1819396Y-3066703D02*
G01*
X1836099Y-3050001D01*
X1850020Y-3063921D01*
X1833316Y-3080623D01*
G37*
G36*
X1950020Y-3036080D02*
G01*
X1966723Y-3019378D01*
X1980643Y-3033298D01*
X1963940Y-3050001D01*
G37*
G36*
X1919396Y-3066703D02*
G01*
X1936099Y-3050001D01*
X1950020Y-3063921D01*
X1933316Y-3080623D01*
G37*
G36*
X2050020Y-3036080D02*
G01*
X2066723Y-3019378D01*
X2080643Y-3033298D01*
X2063940Y-3050001D01*
G37*
G36*
X2019396Y-3066703D02*
G01*
X2036099Y-3050001D01*
X2050020Y-3063921D01*
X2033316Y-3080623D01*
G37*
G36*
X1650020Y-2936080D02*
G01*
X1666723Y-2919378D01*
X1680643Y-2933298D01*
X1663940Y-2950001D01*
G37*
G36*
X1619396Y-2966703D02*
G01*
X1636099Y-2950001D01*
X1650020Y-2963921D01*
X1633316Y-2980623D01*
G37*
G36*
X1550020Y-2936080D02*
G01*
X1566723Y-2919378D01*
X1580643Y-2933298D01*
X1563940Y-2950001D01*
G37*
G36*
X1519396Y-2966703D02*
G01*
X1536099Y-2950001D01*
X1550020Y-2963921D01*
X1533316Y-2980623D01*
G37*
G36*
X1450020Y-2936080D02*
G01*
X1466723Y-2919378D01*
X1480643Y-2933298D01*
X1463940Y-2950001D01*
G37*
G36*
X1419396Y-2966703D02*
G01*
X1436099Y-2950001D01*
X1450020Y-2963921D01*
X1433316Y-2980623D01*
G37*
G36*
X1350020Y-2936080D02*
G01*
X1366723Y-2919378D01*
X1380643Y-2933298D01*
X1363940Y-2950001D01*
G37*
G36*
X1319396Y-2966703D02*
G01*
X1336099Y-2950001D01*
X1350020Y-2963921D01*
X1333316Y-2980623D01*
G37*
G36*
X1750020Y-2936080D02*
G01*
X1766723Y-2919378D01*
X1780643Y-2933298D01*
X1763940Y-2950001D01*
G37*
G36*
X1719396Y-2966703D02*
G01*
X1736099Y-2950001D01*
X1750020Y-2963921D01*
X1733316Y-2980623D01*
G37*
G36*
X1850020Y-2936080D02*
G01*
X1866723Y-2919378D01*
X1880643Y-2933298D01*
X1863940Y-2950001D01*
G37*
G36*
X1819396Y-2966703D02*
G01*
X1836099Y-2950001D01*
X1850020Y-2963921D01*
X1833316Y-2980623D01*
G37*
G36*
X1950020Y-2936080D02*
G01*
X1966723Y-2919378D01*
X1980643Y-2933298D01*
X1963940Y-2950001D01*
G37*
G36*
X1919396Y-2966703D02*
G01*
X1936099Y-2950001D01*
X1950020Y-2963921D01*
X1933316Y-2980623D01*
G37*
G36*
X2050020Y-2936080D02*
G01*
X2066723Y-2919378D01*
X2080643Y-2933298D01*
X2063940Y-2950001D01*
G37*
G36*
X2019396Y-2966703D02*
G01*
X2036099Y-2950001D01*
X2050020Y-2963921D01*
X2033316Y-2980623D01*
G37*
G36*
X1650020Y-2836080D02*
G01*
X1666723Y-2819378D01*
X1680643Y-2833298D01*
X1663940Y-2850001D01*
G37*
G36*
X1619396Y-2866703D02*
G01*
X1636099Y-2850001D01*
X1650020Y-2863921D01*
X1633316Y-2880623D01*
G37*
G36*
X1550020Y-2836080D02*
G01*
X1566723Y-2819378D01*
X1580643Y-2833298D01*
X1563940Y-2850001D01*
G37*
G36*
X1519396Y-2866703D02*
G01*
X1536099Y-2850001D01*
X1550020Y-2863921D01*
X1533316Y-2880623D01*
G37*
G36*
X1450020Y-2836080D02*
G01*
X1466723Y-2819378D01*
X1480643Y-2833298D01*
X1463940Y-2850001D01*
G37*
G36*
X1419396Y-2866703D02*
G01*
X1436099Y-2850001D01*
X1450020Y-2863921D01*
X1433316Y-2880623D01*
G37*
G36*
X1350020Y-2836080D02*
G01*
X1366723Y-2819378D01*
X1380643Y-2833298D01*
X1363940Y-2850001D01*
G37*
G36*
X1319396Y-2866703D02*
G01*
X1336099Y-2850001D01*
X1350020Y-2863921D01*
X1333316Y-2880623D01*
G37*
G36*
X1750020Y-2836080D02*
G01*
X1766723Y-2819378D01*
X1780643Y-2833298D01*
X1763940Y-2850001D01*
G37*
G36*
X1719396Y-2866703D02*
G01*
X1736099Y-2850001D01*
X1750020Y-2863921D01*
X1733316Y-2880623D01*
G37*
G36*
X1850020Y-2836080D02*
G01*
X1866723Y-2819378D01*
X1880643Y-2833298D01*
X1863940Y-2850001D01*
G37*
G36*
X1819396Y-2866703D02*
G01*
X1836099Y-2850001D01*
X1850020Y-2863921D01*
X1833316Y-2880623D01*
G37*
G36*
X1950020Y-2836080D02*
G01*
X1966723Y-2819378D01*
X1980643Y-2833298D01*
X1963940Y-2850001D01*
G37*
G36*
X1919396Y-2866703D02*
G01*
X1936099Y-2850001D01*
X1950020Y-2863921D01*
X1933316Y-2880623D01*
G37*
G36*
X2050020Y-2836080D02*
G01*
X2066723Y-2819378D01*
X2080643Y-2833298D01*
X2063940Y-2850001D01*
G37*
G36*
X2019396Y-2866703D02*
G01*
X2036099Y-2850001D01*
X2050020Y-2863921D01*
X2033316Y-2880623D01*
G37*
G36*
X2050020Y-2436080D02*
G01*
X2066723Y-2419378D01*
X2080643Y-2433298D01*
X2063940Y-2450001D01*
G37*
G36*
X2019396Y-2466703D02*
G01*
X2036099Y-2450001D01*
X2050020Y-2463921D01*
X2033316Y-2480623D01*
G37*
G36*
X1950020Y-2436080D02*
G01*
X1966723Y-2419378D01*
X1980643Y-2433298D01*
X1963940Y-2450001D01*
G37*
G36*
X1919396Y-2466703D02*
G01*
X1936099Y-2450001D01*
X1950020Y-2463921D01*
X1933316Y-2480623D01*
G37*
G36*
X1850020Y-2436080D02*
G01*
X1866723Y-2419378D01*
X1880643Y-2433298D01*
X1863940Y-2450001D01*
G37*
G36*
X1819396Y-2466703D02*
G01*
X1836099Y-2450001D01*
X1850020Y-2463921D01*
X1833316Y-2480623D01*
G37*
G36*
X1750020Y-2436080D02*
G01*
X1766723Y-2419378D01*
X1780643Y-2433298D01*
X1763940Y-2450001D01*
G37*
G36*
X1719396Y-2466703D02*
G01*
X1736099Y-2450001D01*
X1750020Y-2463921D01*
X1733316Y-2480623D01*
G37*
G36*
X1350020Y-2436080D02*
G01*
X1366723Y-2419378D01*
X1380643Y-2433298D01*
X1363940Y-2450001D01*
G37*
G36*
X1319396Y-2466703D02*
G01*
X1336099Y-2450001D01*
X1350020Y-2463921D01*
X1333316Y-2480623D01*
G37*
G36*
X1450020Y-2436080D02*
G01*
X1466723Y-2419378D01*
X1480643Y-2433298D01*
X1463940Y-2450001D01*
G37*
G36*
X1419396Y-2466703D02*
G01*
X1436099Y-2450001D01*
X1450020Y-2463921D01*
X1433316Y-2480623D01*
G37*
G36*
X1550020Y-2436080D02*
G01*
X1566723Y-2419378D01*
X1580643Y-2433298D01*
X1563940Y-2450001D01*
G37*
G36*
X1519396Y-2466703D02*
G01*
X1536099Y-2450001D01*
X1550020Y-2463921D01*
X1533316Y-2480623D01*
G37*
G36*
X1650020Y-2436080D02*
G01*
X1666723Y-2419378D01*
X1680643Y-2433298D01*
X1663940Y-2450001D01*
G37*
G36*
X1619396Y-2466703D02*
G01*
X1636099Y-2450001D01*
X1650020Y-2463921D01*
X1633316Y-2480623D01*
G37*
G36*
X2050020Y-2536080D02*
G01*
X2066723Y-2519378D01*
X2080643Y-2533298D01*
X2063940Y-2550001D01*
G37*
G36*
X2019396Y-2566703D02*
G01*
X2036099Y-2550001D01*
X2050020Y-2563921D01*
X2033316Y-2580623D01*
G37*
G36*
X1950020Y-2536080D02*
G01*
X1966723Y-2519378D01*
X1980643Y-2533298D01*
X1963940Y-2550001D01*
G37*
G36*
X1919396Y-2566703D02*
G01*
X1936099Y-2550001D01*
X1950020Y-2563921D01*
X1933316Y-2580623D01*
G37*
G36*
X1850020Y-2536080D02*
G01*
X1866723Y-2519378D01*
X1880643Y-2533298D01*
X1863940Y-2550001D01*
G37*
G36*
X1819396Y-2566703D02*
G01*
X1836099Y-2550001D01*
X1850020Y-2563921D01*
X1833316Y-2580623D01*
G37*
G36*
X1750020Y-2536080D02*
G01*
X1766723Y-2519378D01*
X1780643Y-2533298D01*
X1763940Y-2550001D01*
G37*
G36*
X1719396Y-2566703D02*
G01*
X1736099Y-2550001D01*
X1750020Y-2563921D01*
X1733316Y-2580623D01*
G37*
G36*
X1350020Y-2536080D02*
G01*
X1366723Y-2519378D01*
X1380643Y-2533298D01*
X1363940Y-2550001D01*
G37*
G36*
X1319396Y-2566703D02*
G01*
X1336099Y-2550001D01*
X1350020Y-2563921D01*
X1333316Y-2580623D01*
G37*
G36*
X1450020Y-2536080D02*
G01*
X1466723Y-2519378D01*
X1480643Y-2533298D01*
X1463940Y-2550001D01*
G37*
G36*
X1419396Y-2566703D02*
G01*
X1436099Y-2550001D01*
X1450020Y-2563921D01*
X1433316Y-2580623D01*
G37*
G36*
X1550020Y-2536080D02*
G01*
X1566723Y-2519378D01*
X1580643Y-2533298D01*
X1563940Y-2550001D01*
G37*
G36*
X1519396Y-2566703D02*
G01*
X1536099Y-2550001D01*
X1550020Y-2563921D01*
X1533316Y-2580623D01*
G37*
G36*
X1650020Y-2536080D02*
G01*
X1666723Y-2519378D01*
X1680643Y-2533298D01*
X1663940Y-2550001D01*
G37*
G36*
X1619396Y-2566703D02*
G01*
X1636099Y-2550001D01*
X1650020Y-2563921D01*
X1633316Y-2580623D01*
G37*
G36*
X2050020Y-2636080D02*
G01*
X2066723Y-2619378D01*
X2080643Y-2633298D01*
X2063940Y-2650001D01*
G37*
G36*
X2019396Y-2666703D02*
G01*
X2036099Y-2650001D01*
X2050020Y-2663921D01*
X2033316Y-2680623D01*
G37*
G36*
X1950020Y-2636080D02*
G01*
X1966723Y-2619378D01*
X1980643Y-2633298D01*
X1963940Y-2650001D01*
G37*
G36*
X1919396Y-2666703D02*
G01*
X1936099Y-2650001D01*
X1950020Y-2663921D01*
X1933316Y-2680623D01*
G37*
G36*
X1850020Y-2636080D02*
G01*
X1866723Y-2619378D01*
X1880643Y-2633298D01*
X1863940Y-2650001D01*
G37*
G36*
X1819396Y-2666703D02*
G01*
X1836099Y-2650001D01*
X1850020Y-2663921D01*
X1833316Y-2680623D01*
G37*
G36*
X1750020Y-2636080D02*
G01*
X1766723Y-2619378D01*
X1780643Y-2633298D01*
X1763940Y-2650001D01*
G37*
G36*
X1719396Y-2666703D02*
G01*
X1736099Y-2650001D01*
X1750020Y-2663921D01*
X1733316Y-2680623D01*
G37*
G36*
X1350020Y-2636080D02*
G01*
X1366723Y-2619378D01*
X1380643Y-2633298D01*
X1363940Y-2650001D01*
G37*
G36*
X1319396Y-2666703D02*
G01*
X1336099Y-2650001D01*
X1350020Y-2663921D01*
X1333316Y-2680623D01*
G37*
G36*
X1450020Y-2636080D02*
G01*
X1466723Y-2619378D01*
X1480643Y-2633298D01*
X1463940Y-2650001D01*
G37*
G36*
X1419396Y-2666703D02*
G01*
X1436099Y-2650001D01*
X1450020Y-2663921D01*
X1433316Y-2680623D01*
G37*
G36*
X1550020Y-2636080D02*
G01*
X1566723Y-2619378D01*
X1580643Y-2633298D01*
X1563940Y-2650001D01*
G37*
G36*
X1519396Y-2666703D02*
G01*
X1536099Y-2650001D01*
X1550020Y-2663921D01*
X1533316Y-2680623D01*
G37*
G36*
X1650020Y-2636080D02*
G01*
X1666723Y-2619378D01*
X1680643Y-2633298D01*
X1663940Y-2650001D01*
G37*
G36*
X1619396Y-2666703D02*
G01*
X1636099Y-2650001D01*
X1650020Y-2663921D01*
X1633316Y-2680623D01*
G37*
G36*
X1650020Y-2736080D02*
G01*
X1666723Y-2719378D01*
X1680643Y-2733298D01*
X1663940Y-2750001D01*
G37*
G36*
X1619396Y-2766703D02*
G01*
X1636099Y-2750001D01*
X1650020Y-2763921D01*
X1633316Y-2780623D01*
G37*
G36*
X1550020Y-2736080D02*
G01*
X1566723Y-2719378D01*
X1580643Y-2733298D01*
X1563940Y-2750001D01*
G37*
G36*
X1519396Y-2766703D02*
G01*
X1536099Y-2750001D01*
X1550020Y-2763921D01*
X1533316Y-2780623D01*
G37*
G36*
X1450020Y-2736080D02*
G01*
X1466723Y-2719378D01*
X1480643Y-2733298D01*
X1463940Y-2750001D01*
G37*
G36*
X1419396Y-2766703D02*
G01*
X1436099Y-2750001D01*
X1450020Y-2763921D01*
X1433316Y-2780623D01*
G37*
G36*
X1350020Y-2736080D02*
G01*
X1366723Y-2719378D01*
X1380643Y-2733298D01*
X1363940Y-2750001D01*
G37*
G36*
X1319396Y-2766703D02*
G01*
X1336099Y-2750001D01*
X1350020Y-2763921D01*
X1333316Y-2780623D01*
G37*
G36*
X1750020Y-2736080D02*
G01*
X1766723Y-2719378D01*
X1780643Y-2733298D01*
X1763940Y-2750001D01*
G37*
G36*
X1719396Y-2766703D02*
G01*
X1736099Y-2750001D01*
X1750020Y-2763921D01*
X1733316Y-2780623D01*
G37*
G36*
X1850020Y-2736080D02*
G01*
X1866723Y-2719378D01*
X1880643Y-2733298D01*
X1863940Y-2750001D01*
G37*
G36*
X1819396Y-2766703D02*
G01*
X1836099Y-2750001D01*
X1850020Y-2763921D01*
X1833316Y-2780623D01*
G37*
G36*
X1950020Y-2736080D02*
G01*
X1966723Y-2719378D01*
X1980643Y-2733298D01*
X1963940Y-2750001D01*
G37*
G36*
X1919396Y-2766703D02*
G01*
X1936099Y-2750001D01*
X1950020Y-2763921D01*
X1933316Y-2780623D01*
G37*
G36*
X2050020Y-2736080D02*
G01*
X2066723Y-2719378D01*
X2080643Y-2733298D01*
X2063940Y-2750001D01*
G37*
G36*
X2019396Y-2766703D02*
G01*
X2036099Y-2750001D01*
X2050020Y-2763921D01*
X2033316Y-2780623D01*
G37*
G36*
X1250020Y-2736080D02*
G01*
X1266723Y-2719378D01*
X1280643Y-2733298D01*
X1263940Y-2750001D01*
G37*
G36*
X1219396Y-2766703D02*
G01*
X1236099Y-2750001D01*
X1250020Y-2763921D01*
X1233316Y-2780623D01*
G37*
G36*
X1150020Y-2736080D02*
G01*
X1166723Y-2719378D01*
X1180643Y-2733298D01*
X1163940Y-2750001D01*
G37*
G36*
X1119396Y-2766703D02*
G01*
X1136099Y-2750001D01*
X1150020Y-2763921D01*
X1133316Y-2780623D01*
G37*
G36*
X1050020Y-2736080D02*
G01*
X1066723Y-2719378D01*
X1080643Y-2733298D01*
X1063940Y-2750001D01*
G37*
G36*
X1019396Y-2766703D02*
G01*
X1036099Y-2750001D01*
X1050020Y-2763921D01*
X1033316Y-2780623D01*
G37*
G36*
X950020Y-2736080D02*
G01*
X966723Y-2719378D01*
X980643Y-2733298D01*
X963940Y-2750001D01*
G37*
G36*
X919396Y-2766703D02*
G01*
X936099Y-2750001D01*
X950020Y-2763921D01*
X933316Y-2780623D01*
G37*
G36*
X550019Y-2736080D02*
G01*
X566723Y-2719378D01*
X580643Y-2733298D01*
X563939Y-2750001D01*
G37*
G36*
X519396Y-2766703D02*
G01*
X536100Y-2750001D01*
X550019Y-2763921D01*
X533317Y-2780623D01*
G37*
G36*
X650019Y-2736080D02*
G01*
X666723Y-2719378D01*
X680643Y-2733298D01*
X663939Y-2750001D01*
G37*
G36*
X619396Y-2766703D02*
G01*
X636100Y-2750001D01*
X650019Y-2763921D01*
X633317Y-2780623D01*
G37*
G36*
X750019Y-2736080D02*
G01*
X766723Y-2719378D01*
X780643Y-2733298D01*
X763940Y-2750001D01*
G37*
G36*
X719396Y-2766703D02*
G01*
X736100Y-2750001D01*
X750019Y-2763921D01*
X733317Y-2780623D01*
G37*
G36*
X850020Y-2736080D02*
G01*
X866723Y-2719378D01*
X880643Y-2733298D01*
X863940Y-2750001D01*
G37*
G36*
X819396Y-2766703D02*
G01*
X836099Y-2750001D01*
X850020Y-2763921D01*
X833316Y-2780623D01*
G37*
G36*
X850020Y-2636080D02*
G01*
X866723Y-2619378D01*
X880643Y-2633298D01*
X863940Y-2650001D01*
G37*
G36*
X819396Y-2666703D02*
G01*
X836099Y-2650001D01*
X850020Y-2663921D01*
X833316Y-2680623D01*
G37*
G36*
X750019Y-2636080D02*
G01*
X766723Y-2619378D01*
X780643Y-2633298D01*
X763940Y-2650001D01*
G37*
G36*
X719396Y-2666703D02*
G01*
X736100Y-2650001D01*
X750019Y-2663921D01*
X733317Y-2680623D01*
G37*
G36*
X650019Y-2636080D02*
G01*
X666723Y-2619378D01*
X680643Y-2633298D01*
X663939Y-2650001D01*
G37*
G36*
X619396Y-2666703D02*
G01*
X636100Y-2650001D01*
X650019Y-2663921D01*
X633317Y-2680623D01*
G37*
G36*
X550019Y-2636080D02*
G01*
X566723Y-2619378D01*
X580643Y-2633298D01*
X563939Y-2650001D01*
G37*
G36*
X519396Y-2666703D02*
G01*
X536100Y-2650001D01*
X550019Y-2663921D01*
X533317Y-2680623D01*
G37*
G36*
X950020Y-2636080D02*
G01*
X966723Y-2619378D01*
X980643Y-2633298D01*
X963940Y-2650001D01*
G37*
G36*
X919396Y-2666703D02*
G01*
X936099Y-2650001D01*
X950020Y-2663921D01*
X933316Y-2680623D01*
G37*
G36*
X1050020Y-2636080D02*
G01*
X1066723Y-2619378D01*
X1080643Y-2633298D01*
X1063940Y-2650001D01*
G37*
G36*
X1019396Y-2666703D02*
G01*
X1036099Y-2650001D01*
X1050020Y-2663921D01*
X1033316Y-2680623D01*
G37*
G36*
X1150020Y-2636080D02*
G01*
X1166723Y-2619378D01*
X1180643Y-2633298D01*
X1163940Y-2650001D01*
G37*
G36*
X1119396Y-2666703D02*
G01*
X1136099Y-2650001D01*
X1150020Y-2663921D01*
X1133316Y-2680623D01*
G37*
G36*
X1250020Y-2636080D02*
G01*
X1266723Y-2619378D01*
X1280643Y-2633298D01*
X1263940Y-2650001D01*
G37*
G36*
X1219396Y-2666703D02*
G01*
X1236099Y-2650001D01*
X1250020Y-2663921D01*
X1233316Y-2680623D01*
G37*
G36*
X850020Y-2536080D02*
G01*
X866723Y-2519378D01*
X880643Y-2533298D01*
X863940Y-2550001D01*
G37*
G36*
X819396Y-2566703D02*
G01*
X836099Y-2550001D01*
X850020Y-2563921D01*
X833316Y-2580623D01*
G37*
G36*
X750019Y-2536080D02*
G01*
X766723Y-2519378D01*
X780643Y-2533298D01*
X763940Y-2550001D01*
G37*
G36*
X719396Y-2566703D02*
G01*
X736100Y-2550001D01*
X750019Y-2563921D01*
X733317Y-2580623D01*
G37*
G36*
X650019Y-2536080D02*
G01*
X666723Y-2519378D01*
X680643Y-2533298D01*
X663939Y-2550001D01*
G37*
G36*
X619396Y-2566703D02*
G01*
X636100Y-2550001D01*
X650019Y-2563921D01*
X633317Y-2580623D01*
G37*
G36*
X550019Y-2536080D02*
G01*
X566723Y-2519378D01*
X580643Y-2533298D01*
X563939Y-2550001D01*
G37*
G36*
X519396Y-2566703D02*
G01*
X536100Y-2550001D01*
X550019Y-2563921D01*
X533317Y-2580623D01*
G37*
G36*
X950020Y-2536080D02*
G01*
X966723Y-2519378D01*
X980643Y-2533298D01*
X963940Y-2550001D01*
G37*
G36*
X919396Y-2566703D02*
G01*
X936099Y-2550001D01*
X950020Y-2563921D01*
X933316Y-2580623D01*
G37*
G36*
X1050020Y-2536080D02*
G01*
X1066723Y-2519378D01*
X1080643Y-2533298D01*
X1063940Y-2550001D01*
G37*
G36*
X1019396Y-2566703D02*
G01*
X1036099Y-2550001D01*
X1050020Y-2563921D01*
X1033316Y-2580623D01*
G37*
G36*
X1150020Y-2536080D02*
G01*
X1166723Y-2519378D01*
X1180643Y-2533298D01*
X1163940Y-2550001D01*
G37*
G36*
X1119396Y-2566703D02*
G01*
X1136099Y-2550001D01*
X1150020Y-2563921D01*
X1133316Y-2580623D01*
G37*
G36*
X1250020Y-2536080D02*
G01*
X1266723Y-2519378D01*
X1280643Y-2533298D01*
X1263940Y-2550001D01*
G37*
G36*
X1219396Y-2566703D02*
G01*
X1236099Y-2550001D01*
X1250020Y-2563921D01*
X1233316Y-2580623D01*
G37*
G36*
X850020Y-2436080D02*
G01*
X866723Y-2419378D01*
X880643Y-2433298D01*
X863940Y-2450001D01*
G37*
G36*
X819396Y-2466703D02*
G01*
X836099Y-2450001D01*
X850020Y-2463921D01*
X833316Y-2480623D01*
G37*
G36*
X750019Y-2436080D02*
G01*
X766723Y-2419378D01*
X780643Y-2433298D01*
X763940Y-2450001D01*
G37*
G36*
X719396Y-2466703D02*
G01*
X736100Y-2450001D01*
X750019Y-2463921D01*
X733317Y-2480623D01*
G37*
G36*
X650019Y-2436080D02*
G01*
X666723Y-2419378D01*
X680643Y-2433298D01*
X663939Y-2450001D01*
G37*
G36*
X619396Y-2466703D02*
G01*
X636100Y-2450001D01*
X650019Y-2463921D01*
X633317Y-2480623D01*
G37*
G36*
X550019Y-2436080D02*
G01*
X566723Y-2419378D01*
X580643Y-2433298D01*
X563939Y-2450001D01*
G37*
G36*
X519396Y-2466703D02*
G01*
X536100Y-2450001D01*
X550019Y-2463921D01*
X533317Y-2480623D01*
G37*
G36*
X950020Y-2436080D02*
G01*
X966723Y-2419378D01*
X980643Y-2433298D01*
X963940Y-2450001D01*
G37*
G36*
X919396Y-2466703D02*
G01*
X936099Y-2450001D01*
X950020Y-2463921D01*
X933316Y-2480623D01*
G37*
G36*
X1050020Y-2436080D02*
G01*
X1066723Y-2419378D01*
X1080643Y-2433298D01*
X1063940Y-2450001D01*
G37*
G36*
X1019396Y-2466703D02*
G01*
X1036099Y-2450001D01*
X1050020Y-2463921D01*
X1033316Y-2480623D01*
G37*
G36*
X1150020Y-2436080D02*
G01*
X1166723Y-2419378D01*
X1180643Y-2433298D01*
X1163940Y-2450001D01*
G37*
G36*
X1119396Y-2466703D02*
G01*
X1136099Y-2450001D01*
X1150020Y-2463921D01*
X1133316Y-2480623D01*
G37*
G36*
X1250020Y-2436080D02*
G01*
X1266723Y-2419378D01*
X1280643Y-2433298D01*
X1263940Y-2450001D01*
G37*
G36*
X1219396Y-2466703D02*
G01*
X1236099Y-2450001D01*
X1250020Y-2463921D01*
X1233316Y-2480623D01*
G37*
G36*
X1250020Y-2836080D02*
G01*
X1266723Y-2819378D01*
X1280643Y-2833298D01*
X1263940Y-2850001D01*
G37*
G36*
X1219396Y-2866703D02*
G01*
X1236099Y-2850001D01*
X1250020Y-2863921D01*
X1233316Y-2880623D01*
G37*
G36*
X1150020Y-2836080D02*
G01*
X1166723Y-2819378D01*
X1180643Y-2833298D01*
X1163940Y-2850001D01*
G37*
G36*
X1119396Y-2866703D02*
G01*
X1136099Y-2850001D01*
X1150020Y-2863921D01*
X1133316Y-2880623D01*
G37*
G36*
X1050020Y-2836080D02*
G01*
X1066723Y-2819378D01*
X1080643Y-2833298D01*
X1063940Y-2850001D01*
G37*
G36*
X1019396Y-2866703D02*
G01*
X1036099Y-2850001D01*
X1050020Y-2863921D01*
X1033316Y-2880623D01*
G37*
G36*
X950020Y-2836080D02*
G01*
X966723Y-2819378D01*
X980643Y-2833298D01*
X963940Y-2850001D01*
G37*
G36*
X919396Y-2866703D02*
G01*
X936099Y-2850001D01*
X950020Y-2863921D01*
X933316Y-2880623D01*
G37*
G36*
X550019Y-2836080D02*
G01*
X566723Y-2819378D01*
X580643Y-2833298D01*
X563939Y-2850001D01*
G37*
G36*
X519396Y-2866703D02*
G01*
X536100Y-2850001D01*
X550019Y-2863921D01*
X533317Y-2880623D01*
G37*
G36*
X650019Y-2836080D02*
G01*
X666723Y-2819378D01*
X680643Y-2833298D01*
X663939Y-2850001D01*
G37*
G36*
X619396Y-2866703D02*
G01*
X636100Y-2850001D01*
X650019Y-2863921D01*
X633317Y-2880623D01*
G37*
G36*
X750019Y-2836080D02*
G01*
X766723Y-2819378D01*
X780643Y-2833298D01*
X763940Y-2850001D01*
G37*
G36*
X719396Y-2866703D02*
G01*
X736100Y-2850001D01*
X750019Y-2863921D01*
X733317Y-2880623D01*
G37*
G36*
X850020Y-2836080D02*
G01*
X866723Y-2819378D01*
X880643Y-2833298D01*
X863940Y-2850001D01*
G37*
G36*
X819396Y-2866703D02*
G01*
X836099Y-2850001D01*
X850020Y-2863921D01*
X833316Y-2880623D01*
G37*
G36*
X1250020Y-2936080D02*
G01*
X1266723Y-2919378D01*
X1280643Y-2933298D01*
X1263940Y-2950001D01*
G37*
G36*
X1219396Y-2966703D02*
G01*
X1236099Y-2950001D01*
X1250020Y-2963921D01*
X1233316Y-2980623D01*
G37*
G36*
X1150020Y-2936080D02*
G01*
X1166723Y-2919378D01*
X1180643Y-2933298D01*
X1163940Y-2950001D01*
G37*
G36*
X1119396Y-2966703D02*
G01*
X1136099Y-2950001D01*
X1150020Y-2963921D01*
X1133316Y-2980623D01*
G37*
G36*
X1050020Y-2936080D02*
G01*
X1066723Y-2919378D01*
X1080643Y-2933298D01*
X1063940Y-2950001D01*
G37*
G36*
X1019396Y-2966703D02*
G01*
X1036099Y-2950001D01*
X1050020Y-2963921D01*
X1033316Y-2980623D01*
G37*
G36*
X950020Y-2936080D02*
G01*
X966723Y-2919378D01*
X980643Y-2933298D01*
X963940Y-2950001D01*
G37*
G36*
X919396Y-2966703D02*
G01*
X936099Y-2950001D01*
X950020Y-2963921D01*
X933316Y-2980623D01*
G37*
G36*
X550019Y-2936080D02*
G01*
X566723Y-2919378D01*
X580643Y-2933298D01*
X563939Y-2950001D01*
G37*
G36*
X519396Y-2966703D02*
G01*
X536100Y-2950001D01*
X550019Y-2963921D01*
X533317Y-2980623D01*
G37*
G36*
X650019Y-2936080D02*
G01*
X666723Y-2919378D01*
X680643Y-2933298D01*
X663939Y-2950001D01*
G37*
G36*
X619396Y-2966703D02*
G01*
X636100Y-2950001D01*
X650019Y-2963921D01*
X633317Y-2980623D01*
G37*
G36*
X750019Y-2936080D02*
G01*
X766723Y-2919378D01*
X780643Y-2933298D01*
X763940Y-2950001D01*
G37*
G36*
X719396Y-2966703D02*
G01*
X736100Y-2950001D01*
X750019Y-2963921D01*
X733317Y-2980623D01*
G37*
G36*
X850020Y-2936080D02*
G01*
X866723Y-2919378D01*
X880643Y-2933298D01*
X863940Y-2950001D01*
G37*
G36*
X819396Y-2966703D02*
G01*
X836099Y-2950001D01*
X850020Y-2963921D01*
X833316Y-2980623D01*
G37*
G36*
X1250020Y-3036080D02*
G01*
X1266723Y-3019378D01*
X1280643Y-3033298D01*
X1263940Y-3050001D01*
G37*
G36*
X1219396Y-3066703D02*
G01*
X1236099Y-3050001D01*
X1250020Y-3063921D01*
X1233316Y-3080623D01*
G37*
G36*
X1150020Y-3036080D02*
G01*
X1166723Y-3019378D01*
X1180643Y-3033298D01*
X1163940Y-3050001D01*
G37*
G36*
X1119396Y-3066703D02*
G01*
X1136099Y-3050001D01*
X1150020Y-3063921D01*
X1133316Y-3080623D01*
G37*
G36*
X1050020Y-3036080D02*
G01*
X1066723Y-3019378D01*
X1080643Y-3033298D01*
X1063940Y-3050001D01*
G37*
G36*
X1019396Y-3066703D02*
G01*
X1036099Y-3050001D01*
X1050020Y-3063921D01*
X1033316Y-3080623D01*
G37*
G36*
X950020Y-3036080D02*
G01*
X966723Y-3019378D01*
X980643Y-3033298D01*
X963940Y-3050001D01*
G37*
G36*
X919396Y-3066703D02*
G01*
X936099Y-3050001D01*
X950020Y-3063921D01*
X933316Y-3080623D01*
G37*
G36*
X550019Y-3036080D02*
G01*
X566723Y-3019378D01*
X580643Y-3033298D01*
X563939Y-3050001D01*
G37*
G36*
X519396Y-3066703D02*
G01*
X536100Y-3050001D01*
X550019Y-3063921D01*
X533317Y-3080623D01*
G37*
G36*
X650019Y-3036080D02*
G01*
X666723Y-3019378D01*
X680643Y-3033298D01*
X663939Y-3050001D01*
G37*
G36*
X619396Y-3066703D02*
G01*
X636100Y-3050001D01*
X650019Y-3063921D01*
X633317Y-3080623D01*
G37*
G36*
X750019Y-3036080D02*
G01*
X766723Y-3019378D01*
X780643Y-3033298D01*
X763940Y-3050001D01*
G37*
G36*
X719396Y-3066703D02*
G01*
X736100Y-3050001D01*
X750019Y-3063921D01*
X733317Y-3080623D01*
G37*
G36*
X850020Y-3036080D02*
G01*
X866723Y-3019378D01*
X880643Y-3033298D01*
X863940Y-3050001D01*
G37*
G36*
X819396Y-3066703D02*
G01*
X836099Y-3050001D01*
X850020Y-3063921D01*
X833316Y-3080623D01*
G37*
G36*
X850020Y-3136080D02*
G01*
X866723Y-3119378D01*
X880643Y-3133298D01*
X863940Y-3150001D01*
G37*
G36*
X819396Y-3166703D02*
G01*
X836099Y-3150001D01*
X850020Y-3163921D01*
X833316Y-3180623D01*
G37*
G36*
X750019Y-3136080D02*
G01*
X766723Y-3119378D01*
X780643Y-3133298D01*
X763940Y-3150001D01*
G37*
G36*
X719396Y-3166703D02*
G01*
X736100Y-3150001D01*
X750019Y-3163921D01*
X733317Y-3180623D01*
G37*
G36*
X650019Y-3136080D02*
G01*
X666723Y-3119378D01*
X680643Y-3133298D01*
X663939Y-3150001D01*
G37*
G36*
X619396Y-3166703D02*
G01*
X636100Y-3150001D01*
X650019Y-3163921D01*
X633317Y-3180623D01*
G37*
G36*
X550019Y-3136080D02*
G01*
X566723Y-3119378D01*
X580643Y-3133298D01*
X563939Y-3150001D01*
G37*
G36*
X519396Y-3166703D02*
G01*
X536100Y-3150001D01*
X550019Y-3163921D01*
X533317Y-3180623D01*
G37*
G36*
X950020Y-3136080D02*
G01*
X966723Y-3119378D01*
X980643Y-3133298D01*
X963940Y-3150001D01*
G37*
G36*
X919396Y-3166703D02*
G01*
X936099Y-3150001D01*
X950020Y-3163921D01*
X933316Y-3180623D01*
G37*
G36*
X1050020Y-3136080D02*
G01*
X1066723Y-3119378D01*
X1080643Y-3133298D01*
X1063940Y-3150001D01*
G37*
G36*
X1019396Y-3166703D02*
G01*
X1036099Y-3150001D01*
X1050020Y-3163921D01*
X1033316Y-3180623D01*
G37*
G36*
X1150020Y-3136080D02*
G01*
X1166723Y-3119378D01*
X1180643Y-3133298D01*
X1163940Y-3150001D01*
G37*
G36*
X1119396Y-3166703D02*
G01*
X1136099Y-3150001D01*
X1150020Y-3163921D01*
X1133316Y-3180623D01*
G37*
G36*
X1250020Y-3136080D02*
G01*
X1266723Y-3119378D01*
X1280643Y-3133298D01*
X1263940Y-3150001D01*
G37*
G36*
X1219396Y-3166703D02*
G01*
X1236099Y-3150001D01*
X1250020Y-3163921D01*
X1233316Y-3180623D01*
G37*
D34*
G01*
X1133350Y-515000D03*
G01*
X1176649Y-515000D03*
G01*
X838350Y-1430000D03*
G01*
X881649Y-1430000D03*
G36*
X2209800Y85734D02*
G01*
X2229485Y85734D01*
X2229485Y54238D01*
X2209800Y54238D01*
G37*
G36*
X2170430Y85734D02*
G01*
X2190115Y85734D01*
X2190115Y54238D01*
X2170430Y54238D01*
G37*
G36*
X1859800Y85734D02*
G01*
X1879485Y85734D01*
X1879485Y54238D01*
X1859800Y54238D01*
G37*
G36*
X1820430Y85734D02*
G01*
X1840115Y85734D01*
X1840115Y54238D01*
X1820430Y54238D01*
G37*
G36*
X1509800Y85734D02*
G01*
X1529485Y85734D01*
X1529485Y54238D01*
X1509800Y54238D01*
G37*
G36*
X1470430Y85734D02*
G01*
X1490115Y85734D01*
X1490115Y54238D01*
X1470430Y54238D01*
G37*
G36*
X589843Y970747D02*
G01*
X609528Y970747D01*
X609528Y939252D01*
X589843Y939252D01*
G37*
G36*
X550473Y970747D02*
G01*
X570158Y970747D01*
X570158Y939252D01*
X550473Y939252D01*
G37*
G36*
X1509900Y-814265D02*
G01*
X1529585Y-814265D01*
X1529585Y-845761D01*
X1509900Y-845761D01*
G37*
G36*
X1470531Y-814265D02*
G01*
X1490216Y-814265D01*
X1490216Y-845761D01*
X1470531Y-845761D01*
G37*
G36*
X1859900Y-814265D02*
G01*
X1879585Y-814265D01*
X1879585Y-845761D01*
X1859900Y-845761D01*
G37*
G36*
X1820531Y-814265D02*
G01*
X1840216Y-814265D01*
X1840216Y-845761D01*
X1820531Y-845761D01*
G37*
G36*
X2209901Y-814265D02*
G01*
X2229585Y-814265D01*
X2229585Y-845761D01*
X2209901Y-845761D01*
G37*
G36*
X2170531Y-814265D02*
G01*
X2190216Y-814265D01*
X2190216Y-845761D01*
X2170531Y-845761D01*
G37*
D22*
G01*
X400000Y-4059569D03*
G01*
X400000Y-4020200D03*
G01*
X400000Y-3779569D03*
G01*
X400000Y-3740200D03*
G01*
X2405020Y-1880309D03*
G01*
X2405020Y-1919679D03*
G01*
X2400020Y-1480309D03*
G01*
X2400020Y-1519679D03*
D24*
G01*
X460309Y310000D03*
G01*
X499679Y310000D03*
G36*
X1656904Y-3524175D02*
G01*
X1642984Y-3510255D01*
X1665255Y-3487984D01*
X1679174Y-3501903D01*
G37*
G36*
X1684742Y-3552013D02*
G01*
X1670824Y-3538095D01*
X1693095Y-3515823D01*
X1707013Y-3529742D01*
G37*
G36*
X1679174Y-4308096D02*
G01*
X1665255Y-4322015D01*
X1642984Y-4299744D01*
X1656904Y-4285825D01*
G37*
G36*
X1707013Y-4280257D02*
G01*
X1693095Y-4294176D01*
X1670824Y-4271904D01*
X1684742Y-4257986D01*
G37*
G01*
X1280309Y-3710000D03*
G01*
X1319679Y-3710000D03*
G36*
X914174Y-3533096D02*
G01*
X900255Y-3547015D01*
X877984Y-3524744D01*
X891904Y-3510825D01*
G37*
G36*
X942013Y-3505257D02*
G01*
X928095Y-3519176D01*
X905824Y-3496904D01*
X919742Y-3482986D01*
G37*
G36*
X1354843Y-4074252D02*
G01*
X1374528Y-4074252D01*
X1374528Y-4105747D01*
X1354843Y-4105747D01*
G37*
G36*
X1315473Y-4074252D02*
G01*
X1335158Y-4074252D01*
X1335158Y-4105747D01*
X1315473Y-4105747D01*
G37*
G01*
X1710309Y-4035000D03*
G01*
X1749679Y-4035000D03*
G36*
X938095Y-4265825D02*
G01*
X952015Y-4279744D01*
X929744Y-4302015D01*
X915825Y-4288096D01*
G37*
G36*
X910257Y-4237986D02*
G01*
X924175Y-4251904D01*
X901904Y-4274176D01*
X887986Y-4260257D01*
G37*
D22*
G01*
X760000Y-3914690D03*
G01*
X760000Y-3875320D03*
D37*
G01*
X2410000Y-638350D03*
G01*
X2410000Y-681649D03*
G36*
X1269843Y-4074252D02*
G01*
X1289528Y-4074252D01*
X1289528Y-4105747D01*
X1269843Y-4105747D01*
G37*
G36*
X1230473Y-4074252D02*
G01*
X1250158Y-4074252D01*
X1250158Y-4105747D01*
X1230473Y-4105747D01*
G37*
D22*
G01*
X590000Y204690D03*
G01*
X590000Y165320D03*
D24*
G01*
X2365309Y-560000D03*
G01*
X2404679Y-560000D03*
G36*
X941692Y372716D02*
G01*
X973189Y372716D01*
X973189Y337283D01*
X941692Y337283D01*
G37*
G36*
X996810Y372716D02*
G01*
X1028307Y372716D01*
X1028307Y337283D01*
X996810Y337283D01*
G37*
G36*
X956728Y1252716D02*
G01*
X988224Y1252716D01*
X988224Y1217283D01*
X956728Y1217283D01*
G37*
G36*
X1011845Y1252716D02*
G01*
X1043342Y1252716D01*
X1043342Y1217283D01*
X1011845Y1217283D01*
G37*
G36*
X481727Y-827283D02*
G01*
X513224Y-827283D01*
X513224Y-862716D01*
X481727Y-862716D01*
G37*
G36*
X536846Y-827283D02*
G01*
X568341Y-827283D01*
X568341Y-862716D01*
X536846Y-862716D01*
G37*
G36*
X946728Y-497283D02*
G01*
X978224Y-497283D01*
X978224Y-532716D01*
X946728Y-532716D01*
G37*
G36*
X1001845Y-497283D02*
G01*
X1033342Y-497283D01*
X1033342Y-532716D01*
X1001845Y-532716D01*
G37*
G36*
X1256702Y-3762283D02*
G01*
X1288199Y-3762283D01*
X1288199Y-3797716D01*
X1256702Y-3797716D01*
G37*
G36*
X1311821Y-3762283D02*
G01*
X1343316Y-3762283D01*
X1343316Y-3797716D01*
X1311821Y-3797716D01*
G37*
D39*
G01*
X725000Y-1852559D03*
G01*
X725000Y-1797440D03*
G36*
X706693Y-1407283D02*
G01*
X738189Y-1407283D01*
X738189Y-1442716D01*
X706693Y-1442716D01*
G37*
G36*
X761810Y-1407283D02*
G01*
X793307Y-1407283D01*
X793307Y-1442716D01*
X761810Y-1442716D01*
G37*
G36*
X206712Y-2432283D02*
G01*
X238209Y-2432283D01*
X238209Y-2467718D01*
X206712Y-2467718D01*
G37*
G36*
X261831Y-2432283D02*
G01*
X293327Y-2432283D01*
X293327Y-2467718D01*
X261831Y-2467718D01*
G37*
D38*
G01*
X2462579Y-3150000D03*
G01*
X2407460Y-3150000D03*
G36*
X206712Y-2362283D02*
G01*
X238209Y-2362283D01*
X238209Y-2397718D01*
X206712Y-2397718D01*
G37*
G36*
X261831Y-2362283D02*
G01*
X293327Y-2362283D01*
X293327Y-2397718D01*
X261831Y-2397718D01*
G37*
G01*
X2462579Y-3220000D03*
G01*
X2407460Y-3220000D03*
M02*
