G04 Layer: TopSolderMaskLayer*
G04 EasyEDA v6.4.17, 2021-03-02T21:30:00+01:00*
G04 52dc7113b7e944b1bde967162dfd0e84,9c416354eb984020824aaf9c885bead6,10*
G04 Gerber Generator version 0.2*
G04 Scale: 100 percent, Rotated: No, Reflected: No *
G04 Dimensions in inches *
G04 leading zeros omitted , absolute positions ,3 integer and 6 decimal *
%FSLAX36Y36*%
%MOIN*%

%ADD60C,0.0336*%
%ADD61C,0.0316*%
%ADD62C,0.0592*%
%ADD63C,0.0671*%
%ADD74C,0.0700*%
%ADD75C,0.0680*%
%ADD90C,0.0552*%
%ADD91R,0.0710X0.0710*%
%ADD92C,0.0710*%

%LPD*%
D60*
X1125001Y990000D02*
G01*
X1166338Y990000D01*
X1125001Y1040000D02*
G01*
X1166338Y1040000D01*
X1125001Y1090000D02*
G01*
X1166338Y1090000D01*
X1125001Y1140000D02*
G01*
X1166338Y1140000D01*
X833661Y990000D02*
G01*
X874998Y990000D01*
X833661Y1040000D02*
G01*
X874998Y1040000D01*
X833661Y1090000D02*
G01*
X874998Y1090000D01*
X833661Y1140000D02*
G01*
X874998Y1140000D01*
X1110001Y90000D02*
G01*
X1151338Y90000D01*
X1110001Y140000D02*
G01*
X1151338Y140000D01*
X1110001Y190000D02*
G01*
X1151338Y190000D01*
X1110001Y240000D02*
G01*
X1151338Y240000D01*
X818661Y90000D02*
G01*
X859998Y90000D01*
X818661Y140000D02*
G01*
X859998Y140000D01*
X818661Y190000D02*
G01*
X859998Y190000D01*
X818661Y240000D02*
G01*
X859998Y240000D01*
D61*
X2137401Y-3975000D02*
G01*
X2192519Y-3975000D01*
X2137401Y-3925000D02*
G01*
X2192519Y-3925000D01*
X2137401Y-3875000D02*
G01*
X2192519Y-3875000D01*
X2137401Y-3825000D02*
G01*
X2192519Y-3825000D01*
X2137401Y-3775000D02*
G01*
X2192519Y-3775000D01*
X2137401Y-3725000D02*
G01*
X2192519Y-3725000D01*
X2137401Y-3675000D02*
G01*
X2192519Y-3675000D01*
X2137401Y-3625000D02*
G01*
X2192519Y-3625000D01*
X2137401Y-3575000D02*
G01*
X2192519Y-3575000D01*
X2137401Y-3525000D02*
G01*
X2192519Y-3525000D01*
X2137401Y-3475000D02*
G01*
X2192519Y-3475000D01*
X2137401Y-3425000D02*
G01*
X2192519Y-3425000D01*
X2507480Y-3425000D02*
G01*
X2562599Y-3425000D01*
X2507480Y-3475000D02*
G01*
X2562599Y-3475000D01*
X2507480Y-3525000D02*
G01*
X2562599Y-3525000D01*
X2507480Y-3575000D02*
G01*
X2562599Y-3575000D01*
X2507480Y-3625000D02*
G01*
X2562599Y-3625000D01*
X2507480Y-3675000D02*
G01*
X2562599Y-3675000D01*
X2507480Y-3725000D02*
G01*
X2562599Y-3725000D01*
X2507480Y-3775000D02*
G01*
X2562599Y-3775000D01*
X2507480Y-3825000D02*
G01*
X2562599Y-3825000D01*
X2507480Y-3875000D02*
G01*
X2562599Y-3875000D01*
X2507480Y-3925000D02*
G01*
X2562599Y-3925000D01*
X2507480Y-3975000D02*
G01*
X2562599Y-3975000D01*
X462599Y-3425000D02*
G01*
X407480Y-3425000D01*
X462599Y-3475000D02*
G01*
X407480Y-3475000D01*
X462599Y-3525000D02*
G01*
X407480Y-3525000D01*
X462599Y-3575000D02*
G01*
X407480Y-3575000D01*
X462599Y-3625000D02*
G01*
X407480Y-3625000D01*
X462599Y-3675000D02*
G01*
X407480Y-3675000D01*
X462599Y-3725000D02*
G01*
X407480Y-3725000D01*
X462599Y-3775000D02*
G01*
X407480Y-3775000D01*
X462599Y-3825000D02*
G01*
X407480Y-3825000D01*
X462599Y-3875000D02*
G01*
X407480Y-3875000D01*
X462599Y-3925000D02*
G01*
X407480Y-3925000D01*
X462599Y-3975000D02*
G01*
X407480Y-3975000D01*
X92519Y-3975000D02*
G01*
X37400Y-3975000D01*
X92519Y-3925000D02*
G01*
X37400Y-3925000D01*
X92519Y-3875000D02*
G01*
X37400Y-3875000D01*
X92519Y-3825000D02*
G01*
X37400Y-3825000D01*
X92519Y-3775000D02*
G01*
X37400Y-3775000D01*
X92519Y-3725000D02*
G01*
X37400Y-3725000D01*
X92519Y-3675000D02*
G01*
X37400Y-3675000D01*
X92519Y-3625000D02*
G01*
X37400Y-3625000D01*
X92519Y-3575000D02*
G01*
X37400Y-3575000D01*
X92519Y-3525000D02*
G01*
X37400Y-3525000D01*
X92519Y-3475000D02*
G01*
X37400Y-3475000D01*
X92519Y-3425000D02*
G01*
X37400Y-3425000D01*
X610241Y-2725000D02*
G01*
X574020Y-2725000D01*
X610241Y-2775000D02*
G01*
X574020Y-2775000D01*
X610241Y-2825000D02*
G01*
X574020Y-2825000D01*
X610241Y-2875000D02*
G01*
X574020Y-2875000D01*
X825981Y-2725000D02*
G01*
X789759Y-2725000D01*
X825981Y-2775000D02*
G01*
X789759Y-2775000D01*
X825981Y-2825000D02*
G01*
X789759Y-2825000D01*
X825981Y-2875000D02*
G01*
X789759Y-2875000D01*
D60*
X1115001Y-755000D02*
G01*
X1156338Y-755000D01*
X1115001Y-705000D02*
G01*
X1156338Y-705000D01*
X1115001Y-655000D02*
G01*
X1156338Y-655000D01*
X1115001Y-605000D02*
G01*
X1156338Y-605000D01*
X823661Y-755000D02*
G01*
X864998Y-755000D01*
X823661Y-705000D02*
G01*
X864998Y-705000D01*
X823661Y-655000D02*
G01*
X864998Y-655000D01*
X823661Y-605000D02*
G01*
X864998Y-605000D01*
X1230001Y-1660000D02*
G01*
X1271338Y-1660000D01*
X1230001Y-1610000D02*
G01*
X1271338Y-1610000D01*
X1230001Y-1560000D02*
G01*
X1271338Y-1560000D01*
X1230001Y-1510000D02*
G01*
X1271338Y-1510000D01*
X938661Y-1660000D02*
G01*
X979998Y-1660000D01*
X938661Y-1610000D02*
G01*
X979998Y-1610000D01*
X938661Y-1560000D02*
G01*
X979998Y-1560000D01*
X938661Y-1510000D02*
G01*
X979998Y-1510000D01*
X1425001Y-4875000D02*
G01*
X1466338Y-4875000D01*
X1425001Y-4825000D02*
G01*
X1466338Y-4825000D01*
X1425001Y-4775000D02*
G01*
X1466338Y-4775000D01*
X1425001Y-4725000D02*
G01*
X1466338Y-4725000D01*
X1133661Y-4875000D02*
G01*
X1174998Y-4875000D01*
X1133661Y-4825000D02*
G01*
X1174998Y-4825000D01*
X1133661Y-4775000D02*
G01*
X1174998Y-4775000D01*
X1133661Y-4725000D02*
G01*
X1174998Y-4725000D01*
X825001Y-2475000D02*
G01*
X866338Y-2475000D01*
X825001Y-2425000D02*
G01*
X866338Y-2425000D01*
X825001Y-2375000D02*
G01*
X866338Y-2375000D01*
X825001Y-2325000D02*
G01*
X866338Y-2325000D01*
X533661Y-2475000D02*
G01*
X574998Y-2475000D01*
X533661Y-2425000D02*
G01*
X574998Y-2425000D01*
X533661Y-2375000D02*
G01*
X574998Y-2375000D01*
X533661Y-2325000D02*
G01*
X574998Y-2325000D01*
D62*
X105407Y957500D02*
G01*
X69974Y957500D01*
X105407Y1242500D02*
G01*
X69974Y1242500D01*
X105407Y-842500D02*
G01*
X69974Y-842500D01*
X105407Y-557500D02*
G01*
X69974Y-557500D01*
X105407Y-1742500D02*
G01*
X69974Y-1742500D01*
X105407Y-1457500D02*
G01*
X69974Y-1457500D01*
X105407Y-4942500D02*
G01*
X69974Y-4942500D01*
X105407Y-4657500D02*
G01*
X69974Y-4657500D01*
X105407Y-2742500D02*
G01*
X69974Y-2742500D01*
X105407Y-2457500D02*
G01*
X69974Y-2457500D01*
D63*
X174092Y424400D02*
G01*
X75668Y424400D01*
X174092Y-24409D02*
G01*
X75668Y-24409D01*
G36*
X655799Y205300D02*
G01*
X655799Y244699D01*
X683499Y244699D01*
X683499Y205300D01*
G37*
G36*
X616500Y205300D02*
G01*
X616500Y244699D01*
X644200Y244699D01*
X644200Y205300D01*
G37*
G36*
X655900Y150199D02*
G01*
X655900Y189699D01*
X683600Y189699D01*
X683600Y150199D01*
G37*
G36*
X616500Y150199D02*
G01*
X616500Y189699D01*
X644200Y189699D01*
X644200Y150199D01*
G37*
G36*
X1240799Y220300D02*
G01*
X1240799Y259699D01*
X1268500Y259699D01*
X1268500Y220300D01*
G37*
G36*
X1201499Y220300D02*
G01*
X1201499Y259699D01*
X1229200Y259699D01*
X1229200Y220300D01*
G37*
G36*
X1240900Y165199D02*
G01*
X1240900Y204699D01*
X1268599Y204699D01*
X1268599Y165199D01*
G37*
G36*
X1201499Y165199D02*
G01*
X1201499Y204699D01*
X1229200Y204699D01*
X1229200Y165199D01*
G37*
G36*
X1240799Y110300D02*
G01*
X1240799Y149699D01*
X1268500Y149699D01*
X1268500Y110300D01*
G37*
G36*
X1201499Y110300D02*
G01*
X1201499Y149699D01*
X1229200Y149699D01*
X1229200Y110300D01*
G37*
G36*
X390300Y961500D02*
G01*
X390300Y989099D01*
X429800Y989099D01*
X429800Y961500D01*
G37*
G36*
X390300Y1000799D02*
G01*
X390300Y1028499D01*
X429800Y1028499D01*
X429800Y1000799D01*
G37*
G36*
X1245799Y1125300D02*
G01*
X1245799Y1164699D01*
X1273500Y1164699D01*
X1273500Y1125300D01*
G37*
G36*
X1206499Y1125300D02*
G01*
X1206499Y1164699D01*
X1234200Y1164699D01*
X1234200Y1125300D01*
G37*
G36*
X1245900Y1070199D02*
G01*
X1245900Y1109699D01*
X1273599Y1109699D01*
X1273599Y1070199D01*
G37*
G36*
X1206499Y1070199D02*
G01*
X1206499Y1109699D01*
X1234200Y1109699D01*
X1234200Y1070199D01*
G37*
G36*
X1245799Y1015300D02*
G01*
X1245799Y1054699D01*
X1273500Y1054699D01*
X1273500Y1015300D01*
G37*
G36*
X1206499Y1015300D02*
G01*
X1206499Y1054699D01*
X1234200Y1054699D01*
X1234200Y1015300D01*
G37*
G36*
X740799Y950300D02*
G01*
X740799Y989699D01*
X768500Y989699D01*
X768500Y950300D01*
G37*
G36*
X701500Y950300D02*
G01*
X701500Y989699D01*
X729200Y989699D01*
X729200Y950300D01*
G37*
G36*
X850799Y-904699D02*
G01*
X850799Y-865300D01*
X878500Y-865300D01*
X878500Y-904699D01*
G37*
G36*
X811499Y-904699D02*
G01*
X811499Y-865300D01*
X839200Y-865300D01*
X839200Y-904699D01*
G37*
G36*
X2505299Y-494200D02*
G01*
X2505299Y-466500D01*
X2544700Y-466500D01*
X2544700Y-494200D01*
G37*
G36*
X2505299Y-533499D02*
G01*
X2505299Y-505799D01*
X2544700Y-505799D01*
X2544700Y-533499D01*
G37*
G36*
X586500Y-589800D02*
G01*
X586500Y-550300D01*
X614200Y-550300D01*
X614200Y-589800D01*
G37*
G36*
X625900Y-589800D02*
G01*
X625900Y-550300D01*
X653600Y-550300D01*
X653600Y-589800D01*
G37*
G36*
X1235900Y-674800D02*
G01*
X1235900Y-635300D01*
X1263599Y-635300D01*
X1263599Y-674800D01*
G37*
G36*
X1196499Y-674800D02*
G01*
X1196499Y-635300D01*
X1224200Y-635300D01*
X1224200Y-674800D01*
G37*
G36*
X1235900Y-724800D02*
G01*
X1235900Y-685300D01*
X1263599Y-685300D01*
X1263599Y-724800D01*
G37*
G36*
X1196499Y-724800D02*
G01*
X1196499Y-685300D01*
X1224200Y-685300D01*
X1224200Y-724800D01*
G37*
G36*
X1235900Y-774800D02*
G01*
X1235900Y-735300D01*
X1263599Y-735300D01*
X1263599Y-774800D01*
G37*
G36*
X1196499Y-774800D02*
G01*
X1196499Y-735300D01*
X1224200Y-735300D01*
X1224200Y-774800D01*
G37*
G36*
X811499Y-849699D02*
G01*
X811499Y-810300D01*
X839200Y-810300D01*
X839200Y-849699D01*
G37*
G36*
X850799Y-849699D02*
G01*
X850799Y-810300D01*
X878500Y-810300D01*
X878500Y-849699D01*
G37*
G36*
X1020299Y-1773499D02*
G01*
X1020299Y-1745900D01*
X1059799Y-1745900D01*
X1059799Y-1773499D01*
G37*
G36*
X1020299Y-1734200D02*
G01*
X1020299Y-1706500D01*
X1059799Y-1706500D01*
X1059799Y-1734200D01*
G37*
G36*
X965299Y-1773499D02*
G01*
X965299Y-1745799D01*
X1004700Y-1745799D01*
X1004700Y-1773499D01*
G37*
G36*
X965299Y-1734200D02*
G01*
X965299Y-1706500D01*
X1004700Y-1706500D01*
X1004700Y-1734200D01*
G37*
G36*
X1376499Y-1474699D02*
G01*
X1376499Y-1435300D01*
X1404200Y-1435300D01*
X1404200Y-1474699D01*
G37*
G36*
X1415799Y-1474699D02*
G01*
X1415799Y-1435300D01*
X1443500Y-1435300D01*
X1443500Y-1474699D01*
G37*
G36*
X1616499Y-1474699D02*
G01*
X1616499Y-1435300D01*
X1644200Y-1435300D01*
X1644200Y-1474699D01*
G37*
G36*
X1655799Y-1474699D02*
G01*
X1655799Y-1435300D01*
X1683500Y-1435300D01*
X1683500Y-1474699D01*
G37*
G36*
X1856499Y-1474699D02*
G01*
X1856499Y-1435300D01*
X1884200Y-1435300D01*
X1884200Y-1474699D01*
G37*
G36*
X1895799Y-1474699D02*
G01*
X1895799Y-1435300D01*
X1923500Y-1435300D01*
X1923500Y-1474699D01*
G37*
G36*
X2080299Y-4559200D02*
G01*
X2080299Y-4531500D01*
X2119700Y-4531500D01*
X2119700Y-4559200D01*
G37*
G36*
X2080299Y-4598499D02*
G01*
X2080299Y-4570799D01*
X2119700Y-4570799D01*
X2119700Y-4598499D01*
G37*
G36*
X2080299Y-4794200D02*
G01*
X2080299Y-4766500D01*
X2119700Y-4766500D01*
X2119700Y-4794200D01*
G37*
G36*
X2080299Y-4833499D02*
G01*
X2080299Y-4805799D01*
X2119700Y-4805799D01*
X2119700Y-4833499D01*
G37*
G36*
X2080299Y-5024200D02*
G01*
X2080299Y-4996500D01*
X2119700Y-4996500D01*
X2119700Y-5024200D01*
G37*
G36*
X2080299Y-5063499D02*
G01*
X2080299Y-5035799D01*
X2119700Y-5035799D01*
X2119700Y-5063499D01*
G37*
G36*
X2080299Y-2794200D02*
G01*
X2080299Y-2766500D01*
X2119700Y-2766500D01*
X2119700Y-2794200D01*
G37*
G36*
X2080299Y-2833499D02*
G01*
X2080299Y-2805799D01*
X2119700Y-2805799D01*
X2119700Y-2833499D01*
G37*
G36*
X2080299Y-2394200D02*
G01*
X2080299Y-2366500D01*
X2119700Y-2366500D01*
X2119700Y-2394200D01*
G37*
G36*
X2080299Y-2433499D02*
G01*
X2080299Y-2405799D01*
X2119700Y-2405799D01*
X2119700Y-2433499D01*
G37*
G36*
X760799Y-2684699D02*
G01*
X760799Y-2645300D01*
X788500Y-2645300D01*
X788500Y-2684699D01*
G37*
G36*
X721500Y-2684699D02*
G01*
X721500Y-2645300D01*
X749200Y-2645300D01*
X749200Y-2684699D01*
G37*
G36*
X145799Y-3369699D02*
G01*
X145799Y-3330300D01*
X173499Y-3330300D01*
X173499Y-3369699D01*
G37*
G36*
X106500Y-3369699D02*
G01*
X106500Y-3330300D01*
X134200Y-3330300D01*
X134200Y-3369699D01*
G37*
G36*
X2310799Y-4074699D02*
G01*
X2310799Y-4035300D01*
X2338500Y-4035300D01*
X2338500Y-4074699D01*
G37*
G36*
X2271499Y-4074699D02*
G01*
X2271499Y-4035300D01*
X2299200Y-4035300D01*
X2299200Y-4074699D01*
G37*
G36*
X1286499Y340300D02*
G01*
X1286499Y379699D01*
X1314200Y379699D01*
X1314200Y340300D01*
G37*
G36*
X1325799Y340300D02*
G01*
X1325799Y379699D01*
X1353500Y379699D01*
X1353500Y340300D01*
G37*
G36*
X1221499Y1220300D02*
G01*
X1221499Y1259699D01*
X1249200Y1259699D01*
X1249200Y1220300D01*
G37*
G36*
X1260799Y1220300D02*
G01*
X1260799Y1259699D01*
X1288500Y1259699D01*
X1288500Y1220300D01*
G37*
G36*
X1211400Y-534800D02*
G01*
X1211400Y-495300D01*
X1239099Y-495300D01*
X1239099Y-534800D01*
G37*
G36*
X1250799Y-534800D02*
G01*
X1250799Y-495300D01*
X1278500Y-495300D01*
X1278500Y-534800D01*
G37*
G36*
X1236499Y-1444699D02*
G01*
X1236499Y-1405300D01*
X1264200Y-1405300D01*
X1264200Y-1444699D01*
G37*
G36*
X1275799Y-1444699D02*
G01*
X1275799Y-1405300D01*
X1303500Y-1405300D01*
X1303500Y-1444699D01*
G37*
G36*
X901499Y-2254699D02*
G01*
X901499Y-2215200D01*
X929200Y-2215200D01*
X929200Y-2254699D01*
G37*
G36*
X940900Y-2254699D02*
G01*
X940900Y-2215200D01*
X968599Y-2215200D01*
X968599Y-2254699D01*
G37*
G36*
X202699Y-3301700D02*
G01*
X202699Y-3258299D01*
X242199Y-3258299D01*
X242199Y-3301700D01*
G37*
G36*
X257800Y-3301700D02*
G01*
X257800Y-3258299D01*
X297300Y-3258299D01*
X297300Y-3301700D01*
G37*
G36*
X2442799Y-4141700D02*
G01*
X2442799Y-4098299D01*
X2482299Y-4098299D01*
X2482299Y-4141700D01*
G37*
G36*
X2387700Y-4141700D02*
G01*
X2387700Y-4098299D01*
X2427200Y-4098299D01*
X2427200Y-4141700D01*
G37*
G36*
X2324700Y-4898499D02*
G01*
X2324700Y-4847199D01*
X2411499Y-4847199D01*
X2411499Y-4898499D01*
G37*
G36*
X2088500Y-4898499D02*
G01*
X2088500Y-4847199D01*
X2175299Y-4847199D01*
X2175299Y-4898499D01*
G37*
G36*
X2324700Y-4752800D02*
G01*
X2324700Y-4701500D01*
X2411499Y-4701500D01*
X2411499Y-4752800D01*
G37*
G36*
X2088500Y-4752800D02*
G01*
X2088500Y-4701500D01*
X2175299Y-4701500D01*
X2175299Y-4752800D01*
G37*
G36*
X2038500Y247100D02*
G01*
X2038500Y298400D01*
X2125299Y298400D01*
X2125299Y247100D01*
G37*
G36*
X2274700Y247100D02*
G01*
X2274700Y298400D01*
X2361499Y298400D01*
X2361499Y247100D01*
G37*
G36*
X2038500Y101500D02*
G01*
X2038500Y152800D01*
X2125299Y152800D01*
X2125299Y101500D01*
G37*
G36*
X2274700Y101500D02*
G01*
X2274700Y152800D01*
X2361499Y152800D01*
X2361499Y101500D01*
G37*
G36*
X1688500Y247100D02*
G01*
X1688500Y298400D01*
X1775299Y298400D01*
X1775299Y247100D01*
G37*
G36*
X1924700Y247100D02*
G01*
X1924700Y298400D01*
X2011499Y298400D01*
X2011499Y247100D01*
G37*
G36*
X1688500Y101500D02*
G01*
X1688500Y152800D01*
X1775299Y152800D01*
X1775299Y101500D01*
G37*
G36*
X1924700Y101500D02*
G01*
X1924700Y152800D01*
X2011499Y152800D01*
X2011499Y101500D01*
G37*
G36*
X1338500Y247100D02*
G01*
X1338500Y298400D01*
X1425299Y298400D01*
X1425299Y247100D01*
G37*
G36*
X1574700Y247100D02*
G01*
X1574700Y298400D01*
X1661499Y298400D01*
X1661499Y247100D01*
G37*
G36*
X1338500Y101500D02*
G01*
X1338500Y152800D01*
X1425299Y152800D01*
X1425299Y101500D01*
G37*
G36*
X1574700Y101500D02*
G01*
X1574700Y152800D01*
X1661499Y152800D01*
X1661499Y101500D01*
G37*
G36*
X694699Y1001500D02*
G01*
X694699Y1052800D01*
X781499Y1052800D01*
X781499Y1001500D01*
G37*
G36*
X458499Y1001500D02*
G01*
X458499Y1052800D01*
X545199Y1052800D01*
X545199Y1001500D01*
G37*
G36*
X694699Y1147100D02*
G01*
X694699Y1198400D01*
X781499Y1198400D01*
X781499Y1147100D01*
G37*
G36*
X458499Y1147100D02*
G01*
X458499Y1198400D01*
X545199Y1198400D01*
X545199Y1147100D01*
G37*
G36*
X1338500Y-652899D02*
G01*
X1338500Y-601599D01*
X1425299Y-601599D01*
X1425299Y-652899D01*
G37*
G36*
X1574700Y-652899D02*
G01*
X1574700Y-601599D01*
X1661499Y-601599D01*
X1661499Y-652899D01*
G37*
G36*
X1338500Y-798499D02*
G01*
X1338500Y-747199D01*
X1425299Y-747199D01*
X1425299Y-798499D01*
G37*
G36*
X1574700Y-798499D02*
G01*
X1574700Y-747199D01*
X1661499Y-747199D01*
X1661499Y-798499D01*
G37*
G36*
X1688500Y-652899D02*
G01*
X1688500Y-601599D01*
X1775299Y-601599D01*
X1775299Y-652899D01*
G37*
G36*
X1924700Y-652899D02*
G01*
X1924700Y-601599D01*
X2011499Y-601599D01*
X2011499Y-652899D01*
G37*
G36*
X1688500Y-798499D02*
G01*
X1688500Y-747199D01*
X1775299Y-747199D01*
X1775299Y-798499D01*
G37*
G36*
X1924700Y-798499D02*
G01*
X1924700Y-747199D01*
X2011499Y-747199D01*
X2011499Y-798499D01*
G37*
G36*
X2038500Y-652899D02*
G01*
X2038500Y-601599D01*
X2125299Y-601599D01*
X2125299Y-652899D01*
G37*
G36*
X2274700Y-652899D02*
G01*
X2274700Y-601599D01*
X2361499Y-601599D01*
X2361499Y-652899D01*
G37*
G36*
X2038500Y-798499D02*
G01*
X2038500Y-747199D01*
X2125299Y-747199D01*
X2125299Y-798499D01*
G37*
G36*
X2274700Y-798499D02*
G01*
X2274700Y-747199D01*
X2361499Y-747199D01*
X2361499Y-798499D01*
G37*
G36*
X1697200Y-1525300D02*
G01*
X1697200Y-1438600D01*
X1748500Y-1438600D01*
X1748500Y-1525300D01*
G37*
G36*
X1697200Y-1761500D02*
G01*
X1697200Y-1674800D01*
X1748500Y-1674800D01*
X1748500Y-1761500D01*
G37*
G36*
X1551499Y-1525300D02*
G01*
X1551499Y-1438600D01*
X1602799Y-1438600D01*
X1602799Y-1525300D01*
G37*
G36*
X1551499Y-1761500D02*
G01*
X1551499Y-1674800D01*
X1602799Y-1674800D01*
X1602799Y-1761500D01*
G37*
G36*
X2226599Y1199400D02*
G01*
X2226599Y1229099D01*
X2250399Y1229099D01*
X2250399Y1199400D01*
G37*
G36*
X2289600Y1230900D02*
G01*
X2289600Y1260599D01*
X2313400Y1260599D01*
X2313400Y1230900D01*
G37*
G36*
X2289600Y1199400D02*
G01*
X2289600Y1229099D01*
X2313400Y1229099D01*
X2313400Y1199400D01*
G37*
G36*
X2251199Y1230900D02*
G01*
X2251199Y1260599D01*
X2269099Y1260599D01*
X2269099Y1230900D01*
G37*
G36*
X2251199Y1199400D02*
G01*
X2251199Y1229099D01*
X2269099Y1229099D01*
X2269099Y1199400D01*
G37*
G36*
X2270900Y1230900D02*
G01*
X2270900Y1260599D01*
X2288800Y1260599D01*
X2288800Y1230900D01*
G37*
G36*
X2270900Y1199400D02*
G01*
X2270900Y1229099D01*
X2288800Y1229099D01*
X2288800Y1199400D01*
G37*
G36*
X2226599Y1230900D02*
G01*
X2226599Y1260599D01*
X2250399Y1260599D01*
X2250399Y1230900D01*
G37*
G36*
X1794600Y1250599D02*
G01*
X1794600Y1307800D01*
X1830200Y1307800D01*
X1830200Y1250599D01*
G37*
G36*
X1719799Y1250599D02*
G01*
X1719799Y1307800D01*
X1755399Y1307800D01*
X1755399Y1250599D01*
G37*
G36*
X1757200Y1152199D02*
G01*
X1757200Y1209400D01*
X1792799Y1209400D01*
X1792799Y1152199D01*
G37*
G36*
X2306499Y1108000D02*
G01*
X2306499Y1159000D01*
X2353500Y1159000D01*
X2353500Y1108000D01*
G37*
G36*
X2306499Y1040999D02*
G01*
X2306499Y1091999D01*
X2353500Y1091999D01*
X2353500Y1040999D01*
G37*
G36*
X1459600Y1250599D02*
G01*
X1459600Y1307800D01*
X1495200Y1307800D01*
X1495200Y1250599D01*
G37*
G36*
X1384799Y1250599D02*
G01*
X1384799Y1307800D01*
X1420399Y1307800D01*
X1420399Y1250599D01*
G37*
G36*
X1422200Y1152199D02*
G01*
X1422200Y1209400D01*
X1457799Y1209400D01*
X1457799Y1152199D01*
G37*
G36*
X2134600Y1250599D02*
G01*
X2134600Y1307800D01*
X2170200Y1307800D01*
X2170200Y1250599D01*
G37*
G36*
X2059799Y1250599D02*
G01*
X2059799Y1307800D01*
X2095399Y1307800D01*
X2095399Y1250599D01*
G37*
G36*
X2097200Y1152199D02*
G01*
X2097200Y1209400D01*
X2132799Y1209400D01*
X2132799Y1152199D01*
G37*
G36*
X2306499Y885999D02*
G01*
X2306499Y936999D01*
X2353500Y936999D01*
X2353500Y885999D01*
G37*
G36*
X2306499Y953000D02*
G01*
X2306499Y1004000D01*
X2353500Y1004000D01*
X2353500Y953000D01*
G37*
G36*
X2186499Y885999D02*
G01*
X2186499Y936999D01*
X2233500Y936999D01*
X2233500Y885999D01*
G37*
G36*
X2186499Y953000D02*
G01*
X2186499Y1004000D01*
X2233500Y1004000D01*
X2233500Y953000D01*
G37*
G36*
X2186499Y1108000D02*
G01*
X2186499Y1159000D01*
X2233500Y1159000D01*
X2233500Y1108000D01*
G37*
G36*
X2186499Y1040999D02*
G01*
X2186499Y1091999D01*
X2233500Y1091999D01*
X2233500Y1040999D01*
G37*
G36*
X1631499Y1108000D02*
G01*
X1631499Y1159000D01*
X1678500Y1159000D01*
X1678500Y1108000D01*
G37*
G36*
X1631499Y1040999D02*
G01*
X1631499Y1091999D01*
X1678500Y1091999D01*
X1678500Y1040999D01*
G37*
G36*
X1631499Y885999D02*
G01*
X1631499Y936999D01*
X1678500Y936999D01*
X1678500Y885999D01*
G37*
G36*
X1631499Y953000D02*
G01*
X1631499Y1004000D01*
X1678500Y1004000D01*
X1678500Y953000D01*
G37*
G36*
X1511499Y885999D02*
G01*
X1511499Y936999D01*
X1558500Y936999D01*
X1558500Y885999D01*
G37*
G36*
X1511499Y953000D02*
G01*
X1511499Y1004000D01*
X1558500Y1004000D01*
X1558500Y953000D01*
G37*
G36*
X1511499Y1108000D02*
G01*
X1511499Y1159000D01*
X1558500Y1159000D01*
X1558500Y1108000D01*
G37*
G36*
X1511499Y1040999D02*
G01*
X1511499Y1091999D01*
X1558500Y1091999D01*
X1558500Y1040999D01*
G37*
G36*
X2400000Y965000D02*
G01*
X2400000Y1035000D01*
X2470000Y1035000D01*
X2470000Y965000D01*
G37*
D74*
G01*
X2435000Y1100000D03*
D75*
G01*
X2435000Y1200000D03*
G36*
X1971499Y1108000D02*
G01*
X1971499Y1159000D01*
X2018500Y1159000D01*
X2018500Y1108000D01*
G37*
G36*
X1971499Y1040999D02*
G01*
X1971499Y1091999D01*
X2018500Y1091999D01*
X2018500Y1040999D01*
G37*
G36*
X1971499Y885999D02*
G01*
X1971499Y936999D01*
X2018500Y936999D01*
X2018500Y885999D01*
G37*
G36*
X1971499Y953000D02*
G01*
X1971499Y1004000D01*
X2018500Y1004000D01*
X2018500Y953000D01*
G37*
G36*
X1851499Y885999D02*
G01*
X1851499Y936999D01*
X1898500Y936999D01*
X1898500Y885999D01*
G37*
G36*
X1851499Y953000D02*
G01*
X1851499Y1004000D01*
X1898500Y1004000D01*
X1898500Y953000D01*
G37*
G36*
X1851499Y1108000D02*
G01*
X1851499Y1159000D01*
X1898500Y1159000D01*
X1898500Y1108000D01*
G37*
G36*
X1851499Y1040999D02*
G01*
X1851499Y1091999D01*
X1898500Y1091999D01*
X1898500Y1040999D01*
G37*
G36*
X401199Y147800D02*
G01*
X401199Y177399D01*
X448600Y177399D01*
X448600Y147800D01*
G37*
G36*
X401199Y185199D02*
G01*
X401199Y214800D01*
X448600Y214800D01*
X448600Y185199D01*
G37*
G36*
X401199Y222600D02*
G01*
X401199Y252199D01*
X448600Y252199D01*
X448600Y222600D01*
G37*
G36*
X511399Y222600D02*
G01*
X511399Y252199D01*
X558800Y252199D01*
X558800Y222600D01*
G37*
G36*
X511399Y185199D02*
G01*
X511399Y214800D01*
X558800Y214800D01*
X558800Y185199D01*
G37*
G36*
X511399Y147800D02*
G01*
X511399Y177399D01*
X558800Y177399D01*
X558800Y147800D01*
G37*
G36*
X380300Y-671700D02*
G01*
X380300Y-628299D01*
X447399Y-628299D01*
X447399Y-671700D01*
G37*
G36*
X380300Y-771700D02*
G01*
X380300Y-728299D01*
X447399Y-728299D01*
X447399Y-771700D01*
G37*
G36*
X612600Y-771700D02*
G01*
X612600Y-728299D01*
X679699Y-728299D01*
X679699Y-771700D01*
G37*
G36*
X612600Y-671700D02*
G01*
X612600Y-628299D01*
X679699Y-628299D01*
X679699Y-671700D01*
G37*
G36*
X942200Y-845399D02*
G01*
X942200Y-809800D01*
X999399Y-809800D01*
X999399Y-845399D01*
G37*
G36*
X942200Y-920199D02*
G01*
X942200Y-884600D01*
X999399Y-884600D01*
X999399Y-920199D01*
G37*
G36*
X1040600Y-882800D02*
G01*
X1040600Y-847199D01*
X1097799Y-847199D01*
X1097799Y-882800D01*
G37*
G36*
X937700Y333299D02*
G01*
X937700Y376700D01*
X977200Y376700D01*
X977200Y333299D01*
G37*
G36*
X992799Y333299D02*
G01*
X992799Y376700D01*
X1032299Y376700D01*
X1032299Y333299D01*
G37*
G36*
X2492600Y-1800000D02*
G01*
X2492600Y-1673899D01*
X2571400Y-1673899D01*
X2571400Y-1800000D01*
G37*
G36*
X2350799Y-1800000D02*
G01*
X2350799Y-1673899D01*
X2429700Y-1673899D01*
X2429700Y-1800000D01*
G37*
G36*
X2453199Y-1526100D02*
G01*
X2453199Y-1400000D01*
X2532100Y-1400000D01*
X2532100Y-1526100D01*
G37*
G36*
X2118599Y-1800000D02*
G01*
X2118599Y-1673899D01*
X2197399Y-1673899D01*
X2197399Y-1800000D01*
G37*
G36*
X2181599Y-1526100D02*
G01*
X2181599Y-1400000D01*
X2260399Y-1400000D01*
X2260399Y-1526100D01*
G37*
G36*
X1187500Y346199D02*
G01*
X1187500Y373800D01*
X1219200Y373800D01*
X1219200Y346199D01*
G37*
G36*
X1230799Y346199D02*
G01*
X1230799Y373800D01*
X1262500Y373800D01*
X1262500Y346199D01*
G37*
G36*
X1211599Y-20599D02*
G01*
X1211599Y9099D01*
X1235399Y9099D01*
X1235399Y-20599D01*
G37*
G36*
X1274600Y10900D02*
G01*
X1274600Y40599D01*
X1298400Y40599D01*
X1298400Y10900D01*
G37*
G36*
X1274600Y-20599D02*
G01*
X1274600Y9099D01*
X1298400Y9099D01*
X1298400Y-20599D01*
G37*
G36*
X1236199Y10900D02*
G01*
X1236199Y40599D01*
X1254099Y40599D01*
X1254099Y10900D01*
G37*
G36*
X1236199Y-20599D02*
G01*
X1236199Y9099D01*
X1254099Y9099D01*
X1254099Y-20599D01*
G37*
G36*
X1255900Y10900D02*
G01*
X1255900Y40599D01*
X1273800Y40599D01*
X1273800Y10900D01*
G37*
G36*
X1255900Y-20599D02*
G01*
X1255900Y9099D01*
X1273800Y9099D01*
X1273800Y-20599D01*
G37*
G36*
X1211599Y10900D02*
G01*
X1211599Y40599D01*
X1235399Y40599D01*
X1235399Y10900D01*
G37*
G36*
X1127500Y1226199D02*
G01*
X1127500Y1253800D01*
X1159200Y1253800D01*
X1159200Y1226199D01*
G37*
G36*
X1170799Y1226199D02*
G01*
X1170799Y1253800D01*
X1202500Y1253800D01*
X1202500Y1226199D01*
G37*
G36*
X999600Y-2579400D02*
G01*
X999600Y-2522199D01*
X1035200Y-2522199D01*
X1035200Y-2579400D01*
G37*
G36*
X924799Y-2579400D02*
G01*
X924799Y-2522199D01*
X960399Y-2522199D01*
X960399Y-2579400D01*
G37*
G36*
X962200Y-2677800D02*
G01*
X962200Y-2620599D01*
X997799Y-2620599D01*
X997799Y-2677800D01*
G37*
G36*
X707800Y-2981700D02*
G01*
X707800Y-2938299D01*
X747300Y-2938299D01*
X747300Y-2981700D01*
G37*
G36*
X652699Y-2981700D02*
G01*
X652699Y-2938299D01*
X692199Y-2938299D01*
X692199Y-2981700D01*
G37*
G36*
X2324700Y-2898499D02*
G01*
X2324700Y-2847199D01*
X2411499Y-2847199D01*
X2411499Y-2898499D01*
G37*
G36*
X2088500Y-2898499D02*
G01*
X2088500Y-2847199D01*
X2175299Y-2847199D01*
X2175299Y-2898499D01*
G37*
G36*
X2324700Y-2752800D02*
G01*
X2324700Y-2701500D01*
X2411499Y-2701500D01*
X2411499Y-2752800D01*
G37*
G36*
X2088500Y-2752800D02*
G01*
X2088500Y-2701500D01*
X2175299Y-2701500D01*
X2175299Y-2752800D01*
G37*
G36*
X1857399Y-2682700D02*
G01*
X1857399Y-2517300D01*
X2042600Y-2517300D01*
X2042600Y-2682700D01*
G37*
G36*
X1257399Y-2682700D02*
G01*
X1257399Y-2517300D01*
X1442600Y-2517300D01*
X1442600Y-2682700D01*
G37*
G36*
X918400Y-2863099D02*
G01*
X918400Y-2831500D01*
X973599Y-2831500D01*
X973599Y-2863099D01*
G37*
G36*
X1166400Y-2863099D02*
G01*
X1166400Y-2831500D01*
X1221599Y-2831500D01*
X1221599Y-2863099D01*
G37*
G36*
X1166400Y-2898499D02*
G01*
X1166400Y-2866900D01*
X1221599Y-2866900D01*
X1221599Y-2898499D01*
G37*
G36*
X918400Y-2898499D02*
G01*
X918400Y-2866900D01*
X973599Y-2866900D01*
X973599Y-2898499D01*
G37*
G36*
X1963900Y-4055700D02*
G01*
X1944300Y-4036100D01*
X1966700Y-4013699D01*
X1986300Y-4033299D01*
G37*
G36*
X1933299Y-4086300D02*
G01*
X1913699Y-4066700D01*
X1936099Y-4044299D01*
X1955699Y-4063899D01*
G37*
G36*
X952700Y1213299D02*
G01*
X952700Y1256700D01*
X992200Y1256700D01*
X992200Y1213299D01*
G37*
G36*
X1007799Y1213299D02*
G01*
X1007799Y1256700D01*
X1047299Y1256700D01*
X1047299Y1213299D01*
G37*
G36*
X477699Y-866700D02*
G01*
X477699Y-823299D01*
X517199Y-823299D01*
X517199Y-866700D01*
G37*
G36*
X532800Y-866700D02*
G01*
X532800Y-823299D01*
X572300Y-823299D01*
X572300Y-866700D01*
G37*
G36*
X942700Y-536700D02*
G01*
X942700Y-493299D01*
X982200Y-493299D01*
X982200Y-536700D01*
G37*
G36*
X997799Y-536700D02*
G01*
X997799Y-493299D01*
X1037299Y-493299D01*
X1037299Y-536700D01*
G37*
G36*
X1007700Y-1451700D02*
G01*
X1007700Y-1408299D01*
X1047200Y-1408299D01*
X1047200Y-1451700D01*
G37*
G36*
X1062799Y-1451700D02*
G01*
X1062799Y-1408299D01*
X1102299Y-1408299D01*
X1102299Y-1451700D01*
G37*
G36*
X1252700Y-4671700D02*
G01*
X1252700Y-4628299D01*
X1292200Y-4628299D01*
X1292200Y-4671700D01*
G37*
G36*
X1307799Y-4671700D02*
G01*
X1307799Y-4628299D01*
X1347299Y-4628299D01*
X1347299Y-4671700D01*
G37*
G36*
X652699Y-2261700D02*
G01*
X652699Y-2218299D01*
X692199Y-2218299D01*
X692199Y-2261700D01*
G37*
G36*
X707800Y-2261700D02*
G01*
X707800Y-2218299D01*
X747300Y-2218299D01*
X747300Y-2261700D01*
G37*
G36*
X2442799Y-4071700D02*
G01*
X2442799Y-4028299D01*
X2482299Y-4028299D01*
X2482299Y-4071700D01*
G37*
G36*
X2387700Y-4071700D02*
G01*
X2387700Y-4028299D01*
X2427200Y-4028299D01*
X2427200Y-4071700D01*
G37*
G36*
X202699Y-3371700D02*
G01*
X202699Y-3328299D01*
X242199Y-3328299D01*
X242199Y-3371700D01*
G37*
G36*
X257800Y-3371700D02*
G01*
X257800Y-3328299D01*
X297300Y-3328299D01*
X297300Y-3371700D01*
G37*
G36*
X1245900Y881599D02*
G01*
X1245900Y905399D01*
X1275600Y905399D01*
X1275600Y881599D01*
G37*
G36*
X1214399Y944600D02*
G01*
X1214399Y968400D01*
X1244099Y968400D01*
X1244099Y944600D01*
G37*
G36*
X1245900Y944600D02*
G01*
X1245900Y968400D01*
X1275600Y968400D01*
X1275600Y944600D01*
G37*
G36*
X1214399Y906199D02*
G01*
X1214399Y924099D01*
X1244099Y924099D01*
X1244099Y906199D01*
G37*
G36*
X1245900Y906199D02*
G01*
X1245900Y924099D01*
X1275600Y924099D01*
X1275600Y906199D01*
G37*
G36*
X1214399Y925900D02*
G01*
X1214399Y943800D01*
X1244099Y943800D01*
X1244099Y925900D01*
G37*
G36*
X1245900Y925900D02*
G01*
X1245900Y943800D01*
X1275600Y943800D01*
X1275600Y925900D01*
G37*
G36*
X1214399Y881599D02*
G01*
X1214399Y905399D01*
X1244099Y905399D01*
X1244099Y881599D01*
G37*
G36*
X1236599Y-905599D02*
G01*
X1236599Y-875900D01*
X1260399Y-875900D01*
X1260399Y-905599D01*
G37*
G36*
X1299600Y-874099D02*
G01*
X1299600Y-844400D01*
X1323400Y-844400D01*
X1323400Y-874099D01*
G37*
G36*
X1299600Y-905599D02*
G01*
X1299600Y-875900D01*
X1323400Y-875900D01*
X1323400Y-905599D01*
G37*
G36*
X1261199Y-874099D02*
G01*
X1261199Y-844400D01*
X1279099Y-844400D01*
X1279099Y-874099D01*
G37*
G36*
X1261199Y-905599D02*
G01*
X1261199Y-875900D01*
X1279099Y-875900D01*
X1279099Y-905599D01*
G37*
G36*
X1280900Y-874099D02*
G01*
X1280900Y-844400D01*
X1298800Y-844400D01*
X1298800Y-874099D01*
G37*
G36*
X1280900Y-905599D02*
G01*
X1280900Y-875900D01*
X1298800Y-875900D01*
X1298800Y-905599D01*
G37*
G36*
X1236599Y-874099D02*
G01*
X1236599Y-844400D01*
X1260399Y-844400D01*
X1260399Y-874099D01*
G37*
G36*
X1175900Y-1808400D02*
G01*
X1175900Y-1784600D01*
X1205600Y-1784600D01*
X1205600Y-1808400D01*
G37*
G36*
X1144399Y-1745399D02*
G01*
X1144399Y-1721599D01*
X1174099Y-1721599D01*
X1174099Y-1745399D01*
G37*
G36*
X1175900Y-1745399D02*
G01*
X1175900Y-1721599D01*
X1205600Y-1721599D01*
X1205600Y-1745399D01*
G37*
G36*
X1144399Y-1783800D02*
G01*
X1144399Y-1765900D01*
X1174099Y-1765900D01*
X1174099Y-1783800D01*
G37*
G36*
X1175900Y-1783800D02*
G01*
X1175900Y-1765900D01*
X1205600Y-1765900D01*
X1205600Y-1783800D01*
G37*
G36*
X1144399Y-1764099D02*
G01*
X1144399Y-1746199D01*
X1174099Y-1746199D01*
X1174099Y-1764099D01*
G37*
G36*
X1175900Y-1764099D02*
G01*
X1175900Y-1746199D01*
X1205600Y-1746199D01*
X1205600Y-1764099D01*
G37*
G36*
X1144399Y-1808400D02*
G01*
X1144399Y-1784600D01*
X1174099Y-1784600D01*
X1174099Y-1808400D01*
G37*
G36*
X1954600Y-4544099D02*
G01*
X1954600Y-4514400D01*
X1978400Y-4514400D01*
X1978400Y-4544099D01*
G37*
G36*
X1891599Y-4575599D02*
G01*
X1891599Y-4545900D01*
X1915399Y-4545900D01*
X1915399Y-4575599D01*
G37*
G36*
X1891599Y-4544099D02*
G01*
X1891599Y-4514400D01*
X1915399Y-4514400D01*
X1915399Y-4544099D01*
G37*
G36*
X1935900Y-4575599D02*
G01*
X1935900Y-4545900D01*
X1953800Y-4545900D01*
X1953800Y-4575599D01*
G37*
G36*
X1935900Y-4544099D02*
G01*
X1935900Y-4514400D01*
X1953800Y-4514400D01*
X1953800Y-4544099D01*
G37*
G36*
X1916199Y-4575599D02*
G01*
X1916199Y-4545900D01*
X1934099Y-4545900D01*
X1934099Y-4575599D01*
G37*
G36*
X1916199Y-4544099D02*
G01*
X1916199Y-4514400D01*
X1934099Y-4514400D01*
X1934099Y-4544099D01*
G37*
G36*
X1954600Y-4575599D02*
G01*
X1954600Y-4545900D01*
X1978400Y-4545900D01*
X1978400Y-4575599D01*
G37*
G36*
X1891599Y-2370599D02*
G01*
X1891599Y-2340900D01*
X1915399Y-2340900D01*
X1915399Y-2370599D01*
G37*
G36*
X1954600Y-2339099D02*
G01*
X1954600Y-2309400D01*
X1978400Y-2309400D01*
X1978400Y-2339099D01*
G37*
G36*
X1954600Y-2370599D02*
G01*
X1954600Y-2340900D01*
X1978400Y-2340900D01*
X1978400Y-2370599D01*
G37*
G36*
X1916199Y-2339099D02*
G01*
X1916199Y-2309400D01*
X1934099Y-2309400D01*
X1934099Y-2339099D01*
G37*
G36*
X1916199Y-2370599D02*
G01*
X1916199Y-2340900D01*
X1934099Y-2340900D01*
X1934099Y-2370599D01*
G37*
G36*
X1935900Y-2339099D02*
G01*
X1935900Y-2309400D01*
X1953800Y-2309400D01*
X1953800Y-2339099D01*
G37*
G36*
X1935900Y-2370599D02*
G01*
X1935900Y-2340900D01*
X1953800Y-2340900D01*
X1953800Y-2370599D01*
G37*
G36*
X1891599Y-2339099D02*
G01*
X1891599Y-2309400D01*
X1915399Y-2309400D01*
X1915399Y-2339099D01*
G37*
G36*
X1551599Y1199400D02*
G01*
X1551599Y1229099D01*
X1575399Y1229099D01*
X1575399Y1199400D01*
G37*
G36*
X1614600Y1230900D02*
G01*
X1614600Y1260599D01*
X1638400Y1260599D01*
X1638400Y1230900D01*
G37*
G36*
X1614600Y1199400D02*
G01*
X1614600Y1229099D01*
X1638400Y1229099D01*
X1638400Y1199400D01*
G37*
G36*
X1576199Y1230900D02*
G01*
X1576199Y1260599D01*
X1594099Y1260599D01*
X1594099Y1230900D01*
G37*
G36*
X1576199Y1199400D02*
G01*
X1576199Y1229099D01*
X1594099Y1229099D01*
X1594099Y1199400D01*
G37*
G36*
X1595900Y1230900D02*
G01*
X1595900Y1260599D01*
X1613800Y1260599D01*
X1613800Y1230900D01*
G37*
G36*
X1595900Y1199400D02*
G01*
X1595900Y1229099D01*
X1613800Y1229099D01*
X1613800Y1199400D01*
G37*
G36*
X1551599Y1230900D02*
G01*
X1551599Y1260599D01*
X1575399Y1260599D01*
X1575399Y1230900D01*
G37*
G36*
X1457200Y-1520300D02*
G01*
X1457200Y-1433600D01*
X1508500Y-1433600D01*
X1508500Y-1520300D01*
G37*
G36*
X1457200Y-1756500D02*
G01*
X1457200Y-1669800D01*
X1508500Y-1669800D01*
X1508500Y-1756500D01*
G37*
G36*
X1311499Y-1520300D02*
G01*
X1311499Y-1433600D01*
X1362799Y-1433600D01*
X1362799Y-1520300D01*
G37*
G36*
X1311499Y-1756500D02*
G01*
X1311499Y-1669800D01*
X1362799Y-1669800D01*
X1362799Y-1756500D01*
G37*
G36*
X1937200Y-1525300D02*
G01*
X1937200Y-1438600D01*
X1988500Y-1438600D01*
X1988500Y-1525300D01*
G37*
G36*
X1937200Y-1761500D02*
G01*
X1937200Y-1674800D01*
X1988500Y-1674800D01*
X1988500Y-1761500D01*
G37*
G36*
X1791499Y-1525300D02*
G01*
X1791499Y-1438600D01*
X1842799Y-1438600D01*
X1842799Y-1525300D01*
G37*
G36*
X1791499Y-1761500D02*
G01*
X1791499Y-1674800D01*
X1842799Y-1674800D01*
X1842799Y-1761500D01*
G37*
G36*
X2324700Y-5128400D02*
G01*
X2324700Y-5077100D01*
X2411499Y-5077100D01*
X2411499Y-5128400D01*
G37*
G36*
X2088500Y-5128400D02*
G01*
X2088500Y-5077100D01*
X2175299Y-5077100D01*
X2175299Y-5128400D01*
G37*
G36*
X2324700Y-4982800D02*
G01*
X2324700Y-4931500D01*
X2411499Y-4931500D01*
X2411499Y-4982800D01*
G37*
G36*
X2088500Y-4982800D02*
G01*
X2088500Y-4931500D01*
X2175299Y-4931500D01*
X2175299Y-4982800D01*
G37*
G36*
X2324700Y-4663400D02*
G01*
X2324700Y-4612100D01*
X2411499Y-4612100D01*
X2411499Y-4663400D01*
G37*
G36*
X2088500Y-4663400D02*
G01*
X2088500Y-4612100D01*
X2175299Y-4612100D01*
X2175299Y-4663400D01*
G37*
G36*
X2324700Y-4517800D02*
G01*
X2324700Y-4466500D01*
X2411499Y-4466500D01*
X2411499Y-4517800D01*
G37*
G36*
X2088500Y-4517800D02*
G01*
X2088500Y-4466500D01*
X2175299Y-4466500D01*
X2175299Y-4517800D01*
G37*
G36*
X2324700Y-2498499D02*
G01*
X2324700Y-2447199D01*
X2411499Y-2447199D01*
X2411499Y-2498499D01*
G37*
G36*
X2088500Y-2498499D02*
G01*
X2088500Y-2447199D01*
X2175299Y-2447199D01*
X2175299Y-2498499D01*
G37*
G36*
X2324700Y-2352800D02*
G01*
X2324700Y-2301500D01*
X2411499Y-2301500D01*
X2411499Y-2352800D01*
G37*
G36*
X2088500Y-2352800D02*
G01*
X2088500Y-2301500D01*
X2175299Y-2301500D01*
X2175299Y-2352800D01*
G37*
G36*
X1891599Y1199400D02*
G01*
X1891599Y1229099D01*
X1915399Y1229099D01*
X1915399Y1199400D01*
G37*
G36*
X1954600Y1230900D02*
G01*
X1954600Y1260599D01*
X1978400Y1260599D01*
X1978400Y1230900D01*
G37*
G36*
X1954600Y1199400D02*
G01*
X1954600Y1229099D01*
X1978400Y1229099D01*
X1978400Y1199400D01*
G37*
G36*
X1916199Y1230900D02*
G01*
X1916199Y1260599D01*
X1934099Y1260599D01*
X1934099Y1230900D01*
G37*
G36*
X1916199Y1199400D02*
G01*
X1916199Y1229099D01*
X1934099Y1229099D01*
X1934099Y1199400D01*
G37*
G36*
X1935900Y1230900D02*
G01*
X1935900Y1260599D01*
X1953800Y1260599D01*
X1953800Y1230900D01*
G37*
G36*
X1935900Y1199400D02*
G01*
X1935900Y1229099D01*
X1953800Y1229099D01*
X1953800Y1199400D01*
G37*
G36*
X1891599Y1230900D02*
G01*
X1891599Y1260599D01*
X1915399Y1260599D01*
X1915399Y1230900D01*
G37*
G36*
X2493400Y-699899D02*
G01*
X2493400Y-656399D01*
X2556599Y-656399D01*
X2556599Y-699899D01*
G37*
G36*
X2493400Y-593600D02*
G01*
X2493400Y-550100D01*
X2556599Y-550100D01*
X2556599Y-593600D01*
G37*
G36*
X2063900Y-4055700D02*
G01*
X2044300Y-4036100D01*
X2066700Y-4013699D01*
X2086300Y-4033299D01*
G37*
G36*
X2033299Y-4086300D02*
G01*
X2013699Y-4066700D01*
X2036099Y-4044299D01*
X2055699Y-4063899D01*
G37*
G36*
X1863900Y-4055700D02*
G01*
X1844300Y-4036100D01*
X1866700Y-4013699D01*
X1886300Y-4033299D01*
G37*
G36*
X1833299Y-4086300D02*
G01*
X1813699Y-4066700D01*
X1836099Y-4044299D01*
X1855699Y-4063899D01*
G37*
G36*
X1763900Y-4055700D02*
G01*
X1744300Y-4036100D01*
X1766700Y-4013699D01*
X1786300Y-4033299D01*
G37*
G36*
X1733299Y-4086300D02*
G01*
X1713699Y-4066700D01*
X1736099Y-4044299D01*
X1755699Y-4063899D01*
G37*
G36*
X1363900Y-4055700D02*
G01*
X1344300Y-4036100D01*
X1366700Y-4013699D01*
X1386300Y-4033299D01*
G37*
G36*
X1333299Y-4086300D02*
G01*
X1313699Y-4066700D01*
X1336099Y-4044299D01*
X1355699Y-4063899D01*
G37*
G36*
X1463900Y-4055700D02*
G01*
X1444300Y-4036100D01*
X1466700Y-4013699D01*
X1486300Y-4033299D01*
G37*
G36*
X1433299Y-4086300D02*
G01*
X1413699Y-4066700D01*
X1436099Y-4044299D01*
X1455699Y-4063899D01*
G37*
G36*
X1563900Y-4055700D02*
G01*
X1544300Y-4036100D01*
X1566700Y-4013699D01*
X1586300Y-4033299D01*
G37*
G36*
X1533299Y-4086300D02*
G01*
X1513699Y-4066700D01*
X1536099Y-4044299D01*
X1555699Y-4063899D01*
G37*
G36*
X1663900Y-4055700D02*
G01*
X1644300Y-4036100D01*
X1666700Y-4013699D01*
X1686300Y-4033299D01*
G37*
G36*
X1633299Y-4086300D02*
G01*
X1613699Y-4066700D01*
X1636099Y-4044299D01*
X1655699Y-4063899D01*
G37*
G36*
X1663900Y-3955700D02*
G01*
X1644300Y-3936100D01*
X1666700Y-3913699D01*
X1686300Y-3933299D01*
G37*
G36*
X1633299Y-3986300D02*
G01*
X1613699Y-3966700D01*
X1636099Y-3944299D01*
X1655699Y-3963899D01*
G37*
G36*
X1563900Y-3955700D02*
G01*
X1544300Y-3936100D01*
X1566700Y-3913699D01*
X1586300Y-3933299D01*
G37*
G36*
X1533299Y-3986300D02*
G01*
X1513699Y-3966700D01*
X1536099Y-3944299D01*
X1555699Y-3963899D01*
G37*
G36*
X1463900Y-3955700D02*
G01*
X1444300Y-3936100D01*
X1466700Y-3913699D01*
X1486300Y-3933299D01*
G37*
G36*
X1433299Y-3986300D02*
G01*
X1413699Y-3966700D01*
X1436099Y-3944299D01*
X1455699Y-3963899D01*
G37*
G36*
X1363900Y-3955700D02*
G01*
X1344300Y-3936100D01*
X1366700Y-3913699D01*
X1386300Y-3933299D01*
G37*
G36*
X1333299Y-3986300D02*
G01*
X1313699Y-3966700D01*
X1336099Y-3944299D01*
X1355699Y-3963899D01*
G37*
G36*
X1763900Y-3955700D02*
G01*
X1744300Y-3936100D01*
X1766700Y-3913699D01*
X1786300Y-3933299D01*
G37*
G36*
X1733299Y-3986300D02*
G01*
X1713699Y-3966700D01*
X1736099Y-3944299D01*
X1755699Y-3963899D01*
G37*
G36*
X1863900Y-3955700D02*
G01*
X1844300Y-3936100D01*
X1866700Y-3913699D01*
X1886300Y-3933299D01*
G37*
G36*
X1833299Y-3986300D02*
G01*
X1813699Y-3966700D01*
X1836099Y-3944299D01*
X1855699Y-3963899D01*
G37*
G36*
X1963900Y-3955700D02*
G01*
X1944300Y-3936100D01*
X1966700Y-3913699D01*
X1986300Y-3933299D01*
G37*
G36*
X1933299Y-3986300D02*
G01*
X1913699Y-3966700D01*
X1936099Y-3944299D01*
X1955699Y-3963899D01*
G37*
G36*
X2063900Y-3955700D02*
G01*
X2044300Y-3936100D01*
X2066700Y-3913699D01*
X2086300Y-3933299D01*
G37*
G36*
X2033299Y-3986300D02*
G01*
X2013699Y-3966700D01*
X2036099Y-3944299D01*
X2055699Y-3963899D01*
G37*
G36*
X1663900Y-3855700D02*
G01*
X1644300Y-3836100D01*
X1666700Y-3813699D01*
X1686300Y-3833299D01*
G37*
G36*
X1633299Y-3886300D02*
G01*
X1613699Y-3866700D01*
X1636099Y-3844299D01*
X1655699Y-3863899D01*
G37*
G36*
X1563900Y-3855700D02*
G01*
X1544300Y-3836100D01*
X1566700Y-3813699D01*
X1586300Y-3833299D01*
G37*
G36*
X1533299Y-3886300D02*
G01*
X1513699Y-3866700D01*
X1536099Y-3844299D01*
X1555699Y-3863899D01*
G37*
G36*
X1463900Y-3855700D02*
G01*
X1444300Y-3836100D01*
X1466700Y-3813699D01*
X1486300Y-3833299D01*
G37*
G36*
X1433299Y-3886300D02*
G01*
X1413699Y-3866700D01*
X1436099Y-3844299D01*
X1455699Y-3863899D01*
G37*
G36*
X1363900Y-3855700D02*
G01*
X1344300Y-3836100D01*
X1366700Y-3813699D01*
X1386300Y-3833299D01*
G37*
G36*
X1333299Y-3886300D02*
G01*
X1313699Y-3866700D01*
X1336099Y-3844299D01*
X1355699Y-3863899D01*
G37*
G36*
X1763900Y-3855700D02*
G01*
X1744300Y-3836100D01*
X1766700Y-3813699D01*
X1786300Y-3833299D01*
G37*
G36*
X1733299Y-3886300D02*
G01*
X1713699Y-3866700D01*
X1736099Y-3844299D01*
X1755699Y-3863899D01*
G37*
G36*
X1863900Y-3855700D02*
G01*
X1844300Y-3836100D01*
X1866700Y-3813699D01*
X1886300Y-3833299D01*
G37*
G36*
X1833299Y-3886300D02*
G01*
X1813699Y-3866700D01*
X1836099Y-3844299D01*
X1855699Y-3863899D01*
G37*
G36*
X1963900Y-3855700D02*
G01*
X1944300Y-3836100D01*
X1966700Y-3813699D01*
X1986300Y-3833299D01*
G37*
G36*
X1933299Y-3886300D02*
G01*
X1913699Y-3866700D01*
X1936099Y-3844299D01*
X1955699Y-3863899D01*
G37*
G36*
X2063900Y-3855700D02*
G01*
X2044300Y-3836100D01*
X2066700Y-3813699D01*
X2086300Y-3833299D01*
G37*
G36*
X2033299Y-3886300D02*
G01*
X2013699Y-3866700D01*
X2036099Y-3844299D01*
X2055699Y-3863899D01*
G37*
G36*
X1663900Y-3755700D02*
G01*
X1644300Y-3736100D01*
X1666700Y-3713699D01*
X1686300Y-3733299D01*
G37*
G36*
X1633299Y-3786300D02*
G01*
X1613699Y-3766700D01*
X1636099Y-3744299D01*
X1655699Y-3763899D01*
G37*
G36*
X1563900Y-3755700D02*
G01*
X1544300Y-3736100D01*
X1566700Y-3713699D01*
X1586300Y-3733299D01*
G37*
G36*
X1533299Y-3786300D02*
G01*
X1513699Y-3766700D01*
X1536099Y-3744299D01*
X1555699Y-3763899D01*
G37*
G36*
X1463900Y-3755700D02*
G01*
X1444300Y-3736100D01*
X1466700Y-3713699D01*
X1486300Y-3733299D01*
G37*
G36*
X1433299Y-3786300D02*
G01*
X1413699Y-3766700D01*
X1436099Y-3744299D01*
X1455699Y-3763899D01*
G37*
G36*
X1363900Y-3755700D02*
G01*
X1344300Y-3736100D01*
X1366700Y-3713699D01*
X1386300Y-3733299D01*
G37*
G36*
X1333299Y-3786300D02*
G01*
X1313699Y-3766700D01*
X1336099Y-3744299D01*
X1355699Y-3763899D01*
G37*
G36*
X1763900Y-3755700D02*
G01*
X1744300Y-3736100D01*
X1766700Y-3713699D01*
X1786300Y-3733299D01*
G37*
G36*
X1733299Y-3786300D02*
G01*
X1713699Y-3766700D01*
X1736099Y-3744299D01*
X1755699Y-3763899D01*
G37*
G36*
X1863900Y-3755700D02*
G01*
X1844300Y-3736100D01*
X1866700Y-3713699D01*
X1886300Y-3733299D01*
G37*
G36*
X1833299Y-3786300D02*
G01*
X1813699Y-3766700D01*
X1836099Y-3744299D01*
X1855699Y-3763899D01*
G37*
G36*
X1963900Y-3755700D02*
G01*
X1944300Y-3736100D01*
X1966700Y-3713699D01*
X1986300Y-3733299D01*
G37*
G36*
X1933299Y-3786300D02*
G01*
X1913699Y-3766700D01*
X1936099Y-3744299D01*
X1955699Y-3763899D01*
G37*
G36*
X2063900Y-3755700D02*
G01*
X2044300Y-3736100D01*
X2066700Y-3713699D01*
X2086300Y-3733299D01*
G37*
G36*
X2033299Y-3786300D02*
G01*
X2013699Y-3766700D01*
X2036099Y-3744299D01*
X2055699Y-3763899D01*
G37*
G36*
X2063900Y-3355700D02*
G01*
X2044300Y-3336100D01*
X2066700Y-3313699D01*
X2086300Y-3333299D01*
G37*
G36*
X2033299Y-3386300D02*
G01*
X2013699Y-3366700D01*
X2036099Y-3344299D01*
X2055699Y-3363899D01*
G37*
G36*
X1963900Y-3355700D02*
G01*
X1944300Y-3336100D01*
X1966700Y-3313699D01*
X1986300Y-3333299D01*
G37*
G36*
X1933299Y-3386300D02*
G01*
X1913699Y-3366700D01*
X1936099Y-3344299D01*
X1955699Y-3363899D01*
G37*
G36*
X1863900Y-3355700D02*
G01*
X1844300Y-3336100D01*
X1866700Y-3313699D01*
X1886300Y-3333299D01*
G37*
G36*
X1833299Y-3386300D02*
G01*
X1813699Y-3366700D01*
X1836099Y-3344299D01*
X1855699Y-3363899D01*
G37*
G36*
X1763900Y-3355700D02*
G01*
X1744300Y-3336100D01*
X1766700Y-3313699D01*
X1786300Y-3333299D01*
G37*
G36*
X1733299Y-3386300D02*
G01*
X1713699Y-3366700D01*
X1736099Y-3344299D01*
X1755699Y-3363899D01*
G37*
G36*
X1363900Y-3355700D02*
G01*
X1344300Y-3336100D01*
X1366700Y-3313699D01*
X1386300Y-3333299D01*
G37*
G36*
X1333299Y-3386300D02*
G01*
X1313699Y-3366700D01*
X1336099Y-3344299D01*
X1355699Y-3363899D01*
G37*
G36*
X1463900Y-3355700D02*
G01*
X1444300Y-3336100D01*
X1466700Y-3313699D01*
X1486300Y-3333299D01*
G37*
G36*
X1433299Y-3386300D02*
G01*
X1413699Y-3366700D01*
X1436099Y-3344299D01*
X1455699Y-3363899D01*
G37*
G36*
X1563900Y-3355700D02*
G01*
X1544300Y-3336100D01*
X1566700Y-3313699D01*
X1586300Y-3333299D01*
G37*
G36*
X1533299Y-3386300D02*
G01*
X1513699Y-3366700D01*
X1536099Y-3344299D01*
X1555699Y-3363899D01*
G37*
G36*
X1663900Y-3355700D02*
G01*
X1644300Y-3336100D01*
X1666700Y-3313699D01*
X1686300Y-3333299D01*
G37*
G36*
X1633299Y-3386300D02*
G01*
X1613699Y-3366700D01*
X1636099Y-3344299D01*
X1655699Y-3363899D01*
G37*
G36*
X2063900Y-3455700D02*
G01*
X2044300Y-3436100D01*
X2066700Y-3413699D01*
X2086300Y-3433299D01*
G37*
G36*
X2033299Y-3486300D02*
G01*
X2013699Y-3466700D01*
X2036099Y-3444299D01*
X2055699Y-3463899D01*
G37*
G36*
X1963900Y-3455700D02*
G01*
X1944300Y-3436100D01*
X1966700Y-3413699D01*
X1986300Y-3433299D01*
G37*
G36*
X1933299Y-3486300D02*
G01*
X1913699Y-3466700D01*
X1936099Y-3444299D01*
X1955699Y-3463899D01*
G37*
G36*
X1863900Y-3455700D02*
G01*
X1844300Y-3436100D01*
X1866700Y-3413699D01*
X1886300Y-3433299D01*
G37*
G36*
X1833299Y-3486300D02*
G01*
X1813699Y-3466700D01*
X1836099Y-3444299D01*
X1855699Y-3463899D01*
G37*
G36*
X1763900Y-3455700D02*
G01*
X1744300Y-3436100D01*
X1766700Y-3413699D01*
X1786300Y-3433299D01*
G37*
G36*
X1733299Y-3486300D02*
G01*
X1713699Y-3466700D01*
X1736099Y-3444299D01*
X1755699Y-3463899D01*
G37*
G36*
X1363900Y-3455700D02*
G01*
X1344300Y-3436100D01*
X1366700Y-3413699D01*
X1386300Y-3433299D01*
G37*
G36*
X1333299Y-3486300D02*
G01*
X1313699Y-3466700D01*
X1336099Y-3444299D01*
X1355699Y-3463899D01*
G37*
G36*
X1463900Y-3455700D02*
G01*
X1444300Y-3436100D01*
X1466700Y-3413699D01*
X1486300Y-3433299D01*
G37*
G36*
X1433299Y-3486300D02*
G01*
X1413699Y-3466700D01*
X1436099Y-3444299D01*
X1455699Y-3463899D01*
G37*
G36*
X1563900Y-3455700D02*
G01*
X1544300Y-3436100D01*
X1566700Y-3413699D01*
X1586300Y-3433299D01*
G37*
G36*
X1533299Y-3486300D02*
G01*
X1513699Y-3466700D01*
X1536099Y-3444299D01*
X1555699Y-3463899D01*
G37*
G36*
X1663900Y-3455700D02*
G01*
X1644300Y-3436100D01*
X1666700Y-3413699D01*
X1686300Y-3433299D01*
G37*
G36*
X1633299Y-3486300D02*
G01*
X1613699Y-3466700D01*
X1636099Y-3444299D01*
X1655699Y-3463899D01*
G37*
G36*
X2063900Y-3555700D02*
G01*
X2044300Y-3536100D01*
X2066700Y-3513699D01*
X2086300Y-3533299D01*
G37*
G36*
X2033299Y-3586300D02*
G01*
X2013699Y-3566700D01*
X2036099Y-3544299D01*
X2055699Y-3563899D01*
G37*
G36*
X1963900Y-3555700D02*
G01*
X1944300Y-3536100D01*
X1966700Y-3513699D01*
X1986300Y-3533299D01*
G37*
G36*
X1933299Y-3586300D02*
G01*
X1913699Y-3566700D01*
X1936099Y-3544299D01*
X1955699Y-3563899D01*
G37*
G36*
X1863900Y-3555700D02*
G01*
X1844300Y-3536100D01*
X1866700Y-3513699D01*
X1886300Y-3533299D01*
G37*
G36*
X1833299Y-3586300D02*
G01*
X1813699Y-3566700D01*
X1836099Y-3544299D01*
X1855699Y-3563899D01*
G37*
G36*
X1763900Y-3555700D02*
G01*
X1744300Y-3536100D01*
X1766700Y-3513699D01*
X1786300Y-3533299D01*
G37*
G36*
X1733299Y-3586300D02*
G01*
X1713699Y-3566700D01*
X1736099Y-3544299D01*
X1755699Y-3563899D01*
G37*
G36*
X1363900Y-3555700D02*
G01*
X1344300Y-3536100D01*
X1366700Y-3513699D01*
X1386300Y-3533299D01*
G37*
G36*
X1333299Y-3586300D02*
G01*
X1313699Y-3566700D01*
X1336099Y-3544299D01*
X1355699Y-3563899D01*
G37*
G36*
X1463900Y-3555700D02*
G01*
X1444300Y-3536100D01*
X1466700Y-3513699D01*
X1486300Y-3533299D01*
G37*
G36*
X1433299Y-3586300D02*
G01*
X1413699Y-3566700D01*
X1436099Y-3544299D01*
X1455699Y-3563899D01*
G37*
G36*
X1563900Y-3555700D02*
G01*
X1544300Y-3536100D01*
X1566700Y-3513699D01*
X1586300Y-3533299D01*
G37*
G36*
X1533299Y-3586300D02*
G01*
X1513699Y-3566700D01*
X1536099Y-3544299D01*
X1555699Y-3563899D01*
G37*
G36*
X1663900Y-3555700D02*
G01*
X1644300Y-3536100D01*
X1666700Y-3513699D01*
X1686300Y-3533299D01*
G37*
G36*
X1633299Y-3586300D02*
G01*
X1613699Y-3566700D01*
X1636099Y-3544299D01*
X1655699Y-3563899D01*
G37*
G36*
X1663900Y-3655700D02*
G01*
X1644300Y-3636100D01*
X1666700Y-3613699D01*
X1686300Y-3633299D01*
G37*
G36*
X1633299Y-3686300D02*
G01*
X1613699Y-3666700D01*
X1636099Y-3644299D01*
X1655699Y-3663899D01*
G37*
G36*
X1563900Y-3655700D02*
G01*
X1544300Y-3636100D01*
X1566700Y-3613699D01*
X1586300Y-3633299D01*
G37*
G36*
X1533299Y-3686300D02*
G01*
X1513699Y-3666700D01*
X1536099Y-3644299D01*
X1555699Y-3663899D01*
G37*
G36*
X1463900Y-3655700D02*
G01*
X1444300Y-3636100D01*
X1466700Y-3613699D01*
X1486300Y-3633299D01*
G37*
G36*
X1433299Y-3686300D02*
G01*
X1413699Y-3666700D01*
X1436099Y-3644299D01*
X1455699Y-3663899D01*
G37*
G36*
X1363900Y-3655700D02*
G01*
X1344300Y-3636100D01*
X1366700Y-3613699D01*
X1386300Y-3633299D01*
G37*
G36*
X1333299Y-3686300D02*
G01*
X1313699Y-3666700D01*
X1336099Y-3644299D01*
X1355699Y-3663899D01*
G37*
G36*
X1763900Y-3655700D02*
G01*
X1744300Y-3636100D01*
X1766700Y-3613699D01*
X1786300Y-3633299D01*
G37*
G36*
X1733299Y-3686300D02*
G01*
X1713699Y-3666700D01*
X1736099Y-3644299D01*
X1755699Y-3663899D01*
G37*
G36*
X1863900Y-3655700D02*
G01*
X1844300Y-3636100D01*
X1866700Y-3613699D01*
X1886300Y-3633299D01*
G37*
G36*
X1833299Y-3686300D02*
G01*
X1813699Y-3666700D01*
X1836099Y-3644299D01*
X1855699Y-3663899D01*
G37*
G36*
X1963900Y-3655700D02*
G01*
X1944300Y-3636100D01*
X1966700Y-3613699D01*
X1986300Y-3633299D01*
G37*
G36*
X1933299Y-3686300D02*
G01*
X1913699Y-3666700D01*
X1936099Y-3644299D01*
X1955699Y-3663899D01*
G37*
G36*
X2063900Y-3655700D02*
G01*
X2044300Y-3636100D01*
X2066700Y-3613699D01*
X2086300Y-3633299D01*
G37*
G36*
X2033299Y-3686300D02*
G01*
X2013699Y-3666700D01*
X2036099Y-3644299D01*
X2055699Y-3663899D01*
G37*
G36*
X1263900Y-3655700D02*
G01*
X1244300Y-3636100D01*
X1266700Y-3613699D01*
X1286300Y-3633299D01*
G37*
G36*
X1233299Y-3686300D02*
G01*
X1213699Y-3666700D01*
X1236099Y-3644299D01*
X1255699Y-3663899D01*
G37*
G36*
X1163900Y-3655700D02*
G01*
X1144300Y-3636100D01*
X1166700Y-3613699D01*
X1186300Y-3633299D01*
G37*
G36*
X1133299Y-3686300D02*
G01*
X1113699Y-3666700D01*
X1136099Y-3644299D01*
X1155699Y-3663899D01*
G37*
G36*
X1063900Y-3655700D02*
G01*
X1044300Y-3636100D01*
X1066700Y-3613699D01*
X1086300Y-3633299D01*
G37*
G36*
X1033299Y-3686300D02*
G01*
X1013699Y-3666700D01*
X1036099Y-3644299D01*
X1055699Y-3663899D01*
G37*
G36*
X963900Y-3655700D02*
G01*
X944300Y-3636100D01*
X966700Y-3613699D01*
X986300Y-3633299D01*
G37*
G36*
X933299Y-3686300D02*
G01*
X913699Y-3666700D01*
X936099Y-3644299D01*
X955699Y-3663899D01*
G37*
G36*
X563899Y-3655700D02*
G01*
X544299Y-3636100D01*
X566700Y-3613699D01*
X586300Y-3633299D01*
G37*
G36*
X533299Y-3686300D02*
G01*
X513699Y-3666700D01*
X536100Y-3644299D01*
X555700Y-3663899D01*
G37*
G36*
X663899Y-3655700D02*
G01*
X644299Y-3636100D01*
X666700Y-3613699D01*
X686300Y-3633299D01*
G37*
G36*
X633299Y-3686300D02*
G01*
X613699Y-3666700D01*
X636100Y-3644299D01*
X655700Y-3663899D01*
G37*
G36*
X763900Y-3655700D02*
G01*
X744299Y-3636100D01*
X766700Y-3613699D01*
X786300Y-3633299D01*
G37*
G36*
X733299Y-3686300D02*
G01*
X713699Y-3666700D01*
X736100Y-3644299D01*
X755700Y-3663899D01*
G37*
G36*
X863900Y-3655700D02*
G01*
X844300Y-3636100D01*
X866700Y-3613699D01*
X886300Y-3633299D01*
G37*
G36*
X833299Y-3686300D02*
G01*
X813699Y-3666700D01*
X836099Y-3644299D01*
X855699Y-3663899D01*
G37*
G36*
X863900Y-3555700D02*
G01*
X844300Y-3536100D01*
X866700Y-3513699D01*
X886300Y-3533299D01*
G37*
G36*
X833299Y-3586300D02*
G01*
X813699Y-3566700D01*
X836099Y-3544299D01*
X855699Y-3563899D01*
G37*
G36*
X763900Y-3555700D02*
G01*
X744299Y-3536100D01*
X766700Y-3513699D01*
X786300Y-3533299D01*
G37*
G36*
X733299Y-3586300D02*
G01*
X713699Y-3566700D01*
X736100Y-3544299D01*
X755700Y-3563899D01*
G37*
G36*
X663899Y-3555700D02*
G01*
X644299Y-3536100D01*
X666700Y-3513699D01*
X686300Y-3533299D01*
G37*
G36*
X633299Y-3586300D02*
G01*
X613699Y-3566700D01*
X636100Y-3544299D01*
X655700Y-3563899D01*
G37*
G36*
X563899Y-3555700D02*
G01*
X544299Y-3536100D01*
X566700Y-3513699D01*
X586300Y-3533299D01*
G37*
G36*
X533299Y-3586300D02*
G01*
X513699Y-3566700D01*
X536100Y-3544299D01*
X555700Y-3563899D01*
G37*
G36*
X963900Y-3555700D02*
G01*
X944300Y-3536100D01*
X966700Y-3513699D01*
X986300Y-3533299D01*
G37*
G36*
X933299Y-3586300D02*
G01*
X913699Y-3566700D01*
X936099Y-3544299D01*
X955699Y-3563899D01*
G37*
G36*
X1063900Y-3555700D02*
G01*
X1044300Y-3536100D01*
X1066700Y-3513699D01*
X1086300Y-3533299D01*
G37*
G36*
X1033299Y-3586300D02*
G01*
X1013699Y-3566700D01*
X1036099Y-3544299D01*
X1055699Y-3563899D01*
G37*
G36*
X1163900Y-3555700D02*
G01*
X1144300Y-3536100D01*
X1166700Y-3513699D01*
X1186300Y-3533299D01*
G37*
G36*
X1133299Y-3586300D02*
G01*
X1113699Y-3566700D01*
X1136099Y-3544299D01*
X1155699Y-3563899D01*
G37*
G36*
X1263900Y-3555700D02*
G01*
X1244300Y-3536100D01*
X1266700Y-3513699D01*
X1286300Y-3533299D01*
G37*
G36*
X1233299Y-3586300D02*
G01*
X1213699Y-3566700D01*
X1236099Y-3544299D01*
X1255699Y-3563899D01*
G37*
G36*
X863900Y-3455700D02*
G01*
X844300Y-3436100D01*
X866700Y-3413699D01*
X886300Y-3433299D01*
G37*
G36*
X833299Y-3486300D02*
G01*
X813699Y-3466700D01*
X836099Y-3444299D01*
X855699Y-3463899D01*
G37*
G36*
X763900Y-3455700D02*
G01*
X744299Y-3436100D01*
X766700Y-3413699D01*
X786300Y-3433299D01*
G37*
G36*
X733299Y-3486300D02*
G01*
X713699Y-3466700D01*
X736100Y-3444299D01*
X755700Y-3463899D01*
G37*
G36*
X663899Y-3455700D02*
G01*
X644299Y-3436100D01*
X666700Y-3413699D01*
X686300Y-3433299D01*
G37*
G36*
X633299Y-3486300D02*
G01*
X613699Y-3466700D01*
X636100Y-3444299D01*
X655700Y-3463899D01*
G37*
G36*
X563899Y-3455700D02*
G01*
X544299Y-3436100D01*
X566700Y-3413699D01*
X586300Y-3433299D01*
G37*
G36*
X533299Y-3486300D02*
G01*
X513699Y-3466700D01*
X536100Y-3444299D01*
X555700Y-3463899D01*
G37*
G36*
X963900Y-3455700D02*
G01*
X944300Y-3436100D01*
X966700Y-3413699D01*
X986300Y-3433299D01*
G37*
G36*
X933299Y-3486300D02*
G01*
X913699Y-3466700D01*
X936099Y-3444299D01*
X955699Y-3463899D01*
G37*
G36*
X1063900Y-3455700D02*
G01*
X1044300Y-3436100D01*
X1066700Y-3413699D01*
X1086300Y-3433299D01*
G37*
G36*
X1033299Y-3486300D02*
G01*
X1013699Y-3466700D01*
X1036099Y-3444299D01*
X1055699Y-3463899D01*
G37*
G36*
X1163900Y-3455700D02*
G01*
X1144300Y-3436100D01*
X1166700Y-3413699D01*
X1186300Y-3433299D01*
G37*
G36*
X1133299Y-3486300D02*
G01*
X1113699Y-3466700D01*
X1136099Y-3444299D01*
X1155699Y-3463899D01*
G37*
G36*
X1263900Y-3455700D02*
G01*
X1244300Y-3436100D01*
X1266700Y-3413699D01*
X1286300Y-3433299D01*
G37*
G36*
X1233299Y-3486300D02*
G01*
X1213699Y-3466700D01*
X1236099Y-3444299D01*
X1255699Y-3463899D01*
G37*
G36*
X863900Y-3355700D02*
G01*
X844300Y-3336100D01*
X866700Y-3313699D01*
X886300Y-3333299D01*
G37*
G36*
X833299Y-3386300D02*
G01*
X813699Y-3366700D01*
X836099Y-3344299D01*
X855699Y-3363899D01*
G37*
G36*
X763900Y-3355700D02*
G01*
X744299Y-3336100D01*
X766700Y-3313699D01*
X786300Y-3333299D01*
G37*
G36*
X733299Y-3386300D02*
G01*
X713699Y-3366700D01*
X736100Y-3344299D01*
X755700Y-3363899D01*
G37*
G36*
X663899Y-3355700D02*
G01*
X644299Y-3336100D01*
X666700Y-3313699D01*
X686300Y-3333299D01*
G37*
G36*
X633299Y-3386300D02*
G01*
X613699Y-3366700D01*
X636100Y-3344299D01*
X655700Y-3363899D01*
G37*
G36*
X563899Y-3355700D02*
G01*
X544299Y-3336100D01*
X566700Y-3313699D01*
X586300Y-3333299D01*
G37*
G36*
X533299Y-3386300D02*
G01*
X513699Y-3366700D01*
X536100Y-3344299D01*
X555700Y-3363899D01*
G37*
G36*
X963900Y-3355700D02*
G01*
X944300Y-3336100D01*
X966700Y-3313699D01*
X986300Y-3333299D01*
G37*
G36*
X933299Y-3386300D02*
G01*
X913699Y-3366700D01*
X936099Y-3344299D01*
X955699Y-3363899D01*
G37*
G36*
X1063900Y-3355700D02*
G01*
X1044300Y-3336100D01*
X1066700Y-3313699D01*
X1086300Y-3333299D01*
G37*
G36*
X1033299Y-3386300D02*
G01*
X1013699Y-3366700D01*
X1036099Y-3344299D01*
X1055699Y-3363899D01*
G37*
G36*
X1163900Y-3355700D02*
G01*
X1144300Y-3336100D01*
X1166700Y-3313699D01*
X1186300Y-3333299D01*
G37*
G36*
X1133299Y-3386300D02*
G01*
X1113699Y-3366700D01*
X1136099Y-3344299D01*
X1155699Y-3363899D01*
G37*
G36*
X1263900Y-3355700D02*
G01*
X1244300Y-3336100D01*
X1266700Y-3313699D01*
X1286300Y-3333299D01*
G37*
G36*
X1233299Y-3386300D02*
G01*
X1213699Y-3366700D01*
X1236099Y-3344299D01*
X1255699Y-3363899D01*
G37*
G36*
X1263900Y-3755700D02*
G01*
X1244300Y-3736100D01*
X1266700Y-3713699D01*
X1286300Y-3733299D01*
G37*
G36*
X1233299Y-3786300D02*
G01*
X1213699Y-3766700D01*
X1236099Y-3744299D01*
X1255699Y-3763899D01*
G37*
G36*
X1163900Y-3755700D02*
G01*
X1144300Y-3736100D01*
X1166700Y-3713699D01*
X1186300Y-3733299D01*
G37*
G36*
X1133299Y-3786300D02*
G01*
X1113699Y-3766700D01*
X1136099Y-3744299D01*
X1155699Y-3763899D01*
G37*
G36*
X1063900Y-3755700D02*
G01*
X1044300Y-3736100D01*
X1066700Y-3713699D01*
X1086300Y-3733299D01*
G37*
G36*
X1033299Y-3786300D02*
G01*
X1013699Y-3766700D01*
X1036099Y-3744299D01*
X1055699Y-3763899D01*
G37*
G36*
X963900Y-3755700D02*
G01*
X944300Y-3736100D01*
X966700Y-3713699D01*
X986300Y-3733299D01*
G37*
G36*
X933299Y-3786300D02*
G01*
X913699Y-3766700D01*
X936099Y-3744299D01*
X955699Y-3763899D01*
G37*
G36*
X563899Y-3755700D02*
G01*
X544299Y-3736100D01*
X566700Y-3713699D01*
X586300Y-3733299D01*
G37*
G36*
X533299Y-3786300D02*
G01*
X513699Y-3766700D01*
X536100Y-3744299D01*
X555700Y-3763899D01*
G37*
G36*
X663899Y-3755700D02*
G01*
X644299Y-3736100D01*
X666700Y-3713699D01*
X686300Y-3733299D01*
G37*
G36*
X633299Y-3786300D02*
G01*
X613699Y-3766700D01*
X636100Y-3744299D01*
X655700Y-3763899D01*
G37*
G36*
X763900Y-3755700D02*
G01*
X744299Y-3736100D01*
X766700Y-3713699D01*
X786300Y-3733299D01*
G37*
G36*
X733299Y-3786300D02*
G01*
X713699Y-3766700D01*
X736100Y-3744299D01*
X755700Y-3763899D01*
G37*
G36*
X863900Y-3755700D02*
G01*
X844300Y-3736100D01*
X866700Y-3713699D01*
X886300Y-3733299D01*
G37*
G36*
X833299Y-3786300D02*
G01*
X813699Y-3766700D01*
X836099Y-3744299D01*
X855699Y-3763899D01*
G37*
G36*
X1263900Y-3855700D02*
G01*
X1244300Y-3836100D01*
X1266700Y-3813699D01*
X1286300Y-3833299D01*
G37*
G36*
X1233299Y-3886300D02*
G01*
X1213699Y-3866700D01*
X1236099Y-3844299D01*
X1255699Y-3863899D01*
G37*
G36*
X1163900Y-3855700D02*
G01*
X1144300Y-3836100D01*
X1166700Y-3813699D01*
X1186300Y-3833299D01*
G37*
G36*
X1133299Y-3886300D02*
G01*
X1113699Y-3866700D01*
X1136099Y-3844299D01*
X1155699Y-3863899D01*
G37*
G36*
X1063900Y-3855700D02*
G01*
X1044300Y-3836100D01*
X1066700Y-3813699D01*
X1086300Y-3833299D01*
G37*
G36*
X1033299Y-3886300D02*
G01*
X1013699Y-3866700D01*
X1036099Y-3844299D01*
X1055699Y-3863899D01*
G37*
G36*
X963900Y-3855700D02*
G01*
X944300Y-3836100D01*
X966700Y-3813699D01*
X986300Y-3833299D01*
G37*
G36*
X933299Y-3886300D02*
G01*
X913699Y-3866700D01*
X936099Y-3844299D01*
X955699Y-3863899D01*
G37*
G36*
X563899Y-3855700D02*
G01*
X544299Y-3836100D01*
X566700Y-3813699D01*
X586300Y-3833299D01*
G37*
G36*
X533299Y-3886300D02*
G01*
X513699Y-3866700D01*
X536100Y-3844299D01*
X555700Y-3863899D01*
G37*
G36*
X663899Y-3855700D02*
G01*
X644299Y-3836100D01*
X666700Y-3813699D01*
X686300Y-3833299D01*
G37*
G36*
X633299Y-3886300D02*
G01*
X613699Y-3866700D01*
X636100Y-3844299D01*
X655700Y-3863899D01*
G37*
G36*
X763900Y-3855700D02*
G01*
X744299Y-3836100D01*
X766700Y-3813699D01*
X786300Y-3833299D01*
G37*
G36*
X733299Y-3886300D02*
G01*
X713699Y-3866700D01*
X736100Y-3844299D01*
X755700Y-3863899D01*
G37*
G36*
X863900Y-3855700D02*
G01*
X844300Y-3836100D01*
X866700Y-3813699D01*
X886300Y-3833299D01*
G37*
G36*
X833299Y-3886300D02*
G01*
X813699Y-3866700D01*
X836099Y-3844299D01*
X855699Y-3863899D01*
G37*
G36*
X1263900Y-3955700D02*
G01*
X1244300Y-3936100D01*
X1266700Y-3913699D01*
X1286300Y-3933299D01*
G37*
G36*
X1233299Y-3986300D02*
G01*
X1213699Y-3966700D01*
X1236099Y-3944299D01*
X1255699Y-3963899D01*
G37*
G36*
X1163900Y-3955700D02*
G01*
X1144300Y-3936100D01*
X1166700Y-3913699D01*
X1186300Y-3933299D01*
G37*
G36*
X1133299Y-3986300D02*
G01*
X1113699Y-3966700D01*
X1136099Y-3944299D01*
X1155699Y-3963899D01*
G37*
G36*
X1063900Y-3955700D02*
G01*
X1044300Y-3936100D01*
X1066700Y-3913699D01*
X1086300Y-3933299D01*
G37*
G36*
X1033299Y-3986300D02*
G01*
X1013699Y-3966700D01*
X1036099Y-3944299D01*
X1055699Y-3963899D01*
G37*
G36*
X963900Y-3955700D02*
G01*
X944300Y-3936100D01*
X966700Y-3913699D01*
X986300Y-3933299D01*
G37*
G36*
X933299Y-3986300D02*
G01*
X913699Y-3966700D01*
X936099Y-3944299D01*
X955699Y-3963899D01*
G37*
G36*
X563899Y-3955700D02*
G01*
X544299Y-3936100D01*
X566700Y-3913699D01*
X586300Y-3933299D01*
G37*
G36*
X533299Y-3986300D02*
G01*
X513699Y-3966700D01*
X536100Y-3944299D01*
X555700Y-3963899D01*
G37*
G36*
X663899Y-3955700D02*
G01*
X644299Y-3936100D01*
X666700Y-3913699D01*
X686300Y-3933299D01*
G37*
G36*
X633299Y-3986300D02*
G01*
X613699Y-3966700D01*
X636100Y-3944299D01*
X655700Y-3963899D01*
G37*
G36*
X763900Y-3955700D02*
G01*
X744299Y-3936100D01*
X766700Y-3913699D01*
X786300Y-3933299D01*
G37*
G36*
X733299Y-3986300D02*
G01*
X713699Y-3966700D01*
X736100Y-3944299D01*
X755700Y-3963899D01*
G37*
G36*
X863900Y-3955700D02*
G01*
X844300Y-3936100D01*
X866700Y-3913699D01*
X886300Y-3933299D01*
G37*
G36*
X833299Y-3986300D02*
G01*
X813699Y-3966700D01*
X836099Y-3944299D01*
X855699Y-3963899D01*
G37*
G36*
X863900Y-4055700D02*
G01*
X844300Y-4036100D01*
X866700Y-4013699D01*
X886300Y-4033299D01*
G37*
G36*
X833299Y-4086300D02*
G01*
X813699Y-4066700D01*
X836099Y-4044299D01*
X855699Y-4063899D01*
G37*
G36*
X763900Y-4055700D02*
G01*
X744299Y-4036100D01*
X766700Y-4013699D01*
X786300Y-4033299D01*
G37*
G36*
X733299Y-4086300D02*
G01*
X713699Y-4066700D01*
X736100Y-4044299D01*
X755700Y-4063899D01*
G37*
G36*
X663899Y-4055700D02*
G01*
X644299Y-4036100D01*
X666700Y-4013699D01*
X686300Y-4033299D01*
G37*
G36*
X633299Y-4086300D02*
G01*
X613699Y-4066700D01*
X636100Y-4044299D01*
X655700Y-4063899D01*
G37*
G36*
X563899Y-4055700D02*
G01*
X544299Y-4036100D01*
X566700Y-4013699D01*
X586300Y-4033299D01*
G37*
G36*
X533299Y-4086300D02*
G01*
X513699Y-4066700D01*
X536100Y-4044299D01*
X555700Y-4063899D01*
G37*
G36*
X963900Y-4055700D02*
G01*
X944300Y-4036100D01*
X966700Y-4013699D01*
X986300Y-4033299D01*
G37*
G36*
X933299Y-4086300D02*
G01*
X913699Y-4066700D01*
X936099Y-4044299D01*
X955699Y-4063899D01*
G37*
G36*
X1063900Y-4055700D02*
G01*
X1044300Y-4036100D01*
X1066700Y-4013699D01*
X1086300Y-4033299D01*
G37*
G36*
X1033299Y-4086300D02*
G01*
X1013699Y-4066700D01*
X1036099Y-4044299D01*
X1055699Y-4063899D01*
G37*
G36*
X1163900Y-4055700D02*
G01*
X1144300Y-4036100D01*
X1166700Y-4013699D01*
X1186300Y-4033299D01*
G37*
G36*
X1133299Y-4086300D02*
G01*
X1113699Y-4066700D01*
X1136099Y-4044299D01*
X1155699Y-4063899D01*
G37*
G36*
X1263900Y-4055700D02*
G01*
X1244300Y-4036100D01*
X1266700Y-4013699D01*
X1286300Y-4033299D01*
G37*
G36*
X1233299Y-4086300D02*
G01*
X1213699Y-4066700D01*
X1236099Y-4044299D01*
X1255699Y-4063899D01*
G37*
G36*
X1168100Y-5114600D02*
G01*
X1168100Y-5067300D01*
X1235100Y-5067300D01*
X1235100Y-5114600D01*
G37*
G36*
X1168100Y-5232700D02*
G01*
X1168100Y-5185400D01*
X1235100Y-5185400D01*
X1235100Y-5232700D01*
G37*
G36*
X1364899Y-5232700D02*
G01*
X1364899Y-5185400D01*
X1431999Y-5185400D01*
X1431999Y-5232700D01*
G37*
G36*
X1364899Y-5114600D02*
G01*
X1364899Y-5067300D01*
X1431999Y-5067300D01*
X1431999Y-5114600D01*
G37*
G36*
X1518100Y-5014600D02*
G01*
X1518100Y-4967300D01*
X1585100Y-4967300D01*
X1585100Y-5014600D01*
G37*
G36*
X1518100Y-5132700D02*
G01*
X1518100Y-5085400D01*
X1585100Y-5085400D01*
X1585100Y-5132700D01*
G37*
G36*
X1714899Y-5132700D02*
G01*
X1714899Y-5085400D01*
X1781999Y-5085400D01*
X1781999Y-5132700D01*
G37*
G36*
X1714899Y-5014600D02*
G01*
X1714899Y-4967300D01*
X1781999Y-4967300D01*
X1781999Y-5014600D01*
G37*
G36*
X1668100Y-4764600D02*
G01*
X1668100Y-4717300D01*
X1735100Y-4717300D01*
X1735100Y-4764600D01*
G37*
G36*
X1668100Y-4882700D02*
G01*
X1668100Y-4835400D01*
X1735100Y-4835400D01*
X1735100Y-4882700D01*
G37*
G36*
X1864899Y-4882700D02*
G01*
X1864899Y-4835400D01*
X1931999Y-4835400D01*
X1931999Y-4882700D01*
G37*
G36*
X1864899Y-4764600D02*
G01*
X1864899Y-4717300D01*
X1931999Y-4717300D01*
X1931999Y-4764600D01*
G37*
G36*
X1518100Y-4514600D02*
G01*
X1518100Y-4467300D01*
X1585100Y-4467300D01*
X1585100Y-4514600D01*
G37*
G36*
X1518100Y-4632700D02*
G01*
X1518100Y-4585400D01*
X1585100Y-4585400D01*
X1585100Y-4632700D01*
G37*
G36*
X1714899Y-4632700D02*
G01*
X1714899Y-4585400D01*
X1781999Y-4585400D01*
X1781999Y-4632700D01*
G37*
G36*
X1714899Y-4514600D02*
G01*
X1714899Y-4467300D01*
X1781999Y-4467300D01*
X1781999Y-4514600D01*
G37*
G36*
X1168100Y-4414600D02*
G01*
X1168100Y-4367300D01*
X1235100Y-4367300D01*
X1235100Y-4414600D01*
G37*
G36*
X1168100Y-4532700D02*
G01*
X1168100Y-4485400D01*
X1235100Y-4485400D01*
X1235100Y-4532700D01*
G37*
G36*
X1364899Y-4532700D02*
G01*
X1364899Y-4485400D01*
X1431999Y-4485400D01*
X1431999Y-4532700D01*
G37*
G36*
X1364899Y-4414600D02*
G01*
X1364899Y-4367300D01*
X1431999Y-4367300D01*
X1431999Y-4414600D01*
G37*
G36*
X818100Y-4514600D02*
G01*
X818100Y-4467300D01*
X885100Y-4467300D01*
X885100Y-4514600D01*
G37*
G36*
X818100Y-4632700D02*
G01*
X818100Y-4585400D01*
X885100Y-4585400D01*
X885100Y-4632700D01*
G37*
G36*
X1014899Y-4632700D02*
G01*
X1014899Y-4585400D01*
X1081999Y-4585400D01*
X1081999Y-4632700D01*
G37*
G36*
X1014899Y-4514600D02*
G01*
X1014899Y-4467300D01*
X1081999Y-4467300D01*
X1081999Y-4514600D01*
G37*
G36*
X668099Y-4764600D02*
G01*
X668099Y-4717300D01*
X735100Y-4717300D01*
X735100Y-4764600D01*
G37*
G36*
X668099Y-4882700D02*
G01*
X668099Y-4835400D01*
X735100Y-4835400D01*
X735100Y-4882700D01*
G37*
G36*
X864899Y-4882700D02*
G01*
X864899Y-4835400D01*
X931999Y-4835400D01*
X931999Y-4882700D01*
G37*
G36*
X864899Y-4764600D02*
G01*
X864899Y-4717300D01*
X931999Y-4717300D01*
X931999Y-4764600D01*
G37*
G36*
X818100Y-5014600D02*
G01*
X818100Y-4967300D01*
X885100Y-4967300D01*
X885100Y-5014600D01*
G37*
G36*
X818100Y-5132700D02*
G01*
X818100Y-5085400D01*
X885100Y-5085400D01*
X885100Y-5132700D01*
G37*
G36*
X1014899Y-5132700D02*
G01*
X1014899Y-5085400D01*
X1081999Y-5085400D01*
X1081999Y-5132700D01*
G37*
G36*
X1014899Y-5014600D02*
G01*
X1014899Y-4967300D01*
X1081999Y-4967300D01*
X1081999Y-5014600D01*
G37*
G36*
X803000Y-1785999D02*
G01*
X803000Y-1728000D01*
X911000Y-1728000D01*
X911000Y-1785999D01*
G37*
G36*
X803000Y-1708000D02*
G01*
X803000Y-1650000D01*
X911000Y-1650000D01*
X911000Y-1708000D01*
G37*
G36*
X803000Y-1629000D02*
G01*
X803000Y-1570999D01*
X911000Y-1570999D01*
X911000Y-1629000D01*
G37*
G36*
X803000Y-1550000D02*
G01*
X803000Y-1491999D01*
X911000Y-1491999D01*
X911000Y-1550000D01*
G37*
G36*
X803000Y-1471999D02*
G01*
X803000Y-1414000D01*
X911000Y-1414000D01*
X911000Y-1471999D01*
G37*
G36*
X369000Y-1471999D02*
G01*
X369000Y-1414000D01*
X476999Y-1414000D01*
X476999Y-1471999D01*
G37*
G36*
X369000Y-1550000D02*
G01*
X369000Y-1491999D01*
X476999Y-1491999D01*
X476999Y-1550000D01*
G37*
G36*
X369000Y-1629000D02*
G01*
X369000Y-1570999D01*
X476999Y-1570999D01*
X476999Y-1629000D01*
G37*
G36*
X369000Y-1708000D02*
G01*
X369000Y-1650000D01*
X476999Y-1650000D01*
X476999Y-1708000D01*
G37*
G36*
X369000Y-1785999D02*
G01*
X369000Y-1728000D01*
X476999Y-1728000D01*
X476999Y-1785999D01*
G37*
G36*
X182399Y1038200D02*
G01*
X182399Y1060300D01*
X267399Y1060300D01*
X267399Y1038200D01*
G37*
G36*
X182399Y1063800D02*
G01*
X182399Y1085799D01*
X267399Y1085799D01*
X267399Y1063800D01*
G37*
G36*
X182399Y1089400D02*
G01*
X182399Y1111399D01*
X267399Y1111399D01*
X267399Y1089400D01*
G37*
G36*
X182399Y1115000D02*
G01*
X182399Y1136999D01*
X267399Y1136999D01*
X267399Y1115000D01*
G37*
G36*
X182399Y1140599D02*
G01*
X182399Y1162600D01*
X267399Y1162600D01*
X267399Y1140599D01*
G37*
G36*
X27500Y1001700D02*
G01*
X27500Y1072699D01*
X82699Y1072699D01*
X82699Y1001700D01*
G37*
G36*
X28099Y1130799D02*
G01*
X28099Y1201799D01*
X83400Y1201799D01*
X83400Y1130799D01*
G37*
D90*
G01*
X193989Y1195470D03*
G01*
X193989Y1004529D03*
G36*
X1117500Y-528800D02*
G01*
X1117500Y-501199D01*
X1149200Y-501199D01*
X1149200Y-528800D01*
G37*
G36*
X1160799Y-528800D02*
G01*
X1160799Y-501199D01*
X1192500Y-501199D01*
X1192500Y-528800D01*
G37*
G36*
X182399Y-761799D02*
G01*
X182399Y-739699D01*
X267399Y-739699D01*
X267399Y-761799D01*
G37*
G36*
X182399Y-736199D02*
G01*
X182399Y-714200D01*
X267399Y-714200D01*
X267399Y-736199D01*
G37*
G36*
X182399Y-710599D02*
G01*
X182399Y-688600D01*
X267399Y-688600D01*
X267399Y-710599D01*
G37*
G36*
X182399Y-685000D02*
G01*
X182399Y-663000D01*
X267399Y-663000D01*
X267399Y-685000D01*
G37*
G36*
X182399Y-659400D02*
G01*
X182399Y-637399D01*
X267399Y-637399D01*
X267399Y-659400D01*
G37*
G36*
X27500Y-798299D02*
G01*
X27500Y-727300D01*
X82699Y-727300D01*
X82699Y-798299D01*
G37*
G36*
X28099Y-669200D02*
G01*
X28099Y-598200D01*
X83400Y-598200D01*
X83400Y-669200D01*
G37*
G01*
X193989Y-604529D03*
G01*
X193989Y-795470D03*
G36*
X1137500Y-1433800D02*
G01*
X1137500Y-1406199D01*
X1169200Y-1406199D01*
X1169200Y-1433800D01*
G37*
G36*
X1180799Y-1433800D02*
G01*
X1180799Y-1406199D01*
X1212500Y-1406199D01*
X1212500Y-1433800D01*
G37*
G36*
X182399Y-1661799D02*
G01*
X182399Y-1639699D01*
X267399Y-1639699D01*
X267399Y-1661799D01*
G37*
G36*
X182399Y-1636199D02*
G01*
X182399Y-1614200D01*
X267399Y-1614200D01*
X267399Y-1636199D01*
G37*
G36*
X182399Y-1610599D02*
G01*
X182399Y-1588600D01*
X267399Y-1588600D01*
X267399Y-1610599D01*
G37*
G36*
X182399Y-1585000D02*
G01*
X182399Y-1563000D01*
X267399Y-1563000D01*
X267399Y-1585000D01*
G37*
G36*
X182399Y-1559400D02*
G01*
X182399Y-1537399D01*
X267399Y-1537399D01*
X267399Y-1559400D01*
G37*
G36*
X27500Y-1698299D02*
G01*
X27500Y-1627300D01*
X82699Y-1627300D01*
X82699Y-1698299D01*
G37*
G36*
X28099Y-1569200D02*
G01*
X28099Y-1498200D01*
X83400Y-1498200D01*
X83400Y-1569200D01*
G37*
G01*
X193989Y-1504529D03*
G01*
X193989Y-1695470D03*
G36*
X182399Y-4861799D02*
G01*
X182399Y-4839699D01*
X267399Y-4839699D01*
X267399Y-4861799D01*
G37*
G36*
X182399Y-4836199D02*
G01*
X182399Y-4814200D01*
X267399Y-4814200D01*
X267399Y-4836199D01*
G37*
G36*
X182399Y-4810599D02*
G01*
X182399Y-4788600D01*
X267399Y-4788600D01*
X267399Y-4810599D01*
G37*
G36*
X182399Y-4785000D02*
G01*
X182399Y-4763000D01*
X267399Y-4763000D01*
X267399Y-4785000D01*
G37*
G36*
X182399Y-4759400D02*
G01*
X182399Y-4737399D01*
X267399Y-4737399D01*
X267399Y-4759400D01*
G37*
G36*
X27500Y-4898299D02*
G01*
X27500Y-4827300D01*
X82699Y-4827300D01*
X82699Y-4898299D01*
G37*
G36*
X28099Y-4769200D02*
G01*
X28099Y-4698200D01*
X83400Y-4698200D01*
X83400Y-4769200D01*
G37*
G01*
X193989Y-4704530D03*
G01*
X193989Y-4895470D03*
G36*
X822500Y-2248800D02*
G01*
X822500Y-2221199D01*
X854200Y-2221199D01*
X854200Y-2248800D01*
G37*
G36*
X865799Y-2248800D02*
G01*
X865799Y-2221199D01*
X897500Y-2221199D01*
X897500Y-2248800D01*
G37*
G36*
X182399Y-2661799D02*
G01*
X182399Y-2639699D01*
X267399Y-2639699D01*
X267399Y-2661799D01*
G37*
G36*
X182399Y-2636199D02*
G01*
X182399Y-2614200D01*
X267399Y-2614200D01*
X267399Y-2636199D01*
G37*
G36*
X182399Y-2610599D02*
G01*
X182399Y-2588600D01*
X267399Y-2588600D01*
X267399Y-2610599D01*
G37*
G36*
X182399Y-2585000D02*
G01*
X182399Y-2563000D01*
X267399Y-2563000D01*
X267399Y-2585000D01*
G37*
G36*
X182399Y-2559400D02*
G01*
X182399Y-2537399D01*
X267399Y-2537399D01*
X267399Y-2559400D01*
G37*
G36*
X27500Y-2698299D02*
G01*
X27500Y-2627300D01*
X82699Y-2627300D01*
X82699Y-2698299D01*
G37*
G36*
X28099Y-2569200D02*
G01*
X28099Y-2498200D01*
X83400Y-2498200D01*
X83400Y-2569200D01*
G37*
G01*
X193989Y-2504529D03*
G01*
X193989Y-2695470D03*
G36*
X2205799Y50199D02*
G01*
X2205799Y89699D01*
X2233500Y89699D01*
X2233500Y50199D01*
G37*
G36*
X2166400Y50199D02*
G01*
X2166400Y89699D01*
X2194099Y89699D01*
X2194099Y50199D01*
G37*
G36*
X1855799Y50199D02*
G01*
X1855799Y89699D01*
X1883500Y89699D01*
X1883500Y50199D01*
G37*
G36*
X1816400Y50199D02*
G01*
X1816400Y89699D01*
X1844099Y89699D01*
X1844099Y50199D01*
G37*
G36*
X1505799Y50199D02*
G01*
X1505799Y89699D01*
X1533500Y89699D01*
X1533500Y50199D01*
G37*
G36*
X1466400Y50199D02*
G01*
X1466400Y89699D01*
X1494099Y89699D01*
X1494099Y50199D01*
G37*
G36*
X390300Y1106500D02*
G01*
X390300Y1134099D01*
X429800Y1134099D01*
X429800Y1106500D01*
G37*
G36*
X390300Y1145799D02*
G01*
X390300Y1173499D01*
X429800Y1173499D01*
X429800Y1145799D01*
G37*
G36*
X1505900Y-849800D02*
G01*
X1505900Y-810300D01*
X1533599Y-810300D01*
X1533599Y-849800D01*
G37*
G36*
X1466499Y-849800D02*
G01*
X1466499Y-810300D01*
X1494200Y-810300D01*
X1494200Y-849800D01*
G37*
G36*
X1855900Y-849800D02*
G01*
X1855900Y-810300D01*
X1883599Y-810300D01*
X1883599Y-849800D01*
G37*
G36*
X1816499Y-849800D02*
G01*
X1816499Y-810300D01*
X1844200Y-810300D01*
X1844200Y-849800D01*
G37*
G36*
X2205900Y-849800D02*
G01*
X2205900Y-810300D01*
X2233599Y-810300D01*
X2233599Y-849800D01*
G37*
G36*
X2166499Y-849800D02*
G01*
X2166499Y-810300D01*
X2194200Y-810300D01*
X2194200Y-849800D01*
G37*
G36*
X1376499Y-1769699D02*
G01*
X1376499Y-1730300D01*
X1404200Y-1730300D01*
X1404200Y-1769699D01*
G37*
G36*
X1415799Y-1769699D02*
G01*
X1415799Y-1730300D01*
X1443500Y-1730300D01*
X1443500Y-1769699D01*
G37*
G36*
X1616499Y-1769800D02*
G01*
X1616499Y-1730300D01*
X1644200Y-1730300D01*
X1644200Y-1769800D01*
G37*
G36*
X1655900Y-1769800D02*
G01*
X1655900Y-1730300D01*
X1683599Y-1730300D01*
X1683599Y-1769800D01*
G37*
G36*
X1856499Y-1769800D02*
G01*
X1856499Y-1730300D01*
X1884200Y-1730300D01*
X1884200Y-1769800D01*
G37*
G36*
X1895900Y-1769800D02*
G01*
X1895900Y-1730300D01*
X1923599Y-1730300D01*
X1923599Y-1769800D01*
G37*
G36*
X2380299Y-5024200D02*
G01*
X2380299Y-4996500D01*
X2419700Y-4996500D01*
X2419700Y-5024200D01*
G37*
G36*
X2380299Y-5063499D02*
G01*
X2380299Y-5035799D01*
X2419700Y-5035799D01*
X2419700Y-5063499D01*
G37*
G36*
X2380299Y-4794200D02*
G01*
X2380299Y-4766500D01*
X2419700Y-4766500D01*
X2419700Y-4794200D01*
G37*
G36*
X2380299Y-4833499D02*
G01*
X2380299Y-4805799D01*
X2419700Y-4805799D01*
X2419700Y-4833499D01*
G37*
G36*
X2380299Y-4559200D02*
G01*
X2380299Y-4531500D01*
X2419700Y-4531500D01*
X2419700Y-4559200D01*
G37*
G36*
X2380299Y-4598499D02*
G01*
X2380299Y-4570799D01*
X2419700Y-4570799D01*
X2419700Y-4598499D01*
G37*
G36*
X2385299Y-2794200D02*
G01*
X2385299Y-2766500D01*
X2424700Y-2766500D01*
X2424700Y-2794200D01*
G37*
G36*
X2385299Y-2833499D02*
G01*
X2385299Y-2805799D01*
X2424700Y-2805799D01*
X2424700Y-2833499D01*
G37*
G36*
X2380299Y-2394200D02*
G01*
X2380299Y-2366500D01*
X2419700Y-2366500D01*
X2419700Y-2394200D01*
G37*
G36*
X2380299Y-2433499D02*
G01*
X2380299Y-2405799D01*
X2419700Y-2405799D01*
X2419700Y-2433499D01*
G37*
G36*
X446500Y290300D02*
G01*
X446500Y329699D01*
X474200Y329699D01*
X474200Y290300D01*
G37*
G36*
X485799Y290300D02*
G01*
X485799Y329699D01*
X513499Y329699D01*
X513499Y290300D01*
G37*
G36*
X1616499Y-4699699D02*
G01*
X1616499Y-4660300D01*
X1644200Y-4660300D01*
X1644200Y-4699699D01*
G37*
G36*
X1655799Y-4699699D02*
G01*
X1655799Y-4660300D01*
X1683500Y-4660300D01*
X1683500Y-4699699D01*
G37*
G36*
X921499Y-4704699D02*
G01*
X921499Y-4665300D01*
X949200Y-4665300D01*
X949200Y-4704699D01*
G37*
G36*
X960799Y-4704699D02*
G01*
X960799Y-4665300D01*
X988500Y-4665300D01*
X988500Y-4704699D01*
G37*
G36*
X1616400Y-4819699D02*
G01*
X1616400Y-4780200D01*
X1644099Y-4780200D01*
X1644099Y-4819699D01*
G37*
G36*
X1655799Y-4819699D02*
G01*
X1655799Y-4780200D01*
X1683500Y-4780200D01*
X1683500Y-4819699D01*
G37*
G36*
X1616499Y-4939699D02*
G01*
X1616499Y-4900300D01*
X1644200Y-4900300D01*
X1644200Y-4939699D01*
G37*
G36*
X1655799Y-4939699D02*
G01*
X1655799Y-4900300D01*
X1683500Y-4900300D01*
X1683500Y-4939699D01*
G37*
G36*
X1121499Y-4579699D02*
G01*
X1121499Y-4540300D01*
X1149200Y-4540300D01*
X1149200Y-4579699D01*
G37*
G36*
X1160799Y-4579699D02*
G01*
X1160799Y-4540300D01*
X1188500Y-4540300D01*
X1188500Y-4579699D01*
G37*
G36*
X1266499Y-5034699D02*
G01*
X1266499Y-4995300D01*
X1294200Y-4995300D01*
X1294200Y-5034699D01*
G37*
G36*
X1305799Y-5034699D02*
G01*
X1305799Y-4995300D01*
X1333500Y-4995300D01*
X1333500Y-5034699D01*
G37*
G36*
X955799Y-4824699D02*
G01*
X955799Y-4785300D01*
X983500Y-4785300D01*
X983500Y-4824699D01*
G37*
G36*
X916499Y-4824699D02*
G01*
X916499Y-4785300D01*
X944200Y-4785300D01*
X944200Y-4824699D01*
G37*
G36*
X916499Y-4934699D02*
G01*
X916499Y-4895300D01*
X944200Y-4895300D01*
X944200Y-4934699D01*
G37*
G36*
X955799Y-4934699D02*
G01*
X955799Y-4895300D01*
X983500Y-4895300D01*
X983500Y-4934699D01*
G37*
D91*
G01*
X2445000Y-865000D03*
D92*
G01*
X2445000Y-765000D03*
G36*
X700300Y-579200D02*
G01*
X700300Y-551500D01*
X739699Y-551500D01*
X739699Y-579200D01*
G37*
G36*
X700300Y-618499D02*
G01*
X700300Y-590799D01*
X739699Y-590799D01*
X739699Y-618499D01*
G37*
G36*
X476999Y-692899D02*
G01*
X476999Y-637199D01*
X570900Y-637199D01*
X570900Y-692899D01*
G37*
G36*
X476999Y-790900D02*
G01*
X476999Y-735199D01*
X570900Y-735199D01*
X570900Y-790900D01*
G37*
G36*
X476999Y-594899D02*
G01*
X476999Y-539200D01*
X570900Y-539200D01*
X570900Y-594899D01*
G37*
G36*
X2215000Y-3085000D02*
G01*
X2215000Y-3015000D01*
X2285000Y-3015000D01*
X2285000Y-3085000D01*
G37*
D74*
G01*
X2150000Y-3050000D03*
G01*
X2050000Y-3050000D03*
G01*
X1950000Y-3050000D03*
G36*
X1915000Y-2185000D02*
G01*
X1915000Y-2115000D01*
X1985000Y-2115000D01*
X1985000Y-2185000D01*
G37*
G01*
X2050000Y-2150000D03*
G01*
X2150000Y-2150000D03*
G01*
X2250000Y-2150000D03*
G36*
X2215000Y-4185000D02*
G01*
X2215000Y-4115000D01*
X2285000Y-4115000D01*
X2285000Y-4185000D01*
G37*
G01*
X2150000Y-4150000D03*
G01*
X2050000Y-4150000D03*
G01*
X1950000Y-4150000D03*
G36*
X1915000Y-3285000D02*
G01*
X1915000Y-3215000D01*
X1985000Y-3215000D01*
X1985000Y-3285000D01*
G37*
G01*
X2050000Y-3250000D03*
G01*
X2150000Y-3250000D03*
G01*
X2250000Y-3250000D03*
G36*
X1815000Y-1285000D02*
G01*
X1815000Y-1215000D01*
X1885000Y-1215000D01*
X1885000Y-1285000D01*
G37*
G01*
X1950000Y-1250000D03*
G01*
X2050000Y-1250000D03*
G01*
X2150000Y-1250000D03*
G36*
X2115000Y-1985000D02*
G01*
X2115000Y-1915000D01*
X2185000Y-1915000D01*
X2185000Y-1985000D01*
G37*
G01*
X2050000Y-1950000D03*
G01*
X1950000Y-1950000D03*
G01*
X1850000Y-1950000D03*
G36*
X1915000Y-4385000D02*
G01*
X1915000Y-4315000D01*
X1985000Y-4315000D01*
X1985000Y-4385000D01*
G37*
G01*
X2050000Y-4350000D03*
G01*
X2150000Y-4350000D03*
G01*
X2250000Y-4350000D03*
G36*
X2215000Y-5285000D02*
G01*
X2215000Y-5215000D01*
X2285000Y-5215000D01*
X2285000Y-5285000D01*
G37*
G01*
X2150000Y-5250000D03*
G01*
X2050000Y-5250000D03*
G01*
X1950000Y-5250000D03*
G36*
X1815000Y515000D02*
G01*
X1815000Y585000D01*
X1885000Y585000D01*
X1885000Y515000D01*
G37*
G01*
X1950000Y550000D03*
G01*
X2050000Y550000D03*
G01*
X2150000Y550000D03*
G36*
X2115000Y-185000D02*
G01*
X2115000Y-115000D01*
X2185000Y-115000D01*
X2185000Y-185000D01*
G37*
G01*
X2050000Y-150000D03*
G01*
X1950000Y-150000D03*
G01*
X1850000Y-150000D03*
G36*
X2115000Y715000D02*
G01*
X2115000Y785000D01*
X2185000Y785000D01*
X2185000Y715000D01*
G37*
G01*
X2050000Y750000D03*
G01*
X1950000Y750000D03*
G01*
X1850000Y750000D03*
G36*
X1815000Y1415000D02*
G01*
X1815000Y1485000D01*
X1885000Y1485000D01*
X1885000Y1415000D01*
G37*
G01*
X1950000Y1450000D03*
G01*
X2050000Y1450000D03*
G01*
X2150000Y1450000D03*
G36*
X2115000Y-1085000D02*
G01*
X2115000Y-1015000D01*
X2185000Y-1015000D01*
X2185000Y-1085000D01*
G37*
G01*
X2050000Y-1050000D03*
G01*
X1950000Y-1050000D03*
G01*
X1850000Y-1050000D03*
G36*
X1815000Y-385000D02*
G01*
X1815000Y-315000D01*
X1885000Y-315000D01*
X1885000Y-385000D01*
G37*
G01*
X1950000Y-350000D03*
G01*
X2050000Y-350000D03*
G01*
X2150000Y-350000D03*
G36*
X181900Y34600D02*
G01*
X181900Y89800D01*
X288299Y89800D01*
X288299Y34600D01*
G37*
G36*
X181900Y133000D02*
G01*
X181900Y188200D01*
X288299Y188200D01*
X288299Y133000D01*
G37*
G36*
X181900Y211700D02*
G01*
X181900Y266999D01*
X288299Y266999D01*
X288299Y211700D01*
G37*
G36*
X181900Y310199D02*
G01*
X181900Y365399D01*
X288299Y365399D01*
X288299Y310199D01*
G37*
M02*
