G04 Layer: TopPasteMaskLayer*
G04 EasyEDA v6.4.17, 2021-03-02T21:30:00+01:00*
G04 52dc7113b7e944b1bde967162dfd0e84,9c416354eb984020824aaf9c885bead6,10*
G04 Gerber Generator version 0.2*
G04 Scale: 100 percent, Rotated: No, Reflected: No *
G04 Dimensions in inches *
G04 leading zeros omitted , absolute positions ,3 integer and 6 decimal *
%FSLAX36Y36*%
%MOIN*%

%ADD13C,0.0256*%
%ADD14C,0.0236*%
%ADD16R,0.0197X0.0315*%
%ADD17R,0.0315X0.0197*%
%ADD18R,0.0315X0.0354*%
%ADD19R,0.0787X0.0433*%
%ADD20R,0.0433X0.0787*%
%ADD21R,0.0157X0.0217*%
%ADD22R,0.0098X0.0217*%
%ADD24R,0.0390X0.0430*%
%ADD26R,0.0591X0.0354*%
%ADD27R,0.0492X0.0276*%
%ADD29R,0.0236X0.0197*%
%ADD30R,0.1772X0.1575*%
%ADD31R,0.0472X0.0236*%
%ADD32R,0.0217X0.0157*%
%ADD33R,0.0217X0.0098*%
%ADD34R,0.0551X0.0354*%
%ADD36R,0.1000X0.0500*%
%ADD37R,0.0787X0.0157*%
%ADD38R,0.0472X0.0630*%
%ADD39R,0.0984X0.0472*%

%LPD*%
D13*
X1125001Y990000D02*
G01*
X1166338Y990000D01*
X1125001Y1040000D02*
G01*
X1166338Y1040000D01*
X1125001Y1090000D02*
G01*
X1166338Y1090000D01*
X1125001Y1140000D02*
G01*
X1166338Y1140000D01*
X833661Y990000D02*
G01*
X874998Y990000D01*
X833661Y1040000D02*
G01*
X874998Y1040000D01*
X833661Y1090000D02*
G01*
X874998Y1090000D01*
X833661Y1140000D02*
G01*
X874998Y1140000D01*
X1110001Y90000D02*
G01*
X1151338Y90000D01*
X1110001Y140000D02*
G01*
X1151338Y140000D01*
X1110001Y190000D02*
G01*
X1151338Y190000D01*
X1110001Y240000D02*
G01*
X1151338Y240000D01*
X818661Y90000D02*
G01*
X859998Y90000D01*
X818661Y140000D02*
G01*
X859998Y140000D01*
X818661Y190000D02*
G01*
X859998Y190000D01*
X818661Y240000D02*
G01*
X859998Y240000D01*
D14*
X2137401Y-3975000D02*
G01*
X2192519Y-3975000D01*
X2137401Y-3925000D02*
G01*
X2192519Y-3925000D01*
X2137401Y-3875000D02*
G01*
X2192519Y-3875000D01*
X2137401Y-3825000D02*
G01*
X2192519Y-3825000D01*
X2137401Y-3775000D02*
G01*
X2192519Y-3775000D01*
X2137401Y-3725000D02*
G01*
X2192519Y-3725000D01*
X2137401Y-3675000D02*
G01*
X2192519Y-3675000D01*
X2137401Y-3625000D02*
G01*
X2192519Y-3625000D01*
X2137401Y-3575000D02*
G01*
X2192519Y-3575000D01*
X2137401Y-3525000D02*
G01*
X2192519Y-3525000D01*
X2137401Y-3475000D02*
G01*
X2192519Y-3475000D01*
X2137401Y-3425000D02*
G01*
X2192519Y-3425000D01*
X2507480Y-3425000D02*
G01*
X2562599Y-3425000D01*
X2507480Y-3475000D02*
G01*
X2562599Y-3475000D01*
X2507480Y-3525000D02*
G01*
X2562599Y-3525000D01*
X2507480Y-3575000D02*
G01*
X2562599Y-3575000D01*
X2507480Y-3625000D02*
G01*
X2562599Y-3625000D01*
X2507480Y-3675000D02*
G01*
X2562599Y-3675000D01*
X2507480Y-3725000D02*
G01*
X2562599Y-3725000D01*
X2507480Y-3775000D02*
G01*
X2562599Y-3775000D01*
X2507480Y-3825000D02*
G01*
X2562599Y-3825000D01*
X2507480Y-3875000D02*
G01*
X2562599Y-3875000D01*
X2507480Y-3925000D02*
G01*
X2562599Y-3925000D01*
X2507480Y-3975000D02*
G01*
X2562599Y-3975000D01*
X462599Y-3425000D02*
G01*
X407480Y-3425000D01*
X462599Y-3475000D02*
G01*
X407480Y-3475000D01*
X462599Y-3525000D02*
G01*
X407480Y-3525000D01*
X462599Y-3575000D02*
G01*
X407480Y-3575000D01*
X462599Y-3625000D02*
G01*
X407480Y-3625000D01*
X462599Y-3675000D02*
G01*
X407480Y-3675000D01*
X462599Y-3725000D02*
G01*
X407480Y-3725000D01*
X462599Y-3775000D02*
G01*
X407480Y-3775000D01*
X462599Y-3825000D02*
G01*
X407480Y-3825000D01*
X462599Y-3875000D02*
G01*
X407480Y-3875000D01*
X462599Y-3925000D02*
G01*
X407480Y-3925000D01*
X462599Y-3975000D02*
G01*
X407480Y-3975000D01*
X92519Y-3975000D02*
G01*
X37400Y-3975000D01*
X92519Y-3925000D02*
G01*
X37400Y-3925000D01*
X92519Y-3875000D02*
G01*
X37400Y-3875000D01*
X92519Y-3825000D02*
G01*
X37400Y-3825000D01*
X92519Y-3775000D02*
G01*
X37400Y-3775000D01*
X92519Y-3725000D02*
G01*
X37400Y-3725000D01*
X92519Y-3675000D02*
G01*
X37400Y-3675000D01*
X92519Y-3625000D02*
G01*
X37400Y-3625000D01*
X92519Y-3575000D02*
G01*
X37400Y-3575000D01*
X92519Y-3525000D02*
G01*
X37400Y-3525000D01*
X92519Y-3475000D02*
G01*
X37400Y-3475000D01*
X92519Y-3425000D02*
G01*
X37400Y-3425000D01*
X610241Y-2725000D02*
G01*
X574020Y-2725000D01*
X610241Y-2775000D02*
G01*
X574020Y-2775000D01*
X610241Y-2825000D02*
G01*
X574020Y-2825000D01*
X610241Y-2875000D02*
G01*
X574020Y-2875000D01*
X825981Y-2725000D02*
G01*
X789759Y-2725000D01*
X825981Y-2775000D02*
G01*
X789759Y-2775000D01*
X825981Y-2825000D02*
G01*
X789759Y-2825000D01*
X825981Y-2875000D02*
G01*
X789759Y-2875000D01*
D13*
X1115001Y-755000D02*
G01*
X1156338Y-755000D01*
X1115001Y-705000D02*
G01*
X1156338Y-705000D01*
X1115001Y-655000D02*
G01*
X1156338Y-655000D01*
X1115001Y-605000D02*
G01*
X1156338Y-605000D01*
X823661Y-755000D02*
G01*
X864998Y-755000D01*
X823661Y-705000D02*
G01*
X864998Y-705000D01*
X823661Y-655000D02*
G01*
X864998Y-655000D01*
X823661Y-605000D02*
G01*
X864998Y-605000D01*
X1230001Y-1660000D02*
G01*
X1271338Y-1660000D01*
X1230001Y-1610000D02*
G01*
X1271338Y-1610000D01*
X1230001Y-1560000D02*
G01*
X1271338Y-1560000D01*
X1230001Y-1510000D02*
G01*
X1271338Y-1510000D01*
X938661Y-1660000D02*
G01*
X979998Y-1660000D01*
X938661Y-1610000D02*
G01*
X979998Y-1610000D01*
X938661Y-1560000D02*
G01*
X979998Y-1560000D01*
X938661Y-1510000D02*
G01*
X979998Y-1510000D01*
X1425001Y-4875000D02*
G01*
X1466338Y-4875000D01*
X1425001Y-4825000D02*
G01*
X1466338Y-4825000D01*
X1425001Y-4775000D02*
G01*
X1466338Y-4775000D01*
X1425001Y-4725000D02*
G01*
X1466338Y-4725000D01*
X1133661Y-4875000D02*
G01*
X1174998Y-4875000D01*
X1133661Y-4825000D02*
G01*
X1174998Y-4825000D01*
X1133661Y-4775000D02*
G01*
X1174998Y-4775000D01*
X1133661Y-4725000D02*
G01*
X1174998Y-4725000D01*
X825001Y-2475000D02*
G01*
X866338Y-2475000D01*
X825001Y-2425000D02*
G01*
X866338Y-2425000D01*
X825001Y-2375000D02*
G01*
X866338Y-2375000D01*
X825001Y-2325000D02*
G01*
X866338Y-2325000D01*
X533661Y-2475000D02*
G01*
X574998Y-2475000D01*
X533661Y-2425000D02*
G01*
X574998Y-2425000D01*
X533661Y-2375000D02*
G01*
X574998Y-2375000D01*
X533661Y-2325000D02*
G01*
X574998Y-2325000D01*
G36*
X659843Y240747D02*
G01*
X679528Y240747D01*
X679528Y209252D01*
X659843Y209252D01*
G37*
G36*
X620473Y240747D02*
G01*
X640158Y240747D01*
X640158Y209252D01*
X620473Y209252D01*
G37*
G36*
X659900Y185734D02*
G01*
X679585Y185734D01*
X679585Y154238D01*
X659900Y154238D01*
G37*
G36*
X620531Y185734D02*
G01*
X640216Y185734D01*
X640216Y154238D01*
X620531Y154238D01*
G37*
G36*
X1244843Y255747D02*
G01*
X1264528Y255747D01*
X1264528Y224252D01*
X1244843Y224252D01*
G37*
G36*
X1205473Y255747D02*
G01*
X1225158Y255747D01*
X1225158Y224252D01*
X1205473Y224252D01*
G37*
G36*
X1244900Y200734D02*
G01*
X1264585Y200734D01*
X1264585Y169238D01*
X1244900Y169238D01*
G37*
G36*
X1205531Y200734D02*
G01*
X1225216Y200734D01*
X1225216Y169238D01*
X1205531Y169238D01*
G37*
G36*
X1244843Y145747D02*
G01*
X1264528Y145747D01*
X1264528Y114252D01*
X1244843Y114252D01*
G37*
G36*
X1205473Y145747D02*
G01*
X1225158Y145747D01*
X1225158Y114252D01*
X1205473Y114252D01*
G37*
D17*
G01*
X410059Y975300D03*
G01*
X410059Y1014670D03*
G36*
X1249843Y1160747D02*
G01*
X1269528Y1160747D01*
X1269528Y1129252D01*
X1249843Y1129252D01*
G37*
G36*
X1210473Y1160747D02*
G01*
X1230158Y1160747D01*
X1230158Y1129252D01*
X1210473Y1129252D01*
G37*
G36*
X1249900Y1105734D02*
G01*
X1269585Y1105734D01*
X1269585Y1074238D01*
X1249900Y1074238D01*
G37*
G36*
X1210531Y1105734D02*
G01*
X1230216Y1105734D01*
X1230216Y1074238D01*
X1210531Y1074238D01*
G37*
G36*
X1249843Y1050747D02*
G01*
X1269528Y1050747D01*
X1269528Y1019252D01*
X1249843Y1019252D01*
G37*
G36*
X1210473Y1050747D02*
G01*
X1230158Y1050747D01*
X1230158Y1019252D01*
X1210473Y1019252D01*
G37*
G36*
X744843Y985747D02*
G01*
X764528Y985747D01*
X764528Y954252D01*
X744843Y954252D01*
G37*
G36*
X705473Y985747D02*
G01*
X725158Y985747D01*
X725158Y954252D01*
X705473Y954252D01*
G37*
G36*
X854843Y-869252D02*
G01*
X874528Y-869252D01*
X874528Y-900747D01*
X854843Y-900747D01*
G37*
G36*
X815473Y-869252D02*
G01*
X835158Y-869252D01*
X835158Y-900747D01*
X815473Y-900747D01*
G37*
G01*
X2525000Y-480309D03*
G01*
X2525000Y-519679D03*
D16*
G01*
X600369Y-570010D03*
G01*
X639740Y-570010D03*
G36*
X1239900Y-639265D02*
G01*
X1259585Y-639265D01*
X1259585Y-670761D01*
X1239900Y-670761D01*
G37*
G36*
X1200531Y-639265D02*
G01*
X1220216Y-639265D01*
X1220216Y-670761D01*
X1200531Y-670761D01*
G37*
G36*
X1239900Y-689265D02*
G01*
X1259585Y-689265D01*
X1259585Y-720761D01*
X1239900Y-720761D01*
G37*
G36*
X1200531Y-689265D02*
G01*
X1220216Y-689265D01*
X1220216Y-720761D01*
X1200531Y-720761D01*
G37*
G36*
X1239900Y-739265D02*
G01*
X1259585Y-739265D01*
X1259585Y-770761D01*
X1239900Y-770761D01*
G37*
G36*
X1200531Y-739265D02*
G01*
X1220216Y-739265D01*
X1220216Y-770761D01*
X1200531Y-770761D01*
G37*
G01*
X825309Y-830000D03*
G01*
X864679Y-830000D03*
D17*
G01*
X1040060Y-1759699D03*
G01*
X1040060Y-1720329D03*
G01*
X985000Y-1759690D03*
G01*
X985000Y-1720320D03*
D16*
G01*
X1390309Y-1455000D03*
G01*
X1429679Y-1455000D03*
G01*
X1630309Y-1455000D03*
G01*
X1669679Y-1455000D03*
G01*
X1870309Y-1455000D03*
G01*
X1909679Y-1455000D03*
D17*
G01*
X2100000Y-4545309D03*
G01*
X2100000Y-4584679D03*
G01*
X2100000Y-4780309D03*
G01*
X2100000Y-4819679D03*
G01*
X2100000Y-5010309D03*
G01*
X2100000Y-5049679D03*
G01*
X2100000Y-2780309D03*
G01*
X2100000Y-2819679D03*
G01*
X2100000Y-2380309D03*
G01*
X2100000Y-2419679D03*
G36*
X764843Y-2649252D02*
G01*
X784528Y-2649252D01*
X784528Y-2680747D01*
X764843Y-2680747D01*
G37*
G36*
X725473Y-2649252D02*
G01*
X745158Y-2649252D01*
X745158Y-2680747D01*
X725473Y-2680747D01*
G37*
G36*
X149843Y-3334252D02*
G01*
X169528Y-3334252D01*
X169528Y-3365749D01*
X149843Y-3365749D01*
G37*
G36*
X110473Y-3334252D02*
G01*
X130158Y-3334252D01*
X130158Y-3365749D01*
X110473Y-3365749D01*
G37*
G36*
X2314843Y-4039252D02*
G01*
X2334528Y-4039252D01*
X2334528Y-4070749D01*
X2314843Y-4070749D01*
G37*
G36*
X2275473Y-4039252D02*
G01*
X2295158Y-4039252D01*
X2295158Y-4070749D01*
X2275473Y-4070749D01*
G37*
D16*
G01*
X1300309Y360000D03*
G01*
X1339679Y360000D03*
G01*
X1235309Y1240000D03*
G01*
X1274679Y1240000D03*
G01*
X1225270Y-515010D03*
G01*
X1264639Y-515010D03*
G01*
X1250309Y-1425000D03*
G01*
X1289679Y-1425000D03*
G01*
X915360Y-2234989D03*
G01*
X954729Y-2234989D03*
G36*
X206693Y-3262283D02*
G01*
X238189Y-3262283D01*
X238189Y-3297718D01*
X206693Y-3297718D01*
G37*
G36*
X261810Y-3262283D02*
G01*
X293306Y-3262283D01*
X293306Y-3297718D01*
X261810Y-3297718D01*
G37*
D18*
G01*
X2462560Y-4120000D03*
G01*
X2407439Y-4120000D03*
D19*
G01*
X2368109Y-4872829D03*
G01*
X2131890Y-4872829D03*
G01*
X2368109Y-4727170D03*
G01*
X2131890Y-4727170D03*
G36*
X2042521Y294443D02*
G01*
X2121261Y294443D01*
X2121261Y251136D01*
X2042521Y251136D01*
G37*
G36*
X2278742Y294443D02*
G01*
X2357482Y294443D01*
X2357482Y251136D01*
X2278742Y251136D01*
G37*
G36*
X2042521Y148782D02*
G01*
X2121261Y148782D01*
X2121261Y105475D01*
X2042521Y105475D01*
G37*
G36*
X2278742Y148782D02*
G01*
X2357482Y148782D01*
X2357482Y105475D01*
X2278742Y105475D01*
G37*
G36*
X1692521Y294443D02*
G01*
X1771261Y294443D01*
X1771261Y251136D01*
X1692521Y251136D01*
G37*
G36*
X1928742Y294443D02*
G01*
X2007482Y294443D01*
X2007482Y251136D01*
X1928742Y251136D01*
G37*
G36*
X1692521Y148782D02*
G01*
X1771261Y148782D01*
X1771261Y105475D01*
X1692521Y105475D01*
G37*
G36*
X1928742Y148782D02*
G01*
X2007482Y148782D01*
X2007482Y105475D01*
X1928742Y105475D01*
G37*
G36*
X1342521Y294443D02*
G01*
X1421261Y294443D01*
X1421261Y251136D01*
X1342521Y251136D01*
G37*
G36*
X1578742Y294443D02*
G01*
X1657482Y294443D01*
X1657482Y251136D01*
X1578742Y251136D01*
G37*
G36*
X1342521Y148782D02*
G01*
X1421261Y148782D01*
X1421261Y105475D01*
X1342521Y105475D01*
G37*
G36*
X1578742Y148782D02*
G01*
X1657482Y148782D01*
X1657482Y105475D01*
X1578742Y105475D01*
G37*
G01*
X738090Y1027130D03*
G01*
X501869Y1027130D03*
G01*
X738090Y1172790D03*
G01*
X501869Y1172790D03*
G36*
X1342521Y-605556D02*
G01*
X1421261Y-605556D01*
X1421261Y-648863D01*
X1342521Y-648863D01*
G37*
G36*
X1578742Y-605556D02*
G01*
X1657482Y-605556D01*
X1657482Y-648863D01*
X1578742Y-648863D01*
G37*
G36*
X1342521Y-751217D02*
G01*
X1421261Y-751217D01*
X1421261Y-794524D01*
X1342521Y-794524D01*
G37*
G36*
X1578742Y-751217D02*
G01*
X1657482Y-751217D01*
X1657482Y-794524D01*
X1578742Y-794524D01*
G37*
G36*
X1692521Y-605556D02*
G01*
X1771261Y-605556D01*
X1771261Y-648863D01*
X1692521Y-648863D01*
G37*
G36*
X1928742Y-605556D02*
G01*
X2007482Y-605556D01*
X2007482Y-648863D01*
X1928742Y-648863D01*
G37*
G36*
X1692521Y-751217D02*
G01*
X1771261Y-751217D01*
X1771261Y-794524D01*
X1692521Y-794524D01*
G37*
G36*
X1928742Y-751217D02*
G01*
X2007482Y-751217D01*
X2007482Y-794524D01*
X1928742Y-794524D01*
G37*
G36*
X2042521Y-605556D02*
G01*
X2121261Y-605556D01*
X2121261Y-648863D01*
X2042521Y-648863D01*
G37*
G36*
X2278742Y-605556D02*
G01*
X2357482Y-605556D01*
X2357482Y-648863D01*
X2278742Y-648863D01*
G37*
G36*
X2042521Y-751217D02*
G01*
X2121261Y-751217D01*
X2121261Y-794524D01*
X2042521Y-794524D01*
G37*
G36*
X2278742Y-751217D02*
G01*
X2357482Y-751217D01*
X2357482Y-794524D01*
X2278742Y-794524D01*
G37*
D20*
G01*
X1722830Y-1481930D03*
G01*
X1722830Y-1718150D03*
G01*
X1577169Y-1481930D03*
G01*
X1577169Y-1718150D03*
D21*
G01*
X2238500Y1214250D03*
G01*
X2301499Y1245749D03*
G01*
X2301499Y1214250D03*
D22*
G01*
X2260159Y1245749D03*
G01*
X2260159Y1214250D03*
G01*
X2279840Y1245749D03*
G01*
X2279840Y1214250D03*
D21*
G01*
X2238500Y1245749D03*
G36*
X1798620Y1303805D02*
G01*
X1826180Y1303805D01*
X1826180Y1254594D01*
X1798620Y1254594D01*
G37*
G36*
X1723819Y1303805D02*
G01*
X1751379Y1303805D01*
X1751379Y1254594D01*
X1723819Y1254594D01*
G37*
G36*
X1761220Y1205405D02*
G01*
X1788779Y1205405D01*
X1788779Y1156194D01*
X1761220Y1156194D01*
G37*
D24*
G01*
X2330000Y1133499D03*
G01*
X2330000Y1066500D03*
G36*
X1463620Y1303805D02*
G01*
X1491180Y1303805D01*
X1491180Y1254594D01*
X1463620Y1254594D01*
G37*
G36*
X1388819Y1303805D02*
G01*
X1416379Y1303805D01*
X1416379Y1254594D01*
X1388819Y1254594D01*
G37*
G36*
X1426220Y1205405D02*
G01*
X1453779Y1205405D01*
X1453779Y1156194D01*
X1426220Y1156194D01*
G37*
G36*
X2138620Y1303805D02*
G01*
X2166180Y1303805D01*
X2166180Y1254594D01*
X2138620Y1254594D01*
G37*
G36*
X2063819Y1303805D02*
G01*
X2091379Y1303805D01*
X2091379Y1254594D01*
X2063819Y1254594D01*
G37*
G36*
X2101220Y1205405D02*
G01*
X2128779Y1205405D01*
X2128779Y1156194D01*
X2101220Y1156194D01*
G37*
G36*
X2310500Y933000D02*
G01*
X2349499Y933000D01*
X2349499Y890000D01*
X2310500Y890000D01*
G37*
G36*
X2310500Y1000000D02*
G01*
X2349499Y1000000D01*
X2349499Y956999D01*
X2310500Y956999D01*
G37*
G36*
X2190500Y933000D02*
G01*
X2229499Y933000D01*
X2229499Y890000D01*
X2190500Y890000D01*
G37*
G36*
X2190500Y1000000D02*
G01*
X2229499Y1000000D01*
X2229499Y956999D01*
X2190500Y956999D01*
G37*
G01*
X2210000Y1133499D03*
G01*
X2210000Y1066500D03*
G01*
X1655000Y1133499D03*
G01*
X1655000Y1066500D03*
G36*
X1635500Y933000D02*
G01*
X1674499Y933000D01*
X1674499Y890000D01*
X1635500Y890000D01*
G37*
G36*
X1635500Y1000000D02*
G01*
X1674499Y1000000D01*
X1674499Y956999D01*
X1635500Y956999D01*
G37*
G36*
X1515500Y933000D02*
G01*
X1554499Y933000D01*
X1554499Y890000D01*
X1515500Y890000D01*
G37*
G36*
X1515500Y1000000D02*
G01*
X1554499Y1000000D01*
X1554499Y956999D01*
X1515500Y956999D01*
G37*
G01*
X1535000Y1133499D03*
G01*
X1535000Y1066500D03*
G01*
X1995000Y1133499D03*
G01*
X1995000Y1066500D03*
G36*
X1975500Y933000D02*
G01*
X2014499Y933000D01*
X2014499Y890000D01*
X1975500Y890000D01*
G37*
G36*
X1975500Y1000000D02*
G01*
X2014499Y1000000D01*
X2014499Y956999D01*
X1975500Y956999D01*
G37*
G36*
X1855500Y933000D02*
G01*
X1894499Y933000D01*
X1894499Y890000D01*
X1855500Y890000D01*
G37*
G36*
X1855500Y1000000D02*
G01*
X1894499Y1000000D01*
X1894499Y956999D01*
X1855500Y956999D01*
G37*
G01*
X1875000Y1133499D03*
G01*
X1875000Y1066500D03*
G36*
X405195Y173427D02*
G01*
X444564Y173427D01*
X444564Y151772D01*
X405195Y151772D01*
G37*
G36*
X405195Y210827D02*
G01*
X444564Y210827D01*
X444564Y189172D01*
X405195Y189172D01*
G37*
G36*
X405195Y248227D02*
G01*
X444564Y248227D01*
X444564Y226572D01*
X405195Y226572D01*
G37*
G36*
X515435Y248227D02*
G01*
X554804Y248227D01*
X554804Y226572D01*
X515435Y226572D01*
G37*
G36*
X515435Y210827D02*
G01*
X554804Y210827D01*
X554804Y189172D01*
X515435Y189172D01*
G37*
G36*
X515435Y173427D02*
G01*
X554804Y173427D01*
X554804Y151772D01*
X515435Y151772D01*
G37*
D26*
G01*
X413859Y-650000D03*
G01*
X413859Y-750000D03*
G01*
X646140Y-750000D03*
G01*
X646140Y-650000D03*
D27*
G01*
X970799Y-827600D03*
G01*
X970799Y-902399D03*
G01*
X1069200Y-865000D03*
G36*
X941692Y372716D02*
G01*
X973189Y372716D01*
X973189Y337283D01*
X941692Y337283D01*
G37*
G36*
X996810Y372716D02*
G01*
X1028307Y372716D01*
X1028307Y337283D01*
X996810Y337283D01*
G37*
G36*
X2496575Y-1677874D02*
G01*
X2567440Y-1677874D01*
X2567440Y-1795984D01*
X2496575Y-1795984D01*
G37*
G36*
X2354843Y-1677874D02*
G01*
X2425708Y-1677874D01*
X2425708Y-1795984D01*
X2354843Y-1795984D01*
G37*
G36*
X2457205Y-1404015D02*
G01*
X2528071Y-1404015D01*
X2528071Y-1522125D01*
X2457205Y-1522125D01*
G37*
G36*
X2122559Y-1677872D02*
G01*
X2193424Y-1677872D01*
X2193424Y-1795983D01*
X2122559Y-1795983D01*
G37*
G36*
X2185550Y-1404015D02*
G01*
X2256417Y-1404015D01*
X2256417Y-1522125D01*
X2185550Y-1522125D01*
G37*
D29*
G01*
X1203350Y360000D03*
G01*
X1246649Y360000D03*
D21*
G01*
X1223500Y-5749D03*
G01*
X1286499Y25749D03*
G01*
X1286499Y-5749D03*
D22*
G01*
X1245159Y25749D03*
G01*
X1245159Y-5749D03*
G01*
X1264840Y25749D03*
G01*
X1264840Y-5749D03*
D21*
G01*
X1223500Y25749D03*
D29*
G01*
X1143350Y1240000D03*
G01*
X1186649Y1240000D03*
G36*
X1003620Y-2526194D02*
G01*
X1031180Y-2526194D01*
X1031180Y-2575405D01*
X1003620Y-2575405D01*
G37*
G36*
X928819Y-2526194D02*
G01*
X956379Y-2526194D01*
X956379Y-2575405D01*
X928819Y-2575405D01*
G37*
G36*
X966220Y-2624594D02*
G01*
X993779Y-2624594D01*
X993779Y-2673805D01*
X966220Y-2673805D01*
G37*
D18*
G01*
X727559Y-2960000D03*
G01*
X672440Y-2960000D03*
D19*
G01*
X2368109Y-2872829D03*
G01*
X2131890Y-2872829D03*
G01*
X2368109Y-2727170D03*
G01*
X2131890Y-2727170D03*
D30*
G01*
X1950000Y-2600000D03*
G01*
X1350000Y-2600000D03*
D31*
G01*
X945979Y-2847280D03*
G01*
X1194020Y-2847280D03*
G36*
X1170393Y-2870906D02*
G01*
X1217637Y-2870906D01*
X1217637Y-2894528D01*
X1170393Y-2894528D01*
G37*
G36*
X922362Y-2870906D02*
G01*
X969606Y-2870906D01*
X969606Y-2894528D01*
X922362Y-2894528D01*
G37*
G36*
X1950000Y-4036080D02*
G01*
X1966702Y-4019378D01*
X1980622Y-4033298D01*
X1963919Y-4050001D01*
G37*
G36*
X1919377Y-4066703D02*
G01*
X1936080Y-4050001D01*
X1950000Y-4063921D01*
X1933297Y-4080623D01*
G37*
G36*
X956728Y1252716D02*
G01*
X988224Y1252716D01*
X988224Y1217283D01*
X956728Y1217283D01*
G37*
G36*
X1011845Y1252716D02*
G01*
X1043342Y1252716D01*
X1043342Y1217283D01*
X1011845Y1217283D01*
G37*
G36*
X481727Y-827283D02*
G01*
X513224Y-827283D01*
X513224Y-862716D01*
X481727Y-862716D01*
G37*
G36*
X536846Y-827283D02*
G01*
X568341Y-827283D01*
X568341Y-862716D01*
X536846Y-862716D01*
G37*
G36*
X946728Y-497283D02*
G01*
X978224Y-497283D01*
X978224Y-532716D01*
X946728Y-532716D01*
G37*
G36*
X1001845Y-497283D02*
G01*
X1033342Y-497283D01*
X1033342Y-532716D01*
X1001845Y-532716D01*
G37*
G36*
X1011692Y-1412283D02*
G01*
X1043189Y-1412283D01*
X1043189Y-1447716D01*
X1011692Y-1447716D01*
G37*
G36*
X1066810Y-1412283D02*
G01*
X1098307Y-1412283D01*
X1098307Y-1447716D01*
X1066810Y-1447716D01*
G37*
G36*
X1256692Y-4632283D02*
G01*
X1288189Y-4632283D01*
X1288189Y-4667716D01*
X1256692Y-4667716D01*
G37*
G36*
X1311810Y-4632283D02*
G01*
X1343307Y-4632283D01*
X1343307Y-4667716D01*
X1311810Y-4667716D01*
G37*
G36*
X656693Y-2222283D02*
G01*
X688189Y-2222283D01*
X688189Y-2257716D01*
X656693Y-2257716D01*
G37*
G36*
X711810Y-2222283D02*
G01*
X743306Y-2222283D01*
X743306Y-2257716D01*
X711810Y-2257716D01*
G37*
D18*
G01*
X2462560Y-4050000D03*
G01*
X2407439Y-4050000D03*
G36*
X206693Y-3332283D02*
G01*
X238189Y-3332283D01*
X238189Y-3367718D01*
X206693Y-3367718D01*
G37*
G36*
X261810Y-3332283D02*
G01*
X293306Y-3332283D01*
X293306Y-3367718D01*
X261810Y-3367718D01*
G37*
D32*
G01*
X1260749Y893499D03*
G01*
X1229250Y956500D03*
G01*
X1260749Y956500D03*
D33*
G01*
X1229250Y915160D03*
G01*
X1260749Y915160D03*
G01*
X1229250Y934839D03*
G01*
X1260749Y934839D03*
D32*
G01*
X1229250Y893499D03*
D21*
G01*
X1248500Y-890749D03*
G01*
X1311499Y-859250D03*
G01*
X1311499Y-890749D03*
D22*
G01*
X1270159Y-859250D03*
G01*
X1270159Y-890749D03*
G01*
X1289840Y-859250D03*
G01*
X1289840Y-890749D03*
D21*
G01*
X1248500Y-859250D03*
D32*
G01*
X1190749Y-1796500D03*
G01*
X1159250Y-1733499D03*
G01*
X1190749Y-1733499D03*
D33*
G01*
X1159250Y-1774839D03*
G01*
X1190749Y-1774839D03*
G01*
X1159250Y-1755160D03*
G01*
X1190749Y-1755160D03*
D32*
G01*
X1159250Y-1796500D03*
D21*
G01*
X1966499Y-4529250D03*
G01*
X1903500Y-4560749D03*
G01*
X1903500Y-4529250D03*
D22*
G01*
X1944840Y-4560749D03*
G01*
X1944840Y-4529250D03*
G01*
X1925159Y-4560749D03*
G01*
X1925159Y-4529250D03*
D21*
G01*
X1966499Y-4560749D03*
G01*
X1903500Y-2355749D03*
G01*
X1966499Y-2324250D03*
G01*
X1966499Y-2355749D03*
D22*
G01*
X1925159Y-2324250D03*
G01*
X1925159Y-2355749D03*
G01*
X1944840Y-2324250D03*
G01*
X1944840Y-2355749D03*
D21*
G01*
X1903500Y-2324250D03*
G01*
X1563500Y1214250D03*
G01*
X1626499Y1245749D03*
G01*
X1626499Y1214250D03*
D22*
G01*
X1585159Y1245749D03*
G01*
X1585159Y1214250D03*
G01*
X1604840Y1245749D03*
G01*
X1604840Y1214250D03*
D21*
G01*
X1563500Y1245749D03*
D20*
G01*
X1482809Y-1476930D03*
G01*
X1482809Y-1713150D03*
G01*
X1337150Y-1476930D03*
G01*
X1337150Y-1713150D03*
G01*
X1962809Y-1481930D03*
G01*
X1962809Y-1718150D03*
G01*
X1817150Y-1481930D03*
G01*
X1817150Y-1718150D03*
D19*
G01*
X2368109Y-5102790D03*
G01*
X2131890Y-5102790D03*
G01*
X2368109Y-4957130D03*
G01*
X2131890Y-4957130D03*
G01*
X2368109Y-4637790D03*
G01*
X2131890Y-4637790D03*
G01*
X2368109Y-4492130D03*
G01*
X2131890Y-4492130D03*
G01*
X2368109Y-2472829D03*
G01*
X2131890Y-2472829D03*
G01*
X2368109Y-2327170D03*
G01*
X2131890Y-2327170D03*
D21*
G01*
X1903500Y1214250D03*
G01*
X1966499Y1245749D03*
G01*
X1966499Y1214250D03*
D22*
G01*
X1925159Y1245749D03*
G01*
X1925159Y1214250D03*
G01*
X1944840Y1245749D03*
G01*
X1944840Y1214250D03*
D21*
G01*
X1903500Y1245749D03*
D34*
G01*
X2525000Y-678150D03*
G01*
X2525000Y-571849D03*
G36*
X2050000Y-4036080D02*
G01*
X2066702Y-4019378D01*
X2080622Y-4033298D01*
X2063919Y-4050001D01*
G37*
G36*
X2019377Y-4066703D02*
G01*
X2036080Y-4050001D01*
X2050000Y-4063921D01*
X2033297Y-4080623D01*
G37*
G36*
X1850000Y-4036080D02*
G01*
X1866702Y-4019378D01*
X1880622Y-4033298D01*
X1863919Y-4050001D01*
G37*
G36*
X1819377Y-4066703D02*
G01*
X1836080Y-4050001D01*
X1850000Y-4063921D01*
X1833297Y-4080623D01*
G37*
G36*
X1750000Y-4036080D02*
G01*
X1766702Y-4019378D01*
X1780622Y-4033298D01*
X1763919Y-4050001D01*
G37*
G36*
X1719377Y-4066703D02*
G01*
X1736080Y-4050001D01*
X1750000Y-4063921D01*
X1733297Y-4080623D01*
G37*
G36*
X1350000Y-4036080D02*
G01*
X1366702Y-4019378D01*
X1380622Y-4033298D01*
X1363919Y-4050001D01*
G37*
G36*
X1319377Y-4066703D02*
G01*
X1336080Y-4050001D01*
X1350000Y-4063921D01*
X1333297Y-4080623D01*
G37*
G36*
X1450000Y-4036080D02*
G01*
X1466702Y-4019378D01*
X1480622Y-4033298D01*
X1463919Y-4050001D01*
G37*
G36*
X1419377Y-4066703D02*
G01*
X1436080Y-4050001D01*
X1450000Y-4063921D01*
X1433297Y-4080623D01*
G37*
G36*
X1550000Y-4036080D02*
G01*
X1566702Y-4019378D01*
X1580622Y-4033298D01*
X1563919Y-4050001D01*
G37*
G36*
X1519377Y-4066703D02*
G01*
X1536080Y-4050001D01*
X1550000Y-4063921D01*
X1533297Y-4080623D01*
G37*
G36*
X1650000Y-4036080D02*
G01*
X1666702Y-4019378D01*
X1680622Y-4033298D01*
X1663919Y-4050001D01*
G37*
G36*
X1619377Y-4066703D02*
G01*
X1636080Y-4050001D01*
X1650000Y-4063921D01*
X1633297Y-4080623D01*
G37*
G36*
X1650000Y-3936080D02*
G01*
X1666702Y-3919378D01*
X1680622Y-3933298D01*
X1663919Y-3950001D01*
G37*
G36*
X1619377Y-3966703D02*
G01*
X1636080Y-3950001D01*
X1650000Y-3963921D01*
X1633297Y-3980623D01*
G37*
G36*
X1550000Y-3936080D02*
G01*
X1566702Y-3919378D01*
X1580622Y-3933298D01*
X1563919Y-3950001D01*
G37*
G36*
X1519377Y-3966703D02*
G01*
X1536080Y-3950001D01*
X1550000Y-3963921D01*
X1533297Y-3980623D01*
G37*
G36*
X1450000Y-3936080D02*
G01*
X1466702Y-3919378D01*
X1480622Y-3933298D01*
X1463919Y-3950001D01*
G37*
G36*
X1419377Y-3966703D02*
G01*
X1436080Y-3950001D01*
X1450000Y-3963921D01*
X1433297Y-3980623D01*
G37*
G36*
X1350000Y-3936080D02*
G01*
X1366702Y-3919378D01*
X1380622Y-3933298D01*
X1363919Y-3950001D01*
G37*
G36*
X1319377Y-3966703D02*
G01*
X1336080Y-3950001D01*
X1350000Y-3963921D01*
X1333297Y-3980623D01*
G37*
G36*
X1750000Y-3936080D02*
G01*
X1766702Y-3919378D01*
X1780622Y-3933298D01*
X1763919Y-3950001D01*
G37*
G36*
X1719377Y-3966703D02*
G01*
X1736080Y-3950001D01*
X1750000Y-3963921D01*
X1733297Y-3980623D01*
G37*
G36*
X1850000Y-3936080D02*
G01*
X1866702Y-3919378D01*
X1880622Y-3933298D01*
X1863919Y-3950001D01*
G37*
G36*
X1819377Y-3966703D02*
G01*
X1836080Y-3950001D01*
X1850000Y-3963921D01*
X1833297Y-3980623D01*
G37*
G36*
X1950000Y-3936080D02*
G01*
X1966702Y-3919378D01*
X1980622Y-3933298D01*
X1963919Y-3950001D01*
G37*
G36*
X1919377Y-3966703D02*
G01*
X1936080Y-3950001D01*
X1950000Y-3963921D01*
X1933297Y-3980623D01*
G37*
G36*
X2050000Y-3936080D02*
G01*
X2066702Y-3919378D01*
X2080622Y-3933298D01*
X2063919Y-3950001D01*
G37*
G36*
X2019377Y-3966703D02*
G01*
X2036080Y-3950001D01*
X2050000Y-3963921D01*
X2033297Y-3980623D01*
G37*
G36*
X1650000Y-3836080D02*
G01*
X1666702Y-3819378D01*
X1680622Y-3833298D01*
X1663919Y-3850001D01*
G37*
G36*
X1619377Y-3866703D02*
G01*
X1636080Y-3850001D01*
X1650000Y-3863921D01*
X1633297Y-3880623D01*
G37*
G36*
X1550000Y-3836080D02*
G01*
X1566702Y-3819378D01*
X1580622Y-3833298D01*
X1563919Y-3850001D01*
G37*
G36*
X1519377Y-3866703D02*
G01*
X1536080Y-3850001D01*
X1550000Y-3863921D01*
X1533297Y-3880623D01*
G37*
G36*
X1450000Y-3836080D02*
G01*
X1466702Y-3819378D01*
X1480622Y-3833298D01*
X1463919Y-3850001D01*
G37*
G36*
X1419377Y-3866703D02*
G01*
X1436080Y-3850001D01*
X1450000Y-3863921D01*
X1433297Y-3880623D01*
G37*
G36*
X1350000Y-3836080D02*
G01*
X1366702Y-3819378D01*
X1380622Y-3833298D01*
X1363919Y-3850001D01*
G37*
G36*
X1319377Y-3866703D02*
G01*
X1336080Y-3850001D01*
X1350000Y-3863921D01*
X1333297Y-3880623D01*
G37*
G36*
X1750000Y-3836080D02*
G01*
X1766702Y-3819378D01*
X1780622Y-3833298D01*
X1763919Y-3850001D01*
G37*
G36*
X1719377Y-3866703D02*
G01*
X1736080Y-3850001D01*
X1750000Y-3863921D01*
X1733297Y-3880623D01*
G37*
G36*
X1850000Y-3836080D02*
G01*
X1866702Y-3819378D01*
X1880622Y-3833298D01*
X1863919Y-3850001D01*
G37*
G36*
X1819377Y-3866703D02*
G01*
X1836080Y-3850001D01*
X1850000Y-3863921D01*
X1833297Y-3880623D01*
G37*
G36*
X1950000Y-3836080D02*
G01*
X1966702Y-3819378D01*
X1980622Y-3833298D01*
X1963919Y-3850001D01*
G37*
G36*
X1919377Y-3866703D02*
G01*
X1936080Y-3850001D01*
X1950000Y-3863921D01*
X1933297Y-3880623D01*
G37*
G36*
X2050000Y-3836080D02*
G01*
X2066702Y-3819378D01*
X2080622Y-3833298D01*
X2063919Y-3850001D01*
G37*
G36*
X2019377Y-3866703D02*
G01*
X2036080Y-3850001D01*
X2050000Y-3863921D01*
X2033297Y-3880623D01*
G37*
G36*
X1650000Y-3736080D02*
G01*
X1666702Y-3719378D01*
X1680622Y-3733298D01*
X1663919Y-3750001D01*
G37*
G36*
X1619377Y-3766703D02*
G01*
X1636080Y-3750001D01*
X1650000Y-3763921D01*
X1633297Y-3780623D01*
G37*
G36*
X1550000Y-3736080D02*
G01*
X1566702Y-3719378D01*
X1580622Y-3733298D01*
X1563919Y-3750001D01*
G37*
G36*
X1519377Y-3766703D02*
G01*
X1536080Y-3750001D01*
X1550000Y-3763921D01*
X1533297Y-3780623D01*
G37*
G36*
X1450000Y-3736080D02*
G01*
X1466702Y-3719378D01*
X1480622Y-3733298D01*
X1463919Y-3750001D01*
G37*
G36*
X1419377Y-3766703D02*
G01*
X1436080Y-3750001D01*
X1450000Y-3763921D01*
X1433297Y-3780623D01*
G37*
G36*
X1350000Y-3736080D02*
G01*
X1366702Y-3719378D01*
X1380622Y-3733298D01*
X1363919Y-3750001D01*
G37*
G36*
X1319377Y-3766703D02*
G01*
X1336080Y-3750001D01*
X1350000Y-3763921D01*
X1333297Y-3780623D01*
G37*
G36*
X1750000Y-3736080D02*
G01*
X1766702Y-3719378D01*
X1780622Y-3733298D01*
X1763919Y-3750001D01*
G37*
G36*
X1719377Y-3766703D02*
G01*
X1736080Y-3750001D01*
X1750000Y-3763921D01*
X1733297Y-3780623D01*
G37*
G36*
X1850000Y-3736080D02*
G01*
X1866702Y-3719378D01*
X1880622Y-3733298D01*
X1863919Y-3750001D01*
G37*
G36*
X1819377Y-3766703D02*
G01*
X1836080Y-3750001D01*
X1850000Y-3763921D01*
X1833297Y-3780623D01*
G37*
G36*
X1950000Y-3736080D02*
G01*
X1966702Y-3719378D01*
X1980622Y-3733298D01*
X1963919Y-3750001D01*
G37*
G36*
X1919377Y-3766703D02*
G01*
X1936080Y-3750001D01*
X1950000Y-3763921D01*
X1933297Y-3780623D01*
G37*
G36*
X2050000Y-3736080D02*
G01*
X2066702Y-3719378D01*
X2080622Y-3733298D01*
X2063919Y-3750001D01*
G37*
G36*
X2019377Y-3766703D02*
G01*
X2036080Y-3750001D01*
X2050000Y-3763921D01*
X2033297Y-3780623D01*
G37*
G36*
X2050000Y-3336080D02*
G01*
X2066702Y-3319378D01*
X2080622Y-3333298D01*
X2063919Y-3350001D01*
G37*
G36*
X2019377Y-3366703D02*
G01*
X2036080Y-3350001D01*
X2050000Y-3363921D01*
X2033297Y-3380623D01*
G37*
G36*
X1950000Y-3336080D02*
G01*
X1966702Y-3319378D01*
X1980622Y-3333298D01*
X1963919Y-3350001D01*
G37*
G36*
X1919377Y-3366703D02*
G01*
X1936080Y-3350001D01*
X1950000Y-3363921D01*
X1933297Y-3380623D01*
G37*
G36*
X1850000Y-3336080D02*
G01*
X1866702Y-3319378D01*
X1880622Y-3333298D01*
X1863919Y-3350001D01*
G37*
G36*
X1819377Y-3366703D02*
G01*
X1836080Y-3350001D01*
X1850000Y-3363921D01*
X1833297Y-3380623D01*
G37*
G36*
X1750000Y-3336080D02*
G01*
X1766702Y-3319378D01*
X1780622Y-3333298D01*
X1763919Y-3350001D01*
G37*
G36*
X1719377Y-3366703D02*
G01*
X1736080Y-3350001D01*
X1750000Y-3363921D01*
X1733297Y-3380623D01*
G37*
G36*
X1350000Y-3336080D02*
G01*
X1366702Y-3319378D01*
X1380622Y-3333298D01*
X1363919Y-3350001D01*
G37*
G36*
X1319377Y-3366703D02*
G01*
X1336080Y-3350001D01*
X1350000Y-3363921D01*
X1333297Y-3380623D01*
G37*
G36*
X1450000Y-3336080D02*
G01*
X1466702Y-3319378D01*
X1480622Y-3333298D01*
X1463919Y-3350001D01*
G37*
G36*
X1419377Y-3366703D02*
G01*
X1436080Y-3350001D01*
X1450000Y-3363921D01*
X1433297Y-3380623D01*
G37*
G36*
X1550000Y-3336080D02*
G01*
X1566702Y-3319378D01*
X1580622Y-3333298D01*
X1563919Y-3350001D01*
G37*
G36*
X1519377Y-3366703D02*
G01*
X1536080Y-3350001D01*
X1550000Y-3363921D01*
X1533297Y-3380623D01*
G37*
G36*
X1650000Y-3336080D02*
G01*
X1666702Y-3319378D01*
X1680622Y-3333298D01*
X1663919Y-3350001D01*
G37*
G36*
X1619377Y-3366703D02*
G01*
X1636080Y-3350001D01*
X1650000Y-3363921D01*
X1633297Y-3380623D01*
G37*
G36*
X2050000Y-3436080D02*
G01*
X2066702Y-3419378D01*
X2080622Y-3433298D01*
X2063919Y-3450001D01*
G37*
G36*
X2019377Y-3466703D02*
G01*
X2036080Y-3450001D01*
X2050000Y-3463921D01*
X2033297Y-3480623D01*
G37*
G36*
X1950000Y-3436080D02*
G01*
X1966702Y-3419378D01*
X1980622Y-3433298D01*
X1963919Y-3450001D01*
G37*
G36*
X1919377Y-3466703D02*
G01*
X1936080Y-3450001D01*
X1950000Y-3463921D01*
X1933297Y-3480623D01*
G37*
G36*
X1850000Y-3436080D02*
G01*
X1866702Y-3419378D01*
X1880622Y-3433298D01*
X1863919Y-3450001D01*
G37*
G36*
X1819377Y-3466703D02*
G01*
X1836080Y-3450001D01*
X1850000Y-3463921D01*
X1833297Y-3480623D01*
G37*
G36*
X1750000Y-3436080D02*
G01*
X1766702Y-3419378D01*
X1780622Y-3433298D01*
X1763919Y-3450001D01*
G37*
G36*
X1719377Y-3466703D02*
G01*
X1736080Y-3450001D01*
X1750000Y-3463921D01*
X1733297Y-3480623D01*
G37*
G36*
X1350000Y-3436080D02*
G01*
X1366702Y-3419378D01*
X1380622Y-3433298D01*
X1363919Y-3450001D01*
G37*
G36*
X1319377Y-3466703D02*
G01*
X1336080Y-3450001D01*
X1350000Y-3463921D01*
X1333297Y-3480623D01*
G37*
G36*
X1450000Y-3436080D02*
G01*
X1466702Y-3419378D01*
X1480622Y-3433298D01*
X1463919Y-3450001D01*
G37*
G36*
X1419377Y-3466703D02*
G01*
X1436080Y-3450001D01*
X1450000Y-3463921D01*
X1433297Y-3480623D01*
G37*
G36*
X1550000Y-3436080D02*
G01*
X1566702Y-3419378D01*
X1580622Y-3433298D01*
X1563919Y-3450001D01*
G37*
G36*
X1519377Y-3466703D02*
G01*
X1536080Y-3450001D01*
X1550000Y-3463921D01*
X1533297Y-3480623D01*
G37*
G36*
X1650000Y-3436080D02*
G01*
X1666702Y-3419378D01*
X1680622Y-3433298D01*
X1663919Y-3450001D01*
G37*
G36*
X1619377Y-3466703D02*
G01*
X1636080Y-3450001D01*
X1650000Y-3463921D01*
X1633297Y-3480623D01*
G37*
G36*
X2050000Y-3536080D02*
G01*
X2066702Y-3519378D01*
X2080622Y-3533298D01*
X2063919Y-3550001D01*
G37*
G36*
X2019377Y-3566703D02*
G01*
X2036080Y-3550001D01*
X2050000Y-3563921D01*
X2033297Y-3580623D01*
G37*
G36*
X1950000Y-3536080D02*
G01*
X1966702Y-3519378D01*
X1980622Y-3533298D01*
X1963919Y-3550001D01*
G37*
G36*
X1919377Y-3566703D02*
G01*
X1936080Y-3550001D01*
X1950000Y-3563921D01*
X1933297Y-3580623D01*
G37*
G36*
X1850000Y-3536080D02*
G01*
X1866702Y-3519378D01*
X1880622Y-3533298D01*
X1863919Y-3550001D01*
G37*
G36*
X1819377Y-3566703D02*
G01*
X1836080Y-3550001D01*
X1850000Y-3563921D01*
X1833297Y-3580623D01*
G37*
G36*
X1750000Y-3536080D02*
G01*
X1766702Y-3519378D01*
X1780622Y-3533298D01*
X1763919Y-3550001D01*
G37*
G36*
X1719377Y-3566703D02*
G01*
X1736080Y-3550001D01*
X1750000Y-3563921D01*
X1733297Y-3580623D01*
G37*
G36*
X1350000Y-3536080D02*
G01*
X1366702Y-3519378D01*
X1380622Y-3533298D01*
X1363919Y-3550001D01*
G37*
G36*
X1319377Y-3566703D02*
G01*
X1336080Y-3550001D01*
X1350000Y-3563921D01*
X1333297Y-3580623D01*
G37*
G36*
X1450000Y-3536080D02*
G01*
X1466702Y-3519378D01*
X1480622Y-3533298D01*
X1463919Y-3550001D01*
G37*
G36*
X1419377Y-3566703D02*
G01*
X1436080Y-3550001D01*
X1450000Y-3563921D01*
X1433297Y-3580623D01*
G37*
G36*
X1550000Y-3536080D02*
G01*
X1566702Y-3519378D01*
X1580622Y-3533298D01*
X1563919Y-3550001D01*
G37*
G36*
X1519377Y-3566703D02*
G01*
X1536080Y-3550001D01*
X1550000Y-3563921D01*
X1533297Y-3580623D01*
G37*
G36*
X1650000Y-3536080D02*
G01*
X1666702Y-3519378D01*
X1680622Y-3533298D01*
X1663919Y-3550001D01*
G37*
G36*
X1619377Y-3566703D02*
G01*
X1636080Y-3550001D01*
X1650000Y-3563921D01*
X1633297Y-3580623D01*
G37*
G36*
X1650000Y-3636080D02*
G01*
X1666702Y-3619378D01*
X1680622Y-3633298D01*
X1663919Y-3650001D01*
G37*
G36*
X1619377Y-3666703D02*
G01*
X1636080Y-3650001D01*
X1650000Y-3663921D01*
X1633297Y-3680623D01*
G37*
G36*
X1550000Y-3636080D02*
G01*
X1566702Y-3619378D01*
X1580622Y-3633298D01*
X1563919Y-3650001D01*
G37*
G36*
X1519377Y-3666703D02*
G01*
X1536080Y-3650001D01*
X1550000Y-3663921D01*
X1533297Y-3680623D01*
G37*
G36*
X1450000Y-3636080D02*
G01*
X1466702Y-3619378D01*
X1480622Y-3633298D01*
X1463919Y-3650001D01*
G37*
G36*
X1419377Y-3666703D02*
G01*
X1436080Y-3650001D01*
X1450000Y-3663921D01*
X1433297Y-3680623D01*
G37*
G36*
X1350000Y-3636080D02*
G01*
X1366702Y-3619378D01*
X1380622Y-3633298D01*
X1363919Y-3650001D01*
G37*
G36*
X1319377Y-3666703D02*
G01*
X1336080Y-3650001D01*
X1350000Y-3663921D01*
X1333297Y-3680623D01*
G37*
G36*
X1750000Y-3636080D02*
G01*
X1766702Y-3619378D01*
X1780622Y-3633298D01*
X1763919Y-3650001D01*
G37*
G36*
X1719377Y-3666703D02*
G01*
X1736080Y-3650001D01*
X1750000Y-3663921D01*
X1733297Y-3680623D01*
G37*
G36*
X1850000Y-3636080D02*
G01*
X1866702Y-3619378D01*
X1880622Y-3633298D01*
X1863919Y-3650001D01*
G37*
G36*
X1819377Y-3666703D02*
G01*
X1836080Y-3650001D01*
X1850000Y-3663921D01*
X1833297Y-3680623D01*
G37*
G36*
X1950000Y-3636080D02*
G01*
X1966702Y-3619378D01*
X1980622Y-3633298D01*
X1963919Y-3650001D01*
G37*
G36*
X1919377Y-3666703D02*
G01*
X1936080Y-3650001D01*
X1950000Y-3663921D01*
X1933297Y-3680623D01*
G37*
G36*
X2050000Y-3636080D02*
G01*
X2066702Y-3619378D01*
X2080622Y-3633298D01*
X2063919Y-3650001D01*
G37*
G36*
X2019377Y-3666703D02*
G01*
X2036080Y-3650001D01*
X2050000Y-3663921D01*
X2033297Y-3680623D01*
G37*
G36*
X1250000Y-3636080D02*
G01*
X1266702Y-3619378D01*
X1280622Y-3633298D01*
X1263919Y-3650001D01*
G37*
G36*
X1219377Y-3666703D02*
G01*
X1236080Y-3650001D01*
X1250000Y-3663921D01*
X1233297Y-3680623D01*
G37*
G36*
X1150000Y-3636080D02*
G01*
X1166702Y-3619378D01*
X1180622Y-3633298D01*
X1163919Y-3650001D01*
G37*
G36*
X1119377Y-3666703D02*
G01*
X1136080Y-3650001D01*
X1150000Y-3663921D01*
X1133297Y-3680623D01*
G37*
G36*
X1050000Y-3636080D02*
G01*
X1066702Y-3619378D01*
X1080622Y-3633298D01*
X1063919Y-3650001D01*
G37*
G36*
X1019377Y-3666703D02*
G01*
X1036080Y-3650001D01*
X1050000Y-3663921D01*
X1033297Y-3680623D01*
G37*
G36*
X950000Y-3636080D02*
G01*
X966702Y-3619378D01*
X980622Y-3633298D01*
X963919Y-3650001D01*
G37*
G36*
X919377Y-3666703D02*
G01*
X936080Y-3650001D01*
X950000Y-3663921D01*
X933297Y-3680623D01*
G37*
G36*
X550000Y-3636080D02*
G01*
X566703Y-3619378D01*
X580622Y-3633298D01*
X563919Y-3650001D01*
G37*
G36*
X519377Y-3666703D02*
G01*
X536080Y-3650001D01*
X550000Y-3663921D01*
X533296Y-3680623D01*
G37*
G36*
X650000Y-3636080D02*
G01*
X666703Y-3619378D01*
X680622Y-3633298D01*
X663919Y-3650001D01*
G37*
G36*
X619377Y-3666703D02*
G01*
X636080Y-3650001D01*
X650000Y-3663921D01*
X633296Y-3680623D01*
G37*
G36*
X750000Y-3636080D02*
G01*
X766702Y-3619378D01*
X780622Y-3633298D01*
X763919Y-3650001D01*
G37*
G36*
X719377Y-3666703D02*
G01*
X736080Y-3650001D01*
X750000Y-3663921D01*
X733296Y-3680623D01*
G37*
G36*
X850000Y-3636080D02*
G01*
X866702Y-3619378D01*
X880622Y-3633298D01*
X863919Y-3650001D01*
G37*
G36*
X819377Y-3666703D02*
G01*
X836080Y-3650001D01*
X850000Y-3663921D01*
X833297Y-3680623D01*
G37*
G36*
X850000Y-3536080D02*
G01*
X866702Y-3519378D01*
X880622Y-3533298D01*
X863919Y-3550001D01*
G37*
G36*
X819377Y-3566703D02*
G01*
X836080Y-3550001D01*
X850000Y-3563921D01*
X833297Y-3580623D01*
G37*
G36*
X750000Y-3536080D02*
G01*
X766702Y-3519378D01*
X780622Y-3533298D01*
X763919Y-3550001D01*
G37*
G36*
X719377Y-3566703D02*
G01*
X736080Y-3550001D01*
X750000Y-3563921D01*
X733296Y-3580623D01*
G37*
G36*
X650000Y-3536080D02*
G01*
X666703Y-3519378D01*
X680622Y-3533298D01*
X663919Y-3550001D01*
G37*
G36*
X619377Y-3566703D02*
G01*
X636080Y-3550001D01*
X650000Y-3563921D01*
X633296Y-3580623D01*
G37*
G36*
X550000Y-3536080D02*
G01*
X566703Y-3519378D01*
X580622Y-3533298D01*
X563919Y-3550001D01*
G37*
G36*
X519377Y-3566703D02*
G01*
X536080Y-3550001D01*
X550000Y-3563921D01*
X533296Y-3580623D01*
G37*
G36*
X950000Y-3536080D02*
G01*
X966702Y-3519378D01*
X980622Y-3533298D01*
X963919Y-3550001D01*
G37*
G36*
X919377Y-3566703D02*
G01*
X936080Y-3550001D01*
X950000Y-3563921D01*
X933297Y-3580623D01*
G37*
G36*
X1050000Y-3536080D02*
G01*
X1066702Y-3519378D01*
X1080622Y-3533298D01*
X1063919Y-3550001D01*
G37*
G36*
X1019377Y-3566703D02*
G01*
X1036080Y-3550001D01*
X1050000Y-3563921D01*
X1033297Y-3580623D01*
G37*
G36*
X1150000Y-3536080D02*
G01*
X1166702Y-3519378D01*
X1180622Y-3533298D01*
X1163919Y-3550001D01*
G37*
G36*
X1119377Y-3566703D02*
G01*
X1136080Y-3550001D01*
X1150000Y-3563921D01*
X1133297Y-3580623D01*
G37*
G36*
X1250000Y-3536080D02*
G01*
X1266702Y-3519378D01*
X1280622Y-3533298D01*
X1263919Y-3550001D01*
G37*
G36*
X1219377Y-3566703D02*
G01*
X1236080Y-3550001D01*
X1250000Y-3563921D01*
X1233297Y-3580623D01*
G37*
G36*
X850000Y-3436080D02*
G01*
X866702Y-3419378D01*
X880622Y-3433298D01*
X863919Y-3450001D01*
G37*
G36*
X819377Y-3466703D02*
G01*
X836080Y-3450001D01*
X850000Y-3463921D01*
X833297Y-3480623D01*
G37*
G36*
X750000Y-3436080D02*
G01*
X766702Y-3419378D01*
X780622Y-3433298D01*
X763919Y-3450001D01*
G37*
G36*
X719377Y-3466703D02*
G01*
X736080Y-3450001D01*
X750000Y-3463921D01*
X733296Y-3480623D01*
G37*
G36*
X650000Y-3436080D02*
G01*
X666703Y-3419378D01*
X680622Y-3433298D01*
X663919Y-3450001D01*
G37*
G36*
X619377Y-3466703D02*
G01*
X636080Y-3450001D01*
X650000Y-3463921D01*
X633296Y-3480623D01*
G37*
G36*
X550000Y-3436080D02*
G01*
X566703Y-3419378D01*
X580622Y-3433298D01*
X563919Y-3450001D01*
G37*
G36*
X519377Y-3466703D02*
G01*
X536080Y-3450001D01*
X550000Y-3463921D01*
X533296Y-3480623D01*
G37*
G36*
X950000Y-3436080D02*
G01*
X966702Y-3419378D01*
X980622Y-3433298D01*
X963919Y-3450001D01*
G37*
G36*
X919377Y-3466703D02*
G01*
X936080Y-3450001D01*
X950000Y-3463921D01*
X933297Y-3480623D01*
G37*
G36*
X1050000Y-3436080D02*
G01*
X1066702Y-3419378D01*
X1080622Y-3433298D01*
X1063919Y-3450001D01*
G37*
G36*
X1019377Y-3466703D02*
G01*
X1036080Y-3450001D01*
X1050000Y-3463921D01*
X1033297Y-3480623D01*
G37*
G36*
X1150000Y-3436080D02*
G01*
X1166702Y-3419378D01*
X1180622Y-3433298D01*
X1163919Y-3450001D01*
G37*
G36*
X1119377Y-3466703D02*
G01*
X1136080Y-3450001D01*
X1150000Y-3463921D01*
X1133297Y-3480623D01*
G37*
G36*
X1250000Y-3436080D02*
G01*
X1266702Y-3419378D01*
X1280622Y-3433298D01*
X1263919Y-3450001D01*
G37*
G36*
X1219377Y-3466703D02*
G01*
X1236080Y-3450001D01*
X1250000Y-3463921D01*
X1233297Y-3480623D01*
G37*
G36*
X850000Y-3336080D02*
G01*
X866702Y-3319378D01*
X880622Y-3333298D01*
X863919Y-3350001D01*
G37*
G36*
X819377Y-3366703D02*
G01*
X836080Y-3350001D01*
X850000Y-3363921D01*
X833297Y-3380623D01*
G37*
G36*
X750000Y-3336080D02*
G01*
X766702Y-3319378D01*
X780622Y-3333298D01*
X763919Y-3350001D01*
G37*
G36*
X719377Y-3366703D02*
G01*
X736080Y-3350001D01*
X750000Y-3363921D01*
X733296Y-3380623D01*
G37*
G36*
X650000Y-3336080D02*
G01*
X666703Y-3319378D01*
X680622Y-3333298D01*
X663919Y-3350001D01*
G37*
G36*
X619377Y-3366703D02*
G01*
X636080Y-3350001D01*
X650000Y-3363921D01*
X633296Y-3380623D01*
G37*
G36*
X550000Y-3336080D02*
G01*
X566703Y-3319378D01*
X580622Y-3333298D01*
X563919Y-3350001D01*
G37*
G36*
X519377Y-3366703D02*
G01*
X536080Y-3350001D01*
X550000Y-3363921D01*
X533296Y-3380623D01*
G37*
G36*
X950000Y-3336080D02*
G01*
X966702Y-3319378D01*
X980622Y-3333298D01*
X963919Y-3350001D01*
G37*
G36*
X919377Y-3366703D02*
G01*
X936080Y-3350001D01*
X950000Y-3363921D01*
X933297Y-3380623D01*
G37*
G36*
X1050000Y-3336080D02*
G01*
X1066702Y-3319378D01*
X1080622Y-3333298D01*
X1063919Y-3350001D01*
G37*
G36*
X1019377Y-3366703D02*
G01*
X1036080Y-3350001D01*
X1050000Y-3363921D01*
X1033297Y-3380623D01*
G37*
G36*
X1150000Y-3336080D02*
G01*
X1166702Y-3319378D01*
X1180622Y-3333298D01*
X1163919Y-3350001D01*
G37*
G36*
X1119377Y-3366703D02*
G01*
X1136080Y-3350001D01*
X1150000Y-3363921D01*
X1133297Y-3380623D01*
G37*
G36*
X1250000Y-3336080D02*
G01*
X1266702Y-3319378D01*
X1280622Y-3333298D01*
X1263919Y-3350001D01*
G37*
G36*
X1219377Y-3366703D02*
G01*
X1236080Y-3350001D01*
X1250000Y-3363921D01*
X1233297Y-3380623D01*
G37*
G36*
X1250000Y-3736080D02*
G01*
X1266702Y-3719378D01*
X1280622Y-3733298D01*
X1263919Y-3750001D01*
G37*
G36*
X1219377Y-3766703D02*
G01*
X1236080Y-3750001D01*
X1250000Y-3763921D01*
X1233297Y-3780623D01*
G37*
G36*
X1150000Y-3736080D02*
G01*
X1166702Y-3719378D01*
X1180622Y-3733298D01*
X1163919Y-3750001D01*
G37*
G36*
X1119377Y-3766703D02*
G01*
X1136080Y-3750001D01*
X1150000Y-3763921D01*
X1133297Y-3780623D01*
G37*
G36*
X1050000Y-3736080D02*
G01*
X1066702Y-3719378D01*
X1080622Y-3733298D01*
X1063919Y-3750001D01*
G37*
G36*
X1019377Y-3766703D02*
G01*
X1036080Y-3750001D01*
X1050000Y-3763921D01*
X1033297Y-3780623D01*
G37*
G36*
X950000Y-3736080D02*
G01*
X966702Y-3719378D01*
X980622Y-3733298D01*
X963919Y-3750001D01*
G37*
G36*
X919377Y-3766703D02*
G01*
X936080Y-3750001D01*
X950000Y-3763921D01*
X933297Y-3780623D01*
G37*
G36*
X550000Y-3736080D02*
G01*
X566703Y-3719378D01*
X580622Y-3733298D01*
X563919Y-3750001D01*
G37*
G36*
X519377Y-3766703D02*
G01*
X536080Y-3750001D01*
X550000Y-3763921D01*
X533296Y-3780623D01*
G37*
G36*
X650000Y-3736080D02*
G01*
X666703Y-3719378D01*
X680622Y-3733298D01*
X663919Y-3750001D01*
G37*
G36*
X619377Y-3766703D02*
G01*
X636080Y-3750001D01*
X650000Y-3763921D01*
X633296Y-3780623D01*
G37*
G36*
X750000Y-3736080D02*
G01*
X766702Y-3719378D01*
X780622Y-3733298D01*
X763919Y-3750001D01*
G37*
G36*
X719377Y-3766703D02*
G01*
X736080Y-3750001D01*
X750000Y-3763921D01*
X733296Y-3780623D01*
G37*
G36*
X850000Y-3736080D02*
G01*
X866702Y-3719378D01*
X880622Y-3733298D01*
X863919Y-3750001D01*
G37*
G36*
X819377Y-3766703D02*
G01*
X836080Y-3750001D01*
X850000Y-3763921D01*
X833297Y-3780623D01*
G37*
G36*
X1250000Y-3836080D02*
G01*
X1266702Y-3819378D01*
X1280622Y-3833298D01*
X1263919Y-3850001D01*
G37*
G36*
X1219377Y-3866703D02*
G01*
X1236080Y-3850001D01*
X1250000Y-3863921D01*
X1233297Y-3880623D01*
G37*
G36*
X1150000Y-3836080D02*
G01*
X1166702Y-3819378D01*
X1180622Y-3833298D01*
X1163919Y-3850001D01*
G37*
G36*
X1119377Y-3866703D02*
G01*
X1136080Y-3850001D01*
X1150000Y-3863921D01*
X1133297Y-3880623D01*
G37*
G36*
X1050000Y-3836080D02*
G01*
X1066702Y-3819378D01*
X1080622Y-3833298D01*
X1063919Y-3850001D01*
G37*
G36*
X1019377Y-3866703D02*
G01*
X1036080Y-3850001D01*
X1050000Y-3863921D01*
X1033297Y-3880623D01*
G37*
G36*
X950000Y-3836080D02*
G01*
X966702Y-3819378D01*
X980622Y-3833298D01*
X963919Y-3850001D01*
G37*
G36*
X919377Y-3866703D02*
G01*
X936080Y-3850001D01*
X950000Y-3863921D01*
X933297Y-3880623D01*
G37*
G36*
X550000Y-3836080D02*
G01*
X566703Y-3819378D01*
X580622Y-3833298D01*
X563919Y-3850001D01*
G37*
G36*
X519377Y-3866703D02*
G01*
X536080Y-3850001D01*
X550000Y-3863921D01*
X533296Y-3880623D01*
G37*
G36*
X650000Y-3836080D02*
G01*
X666703Y-3819378D01*
X680622Y-3833298D01*
X663919Y-3850001D01*
G37*
G36*
X619377Y-3866703D02*
G01*
X636080Y-3850001D01*
X650000Y-3863921D01*
X633296Y-3880623D01*
G37*
G36*
X750000Y-3836080D02*
G01*
X766702Y-3819378D01*
X780622Y-3833298D01*
X763919Y-3850001D01*
G37*
G36*
X719377Y-3866703D02*
G01*
X736080Y-3850001D01*
X750000Y-3863921D01*
X733296Y-3880623D01*
G37*
G36*
X850000Y-3836080D02*
G01*
X866702Y-3819378D01*
X880622Y-3833298D01*
X863919Y-3850001D01*
G37*
G36*
X819377Y-3866703D02*
G01*
X836080Y-3850001D01*
X850000Y-3863921D01*
X833297Y-3880623D01*
G37*
G36*
X1250000Y-3936080D02*
G01*
X1266702Y-3919378D01*
X1280622Y-3933298D01*
X1263919Y-3950001D01*
G37*
G36*
X1219377Y-3966703D02*
G01*
X1236080Y-3950001D01*
X1250000Y-3963921D01*
X1233297Y-3980623D01*
G37*
G36*
X1150000Y-3936080D02*
G01*
X1166702Y-3919378D01*
X1180622Y-3933298D01*
X1163919Y-3950001D01*
G37*
G36*
X1119377Y-3966703D02*
G01*
X1136080Y-3950001D01*
X1150000Y-3963921D01*
X1133297Y-3980623D01*
G37*
G36*
X1050000Y-3936080D02*
G01*
X1066702Y-3919378D01*
X1080622Y-3933298D01*
X1063919Y-3950001D01*
G37*
G36*
X1019377Y-3966703D02*
G01*
X1036080Y-3950001D01*
X1050000Y-3963921D01*
X1033297Y-3980623D01*
G37*
G36*
X950000Y-3936080D02*
G01*
X966702Y-3919378D01*
X980622Y-3933298D01*
X963919Y-3950001D01*
G37*
G36*
X919377Y-3966703D02*
G01*
X936080Y-3950001D01*
X950000Y-3963921D01*
X933297Y-3980623D01*
G37*
G36*
X550000Y-3936080D02*
G01*
X566703Y-3919378D01*
X580622Y-3933298D01*
X563919Y-3950001D01*
G37*
G36*
X519377Y-3966703D02*
G01*
X536080Y-3950001D01*
X550000Y-3963921D01*
X533296Y-3980623D01*
G37*
G36*
X650000Y-3936080D02*
G01*
X666703Y-3919378D01*
X680622Y-3933298D01*
X663919Y-3950001D01*
G37*
G36*
X619377Y-3966703D02*
G01*
X636080Y-3950001D01*
X650000Y-3963921D01*
X633296Y-3980623D01*
G37*
G36*
X750000Y-3936080D02*
G01*
X766702Y-3919378D01*
X780622Y-3933298D01*
X763919Y-3950001D01*
G37*
G36*
X719377Y-3966703D02*
G01*
X736080Y-3950001D01*
X750000Y-3963921D01*
X733296Y-3980623D01*
G37*
G36*
X850000Y-3936080D02*
G01*
X866702Y-3919378D01*
X880622Y-3933298D01*
X863919Y-3950001D01*
G37*
G36*
X819377Y-3966703D02*
G01*
X836080Y-3950001D01*
X850000Y-3963921D01*
X833297Y-3980623D01*
G37*
G36*
X850000Y-4036080D02*
G01*
X866702Y-4019378D01*
X880622Y-4033298D01*
X863919Y-4050001D01*
G37*
G36*
X819377Y-4066703D02*
G01*
X836080Y-4050001D01*
X850000Y-4063921D01*
X833297Y-4080623D01*
G37*
G36*
X750000Y-4036080D02*
G01*
X766702Y-4019378D01*
X780622Y-4033298D01*
X763919Y-4050001D01*
G37*
G36*
X719377Y-4066703D02*
G01*
X736080Y-4050001D01*
X750000Y-4063921D01*
X733296Y-4080623D01*
G37*
G36*
X650000Y-4036080D02*
G01*
X666703Y-4019378D01*
X680622Y-4033298D01*
X663919Y-4050001D01*
G37*
G36*
X619377Y-4066703D02*
G01*
X636080Y-4050001D01*
X650000Y-4063921D01*
X633296Y-4080623D01*
G37*
G36*
X550000Y-4036080D02*
G01*
X566703Y-4019378D01*
X580622Y-4033298D01*
X563919Y-4050001D01*
G37*
G36*
X519377Y-4066703D02*
G01*
X536080Y-4050001D01*
X550000Y-4063921D01*
X533296Y-4080623D01*
G37*
G36*
X950000Y-4036080D02*
G01*
X966702Y-4019378D01*
X980622Y-4033298D01*
X963919Y-4050001D01*
G37*
G36*
X919377Y-4066703D02*
G01*
X936080Y-4050001D01*
X950000Y-4063921D01*
X933297Y-4080623D01*
G37*
G36*
X1050000Y-4036080D02*
G01*
X1066702Y-4019378D01*
X1080622Y-4033298D01*
X1063919Y-4050001D01*
G37*
G36*
X1019377Y-4066703D02*
G01*
X1036080Y-4050001D01*
X1050000Y-4063921D01*
X1033297Y-4080623D01*
G37*
G36*
X1150000Y-4036080D02*
G01*
X1166702Y-4019378D01*
X1180622Y-4033298D01*
X1163919Y-4050001D01*
G37*
G36*
X1119377Y-4066703D02*
G01*
X1136080Y-4050001D01*
X1150000Y-4063921D01*
X1133297Y-4080623D01*
G37*
G36*
X1250000Y-4036080D02*
G01*
X1266702Y-4019378D01*
X1280622Y-4033298D01*
X1263919Y-4050001D01*
G37*
G36*
X1219377Y-4066703D02*
G01*
X1236080Y-4050001D01*
X1250000Y-4063921D01*
X1233297Y-4080623D01*
G37*
G36*
X1172092Y-5071291D02*
G01*
X1231091Y-5071291D01*
X1231091Y-5110592D01*
X1172092Y-5110592D01*
G37*
G36*
X1172092Y-5189391D02*
G01*
X1231091Y-5189391D01*
X1231091Y-5228691D01*
X1172092Y-5228691D01*
G37*
G36*
X1368891Y-5189391D02*
G01*
X1427992Y-5189391D01*
X1427992Y-5228691D01*
X1368891Y-5228691D01*
G37*
G36*
X1368891Y-5071291D02*
G01*
X1427992Y-5071291D01*
X1427992Y-5110592D01*
X1368891Y-5110592D01*
G37*
G36*
X1522092Y-4971291D02*
G01*
X1581091Y-4971291D01*
X1581091Y-5010592D01*
X1522092Y-5010592D01*
G37*
G36*
X1522092Y-5089391D02*
G01*
X1581091Y-5089391D01*
X1581091Y-5128691D01*
X1522092Y-5128691D01*
G37*
G36*
X1718891Y-5089391D02*
G01*
X1777992Y-5089391D01*
X1777992Y-5128691D01*
X1718891Y-5128691D01*
G37*
G36*
X1718891Y-4971291D02*
G01*
X1777992Y-4971291D01*
X1777992Y-5010592D01*
X1718891Y-5010592D01*
G37*
G36*
X1672092Y-4721291D02*
G01*
X1731091Y-4721291D01*
X1731091Y-4760592D01*
X1672092Y-4760592D01*
G37*
G36*
X1672092Y-4839391D02*
G01*
X1731091Y-4839391D01*
X1731091Y-4878691D01*
X1672092Y-4878691D01*
G37*
G36*
X1868891Y-4839391D02*
G01*
X1927992Y-4839391D01*
X1927992Y-4878691D01*
X1868891Y-4878691D01*
G37*
G36*
X1868891Y-4721291D02*
G01*
X1927992Y-4721291D01*
X1927992Y-4760592D01*
X1868891Y-4760592D01*
G37*
G36*
X1522092Y-4471291D02*
G01*
X1581091Y-4471291D01*
X1581091Y-4510592D01*
X1522092Y-4510592D01*
G37*
G36*
X1522092Y-4589391D02*
G01*
X1581091Y-4589391D01*
X1581091Y-4628691D01*
X1522092Y-4628691D01*
G37*
G36*
X1718891Y-4589391D02*
G01*
X1777992Y-4589391D01*
X1777992Y-4628691D01*
X1718891Y-4628691D01*
G37*
G36*
X1718891Y-4471291D02*
G01*
X1777992Y-4471291D01*
X1777992Y-4510592D01*
X1718891Y-4510592D01*
G37*
G36*
X1172092Y-4371291D02*
G01*
X1231091Y-4371291D01*
X1231091Y-4410592D01*
X1172092Y-4410592D01*
G37*
G36*
X1172092Y-4489391D02*
G01*
X1231091Y-4489391D01*
X1231091Y-4528691D01*
X1172092Y-4528691D01*
G37*
G36*
X1368891Y-4489391D02*
G01*
X1427992Y-4489391D01*
X1427992Y-4528691D01*
X1368891Y-4528691D01*
G37*
G36*
X1368891Y-4371291D02*
G01*
X1427992Y-4371291D01*
X1427992Y-4410592D01*
X1368891Y-4410592D01*
G37*
G36*
X822092Y-4471291D02*
G01*
X881091Y-4471291D01*
X881091Y-4510592D01*
X822092Y-4510592D01*
G37*
G36*
X822092Y-4589391D02*
G01*
X881091Y-4589391D01*
X881091Y-4628691D01*
X822092Y-4628691D01*
G37*
G36*
X1018891Y-4589391D02*
G01*
X1077992Y-4589391D01*
X1077992Y-4628691D01*
X1018891Y-4628691D01*
G37*
G36*
X1018891Y-4471291D02*
G01*
X1077992Y-4471291D01*
X1077992Y-4510592D01*
X1018891Y-4510592D01*
G37*
G36*
X672091Y-4721291D02*
G01*
X731091Y-4721291D01*
X731091Y-4760592D01*
X672091Y-4760592D01*
G37*
G36*
X672091Y-4839391D02*
G01*
X731091Y-4839391D01*
X731091Y-4878691D01*
X672091Y-4878691D01*
G37*
G36*
X868891Y-4839391D02*
G01*
X927992Y-4839391D01*
X927992Y-4878691D01*
X868891Y-4878691D01*
G37*
G36*
X868891Y-4721291D02*
G01*
X927992Y-4721291D01*
X927992Y-4760592D01*
X868891Y-4760592D01*
G37*
G36*
X822092Y-4971291D02*
G01*
X881091Y-4971291D01*
X881091Y-5010592D01*
X822092Y-5010592D01*
G37*
G36*
X822092Y-5089391D02*
G01*
X881091Y-5089391D01*
X881091Y-5128691D01*
X822092Y-5128691D01*
G37*
G36*
X1018891Y-5089391D02*
G01*
X1077992Y-5089391D01*
X1077992Y-5128691D01*
X1018891Y-5128691D01*
G37*
G36*
X1018891Y-4971291D02*
G01*
X1077992Y-4971291D01*
X1077992Y-5010592D01*
X1018891Y-5010592D01*
G37*
D36*
G01*
X856999Y-1756999D03*
G01*
X856999Y-1679000D03*
G01*
X856999Y-1600000D03*
G01*
X856999Y-1520999D03*
G01*
X856999Y-1443000D03*
G01*
X423000Y-1443000D03*
G01*
X423000Y-1520999D03*
G01*
X423000Y-1600000D03*
G01*
X423000Y-1679000D03*
G01*
X423000Y-1756999D03*
D37*
G01*
X224879Y1049229D03*
G01*
X224879Y1074819D03*
G01*
X224879Y1100410D03*
G01*
X224879Y1125999D03*
G01*
X224879Y1151590D03*
D38*
G01*
X55120Y1037179D03*
G01*
X55760Y1166260D03*
D29*
G01*
X1133350Y-515000D03*
G01*
X1176649Y-515000D03*
D37*
G01*
X224879Y-750770D03*
G01*
X224879Y-725180D03*
G01*
X224879Y-699589D03*
G01*
X224879Y-674000D03*
G01*
X224879Y-648409D03*
D38*
G01*
X55120Y-762820D03*
G01*
X55760Y-633739D03*
D29*
G01*
X1153350Y-1420000D03*
G01*
X1196649Y-1420000D03*
D37*
G01*
X224879Y-1650770D03*
G01*
X224879Y-1625180D03*
G01*
X224879Y-1599589D03*
G01*
X224879Y-1574000D03*
G01*
X224879Y-1548409D03*
D38*
G01*
X55120Y-1662820D03*
G01*
X55760Y-1533739D03*
D37*
G01*
X224879Y-4850770D03*
G01*
X224879Y-4825180D03*
G01*
X224879Y-4799589D03*
G01*
X224879Y-4774000D03*
G01*
X224879Y-4748409D03*
D38*
G01*
X55120Y-4862820D03*
G01*
X55760Y-4733739D03*
D29*
G01*
X838350Y-2235000D03*
G01*
X881649Y-2235000D03*
D37*
G01*
X224879Y-2650770D03*
G01*
X224879Y-2625180D03*
G01*
X224879Y-2599589D03*
G01*
X224879Y-2574000D03*
G01*
X224879Y-2548409D03*
D38*
G01*
X55120Y-2662820D03*
G01*
X55760Y-2533739D03*
G36*
X2209800Y85734D02*
G01*
X2229485Y85734D01*
X2229485Y54238D01*
X2209800Y54238D01*
G37*
G36*
X2170430Y85734D02*
G01*
X2190115Y85734D01*
X2190115Y54238D01*
X2170430Y54238D01*
G37*
G36*
X1859800Y85734D02*
G01*
X1879485Y85734D01*
X1879485Y54238D01*
X1859800Y54238D01*
G37*
G36*
X1820430Y85734D02*
G01*
X1840115Y85734D01*
X1840115Y54238D01*
X1820430Y54238D01*
G37*
G36*
X1509800Y85734D02*
G01*
X1529485Y85734D01*
X1529485Y54238D01*
X1509800Y54238D01*
G37*
G36*
X1470430Y85734D02*
G01*
X1490115Y85734D01*
X1490115Y54238D01*
X1470430Y54238D01*
G37*
D17*
G01*
X410059Y1120300D03*
G01*
X410059Y1159670D03*
G36*
X1509900Y-814265D02*
G01*
X1529585Y-814265D01*
X1529585Y-845761D01*
X1509900Y-845761D01*
G37*
G36*
X1470531Y-814265D02*
G01*
X1490216Y-814265D01*
X1490216Y-845761D01*
X1470531Y-845761D01*
G37*
G36*
X1859900Y-814265D02*
G01*
X1879585Y-814265D01*
X1879585Y-845761D01*
X1859900Y-845761D01*
G37*
G36*
X1820531Y-814265D02*
G01*
X1840216Y-814265D01*
X1840216Y-845761D01*
X1820531Y-845761D01*
G37*
G36*
X2209901Y-814265D02*
G01*
X2229585Y-814265D01*
X2229585Y-845761D01*
X2209901Y-845761D01*
G37*
G36*
X2170531Y-814265D02*
G01*
X2190216Y-814265D01*
X2190216Y-845761D01*
X2170531Y-845761D01*
G37*
D16*
G01*
X1390309Y-1750000D03*
G01*
X1429679Y-1750000D03*
G01*
X1630370Y-1750010D03*
G01*
X1669740Y-1750010D03*
G01*
X1870370Y-1750010D03*
G01*
X1909740Y-1750010D03*
D17*
G01*
X2400000Y-5010309D03*
G01*
X2400000Y-5049679D03*
G01*
X2400000Y-4780309D03*
G01*
X2400000Y-4819679D03*
G01*
X2400000Y-4545309D03*
G01*
X2400000Y-4584679D03*
G01*
X2405000Y-2780309D03*
G01*
X2405000Y-2819679D03*
G01*
X2400000Y-2380309D03*
G01*
X2400000Y-2419679D03*
D16*
G01*
X460309Y310000D03*
G01*
X499679Y310000D03*
G01*
X1630309Y-4680000D03*
G01*
X1669679Y-4680000D03*
G01*
X935309Y-4685000D03*
G01*
X974679Y-4685000D03*
G01*
X1630259Y-4799989D03*
G01*
X1669629Y-4799989D03*
G01*
X1630309Y-4920000D03*
G01*
X1669679Y-4920000D03*
G01*
X1135309Y-4560000D03*
G01*
X1174679Y-4560000D03*
G01*
X1280309Y-5015000D03*
G01*
X1319679Y-5015000D03*
G36*
X959843Y-4789252D02*
G01*
X979528Y-4789252D01*
X979528Y-4820747D01*
X959843Y-4820747D01*
G37*
G36*
X920473Y-4789252D02*
G01*
X940158Y-4789252D01*
X940158Y-4820747D01*
X920473Y-4820747D01*
G37*
G01*
X930309Y-4915000D03*
G01*
X969679Y-4915000D03*
D17*
G01*
X720000Y-565309D03*
G01*
X720000Y-604679D03*
D39*
G01*
X235120Y62199D03*
G01*
X235120Y160619D03*
G01*
X235120Y239360D03*
G01*
X235120Y337789D03*
M02*
