M48
INCH,LZ
;FILE_FORMAT=2:4
;TYPE=PLATED
;Layer: Drill PTH
;EasyEDA v6.4.17, 2021-03-02T21:30:00+01:00
;52dc7113b7e944b1bde967162dfd0e84,9c416354eb984020824aaf9c885bead6,10
;Gerber Generator version 0.2
;Holesize 1 = 0.0120 inch
T01C0.0120
;Holesize 2 = 0.0280 inch
T02C0.0280
;Holesize 3 = 0.0320 inch
T03C0.0320
;Holesize 4 = 0.0350 inch
T04C0.0350
;Holesize 5 = 0.0360 inch
T05C0.0360
;Holesize 6 = 0.0390 inch
T06C0.0390
%
G05
G90
T01
X012900Y-014750
X003050Y-015150
X003050Y-015500
X018750Y-024250
X001600Y-034100
X002400Y-037250
X018400Y-027800
X019507Y-028107
X020213Y-028110
X009150Y-024750
X009150Y-024250
X009150Y-023750
X004850Y-023250
X004850Y-023750
X004850Y-024250
X021000Y-039500
X002350Y-034400
X001550Y-039750
X024350Y-034250
X023450Y-039250
X021300Y-040400
X023950Y-034700
X024200Y-037750
X023750Y-035600
X022950Y-036250
X022650Y-035250
X021000Y-037550
X022350Y-038500
X002650Y-040350
X001950Y-039200
X001550Y-037250
X001550Y-036750
X005000Y-040000
X005000Y-034150
X003550Y-035750
X003600Y-038950
X003600Y-038250
X005000Y-036250
X005000Y-037000
X005000Y-039000
X013000Y-033000
X012000Y-033000
X011000Y-033000
X010000Y-033000
X009000Y-033000
X008000Y-033000
X007000Y-033000
X006000Y-033000
X006000Y-034000
X007000Y-034000
X008000Y-034000
X009000Y-034000
X010000Y-034000
X011000Y-034000
X012000Y-034000
X013000Y-034000
X013000Y-035000
X012000Y-035000
X011000Y-035000
X010000Y-035000
X009000Y-035000
X008000Y-035000
X007000Y-035000
X006000Y-035000
X006000Y-036000
X007000Y-036000
X008000Y-036000
X009000Y-036000
X010000Y-036000
X011000Y-036000
X012000Y-036000
X013000Y-036000
X012000Y-037000
X011000Y-037000
X010000Y-037000
X009000Y-037000
X008000Y-037000
X007000Y-037000
X006000Y-037000
X006000Y-038000
X007000Y-038000
X008000Y-038000
X009000Y-038000
X010000Y-038000
X011000Y-038000
X012000Y-038000
X012000Y-039000
X011000Y-039000
X010000Y-039000
X009000Y-039000
X008000Y-039000
X007000Y-039000
X006000Y-039000
X006000Y-040000
X007000Y-040000
X008000Y-040000
X009000Y-040000
X010000Y-040000
X011000Y-040000
X012000Y-040000
X014000Y-034000
X015000Y-034000
X016000Y-034000
X017000Y-034000
X018000Y-034000
X019000Y-034000
X020000Y-034000
X020900Y-034000
X021000Y-035000
X020000Y-035000
X019000Y-035000
X018000Y-035000
X017000Y-035000
X016000Y-035000
X015000Y-035000
X014000Y-035000
X014000Y-036000
X015000Y-036000
X016000Y-036000
X017000Y-036000
X018000Y-036000
X019000Y-036000
X020000Y-036000
X021000Y-036000
X020850Y-037000
X021000Y-038000
X020000Y-038000
X020000Y-037000
X019000Y-037000
X019000Y-038000
X018000Y-038000
X018000Y-037000
X017000Y-037000
X017000Y-038000
X016000Y-038000
X016000Y-037000
X015000Y-037000
X015000Y-038000
X014000Y-038000
X014000Y-037000
X013000Y-037000
X013000Y-038000
X013000Y-039000
X014000Y-039000
X015000Y-039000
X016000Y-039000
X017000Y-039000
X018000Y-039000
X019000Y-039000
X020000Y-039000
X021000Y-039000
X013000Y-040000
X014000Y-040000
X015000Y-040000
X016000Y-040000
X017000Y-040000
X018000Y-040000
X019000Y-040000
X020000Y-040000
X020950Y-039950
X011150Y-017850
X009400Y-017600
X005300Y-015600
X009400Y-014450
X007750Y-014450
X005800Y-017200
X005300Y-017200
X014206Y-017100
X016596Y-016100
X005350Y-017800
X019093Y-016900
X012550Y-017300
X011700Y-016600
X011700Y-016100
X011700Y-015600
X010400Y-016100
X010400Y-015600
X010400Y-015100
X014515Y011200
X014550Y001200
X017700Y009950
X017200Y009950
X021300Y009550
X020850Y009550
X011650Y009000
X014250Y010900
X017200Y011500
X013750Y010900
X013750Y011200
X020250Y012300
X013700Y009200
X019350Y008950
X016300Y010250
X015600Y010250
X019700Y010300
X019000Y010300
X022350Y010250
X023050Y010250
X010700Y009900
X010700Y010400
X010700Y010900
X009250Y010400
X007950Y010900
X007975Y011450
X007750Y001400
X007750Y001900
X007750Y002400
X010450Y000900
X010450Y001400
X010450Y001900
X013750Y000200
X013800Y003300
X009850Y002900
X007800Y-006050
X007800Y-006550
X007800Y-007050
X010550Y-006550
X010550Y-007050
X010550Y-007550
X013600Y-008550
X020900Y-008550
X023550Y-008550
X015150Y-048750
X015150Y-048250
X015150Y-047750
X010850Y-047250
X010850Y-047750
X010850Y-048250
X019550Y-047250
X020089Y-047211
X020600Y-047150
X018950Y-046250
X017000Y-033550
X022000Y-033650
X015000Y-033550
X021800Y-033300
X013000Y-034550
X019050Y-034500
X025350Y-040250
X004400Y-040250
X023200Y-036000
X022650Y-039700
X016347Y-039233
X014800Y-040800
X021350Y-033900
X021000Y-036550
X005000Y-036600
X002600Y-032300
X002150Y-032300
X002400Y-036150
X023600Y-040350
X023700Y-037250
X023700Y-036750
X022550Y-040600
X025050Y-032900
X025350Y-041250
X012850Y-041400
X000950Y-041200
X001200Y-038500
X001200Y-038000
X001200Y-036000
X001200Y-035500
X024900Y-035500
X024900Y-036000
X024900Y-038000
X024900Y-038500
X000800Y-032850
X000421Y-043419
X000421Y-044919
X000421Y-050919
X000421Y-052419
X001921Y-043419
X001921Y-044919
X001921Y-046419
X001921Y-050919
X001921Y-052419
X003421Y-043419
X003421Y-044919
X003421Y-046419
X003421Y-047919
X003421Y-049419
X003421Y-050919
X003421Y-052419
X004921Y-043419
X004921Y-044919
X004921Y-046419
X004921Y-049419
X004921Y-050919
X004921Y-052419
X006421Y-043419
X006421Y-044919
X006421Y-046419
X006421Y-047919
X006421Y-050919
X006421Y-052419
X007921Y-043419
X007921Y-044919
X007921Y-046419
X007921Y-052419
X009421Y-043419
X009421Y-050919
X009421Y-052419
X010921Y-043419
X015421Y-043419
X016921Y-043419
X016921Y-052419
X018421Y-043419
X018421Y-050919
X018421Y-052419
X022921Y-046419
X022921Y-047919
X022921Y-050919
X024421Y-043419
X024421Y-044919
X024421Y-046419
X024421Y-049419
X024421Y-050919
X024421Y-052419
X013429Y012704
X006657Y011257
X006072Y009757
X021559Y009704
X000521Y014479
X000521Y012979
X000521Y008479
X002021Y014479
X002021Y012979
X002021Y008479
X003521Y014479
X003521Y012979
X003521Y011479
X003521Y008479
X005021Y014479
X005021Y012979
X005021Y008479
X006521Y014479
X006521Y012979
X006521Y008479
X008021Y014479
X008021Y012979
X008021Y008479
X009521Y014479
X009521Y012979
X009521Y011479
X009521Y008479
X011021Y014479
X011021Y012979
X012521Y014479
X014021Y014479
X014021Y008479
X015521Y014479
X015521Y008479
X017021Y014479
X017021Y008479
X023021Y014479
X023021Y012979
X024521Y014479
X024521Y012979
X024521Y008479
X000521Y005532
X000521Y002532
X000521Y001032
X002021Y005532
X003521Y005532
X003521Y004032
X003521Y001032
X003521Y-000468
X005021Y005532
X005021Y004032
X005021Y-000468
X006521Y005532
X006521Y004032
X006521Y001032
X006521Y-000468
X008021Y005532
X008021Y004032
X008021Y-000468
X009521Y005532
X009521Y002532
X009521Y-000468
X011021Y005532
X011021Y004032
X011021Y-000468
X012521Y005532
X014021Y005532
X014021Y-000468
X015521Y005532
X015521Y-000468
X017021Y005532
X017021Y-000468
X021521Y-000468
X023021Y005532
X023021Y004032
X023021Y-000468
X024521Y005532
X024521Y004032
X024521Y002532
X024521Y001032
X024521Y-000468
X021975Y-006799
X023475Y-005299
X000521Y-003468
X000521Y-004968
X000521Y-009468
X002021Y-003468
X002021Y-004968
X002021Y-009468
X003521Y-003468
X003521Y-004968
X003521Y-007968
X003521Y-009468
X005021Y-003468
X005021Y-004968
X005021Y-009468
X006521Y-003468
X006521Y-009468
X008021Y-003468
X008021Y-009468
X009521Y-003468
X011021Y-003468
X012521Y-003468
X014021Y-003468
X014021Y-004968
X015521Y-003468
X015521Y-004968
X017021Y-003468
X017021Y-004968
X021521Y-009468
X023021Y-003468
X023021Y-009468
X024521Y-003468
X024521Y-009468
X008496Y-025244
X011063Y-028241
X012563Y-028241
X014063Y-028241
X000521Y-021468
X000521Y-022968
X000521Y-025968
X000521Y-028968
X000521Y-030468
X002021Y-021468
X002021Y-022968
X002021Y-024468
X002021Y-028968
X002021Y-030468
X003521Y-021468
X003521Y-022968
X003521Y-024468
X003521Y-028968
X003521Y-030468
X005021Y-021468
X005021Y-025968
X005021Y-030468
X006521Y-021468
X006521Y-022968
X006521Y-024468
X006521Y-030468
X008021Y-021468
X008021Y-030468
X009521Y-021468
X009521Y-030468
X011021Y-021468
X011021Y-030468
X012521Y-021468
X012521Y-030468
X014021Y-021468
X014021Y-030468
X015521Y-021468
X015521Y-030468
X017021Y-021468
X017021Y-028968
X017021Y-030468
X018521Y-021468
X018521Y-028968
X018521Y-030468
X021521Y-025968
X023021Y-025968
X024521Y-021468
X024521Y-022968
X024521Y-024468
X024521Y-025968
X024521Y-027468
X024521Y-028968
X024521Y-030468
X021000Y004050
X021000Y003400
X019000Y001050
X014650Y-007850
X015350Y-007850
X020100Y-008150
X019800Y-027100
X020150Y-024700
X010600Y-045500
X011300Y-044800
X011750Y-046500
X013650Y-046950
X023551Y-014820
X023551Y-016320
X020143Y-016320
X006521Y-014820
X015300Y-014800
X017700Y-014800
X021500Y-014950
X018700Y-015000
X007150Y-016800
X016500Y-044850
X012950Y-045100
T02
X000719Y009575G85X001034Y009575
X000719Y012425G85X001034Y012425
X001940Y011955
X001940Y010045
X000719Y-008425G85X001034Y-008425
X000719Y-005575G85X001034Y-005575
X001940Y-006045
X001940Y-007955
X000719Y-017425G85X001034Y-017425
X000719Y-014575G85X001034Y-014575
X001940Y-015045
X001940Y-016955
X000719Y-049425G85X001034Y-049425
X000719Y-046575G85X001034Y-046575
X001940Y-047045
X001940Y-048955
X000719Y-027425G85X001034Y-027425
X000719Y-024575G85X001034Y-024575
X001940Y-025045
X001940Y-026955
T03
X005239Y-006650
X005239Y-007630
X005239Y-005670
T04
X024350Y010000
X024350Y011000
X022500Y-030500
X021500Y-030500
X020500Y-030500
X019500Y-030500
X019500Y-021500
X020500Y-021500
X021500Y-021500
X022500Y-021500
X022500Y-041500
X021500Y-041500
X020500Y-041500
X019500Y-041500
X019500Y-032500
X020500Y-032500
X021500Y-032500
X022500Y-032500
X018500Y-012500
X019500Y-012500
X020500Y-012500
X021500Y-012500
X021500Y-019500
X020500Y-019500
X019500Y-019500
X018500Y-019500
X019500Y-043500
X020500Y-043500
X021500Y-043500
X022500Y-043500
X022500Y-052500
X021500Y-052500
X020500Y-052500
X019500Y-052500
X018500Y005500
X019500Y005500
X020500Y005500
X021500Y005500
X021500Y-001500
X020500Y-001500
X019500Y-001500
X018500Y-001500
X021500Y007500
X020500Y007500
X019500Y007500
X018500Y007500
X018500Y014500
X019500Y014500
X020500Y014500
X021500Y014500
X021500Y-010500
X020500Y-010500
X019500Y-010500
X018500Y-010500
X018500Y-003500
X019500Y-003500
X020500Y-003500
X021500Y-003500
T05
X024350Y012000
T06
X024450Y-008650
X024450Y-007650
X000914Y004244G85X001583Y004244
X000914Y-000244G85X001583Y-000244
M30
