G04 Layer: BottomLayer*
G04 EasyEDA v6.4.17, 2021-03-02T21:30:00+01:00*
G04 52dc7113b7e944b1bde967162dfd0e84,9c416354eb984020824aaf9c885bead6,10*
G04 Gerber Generator version 0.2*
G04 Scale: 100 percent, Rotated: No, Reflected: No *
G04 Dimensions in inches *
G04 leading zeros omitted , absolute positions ,3 integer and 6 decimal *
%FSLAX36Y36*%
%MOIN*%

%ADD10C,0.0100*%
%ADD11C,0.0150*%
%ADD15C,0.0240*%
%ADD41C,0.0620*%
%ADD42C,0.0600*%
%ADD43C,0.0472*%
%ADD44R,0.0630X0.0630*%
%ADD45C,0.0630*%
%ADD47C,0.0512*%
%ADD48C,0.0591*%

%LPD*%
G36*
X2086720Y719940D02*
G01*
X2085040Y720300D01*
X2083680Y721340D01*
X2082860Y722860D01*
X2082760Y724560D01*
X2083380Y726160D01*
X2085580Y729460D01*
X2087960Y734280D01*
X2089700Y739360D01*
X2090740Y744640D01*
X2091100Y750000D01*
X2090740Y755360D01*
X2089700Y760639D01*
X2087960Y765720D01*
X2085580Y770540D01*
X2082600Y775020D01*
X2079060Y779060D01*
X2075020Y782600D01*
X2070540Y785580D01*
X2067340Y787180D01*
X2066160Y788060D01*
X2065380Y789300D01*
X2065100Y790759D01*
X2065100Y869800D01*
X2064800Y872940D01*
X2063940Y875780D01*
X2062540Y878379D01*
X2060540Y880819D01*
X1965820Y975540D01*
X1963380Y977540D01*
X1960780Y978940D01*
X1957940Y979800D01*
X1954800Y980100D01*
X1695580Y980100D01*
X1693980Y980440D01*
X1692660Y981360D01*
X1691800Y982760D01*
X1691579Y984360D01*
X1692020Y985939D01*
X1693040Y987200D01*
X1695820Y989460D01*
X1715080Y1008720D01*
X1716380Y1009599D01*
X1717920Y1009900D01*
X1785380Y1009900D01*
X1786920Y1009599D01*
X1788220Y1008720D01*
X1802480Y994460D01*
X1804920Y992460D01*
X1807520Y991060D01*
X1810360Y990200D01*
X1813500Y989900D01*
X2084800Y989900D01*
X2087940Y990200D01*
X2090780Y991060D01*
X2093380Y992460D01*
X2095820Y994460D01*
X2160540Y1059180D01*
X2162540Y1061620D01*
X2163940Y1064220D01*
X2164800Y1067060D01*
X2165100Y1070200D01*
X2165100Y1409240D01*
X2165380Y1410700D01*
X2166160Y1411940D01*
X2167340Y1412820D01*
X2170540Y1414420D01*
X2175020Y1417400D01*
X2179060Y1420940D01*
X2182600Y1424980D01*
X2185580Y1429460D01*
X2187960Y1434280D01*
X2189700Y1439360D01*
X2190740Y1444640D01*
X2191100Y1450000D01*
X2190740Y1455360D01*
X2189700Y1460640D01*
X2187960Y1465720D01*
X2185580Y1470540D01*
X2183500Y1473680D01*
X2182860Y1475280D01*
X2182960Y1476980D01*
X2183780Y1478500D01*
X2185140Y1479540D01*
X2186820Y1479900D01*
X2575899Y1479900D01*
X2577440Y1479600D01*
X2578720Y1478720D01*
X2579600Y1477440D01*
X2579900Y1475900D01*
X2579900Y724100D01*
X2579600Y722560D01*
X2578720Y721260D01*
X2577440Y720400D01*
X2575899Y720100D01*
X2195100Y719980D01*
X2193580Y720280D01*
X2192280Y721140D01*
X2191400Y722440D01*
X2191100Y723980D01*
X2191100Y732000D01*
X2168000Y732000D01*
X2168000Y723960D01*
X2167700Y722440D01*
X2166820Y721140D01*
X2165540Y720280D01*
X2164000Y719960D01*
X2136000Y719960D01*
X2134480Y720260D01*
X2133180Y721120D01*
X2132300Y722420D01*
X2132000Y723960D01*
X2132000Y732000D01*
X2108900Y732000D01*
X2108900Y723940D01*
X2108600Y722420D01*
X2107720Y721120D01*
X2106440Y720260D01*
X2104900Y719940D01*
G37*

%LPC*%
G36*
X2168000Y768000D02*
G01*
X2191100Y768000D01*
X2191100Y780780D01*
X2190820Y783240D01*
X2190080Y785380D01*
X2188880Y787280D01*
X2187280Y788880D01*
X2185380Y790080D01*
X2183240Y790819D01*
X2180780Y791100D01*
X2168000Y791100D01*
G37*
G36*
X2108900Y768000D02*
G01*
X2132000Y768000D01*
X2132000Y791100D01*
X2119220Y791100D01*
X2116760Y790819D01*
X2114620Y790080D01*
X2112720Y788880D01*
X2111120Y787280D01*
X2109920Y785380D01*
X2109180Y783240D01*
X2108900Y780780D01*
G37*
G36*
X2404220Y958900D02*
G01*
X2417000Y958900D01*
X2417000Y982000D01*
X2393900Y982000D01*
X2393900Y969220D01*
X2394180Y966760D01*
X2394920Y964620D01*
X2396120Y962720D01*
X2397720Y961120D01*
X2399620Y959920D01*
X2401760Y959180D01*
G37*
G36*
X2453000Y958900D02*
G01*
X2465780Y958900D01*
X2468240Y959180D01*
X2470380Y959920D01*
X2472280Y961120D01*
X2473880Y962720D01*
X2475080Y964620D01*
X2475820Y966760D01*
X2476100Y969220D01*
X2476100Y982000D01*
X2453000Y982000D01*
G37*
G36*
X2235000Y1002920D02*
G01*
X2238840Y1003259D01*
X2242560Y1004240D01*
X2246040Y1005879D01*
X2249200Y1008080D01*
X2249840Y1008720D01*
X2251140Y1009599D01*
X2252680Y1009900D01*
X2287320Y1009900D01*
X2288860Y1009599D01*
X2290160Y1008720D01*
X2290800Y1008080D01*
X2293960Y1005879D01*
X2297440Y1004240D01*
X2301160Y1003259D01*
X2305000Y1002920D01*
X2308840Y1003259D01*
X2312560Y1004240D01*
X2316040Y1005879D01*
X2319200Y1008080D01*
X2321920Y1010800D01*
X2324120Y1013960D01*
X2325760Y1017440D01*
X2326740Y1021160D01*
X2327080Y1025000D01*
X2326740Y1028840D01*
X2325760Y1032560D01*
X2324120Y1036040D01*
X2321920Y1039200D01*
X2319200Y1041919D01*
X2316040Y1044120D01*
X2312560Y1045759D01*
X2308840Y1046740D01*
X2305000Y1047080D01*
X2301160Y1046740D01*
X2297440Y1045759D01*
X2293960Y1044120D01*
X2290800Y1041919D01*
X2290160Y1041280D01*
X2288860Y1040400D01*
X2287320Y1040100D01*
X2252680Y1040100D01*
X2251140Y1040400D01*
X2249840Y1041280D01*
X2249200Y1041919D01*
X2246040Y1044120D01*
X2242560Y1045759D01*
X2238840Y1046740D01*
X2235000Y1047080D01*
X2231160Y1046740D01*
X2227440Y1045759D01*
X2223960Y1044120D01*
X2220800Y1041919D01*
X2218080Y1039200D01*
X2215880Y1036040D01*
X2214240Y1032560D01*
X2213260Y1028840D01*
X2212920Y1025000D01*
X2213260Y1021160D01*
X2214240Y1017440D01*
X2215880Y1013960D01*
X2218080Y1010800D01*
X2220800Y1008080D01*
X2223960Y1005879D01*
X2227440Y1004240D01*
X2231160Y1003259D01*
G37*
G36*
X2393900Y1018000D02*
G01*
X2417000Y1018000D01*
X2417000Y1041100D01*
X2404220Y1041100D01*
X2401760Y1040819D01*
X2399620Y1040080D01*
X2397720Y1038880D01*
X2396120Y1037280D01*
X2394920Y1035380D01*
X2394180Y1033240D01*
X2393900Y1030780D01*
G37*
G36*
X2453000Y1018000D02*
G01*
X2476100Y1018000D01*
X2476100Y1030780D01*
X2475820Y1033240D01*
X2475080Y1035380D01*
X2473880Y1037280D01*
X2472280Y1038880D01*
X2470380Y1040080D01*
X2468240Y1040819D01*
X2465780Y1041100D01*
X2453000Y1041100D01*
G37*
G36*
X2435000Y1058900D02*
G01*
X2440360Y1059260D01*
X2445640Y1060300D01*
X2450720Y1062040D01*
X2455540Y1064420D01*
X2460020Y1067400D01*
X2464060Y1070940D01*
X2467600Y1074980D01*
X2470580Y1079460D01*
X2472960Y1084280D01*
X2474700Y1089360D01*
X2475740Y1094640D01*
X2476100Y1100000D01*
X2475740Y1105360D01*
X2474700Y1110640D01*
X2472960Y1115720D01*
X2470580Y1120540D01*
X2467600Y1125020D01*
X2464060Y1129060D01*
X2460020Y1132600D01*
X2455540Y1135580D01*
X2450720Y1137960D01*
X2445640Y1139700D01*
X2440360Y1140740D01*
X2435000Y1141100D01*
X2429640Y1140740D01*
X2424360Y1139700D01*
X2419280Y1137960D01*
X2414460Y1135580D01*
X2409980Y1132600D01*
X2405940Y1129060D01*
X2402400Y1125020D01*
X2399420Y1120540D01*
X2397040Y1115720D01*
X2395300Y1110640D01*
X2394260Y1105360D01*
X2393900Y1100000D01*
X2394260Y1094640D01*
X2395300Y1089360D01*
X2397040Y1084280D01*
X2399420Y1079460D01*
X2402400Y1074980D01*
X2405940Y1070940D01*
X2409980Y1067400D01*
X2414460Y1064420D01*
X2419280Y1062040D01*
X2424360Y1060300D01*
X2429640Y1059260D01*
G37*
G36*
X2432320Y1160000D02*
G01*
X2437680Y1160000D01*
X2442980Y1160720D01*
X2448160Y1162120D01*
X2453080Y1164220D01*
X2457680Y1166940D01*
X2461900Y1170260D01*
X2465620Y1174120D01*
X2468800Y1178420D01*
X2471360Y1183120D01*
X2473300Y1188120D01*
X2474540Y1193340D01*
X2475060Y1198660D01*
X2474880Y1204020D01*
X2474000Y1209300D01*
X2472420Y1214400D01*
X2470160Y1219260D01*
X2467280Y1223780D01*
X2463820Y1227880D01*
X2459840Y1231460D01*
X2455440Y1234500D01*
X2450660Y1236900D01*
X2445600Y1238660D01*
X2440340Y1239740D01*
X2435000Y1240100D01*
X2429660Y1239740D01*
X2424400Y1238660D01*
X2419340Y1236900D01*
X2414560Y1234500D01*
X2410160Y1231460D01*
X2406180Y1227880D01*
X2402720Y1223780D01*
X2399840Y1219260D01*
X2397580Y1214400D01*
X2396000Y1209300D01*
X2395120Y1204020D01*
X2394940Y1198660D01*
X2395460Y1193340D01*
X2396700Y1188120D01*
X2398640Y1183120D01*
X2401200Y1178420D01*
X2404380Y1174120D01*
X2408100Y1170260D01*
X2412320Y1166940D01*
X2416920Y1164220D01*
X2421840Y1162120D01*
X2427020Y1160720D01*
G37*

%LPD*%
G36*
X579340Y713379D02*
G01*
X578120Y713800D01*
X576160Y714860D01*
X573140Y715780D01*
X570000Y716080D01*
X566860Y715780D01*
X565520Y715360D01*
X563760Y715240D01*
X562120Y715879D01*
X559740Y717500D01*
X558280Y718259D01*
X556700Y718920D01*
X555080Y719419D01*
X553400Y719800D01*
X551700Y720020D01*
X549920Y720100D01*
X24100Y720100D01*
X22559Y720400D01*
X21280Y721280D01*
X20400Y722560D01*
X20099Y724100D01*
X20099Y1475900D01*
X20400Y1477440D01*
X21280Y1478720D01*
X22559Y1479600D01*
X24100Y1479900D01*
X1804900Y1479900D01*
X1806440Y1479600D01*
X1807720Y1478720D01*
X1808600Y1477440D01*
X1808899Y1475900D01*
X1808899Y1419220D01*
X1809180Y1416759D01*
X1809920Y1414620D01*
X1811120Y1412720D01*
X1812720Y1411120D01*
X1814620Y1409920D01*
X1816759Y1409180D01*
X1819220Y1408899D01*
X1880780Y1408899D01*
X1883240Y1409180D01*
X1885380Y1409920D01*
X1887280Y1411120D01*
X1888880Y1412720D01*
X1890080Y1414620D01*
X1890820Y1416759D01*
X1891100Y1419220D01*
X1891100Y1475900D01*
X1891399Y1477440D01*
X1892280Y1478720D01*
X1893560Y1479600D01*
X1895100Y1479900D01*
X1913180Y1479900D01*
X1914860Y1479540D01*
X1916220Y1478500D01*
X1917040Y1476980D01*
X1917140Y1475280D01*
X1916500Y1473680D01*
X1914420Y1470540D01*
X1912040Y1465720D01*
X1910300Y1460640D01*
X1909259Y1455360D01*
X1908899Y1450000D01*
X1909259Y1444640D01*
X1910300Y1439360D01*
X1912040Y1434280D01*
X1914420Y1429460D01*
X1917400Y1424980D01*
X1920940Y1420940D01*
X1924980Y1417400D01*
X1929460Y1414420D01*
X1932660Y1412820D01*
X1933839Y1411940D01*
X1934620Y1410700D01*
X1934900Y1409240D01*
X1934900Y1303320D01*
X1934600Y1301780D01*
X1933720Y1300480D01*
X1824520Y1191280D01*
X1823220Y1190400D01*
X1821680Y1190100D01*
X1155200Y1190100D01*
X1152060Y1189800D01*
X1149220Y1188940D01*
X1146620Y1187540D01*
X1144180Y1185540D01*
X1071820Y1113180D01*
X1070700Y1112380D01*
X1069340Y1112020D01*
X1066160Y1111740D01*
X1062440Y1110760D01*
X1058960Y1109120D01*
X1055800Y1106920D01*
X1053080Y1104200D01*
X1050880Y1101040D01*
X1049240Y1097560D01*
X1048259Y1093840D01*
X1047920Y1090000D01*
X1048259Y1086160D01*
X1049240Y1082440D01*
X1050880Y1078960D01*
X1053080Y1075800D01*
X1055800Y1073080D01*
X1058960Y1070880D01*
X1062440Y1069240D01*
X1063880Y1068860D01*
X1065420Y1068060D01*
X1066460Y1066700D01*
X1066840Y1065000D01*
X1066460Y1063300D01*
X1065420Y1061940D01*
X1063880Y1061140D01*
X1062440Y1060760D01*
X1058960Y1059120D01*
X1055800Y1056920D01*
X1053080Y1054200D01*
X1050880Y1051040D01*
X1049240Y1047560D01*
X1048259Y1043840D01*
X1047920Y1040000D01*
X1048259Y1036160D01*
X1049240Y1032440D01*
X1050880Y1028960D01*
X1053080Y1025800D01*
X1055800Y1023080D01*
X1058960Y1020879D01*
X1061460Y1019700D01*
X1062840Y1018640D01*
X1063640Y1017060D01*
X1063700Y1015320D01*
X1062980Y1013700D01*
X1059340Y1010660D01*
X1057220Y1008100D01*
X1055800Y1006919D01*
X1053080Y1004200D01*
X1050880Y1001040D01*
X1049240Y997560D01*
X1048259Y993840D01*
X1047920Y990000D01*
X1048259Y986160D01*
X1048520Y985140D01*
X1048640Y983680D01*
X1048220Y982280D01*
X1047340Y981120D01*
X1046100Y980360D01*
X1044659Y980100D01*
X982920Y980100D01*
X981380Y980400D01*
X980080Y981280D01*
X941560Y1019800D01*
X940699Y1021080D01*
X940400Y1022620D01*
X940699Y1024160D01*
X944120Y1028960D01*
X945759Y1032440D01*
X946740Y1036160D01*
X947080Y1040000D01*
X946740Y1043840D01*
X945759Y1047560D01*
X944120Y1051040D01*
X941919Y1054200D01*
X939200Y1056920D01*
X936040Y1059120D01*
X932560Y1060760D01*
X928840Y1061740D01*
X925000Y1062080D01*
X921160Y1061740D01*
X917440Y1060760D01*
X913960Y1059120D01*
X910800Y1056920D01*
X908080Y1054200D01*
X905879Y1051040D01*
X904240Y1047560D01*
X903259Y1043840D01*
X902920Y1040000D01*
X903259Y1036160D01*
X904240Y1032440D01*
X905879Y1028960D01*
X908080Y1025800D01*
X908720Y1025160D01*
X909599Y1023860D01*
X909900Y1022320D01*
X909900Y1015200D01*
X910200Y1012060D01*
X911060Y1009220D01*
X912460Y1006620D01*
X914460Y1004180D01*
X951720Y966919D01*
X952580Y965639D01*
X952880Y964100D01*
X952580Y962560D01*
X951720Y961280D01*
X950420Y960400D01*
X948880Y960100D01*
X795819Y960100D01*
X794280Y960400D01*
X792980Y961280D01*
X759180Y995080D01*
X758300Y996380D01*
X758000Y997920D01*
X758000Y1047080D01*
X758300Y1048620D01*
X759180Y1049920D01*
X779360Y1070120D01*
X780720Y1071000D01*
X782320Y1071280D01*
X783880Y1070900D01*
X787440Y1069240D01*
X791160Y1068260D01*
X795000Y1067920D01*
X798840Y1068260D01*
X802560Y1069240D01*
X806040Y1070880D01*
X809200Y1073080D01*
X811919Y1075800D01*
X814120Y1078960D01*
X815759Y1082440D01*
X816740Y1086160D01*
X817080Y1090000D01*
X816740Y1093840D01*
X815759Y1097560D01*
X814120Y1101040D01*
X811919Y1104200D01*
X809200Y1106920D01*
X806040Y1109120D01*
X802560Y1110760D01*
X798840Y1111740D01*
X795220Y1112060D01*
X793760Y1112480D01*
X792580Y1113400D01*
X791800Y1114680D01*
X791560Y1116160D01*
X791880Y1117640D01*
X792740Y1118880D01*
X795680Y1121820D01*
X796800Y1122620D01*
X798160Y1122980D01*
X801340Y1123260D01*
X805060Y1124240D01*
X808540Y1125880D01*
X811700Y1128080D01*
X814419Y1130800D01*
X816620Y1133960D01*
X818259Y1137440D01*
X819240Y1141160D01*
X819580Y1145000D01*
X819240Y1148840D01*
X818259Y1152560D01*
X816620Y1156040D01*
X814419Y1159200D01*
X811700Y1161920D01*
X808540Y1164120D01*
X805060Y1165760D01*
X801340Y1166740D01*
X797500Y1167080D01*
X793660Y1166740D01*
X789940Y1165760D01*
X786460Y1164120D01*
X783300Y1161920D01*
X780580Y1159200D01*
X778379Y1156040D01*
X776740Y1152560D01*
X775759Y1148840D01*
X775480Y1145660D01*
X775120Y1144300D01*
X774320Y1143180D01*
X709460Y1078320D01*
X707460Y1075880D01*
X706060Y1073280D01*
X705200Y1070440D01*
X704900Y1067300D01*
X704900Y970200D01*
X705200Y967060D01*
X706060Y964220D01*
X707460Y961620D01*
X709460Y959180D01*
X754180Y914460D01*
X756620Y912460D01*
X759220Y911060D01*
X762060Y910200D01*
X765200Y909900D01*
X1348140Y909900D01*
X1349400Y909700D01*
X1350520Y909100D01*
X1351399Y908199D01*
X1353080Y905800D01*
X1355800Y903080D01*
X1358959Y900879D01*
X1362440Y899240D01*
X1366160Y898259D01*
X1370000Y897920D01*
X1373839Y898259D01*
X1377560Y899240D01*
X1381040Y900879D01*
X1384199Y903080D01*
X1384840Y903720D01*
X1386140Y904599D01*
X1387680Y904900D01*
X1814580Y904900D01*
X1816120Y904599D01*
X1817420Y903720D01*
X1836220Y884920D01*
X1837100Y883620D01*
X1837400Y882080D01*
X1837400Y791900D01*
X1837060Y790280D01*
X1836100Y788940D01*
X1834280Y787960D01*
X1829460Y785580D01*
X1824980Y782600D01*
X1820940Y779060D01*
X1817400Y775020D01*
X1814420Y770540D01*
X1812040Y765720D01*
X1810300Y760639D01*
X1809259Y755360D01*
X1808899Y750000D01*
X1809259Y744640D01*
X1810300Y739360D01*
X1812040Y734280D01*
X1814420Y729460D01*
X1816500Y726320D01*
X1817140Y724720D01*
X1817040Y723020D01*
X1816220Y721500D01*
X1814860Y720460D01*
X1813180Y720100D01*
X650080Y720100D01*
X648300Y720020D01*
X646600Y719800D01*
X644920Y719419D01*
X643300Y718920D01*
X641720Y718259D01*
X640200Y717480D01*
X638260Y716120D01*
X637120Y715440D01*
X635840Y715180D01*
X634520Y715360D01*
X633140Y715780D01*
X630000Y716080D01*
X626860Y715780D01*
X623840Y714860D01*
X621880Y713800D01*
X620660Y713379D01*
X619340Y713379D01*
X618120Y713800D01*
X616160Y714860D01*
X613140Y715780D01*
X610000Y716080D01*
X606860Y715780D01*
X603840Y714860D01*
X601880Y713800D01*
X600660Y713379D01*
X599340Y713379D01*
X598120Y713800D01*
X596160Y714860D01*
X593140Y715780D01*
X590000Y716080D01*
X586860Y715780D01*
X583840Y714860D01*
X581880Y713800D01*
X580660Y713379D01*
G37*

%LPC*%
G36*
X111840Y922480D02*
G01*
X115040Y923139D01*
X119620Y924780D01*
X123940Y927020D01*
X127920Y929820D01*
X131480Y933139D01*
X134560Y936919D01*
X137080Y941080D01*
X137580Y942200D01*
X111840Y942200D01*
G37*
G36*
X63540Y922480D02*
G01*
X63540Y942200D01*
X37800Y942200D01*
X38300Y941080D01*
X40820Y936919D01*
X43900Y933139D01*
X47460Y929820D01*
X51440Y927020D01*
X55759Y924780D01*
X60340Y923139D01*
G37*
G36*
X111840Y972800D02*
G01*
X137580Y972800D01*
X137080Y973920D01*
X134560Y978080D01*
X131480Y981860D01*
X127920Y985180D01*
X123940Y987980D01*
X119620Y990220D01*
X115040Y991860D01*
X111840Y992520D01*
G37*
G36*
X37800Y972800D02*
G01*
X63540Y972800D01*
X63540Y992520D01*
X60340Y991860D01*
X55759Y990220D01*
X51440Y987980D01*
X47460Y985180D01*
X43900Y981860D01*
X40820Y978080D01*
X38300Y973920D01*
G37*
G36*
X179680Y974040D02*
G01*
X179680Y990220D01*
X163500Y990220D01*
X165620Y986300D01*
X168520Y982460D01*
X171920Y979060D01*
X175760Y976160D01*
G37*
G36*
X208299Y974040D02*
G01*
X212220Y976160D01*
X216060Y979060D01*
X219460Y982460D01*
X222360Y986300D01*
X224480Y990220D01*
X208299Y990220D01*
G37*
G36*
X163500Y1018840D02*
G01*
X179680Y1018840D01*
X179680Y1035020D01*
X175760Y1032880D01*
X171920Y1030000D01*
X168520Y1026600D01*
X165620Y1022760D01*
G37*
G36*
X208299Y1018840D02*
G01*
X224480Y1018840D01*
X222360Y1022760D01*
X219460Y1026600D01*
X216060Y1030000D01*
X212220Y1032880D01*
X208299Y1035020D01*
G37*
G36*
X208299Y1164980D02*
G01*
X212220Y1167120D01*
X216060Y1170000D01*
X219460Y1173400D01*
X222360Y1177240D01*
X224480Y1181160D01*
X208299Y1181160D01*
G37*
G36*
X179680Y1164980D02*
G01*
X179680Y1181160D01*
X163500Y1181160D01*
X165620Y1177240D01*
X168520Y1173400D01*
X171920Y1170000D01*
X175760Y1167120D01*
G37*
G36*
X111840Y1207480D02*
G01*
X115040Y1208140D01*
X119620Y1209780D01*
X123940Y1212020D01*
X127920Y1214820D01*
X131480Y1218140D01*
X134560Y1221920D01*
X137080Y1226080D01*
X137580Y1227200D01*
X111840Y1227200D01*
G37*
G36*
X63540Y1207480D02*
G01*
X63540Y1227200D01*
X37800Y1227200D01*
X38300Y1226080D01*
X40820Y1221920D01*
X43900Y1218140D01*
X47460Y1214820D01*
X51440Y1212020D01*
X55759Y1209780D01*
X60340Y1208140D01*
G37*
G36*
X163500Y1209780D02*
G01*
X179680Y1209780D01*
X179680Y1225960D01*
X175760Y1223840D01*
X171920Y1220940D01*
X168520Y1217540D01*
X165620Y1213700D01*
G37*
G36*
X208299Y1209780D02*
G01*
X224480Y1209780D01*
X222360Y1213700D01*
X219460Y1217540D01*
X216060Y1220940D01*
X212220Y1223840D01*
X208299Y1225960D01*
G37*
G36*
X37800Y1257800D02*
G01*
X63540Y1257800D01*
X63540Y1277520D01*
X60340Y1276860D01*
X55759Y1275220D01*
X51440Y1272980D01*
X47460Y1270180D01*
X43900Y1266860D01*
X40820Y1263080D01*
X38300Y1258920D01*
G37*
G36*
X111840Y1257800D02*
G01*
X137580Y1257800D01*
X137080Y1258920D01*
X134560Y1263080D01*
X131480Y1266860D01*
X127920Y1270180D01*
X123940Y1272980D01*
X119620Y1275220D01*
X115040Y1276860D01*
X111840Y1277520D01*
G37*

%LPD*%
G36*
X1631540Y95100D02*
G01*
X1630200Y95340D01*
X1629000Y96000D01*
X1627140Y97540D01*
X1624540Y98940D01*
X1621699Y99800D01*
X1618560Y100100D01*
X1067560Y100100D01*
X1066120Y100360D01*
X1064880Y101120D01*
X1063040Y102780D01*
X1061920Y104200D01*
X1059200Y106920D01*
X1056040Y109120D01*
X1052560Y110760D01*
X1051120Y111140D01*
X1049580Y111940D01*
X1048540Y113300D01*
X1048160Y115000D01*
X1048540Y116700D01*
X1049580Y118059D01*
X1051120Y118859D01*
X1052560Y119240D01*
X1056040Y120879D01*
X1059200Y123080D01*
X1061920Y125800D01*
X1064120Y128960D01*
X1065820Y132600D01*
X1066700Y133800D01*
X1067960Y134620D01*
X1069440Y134900D01*
X1919800Y134900D01*
X1922940Y135200D01*
X1925780Y136060D01*
X1928380Y137460D01*
X1930820Y139460D01*
X2060540Y269180D01*
X2062540Y271620D01*
X2063940Y274220D01*
X2064800Y277060D01*
X2065100Y280200D01*
X2065100Y509240D01*
X2065380Y510700D01*
X2066160Y511940D01*
X2067340Y512819D01*
X2070540Y514420D01*
X2075020Y517400D01*
X2079060Y520940D01*
X2082600Y524980D01*
X2085580Y529460D01*
X2087960Y534280D01*
X2089700Y539360D01*
X2090740Y544640D01*
X2091100Y550000D01*
X2090740Y555360D01*
X2089700Y560640D01*
X2087960Y565720D01*
X2085580Y570540D01*
X2083500Y573680D01*
X2082860Y575280D01*
X2082960Y576980D01*
X2083779Y578500D01*
X2085140Y579540D01*
X2086819Y579900D01*
X2113180Y579900D01*
X2114860Y579540D01*
X2116220Y578500D01*
X2117040Y576980D01*
X2117140Y575280D01*
X2116500Y573680D01*
X2114420Y570540D01*
X2112040Y565720D01*
X2110300Y560640D01*
X2109260Y555360D01*
X2108900Y550000D01*
X2109260Y544640D01*
X2110300Y539360D01*
X2112040Y534280D01*
X2114420Y529460D01*
X2117400Y524980D01*
X2120740Y521140D01*
X2136300Y504700D01*
X2137120Y503440D01*
X2137400Y501960D01*
X2137400Y322920D01*
X2137100Y321380D01*
X2136220Y320080D01*
X1916160Y100020D01*
X1915380Y99400D01*
X1914220Y98940D01*
X1911620Y97540D01*
X1909760Y96000D01*
X1908560Y95340D01*
X1907220Y95100D01*
G37*

%LPD*%
G36*
X2086720Y-180060D02*
G01*
X2085040Y-179680D01*
X2083680Y-178660D01*
X2082860Y-177140D01*
X2082760Y-175440D01*
X2083380Y-173840D01*
X2085580Y-170539D01*
X2087960Y-165720D01*
X2089700Y-160640D01*
X2090740Y-155360D01*
X2091100Y-150000D01*
X2090740Y-144640D01*
X2089700Y-139360D01*
X2087960Y-134280D01*
X2085580Y-129460D01*
X2082560Y-124920D01*
X2066040Y-105220D01*
X2065340Y-104019D01*
X2065100Y-102660D01*
X2065100Y4800D01*
X2064800Y7940D01*
X2063940Y10780D01*
X2062540Y13380D01*
X2060540Y15820D01*
X2005820Y70540D01*
X2003380Y72540D01*
X2000780Y73940D01*
X1997940Y74800D01*
X1994800Y75100D01*
X1943620Y75100D01*
X1942080Y75400D01*
X1940780Y76280D01*
X1939920Y77560D01*
X1939620Y79100D01*
X1939920Y80640D01*
X1940780Y81920D01*
X2163040Y304180D01*
X2165040Y306620D01*
X2166440Y309220D01*
X2167300Y312060D01*
X2167600Y315200D01*
X2167600Y503500D01*
X2167800Y504760D01*
X2168400Y505880D01*
X2182520Y524860D01*
X2185580Y529460D01*
X2187960Y534280D01*
X2189700Y539360D01*
X2190740Y544640D01*
X2191100Y550000D01*
X2190740Y555360D01*
X2189700Y560640D01*
X2187960Y565720D01*
X2185580Y570540D01*
X2183500Y573680D01*
X2182860Y575280D01*
X2182960Y576980D01*
X2183780Y578500D01*
X2185140Y579540D01*
X2186820Y579900D01*
X2575899Y579900D01*
X2577440Y579600D01*
X2578720Y578720D01*
X2579600Y577440D01*
X2579900Y575900D01*
X2579900Y-175900D01*
X2579600Y-177440D01*
X2578720Y-178740D01*
X2577440Y-179600D01*
X2575899Y-179899D01*
X2195100Y-180020D01*
X2193580Y-179720D01*
X2192280Y-178860D01*
X2191400Y-177560D01*
X2191100Y-176020D01*
X2191100Y-168000D01*
X2168000Y-168000D01*
X2168000Y-176040D01*
X2167700Y-177560D01*
X2166820Y-178860D01*
X2165540Y-179720D01*
X2164000Y-180040D01*
X2136000Y-180040D01*
X2134480Y-179740D01*
X2133180Y-178880D01*
X2132300Y-177580D01*
X2132000Y-176040D01*
X2132000Y-168000D01*
X2108900Y-168000D01*
X2108900Y-176060D01*
X2108600Y-177580D01*
X2107720Y-178880D01*
X2106440Y-179740D01*
X2104900Y-180060D01*
G37*

%LPC*%
G36*
X2168000Y-132000D02*
G01*
X2191100Y-132000D01*
X2191100Y-119220D01*
X2190820Y-116760D01*
X2190080Y-114620D01*
X2188880Y-112720D01*
X2187280Y-111120D01*
X2185380Y-109920D01*
X2183240Y-109179D01*
X2180780Y-108900D01*
X2168000Y-108900D01*
G37*
G36*
X2108900Y-132000D02*
G01*
X2132000Y-132000D01*
X2132000Y-108900D01*
X2119220Y-108900D01*
X2116760Y-109179D01*
X2114620Y-109920D01*
X2112720Y-111120D01*
X2111120Y-112720D01*
X2109920Y-114620D01*
X2109180Y-116760D01*
X2108900Y-119220D01*
G37*

%LPD*%
G36*
X579340Y-186620D02*
G01*
X578120Y-186200D01*
X576160Y-185140D01*
X573140Y-184220D01*
X570000Y-183920D01*
X566860Y-184220D01*
X565520Y-184640D01*
X563760Y-184760D01*
X562120Y-184120D01*
X559740Y-182500D01*
X558280Y-181740D01*
X556700Y-181080D01*
X555080Y-180580D01*
X553400Y-180200D01*
X551700Y-179980D01*
X549920Y-179899D01*
X24100Y-179899D01*
X22559Y-179600D01*
X21280Y-178720D01*
X20400Y-177440D01*
X20099Y-175900D01*
X20099Y575900D01*
X20400Y577440D01*
X21280Y578740D01*
X22559Y579600D01*
X24100Y579900D01*
X549920Y580060D01*
X551720Y580140D01*
X553400Y580380D01*
X555080Y580740D01*
X556700Y581260D01*
X558280Y581900D01*
X559760Y582680D01*
X561980Y584180D01*
X563620Y584800D01*
X565380Y584680D01*
X566860Y584220D01*
X570000Y583920D01*
X573140Y584220D01*
X576160Y585140D01*
X578120Y586200D01*
X579340Y586620D01*
X580660Y586620D01*
X581880Y586200D01*
X583840Y585140D01*
X586860Y584220D01*
X590000Y583920D01*
X593140Y584220D01*
X596160Y585140D01*
X598120Y586200D01*
X599340Y586620D01*
X600660Y586620D01*
X601880Y586200D01*
X603840Y585140D01*
X606860Y584220D01*
X610000Y583920D01*
X613140Y584220D01*
X616160Y585140D01*
X618120Y586200D01*
X619340Y586620D01*
X620660Y586620D01*
X621880Y586200D01*
X623840Y585140D01*
X626860Y584220D01*
X630000Y583920D01*
X633140Y584220D01*
X634480Y584640D01*
X636200Y584760D01*
X637840Y584140D01*
X640580Y582320D01*
X643280Y581100D01*
X646600Y580220D01*
X650180Y579900D01*
X1804900Y579900D01*
X1806440Y579600D01*
X1807720Y578720D01*
X1808600Y577440D01*
X1808899Y575900D01*
X1808899Y519219D01*
X1809180Y516760D01*
X1809920Y514620D01*
X1811120Y512720D01*
X1812720Y511120D01*
X1814620Y509920D01*
X1816759Y509180D01*
X1819220Y508900D01*
X1880780Y508900D01*
X1883240Y509180D01*
X1885380Y509920D01*
X1887280Y511120D01*
X1888880Y512720D01*
X1890080Y514620D01*
X1890820Y516760D01*
X1891100Y519219D01*
X1891100Y575900D01*
X1891399Y577440D01*
X1892280Y578720D01*
X1893560Y579600D01*
X1895100Y579900D01*
X1913180Y579900D01*
X1914860Y579540D01*
X1916220Y578500D01*
X1917040Y576980D01*
X1917140Y575280D01*
X1916500Y573680D01*
X1914420Y570540D01*
X1912040Y565720D01*
X1910300Y560640D01*
X1909259Y555360D01*
X1908899Y550000D01*
X1909259Y544640D01*
X1910300Y539360D01*
X1912040Y534280D01*
X1914420Y529460D01*
X1917400Y524980D01*
X1920940Y520940D01*
X1924980Y517400D01*
X1929460Y514420D01*
X1932660Y512819D01*
X1933839Y511940D01*
X1934620Y510700D01*
X1934900Y509240D01*
X1934900Y252920D01*
X1934600Y251380D01*
X1933720Y250080D01*
X1874920Y191280D01*
X1873620Y190400D01*
X1872080Y190100D01*
X1070740Y190100D01*
X1069300Y190380D01*
X1068040Y191160D01*
X1067160Y192340D01*
X1065760Y197560D01*
X1064120Y201040D01*
X1061920Y204200D01*
X1059200Y206920D01*
X1056040Y209120D01*
X1052560Y210760D01*
X1048840Y211740D01*
X1045000Y212079D01*
X1041160Y211740D01*
X1037440Y210760D01*
X1033960Y209120D01*
X1030800Y206920D01*
X1028080Y204200D01*
X1025879Y201040D01*
X1024240Y197560D01*
X1023259Y193840D01*
X1022920Y190000D01*
X1023259Y186160D01*
X1024240Y182440D01*
X1025879Y178960D01*
X1028080Y175799D01*
X1030800Y173080D01*
X1033960Y170880D01*
X1037440Y169240D01*
X1038880Y168860D01*
X1040420Y168060D01*
X1041460Y166700D01*
X1041840Y165000D01*
X1041460Y163299D01*
X1040420Y161940D01*
X1038880Y161140D01*
X1037440Y160760D01*
X1033960Y159120D01*
X1030800Y156920D01*
X1028080Y154200D01*
X1025879Y151040D01*
X1024240Y147560D01*
X1023259Y143840D01*
X1022920Y140000D01*
X1023259Y136160D01*
X1024240Y132440D01*
X1025879Y128960D01*
X1028080Y125800D01*
X1030800Y123080D01*
X1033960Y120879D01*
X1037440Y119240D01*
X1038880Y118859D01*
X1040420Y118059D01*
X1041460Y116700D01*
X1041840Y115000D01*
X1041460Y113300D01*
X1040420Y111940D01*
X1038880Y111140D01*
X1037440Y110760D01*
X1033960Y109120D01*
X1030800Y106920D01*
X1028080Y104200D01*
X1025879Y101039D01*
X1024240Y97560D01*
X1023259Y93840D01*
X1022920Y90000D01*
X1023259Y86160D01*
X1023520Y85140D01*
X1023640Y83680D01*
X1023220Y82280D01*
X1022340Y81120D01*
X1021100Y80360D01*
X1019659Y80100D01*
X982920Y80100D01*
X981380Y80399D01*
X980080Y81280D01*
X910819Y150540D01*
X908379Y152540D01*
X905780Y153940D01*
X902940Y154800D01*
X899800Y155100D01*
X794520Y155100D01*
X792800Y155480D01*
X788199Y157680D01*
X786040Y159120D01*
X782560Y160760D01*
X781120Y161140D01*
X779580Y161940D01*
X778540Y163299D01*
X778160Y165000D01*
X778540Y166700D01*
X779580Y168060D01*
X781120Y168860D01*
X782560Y169240D01*
X786040Y170880D01*
X789200Y173080D01*
X791919Y175799D01*
X794120Y178960D01*
X795759Y182440D01*
X796740Y186160D01*
X797080Y190000D01*
X796740Y193840D01*
X795759Y197560D01*
X794120Y201040D01*
X791919Y204200D01*
X789200Y206920D01*
X786040Y209120D01*
X782560Y210760D01*
X781120Y211140D01*
X779580Y211940D01*
X778540Y213299D01*
X778160Y215000D01*
X778540Y216700D01*
X779580Y218060D01*
X781120Y218860D01*
X782560Y219240D01*
X786040Y220880D01*
X789200Y223080D01*
X791919Y225799D01*
X794120Y228960D01*
X795759Y232440D01*
X796740Y236160D01*
X797080Y240000D01*
X796740Y243840D01*
X795759Y247560D01*
X794120Y251040D01*
X791919Y254200D01*
X789200Y256920D01*
X786040Y259120D01*
X782560Y260760D01*
X778840Y261740D01*
X775000Y262079D01*
X771160Y261740D01*
X767440Y260760D01*
X763960Y259120D01*
X760800Y256920D01*
X758080Y254200D01*
X755879Y251040D01*
X754240Y247560D01*
X753259Y243840D01*
X752980Y240660D01*
X752620Y239300D01*
X751820Y238180D01*
X704460Y190820D01*
X702460Y188380D01*
X701060Y185780D01*
X700200Y182940D01*
X699900Y179800D01*
X699900Y65199D01*
X700200Y62060D01*
X701060Y59220D01*
X702460Y56620D01*
X704460Y54180D01*
X749180Y9460D01*
X751620Y7460D01*
X754220Y6060D01*
X757060Y5200D01*
X760200Y4900D01*
X1357320Y4900D01*
X1358860Y4600D01*
X1360160Y3720D01*
X1360800Y3080D01*
X1363959Y880D01*
X1367440Y-760D01*
X1371160Y-1739D01*
X1375000Y-2080D01*
X1378839Y-1739D01*
X1382560Y-760D01*
X1386040Y880D01*
X1389199Y3080D01*
X1389840Y3720D01*
X1391140Y4600D01*
X1392680Y4900D01*
X1827080Y4900D01*
X1828620Y4600D01*
X1829920Y3720D01*
X1833720Y-80D01*
X1834600Y-1380D01*
X1834900Y-2920D01*
X1834900Y-109240D01*
X1834620Y-110700D01*
X1833839Y-111940D01*
X1832660Y-112820D01*
X1829460Y-114420D01*
X1824980Y-117400D01*
X1820940Y-120940D01*
X1817400Y-124980D01*
X1814420Y-129460D01*
X1812040Y-134280D01*
X1810300Y-139360D01*
X1809259Y-144640D01*
X1808899Y-150000D01*
X1809259Y-155360D01*
X1810300Y-160640D01*
X1812040Y-165720D01*
X1814420Y-170539D01*
X1816500Y-173680D01*
X1817140Y-175280D01*
X1817040Y-176980D01*
X1816220Y-178500D01*
X1814860Y-179540D01*
X1813180Y-179899D01*
X650080Y-179899D01*
X648300Y-179980D01*
X646600Y-180200D01*
X644920Y-180580D01*
X643300Y-181080D01*
X641720Y-181740D01*
X640200Y-182520D01*
X638260Y-183880D01*
X637120Y-184560D01*
X635840Y-184820D01*
X634520Y-184640D01*
X633140Y-184220D01*
X630000Y-183920D01*
X626860Y-184220D01*
X623840Y-185140D01*
X621880Y-186200D01*
X620660Y-186620D01*
X619340Y-186620D01*
X618120Y-186200D01*
X616160Y-185140D01*
X613140Y-184220D01*
X610000Y-183920D01*
X606860Y-184220D01*
X603840Y-185140D01*
X601880Y-186200D01*
X600660Y-186620D01*
X599340Y-186620D01*
X598120Y-186200D01*
X596160Y-185140D01*
X593140Y-184220D01*
X590000Y-183920D01*
X586860Y-184220D01*
X583840Y-185140D01*
X581880Y-186200D01*
X580660Y-186620D01*
G37*

%LPC*%
G36*
X166740Y-64040D02*
G01*
X173960Y-64040D01*
X179259Y-63680D01*
X184340Y-62680D01*
X189259Y-61020D01*
X193900Y-58720D01*
X198200Y-55839D01*
X202100Y-52420D01*
X205520Y-48520D01*
X208400Y-44220D01*
X209660Y-41680D01*
X166740Y-41680D01*
G37*
G36*
X75800Y-64040D02*
G01*
X83000Y-64040D01*
X83000Y-41680D01*
X40100Y-41680D01*
X41360Y-44220D01*
X44240Y-48520D01*
X47660Y-52420D01*
X51540Y-55839D01*
X55860Y-58720D01*
X60500Y-61020D01*
X65420Y-62680D01*
X70500Y-63680D01*
G37*
G36*
X40100Y-7140D02*
G01*
X83000Y-7140D01*
X83000Y15220D01*
X75800Y15220D01*
X70500Y14880D01*
X65420Y13859D01*
X60500Y12200D01*
X55860Y9900D01*
X51540Y7020D01*
X47660Y3600D01*
X44240Y-300D01*
X41360Y-4600D01*
G37*
G36*
X166740Y-7140D02*
G01*
X209660Y-7140D01*
X208400Y-4600D01*
X205520Y-300D01*
X202100Y3600D01*
X198200Y7020D01*
X193900Y9900D01*
X189259Y12200D01*
X184340Y13859D01*
X179259Y14880D01*
X173960Y15220D01*
X166740Y15220D01*
G37*
G36*
X122500Y79760D02*
G01*
X127260Y79760D01*
X131940Y80460D01*
X136480Y81860D01*
X140760Y83920D01*
X144680Y86600D01*
X148140Y89820D01*
X151100Y93520D01*
X153480Y97640D01*
X155220Y102060D01*
X156260Y106679D01*
X156620Y111400D01*
X156260Y116140D01*
X155220Y120760D01*
X153480Y125180D01*
X151100Y129300D01*
X148140Y133000D01*
X144680Y136220D01*
X140760Y138900D01*
X136480Y140960D01*
X131940Y142360D01*
X127260Y143060D01*
X122500Y143060D01*
X117820Y142360D01*
X113280Y140960D01*
X109000Y138900D01*
X105079Y136220D01*
X101620Y133000D01*
X98660Y129300D01*
X96280Y125180D01*
X94540Y120760D01*
X93500Y116140D01*
X93140Y111400D01*
X93500Y106679D01*
X94540Y102060D01*
X96280Y97640D01*
X98660Y93520D01*
X101620Y89820D01*
X105079Y86600D01*
X109000Y83920D01*
X113280Y81860D01*
X117820Y80460D01*
G37*
G36*
X122500Y256920D02*
G01*
X127260Y256920D01*
X131940Y257640D01*
X136480Y259040D01*
X140760Y261080D01*
X144680Y263760D01*
X148140Y266980D01*
X151100Y270700D01*
X153480Y274800D01*
X155220Y279220D01*
X156260Y283840D01*
X156620Y288580D01*
X156260Y293320D01*
X155220Y297940D01*
X153480Y302360D01*
X151100Y306460D01*
X148140Y310180D01*
X144680Y313400D01*
X140760Y316080D01*
X136480Y318120D01*
X131940Y319520D01*
X127260Y320240D01*
X122500Y320240D01*
X117820Y319520D01*
X113280Y318120D01*
X109000Y316080D01*
X105079Y313400D01*
X101620Y310180D01*
X98660Y306460D01*
X96280Y302360D01*
X94540Y297940D01*
X93500Y293320D01*
X93140Y288580D01*
X93500Y283840D01*
X94540Y279220D01*
X96280Y274800D01*
X98660Y270700D01*
X101620Y266980D01*
X105079Y263760D01*
X109000Y261080D01*
X113280Y259040D01*
X117820Y257640D01*
G37*
G36*
X166740Y384780D02*
G01*
X173960Y384780D01*
X179259Y385120D01*
X184340Y386140D01*
X189259Y387800D01*
X193900Y390100D01*
X198200Y392980D01*
X202100Y396400D01*
X205520Y400300D01*
X208400Y404600D01*
X209660Y407140D01*
X166740Y407140D01*
G37*
G36*
X75800Y384780D02*
G01*
X83000Y384780D01*
X83000Y407140D01*
X40100Y407140D01*
X41360Y404600D01*
X44240Y400300D01*
X47660Y396400D01*
X51540Y392980D01*
X55860Y390100D01*
X60500Y387800D01*
X65420Y386140D01*
X70500Y385120D01*
G37*
G36*
X40100Y441680D02*
G01*
X83000Y441680D01*
X83000Y464040D01*
X75800Y464040D01*
X70500Y463680D01*
X65420Y462680D01*
X60500Y461019D01*
X55860Y458720D01*
X51540Y455840D01*
X47660Y452420D01*
X44240Y448519D01*
X41360Y444219D01*
G37*
G36*
X166740Y441680D02*
G01*
X209660Y441680D01*
X208400Y444219D01*
X205520Y448519D01*
X202100Y452420D01*
X198200Y455840D01*
X193900Y458720D01*
X189259Y461019D01*
X184340Y462680D01*
X179259Y463680D01*
X173960Y464040D01*
X166740Y464040D01*
G37*

%LPD*%
G36*
X579340Y-1086620D02*
G01*
X578120Y-1086200D01*
X576160Y-1085140D01*
X573140Y-1084220D01*
X570000Y-1083920D01*
X566860Y-1084220D01*
X565520Y-1084640D01*
X563760Y-1084760D01*
X562120Y-1084120D01*
X559740Y-1082500D01*
X558280Y-1081740D01*
X556700Y-1081080D01*
X555080Y-1080580D01*
X553400Y-1080200D01*
X551700Y-1079980D01*
X549920Y-1079900D01*
X24100Y-1079900D01*
X22559Y-1079600D01*
X21280Y-1078720D01*
X20400Y-1077440D01*
X20099Y-1075900D01*
X20099Y-324099D01*
X20400Y-322560D01*
X21280Y-321260D01*
X22559Y-320400D01*
X24100Y-320100D01*
X549920Y-319940D01*
X551720Y-319860D01*
X553400Y-319620D01*
X555080Y-319260D01*
X556700Y-318740D01*
X558280Y-318100D01*
X559760Y-317320D01*
X561980Y-315820D01*
X563620Y-315200D01*
X565380Y-315320D01*
X566860Y-315780D01*
X570000Y-316080D01*
X573140Y-315780D01*
X576160Y-314860D01*
X578120Y-313800D01*
X579340Y-313380D01*
X580660Y-313380D01*
X581880Y-313800D01*
X583840Y-314860D01*
X586860Y-315780D01*
X590000Y-316080D01*
X593140Y-315780D01*
X596160Y-314860D01*
X598120Y-313800D01*
X599340Y-313380D01*
X600660Y-313380D01*
X601880Y-313800D01*
X603840Y-314860D01*
X606860Y-315780D01*
X610000Y-316080D01*
X613140Y-315780D01*
X616160Y-314860D01*
X618120Y-313800D01*
X619340Y-313380D01*
X620660Y-313380D01*
X621880Y-313800D01*
X623840Y-314860D01*
X626860Y-315780D01*
X630000Y-316080D01*
X633140Y-315780D01*
X634480Y-315360D01*
X636200Y-315240D01*
X637840Y-315860D01*
X640580Y-317680D01*
X643280Y-318900D01*
X646600Y-319780D01*
X650180Y-320100D01*
X1804900Y-320100D01*
X1806440Y-320400D01*
X1807720Y-321280D01*
X1808600Y-322560D01*
X1808899Y-324099D01*
X1808899Y-380780D01*
X1809180Y-383240D01*
X1809920Y-385379D01*
X1811120Y-387280D01*
X1812720Y-388880D01*
X1814620Y-390080D01*
X1816759Y-390820D01*
X1819220Y-391100D01*
X1880780Y-391100D01*
X1883240Y-390820D01*
X1885380Y-390080D01*
X1887280Y-388880D01*
X1888880Y-387280D01*
X1890080Y-385379D01*
X1890820Y-383240D01*
X1891100Y-380780D01*
X1891100Y-324099D01*
X1891399Y-322560D01*
X1892280Y-321280D01*
X1893560Y-320400D01*
X1895100Y-320100D01*
X1913180Y-320100D01*
X1914860Y-320460D01*
X1916220Y-321500D01*
X1917040Y-323020D01*
X1917140Y-324720D01*
X1916500Y-326320D01*
X1914420Y-329460D01*
X1912040Y-334280D01*
X1910300Y-339360D01*
X1909259Y-344640D01*
X1908899Y-350000D01*
X1909259Y-355360D01*
X1910300Y-360640D01*
X1912040Y-365720D01*
X1914420Y-370540D01*
X1917400Y-375020D01*
X1920940Y-379060D01*
X1924980Y-382600D01*
X1929460Y-385580D01*
X1932660Y-387180D01*
X1933839Y-388060D01*
X1934620Y-389300D01*
X1934900Y-390760D01*
X1934900Y-542080D01*
X1934600Y-543620D01*
X1933720Y-544920D01*
X1839920Y-638720D01*
X1838620Y-639600D01*
X1837080Y-639900D01*
X1072680Y-639900D01*
X1071140Y-639600D01*
X1069840Y-638720D01*
X1069200Y-638080D01*
X1066040Y-635880D01*
X1062560Y-634240D01*
X1058840Y-633260D01*
X1055000Y-632920D01*
X1051160Y-633260D01*
X1047440Y-634240D01*
X1043960Y-635880D01*
X1040800Y-638080D01*
X1038080Y-640800D01*
X1035879Y-643960D01*
X1034240Y-647440D01*
X1033259Y-651160D01*
X1032920Y-655000D01*
X1033259Y-658840D01*
X1034240Y-662560D01*
X1035879Y-666040D01*
X1038080Y-669200D01*
X1040800Y-671919D01*
X1043960Y-674120D01*
X1047440Y-675759D01*
X1048880Y-676140D01*
X1050420Y-676940D01*
X1051460Y-678300D01*
X1051840Y-680000D01*
X1051460Y-681700D01*
X1050420Y-683060D01*
X1048880Y-683860D01*
X1047440Y-684240D01*
X1043960Y-685879D01*
X1040800Y-688080D01*
X1038080Y-690800D01*
X1035879Y-693960D01*
X1034240Y-697440D01*
X1033259Y-701160D01*
X1032920Y-705000D01*
X1033259Y-708840D01*
X1034240Y-712560D01*
X1035879Y-716040D01*
X1038080Y-719200D01*
X1040800Y-721919D01*
X1043960Y-724120D01*
X1047440Y-725759D01*
X1048880Y-726140D01*
X1050420Y-726940D01*
X1051460Y-728300D01*
X1051840Y-730000D01*
X1051460Y-731700D01*
X1050420Y-733060D01*
X1048880Y-733860D01*
X1047440Y-734240D01*
X1043960Y-735879D01*
X1040800Y-738080D01*
X1038080Y-740800D01*
X1035879Y-743960D01*
X1034240Y-747440D01*
X1033259Y-751160D01*
X1032920Y-755000D01*
X1033259Y-758840D01*
X1034240Y-762560D01*
X1035879Y-766040D01*
X1038080Y-769200D01*
X1040800Y-771919D01*
X1043960Y-774120D01*
X1047440Y-775759D01*
X1051160Y-776740D01*
X1055000Y-777080D01*
X1058840Y-776740D01*
X1062560Y-775759D01*
X1066040Y-774120D01*
X1069200Y-771919D01*
X1069840Y-771280D01*
X1071140Y-770400D01*
X1072680Y-770100D01*
X1954800Y-770100D01*
X1957940Y-769800D01*
X1960780Y-768940D01*
X1963380Y-767540D01*
X1965820Y-765540D01*
X2160540Y-570820D01*
X2162540Y-568380D01*
X2163940Y-565780D01*
X2164800Y-562940D01*
X2165100Y-559800D01*
X2165100Y-390760D01*
X2165380Y-389300D01*
X2166160Y-388060D01*
X2167340Y-387180D01*
X2170540Y-385580D01*
X2175020Y-382600D01*
X2179060Y-379060D01*
X2182600Y-375020D01*
X2185580Y-370540D01*
X2187960Y-365720D01*
X2189700Y-360640D01*
X2190740Y-355360D01*
X2191100Y-350000D01*
X2190740Y-344640D01*
X2189700Y-339360D01*
X2187960Y-334280D01*
X2185580Y-329460D01*
X2183500Y-326320D01*
X2182860Y-324720D01*
X2182960Y-323020D01*
X2183780Y-321500D01*
X2185140Y-320460D01*
X2186820Y-320100D01*
X2575899Y-320100D01*
X2577440Y-320400D01*
X2578720Y-321280D01*
X2579600Y-322560D01*
X2579900Y-324099D01*
X2579900Y-1075900D01*
X2579600Y-1077440D01*
X2578720Y-1078740D01*
X2577440Y-1079600D01*
X2575899Y-1079900D01*
X2195100Y-1080020D01*
X2193580Y-1079720D01*
X2192280Y-1078860D01*
X2191400Y-1077560D01*
X2191100Y-1076020D01*
X2191100Y-1068000D01*
X2168000Y-1068000D01*
X2168000Y-1076040D01*
X2167700Y-1077560D01*
X2166820Y-1078860D01*
X2165540Y-1079720D01*
X2164000Y-1080040D01*
X2136000Y-1080040D01*
X2134480Y-1079740D01*
X2133180Y-1078880D01*
X2132300Y-1077580D01*
X2132000Y-1076040D01*
X2132000Y-1068000D01*
X2108900Y-1068000D01*
X2108900Y-1076060D01*
X2108600Y-1077580D01*
X2107720Y-1078880D01*
X2106440Y-1079740D01*
X2104900Y-1080060D01*
X2086720Y-1080060D01*
X2085040Y-1079680D01*
X2083680Y-1078660D01*
X2082860Y-1077140D01*
X2082760Y-1075440D01*
X2083380Y-1073840D01*
X2085580Y-1070540D01*
X2087960Y-1065720D01*
X2089700Y-1060640D01*
X2090740Y-1055360D01*
X2091100Y-1050000D01*
X2090740Y-1044640D01*
X2089700Y-1039360D01*
X2087960Y-1034280D01*
X2085580Y-1029460D01*
X2082600Y-1024980D01*
X2079060Y-1020939D01*
X2075020Y-1017400D01*
X2070540Y-1014419D01*
X2067340Y-1012820D01*
X2066160Y-1011940D01*
X2065380Y-1010699D01*
X2065100Y-1009240D01*
X2065100Y-895200D01*
X2064800Y-892060D01*
X2063940Y-889220D01*
X2062540Y-886620D01*
X2060540Y-884180D01*
X1975820Y-799460D01*
X1973380Y-797460D01*
X1970780Y-796060D01*
X1967940Y-795200D01*
X1964800Y-794900D01*
X892920Y-794900D01*
X891380Y-794599D01*
X890080Y-793720D01*
X803180Y-706820D01*
X802380Y-705699D01*
X802020Y-704340D01*
X801740Y-701160D01*
X800759Y-697440D01*
X799120Y-693960D01*
X796919Y-690800D01*
X794200Y-688080D01*
X791040Y-685879D01*
X787560Y-684240D01*
X786120Y-683860D01*
X784580Y-683060D01*
X783540Y-681700D01*
X783160Y-680000D01*
X783540Y-678300D01*
X784580Y-676940D01*
X786120Y-676140D01*
X787560Y-675759D01*
X791040Y-674120D01*
X792180Y-673319D01*
X793280Y-672780D01*
X794460Y-672600D01*
X800720Y-672580D01*
X804020Y-672120D01*
X807099Y-671080D01*
X809940Y-669500D01*
X812580Y-667320D01*
X837900Y-641960D01*
X839940Y-639260D01*
X841400Y-636360D01*
X842280Y-633240D01*
X842600Y-629820D01*
X842580Y-599320D01*
X842120Y-595980D01*
X841080Y-592900D01*
X839500Y-590060D01*
X837320Y-587420D01*
X801960Y-552100D01*
X799260Y-550060D01*
X796360Y-548600D01*
X793240Y-547720D01*
X789820Y-547400D01*
X581000Y-547400D01*
X579560Y-547140D01*
X578320Y-546380D01*
X577440Y-545220D01*
X577020Y-543820D01*
X576720Y-540900D01*
X575980Y-538780D01*
X574780Y-536860D01*
X573180Y-535280D01*
X571280Y-534080D01*
X569140Y-533320D01*
X566680Y-533060D01*
X481220Y-533060D01*
X478760Y-533320D01*
X476620Y-534080D01*
X474720Y-535280D01*
X473120Y-536860D01*
X471920Y-538780D01*
X471180Y-540900D01*
X470900Y-543380D01*
X470900Y-590620D01*
X471180Y-593100D01*
X471920Y-595220D01*
X473120Y-597140D01*
X474720Y-598720D01*
X476620Y-599920D01*
X478760Y-600680D01*
X481220Y-600960D01*
X566680Y-600960D01*
X569140Y-600680D01*
X571280Y-599920D01*
X573180Y-598720D01*
X574780Y-597140D01*
X575980Y-595220D01*
X576720Y-593100D01*
X577000Y-590620D01*
X577000Y-586600D01*
X577300Y-585060D01*
X578180Y-583780D01*
X579460Y-582900D01*
X581000Y-582600D01*
X761620Y-582600D01*
X763160Y-582900D01*
X764460Y-583780D01*
X765320Y-585060D01*
X765620Y-586600D01*
X765320Y-588140D01*
X764460Y-589420D01*
X763080Y-590800D01*
X761900Y-592220D01*
X759180Y-594460D01*
X694460Y-659180D01*
X692460Y-661620D01*
X691060Y-664220D01*
X690200Y-667060D01*
X689900Y-670200D01*
X689900Y-749800D01*
X690200Y-752940D01*
X691060Y-755780D01*
X692460Y-758379D01*
X694460Y-760819D01*
X799180Y-865540D01*
X801620Y-867540D01*
X804220Y-868940D01*
X807060Y-869800D01*
X810200Y-870100D01*
X1342320Y-870100D01*
X1343860Y-870400D01*
X1345160Y-871280D01*
X1345800Y-871919D01*
X1348959Y-874120D01*
X1352440Y-875759D01*
X1356160Y-876740D01*
X1360000Y-877080D01*
X1363839Y-876740D01*
X1367560Y-875759D01*
X1371040Y-874120D01*
X1374199Y-871919D01*
X1374840Y-871280D01*
X1376140Y-870400D01*
X1377680Y-870100D01*
X1830900Y-870100D01*
X1832440Y-870400D01*
X1833720Y-871280D01*
X1834600Y-872560D01*
X1834900Y-874100D01*
X1834900Y-1009240D01*
X1834620Y-1010699D01*
X1833839Y-1011940D01*
X1832660Y-1012820D01*
X1829460Y-1014419D01*
X1824980Y-1017400D01*
X1820940Y-1020939D01*
X1817400Y-1024980D01*
X1814420Y-1029460D01*
X1812040Y-1034280D01*
X1810300Y-1039360D01*
X1809259Y-1044640D01*
X1808899Y-1050000D01*
X1809259Y-1055360D01*
X1810300Y-1060640D01*
X1812040Y-1065720D01*
X1814420Y-1070540D01*
X1816500Y-1073680D01*
X1817140Y-1075280D01*
X1817040Y-1076980D01*
X1816220Y-1078500D01*
X1814860Y-1079540D01*
X1813180Y-1079900D01*
X650080Y-1079900D01*
X648300Y-1079980D01*
X646600Y-1080200D01*
X644920Y-1080580D01*
X643300Y-1081080D01*
X641720Y-1081740D01*
X640200Y-1082520D01*
X638260Y-1083880D01*
X637120Y-1084560D01*
X635840Y-1084820D01*
X634520Y-1084640D01*
X633140Y-1084220D01*
X630000Y-1083920D01*
X626860Y-1084220D01*
X623840Y-1085140D01*
X621880Y-1086200D01*
X620660Y-1086620D01*
X619340Y-1086620D01*
X618120Y-1086200D01*
X616160Y-1085140D01*
X613140Y-1084220D01*
X610000Y-1083920D01*
X606860Y-1084220D01*
X603840Y-1085140D01*
X601880Y-1086200D01*
X600660Y-1086620D01*
X599340Y-1086620D01*
X598120Y-1086200D01*
X596160Y-1085140D01*
X593140Y-1084220D01*
X590000Y-1083920D01*
X586860Y-1084220D01*
X583840Y-1085140D01*
X581880Y-1086200D01*
X580660Y-1086620D01*
G37*

%LPC*%
G36*
X2168000Y-1032000D02*
G01*
X2191100Y-1032000D01*
X2191100Y-1019220D01*
X2190820Y-1016760D01*
X2190080Y-1014620D01*
X2188880Y-1012720D01*
X2187280Y-1011120D01*
X2185380Y-1009920D01*
X2183240Y-1009180D01*
X2180780Y-1008900D01*
X2168000Y-1008900D01*
G37*
G36*
X2108900Y-1032000D02*
G01*
X2132000Y-1032000D01*
X2132000Y-1008900D01*
X2119220Y-1008900D01*
X2116760Y-1009180D01*
X2114620Y-1009920D01*
X2112720Y-1011120D01*
X2111120Y-1012720D01*
X2109920Y-1014620D01*
X2109180Y-1016760D01*
X2108900Y-1019220D01*
G37*
G36*
X2413720Y-906600D02*
G01*
X2476280Y-906600D01*
X2478740Y-906320D01*
X2480860Y-905580D01*
X2482780Y-904380D01*
X2484380Y-902780D01*
X2485580Y-900860D01*
X2486320Y-898740D01*
X2486600Y-896280D01*
X2486600Y-833720D01*
X2486320Y-831260D01*
X2485580Y-829140D01*
X2484380Y-827220D01*
X2482780Y-825620D01*
X2480860Y-824419D01*
X2478740Y-823680D01*
X2476280Y-823400D01*
X2421140Y-823400D01*
X2419620Y-823100D01*
X2418320Y-822240D01*
X2417440Y-820939D01*
X2417140Y-819400D01*
X2417440Y-817880D01*
X2418320Y-816580D01*
X2429100Y-805780D01*
X2430320Y-804960D01*
X2431760Y-804620D01*
X2433220Y-804820D01*
X2434240Y-805180D01*
X2439580Y-806240D01*
X2445000Y-806580D01*
X2450420Y-806240D01*
X2455760Y-805180D01*
X2460920Y-803420D01*
X2465800Y-801020D01*
X2470320Y-798000D01*
X2474400Y-794400D01*
X2478000Y-790320D01*
X2481020Y-785800D01*
X2483420Y-780920D01*
X2485180Y-775759D01*
X2486240Y-770420D01*
X2486580Y-765000D01*
X2486240Y-759580D01*
X2485180Y-754240D01*
X2483420Y-749080D01*
X2481020Y-744200D01*
X2478000Y-739680D01*
X2474400Y-735600D01*
X2470320Y-732000D01*
X2465800Y-728980D01*
X2460920Y-726580D01*
X2455760Y-724820D01*
X2450420Y-723760D01*
X2445000Y-723420D01*
X2439580Y-723760D01*
X2434240Y-724820D01*
X2429080Y-726580D01*
X2424200Y-728980D01*
X2419680Y-732000D01*
X2415600Y-735600D01*
X2412000Y-739680D01*
X2408980Y-744200D01*
X2406580Y-749080D01*
X2404820Y-754240D01*
X2403760Y-759580D01*
X2403420Y-765000D01*
X2403760Y-770420D01*
X2404820Y-775759D01*
X2405180Y-776780D01*
X2405380Y-778240D01*
X2405040Y-779680D01*
X2404220Y-780900D01*
X2352880Y-832240D01*
X2352040Y-832880D01*
X2351080Y-833280D01*
X2347440Y-834240D01*
X2343960Y-835879D01*
X2342820Y-836680D01*
X2341720Y-837220D01*
X2340520Y-837400D01*
X2104480Y-837400D01*
X2103280Y-837220D01*
X2102180Y-836680D01*
X2101040Y-835879D01*
X2097560Y-834240D01*
X2093839Y-833259D01*
X2090000Y-832920D01*
X2086160Y-833259D01*
X2082440Y-834240D01*
X2078959Y-835879D01*
X2075800Y-838080D01*
X2073080Y-840800D01*
X2070880Y-843960D01*
X2069240Y-847440D01*
X2068260Y-851160D01*
X2067920Y-855000D01*
X2068260Y-858840D01*
X2069240Y-862560D01*
X2070880Y-866040D01*
X2073080Y-869200D01*
X2075800Y-871919D01*
X2078959Y-874120D01*
X2082440Y-875759D01*
X2086160Y-876740D01*
X2090000Y-877080D01*
X2093839Y-876740D01*
X2097560Y-875759D01*
X2101040Y-874120D01*
X2102180Y-873319D01*
X2103280Y-872780D01*
X2104480Y-872600D01*
X2340520Y-872600D01*
X2341720Y-872780D01*
X2342820Y-873319D01*
X2343960Y-874120D01*
X2347440Y-875759D01*
X2351160Y-876740D01*
X2355000Y-877080D01*
X2358840Y-876740D01*
X2362560Y-875759D01*
X2366040Y-874120D01*
X2369200Y-871919D01*
X2371920Y-869200D01*
X2374120Y-866040D01*
X2375760Y-862560D01*
X2376720Y-858920D01*
X2377120Y-857960D01*
X2377760Y-857120D01*
X2396580Y-838319D01*
X2397880Y-837440D01*
X2399400Y-837140D01*
X2400940Y-837440D01*
X2402240Y-838319D01*
X2403100Y-839620D01*
X2403400Y-841140D01*
X2403400Y-896280D01*
X2403680Y-898740D01*
X2404420Y-900860D01*
X2405620Y-902780D01*
X2407220Y-904380D01*
X2409140Y-905580D01*
X2411260Y-906320D01*
G37*
G36*
X63540Y-877520D02*
G01*
X63540Y-857800D01*
X37800Y-857800D01*
X38300Y-858920D01*
X40820Y-863080D01*
X43900Y-866860D01*
X47460Y-870180D01*
X51440Y-872980D01*
X55759Y-875220D01*
X60340Y-876860D01*
G37*
G36*
X111840Y-877520D02*
G01*
X115040Y-876860D01*
X119620Y-875220D01*
X123940Y-872980D01*
X127920Y-870180D01*
X131480Y-866860D01*
X134560Y-863080D01*
X137080Y-858920D01*
X137580Y-857800D01*
X111840Y-857800D01*
G37*
G36*
X37800Y-827200D02*
G01*
X63540Y-827200D01*
X63540Y-807480D01*
X60340Y-808139D01*
X55759Y-809780D01*
X51440Y-812020D01*
X47460Y-814820D01*
X43900Y-818139D01*
X40820Y-821919D01*
X38300Y-826080D01*
G37*
G36*
X111840Y-827200D02*
G01*
X137580Y-827200D01*
X137080Y-826080D01*
X134560Y-821919D01*
X131480Y-818139D01*
X127920Y-814820D01*
X123940Y-812020D01*
X119620Y-809780D01*
X115040Y-808139D01*
X111840Y-807480D01*
G37*
G36*
X179680Y-825960D02*
G01*
X179680Y-809780D01*
X163500Y-809780D01*
X165620Y-813700D01*
X168520Y-817540D01*
X171920Y-820939D01*
X175760Y-823840D01*
G37*
G36*
X208299Y-825960D02*
G01*
X212220Y-823840D01*
X216060Y-820939D01*
X219460Y-817540D01*
X222360Y-813700D01*
X224480Y-809780D01*
X208299Y-809780D01*
G37*
G36*
X481220Y-796960D02*
G01*
X566680Y-796960D01*
X569140Y-796680D01*
X571280Y-795920D01*
X573180Y-794720D01*
X574780Y-793139D01*
X575980Y-791220D01*
X576720Y-789100D01*
X577000Y-786620D01*
X577000Y-739380D01*
X576720Y-736900D01*
X575980Y-734780D01*
X574780Y-732860D01*
X573180Y-731280D01*
X571280Y-730080D01*
X569140Y-729320D01*
X566680Y-729060D01*
X481220Y-729060D01*
X478760Y-729320D01*
X476620Y-730080D01*
X474720Y-731280D01*
X473120Y-732860D01*
X471920Y-734780D01*
X471180Y-736900D01*
X470900Y-739380D01*
X470900Y-786620D01*
X471180Y-789100D01*
X471920Y-791220D01*
X473120Y-793139D01*
X474720Y-794720D01*
X476620Y-795920D01*
X478760Y-796680D01*
G37*
G36*
X208299Y-781160D02*
G01*
X224480Y-781160D01*
X222360Y-777240D01*
X219460Y-773400D01*
X216060Y-770000D01*
X212220Y-767120D01*
X208299Y-764980D01*
G37*
G36*
X163500Y-781160D02*
G01*
X179680Y-781160D01*
X179680Y-764980D01*
X175760Y-767120D01*
X171920Y-770000D01*
X168520Y-773400D01*
X165620Y-777240D01*
G37*
G36*
X547920Y-698960D02*
G01*
X566680Y-698960D01*
X569140Y-698680D01*
X571280Y-697920D01*
X573180Y-696720D01*
X574780Y-695140D01*
X575980Y-693220D01*
X576720Y-691100D01*
X577000Y-688620D01*
X577000Y-679419D01*
X547920Y-679419D01*
G37*
G36*
X481220Y-698960D02*
G01*
X499980Y-698960D01*
X499980Y-679419D01*
X470900Y-679419D01*
X470900Y-688620D01*
X471180Y-691100D01*
X471920Y-693220D01*
X473120Y-695140D01*
X474720Y-696720D01*
X476620Y-697920D01*
X478760Y-698680D01*
G37*
G36*
X547920Y-650580D02*
G01*
X577000Y-650580D01*
X577000Y-641380D01*
X576720Y-638900D01*
X575980Y-636780D01*
X574780Y-634860D01*
X573180Y-633280D01*
X571280Y-632080D01*
X569140Y-631320D01*
X566680Y-631060D01*
X547920Y-631060D01*
G37*
G36*
X470900Y-650580D02*
G01*
X499980Y-650580D01*
X499980Y-631060D01*
X481220Y-631060D01*
X478760Y-631320D01*
X476620Y-632080D01*
X474720Y-633280D01*
X473120Y-634860D01*
X471920Y-636780D01*
X471180Y-638900D01*
X470900Y-641380D01*
G37*
G36*
X208299Y-635020D02*
G01*
X212220Y-632880D01*
X216060Y-630000D01*
X219460Y-626600D01*
X222360Y-622760D01*
X224480Y-618840D01*
X208299Y-618840D01*
G37*
G36*
X179680Y-635020D02*
G01*
X179680Y-618840D01*
X163500Y-618840D01*
X165620Y-622760D01*
X168520Y-626600D01*
X171920Y-630000D01*
X175760Y-632880D01*
G37*
G36*
X111840Y-592520D02*
G01*
X115040Y-591860D01*
X119620Y-590220D01*
X123940Y-587980D01*
X127920Y-585180D01*
X131480Y-581860D01*
X134560Y-578080D01*
X137080Y-573920D01*
X137580Y-572800D01*
X111840Y-572800D01*
G37*
G36*
X63540Y-592520D02*
G01*
X63540Y-572800D01*
X37800Y-572800D01*
X38300Y-573920D01*
X40820Y-578080D01*
X43900Y-581860D01*
X47460Y-585180D01*
X51440Y-587980D01*
X55759Y-590220D01*
X60340Y-591860D01*
G37*
G36*
X163500Y-590220D02*
G01*
X179680Y-590220D01*
X179680Y-574040D01*
X175760Y-576160D01*
X171920Y-579060D01*
X168520Y-582460D01*
X165620Y-586300D01*
G37*
G36*
X208299Y-590220D02*
G01*
X224480Y-590220D01*
X222360Y-586300D01*
X219460Y-582460D01*
X216060Y-579060D01*
X212220Y-576160D01*
X208299Y-574040D01*
G37*
G36*
X37800Y-542200D02*
G01*
X63540Y-542200D01*
X63540Y-522480D01*
X60340Y-523140D01*
X55759Y-524780D01*
X51440Y-527020D01*
X47460Y-529820D01*
X43900Y-533140D01*
X40820Y-536920D01*
X38300Y-541080D01*
G37*
G36*
X111840Y-542200D02*
G01*
X137580Y-542200D01*
X137080Y-541080D01*
X134560Y-536920D01*
X131480Y-533140D01*
X127920Y-529820D01*
X123940Y-527020D01*
X119620Y-524780D01*
X115040Y-523140D01*
X111840Y-522480D01*
G37*

%LPD*%
G36*
X544480Y-1702400D02*
G01*
X543280Y-1702220D01*
X542180Y-1701680D01*
X541040Y-1700880D01*
X537560Y-1699240D01*
X533920Y-1698280D01*
X532960Y-1697880D01*
X532120Y-1697240D01*
X371960Y-1537100D01*
X369260Y-1535060D01*
X366360Y-1533600D01*
X363240Y-1532720D01*
X359820Y-1532400D01*
X327360Y-1532400D01*
X325660Y-1532020D01*
X324300Y-1530980D01*
X323500Y-1529440D01*
X323420Y-1527700D01*
X324120Y-1526040D01*
X325760Y-1522560D01*
X326740Y-1518839D01*
X326900Y-1517200D01*
X327400Y-1515560D01*
X328560Y-1514280D01*
X330160Y-1513620D01*
X331880Y-1513680D01*
X333420Y-1514460D01*
X334120Y-1515040D01*
X336719Y-1516440D01*
X339560Y-1517300D01*
X342500Y-1517580D01*
X345439Y-1517300D01*
X348280Y-1516440D01*
X350880Y-1515040D01*
X353320Y-1513040D01*
X415180Y-1451180D01*
X416480Y-1450300D01*
X418020Y-1450000D01*
X750500Y-1450000D01*
X751979Y-1450280D01*
X753259Y-1451100D01*
X754140Y-1452300D01*
X755879Y-1456040D01*
X758080Y-1459199D01*
X760800Y-1461920D01*
X763960Y-1464120D01*
X767440Y-1465760D01*
X771160Y-1466740D01*
X775000Y-1467080D01*
X778840Y-1466740D01*
X782560Y-1465760D01*
X786040Y-1464120D01*
X787180Y-1463320D01*
X788280Y-1462780D01*
X789479Y-1462600D01*
X802860Y-1462600D01*
X804380Y-1462900D01*
X805680Y-1463779D01*
X806540Y-1465060D01*
X806860Y-1466600D01*
X806540Y-1468140D01*
X805680Y-1469420D01*
X577880Y-1697240D01*
X577040Y-1697880D01*
X576080Y-1698280D01*
X572440Y-1699240D01*
X568960Y-1700880D01*
X567820Y-1701680D01*
X566720Y-1702220D01*
X565520Y-1702400D01*
G37*

%LPD*%
G36*
X2048020Y-1750000D02*
G01*
X2046480Y-1749700D01*
X2045180Y-1748820D01*
X1975820Y-1679460D01*
X1973380Y-1677460D01*
X1970780Y-1676060D01*
X1967940Y-1675200D01*
X1964800Y-1674900D01*
X1928800Y-1674900D01*
X1927080Y-1674520D01*
X1922480Y-1672320D01*
X1921380Y-1671620D01*
X1920200Y-1670340D01*
X1919680Y-1668700D01*
X1919920Y-1666980D01*
X1920840Y-1665520D01*
X2135180Y-1451180D01*
X2136480Y-1450300D01*
X2138020Y-1450000D01*
X2575899Y-1450000D01*
X2577440Y-1450300D01*
X2578720Y-1451180D01*
X2579600Y-1452460D01*
X2579900Y-1454000D01*
X2579900Y-1746000D01*
X2579600Y-1747540D01*
X2578720Y-1748820D01*
X2577440Y-1749700D01*
X2575899Y-1750000D01*
G37*

%LPC*%
G36*
X2242060Y-1646600D02*
G01*
X2247620Y-1646060D01*
X2253060Y-1644820D01*
X2258300Y-1642900D01*
X2263240Y-1640320D01*
X2267820Y-1637120D01*
X2271960Y-1633380D01*
X2275580Y-1629120D01*
X2278620Y-1624440D01*
X2281040Y-1619420D01*
X2282800Y-1614120D01*
X2283860Y-1608640D01*
X2284220Y-1603080D01*
X2283860Y-1597500D01*
X2282800Y-1592020D01*
X2281040Y-1586720D01*
X2278620Y-1581699D01*
X2275580Y-1577020D01*
X2271960Y-1572760D01*
X2267820Y-1569019D01*
X2263240Y-1565820D01*
X2258300Y-1563240D01*
X2253060Y-1561320D01*
X2247620Y-1560080D01*
X2242060Y-1559540D01*
X2236480Y-1559720D01*
X2230980Y-1560600D01*
X2225620Y-1562200D01*
X2220520Y-1564460D01*
X2215760Y-1567340D01*
X2211380Y-1570820D01*
X2207500Y-1574840D01*
X2204160Y-1579300D01*
X2201420Y-1584180D01*
X2199340Y-1589340D01*
X2197920Y-1594740D01*
X2197200Y-1600280D01*
X2197200Y-1605860D01*
X2197920Y-1611399D01*
X2199340Y-1616800D01*
X2201420Y-1621960D01*
X2204160Y-1626840D01*
X2207500Y-1631300D01*
X2211380Y-1635320D01*
X2215760Y-1638800D01*
X2220520Y-1641680D01*
X2225620Y-1643940D01*
X2230980Y-1645540D01*
X2236480Y-1646420D01*
G37*
G36*
X2478280Y-1646600D02*
G01*
X2483840Y-1646060D01*
X2489280Y-1644820D01*
X2494540Y-1642880D01*
X2499460Y-1640320D01*
X2504040Y-1637120D01*
X2508180Y-1633380D01*
X2511800Y-1629120D01*
X2514840Y-1624440D01*
X2517260Y-1619420D01*
X2519020Y-1614120D01*
X2520080Y-1608640D01*
X2520440Y-1603080D01*
X2520080Y-1597500D01*
X2519020Y-1592020D01*
X2517260Y-1586720D01*
X2514840Y-1581699D01*
X2511800Y-1577020D01*
X2508180Y-1572760D01*
X2504040Y-1569019D01*
X2499460Y-1565820D01*
X2494520Y-1563240D01*
X2489280Y-1561320D01*
X2483840Y-1560080D01*
X2478280Y-1559540D01*
X2472700Y-1559720D01*
X2467200Y-1560600D01*
X2461840Y-1562200D01*
X2456740Y-1564460D01*
X2451980Y-1567340D01*
X2447600Y-1570820D01*
X2443720Y-1574840D01*
X2440380Y-1579300D01*
X2437640Y-1584180D01*
X2435560Y-1589340D01*
X2434140Y-1594740D01*
X2433420Y-1600280D01*
X2433420Y-1605860D01*
X2434140Y-1611399D01*
X2435560Y-1616800D01*
X2437640Y-1621960D01*
X2440380Y-1626840D01*
X2443720Y-1631300D01*
X2447600Y-1635320D01*
X2451980Y-1638800D01*
X2456740Y-1641680D01*
X2461840Y-1643940D01*
X2467200Y-1645540D01*
X2472700Y-1646420D01*
G37*

%LPD*%
G36*
X961940Y-1750000D02*
G01*
X960680Y-1749800D01*
X959539Y-1749199D01*
X958660Y-1748300D01*
X956919Y-1745800D01*
X954200Y-1743080D01*
X951040Y-1740880D01*
X947560Y-1739240D01*
X943840Y-1738260D01*
X940000Y-1737920D01*
X936160Y-1738260D01*
X932440Y-1739240D01*
X928860Y-1740940D01*
X927280Y-1741600D01*
X923199Y-1742340D01*
X922480Y-1742400D01*
X628940Y-1742400D01*
X627420Y-1742100D01*
X626120Y-1741220D01*
X607720Y-1722820D01*
X606860Y-1721540D01*
X606540Y-1720000D01*
X606860Y-1718460D01*
X607720Y-1717180D01*
X861120Y-1463779D01*
X862420Y-1462900D01*
X863940Y-1462600D01*
X925520Y-1462600D01*
X926720Y-1462780D01*
X927820Y-1463320D01*
X928960Y-1464120D01*
X932440Y-1465760D01*
X936160Y-1466740D01*
X940000Y-1467080D01*
X943840Y-1466740D01*
X947560Y-1465760D01*
X951040Y-1464120D01*
X952180Y-1463320D01*
X953280Y-1462780D01*
X954479Y-1462600D01*
X1820680Y-1462580D01*
X1824019Y-1462120D01*
X1827100Y-1461080D01*
X1829940Y-1459500D01*
X1832580Y-1457320D01*
X1838720Y-1451180D01*
X1840020Y-1450300D01*
X1841540Y-1450000D01*
X1930900Y-1450000D01*
X1932440Y-1450300D01*
X1933720Y-1451180D01*
X1934600Y-1452460D01*
X1934900Y-1454000D01*
X1934900Y-1472080D01*
X1934600Y-1473620D01*
X1933720Y-1474920D01*
X1864920Y-1543720D01*
X1863620Y-1544600D01*
X1862080Y-1544900D01*
X1189520Y-1544900D01*
X1187800Y-1544520D01*
X1183200Y-1542320D01*
X1181040Y-1540880D01*
X1177560Y-1539240D01*
X1173840Y-1538260D01*
X1170000Y-1537920D01*
X1166160Y-1538260D01*
X1162440Y-1539240D01*
X1158960Y-1540880D01*
X1155800Y-1543080D01*
X1153080Y-1545800D01*
X1150880Y-1548959D01*
X1149240Y-1552440D01*
X1148260Y-1556160D01*
X1147920Y-1560000D01*
X1148260Y-1563839D01*
X1149240Y-1567560D01*
X1150880Y-1571040D01*
X1153080Y-1574199D01*
X1155800Y-1576920D01*
X1158960Y-1579120D01*
X1162440Y-1580760D01*
X1163880Y-1581140D01*
X1165420Y-1581940D01*
X1166460Y-1583300D01*
X1166840Y-1585000D01*
X1166460Y-1586699D01*
X1165420Y-1588060D01*
X1163880Y-1588860D01*
X1162440Y-1589240D01*
X1158960Y-1590880D01*
X1155800Y-1593080D01*
X1153080Y-1595800D01*
X1150880Y-1598959D01*
X1149240Y-1602440D01*
X1148260Y-1606160D01*
X1147920Y-1610000D01*
X1148260Y-1613839D01*
X1149240Y-1617560D01*
X1150880Y-1621040D01*
X1153080Y-1624199D01*
X1155800Y-1626920D01*
X1158960Y-1629120D01*
X1162440Y-1630760D01*
X1163880Y-1631140D01*
X1165420Y-1631940D01*
X1166460Y-1633300D01*
X1166840Y-1635000D01*
X1166460Y-1636699D01*
X1165420Y-1638060D01*
X1163880Y-1638860D01*
X1162440Y-1639240D01*
X1158960Y-1640880D01*
X1155800Y-1643080D01*
X1153080Y-1645800D01*
X1150880Y-1648959D01*
X1149240Y-1652440D01*
X1148260Y-1656160D01*
X1147920Y-1660000D01*
X1148260Y-1663839D01*
X1148520Y-1664860D01*
X1148640Y-1666320D01*
X1148220Y-1667720D01*
X1147340Y-1668880D01*
X1146100Y-1669640D01*
X1144660Y-1669900D01*
X1107920Y-1669900D01*
X1106380Y-1669600D01*
X1105080Y-1668720D01*
X1060560Y-1624199D01*
X1059660Y-1622860D01*
X1059380Y-1621260D01*
X1059760Y-1619680D01*
X1060760Y-1617560D01*
X1061740Y-1613839D01*
X1062080Y-1610000D01*
X1061740Y-1606160D01*
X1060760Y-1602440D01*
X1059120Y-1598959D01*
X1056920Y-1595800D01*
X1054200Y-1593080D01*
X1051040Y-1590880D01*
X1047560Y-1589240D01*
X1046120Y-1588860D01*
X1044580Y-1588060D01*
X1043540Y-1586699D01*
X1043160Y-1585000D01*
X1043540Y-1583300D01*
X1044580Y-1581940D01*
X1046120Y-1581140D01*
X1047560Y-1580760D01*
X1051040Y-1579120D01*
X1054200Y-1576920D01*
X1056920Y-1574199D01*
X1059120Y-1571040D01*
X1060760Y-1567560D01*
X1061740Y-1563839D01*
X1062080Y-1560000D01*
X1061740Y-1556160D01*
X1060760Y-1552440D01*
X1059120Y-1548959D01*
X1056920Y-1545800D01*
X1054200Y-1543080D01*
X1051040Y-1540880D01*
X1047560Y-1539240D01*
X1046120Y-1538860D01*
X1044580Y-1538060D01*
X1043540Y-1536699D01*
X1043160Y-1535000D01*
X1043540Y-1533300D01*
X1044580Y-1531940D01*
X1046120Y-1531140D01*
X1047560Y-1530760D01*
X1051040Y-1529120D01*
X1054200Y-1526920D01*
X1056920Y-1524199D01*
X1059120Y-1521040D01*
X1060760Y-1517560D01*
X1061740Y-1513839D01*
X1062080Y-1510000D01*
X1061740Y-1506160D01*
X1060760Y-1502440D01*
X1059120Y-1498959D01*
X1056920Y-1495800D01*
X1054200Y-1493080D01*
X1051040Y-1490880D01*
X1047560Y-1489240D01*
X1043840Y-1488260D01*
X1040000Y-1487920D01*
X1036160Y-1488260D01*
X1032440Y-1489240D01*
X1028960Y-1490880D01*
X1025800Y-1493080D01*
X1023080Y-1495800D01*
X1020879Y-1498959D01*
X1019240Y-1502440D01*
X1018820Y-1504079D01*
X1018420Y-1505040D01*
X1017780Y-1505880D01*
X969460Y-1554180D01*
X967460Y-1556620D01*
X966060Y-1559220D01*
X965200Y-1562060D01*
X964900Y-1565200D01*
X964900Y-1644800D01*
X965200Y-1647940D01*
X966060Y-1650780D01*
X967460Y-1653380D01*
X969460Y-1655820D01*
X1054160Y-1740520D01*
X1057120Y-1742880D01*
X1058160Y-1744139D01*
X1058600Y-1745700D01*
X1058380Y-1747320D01*
X1057540Y-1748720D01*
X1056200Y-1749660D01*
X1054620Y-1750000D01*
G37*

%LPD*%
G36*
X24100Y-1750000D02*
G01*
X22559Y-1749700D01*
X21280Y-1748820D01*
X20400Y-1747540D01*
X20099Y-1746000D01*
X20099Y-1454000D01*
X20400Y-1452460D01*
X21280Y-1451180D01*
X22559Y-1450300D01*
X24100Y-1450000D01*
X303980Y-1450000D01*
X305520Y-1450300D01*
X306820Y-1451180D01*
X307680Y-1452460D01*
X307980Y-1454000D01*
X307680Y-1455540D01*
X306820Y-1456819D01*
X264460Y-1499180D01*
X262460Y-1501620D01*
X261060Y-1504220D01*
X260200Y-1507060D01*
X259899Y-1510200D01*
X259899Y-1689800D01*
X260200Y-1692940D01*
X261060Y-1695780D01*
X262460Y-1698380D01*
X264460Y-1700820D01*
X306820Y-1743180D01*
X307680Y-1744460D01*
X307980Y-1746000D01*
X307680Y-1747540D01*
X306820Y-1748820D01*
X305520Y-1749700D01*
X303980Y-1750000D01*
G37*

%LPC*%
G36*
X111840Y-1727200D02*
G01*
X137580Y-1727200D01*
X137080Y-1726080D01*
X134560Y-1721920D01*
X131480Y-1718140D01*
X127920Y-1714820D01*
X123940Y-1712020D01*
X119620Y-1709780D01*
X115040Y-1708140D01*
X111840Y-1707480D01*
G37*
G36*
X37800Y-1727200D02*
G01*
X63540Y-1727200D01*
X63540Y-1707480D01*
X60340Y-1708140D01*
X55759Y-1709780D01*
X51440Y-1712020D01*
X47460Y-1714820D01*
X43900Y-1718140D01*
X40820Y-1721920D01*
X38300Y-1726080D01*
G37*
G36*
X179680Y-1725960D02*
G01*
X179680Y-1709780D01*
X163500Y-1709780D01*
X165620Y-1713700D01*
X168520Y-1717540D01*
X171920Y-1720940D01*
X175760Y-1723839D01*
G37*
G36*
X208299Y-1725960D02*
G01*
X212220Y-1723839D01*
X216060Y-1720940D01*
X219460Y-1717540D01*
X222360Y-1713700D01*
X224480Y-1709780D01*
X208299Y-1709780D01*
G37*
G36*
X163500Y-1681160D02*
G01*
X179680Y-1681160D01*
X179680Y-1664980D01*
X175760Y-1667120D01*
X171920Y-1670000D01*
X168520Y-1673400D01*
X165620Y-1677240D01*
G37*
G36*
X208299Y-1681160D02*
G01*
X224480Y-1681160D01*
X222360Y-1677240D01*
X219460Y-1673400D01*
X216060Y-1670000D01*
X212220Y-1667120D01*
X208299Y-1664980D01*
G37*
G36*
X179680Y-1535020D02*
G01*
X179680Y-1518839D01*
X163500Y-1518839D01*
X165620Y-1522760D01*
X168520Y-1526600D01*
X171920Y-1530000D01*
X175760Y-1532880D01*
G37*
G36*
X208299Y-1535020D02*
G01*
X212220Y-1532880D01*
X216060Y-1530000D01*
X219460Y-1526600D01*
X222360Y-1522760D01*
X224480Y-1518839D01*
X208299Y-1518839D01*
G37*
G36*
X111840Y-1492520D02*
G01*
X115040Y-1491860D01*
X119620Y-1490220D01*
X123940Y-1487980D01*
X127920Y-1485180D01*
X131480Y-1481860D01*
X134560Y-1478080D01*
X137080Y-1473920D01*
X137580Y-1472800D01*
X111840Y-1472800D01*
G37*
G36*
X63540Y-1492520D02*
G01*
X63540Y-1472800D01*
X37800Y-1472800D01*
X38300Y-1473920D01*
X40820Y-1478080D01*
X43900Y-1481860D01*
X47460Y-1485180D01*
X51440Y-1487980D01*
X55759Y-1490220D01*
X60340Y-1491860D01*
G37*
G36*
X163500Y-1490220D02*
G01*
X179680Y-1490220D01*
X179680Y-1474040D01*
X175760Y-1476160D01*
X171920Y-1479060D01*
X168520Y-1482460D01*
X165620Y-1486300D01*
G37*
G36*
X208299Y-1490220D02*
G01*
X224480Y-1490220D01*
X222360Y-1486300D01*
X219460Y-1482460D01*
X216060Y-1479060D01*
X212220Y-1476160D01*
X208299Y-1474040D01*
G37*

%LPD*%
G36*
X554940Y-3090899D02*
G01*
X552840Y-3090360D01*
X549940Y-3089900D01*
X14100Y-3089900D01*
X12560Y-3089600D01*
X11279Y-3088720D01*
X10400Y-3087440D01*
X10100Y-3085899D01*
X10100Y-2114100D01*
X10400Y-2112560D01*
X11279Y-2111260D01*
X12560Y-2110400D01*
X14100Y-2110100D01*
X549760Y-2109940D01*
X552300Y-2109620D01*
X553340Y-2109220D01*
X554980Y-2108980D01*
X556560Y-2109400D01*
X557860Y-2110420D01*
X558620Y-2111380D01*
X561060Y-2113380D01*
X563840Y-2114860D01*
X566860Y-2115780D01*
X570000Y-2116080D01*
X573140Y-2115780D01*
X576160Y-2114860D01*
X578120Y-2113800D01*
X579340Y-2113380D01*
X580660Y-2113380D01*
X581880Y-2113800D01*
X583840Y-2114860D01*
X586860Y-2115780D01*
X590000Y-2116080D01*
X593140Y-2115780D01*
X596160Y-2114860D01*
X598120Y-2113800D01*
X599340Y-2113380D01*
X600660Y-2113380D01*
X601880Y-2113800D01*
X603840Y-2114860D01*
X606860Y-2115780D01*
X610000Y-2116080D01*
X613140Y-2115780D01*
X616160Y-2114860D01*
X618120Y-2113800D01*
X619340Y-2113380D01*
X620660Y-2113380D01*
X621880Y-2113800D01*
X623840Y-2114860D01*
X626860Y-2115780D01*
X630000Y-2116080D01*
X633140Y-2115780D01*
X636160Y-2114860D01*
X638940Y-2113380D01*
X641380Y-2111380D01*
X642039Y-2110560D01*
X643319Y-2109520D01*
X644920Y-2109100D01*
X646560Y-2109360D01*
X647700Y-2109800D01*
X650240Y-2110100D01*
X1905880Y-2110100D01*
X1907360Y-2110380D01*
X1908640Y-2111200D01*
X1909520Y-2112440D01*
X1909860Y-2113920D01*
X1909640Y-2115420D01*
X1909180Y-2116760D01*
X1908899Y-2119220D01*
X1908899Y-2180780D01*
X1909180Y-2183240D01*
X1909920Y-2185380D01*
X1911120Y-2187280D01*
X1912720Y-2188880D01*
X1914620Y-2190080D01*
X1916759Y-2190820D01*
X1919220Y-2191100D01*
X1977880Y-2191100D01*
X1979420Y-2191400D01*
X1980720Y-2192280D01*
X1981579Y-2193560D01*
X1981879Y-2195100D01*
X1981579Y-2196640D01*
X1980720Y-2197920D01*
X1819920Y-2358720D01*
X1818620Y-2359600D01*
X1817080Y-2359900D01*
X932680Y-2359900D01*
X931140Y-2359600D01*
X929840Y-2358720D01*
X929200Y-2358080D01*
X926040Y-2355880D01*
X922560Y-2354240D01*
X918840Y-2353260D01*
X915000Y-2352920D01*
X911160Y-2353260D01*
X907440Y-2354240D01*
X903960Y-2355880D01*
X900800Y-2358080D01*
X898080Y-2360800D01*
X895879Y-2363960D01*
X894240Y-2367440D01*
X893259Y-2371160D01*
X892920Y-2375000D01*
X893259Y-2378840D01*
X894240Y-2382560D01*
X895879Y-2386040D01*
X898080Y-2389200D01*
X900800Y-2391920D01*
X903960Y-2394120D01*
X907440Y-2395760D01*
X908880Y-2396140D01*
X910420Y-2396940D01*
X911460Y-2398300D01*
X911840Y-2400000D01*
X911460Y-2401700D01*
X910420Y-2403060D01*
X908880Y-2403860D01*
X907440Y-2404240D01*
X903960Y-2405880D01*
X900800Y-2408080D01*
X898080Y-2410800D01*
X895879Y-2413960D01*
X894240Y-2417440D01*
X893259Y-2421160D01*
X892920Y-2425000D01*
X893259Y-2428840D01*
X894240Y-2432560D01*
X895879Y-2436040D01*
X898080Y-2439200D01*
X900800Y-2441920D01*
X903960Y-2444120D01*
X907440Y-2445760D01*
X908880Y-2446140D01*
X910420Y-2446940D01*
X911460Y-2448300D01*
X911840Y-2450000D01*
X911460Y-2451700D01*
X910420Y-2453060D01*
X908880Y-2453860D01*
X907440Y-2454240D01*
X903960Y-2455880D01*
X900800Y-2458080D01*
X898080Y-2460800D01*
X895879Y-2463960D01*
X894240Y-2467440D01*
X893259Y-2471160D01*
X892920Y-2475000D01*
X893259Y-2478840D01*
X894240Y-2482560D01*
X895879Y-2486040D01*
X898080Y-2489200D01*
X900800Y-2491920D01*
X903960Y-2494120D01*
X907440Y-2495760D01*
X911160Y-2496740D01*
X915000Y-2497080D01*
X918840Y-2496740D01*
X922560Y-2495760D01*
X926040Y-2494120D01*
X929200Y-2491920D01*
X929840Y-2491280D01*
X931140Y-2490400D01*
X932680Y-2490100D01*
X1924800Y-2490100D01*
X1927940Y-2489800D01*
X1930780Y-2488940D01*
X1933380Y-2487540D01*
X1935820Y-2485540D01*
X2231860Y-2189500D01*
X2233080Y-2188660D01*
X2234520Y-2188340D01*
X2235980Y-2188540D01*
X2239360Y-2189700D01*
X2244640Y-2190740D01*
X2250000Y-2191100D01*
X2255360Y-2190740D01*
X2260640Y-2189700D01*
X2265720Y-2187960D01*
X2270540Y-2185580D01*
X2275020Y-2182600D01*
X2279060Y-2179060D01*
X2282600Y-2175020D01*
X2285580Y-2170540D01*
X2287960Y-2165720D01*
X2289700Y-2160640D01*
X2290740Y-2155360D01*
X2291100Y-2150000D01*
X2290740Y-2144640D01*
X2289700Y-2139360D01*
X2287960Y-2134280D01*
X2285580Y-2129460D01*
X2282600Y-2124980D01*
X2279060Y-2120960D01*
X2274660Y-2117120D01*
X2273680Y-2115840D01*
X2273280Y-2114280D01*
X2273520Y-2112700D01*
X2274380Y-2111340D01*
X2275700Y-2110420D01*
X2277280Y-2110100D01*
X2585899Y-2110100D01*
X2587440Y-2110400D01*
X2588720Y-2111280D01*
X2589600Y-2112560D01*
X2589900Y-2114100D01*
X2589900Y-3085899D01*
X2589600Y-3087440D01*
X2588720Y-3088740D01*
X2587440Y-3089600D01*
X2585899Y-3089900D01*
X2294100Y-3090000D01*
X2292600Y-3089700D01*
X2291340Y-3088880D01*
X2290460Y-3087640D01*
X2290100Y-3086180D01*
X2290320Y-3084680D01*
X2290820Y-3083240D01*
X2291100Y-3080779D01*
X2291100Y-3068000D01*
X2268000Y-3068000D01*
X2268000Y-3086000D01*
X2267700Y-3087540D01*
X2266820Y-3088840D01*
X2265540Y-3089700D01*
X2264000Y-3090000D01*
X2236000Y-3090020D01*
X2234480Y-3089700D01*
X2233180Y-3088840D01*
X2232300Y-3087540D01*
X2232000Y-3086019D01*
X2232000Y-3068000D01*
X2208900Y-3068000D01*
X2208900Y-3080779D01*
X2209180Y-3083240D01*
X2209680Y-3084700D01*
X2209900Y-3086200D01*
X2209560Y-3087679D01*
X2208680Y-3088920D01*
X2207400Y-3089740D01*
X2205920Y-3090020D01*
X2177080Y-3090020D01*
X2175440Y-3089680D01*
X2174080Y-3088660D01*
X2173260Y-3087200D01*
X2173120Y-3085500D01*
X2173680Y-3083920D01*
X2175020Y-3082600D01*
X2179060Y-3079060D01*
X2182600Y-3075020D01*
X2185580Y-3070539D01*
X2187960Y-3065720D01*
X2189700Y-3060640D01*
X2190740Y-3055360D01*
X2191100Y-3050000D01*
X2190740Y-3044640D01*
X2189700Y-3039360D01*
X2187960Y-3034280D01*
X2185580Y-3029460D01*
X2182600Y-3024980D01*
X2179060Y-3020940D01*
X2175020Y-3017400D01*
X2170540Y-3014420D01*
X2167340Y-3012820D01*
X2166160Y-3011940D01*
X2165380Y-3010700D01*
X2165100Y-3009240D01*
X2165100Y-2939840D01*
X2164800Y-2936700D01*
X2163940Y-2933860D01*
X2162540Y-2931259D01*
X2160540Y-2928820D01*
X2044520Y-2812799D01*
X2043720Y-2811660D01*
X2043360Y-2810320D01*
X2043080Y-2807140D01*
X2042100Y-2803420D01*
X2040460Y-2799920D01*
X2038260Y-2796780D01*
X2035540Y-2794060D01*
X2032380Y-2791840D01*
X2028899Y-2790220D01*
X2025180Y-2789220D01*
X2021980Y-2788940D01*
X2020640Y-2788580D01*
X2019500Y-2787780D01*
X1906180Y-2674460D01*
X1903740Y-2672460D01*
X1901140Y-2671060D01*
X1898320Y-2670220D01*
X1894820Y-2669900D01*
X752920Y-2669900D01*
X751380Y-2669600D01*
X750080Y-2668720D01*
X508180Y-2426820D01*
X507380Y-2425700D01*
X507020Y-2424340D01*
X506740Y-2421160D01*
X505760Y-2417440D01*
X504120Y-2413960D01*
X501920Y-2410800D01*
X499200Y-2408080D01*
X496040Y-2405880D01*
X492560Y-2404240D01*
X491120Y-2403860D01*
X489580Y-2403060D01*
X488540Y-2401700D01*
X488160Y-2400000D01*
X488540Y-2398300D01*
X489580Y-2396940D01*
X491120Y-2396140D01*
X492560Y-2395760D01*
X496040Y-2394120D01*
X499200Y-2391920D01*
X501920Y-2389200D01*
X504120Y-2386040D01*
X505760Y-2382560D01*
X506740Y-2378840D01*
X507080Y-2375000D01*
X506740Y-2371160D01*
X505760Y-2367440D01*
X504120Y-2363960D01*
X501920Y-2360800D01*
X499200Y-2358080D01*
X496040Y-2355880D01*
X492560Y-2354240D01*
X491120Y-2353860D01*
X489580Y-2353060D01*
X488540Y-2351700D01*
X488160Y-2350000D01*
X488540Y-2348300D01*
X489580Y-2346940D01*
X491120Y-2346140D01*
X492560Y-2345760D01*
X496040Y-2344120D01*
X499200Y-2341920D01*
X501920Y-2339200D01*
X504120Y-2336040D01*
X505760Y-2332560D01*
X506740Y-2328840D01*
X507080Y-2325000D01*
X506740Y-2321160D01*
X505760Y-2317440D01*
X504120Y-2313960D01*
X501920Y-2310800D01*
X499200Y-2308080D01*
X496040Y-2305880D01*
X492560Y-2304240D01*
X488840Y-2303260D01*
X485000Y-2302920D01*
X481160Y-2303260D01*
X477440Y-2304240D01*
X473960Y-2305880D01*
X470800Y-2308080D01*
X468080Y-2310800D01*
X465880Y-2313960D01*
X464240Y-2317440D01*
X463260Y-2321160D01*
X462980Y-2324340D01*
X462620Y-2325700D01*
X461820Y-2326820D01*
X404460Y-2384180D01*
X402460Y-2386620D01*
X401060Y-2389220D01*
X400200Y-2392060D01*
X399900Y-2395200D01*
X399900Y-2449800D01*
X400200Y-2452940D01*
X401060Y-2455780D01*
X402460Y-2458380D01*
X404460Y-2460820D01*
X734180Y-2790539D01*
X736620Y-2792540D01*
X739220Y-2793940D01*
X742060Y-2794800D01*
X745200Y-2795100D01*
X1822320Y-2795100D01*
X1823860Y-2795400D01*
X1825160Y-2796280D01*
X1825800Y-2796920D01*
X1828959Y-2799120D01*
X1832440Y-2800760D01*
X1836160Y-2801740D01*
X1840000Y-2802080D01*
X1843420Y-2801780D01*
X1845120Y-2802020D01*
X1846579Y-2802940D01*
X1933720Y-2890080D01*
X1934600Y-2891380D01*
X1934900Y-2892919D01*
X1934900Y-3009240D01*
X1934620Y-3010700D01*
X1933839Y-3011940D01*
X1932660Y-3012820D01*
X1929460Y-3014420D01*
X1924980Y-3017400D01*
X1920940Y-3020940D01*
X1917400Y-3024980D01*
X1914420Y-3029460D01*
X1912040Y-3034280D01*
X1910300Y-3039360D01*
X1909259Y-3044640D01*
X1908899Y-3050000D01*
X1909259Y-3055360D01*
X1910300Y-3060640D01*
X1912040Y-3065720D01*
X1914420Y-3070539D01*
X1917400Y-3075020D01*
X1920940Y-3079040D01*
X1925340Y-3082880D01*
X1926320Y-3084160D01*
X1926720Y-3085720D01*
X1926480Y-3087300D01*
X1925620Y-3088660D01*
X1924300Y-3089580D01*
X1922720Y-3089900D01*
X650240Y-3089900D01*
X647700Y-3090200D01*
X646560Y-3090640D01*
X644920Y-3090899D01*
X643319Y-3090480D01*
X642039Y-3089440D01*
X641380Y-3088620D01*
X638940Y-3086620D01*
X636160Y-3085140D01*
X633140Y-3084220D01*
X630000Y-3083920D01*
X626860Y-3084220D01*
X623840Y-3085140D01*
X621880Y-3086200D01*
X620660Y-3086620D01*
X619340Y-3086620D01*
X618120Y-3086200D01*
X616160Y-3085140D01*
X613140Y-3084220D01*
X610000Y-3083920D01*
X606860Y-3084220D01*
X603840Y-3085140D01*
X601880Y-3086200D01*
X600660Y-3086620D01*
X599340Y-3086620D01*
X598120Y-3086200D01*
X596160Y-3085140D01*
X593140Y-3084220D01*
X590000Y-3083920D01*
X586860Y-3084220D01*
X583840Y-3085140D01*
X581880Y-3086200D01*
X580660Y-3086620D01*
X579340Y-3086620D01*
X578120Y-3086200D01*
X576160Y-3085140D01*
X573140Y-3084220D01*
X570000Y-3083920D01*
X566860Y-3084220D01*
X563840Y-3085140D01*
X561060Y-3086620D01*
X558620Y-3088620D01*
X557980Y-3089420D01*
X556620Y-3090500D01*
G37*

%LPC*%
G36*
X2268000Y-3032000D02*
G01*
X2291100Y-3032000D01*
X2291100Y-3019220D01*
X2290820Y-3016760D01*
X2290080Y-3014620D01*
X2288880Y-3012720D01*
X2287280Y-3011120D01*
X2285380Y-3009920D01*
X2283240Y-3009180D01*
X2280780Y-3008900D01*
X2268000Y-3008900D01*
G37*
G36*
X2208900Y-3032000D02*
G01*
X2232000Y-3032000D01*
X2232000Y-3008900D01*
X2219220Y-3008900D01*
X2216760Y-3009180D01*
X2214620Y-3009920D01*
X2212720Y-3011120D01*
X2211120Y-3012720D01*
X2209920Y-3014620D01*
X2209180Y-3016760D01*
X2208900Y-3019220D01*
G37*
G36*
X111840Y-2777520D02*
G01*
X115040Y-2776860D01*
X119620Y-2775220D01*
X123940Y-2772980D01*
X127920Y-2770179D01*
X131480Y-2766860D01*
X134560Y-2763080D01*
X137080Y-2758920D01*
X137580Y-2757799D01*
X111840Y-2757799D01*
G37*
G36*
X63540Y-2777520D02*
G01*
X63540Y-2757799D01*
X37800Y-2757799D01*
X38300Y-2758920D01*
X40820Y-2763080D01*
X43900Y-2766860D01*
X47460Y-2770179D01*
X51440Y-2772980D01*
X55759Y-2775220D01*
X60340Y-2776860D01*
G37*
G36*
X111840Y-2727200D02*
G01*
X137580Y-2727200D01*
X137080Y-2726080D01*
X134560Y-2721920D01*
X131480Y-2718140D01*
X127920Y-2714820D01*
X123940Y-2712020D01*
X119620Y-2709780D01*
X115040Y-2708140D01*
X111840Y-2707480D01*
G37*
G36*
X37800Y-2727200D02*
G01*
X63540Y-2727200D01*
X63540Y-2707480D01*
X60340Y-2708140D01*
X55759Y-2709780D01*
X51440Y-2712020D01*
X47460Y-2714820D01*
X43900Y-2718140D01*
X40820Y-2721920D01*
X38300Y-2726080D01*
G37*
G36*
X179680Y-2725960D02*
G01*
X179680Y-2709780D01*
X163500Y-2709780D01*
X165620Y-2713700D01*
X168520Y-2717540D01*
X171920Y-2720940D01*
X175760Y-2723840D01*
G37*
G36*
X208299Y-2725960D02*
G01*
X212220Y-2723840D01*
X216060Y-2720940D01*
X219460Y-2717540D01*
X222360Y-2713700D01*
X224480Y-2709780D01*
X208299Y-2709780D01*
G37*
G36*
X163500Y-2681160D02*
G01*
X179680Y-2681160D01*
X179680Y-2664980D01*
X175760Y-2667120D01*
X171920Y-2670000D01*
X168520Y-2673399D01*
X165620Y-2677240D01*
G37*
G36*
X208299Y-2681160D02*
G01*
X224480Y-2681160D01*
X222360Y-2677240D01*
X219460Y-2673399D01*
X216060Y-2670000D01*
X212220Y-2667120D01*
X208299Y-2664980D01*
G37*
G36*
X1494680Y-2639600D02*
G01*
X1499960Y-2639420D01*
X1505180Y-2638540D01*
X1510240Y-2636980D01*
X1515040Y-2634740D01*
X1519500Y-2631900D01*
X1523540Y-2628480D01*
X1527100Y-2624560D01*
X1530080Y-2620200D01*
X1532480Y-2615460D01*
X1534220Y-2610460D01*
X1535260Y-2605280D01*
X1535620Y-2600000D01*
X1535260Y-2594720D01*
X1534220Y-2589540D01*
X1532480Y-2584540D01*
X1530080Y-2579800D01*
X1527100Y-2575440D01*
X1523540Y-2571520D01*
X1519500Y-2568100D01*
X1515040Y-2565260D01*
X1510240Y-2563020D01*
X1505180Y-2561460D01*
X1499960Y-2560580D01*
X1494680Y-2560400D01*
X1489420Y-2560940D01*
X1484259Y-2562160D01*
X1479319Y-2564060D01*
X1474680Y-2566600D01*
X1470420Y-2569740D01*
X1466620Y-2573420D01*
X1463340Y-2577580D01*
X1460640Y-2582140D01*
X1458580Y-2587000D01*
X1457180Y-2592100D01*
X1456459Y-2597360D01*
X1456459Y-2602640D01*
X1457180Y-2607900D01*
X1458580Y-2613000D01*
X1460640Y-2617860D01*
X1463340Y-2622420D01*
X1466620Y-2626580D01*
X1470420Y-2630260D01*
X1474680Y-2633399D01*
X1479319Y-2635940D01*
X1484259Y-2637840D01*
X1489420Y-2639060D01*
G37*
G36*
X1789680Y-2639600D02*
G01*
X1794960Y-2639420D01*
X1800180Y-2638540D01*
X1805240Y-2636980D01*
X1810040Y-2634740D01*
X1814500Y-2631900D01*
X1818540Y-2628480D01*
X1822100Y-2624560D01*
X1825080Y-2620200D01*
X1827480Y-2615460D01*
X1829220Y-2610460D01*
X1830260Y-2605280D01*
X1830620Y-2600000D01*
X1830260Y-2594720D01*
X1829220Y-2589540D01*
X1827480Y-2584540D01*
X1825080Y-2579800D01*
X1822100Y-2575440D01*
X1818540Y-2571520D01*
X1814500Y-2568100D01*
X1810040Y-2565260D01*
X1805240Y-2563020D01*
X1800180Y-2561460D01*
X1794960Y-2560580D01*
X1789680Y-2560400D01*
X1784420Y-2560940D01*
X1779259Y-2562160D01*
X1774319Y-2564060D01*
X1769680Y-2566600D01*
X1765420Y-2569740D01*
X1761620Y-2573420D01*
X1758340Y-2577580D01*
X1755640Y-2582140D01*
X1753580Y-2587000D01*
X1752180Y-2592100D01*
X1751459Y-2597360D01*
X1751459Y-2602640D01*
X1752180Y-2607900D01*
X1753580Y-2613000D01*
X1755640Y-2617860D01*
X1758340Y-2622420D01*
X1761620Y-2626580D01*
X1765420Y-2630260D01*
X1769680Y-2633399D01*
X1774319Y-2635940D01*
X1779259Y-2637840D01*
X1784420Y-2639060D01*
G37*
G36*
X208299Y-2535020D02*
G01*
X212220Y-2532880D01*
X216060Y-2530000D01*
X219460Y-2526600D01*
X222360Y-2522760D01*
X224480Y-2518840D01*
X208299Y-2518840D01*
G37*
G36*
X179680Y-2535020D02*
G01*
X179680Y-2518840D01*
X163500Y-2518840D01*
X165620Y-2522760D01*
X168520Y-2526600D01*
X171920Y-2530000D01*
X175760Y-2532880D01*
G37*
G36*
X111840Y-2492520D02*
G01*
X115040Y-2491860D01*
X119620Y-2490220D01*
X123940Y-2487980D01*
X127920Y-2485180D01*
X131480Y-2481860D01*
X134560Y-2478080D01*
X137080Y-2473920D01*
X137580Y-2472800D01*
X111840Y-2472800D01*
G37*
G36*
X63540Y-2492520D02*
G01*
X63540Y-2472800D01*
X37800Y-2472800D01*
X38300Y-2473920D01*
X40820Y-2478080D01*
X43900Y-2481860D01*
X47460Y-2485180D01*
X51440Y-2487980D01*
X55759Y-2490220D01*
X60340Y-2491860D01*
G37*
G36*
X163500Y-2490220D02*
G01*
X179680Y-2490220D01*
X179680Y-2474040D01*
X175760Y-2476160D01*
X171920Y-2479060D01*
X168520Y-2482460D01*
X165620Y-2486300D01*
G37*
G36*
X208299Y-2490220D02*
G01*
X224480Y-2490220D01*
X222360Y-2486300D01*
X219460Y-2482460D01*
X216060Y-2479060D01*
X212220Y-2476160D01*
X208299Y-2474040D01*
G37*
G36*
X37800Y-2442200D02*
G01*
X63540Y-2442200D01*
X63540Y-2422480D01*
X60340Y-2423140D01*
X55759Y-2424780D01*
X51440Y-2427020D01*
X47460Y-2429820D01*
X43900Y-2433140D01*
X40820Y-2436920D01*
X38300Y-2441080D01*
G37*
G36*
X111840Y-2442200D02*
G01*
X137580Y-2442200D01*
X137080Y-2441080D01*
X134560Y-2436920D01*
X131480Y-2433140D01*
X127920Y-2429820D01*
X123940Y-2427020D01*
X119620Y-2424780D01*
X115040Y-2423140D01*
X111840Y-2422480D01*
G37*

%LPD*%
G36*
X554940Y-4190899D02*
G01*
X552840Y-4190360D01*
X549940Y-4189900D01*
X14100Y-4189900D01*
X12560Y-4189600D01*
X11279Y-4188720D01*
X10400Y-4187440D01*
X10100Y-4185899D01*
X10100Y-3214100D01*
X10400Y-3212559D01*
X11279Y-3211259D01*
X12560Y-3210400D01*
X14100Y-3210100D01*
X194440Y-3210040D01*
X196119Y-3210419D01*
X197500Y-3211460D01*
X198299Y-3213000D01*
X198380Y-3214740D01*
X197700Y-3216340D01*
X195880Y-3218960D01*
X194240Y-3222440D01*
X193280Y-3226080D01*
X192880Y-3227040D01*
X192240Y-3227880D01*
X177100Y-3243039D01*
X175060Y-3245740D01*
X173600Y-3248639D01*
X172719Y-3251760D01*
X172399Y-3255179D01*
X172399Y-3385340D01*
X172140Y-3386760D01*
X171380Y-3388000D01*
X170219Y-3388900D01*
X168820Y-3389320D01*
X167360Y-3389200D01*
X163840Y-3388260D01*
X160000Y-3387919D01*
X156160Y-3388260D01*
X152440Y-3389240D01*
X148960Y-3390880D01*
X145800Y-3393080D01*
X143080Y-3395800D01*
X140880Y-3398960D01*
X139240Y-3402440D01*
X138260Y-3406160D01*
X137920Y-3410000D01*
X138260Y-3413840D01*
X139240Y-3417559D01*
X140880Y-3421040D01*
X143080Y-3424200D01*
X143740Y-3424840D01*
X144600Y-3426139D01*
X144900Y-3427679D01*
X144900Y-3644800D01*
X145220Y-3647940D01*
X146160Y-3651060D01*
X146320Y-3652480D01*
X145980Y-3653860D01*
X145180Y-3655020D01*
X140800Y-3658080D01*
X138080Y-3660800D01*
X135880Y-3663960D01*
X134240Y-3667440D01*
X133260Y-3671160D01*
X132920Y-3675000D01*
X133260Y-3678840D01*
X134240Y-3682559D01*
X135880Y-3686040D01*
X138080Y-3689200D01*
X140800Y-3691920D01*
X143960Y-3694120D01*
X147440Y-3695760D01*
X148880Y-3696139D01*
X150420Y-3696940D01*
X151460Y-3698300D01*
X151840Y-3700000D01*
X151460Y-3701700D01*
X150420Y-3703060D01*
X148880Y-3703860D01*
X147440Y-3704240D01*
X143960Y-3705880D01*
X140800Y-3708080D01*
X138080Y-3710800D01*
X135880Y-3713960D01*
X134240Y-3717440D01*
X133260Y-3721160D01*
X132920Y-3725000D01*
X133260Y-3728840D01*
X134240Y-3732559D01*
X135880Y-3736040D01*
X138080Y-3739200D01*
X138740Y-3739840D01*
X139600Y-3741139D01*
X139900Y-3742679D01*
X139900Y-3879800D01*
X140220Y-3882940D01*
X141060Y-3885779D01*
X142460Y-3888380D01*
X144460Y-3890820D01*
X171820Y-3918159D01*
X172620Y-3919300D01*
X172979Y-3920640D01*
X173260Y-3923840D01*
X174240Y-3927559D01*
X175880Y-3931040D01*
X178080Y-3934200D01*
X180799Y-3936920D01*
X183960Y-3939120D01*
X187440Y-3940760D01*
X191160Y-3941740D01*
X195000Y-3942080D01*
X198840Y-3941740D01*
X202560Y-3940760D01*
X206040Y-3939120D01*
X208600Y-3937320D01*
X210200Y-3936660D01*
X211940Y-3936740D01*
X213480Y-3937540D01*
X214520Y-3938920D01*
X214899Y-3940600D01*
X214899Y-3999320D01*
X215180Y-4002340D01*
X215560Y-4003580D01*
X215680Y-4005320D01*
X215040Y-4006940D01*
X213760Y-4008140D01*
X212100Y-4008680D01*
X210360Y-4008480D01*
X208900Y-4007540D01*
X178180Y-3976820D01*
X177380Y-3975680D01*
X177020Y-3974340D01*
X176740Y-3971160D01*
X175760Y-3967440D01*
X174120Y-3963960D01*
X171920Y-3960800D01*
X169200Y-3958080D01*
X166040Y-3955880D01*
X162560Y-3954240D01*
X158840Y-3953260D01*
X155000Y-3952919D01*
X151160Y-3953260D01*
X147440Y-3954240D01*
X143960Y-3955880D01*
X140800Y-3958080D01*
X138080Y-3960800D01*
X135880Y-3963960D01*
X134240Y-3967440D01*
X133260Y-3971160D01*
X132920Y-3975000D01*
X133260Y-3978840D01*
X134240Y-3982559D01*
X135880Y-3986040D01*
X138080Y-3989200D01*
X140800Y-3991920D01*
X143960Y-3994120D01*
X147440Y-3995760D01*
X151160Y-3996740D01*
X154360Y-3997020D01*
X155700Y-3997380D01*
X156840Y-3998180D01*
X274180Y-4115539D01*
X276620Y-4117540D01*
X279240Y-4118940D01*
X282060Y-4119800D01*
X285200Y-4120100D01*
X1762000Y-4120100D01*
X1765120Y-4119800D01*
X1767960Y-4118940D01*
X1770560Y-4117559D01*
X1773000Y-4115560D01*
X1796279Y-4092360D01*
X1797560Y-4091500D01*
X1799100Y-4091200D01*
X2073200Y-4091200D01*
X2074720Y-4091500D01*
X2076020Y-4092380D01*
X2079180Y-4095539D01*
X2081620Y-4097540D01*
X2084240Y-4098940D01*
X2087060Y-4099800D01*
X2090200Y-4100100D01*
X2197100Y-4100100D01*
X2198620Y-4100400D01*
X2199920Y-4101280D01*
X2209020Y-4110360D01*
X2209860Y-4111600D01*
X2210180Y-4113039D01*
X2209960Y-4114520D01*
X2209180Y-4116760D01*
X2208900Y-4119220D01*
X2208900Y-4132000D01*
X2232000Y-4132000D01*
X2232000Y-4124100D01*
X2232300Y-4122559D01*
X2233180Y-4121280D01*
X2234460Y-4120400D01*
X2236000Y-4120100D01*
X2264000Y-4120100D01*
X2265520Y-4120400D01*
X2266820Y-4121280D01*
X2267700Y-4122559D01*
X2268000Y-4124100D01*
X2268000Y-4132000D01*
X2291100Y-4132000D01*
X2291100Y-4124100D01*
X2291400Y-4122559D01*
X2292280Y-4121280D01*
X2293560Y-4120400D01*
X2295100Y-4120100D01*
X2409200Y-4120100D01*
X2412340Y-4119800D01*
X2415180Y-4118940D01*
X2417780Y-4117540D01*
X2420220Y-4115539D01*
X2455540Y-4080220D01*
X2457540Y-4077780D01*
X2458940Y-4075179D01*
X2459800Y-4072340D01*
X2460100Y-4069200D01*
X2460100Y-3981120D01*
X2460400Y-3979580D01*
X2461280Y-3978279D01*
X2462580Y-3977420D01*
X2464100Y-3977120D01*
X2465640Y-3977420D01*
X2466940Y-3978279D01*
X2511820Y-4023159D01*
X2512620Y-4024300D01*
X2512980Y-4025640D01*
X2513260Y-4028840D01*
X2514240Y-4032559D01*
X2515880Y-4036040D01*
X2518080Y-4039200D01*
X2520800Y-4041920D01*
X2523960Y-4044120D01*
X2527440Y-4045760D01*
X2531160Y-4046740D01*
X2535000Y-4047080D01*
X2538840Y-4046740D01*
X2542560Y-4045760D01*
X2546040Y-4044120D01*
X2549200Y-4041920D01*
X2551920Y-4039200D01*
X2554120Y-4036040D01*
X2555760Y-4032559D01*
X2556740Y-4028840D01*
X2557080Y-4025000D01*
X2556740Y-4021160D01*
X2555760Y-4017440D01*
X2554120Y-4013960D01*
X2551920Y-4010800D01*
X2549200Y-4008080D01*
X2546040Y-4005880D01*
X2542560Y-4004240D01*
X2538840Y-4003260D01*
X2535660Y-4002980D01*
X2534320Y-4002620D01*
X2533180Y-4001820D01*
X2481280Y-3949920D01*
X2480400Y-3948620D01*
X2480100Y-3947080D01*
X2480100Y-3405200D01*
X2479800Y-3402060D01*
X2478940Y-3399220D01*
X2477540Y-3396620D01*
X2475540Y-3394180D01*
X2320820Y-3239460D01*
X2318380Y-3237460D01*
X2315780Y-3236060D01*
X2312940Y-3235200D01*
X2309800Y-3234900D01*
X2290760Y-3234900D01*
X2289300Y-3234620D01*
X2288060Y-3233840D01*
X2287180Y-3232660D01*
X2285580Y-3229460D01*
X2282600Y-3224980D01*
X2279060Y-3220960D01*
X2274660Y-3217120D01*
X2273680Y-3215840D01*
X2273280Y-3214280D01*
X2273520Y-3212700D01*
X2274380Y-3211340D01*
X2275700Y-3210419D01*
X2277280Y-3210100D01*
X2585899Y-3210100D01*
X2587440Y-3210400D01*
X2588720Y-3211280D01*
X2589600Y-3212559D01*
X2589900Y-3214100D01*
X2589900Y-4185899D01*
X2589600Y-4187440D01*
X2588720Y-4188740D01*
X2587440Y-4189600D01*
X2585899Y-4189900D01*
X2294100Y-4190000D01*
X2292600Y-4189700D01*
X2291340Y-4188880D01*
X2290460Y-4187640D01*
X2290100Y-4186180D01*
X2290320Y-4184680D01*
X2290820Y-4183240D01*
X2291100Y-4180779D01*
X2291100Y-4168000D01*
X2268000Y-4168000D01*
X2268000Y-4186000D01*
X2267700Y-4187540D01*
X2266820Y-4188840D01*
X2265540Y-4189700D01*
X2264000Y-4190000D01*
X2236000Y-4190020D01*
X2234460Y-4189700D01*
X2233180Y-4188840D01*
X2232300Y-4187540D01*
X2232000Y-4186019D01*
X2232000Y-4168000D01*
X2208900Y-4168000D01*
X2208900Y-4180779D01*
X2209180Y-4183240D01*
X2209680Y-4184700D01*
X2209900Y-4186200D01*
X2209560Y-4187679D01*
X2208680Y-4188920D01*
X2207400Y-4189740D01*
X2205920Y-4190020D01*
X2177080Y-4190020D01*
X2175440Y-4189680D01*
X2174080Y-4188660D01*
X2173260Y-4187200D01*
X2173120Y-4185500D01*
X2173680Y-4183920D01*
X2175020Y-4182600D01*
X2179060Y-4179060D01*
X2182600Y-4175020D01*
X2185580Y-4170539D01*
X2187960Y-4165720D01*
X2189700Y-4160640D01*
X2190740Y-4155360D01*
X2191100Y-4150000D01*
X2190740Y-4144640D01*
X2189700Y-4139360D01*
X2187960Y-4134280D01*
X2185580Y-4129460D01*
X2182600Y-4124980D01*
X2179060Y-4120940D01*
X2175020Y-4117400D01*
X2170540Y-4114420D01*
X2165720Y-4112040D01*
X2160640Y-4110299D01*
X2155360Y-4109260D01*
X2150000Y-4108900D01*
X2144640Y-4109260D01*
X2139360Y-4110299D01*
X2134280Y-4112040D01*
X2129460Y-4114420D01*
X2124980Y-4117400D01*
X2120940Y-4120940D01*
X2117400Y-4124980D01*
X2114420Y-4129460D01*
X2112040Y-4134280D01*
X2110300Y-4139360D01*
X2109260Y-4144640D01*
X2108900Y-4150000D01*
X2109260Y-4155360D01*
X2110300Y-4160640D01*
X2112040Y-4165720D01*
X2114420Y-4170539D01*
X2117400Y-4175020D01*
X2120940Y-4179060D01*
X2125160Y-4182720D01*
X2126340Y-4183940D01*
X2126900Y-4185520D01*
X2126760Y-4187200D01*
X2125940Y-4188680D01*
X2124600Y-4189680D01*
X2122940Y-4190040D01*
X2077040Y-4190059D01*
X2075380Y-4189700D01*
X2074040Y-4188700D01*
X2073200Y-4187220D01*
X2073080Y-4185539D01*
X2073640Y-4183940D01*
X2075020Y-4182600D01*
X2079060Y-4179060D01*
X2082600Y-4175020D01*
X2085580Y-4170539D01*
X2087960Y-4165720D01*
X2089700Y-4160640D01*
X2090740Y-4155360D01*
X2091100Y-4150000D01*
X2090740Y-4144640D01*
X2089700Y-4139360D01*
X2087960Y-4134280D01*
X2085580Y-4129460D01*
X2082600Y-4124980D01*
X2079060Y-4120940D01*
X2075020Y-4117400D01*
X2070540Y-4114420D01*
X2065720Y-4112040D01*
X2060640Y-4110299D01*
X2055360Y-4109260D01*
X2050000Y-4108900D01*
X2044640Y-4109260D01*
X2039360Y-4110299D01*
X2034280Y-4112040D01*
X2029460Y-4114420D01*
X2024980Y-4117400D01*
X2020940Y-4120940D01*
X2017400Y-4124980D01*
X2014420Y-4129460D01*
X2012040Y-4134280D01*
X2010300Y-4139360D01*
X2009259Y-4144640D01*
X2008899Y-4150000D01*
X2009259Y-4155360D01*
X2010300Y-4160640D01*
X2012040Y-4165720D01*
X2014420Y-4170539D01*
X2017400Y-4175020D01*
X2020700Y-4178800D01*
X2021519Y-4180299D01*
X2021639Y-4182000D01*
X2021020Y-4183600D01*
X2019820Y-4184800D01*
X2018220Y-4185400D01*
X2016519Y-4185260D01*
X2013120Y-4184220D01*
X2009980Y-4183920D01*
X2006840Y-4184220D01*
X2003820Y-4185140D01*
X2001860Y-4186200D01*
X2000640Y-4186620D01*
X1999319Y-4186620D01*
X1998100Y-4186200D01*
X1996140Y-4185140D01*
X1993120Y-4184220D01*
X1989980Y-4183920D01*
X1986840Y-4184220D01*
X1983460Y-4185260D01*
X1981759Y-4185400D01*
X1980140Y-4184800D01*
X1978940Y-4183600D01*
X1978340Y-4182000D01*
X1978460Y-4180280D01*
X1979280Y-4178800D01*
X1982600Y-4175020D01*
X1985580Y-4170539D01*
X1987960Y-4165720D01*
X1989700Y-4160640D01*
X1990740Y-4155360D01*
X1991100Y-4150000D01*
X1990740Y-4144640D01*
X1989700Y-4139360D01*
X1987960Y-4134280D01*
X1985580Y-4129460D01*
X1982600Y-4124980D01*
X1979060Y-4120940D01*
X1975020Y-4117400D01*
X1970540Y-4114420D01*
X1965720Y-4112040D01*
X1960640Y-4110299D01*
X1955360Y-4109260D01*
X1950000Y-4108900D01*
X1944640Y-4109260D01*
X1939360Y-4110299D01*
X1934280Y-4112040D01*
X1929460Y-4114420D01*
X1924980Y-4117400D01*
X1920940Y-4120940D01*
X1917400Y-4124980D01*
X1914420Y-4129460D01*
X1912040Y-4134280D01*
X1910300Y-4139360D01*
X1909259Y-4144640D01*
X1908899Y-4150000D01*
X1909259Y-4155360D01*
X1910300Y-4160640D01*
X1912040Y-4165720D01*
X1914420Y-4170539D01*
X1917400Y-4175020D01*
X1920940Y-4179060D01*
X1925340Y-4182880D01*
X1926320Y-4184160D01*
X1926720Y-4185720D01*
X1926459Y-4187300D01*
X1925620Y-4188660D01*
X1924300Y-4189580D01*
X1922720Y-4189900D01*
X650240Y-4189900D01*
X647700Y-4190200D01*
X646560Y-4190640D01*
X644920Y-4190899D01*
X643319Y-4190480D01*
X642039Y-4189440D01*
X641380Y-4188620D01*
X638940Y-4186620D01*
X636160Y-4185140D01*
X633140Y-4184220D01*
X630000Y-4183920D01*
X626860Y-4184220D01*
X623840Y-4185140D01*
X621880Y-4186200D01*
X620660Y-4186620D01*
X619340Y-4186620D01*
X618120Y-4186200D01*
X616160Y-4185140D01*
X613140Y-4184220D01*
X610000Y-4183920D01*
X606860Y-4184220D01*
X603840Y-4185140D01*
X601880Y-4186200D01*
X600660Y-4186620D01*
X599340Y-4186620D01*
X598120Y-4186200D01*
X596160Y-4185140D01*
X593140Y-4184220D01*
X590000Y-4183920D01*
X586860Y-4184220D01*
X583840Y-4185140D01*
X581880Y-4186200D01*
X580660Y-4186620D01*
X579340Y-4186620D01*
X578120Y-4186200D01*
X576160Y-4185140D01*
X573140Y-4184220D01*
X570000Y-4183920D01*
X566860Y-4184220D01*
X563840Y-4185140D01*
X561060Y-4186620D01*
X558620Y-4188620D01*
X557980Y-4189420D01*
X556620Y-4190500D01*
G37*

%LPD*%
G36*
X14100Y-5289900D02*
G01*
X12560Y-5289600D01*
X11279Y-5288720D01*
X10400Y-5287440D01*
X10100Y-5285900D01*
X10100Y-4314100D01*
X10400Y-4312560D01*
X11279Y-4311260D01*
X12560Y-4310400D01*
X14100Y-4310100D01*
X549760Y-4309940D01*
X552300Y-4309620D01*
X553340Y-4309220D01*
X554980Y-4308980D01*
X556560Y-4309400D01*
X557860Y-4310420D01*
X558620Y-4311380D01*
X561060Y-4313380D01*
X563840Y-4314860D01*
X566860Y-4315780D01*
X570000Y-4316080D01*
X573140Y-4315780D01*
X576160Y-4314860D01*
X578120Y-4313800D01*
X579340Y-4313380D01*
X580660Y-4313380D01*
X581880Y-4313800D01*
X583840Y-4314860D01*
X586860Y-4315780D01*
X590000Y-4316080D01*
X593140Y-4315780D01*
X596160Y-4314860D01*
X598120Y-4313800D01*
X599340Y-4313380D01*
X600660Y-4313380D01*
X601880Y-4313800D01*
X603840Y-4314860D01*
X606860Y-4315780D01*
X610000Y-4316080D01*
X613140Y-4315780D01*
X616160Y-4314860D01*
X618120Y-4313800D01*
X619340Y-4313380D01*
X620660Y-4313380D01*
X621880Y-4313800D01*
X623840Y-4314860D01*
X626860Y-4315780D01*
X630000Y-4316080D01*
X633140Y-4315780D01*
X636160Y-4314860D01*
X638940Y-4313380D01*
X641380Y-4311380D01*
X642020Y-4310580D01*
X643379Y-4309500D01*
X645060Y-4309100D01*
X647159Y-4309640D01*
X650060Y-4310100D01*
X1905880Y-4310100D01*
X1907360Y-4310380D01*
X1908640Y-4311200D01*
X1909520Y-4312440D01*
X1909860Y-4313920D01*
X1909640Y-4315420D01*
X1909180Y-4316760D01*
X1908899Y-4319220D01*
X1908899Y-4380780D01*
X1909180Y-4383240D01*
X1909920Y-4385380D01*
X1911120Y-4387280D01*
X1912720Y-4388880D01*
X1914620Y-4390080D01*
X1916759Y-4390820D01*
X1919220Y-4391100D01*
X1980780Y-4391100D01*
X1983240Y-4390820D01*
X1985380Y-4390080D01*
X1987280Y-4388880D01*
X1988880Y-4387280D01*
X1990080Y-4385380D01*
X1990820Y-4383240D01*
X1991100Y-4380780D01*
X1991100Y-4319400D01*
X1991459Y-4317740D01*
X1992460Y-4316380D01*
X1993940Y-4315560D01*
X1996279Y-4314860D01*
X1998240Y-4313800D01*
X1999480Y-4313380D01*
X2000780Y-4313380D01*
X2002020Y-4313800D01*
X2003980Y-4314860D01*
X2007000Y-4315780D01*
X2010140Y-4316080D01*
X2013260Y-4315780D01*
X2016500Y-4314800D01*
X2018200Y-4314660D01*
X2019820Y-4315240D01*
X2021020Y-4316460D01*
X2021620Y-4318060D01*
X2021500Y-4319760D01*
X2020680Y-4321260D01*
X2017400Y-4324980D01*
X2014420Y-4329460D01*
X2012040Y-4334280D01*
X2010300Y-4339360D01*
X2009259Y-4344640D01*
X2008899Y-4350000D01*
X2009259Y-4355360D01*
X2010300Y-4360640D01*
X2012040Y-4365720D01*
X2014420Y-4370540D01*
X2017400Y-4375020D01*
X2020940Y-4379060D01*
X2024980Y-4382600D01*
X2029460Y-4385580D01*
X2032660Y-4387180D01*
X2033839Y-4388060D01*
X2034620Y-4389300D01*
X2034900Y-4390760D01*
X2034900Y-4622080D01*
X2034600Y-4623620D01*
X2033720Y-4624920D01*
X1956819Y-4701820D01*
X1955700Y-4702620D01*
X1954340Y-4702980D01*
X1951160Y-4703260D01*
X1947440Y-4704240D01*
X1943959Y-4705880D01*
X1940800Y-4708080D01*
X1938080Y-4710800D01*
X1935880Y-4713960D01*
X1934240Y-4717440D01*
X1933260Y-4721160D01*
X1932980Y-4724340D01*
X1932620Y-4725700D01*
X1931819Y-4726820D01*
X1899920Y-4758720D01*
X1898620Y-4759600D01*
X1897080Y-4759900D01*
X1532680Y-4759900D01*
X1531140Y-4759600D01*
X1529840Y-4758720D01*
X1529199Y-4758080D01*
X1526040Y-4755880D01*
X1522560Y-4754240D01*
X1518839Y-4753260D01*
X1515000Y-4752920D01*
X1511160Y-4753260D01*
X1507440Y-4754240D01*
X1503959Y-4755880D01*
X1500800Y-4758080D01*
X1498080Y-4760800D01*
X1495880Y-4763960D01*
X1494240Y-4767440D01*
X1493260Y-4771160D01*
X1492920Y-4775000D01*
X1493260Y-4778840D01*
X1494240Y-4782560D01*
X1495880Y-4786040D01*
X1498080Y-4789200D01*
X1500800Y-4791920D01*
X1503959Y-4794120D01*
X1507440Y-4795760D01*
X1508880Y-4796140D01*
X1510420Y-4796940D01*
X1511459Y-4798300D01*
X1511840Y-4800000D01*
X1511459Y-4801700D01*
X1510420Y-4803060D01*
X1508880Y-4803860D01*
X1507440Y-4804240D01*
X1503959Y-4805880D01*
X1500800Y-4808080D01*
X1498080Y-4810800D01*
X1495880Y-4813960D01*
X1494240Y-4817440D01*
X1493260Y-4821160D01*
X1492920Y-4825000D01*
X1493260Y-4828840D01*
X1494240Y-4832560D01*
X1495880Y-4836040D01*
X1498080Y-4839200D01*
X1500800Y-4841920D01*
X1503959Y-4844120D01*
X1507440Y-4845760D01*
X1508880Y-4846140D01*
X1510420Y-4846940D01*
X1511459Y-4848300D01*
X1511840Y-4850000D01*
X1511459Y-4851700D01*
X1510420Y-4853060D01*
X1508880Y-4853860D01*
X1507440Y-4854240D01*
X1503959Y-4855880D01*
X1500800Y-4858080D01*
X1498080Y-4860800D01*
X1495880Y-4863960D01*
X1494240Y-4867440D01*
X1493260Y-4871160D01*
X1492920Y-4875000D01*
X1493260Y-4878840D01*
X1494240Y-4882560D01*
X1495880Y-4886040D01*
X1498080Y-4889200D01*
X1500800Y-4891920D01*
X1503959Y-4894120D01*
X1507440Y-4895760D01*
X1511160Y-4896740D01*
X1515000Y-4897080D01*
X1518839Y-4896740D01*
X1522560Y-4895760D01*
X1526040Y-4894120D01*
X1529199Y-4891920D01*
X1529840Y-4891280D01*
X1531140Y-4890400D01*
X1532680Y-4890100D01*
X1899800Y-4890100D01*
X1902940Y-4889800D01*
X1905780Y-4888940D01*
X1908380Y-4887540D01*
X1910820Y-4885540D01*
X2058180Y-4738180D01*
X2059300Y-4737380D01*
X2060660Y-4737020D01*
X2063839Y-4736740D01*
X2067560Y-4735760D01*
X2071040Y-4734120D01*
X2074199Y-4731920D01*
X2076920Y-4729200D01*
X2079120Y-4726040D01*
X2080760Y-4722560D01*
X2081740Y-4718840D01*
X2082020Y-4715660D01*
X2082380Y-4714300D01*
X2083180Y-4713180D01*
X2260540Y-4535820D01*
X2262540Y-4533380D01*
X2263940Y-4530780D01*
X2264800Y-4527940D01*
X2265100Y-4524800D01*
X2265100Y-4390760D01*
X2265380Y-4389300D01*
X2266160Y-4388060D01*
X2267340Y-4387180D01*
X2270540Y-4385580D01*
X2275020Y-4382600D01*
X2279060Y-4379060D01*
X2282600Y-4375020D01*
X2285580Y-4370540D01*
X2287960Y-4365720D01*
X2289700Y-4360640D01*
X2290740Y-4355360D01*
X2291100Y-4350000D01*
X2290740Y-4344640D01*
X2289700Y-4339360D01*
X2287960Y-4334280D01*
X2285580Y-4329460D01*
X2282600Y-4324980D01*
X2279060Y-4320960D01*
X2274660Y-4317120D01*
X2273680Y-4315840D01*
X2273280Y-4314280D01*
X2273520Y-4312700D01*
X2274380Y-4311340D01*
X2275700Y-4310420D01*
X2277280Y-4310100D01*
X2585899Y-4310100D01*
X2587440Y-4310400D01*
X2588720Y-4311280D01*
X2589600Y-4312560D01*
X2589900Y-4314100D01*
X2589900Y-5285900D01*
X2589600Y-5287440D01*
X2588720Y-5288720D01*
X2587440Y-5289600D01*
X2585899Y-5289900D01*
X2294120Y-5289900D01*
X2292640Y-5289620D01*
X2291360Y-5288800D01*
X2290480Y-5287560D01*
X2290140Y-5286079D01*
X2290360Y-5284580D01*
X2290820Y-5283240D01*
X2291100Y-5280780D01*
X2291100Y-5268000D01*
X2268000Y-5268000D01*
X2268000Y-5285900D01*
X2267700Y-5287440D01*
X2266820Y-5288720D01*
X2265540Y-5289600D01*
X2264000Y-5289900D01*
X2236000Y-5289900D01*
X2234460Y-5289600D01*
X2233180Y-5288720D01*
X2232300Y-5287440D01*
X2232000Y-5285900D01*
X2232000Y-5268000D01*
X2208900Y-5268000D01*
X2208900Y-5280780D01*
X2209180Y-5283240D01*
X2209640Y-5284580D01*
X2209860Y-5286079D01*
X2209520Y-5287560D01*
X2208640Y-5288800D01*
X2207360Y-5289620D01*
X2205880Y-5289900D01*
X2177280Y-5289900D01*
X2175700Y-5289580D01*
X2174380Y-5288660D01*
X2173520Y-5287300D01*
X2173280Y-5285720D01*
X2173680Y-5284160D01*
X2174660Y-5282880D01*
X2179060Y-5279040D01*
X2182600Y-5275019D01*
X2185580Y-5270540D01*
X2187960Y-5265720D01*
X2189700Y-5260640D01*
X2190740Y-5255359D01*
X2191100Y-5250000D01*
X2190740Y-5244640D01*
X2189700Y-5239360D01*
X2187960Y-5234280D01*
X2185580Y-5229460D01*
X2182600Y-5224980D01*
X2179060Y-5220940D01*
X2175020Y-5217400D01*
X2170540Y-5214420D01*
X2167340Y-5212820D01*
X2166160Y-5211940D01*
X2165380Y-5210700D01*
X2165100Y-5209240D01*
X2165100Y-5065200D01*
X2164800Y-5062060D01*
X2163940Y-5059220D01*
X2162540Y-5056620D01*
X2160540Y-5054180D01*
X2030820Y-4924460D01*
X2028380Y-4922460D01*
X2025780Y-4921060D01*
X2022940Y-4920200D01*
X2019800Y-4919900D01*
X1202920Y-4919900D01*
X1201380Y-4919600D01*
X1200080Y-4918720D01*
X1108180Y-4826820D01*
X1107380Y-4825700D01*
X1107020Y-4824340D01*
X1106740Y-4821160D01*
X1105760Y-4817440D01*
X1104120Y-4813960D01*
X1101920Y-4810800D01*
X1099200Y-4808080D01*
X1096040Y-4805880D01*
X1092560Y-4804240D01*
X1091120Y-4803860D01*
X1089580Y-4803060D01*
X1088540Y-4801700D01*
X1088160Y-4800000D01*
X1088540Y-4798300D01*
X1089580Y-4796940D01*
X1091120Y-4796140D01*
X1092560Y-4795760D01*
X1096040Y-4794120D01*
X1099200Y-4791920D01*
X1101920Y-4789200D01*
X1104120Y-4786040D01*
X1105760Y-4782560D01*
X1106740Y-4778840D01*
X1107080Y-4775000D01*
X1106740Y-4771160D01*
X1105760Y-4767440D01*
X1104120Y-4763960D01*
X1101920Y-4760800D01*
X1099200Y-4758080D01*
X1096040Y-4755880D01*
X1092560Y-4754240D01*
X1091120Y-4753860D01*
X1089580Y-4753060D01*
X1088540Y-4751700D01*
X1088160Y-4750000D01*
X1088540Y-4748300D01*
X1089580Y-4746940D01*
X1091120Y-4746140D01*
X1092560Y-4745760D01*
X1096040Y-4744120D01*
X1099200Y-4741920D01*
X1099840Y-4741280D01*
X1101140Y-4740400D01*
X1102680Y-4740100D01*
X1809800Y-4740100D01*
X1812940Y-4739800D01*
X1815780Y-4738940D01*
X1818380Y-4737540D01*
X1820820Y-4735540D01*
X1905540Y-4650820D01*
X1907540Y-4648380D01*
X1908940Y-4645780D01*
X1909800Y-4642940D01*
X1910200Y-4641260D01*
X1910980Y-4640140D01*
X1911920Y-4639200D01*
X1914120Y-4636040D01*
X1915760Y-4632560D01*
X1916740Y-4628840D01*
X1917080Y-4625000D01*
X1916740Y-4621160D01*
X1915760Y-4617440D01*
X1914120Y-4613960D01*
X1911920Y-4610800D01*
X1909199Y-4608080D01*
X1906040Y-4605880D01*
X1902560Y-4604240D01*
X1898839Y-4603260D01*
X1895000Y-4602920D01*
X1891160Y-4603260D01*
X1887440Y-4604240D01*
X1883959Y-4605880D01*
X1880800Y-4608080D01*
X1878080Y-4610800D01*
X1875880Y-4613960D01*
X1874240Y-4617440D01*
X1873260Y-4621160D01*
X1872920Y-4625000D01*
X1873260Y-4628840D01*
X1874240Y-4632560D01*
X1875240Y-4634680D01*
X1875620Y-4636260D01*
X1875340Y-4637860D01*
X1874440Y-4639200D01*
X1804920Y-4708720D01*
X1803620Y-4709600D01*
X1802080Y-4709900D01*
X1102680Y-4709900D01*
X1101140Y-4709600D01*
X1099840Y-4708720D01*
X1099200Y-4708080D01*
X1096040Y-4705880D01*
X1092560Y-4704240D01*
X1088840Y-4703260D01*
X1085000Y-4702920D01*
X1081160Y-4703260D01*
X1077440Y-4704240D01*
X1073960Y-4705880D01*
X1070800Y-4708080D01*
X1068080Y-4710800D01*
X1065880Y-4713960D01*
X1064240Y-4717440D01*
X1063260Y-4721160D01*
X1062980Y-4724320D01*
X1062620Y-4725660D01*
X1061820Y-4726800D01*
X1004479Y-4783960D01*
X1002480Y-4786400D01*
X1001080Y-4789000D01*
X1000220Y-4791840D01*
X999900Y-4794980D01*
X999900Y-4854800D01*
X1000200Y-4857940D01*
X1001060Y-4860780D01*
X1002460Y-4863380D01*
X1004460Y-4865820D01*
X1139180Y-5000540D01*
X1141620Y-5002540D01*
X1144220Y-5003940D01*
X1147060Y-5004800D01*
X1150200Y-5005100D01*
X1862080Y-5005100D01*
X1863620Y-5005400D01*
X1864920Y-5006280D01*
X1933720Y-5075080D01*
X1934600Y-5076380D01*
X1934900Y-5077920D01*
X1934900Y-5209240D01*
X1934620Y-5210700D01*
X1933839Y-5211940D01*
X1932660Y-5212820D01*
X1929460Y-5214420D01*
X1924980Y-5217400D01*
X1920940Y-5220940D01*
X1917400Y-5224980D01*
X1914420Y-5229460D01*
X1912040Y-5234280D01*
X1910300Y-5239360D01*
X1909259Y-5244640D01*
X1908899Y-5250000D01*
X1909259Y-5255359D01*
X1910300Y-5260640D01*
X1912040Y-5265720D01*
X1914420Y-5270540D01*
X1917400Y-5275019D01*
X1920940Y-5279040D01*
X1925340Y-5282880D01*
X1926320Y-5284160D01*
X1926720Y-5285720D01*
X1926480Y-5287300D01*
X1925620Y-5288660D01*
X1924300Y-5289580D01*
X1922720Y-5289900D01*
G37*

%LPC*%
G36*
X2268000Y-5232000D02*
G01*
X2291100Y-5232000D01*
X2291100Y-5219220D01*
X2290820Y-5216760D01*
X2290080Y-5214620D01*
X2288880Y-5212720D01*
X2287280Y-5211120D01*
X2285380Y-5209920D01*
X2283240Y-5209180D01*
X2280780Y-5208900D01*
X2268000Y-5208900D01*
G37*
G36*
X2208900Y-5232000D02*
G01*
X2232000Y-5232000D01*
X2232000Y-5208900D01*
X2219220Y-5208900D01*
X2216760Y-5209180D01*
X2214620Y-5209920D01*
X2212720Y-5211120D01*
X2211120Y-5212720D01*
X2209920Y-5214620D01*
X2209180Y-5216760D01*
X2208900Y-5219220D01*
G37*
G36*
X63540Y-4977520D02*
G01*
X63540Y-4957800D01*
X37800Y-4957800D01*
X38300Y-4958920D01*
X40820Y-4963080D01*
X43900Y-4966860D01*
X47460Y-4970180D01*
X51440Y-4972980D01*
X55759Y-4975220D01*
X60340Y-4976860D01*
G37*
G36*
X111840Y-4977520D02*
G01*
X115040Y-4976860D01*
X119620Y-4975220D01*
X123940Y-4972980D01*
X127920Y-4970180D01*
X131480Y-4966860D01*
X134560Y-4963080D01*
X137080Y-4958920D01*
X137580Y-4957800D01*
X111840Y-4957800D01*
G37*
G36*
X111840Y-4927200D02*
G01*
X137580Y-4927200D01*
X137080Y-4926080D01*
X134560Y-4921920D01*
X131480Y-4918140D01*
X127920Y-4914820D01*
X123940Y-4912020D01*
X119620Y-4909780D01*
X115040Y-4908140D01*
X111840Y-4907480D01*
G37*
G36*
X37800Y-4927200D02*
G01*
X63540Y-4927200D01*
X63540Y-4907480D01*
X60340Y-4908140D01*
X55759Y-4909780D01*
X51440Y-4912020D01*
X47460Y-4914820D01*
X43900Y-4918140D01*
X40820Y-4921920D01*
X38300Y-4926080D01*
G37*
G36*
X179680Y-4925960D02*
G01*
X179680Y-4909780D01*
X163500Y-4909780D01*
X165620Y-4913700D01*
X168520Y-4917540D01*
X171920Y-4920940D01*
X175760Y-4923840D01*
G37*
G36*
X208299Y-4925960D02*
G01*
X212220Y-4923840D01*
X216060Y-4920940D01*
X219460Y-4917540D01*
X222360Y-4913700D01*
X224480Y-4909780D01*
X208299Y-4909780D01*
G37*
G36*
X208299Y-4881160D02*
G01*
X224480Y-4881160D01*
X222360Y-4877240D01*
X219460Y-4873400D01*
X216060Y-4870000D01*
X212220Y-4867120D01*
X208299Y-4864980D01*
G37*
G36*
X163500Y-4881160D02*
G01*
X179680Y-4881160D01*
X179680Y-4864980D01*
X175760Y-4867120D01*
X171920Y-4870000D01*
X168520Y-4873400D01*
X165620Y-4877240D01*
G37*
G36*
X208299Y-4735020D02*
G01*
X212220Y-4732880D01*
X216060Y-4730000D01*
X219460Y-4726600D01*
X222360Y-4722760D01*
X224480Y-4718840D01*
X208299Y-4718840D01*
G37*
G36*
X179680Y-4735020D02*
G01*
X179680Y-4718840D01*
X163500Y-4718840D01*
X165620Y-4722760D01*
X168520Y-4726600D01*
X171920Y-4730000D01*
X175760Y-4732880D01*
G37*
G36*
X63540Y-4692520D02*
G01*
X63540Y-4672800D01*
X37800Y-4672800D01*
X38300Y-4673920D01*
X40820Y-4678080D01*
X43900Y-4681860D01*
X47460Y-4685180D01*
X51440Y-4687980D01*
X55759Y-4690220D01*
X60340Y-4691860D01*
G37*
G36*
X111840Y-4692520D02*
G01*
X115040Y-4691860D01*
X119620Y-4690220D01*
X123940Y-4687980D01*
X127920Y-4685180D01*
X131480Y-4681860D01*
X134560Y-4678080D01*
X137080Y-4673920D01*
X137580Y-4672800D01*
X111840Y-4672800D01*
G37*
G36*
X163500Y-4690220D02*
G01*
X179680Y-4690220D01*
X179680Y-4674040D01*
X175760Y-4676160D01*
X171920Y-4679060D01*
X168520Y-4682460D01*
X165620Y-4686300D01*
G37*
G36*
X208299Y-4690220D02*
G01*
X224480Y-4690220D01*
X222360Y-4686300D01*
X219460Y-4682460D01*
X216060Y-4679060D01*
X212220Y-4676160D01*
X208299Y-4674040D01*
G37*
G36*
X37800Y-4642200D02*
G01*
X63540Y-4642200D01*
X63540Y-4622480D01*
X60340Y-4623140D01*
X55759Y-4624780D01*
X51440Y-4627020D01*
X47460Y-4629820D01*
X43900Y-4633140D01*
X40820Y-4636920D01*
X38300Y-4641080D01*
G37*
G36*
X111840Y-4642200D02*
G01*
X137580Y-4642200D01*
X137080Y-4641080D01*
X134560Y-4636920D01*
X131480Y-4633140D01*
X127920Y-4629820D01*
X123940Y-4627020D01*
X119620Y-4624780D01*
X115040Y-4623140D01*
X111840Y-4622480D01*
G37*

%LPD*%
G36*
X932060Y-1751000D02*
G01*
X923660Y-1752500D01*
X923660Y-1767500D01*
X932060Y-1769000D01*
G37*
G36*
X591980Y-1719240D02*
G01*
X579240Y-1731980D01*
X586240Y-1736860D01*
X596860Y-1726240D01*
G37*
G36*
X1107060Y-1776000D02*
G01*
X1098660Y-1777500D01*
X1098660Y-1792500D01*
X1107060Y-1794000D01*
G37*
G36*
X951979Y-1759240D02*
G01*
X939240Y-1771980D01*
X946240Y-1776860D01*
X956860Y-1766240D01*
G37*
G36*
X947940Y-1436000D02*
G01*
X947940Y-1454000D01*
X956340Y-1450000D01*
X956340Y-1440000D01*
G37*
G36*
X1837500Y-1281000D02*
G01*
X1845000Y-1296000D01*
X1855000Y-1296000D01*
X1862500Y-1281000D01*
G37*
G36*
X521980Y-1704920D02*
G01*
X514920Y-1711980D01*
X518020Y-1720760D01*
X530760Y-1708020D01*
G37*
G36*
X312940Y-1541000D02*
G01*
X312940Y-1559000D01*
X321340Y-1555000D01*
X321340Y-1545000D01*
G37*
G36*
X1031000Y-1617940D02*
G01*
X1035000Y-1625000D01*
X1045000Y-1625000D01*
X1049000Y-1617940D01*
G37*
G36*
X1904460Y-1679000D02*
G01*
X1895320Y-1680000D01*
X1892100Y-1690000D01*
X1898959Y-1696140D01*
G37*
G36*
X1917200Y-1681000D02*
G01*
X1917200Y-1699000D01*
X1925600Y-1695000D01*
X1925600Y-1685000D01*
G37*
G36*
X2045000Y-1907800D02*
G01*
X2026759Y-1929500D01*
X2073240Y-1929500D01*
X2055000Y-1907800D01*
G37*
G36*
X1265320Y-1723860D02*
G01*
X1259800Y-1741000D01*
X1268940Y-1740000D01*
X1272160Y-1730000D01*
G37*
G36*
X1845000Y-1907800D02*
G01*
X1826759Y-1929500D01*
X1873240Y-1929500D01*
X1855000Y-1907800D01*
G37*
G36*
X1945000Y-1907800D02*
G01*
X1926759Y-1929500D01*
X1973240Y-1929500D01*
X1955000Y-1907800D01*
G37*
G36*
X1028020Y-1559240D02*
G01*
X1024920Y-1568020D01*
X1031979Y-1575080D01*
X1040759Y-1571980D01*
G37*
G36*
X1028020Y-1559240D02*
G01*
X1024920Y-1568020D01*
X1031979Y-1575080D01*
X1040759Y-1571980D01*
G37*
G36*
X1247060Y-1721000D02*
G01*
X1238660Y-1725000D01*
X1238660Y-1735000D01*
X1247060Y-1739000D01*
G37*
G36*
X782940Y-1436000D02*
G01*
X782940Y-1454000D01*
X791340Y-1450000D01*
X791340Y-1440000D01*
G37*
G36*
X932060Y-1436000D02*
G01*
X923660Y-1440000D01*
X923660Y-1450000D01*
X932060Y-1454000D01*
G37*
G36*
X588020Y-1704920D02*
G01*
X579240Y-1708020D01*
X591980Y-1720760D01*
X595080Y-1711980D01*
G37*
G36*
X932060Y-1436000D02*
G01*
X923660Y-1440000D01*
X923660Y-1450000D01*
X932060Y-1454000D01*
G37*
G36*
X2026759Y-1270500D02*
G01*
X2045000Y-1292200D01*
X2055000Y-1292200D01*
X2073240Y-1270500D01*
G37*
G36*
X1177940Y-1601000D02*
G01*
X1177940Y-1619000D01*
X1186340Y-1615000D01*
X1186340Y-1605000D01*
G37*
G36*
X2126760Y-1270500D02*
G01*
X2145000Y-1292200D01*
X2155000Y-1292200D01*
X2173240Y-1270500D01*
G37*
G36*
X300000Y-1533660D02*
G01*
X296000Y-1542060D01*
X314000Y-1542060D01*
X310000Y-1533660D01*
G37*
G36*
X296000Y-1522940D02*
G01*
X300000Y-1531339D01*
X310000Y-1531339D01*
X314000Y-1522940D01*
G37*
G36*
X537940Y-1711000D02*
G01*
X537940Y-1729000D01*
X546340Y-1725000D01*
X546340Y-1715000D01*
G37*
G36*
X572060Y-1711000D02*
G01*
X563660Y-1715000D01*
X563660Y-1725000D01*
X572060Y-1729000D01*
G37*
G36*
X546980Y-1779240D02*
G01*
X534240Y-1791980D01*
X543020Y-1795080D01*
X550080Y-1788020D01*
G37*
G36*
X1926759Y-1270500D02*
G01*
X1945000Y-1292200D01*
X1955000Y-1292200D01*
X1973240Y-1270500D01*
G37*
G36*
X1177940Y-1551000D02*
G01*
X1177940Y-1569000D01*
X1186340Y-1565000D01*
X1186340Y-1555000D01*
G37*
G36*
X2145000Y-1904000D02*
G01*
X2137500Y-1919000D01*
X2162500Y-1919000D01*
X2155000Y-1904000D01*
G37*
G36*
X1945000Y-107800D02*
G01*
X1926759Y-129500D01*
X1973240Y-129500D01*
X1955000Y-107800D01*
G37*
G36*
X767060Y199000D02*
G01*
X760000Y195000D01*
X760000Y185000D01*
X767060Y181000D01*
G37*
G36*
X2045000Y-107800D02*
G01*
X2026759Y-129500D01*
X2073240Y-129500D01*
X2055000Y-107800D01*
G37*
G36*
X782940Y149000D02*
G01*
X782940Y131000D01*
X791340Y135000D01*
X791340Y145000D01*
G37*
G36*
X2174420Y530900D02*
G01*
X2128000Y528160D01*
X2147500Y507580D01*
X2157500Y508160D01*
G37*
G36*
X1055320Y96140D02*
G01*
X1049800Y79000D01*
X1058940Y80000D01*
X1062160Y90000D01*
G37*
D11*
X2150000Y-1950000D02*
G01*
X2150000Y-1720000D01*
D10*
X2152500Y545000D02*
G01*
X2152500Y315000D01*
X1922500Y85000D01*
X1920000Y85000D01*
X1915000Y80000D01*
X1623760Y80000D01*
X1618760Y85000D01*
X1047500Y85000D01*
X2050000Y-150000D02*
G01*
X2050000Y5000D01*
X1995000Y60000D01*
X1607500Y60000D01*
X1602500Y65000D01*
X975000Y65000D01*
X900000Y140000D01*
X775000Y140000D01*
X1950000Y-150000D02*
G01*
X1950000Y-5000D01*
X1905000Y40000D01*
X1594499Y40000D01*
X1589499Y45000D01*
X770000Y45000D01*
X740000Y75000D01*
X740000Y170000D01*
X760000Y190000D01*
X775000Y190000D01*
X1950000Y1450000D02*
G01*
X1950000Y1295399D01*
X1829600Y1175000D01*
X1155000Y1175000D01*
X1070000Y1090000D01*
X797500Y1145000D02*
G01*
X720000Y1067500D01*
X720000Y970000D01*
X765000Y925000D01*
X1370000Y925000D01*
X1370000Y920000D01*
X1947899Y750000D02*
G01*
X1947899Y865000D01*
X1867899Y945000D01*
X787899Y945000D01*
X742899Y990000D01*
X742899Y1055000D01*
X777899Y1090000D01*
X792899Y1090000D01*
X1375000Y1120000D02*
G01*
X1451499Y1120000D01*
X1451499Y1120000D02*
G01*
X1915000Y1120000D01*
X2025000Y1230000D01*
X1375000Y1090000D02*
G01*
X1360000Y1090000D01*
X1340000Y1110000D01*
X1340000Y1130000D01*
X1360000Y1150000D01*
X1720000Y1150000D01*
X1425000Y1090000D02*
G01*
X1375000Y1090000D01*
X2050000Y1450000D02*
G01*
X2050000Y1095000D01*
X2010000Y1055000D01*
X1085000Y1055000D01*
X1070000Y1040000D01*
X1370000Y920000D02*
G01*
X1822500Y920000D01*
X1852500Y890000D01*
X1852500Y755000D01*
X2235000Y1025000D02*
G01*
X2305000Y1025000D01*
X1900000Y1030000D02*
G01*
X1970000Y1030000D01*
X1560000Y1025000D02*
G01*
X1630000Y1025000D01*
X1935000Y895000D02*
G01*
X1920200Y894800D01*
X925000Y1040000D02*
G01*
X925000Y1015000D01*
X975000Y965000D01*
X1955000Y965000D01*
X2050000Y870000D01*
X2050000Y750000D01*
X1070000Y990000D02*
G01*
X1070000Y1000000D01*
X1685000Y1000000D01*
X1710000Y1025000D01*
X1793301Y1025000D01*
X1813301Y1005000D01*
X2085000Y1005000D01*
X2150000Y1070000D01*
X2150000Y1450000D01*
D11*
X1770000Y995000D02*
G01*
X1780000Y985000D01*
X2050000Y985000D01*
X2080000Y955000D01*
X2085000Y955000D01*
X1720000Y995000D02*
G01*
X1770000Y995000D01*
X2130000Y955000D02*
G01*
X2150000Y935000D01*
X2150000Y750000D01*
D10*
X1045000Y140000D02*
G01*
X1055000Y150000D01*
X1920000Y150000D01*
X2050000Y280000D01*
X2050000Y550000D01*
X1045000Y190000D02*
G01*
X1060000Y175000D01*
X1880000Y175000D01*
X1950000Y245000D01*
X1950000Y550000D01*
X1375000Y20000D02*
G01*
X760000Y20000D01*
X715000Y65000D01*
X715000Y180000D01*
X775000Y240000D01*
X1850000Y-150000D02*
G01*
X1850000Y5000D01*
X1835000Y20000D01*
X1375000Y20000D01*
D11*
X1380000Y330000D02*
G01*
X1340000Y290000D01*
X985000Y290000D01*
X523998Y-566999D02*
G01*
X525900Y-565000D01*
X790000Y-565000D01*
X825000Y-600000D01*
X825000Y-630000D01*
X800000Y-655000D01*
X780000Y-655000D01*
X2355000Y-855000D02*
G01*
X2445000Y-765000D01*
D10*
X1360000Y-855000D02*
G01*
X810000Y-855000D01*
X705000Y-750000D01*
X705000Y-670000D01*
X770000Y-605000D01*
X780000Y-605000D01*
X1950000Y-1050000D02*
G01*
X1950000Y-895000D01*
X1885000Y-830000D01*
X835000Y-830000D01*
X740000Y-735000D01*
X740000Y-685000D01*
X770000Y-655000D01*
X780000Y-655000D01*
X780000Y-705000D02*
G01*
X885000Y-810000D01*
X1965000Y-810000D01*
X2050000Y-895000D01*
X2050000Y-1050000D01*
X1055000Y-755000D02*
G01*
X1955000Y-755000D01*
X2150000Y-560000D01*
X2150000Y-350000D01*
X1055000Y-705000D02*
G01*
X1650000Y-705000D01*
X1680000Y-735000D01*
X1840000Y-735000D01*
X2050000Y-525000D01*
X2050000Y-350000D01*
X1055000Y-655000D02*
G01*
X1845000Y-655000D01*
X1950000Y-550000D01*
X1950000Y-350000D01*
X1850000Y-1050000D02*
G01*
X1850000Y-855000D01*
X1360000Y-855000D01*
D11*
X2090000Y-855000D02*
G01*
X2355000Y-855000D01*
D10*
X2150000Y-4350000D02*
G01*
X2150000Y-4580000D01*
X2008905Y-4721093D01*
X1955000Y-4725000D02*
G01*
X1905000Y-4775000D01*
X1515000Y-4775000D01*
X2050000Y-5250000D02*
G01*
X2050000Y-5060000D01*
X1955000Y-4965000D01*
X1170000Y-4965000D01*
X1045000Y-4840000D01*
X1045000Y-4810000D01*
X1080000Y-4775000D01*
X1085000Y-4775000D01*
X1085000Y-4725000D02*
G01*
X1810000Y-4725000D01*
X1895000Y-4640000D01*
X1895000Y-4625000D01*
X1950000Y-5250000D02*
G01*
X1950000Y-5070000D01*
X1870000Y-4990000D01*
X1150000Y-4990000D01*
X1015000Y-4855000D01*
X1015000Y-4794800D01*
X1085000Y-4725000D01*
X2060000Y-4715000D02*
G01*
X1900000Y-4875000D01*
X1515000Y-4875000D01*
X2250000Y-4350000D02*
G01*
X2250000Y-4525000D01*
X2060000Y-4715000D01*
X2008905Y-4721093D02*
G01*
X1905000Y-4825000D01*
X1515000Y-4825000D01*
X2050000Y-4350000D02*
G01*
X2050000Y-4630000D01*
X1955000Y-4725000D01*
X1085000Y-4825000D02*
G01*
X1195000Y-4935000D01*
X2020000Y-4935000D01*
X2150000Y-5065000D01*
X2150000Y-5250000D01*
X440001Y-4025000D02*
G01*
X2105002Y-4025000D01*
X2115002Y-4015000D01*
X2300002Y-4015000D01*
X2320002Y-3995000D01*
X2320002Y-3600000D01*
X2295002Y-3625000D02*
G01*
X2295002Y-3990000D01*
X2290002Y-3995000D01*
X2095002Y-3995000D01*
X1480002Y-4080000D02*
G01*
X1480002Y-4085000D01*
X1751003Y-4085000D01*
X1776003Y-4060000D01*
X2103302Y-4060000D01*
X2108302Y-4065000D01*
X2215099Y-4065000D01*
X2235099Y-4085000D01*
X2405002Y-4085000D01*
X2420002Y-4070000D01*
X2420002Y-3775000D01*
X155001Y-3975000D02*
G01*
X285001Y-4105000D01*
X1762204Y-4105000D01*
X1791202Y-4076100D01*
X2081099Y-4076100D01*
X2090002Y-4085000D01*
X2205002Y-4085000D01*
X2225002Y-4105000D01*
X2409400Y-4105000D01*
X2445002Y-4069398D01*
X2445002Y-3435000D01*
X2435002Y-3425000D01*
X2345002Y-3925000D02*
G01*
X2345002Y-4010000D01*
X2320002Y-4035000D01*
X2130002Y-4035000D01*
X2130002Y-4040000D01*
X2535002Y-4025000D02*
G01*
X2465002Y-3955000D01*
X2465002Y-3405000D01*
X2310002Y-3250000D01*
X2250002Y-3250000D01*
X2135002Y-3390000D02*
G01*
X2140002Y-3395000D01*
X2370002Y-3395000D01*
X2420002Y-3445000D01*
X2420002Y-3610000D01*
X2405002Y-3625000D01*
X2275002Y-3495000D01*
X2240002Y-3495000D01*
X2240002Y-3850000D01*
X2235002Y-3850000D01*
X2265002Y-3525000D02*
G01*
X2270002Y-3525000D01*
X2270002Y-3865000D01*
X2235002Y-3900000D01*
X2100002Y-3900000D01*
X2435002Y-3425000D02*
G01*
X2365002Y-3355000D01*
X2255002Y-3355000D01*
X2150002Y-3250000D01*
X2395002Y-3470000D02*
G01*
X2375002Y-3450000D01*
X1905002Y-3450000D01*
X1634693Y-3923270D02*
G01*
X2218272Y-3923270D01*
X2265002Y-3970000D01*
X2050002Y-3250000D02*
G01*
X2050002Y-3270000D01*
X2010002Y-3310000D01*
X1674079Y-3310000D01*
X1629079Y-3265000D01*
X265001Y-4035000D02*
G01*
X230001Y-3999502D01*
X230001Y-3750000D01*
X155001Y-3675000D01*
X240001Y-3725000D02*
G01*
X160001Y-3645000D01*
X160001Y-3410000D01*
X2100002Y-3950000D02*
G01*
X360001Y-3950000D01*
X285001Y-3875000D01*
X285001Y-3510000D01*
X235001Y-3460000D01*
X235001Y-3440000D01*
X2100002Y-3600000D02*
G01*
X2150002Y-3650000D01*
X2150002Y-3705000D01*
X2100002Y-3755000D01*
X155001Y-3725000D02*
G01*
X155001Y-3880000D01*
X195001Y-3920000D01*
X600001Y-4000000D02*
G01*
X500001Y-4000000D01*
X600001Y-3700000D02*
G01*
X500001Y-3700000D01*
X600001Y-3800000D02*
G01*
X535001Y-3800000D01*
X485001Y-3850000D01*
X350001Y-3850000D01*
X330001Y-3830000D01*
X330001Y-3600000D01*
X355001Y-3575000D01*
X600001Y-3400000D02*
G01*
X600001Y-3440000D01*
X490001Y-3550000D01*
X335001Y-3550000D01*
X305001Y-3580000D01*
X305001Y-3840000D01*
X360001Y-3895000D01*
X600001Y-3500000D02*
G01*
X500001Y-3600000D01*
X385001Y-3600000D01*
X360001Y-3625000D01*
X360001Y-3825000D01*
X600001Y-3300000D02*
G01*
X500001Y-3400000D01*
X500001Y-3415000D01*
X600001Y-3600000D02*
G01*
X575001Y-3625000D01*
X500001Y-3625000D01*
X600001Y-3900000D02*
G01*
X500001Y-3900000D01*
X1300002Y-4000000D02*
G01*
X600001Y-4000000D01*
X1300002Y-3900000D02*
G01*
X600001Y-3900000D01*
X1300002Y-3800000D02*
G01*
X600001Y-3800000D01*
X1300002Y-3700000D02*
G01*
X600001Y-3700000D01*
X1300002Y-3600000D02*
G01*
X600001Y-3600000D01*
X1300002Y-3500000D02*
G01*
X600001Y-3500000D01*
X1300002Y-3400000D02*
G01*
X600001Y-3400000D01*
X1300002Y-3300000D02*
G01*
X600001Y-3300000D01*
X1400002Y-3400000D02*
G01*
X2090002Y-3400000D01*
X1400002Y-3500000D02*
G01*
X2100002Y-3500000D01*
X1400002Y-3600000D02*
G01*
X2100002Y-3600000D01*
X1400002Y-3700000D02*
G01*
X2085002Y-3700000D01*
X1400002Y-3800000D02*
G01*
X2100002Y-3800000D01*
X1400002Y-3900000D02*
G01*
X2100002Y-3900000D01*
X1400002Y-4000000D02*
G01*
X1405002Y-3995000D01*
X2095002Y-3995000D01*
X2200002Y-3365000D02*
G01*
X1710002Y-3365000D01*
X1700002Y-3355000D01*
X2180002Y-3330000D02*
G01*
X1525002Y-3330000D01*
X1500002Y-3355000D01*
X1300002Y-3455000D02*
G01*
X1320002Y-3475000D01*
X2290002Y-3475000D01*
X2375002Y-3560000D01*
D11*
X260001Y-3230000D02*
G01*
X215001Y-3230000D01*
X2100002Y-3655000D02*
G01*
X2095002Y-3660000D01*
X500001Y-3660000D01*
X2365002Y-4035000D02*
G01*
X2375002Y-4025000D01*
X2375002Y-3725000D01*
D10*
X2370002Y-3675000D02*
G01*
X2395002Y-3700000D01*
X2395002Y-4050000D01*
X2385002Y-4060000D01*
X2255002Y-4060000D01*
X440001Y-4025000D02*
G01*
X395001Y-4025000D01*
X265001Y-3895000D01*
X265001Y-3530000D01*
X210001Y-3475000D01*
X210001Y-3415000D01*
X360001Y-3265000D01*
X1629102Y-3265000D01*
D11*
X240001Y-3615000D02*
G01*
X190001Y-3565000D01*
X190001Y-3255000D01*
X215001Y-3230000D01*
X1950002Y-3250000D02*
G01*
X1930002Y-3230000D01*
X260001Y-3230000D01*
D10*
X2150000Y-2150000D02*
G01*
X1875000Y-2425000D01*
X915000Y-2425000D01*
X485000Y-2325000D02*
G01*
X415000Y-2395000D01*
X415000Y-2450000D01*
X745000Y-2780000D01*
X1840000Y-2780000D01*
X1840000Y-2780000D02*
G01*
X1845000Y-2780000D01*
X1950000Y-2885000D01*
X1950000Y-3050000D01*
X2050000Y-3050000D02*
G01*
X2050000Y-2910000D01*
X1950693Y-2810693D01*
X1950693Y-2810693D02*
G01*
X1865000Y-2725000D01*
X735000Y-2725000D01*
X445000Y-2435000D01*
X445000Y-2415000D01*
X485000Y-2375000D01*
X485000Y-2425000D02*
G01*
X745000Y-2685000D01*
X1895000Y-2685000D01*
X2150000Y-3050000D02*
G01*
X2150000Y-2939636D01*
X2021337Y-2810974D01*
X2021337Y-2810974D02*
G01*
X1895366Y-2685000D01*
X2050000Y-2150000D02*
G01*
X1825000Y-2375000D01*
X915000Y-2375000D01*
X2250000Y-2150000D02*
G01*
X1925000Y-2475000D01*
X915000Y-2475000D01*
X535000Y-1780000D02*
G01*
X570000Y-1815000D01*
X1810000Y-1815000D01*
X1810000Y-1835000D01*
X420000Y-1835000D01*
X275000Y-1690000D01*
X275000Y-1510000D01*
X420000Y-1365000D01*
X1825000Y-1365000D01*
X1825000Y-1385000D01*
X430000Y-1385000D01*
X330000Y-1485000D01*
X330000Y-1490000D01*
X342500Y-1502500D01*
X440000Y-1405000D01*
X1805000Y-1405000D01*
X1805000Y-1425000D01*
X980000Y-1425000D01*
X1170000Y-1660000D02*
G01*
X1905000Y-1660000D01*
X2150000Y-1415000D01*
X2150000Y-1250000D01*
X980000Y-1645000D02*
G01*
X1065000Y-1730000D01*
X1255000Y-1730000D01*
X1420564Y-1710000D02*
G01*
X1870000Y-1710000D01*
X1950000Y-1790000D01*
X1950000Y-1950000D01*
X1040000Y-1560000D02*
G01*
X1010000Y-1590000D01*
X1010000Y-1640000D01*
X1075000Y-1705000D01*
X1420600Y-1705000D01*
X1420600Y-1710000D01*
X980000Y-1645000D02*
G01*
X980000Y-1565000D01*
X1035000Y-1510000D01*
X1040000Y-1510000D01*
X1659565Y-1610000D02*
G01*
X1885000Y-1610000D01*
X2050000Y-1445000D01*
X2050000Y-1250000D01*
X1170000Y-1610000D02*
G01*
X1659565Y-1610000D01*
X1909300Y-1690000D02*
G01*
X1904300Y-1685000D01*
X1100000Y-1685000D01*
X1040000Y-1625000D01*
X1040000Y-1610000D01*
X2050000Y-1950000D02*
G01*
X2050000Y-1775000D01*
X1965000Y-1690000D01*
X1909300Y-1690000D01*
X1850000Y-1950000D02*
G01*
X1850000Y-1815000D01*
X1770000Y-1735000D01*
X1255000Y-1735000D01*
X1255000Y-1730000D01*
D11*
X1850000Y-1250000D02*
G01*
X1850000Y-1415000D01*
X1820000Y-1445000D01*
X940000Y-1445000D01*
X580000Y-1720000D02*
G01*
X855000Y-1445000D01*
X940000Y-1445000D01*
X305000Y-1515000D02*
G01*
X305000Y-1550000D01*
X580000Y-1720000D02*
G01*
X530000Y-1720000D01*
X580000Y-1720000D02*
G01*
X620000Y-1760000D01*
X940000Y-1760000D01*
D10*
X1950000Y-1250000D02*
G01*
X1950000Y-1480000D01*
X1870000Y-1560000D01*
X1170000Y-1560000D01*
D11*
X305000Y-1550000D02*
G01*
X360000Y-1550000D01*
X530000Y-1720000D01*
X940000Y-1760000D02*
G01*
X965000Y-1785000D01*
X1115000Y-1785000D01*
X775000Y-1445000D02*
G01*
X940000Y-1445000D01*
G36*
X2403999Y1030999D02*
G01*
X2466000Y1030999D01*
X2466000Y969000D01*
X2403999Y969000D01*
G37*
D41*
G01*
X2435000Y1100000D03*
D42*
G01*
X2435000Y1200000D03*
D43*
G01*
X193989Y1195470D03*
G01*
X193989Y1004529D03*
G01*
X193989Y-604529D03*
G01*
X193989Y-795470D03*
G01*
X193989Y-1504529D03*
G01*
X193989Y-1695470D03*
G01*
X193989Y-4704530D03*
G01*
X193989Y-4895470D03*
G01*
X193989Y-2504529D03*
G01*
X193989Y-2695470D03*
D44*
G01*
X2445000Y-865000D03*
D45*
G01*
X2445000Y-765000D03*
G36*
X480999Y-641149D02*
G01*
X566900Y-641149D01*
X566900Y-688850D01*
X480999Y-688850D01*
G37*
G36*
X480999Y-739149D02*
G01*
X566900Y-739149D01*
X566900Y-786849D01*
X480999Y-786849D01*
G37*
G36*
X480999Y-543150D02*
G01*
X566900Y-543150D01*
X566900Y-590850D01*
X480999Y-590850D01*
G37*
G36*
X2281000Y-3019000D02*
G01*
X2218999Y-3019000D01*
X2218999Y-3080999D01*
X2281000Y-3080999D01*
G37*
D41*
G01*
X2150000Y-3050000D03*
G01*
X2050000Y-3050000D03*
G01*
X1950000Y-3050000D03*
G36*
X1918999Y-2180999D02*
G01*
X1981000Y-2180999D01*
X1981000Y-2119000D01*
X1918999Y-2119000D01*
G37*
G01*
X2050000Y-2150000D03*
G01*
X2150000Y-2150000D03*
G01*
X2250000Y-2150000D03*
G36*
X2281000Y-4119000D02*
G01*
X2218999Y-4119000D01*
X2218999Y-4181001D01*
X2281000Y-4181001D01*
G37*
G01*
X2150000Y-4150000D03*
G01*
X2050000Y-4150000D03*
G01*
X1950000Y-4150000D03*
G36*
X1918999Y-3281001D02*
G01*
X1981000Y-3281001D01*
X1981000Y-3219000D01*
X1918999Y-3219000D01*
G37*
G01*
X2050000Y-3250000D03*
G01*
X2150000Y-3250000D03*
G01*
X2250000Y-3250000D03*
G36*
X1818999Y-1280999D02*
G01*
X1881000Y-1280999D01*
X1881000Y-1219000D01*
X1818999Y-1219000D01*
G37*
G01*
X1950000Y-1250000D03*
G01*
X2050000Y-1250000D03*
G01*
X2150000Y-1250000D03*
G36*
X2181000Y-1919000D02*
G01*
X2118999Y-1919000D01*
X2118999Y-1980999D01*
X2181000Y-1980999D01*
G37*
G01*
X2050000Y-1950000D03*
G01*
X1950000Y-1950000D03*
G01*
X1850000Y-1950000D03*
G36*
X1918999Y-4380999D02*
G01*
X1981000Y-4380999D01*
X1981000Y-4319000D01*
X1918999Y-4319000D01*
G37*
G01*
X2050000Y-4350000D03*
G01*
X2150000Y-4350000D03*
G01*
X2250000Y-4350000D03*
G36*
X2281000Y-5219000D02*
G01*
X2218999Y-5219000D01*
X2218999Y-5280999D01*
X2281000Y-5280999D01*
G37*
G01*
X2150000Y-5250000D03*
G01*
X2050000Y-5250000D03*
G01*
X1950000Y-5250000D03*
G36*
X1818999Y519000D02*
G01*
X1881000Y519000D01*
X1881000Y580999D01*
X1818999Y580999D01*
G37*
G01*
X1950000Y550000D03*
G01*
X2050000Y550000D03*
G01*
X2150000Y550000D03*
G36*
X2181000Y-119000D02*
G01*
X2118999Y-119000D01*
X2118999Y-180999D01*
X2181000Y-180999D01*
G37*
G01*
X2050000Y-150000D03*
G01*
X1950000Y-150000D03*
G01*
X1850000Y-150000D03*
G36*
X2181000Y780999D02*
G01*
X2118999Y780999D01*
X2118999Y719000D01*
X2181000Y719000D01*
G37*
G01*
X2050000Y750000D03*
G01*
X1950000Y750000D03*
G01*
X1850000Y750000D03*
G36*
X1818999Y1419000D02*
G01*
X1881000Y1419000D01*
X1881000Y1480999D01*
X1818999Y1480999D01*
G37*
G01*
X1950000Y1450000D03*
G01*
X2050000Y1450000D03*
G01*
X2150000Y1450000D03*
G36*
X2181000Y-1019000D02*
G01*
X2118999Y-1019000D01*
X2118999Y-1080999D01*
X2181000Y-1080999D01*
G37*
G01*
X2050000Y-1050000D03*
G01*
X1950000Y-1050000D03*
G01*
X1850000Y-1050000D03*
G36*
X1818999Y-380999D02*
G01*
X1881000Y-380999D01*
X1881000Y-319000D01*
X1818999Y-319000D01*
G37*
G01*
X1950000Y-350000D03*
G01*
X2050000Y-350000D03*
G01*
X2150000Y-350000D03*
D15*
G01*
X1290000Y-1475000D03*
G01*
X305000Y-1515000D03*
G01*
X305000Y-1550000D03*
G01*
X1875000Y-2425000D03*
G01*
X160000Y-3410000D03*
G01*
X240000Y-3725000D03*
G01*
X1840000Y-2780000D03*
G01*
X1950690Y-2810689D03*
G01*
X2021340Y-2810970D03*
G01*
X915000Y-2475000D03*
G01*
X915000Y-2425000D03*
G01*
X915000Y-2375000D03*
G01*
X485000Y-2325000D03*
G01*
X485000Y-2375000D03*
G01*
X485000Y-2425000D03*
G01*
X2100000Y-3950000D03*
G01*
X235000Y-3440000D03*
G01*
X155000Y-3975000D03*
G01*
X2435000Y-3425000D03*
G01*
X2345000Y-3925000D03*
G01*
X2130000Y-4040000D03*
G01*
X2395000Y-3470000D03*
G01*
X2420000Y-3775000D03*
G01*
X2375000Y-3560000D03*
G01*
X2295000Y-3625000D03*
G01*
X2265000Y-3525000D03*
G01*
X2100000Y-3755000D03*
G01*
X2235000Y-3850000D03*
G01*
X265000Y-4035000D03*
G01*
X195000Y-3920000D03*
G01*
X155000Y-3725000D03*
G01*
X155000Y-3675000D03*
G01*
X500000Y-4000000D03*
G01*
X500000Y-3415000D03*
G01*
X355000Y-3575000D03*
G01*
X360000Y-3895000D03*
G01*
X360000Y-3825000D03*
G01*
X500000Y-3625000D03*
G01*
X500000Y-3700000D03*
G01*
X500000Y-3900000D03*
G01*
X1300000Y-3300000D03*
G01*
X1200000Y-3300000D03*
G01*
X1100000Y-3300000D03*
G01*
X1000000Y-3300000D03*
G01*
X900000Y-3300000D03*
G01*
X800000Y-3300000D03*
G01*
X700000Y-3300000D03*
G01*
X600000Y-3300000D03*
G01*
X600000Y-3400000D03*
G01*
X700000Y-3400000D03*
G01*
X800000Y-3400000D03*
G01*
X900000Y-3400000D03*
G01*
X1000000Y-3400000D03*
G01*
X1100000Y-3400000D03*
G01*
X1200000Y-3400000D03*
G01*
X1300000Y-3400000D03*
G01*
X1300000Y-3500000D03*
G01*
X1200000Y-3500000D03*
G01*
X1100000Y-3500000D03*
G01*
X1000000Y-3500000D03*
G01*
X900000Y-3500000D03*
G01*
X800000Y-3500000D03*
G01*
X700000Y-3500000D03*
G01*
X600000Y-3500000D03*
G01*
X600000Y-3600000D03*
G01*
X700000Y-3600000D03*
G01*
X800000Y-3600000D03*
G01*
X900000Y-3600000D03*
G01*
X1000000Y-3600000D03*
G01*
X1100000Y-3600000D03*
G01*
X1200000Y-3600000D03*
G01*
X1300000Y-3600000D03*
G01*
X1200000Y-3700000D03*
G01*
X1100000Y-3700000D03*
G01*
X1000000Y-3700000D03*
G01*
X900000Y-3700000D03*
G01*
X800000Y-3700000D03*
G01*
X700000Y-3700000D03*
G01*
X600000Y-3700000D03*
G01*
X600000Y-3800000D03*
G01*
X700000Y-3800000D03*
G01*
X800000Y-3800000D03*
G01*
X900000Y-3800000D03*
G01*
X1000000Y-3800000D03*
G01*
X1100000Y-3800000D03*
G01*
X1200000Y-3800000D03*
G01*
X1200000Y-3900000D03*
G01*
X1100000Y-3900000D03*
G01*
X1000000Y-3900000D03*
G01*
X900000Y-3900000D03*
G01*
X800000Y-3900000D03*
G01*
X700000Y-3900000D03*
G01*
X600000Y-3900000D03*
G01*
X600000Y-4000000D03*
G01*
X700000Y-4000000D03*
G01*
X800000Y-4000000D03*
G01*
X900000Y-4000000D03*
G01*
X1000000Y-4000000D03*
G01*
X1100000Y-4000000D03*
G01*
X1200000Y-4000000D03*
G01*
X1400000Y-3400000D03*
G01*
X1500000Y-3400000D03*
G01*
X1600000Y-3400000D03*
G01*
X1700000Y-3400000D03*
G01*
X1800000Y-3400000D03*
G01*
X1900000Y-3400000D03*
G01*
X2000000Y-3400000D03*
G01*
X2090000Y-3400000D03*
G01*
X2100000Y-3500000D03*
G01*
X2000000Y-3500000D03*
G01*
X1900000Y-3500000D03*
G01*
X1800000Y-3500000D03*
G01*
X1700000Y-3500000D03*
G01*
X1600000Y-3500000D03*
G01*
X1500000Y-3500000D03*
G01*
X1400000Y-3500000D03*
G01*
X1400000Y-3600000D03*
G01*
X1500000Y-3600000D03*
G01*
X1600000Y-3600000D03*
G01*
X1700000Y-3600000D03*
G01*
X1800000Y-3600000D03*
G01*
X1900000Y-3600000D03*
G01*
X2000000Y-3600000D03*
G01*
X2100000Y-3600000D03*
G01*
X2085000Y-3700000D03*
G01*
X2100000Y-3800000D03*
G01*
X2000000Y-3800000D03*
G01*
X2000000Y-3700000D03*
G01*
X1900000Y-3700000D03*
G01*
X1900000Y-3800000D03*
G01*
X1800000Y-3800000D03*
G01*
X1800000Y-3700000D03*
G01*
X1700000Y-3700000D03*
G01*
X1700000Y-3800000D03*
G01*
X1600000Y-3800000D03*
G01*
X1600000Y-3700000D03*
G01*
X1500000Y-3700000D03*
G01*
X1500000Y-3800000D03*
G01*
X1400000Y-3800000D03*
G01*
X1400000Y-3700000D03*
G01*
X1300000Y-3700000D03*
G01*
X1300000Y-3800000D03*
G01*
X1300000Y-3900000D03*
G01*
X1400000Y-3900000D03*
G01*
X1500000Y-3900000D03*
G01*
X1600000Y-3900000D03*
G01*
X1700000Y-3900000D03*
G01*
X1800000Y-3900000D03*
G01*
X1900000Y-3900000D03*
G01*
X2000000Y-3900000D03*
G01*
X2100000Y-3900000D03*
G01*
X1300000Y-4000000D03*
G01*
X1400000Y-4000000D03*
G01*
X1500000Y-4000000D03*
G01*
X1600000Y-4000000D03*
G01*
X1700000Y-4000000D03*
G01*
X1800000Y-4000000D03*
G01*
X1900000Y-4000000D03*
G01*
X2000000Y-4000000D03*
G01*
X2095000Y-3995000D03*
G01*
X1115000Y-1785000D03*
G01*
X940000Y-1760000D03*
G01*
X530000Y-1560000D03*
G01*
X940000Y-1445000D03*
G01*
X775000Y-1445000D03*
G01*
X580000Y-1720000D03*
G01*
X530000Y-1720000D03*
G01*
X1420559Y-1710000D03*
G01*
X1659570Y-1610000D03*
G01*
X535000Y-1780000D03*
G01*
X1909269Y-1690000D03*
G01*
X1255000Y-1730000D03*
G01*
X1170000Y-1660000D03*
G01*
X1170000Y-1610000D03*
G01*
X1170000Y-1560000D03*
G01*
X1040000Y-1610000D03*
G01*
X1040000Y-1560000D03*
G01*
X1040000Y-1510000D03*
G01*
X1451499Y1120000D03*
G01*
X1455000Y120000D03*
G01*
X1770000Y995000D03*
G01*
X1720000Y995000D03*
G01*
X2130000Y955000D03*
G01*
X2085000Y955000D03*
G01*
X1165000Y900000D03*
G01*
X1425000Y1090000D03*
G01*
X1720000Y1150000D03*
G01*
X1375000Y1090000D03*
G01*
X1375000Y1120000D03*
G01*
X2025000Y1230000D03*
G01*
X1370000Y920000D03*
G01*
X1935000Y895000D03*
G01*
X1630000Y1025000D03*
G01*
X1560000Y1025000D03*
G01*
X1970000Y1030000D03*
G01*
X1900000Y1030000D03*
G01*
X2235000Y1025000D03*
G01*
X2305000Y1025000D03*
G01*
X1070000Y990000D03*
G01*
X1070000Y1040000D03*
G01*
X1070000Y1090000D03*
G01*
X925000Y1040000D03*
G01*
X795000Y1090000D03*
G01*
X797500Y1145000D03*
G01*
X775000Y140000D03*
G01*
X775000Y190000D03*
G01*
X775000Y240000D03*
G01*
X1045000Y90000D03*
G01*
X1045000Y140000D03*
G01*
X1045000Y190000D03*
G01*
X1375000Y20000D03*
G01*
X1380000Y330000D03*
G01*
X985000Y290000D03*
G01*
X780000Y-605000D03*
G01*
X780000Y-655000D03*
G01*
X780000Y-705000D03*
G01*
X1055000Y-655000D03*
G01*
X1055000Y-705000D03*
G01*
X1055000Y-755000D03*
G01*
X1360000Y-855000D03*
G01*
X2090000Y-855000D03*
G01*
X2355000Y-855000D03*
G01*
X1515000Y-4875000D03*
G01*
X1515000Y-4825000D03*
G01*
X1515000Y-4775000D03*
G01*
X1085000Y-4725000D03*
G01*
X1085000Y-4775000D03*
G01*
X1085000Y-4825000D03*
G01*
X1955000Y-4725000D03*
G01*
X2008909Y-4721089D03*
G01*
X2060000Y-4715000D03*
G01*
X1895000Y-4625000D03*
G01*
X1700000Y-3355000D03*
G01*
X2200000Y-3365000D03*
G01*
X1500000Y-3355000D03*
G01*
X2180000Y-3330000D03*
G01*
X1300000Y-3455000D03*
G01*
X1905000Y-3450000D03*
G01*
X2535000Y-4025000D03*
G01*
X440000Y-4025000D03*
G01*
X2320000Y-3600000D03*
G01*
X2265000Y-3970000D03*
G01*
X1634690Y-3923270D03*
G01*
X1480000Y-4080000D03*
G01*
X2135000Y-3390000D03*
G01*
X2100000Y-3655000D03*
G01*
X500000Y-3660000D03*
G01*
X260000Y-3230000D03*
G01*
X215000Y-3230000D03*
G01*
X240000Y-3615000D03*
G01*
X2360000Y-4035000D03*
G01*
X2370000Y-3725000D03*
G01*
X2370000Y-3675000D03*
G01*
X2255000Y-4060000D03*
G01*
X2505000Y-3290000D03*
G01*
X2535000Y-4125000D03*
G01*
X1285000Y-4140000D03*
G01*
X95000Y-4120000D03*
G01*
X120000Y-3850000D03*
G01*
X120000Y-3800000D03*
G01*
X120000Y-3600000D03*
G01*
X120000Y-3550000D03*
G01*
X2490000Y-3550000D03*
G01*
X2490000Y-3600000D03*
G01*
X2490000Y-3800000D03*
G01*
X2490000Y-3850000D03*
G01*
X80000Y-3285000D03*
G01*
X42100Y-4341930D03*
G01*
X42100Y-4491930D03*
G01*
X42100Y-5091930D03*
G01*
X42100Y-5241930D03*
G01*
X192100Y-4341930D03*
G01*
X192100Y-4491930D03*
G01*
X192100Y-4641930D03*
G01*
X192100Y-5091930D03*
G01*
X192100Y-5241930D03*
G01*
X342100Y-4341930D03*
G01*
X342100Y-4491930D03*
G01*
X342100Y-4641930D03*
G01*
X342100Y-4791930D03*
G01*
X342100Y-4941930D03*
G01*
X342100Y-5091930D03*
G01*
X342100Y-5241930D03*
G01*
X492100Y-4341930D03*
G01*
X492100Y-4491930D03*
G01*
X492100Y-4641930D03*
G01*
X492100Y-4941930D03*
G01*
X492100Y-5091930D03*
G01*
X492100Y-5241930D03*
G01*
X642100Y-4341930D03*
G01*
X642100Y-4491930D03*
G01*
X642100Y-4641930D03*
G01*
X642100Y-4791930D03*
G01*
X642100Y-5091930D03*
G01*
X642100Y-5241930D03*
G01*
X792100Y-4341930D03*
G01*
X792100Y-4491930D03*
G01*
X792100Y-4641930D03*
G01*
X792100Y-5241930D03*
G01*
X942100Y-4341930D03*
G01*
X942100Y-5091930D03*
G01*
X942100Y-5241930D03*
G01*
X1092100Y-4341930D03*
G01*
X1542100Y-4341930D03*
G01*
X1692100Y-4341930D03*
G01*
X1692100Y-5241930D03*
G01*
X1842100Y-4341930D03*
G01*
X1842100Y-5091930D03*
G01*
X1842100Y-5241930D03*
G01*
X2292100Y-4641930D03*
G01*
X2292100Y-4791930D03*
G01*
X2292100Y-5091930D03*
G01*
X2442100Y-4341930D03*
G01*
X2442100Y-4491930D03*
G01*
X2442100Y-4641930D03*
G01*
X2442100Y-4941930D03*
G01*
X2442100Y-5091930D03*
G01*
X2442100Y-5241930D03*
G01*
X1342899Y1270399D03*
G01*
X665700Y1125689D03*
G01*
X607199Y975689D03*
G01*
X2155850Y970399D03*
G01*
X52100Y1447899D03*
G01*
X52100Y1297899D03*
G01*
X52100Y847899D03*
G01*
X202100Y1447899D03*
G01*
X202100Y1297899D03*
G01*
X202100Y847899D03*
G01*
X352100Y1447899D03*
G01*
X352100Y1297899D03*
G01*
X352100Y1147899D03*
G01*
X352100Y847899D03*
G01*
X502100Y1447899D03*
G01*
X502100Y1297899D03*
G01*
X502100Y847899D03*
G01*
X652100Y1447899D03*
G01*
X652100Y1297899D03*
G01*
X652100Y847899D03*
G01*
X802100Y1447899D03*
G01*
X802100Y1297899D03*
G01*
X802100Y847899D03*
G01*
X952100Y1447899D03*
G01*
X952100Y1297899D03*
G01*
X952100Y1147899D03*
G01*
X952100Y847899D03*
G01*
X1102100Y1447899D03*
G01*
X1102100Y1297899D03*
G01*
X1252100Y1447899D03*
G01*
X1402100Y1447899D03*
G01*
X1402100Y847899D03*
G01*
X1552100Y1447899D03*
G01*
X1552100Y847899D03*
G01*
X1702100Y1447899D03*
G01*
X1702100Y847899D03*
G01*
X2302100Y1447899D03*
G01*
X2302100Y1297899D03*
G01*
X2452100Y1447899D03*
G01*
X2452100Y1297899D03*
G01*
X2452100Y847899D03*
G01*
X52100Y553240D03*
G01*
X52100Y253240D03*
G01*
X52100Y103240D03*
G01*
X202100Y553240D03*
G01*
X352100Y553240D03*
G01*
X352100Y403240D03*
G01*
X352100Y103240D03*
G01*
X352100Y-46759D03*
G01*
X502100Y553240D03*
G01*
X502100Y403240D03*
G01*
X502100Y-46759D03*
G01*
X652100Y553240D03*
G01*
X652100Y403240D03*
G01*
X652100Y103240D03*
G01*
X652100Y-46759D03*
G01*
X802100Y553240D03*
G01*
X802100Y403240D03*
G01*
X802100Y-46759D03*
G01*
X952100Y553240D03*
G01*
X952100Y253240D03*
G01*
X952100Y-46759D03*
G01*
X1102100Y553240D03*
G01*
X1102100Y403240D03*
G01*
X1102100Y-46759D03*
G01*
X1252100Y553240D03*
G01*
X1402100Y553240D03*
G01*
X1402100Y-46759D03*
G01*
X1552100Y553240D03*
G01*
X1552100Y-46759D03*
G01*
X1702100Y553240D03*
G01*
X1702100Y-46759D03*
G01*
X2152100Y-46759D03*
G01*
X2302100Y553240D03*
G01*
X2302100Y403240D03*
G01*
X2302100Y-46759D03*
G01*
X2452100Y553240D03*
G01*
X2452100Y403240D03*
G01*
X2452100Y253240D03*
G01*
X2452100Y103240D03*
G01*
X2452100Y-46759D03*
G01*
X2197500Y-679909D03*
G01*
X2347500Y-529909D03*
G01*
X52100Y-346759D03*
G01*
X52100Y-496759D03*
G01*
X52100Y-946759D03*
G01*
X202100Y-346759D03*
G01*
X202100Y-496759D03*
G01*
X202100Y-946759D03*
G01*
X352100Y-346759D03*
G01*
X352100Y-496759D03*
G01*
X352100Y-796759D03*
G01*
X352100Y-946759D03*
G01*
X502100Y-346759D03*
G01*
X502100Y-496759D03*
G01*
X502100Y-946759D03*
G01*
X652100Y-346759D03*
G01*
X652100Y-946759D03*
G01*
X802100Y-346759D03*
G01*
X802100Y-946759D03*
G01*
X952100Y-346759D03*
G01*
X1102100Y-346759D03*
G01*
X1252100Y-346759D03*
G01*
X1402100Y-346759D03*
G01*
X1402100Y-496759D03*
G01*
X1552100Y-346759D03*
G01*
X1552100Y-496759D03*
G01*
X1702100Y-346759D03*
G01*
X1702100Y-496759D03*
G01*
X2152100Y-946759D03*
G01*
X2302100Y-346759D03*
G01*
X2302100Y-946759D03*
G01*
X2452100Y-346759D03*
G01*
X2452100Y-946759D03*
G01*
X849570Y-2524439D03*
G01*
X1106250Y-2824140D03*
G01*
X1256250Y-2824140D03*
G01*
X1406250Y-2824140D03*
G01*
X52100Y-2146759D03*
G01*
X52100Y-2296759D03*
G01*
X52100Y-2596759D03*
G01*
X52100Y-2896759D03*
G01*
X52100Y-3046759D03*
G01*
X202100Y-2146759D03*
G01*
X202100Y-2296759D03*
G01*
X202100Y-2446759D03*
G01*
X202100Y-2896759D03*
G01*
X202100Y-3046759D03*
G01*
X352100Y-2146759D03*
G01*
X352100Y-2296759D03*
G01*
X352100Y-2446759D03*
G01*
X352100Y-2896759D03*
G01*
X352100Y-3046759D03*
G01*
X502100Y-2146759D03*
G01*
X502100Y-2596759D03*
G01*
X502100Y-3046759D03*
G01*
X652100Y-2146759D03*
G01*
X652100Y-2296759D03*
G01*
X652100Y-2446759D03*
G01*
X652100Y-3046759D03*
G01*
X802100Y-2146759D03*
G01*
X802100Y-3046759D03*
G01*
X952100Y-2146759D03*
G01*
X952100Y-3046759D03*
G01*
X1102100Y-2146759D03*
G01*
X1102100Y-3046759D03*
G01*
X1252100Y-2146759D03*
G01*
X1252100Y-3046759D03*
G01*
X1402100Y-2146759D03*
G01*
X1402100Y-3046759D03*
G01*
X1552100Y-2146759D03*
G01*
X1552100Y-3046759D03*
G01*
X1702100Y-2146759D03*
G01*
X1702100Y-2896759D03*
G01*
X1702100Y-3046759D03*
G01*
X1852100Y-2146759D03*
G01*
X1852100Y-2896759D03*
G01*
X1852100Y-3046759D03*
G01*
X2152100Y-2596759D03*
G01*
X2302100Y-2596759D03*
G01*
X2452100Y-2146759D03*
G01*
X2452100Y-2296759D03*
G01*
X2452100Y-2446759D03*
G01*
X2452100Y-2596759D03*
G01*
X2452100Y-2746759D03*
G01*
X2452100Y-2896759D03*
G01*
X2452100Y-3046759D03*
G01*
X2100000Y405000D03*
G01*
X2100000Y340000D03*
G01*
X1900000Y105000D03*
G01*
X1465000Y-785000D03*
G01*
X1535000Y-785000D03*
G01*
X2010000Y-815000D03*
G01*
X1980000Y-2710000D03*
G01*
X2015000Y-2470000D03*
G01*
X1060000Y-4550000D03*
G01*
X1130000Y-4480000D03*
G01*
X1175000Y-4650000D03*
G01*
X1365000Y-4695000D03*
G01*
X2355100Y-1481999D03*
G01*
X2355100Y-1631999D03*
G01*
X2014250Y-1631999D03*
G01*
X652100Y-1481999D03*
G01*
X1530000Y-1480000D03*
G01*
X1770000Y-1480000D03*
G01*
X2150000Y-1495000D03*
G01*
X1870000Y-1500000D03*
G01*
X715000Y-1680000D03*
G01*
X1650000Y-4485000D03*
G01*
X1295000Y-4510000D03*
D47*
X105407Y957500D02*
G01*
X69974Y957500D01*
X105407Y1242500D02*
G01*
X69974Y1242500D01*
X105407Y-842500D02*
G01*
X69974Y-842500D01*
X105407Y-557500D02*
G01*
X69974Y-557500D01*
X105407Y-1742500D02*
G01*
X69974Y-1742500D01*
X105407Y-1457500D02*
G01*
X69974Y-1457500D01*
X105407Y-4942500D02*
G01*
X69974Y-4942500D01*
X105407Y-4657500D02*
G01*
X69974Y-4657500D01*
X105407Y-2742500D02*
G01*
X69974Y-2742500D01*
X105407Y-2457500D02*
G01*
X69974Y-2457500D01*
D48*
X174092Y424400D02*
G01*
X75668Y424400D01*
X174092Y-24409D02*
G01*
X75668Y-24409D01*
M02*
