G04 Layer: BoardOutline*
G04 EasyEDA v6.4.17, 2021-03-02T21:30:00+01:00*
G04 52dc7113b7e944b1bde967162dfd0e84,9c416354eb984020824aaf9c885bead6,10*
G04 Gerber Generator version 0.2*
G04 Scale: 100 percent, Rotated: No, Reflected: No *
G04 Dimensions in inches *
G04 leading zeros omitted , absolute positions ,3 integer and 6 decimal *
%FSLAX36Y36*%
%MOIN*%

%ADD10C,0.0100*%
%ADD11C,0.0150*%
D10*
X5000Y-3200000D02*
G01*
X550000Y-3199832D01*
X550000Y-3100000D01*
X5000Y-3100000D01*
X0Y-4195000D02*
G01*
X0Y-3205000D01*
X5000Y-3200000D01*
X2600000Y-4195000D02*
G01*
X2595000Y-4200000D01*
X2595000Y-4200000D02*
G01*
X2050000Y-4200167D01*
X2050000Y-4300000D01*
X2595000Y-4300000D01*
X2595000Y-3100000D02*
G01*
X2050000Y-3100167D01*
X2050000Y-3200000D01*
X2595000Y-3200000D01*
X2595000Y-2000000D02*
G01*
X2050000Y-2000167D01*
X2050000Y-2100000D01*
X2595000Y-2100000D01*
X2600000Y-1095000D02*
G01*
X2595000Y-1100000D01*
X650000Y-1100000D02*
G01*
X650000Y-1200000D01*
X1950000Y-1200000D01*
X1950000Y-1100000D01*
X650000Y-1100000D01*
X2600000Y-1095000D02*
G01*
X2600000Y-305000D01*
X2595000Y-300000D01*
X2595000Y-200000D02*
G01*
X2600000Y-195000D01*
X2600000Y-195000D02*
G01*
X2595000Y-200000D01*
X2595000Y-200000D02*
G01*
X2050000Y-200167D01*
X2050000Y-300000D01*
X2595000Y-300000D01*
X2600000Y-195000D02*
G01*
X2600000Y595000D01*
X2595000Y600000D01*
X2600000Y1500000D02*
G01*
X2600000Y705000D01*
X2595000Y700000D01*
X0Y-1095000D02*
G01*
X5000Y-1100000D01*
X0Y-195000D02*
G01*
X0Y595000D01*
X5000Y600000D01*
X0Y1500000D02*
G01*
X0Y705000D01*
X5000Y700000D01*
X2600000Y-1995000D02*
G01*
X2595000Y-2000000D01*
X2600000Y-5300000D02*
G01*
X2600000Y-4305000D01*
X2595000Y-4300000D01*
X0Y-5300000D02*
G01*
X0Y-4305000D01*
X5000Y-4300000D01*
X2600000Y-4195000D02*
G01*
X2600000Y-3205000D01*
X2595000Y-3200000D01*
X5000Y-4300000D02*
G01*
X550000Y-4299832D01*
X550000Y-4200000D01*
X5000Y-4200000D01*
X0Y-4195000D02*
G01*
X5000Y-4200000D01*
X650000Y-4200000D02*
G01*
X650000Y-4300000D01*
X1950000Y-4300000D01*
X1950000Y-4200000D01*
X650000Y-4200000D01*
X2600000Y-3095000D02*
G01*
X2600000Y-2105000D01*
X2595000Y-2100000D01*
X2595000Y-3100000D02*
G01*
X2600000Y-3095000D01*
X0Y-3095000D02*
G01*
X0Y-2105000D01*
X5000Y-2100000D01*
X0Y-3095000D02*
G01*
X5000Y-3100000D01*
X650000Y-3100000D02*
G01*
X650000Y-3200000D01*
X1950000Y-3200000D01*
X1950000Y-3100000D01*
X650000Y-3100000D01*
X2600000Y-1995000D02*
G01*
X2600000Y-1205000D01*
X2595000Y-1200000D01*
X0Y-1995000D02*
G01*
X0Y-1205000D01*
X5000Y-1200000D01*
X5000Y-2100000D02*
G01*
X550000Y-2099832D01*
X550000Y-2000000D01*
X5000Y-2000000D01*
X0Y-1995000D02*
G01*
X5000Y-2000000D01*
X650000Y-2000000D02*
G01*
X650000Y-2100000D01*
X1950000Y-2100000D01*
X1950000Y-2000000D01*
X650000Y-2000000D01*
X0Y-1095000D02*
G01*
X0Y-305000D01*
X5000Y-300000D01*
X5000Y-1200000D02*
G01*
X550000Y-1199832D01*
X550000Y-1100000D01*
X5000Y-1100000D01*
X2595000Y-1100000D02*
G01*
X2050000Y-1100167D01*
X2050000Y-1200000D01*
X2595000Y-1200000D01*
X5000Y-300000D02*
G01*
X550000Y-299832D01*
X550000Y-200000D01*
X5000Y-200000D01*
D11*
X0Y-195000D02*
G01*
X5000Y-200000D01*
D10*
X650000Y-200000D02*
G01*
X650000Y-300000D01*
X1950000Y-300000D01*
X1950000Y-200000D01*
X650000Y-200000D01*
X2600000Y-5300000D02*
G01*
X0Y-5300000D01*
X0Y1500000D02*
G01*
X2600000Y1500000D01*
X5000Y600000D02*
G01*
X550000Y600169D01*
X550000Y700000D01*
X5000Y700000D01*
X650000Y700000D02*
G01*
X650000Y600000D01*
X1950000Y600000D01*
X1950000Y700000D01*
X650000Y700000D01*
X2595000Y700000D02*
G01*
X2050000Y699830D01*
X2050000Y600000D01*
X2595000Y600000D01*

%LPD*%
M02*
