M48
INCH,LZ
;FILE_FORMAT=2:4
;TYPE=PLATED
;Layer: Drill PTH
;EasyEDA v6.4.25, 2021-12-03T12:43:26+01:00
;4734013eef9542f2942493e3f9f6a545,9c416354eb984020824aaf9c885bead6,10
;Gerber Generator version 0.2
;Holesize 1 = 0.0120 inch
T01C0.0120
;Holesize 2 = 0.0200 inch
T02C0.0200
;Holesize 3 = 0.0220 inch
T03C0.0220
;Holesize 4 = 0.0350 inch
T04C0.0350
;Holesize 5 = 0.0390 inch
T05C0.0390
;Holesize 6 = 0.0430 inch
T06C0.0430
;Holesize 7 = 0.0470 inch
T07C0.0470
;Holesize 8 = 0.0990 inch
T08C0.0990
%
G05
G90
T01
X012800Y-000800
X016000Y003600
X020200Y003700
X019600Y002000
X019600Y003700
X016000Y008000
X016500Y008000
X016000Y005200
X016000Y005500
X014700Y006200
X014300Y-001700
X013102Y-001398
X017900Y-003600
X025500Y000000
X016000Y002700
X016600Y005500
X023200Y-000700
X023200Y-000300
X025300Y006800
X024100Y004800
X024100Y005200
X016600Y-003900
X016500Y000400
X017500Y-003400
X017755Y-003145
X018000Y-002900
X022800Y005000
X024200Y-003100
X021800Y001300
X020500Y-001500
X022907Y-003147
X014500Y004600
X020000Y001000
X020800Y-000900
X023900Y001700
X022200Y-005500
X022500Y-004800
X018900Y002000
X021200Y005700
X020000Y005200
X020700Y004800
X025300Y000300
X025100Y000600
X024800Y000900
X004600Y007500
X004200Y007500
X008200Y-008799
X008200Y-009300
X008200Y-008300
X009900Y006600
X016400Y-001200
X010700Y-001700
X018500Y-004800
X018500Y-004300
X010700Y-000900
X010700Y-001300
X010700Y-002100
X012700Y-007100
X012400Y-006800
X021700Y002000
X020200Y007100
X022400Y-000500
X012639Y003400
X013000Y003400
X013300Y003100
X013300Y001795
X020900Y007300
X020500Y007700
X020100Y008100
X024100Y006800
X023600Y006800
X025300Y004300
X012721Y006479
X025800Y-007000
X010665Y009422
X010665Y008422
X011665Y008422
X016665Y009422
X017665Y-006578
X017700Y-007400
X018600Y-007500
X019665Y009422
X019665Y-005578
X019665Y-006578
X020665Y009422
X020665Y-005578
X018600Y004600
X019400Y004300
X020900Y002000
X020900Y-001900
X009400Y-002800
X025700Y-001800
X016300Y-003900
X016000Y-003900
X018700Y-003600
X023200Y-001600
X014700Y-006900
X008900Y001800
X015800Y000700
X019600Y000100
X010000Y000400
X009600Y002200
X009600Y004400
X009600Y003300
X017300Y-001600
T02
X023978Y009059G85X023978Y008803
X021222Y009059G85X021222Y008803
T03
X021675Y007868G85X021557Y007868
X023643Y007868G85X023525Y007868
T04
X001500Y-005512
X000500Y-005512
X-000500Y-005512
X-001500Y-005512
X-001500Y005512
X-000500Y005512
X000500Y005512
X001500Y005512
X008700Y-003300
X009700Y-003300
X008700Y-004300
X009700Y-004300
X008700Y-005300
X009700Y-005300
X026000Y-005100
X025000Y-005100
X026000Y-004100
X025000Y-004100
X026000Y-003100
X025000Y-003100
X012200Y009100
X013200Y009100
X014200Y009100
X015200Y009100
T05
X013100Y-005700
X014100Y-005700
X015100Y-005700
X016100Y-005700
X016100Y-002700
X015100Y-002700
X014100Y-002700
X013100Y-002700
T06
X002000Y-009150
X002000Y-008150
X001000Y-009150
X001000Y-008150
X000000Y-009150
X000000Y-008150
X-001000Y-009150
X-001000Y-008150
X-002000Y-009150
X-002000Y-008150
X002000Y008150
X002000Y009150
X001000Y008150
X001000Y009150
X000000Y008150
X000000Y009150
X-001000Y008150
X-001000Y009150
X-002000Y008150
X-002000Y009150
T07
X008700Y005300
X008700Y004300
X008700Y003300
T08
X009105Y008800G85X009695Y008800
X017705Y008800G85X018295Y008800
X009105Y-000500G85X009695Y-000500
X017705Y-000500G85X018295Y-000500
M30
