M48
INCH,LZ
;FILE_FORMAT=2:4
;TYPE=NON_PLATED
;Layer: Drill NPTH
;EasyEDA v6.4.25, 2021-12-03T12:43:26+01:00
;4734013eef9542f2942493e3f9f6a545,9c416354eb984020824aaf9c885bead6,10
;Gerber Generator version 0.2
;Holesize 1 = 0.0220 inch
T01C0.0220
;Holesize 2 = 0.0390 inch
T02C0.0390
%
G05
G90
T01
X006362Y-010807
X006697Y-010807
X007031Y-010807
X007366Y-010807
X007701Y-010807
X008035Y-010807
X008370Y-010807
X008705Y-010807
X017095Y-010807
X017430Y-010807
X017765Y-010807
X018099Y-010807
X018434Y-010807
X018769Y-010807
X019103Y-010807
X019438Y-010807
X006362Y-009879
X006697Y-009879
X007031Y-009879
X007366Y-009879
X007701Y-009879
X008035Y-009879
X008370Y-009879
X008705Y-009879
X017095Y-009879
X017430Y-009879
X017765Y-009879
X018099Y-009879
X018434Y-009879
X018769Y-009879
X019103Y-009879
X019438Y-009879
X006362Y-031493
X006697Y-031493
X007031Y-031493
X007366Y-031493
X007701Y-031493
X008035Y-031493
X008370Y-031493
X008705Y-031493
X017095Y-031493
X017430Y-031493
X017765Y-031493
X018099Y-031493
X018434Y-031493
X018769Y-031493
X019103Y-031493
X019438Y-031493
X006362Y-030565
X006697Y-030565
X007031Y-030565
X007366Y-030565
X007701Y-030565
X008035Y-030565
X008370Y-030565
X008705Y-030565
X017095Y-030565
X017430Y-030565
X017765Y-030565
X018099Y-030565
X018434Y-030565
X018769Y-030565
X019103Y-030565
X019438Y-030565
X006362Y-052179
X006697Y-052179
X007031Y-052179
X007366Y-052179
X007701Y-052179
X008035Y-052179
X008370Y-052179
X008705Y-052179
X017095Y-052179
X017430Y-052179
X017765Y-052179
X018099Y-052179
X018434Y-052179
X018769Y-052179
X019103Y-052179
X019438Y-052179
X006362Y-051251
X006697Y-051251
X007031Y-051251
X007366Y-051251
X007701Y-051251
X008035Y-051251
X008370Y-051251
X008705Y-051251
X017095Y-051251
X017430Y-051251
X017765Y-051251
X018099Y-051251
X018434Y-051251
X018769Y-051251
X019103Y-051251
X019438Y-051251
T02
X006691Y-008108
X005509Y-008108
X006691Y008392
X005509Y008392
M30
