G04 Layer: BoardOutline*
G04 EasyEDA v6.4.25, 2021-12-03T12:43:26+01:00*
G04 4734013eef9542f2942493e3f9f6a545,9c416354eb984020824aaf9c885bead6,10*
G04 Gerber Generator version 0.2*
G04 Scale: 100 percent, Rotated: No, Reflected: No *
G04 Dimensions in inches *
G04 leading zeros omitted , absolute positions ,3 integer and 6 decimal *
%FSLAX36Y36*%
%MOIN*%

%ADD10C,0.0100*%
D10*
X240000Y500000D02*
G01*
X-210000Y500000D01*
X790000Y-220000D02*
G01*
X790000Y-220000D01*
X790000Y-620000D01*
X790000Y-620000D01*
X510000Y-620000D01*
X240000Y-620000D01*
X240000Y-620000D01*
X240000Y-500000D01*
X-319989Y-760000D02*
G01*
X-210000Y-650000D01*
X-210000Y-500000D01*
X240000Y-500000D02*
G01*
X-210000Y-500000D01*
X-320000Y760000D02*
G01*
X-210000Y650000D01*
X-210000Y500000D01*
X240000Y500000D02*
G01*
X240000Y620000D01*
X790000Y620000D01*
X790000Y400000D01*
X790000Y190000D01*
X790000Y-220000D01*
X-275590Y-984299D02*
G01*
X-319991Y-939899D01*
X-319991Y-759998D01*
X-275599Y984299D02*
G01*
X-320000Y939899D01*
X-320000Y760000D01*
X2677165Y-984252D02*
G01*
X-275590Y-984252D01*
X2900000Y760000D02*
G01*
X2900000Y761417D01*
X2677165Y984252D01*
X-275590Y984252D02*
G01*
X2677165Y984252D01*
X2900000Y760000D02*
G01*
X2900000Y-761399D01*
X2677200Y-984299D01*
G75*
G01*
X2700000Y700000D02*
G02*
X2800000Y700000I50000J0D01*
X2800000Y700000D02*
G01*
X2800000Y-700000D01*
G75*
G01*
X2800000Y-700000D02*
G02*
X2700000Y-700000I-50000J0D01*
X2700000Y-700000D02*
G01*
X2700000Y700000D01*
X240000Y-1568599D02*
G01*
X-210000Y-1568599D01*
X790000Y-2288599D02*
G01*
X790000Y-2288599D01*
X790000Y-2688599D01*
X790000Y-2688599D01*
X510000Y-2688599D01*
X240000Y-2688599D01*
X240000Y-2688599D01*
X240000Y-2568599D01*
X-319989Y-2828599D02*
G01*
X-210000Y-2718599D01*
X-210000Y-2568599D01*
X240000Y-2568599D02*
G01*
X-210000Y-2568599D01*
X-320000Y-1308599D02*
G01*
X-210000Y-1418599D01*
X-210000Y-1568599D01*
X240000Y-1568599D02*
G01*
X240000Y-1448599D01*
X790000Y-1448599D01*
X790000Y-1668599D01*
X790000Y-1878599D01*
X790000Y-2288599D01*
X-275590Y-3052898D02*
G01*
X-319991Y-3008498D01*
X-319991Y-2828598D01*
X-275599Y-1084299D02*
G01*
X-320000Y-1128699D01*
X-320000Y-1308599D01*
X2677165Y-3052851D02*
G01*
X-275590Y-3052851D01*
X2900000Y-1308599D02*
G01*
X2900000Y-1307182D01*
X2677165Y-1084347D01*
X-275590Y-1084347D02*
G01*
X2677165Y-1084347D01*
X2900000Y-1308599D02*
G01*
X2900000Y-2829999D01*
X2677200Y-3052899D01*
G75*
G01*
X2700000Y-1368600D02*
G02*
X2800000Y-1368600I50000J0D01*
X2800000Y-1368599D02*
G01*
X2800000Y-2768599D01*
G75*
G01*
X2800000Y-2768600D02*
G02*
X2700000Y-2768600I-50000J0D01*
X2700000Y-2768599D02*
G01*
X2700000Y-1368599D01*
X240000Y-3637199D02*
G01*
X-210000Y-3637199D01*
X790000Y-4357199D02*
G01*
X790000Y-4357199D01*
X790000Y-4757199D01*
X790000Y-4757199D01*
X510000Y-4757199D01*
X240000Y-4757199D01*
X240000Y-4757199D01*
X240000Y-4637199D01*
X-319989Y-4897199D02*
G01*
X-210000Y-4787199D01*
X-210000Y-4637199D01*
X240000Y-4637199D02*
G01*
X-210000Y-4637199D01*
X-320000Y-3377199D02*
G01*
X-210000Y-3487199D01*
X-210000Y-3637199D01*
X240000Y-3637199D02*
G01*
X240000Y-3517199D01*
X790000Y-3517199D01*
X790000Y-3737199D01*
X790000Y-3947199D01*
X790000Y-4357199D01*
X-275590Y-5121498D02*
G01*
X-319991Y-5077098D01*
X-319991Y-4897198D01*
X-275599Y-3152899D02*
G01*
X-320000Y-3197299D01*
X-320000Y-3377199D01*
X2677165Y-5121451D02*
G01*
X-275590Y-5121451D01*
X2900000Y-3377199D02*
G01*
X2900000Y-3375782D01*
X2677165Y-3152947D01*
X-275590Y-3152947D02*
G01*
X2677165Y-3152947D01*
X2900000Y-3377199D02*
G01*
X2900000Y-4898599D01*
X2677200Y-5121499D01*
G75*
G01*
X2700000Y-3437200D02*
G02*
X2800000Y-3437200I50000J0D01*
X2800000Y-3437199D02*
G01*
X2800000Y-4837199D01*
G75*
G01*
X2800000Y-4837200D02*
G02*
X2700000Y-4837200I-50000J0D01*
X2700000Y-4837199D02*
G01*
X2700000Y-3437199D01*
X240000Y-5705799D02*
G01*
X-210000Y-5705799D01*
X790000Y-6425799D02*
G01*
X790000Y-6425799D01*
X790000Y-6825799D01*
X790000Y-6825799D01*
X510000Y-6825799D01*
X240000Y-6825799D01*
X240000Y-6825799D01*
X240000Y-6705799D01*
X-319989Y-6965799D02*
G01*
X-210000Y-6855799D01*
X-210000Y-6705799D01*
X240000Y-6705799D02*
G01*
X-210000Y-6705799D01*
X-320000Y-5445799D02*
G01*
X-210000Y-5555799D01*
X-210000Y-5705799D01*
X240000Y-5705799D02*
G01*
X240000Y-5585799D01*
X790000Y-5585799D01*
X790000Y-5805799D01*
X790000Y-6015799D01*
X790000Y-6425799D01*
X-275590Y-7190098D02*
G01*
X-319991Y-7145698D01*
X-319991Y-6965798D01*
X-275599Y-5221499D02*
G01*
X-320000Y-5265899D01*
X-320000Y-5445799D01*
X2677165Y-7190051D02*
G01*
X-275590Y-7190051D01*
X2900000Y-5445799D02*
G01*
X2900000Y-5444382D01*
X2677165Y-5221547D01*
X-275590Y-5221547D02*
G01*
X2677165Y-5221547D01*
X2900000Y-5445799D02*
G01*
X2900000Y-6967199D01*
X2677200Y-7190099D01*
G75*
G01*
X2700000Y-5505800D02*
G02*
X2800000Y-5505800I50000J0D01*
X2800000Y-5505799D02*
G01*
X2800000Y-6905799D01*
G75*
G01*
X2800000Y-6905800D02*
G02*
X2700000Y-6905800I-50000J0D01*
X2700000Y-6905799D02*
G01*
X2700000Y-5505799D01*
X-320000Y984299D02*
G01*
X2900000Y984299D01*
X2900000Y-7190095D01*
X-320000Y-7190095D01*
X-320000Y984299D01*
X618685Y-1080738D02*
G01*
X618685Y-987860D01*
X887980Y-1080738D02*
G01*
X887980Y-987860D01*
X1692019Y-1080738D02*
G01*
X1692019Y-987860D01*
X1961314Y-1080738D02*
G01*
X1961314Y-987860D01*
X618685Y-3149336D02*
G01*
X618685Y-3056459D01*
X887980Y-3149336D02*
G01*
X887980Y-3056459D01*
X1692019Y-3149336D02*
G01*
X1692019Y-3056459D01*
X1961314Y-3149336D02*
G01*
X1961314Y-3056459D01*
X618685Y-5217935D02*
G01*
X618685Y-5125058D01*
X887980Y-5217935D02*
G01*
X887980Y-5125058D01*
X1692019Y-5217935D02*
G01*
X1692019Y-5125058D01*
X1961314Y-5217935D02*
G01*
X1961314Y-5125058D01*

%LPD*%
M02*
