G04 Layer: TopSilkLayer*
G04 EasyEDA v6.4.25, 2021-12-03T12:43:26+01:00*
G04 4734013eef9542f2942493e3f9f6a545,9c416354eb984020824aaf9c885bead6,10*
G04 Gerber Generator version 0.2*
G04 Scale: 100 percent, Rotated: No, Reflected: No *
G04 Dimensions in inches *
G04 leading zeros omitted , absolute positions ,3 integer and 6 decimal *
%FSLAX36Y36*%
%MOIN*%

%ADD10C,0.0100*%
%ADD11C,0.0157*%
%ADD13C,0.0120*%
%ADD62C,0.0039*%
%ADD63C,0.0060*%
%ADD64C,0.0079*%
%ADD65C,0.0080*%
%ADD66C,0.0059*%
%ADD67C,0.0080*%
%ADD68C,0.0080*%
%ADD69C,0.0060*%
%ADD70C,0.0059*%
%ADD71C,0.0118*%
%ADD72C,0.0040*%
%ADD73C,0.0050*%

%LPD*%
G36*
X1798340Y-480000D02*
G01*
X1798340Y-507080D01*
X1858760Y-507080D01*
X1858760Y-514840D01*
X1830620Y-525500D01*
X1858760Y-525840D01*
X1858760Y-534160D01*
X1817080Y-534160D01*
X1817080Y-524760D01*
X1845200Y-514380D01*
X1817080Y-513140D01*
X1817080Y-507080D01*
X1798340Y-507080D01*
X1798340Y-556620D01*
X1817080Y-556620D01*
X1817080Y-553080D01*
X1817300Y-551420D01*
X1817860Y-549520D01*
X1818720Y-547600D01*
X1819740Y-545900D01*
X1822400Y-542280D01*
X1837920Y-538780D01*
X1853420Y-542280D01*
X1856100Y-545900D01*
X1857120Y-547600D01*
X1857960Y-549520D01*
X1858540Y-551420D01*
X1858760Y-553080D01*
X1858760Y-556620D01*
X1850780Y-566460D01*
X1825040Y-566460D01*
X1817080Y-556620D01*
X1798340Y-556620D01*
X1798340Y-588340D01*
X1877500Y-588340D01*
X1877500Y-725840D01*
X1802500Y-725840D01*
X1802500Y-588340D01*
X1798340Y-588340D01*
X1798340Y-730000D01*
X1881660Y-730000D01*
X1881660Y-480000D01*
G37*
G36*
X1831399Y-546660D02*
G01*
X1827360Y-548820D01*
X1824660Y-550600D01*
X1823540Y-552380D01*
X1823940Y-554320D01*
X1825840Y-556660D01*
X1828340Y-559160D01*
X1847820Y-559160D01*
X1853380Y-552460D01*
X1845460Y-546660D01*
G37*
G36*
X1833760Y-610940D02*
G01*
X1833760Y-627920D01*
X1825420Y-627920D01*
X1825420Y-611240D01*
X1817080Y-611240D01*
X1817080Y-636240D01*
X1858760Y-636240D01*
X1858760Y-627920D01*
X1842340Y-627920D01*
X1841040Y-612320D01*
G37*
G36*
X1833760Y-644280D02*
G01*
X1833760Y-661240D01*
X1825420Y-661240D01*
X1825420Y-644580D01*
X1817080Y-644580D01*
X1817080Y-669580D01*
X1858760Y-669580D01*
X1858760Y-661240D01*
X1842340Y-661240D01*
X1841040Y-645660D01*
G37*
G36*
X1825860Y-676880D02*
G01*
X1817080Y-684820D01*
X1817120Y-690220D01*
X1817240Y-692500D01*
X1817493Y-694140D01*
X1825420Y-694140D01*
X1825420Y-686720D01*
X1831660Y-685800D01*
X1834580Y-685520D01*
X1837920Y-685420D01*
X1841240Y-685520D01*
X1844160Y-685800D01*
X1850420Y-686720D01*
X1850420Y-694140D01*
X1847120Y-695400D01*
X1845280Y-695939D01*
X1843060Y-696320D01*
X1840560Y-696540D01*
X1837920Y-696620D01*
X1835280Y-696540D01*
X1832780Y-696320D01*
X1830540Y-695939D01*
X1828720Y-695400D01*
X1825420Y-694140D01*
X1817493Y-694140D01*
X1818080Y-696600D01*
X1818680Y-697920D01*
X1819640Y-699000D01*
X1821100Y-700240D01*
X1822880Y-701500D01*
X1824760Y-702600D01*
X1829300Y-705000D01*
X1846519Y-705000D01*
X1851080Y-702600D01*
X1853100Y-701440D01*
X1854780Y-700280D01*
X1856100Y-699040D01*
X1857120Y-697700D01*
X1857860Y-696200D01*
X1858340Y-694479D01*
X1858620Y-692500D01*
X1858720Y-690220D01*
X1858760Y-684820D01*
X1849980Y-676880D01*
G37*
G36*
X1030000Y-280000D02*
G01*
X1030000Y-292860D01*
X1071380Y-292860D01*
X1071380Y-310000D01*
X1116900Y-310000D01*
X1116900Y-318580D01*
X1071380Y-318580D01*
X1071380Y-335720D01*
X1063100Y-335720D01*
X1063100Y-292860D01*
X1030000Y-292860D01*
X1030000Y-340000D01*
X1071380Y-340000D01*
X1071380Y-365720D01*
X1083800Y-365720D01*
X1083800Y-344280D01*
X1092060Y-344280D01*
X1092060Y-365720D01*
X1108620Y-365720D01*
X1108620Y-340000D01*
X1116900Y-340000D01*
X1116900Y-374280D01*
X1063100Y-374280D01*
X1063100Y-340000D01*
X1030000Y-340000D01*
X1030000Y-387140D01*
X1074360Y-387140D01*
X1070440Y-408480D01*
X1090000Y-416019D01*
X1106560Y-409739D01*
X1109220Y-395720D01*
X1092060Y-395720D01*
X1092060Y-400000D01*
X1091740Y-401659D01*
X1090860Y-403020D01*
X1089540Y-403940D01*
X1087940Y-404280D01*
X1083800Y-404280D01*
X1083800Y-387140D01*
X1116900Y-387140D01*
X1116900Y-412239D01*
X1103900Y-425720D01*
X1078240Y-425720D01*
X1063100Y-411520D01*
X1063100Y-387140D01*
X1030000Y-387140D01*
X1030000Y-468579D01*
X1062600Y-468579D01*
X1065180Y-436420D01*
X1084740Y-433560D01*
X1093300Y-442420D01*
X1116900Y-429780D01*
X1116900Y-443060D01*
X1096200Y-451220D01*
X1096200Y-460000D01*
X1116900Y-460000D01*
X1116900Y-468579D01*
X1030000Y-468579D01*
X1030000Y-505420D01*
X1062740Y-505420D01*
X1065180Y-488980D01*
X1099720Y-477879D01*
X1115860Y-472920D01*
X1116260Y-473360D01*
X1116600Y-474620D01*
X1116820Y-476520D01*
X1116900Y-478820D01*
X1116900Y-484799D01*
X1104480Y-489739D01*
X1104480Y-507140D01*
X1116900Y-507140D01*
X1116900Y-520920D01*
X1110820Y-518600D01*
X1103980Y-516500D01*
X1093560Y-513579D01*
X1062740Y-505420D01*
X1030000Y-505420D01*
X1030000Y-524280D01*
X1071380Y-524280D01*
X1071380Y-537140D01*
X1116900Y-537140D01*
X1116900Y-550000D01*
X1071380Y-550000D01*
X1071380Y-562860D01*
X1063100Y-562860D01*
X1063100Y-524280D01*
X1030000Y-524280D01*
X1030000Y-580000D01*
X1150000Y-580000D01*
X1150000Y-280000D01*
G37*
G36*
X1076320Y-443440D02*
G01*
X1073860Y-446019D01*
X1072900Y-447460D01*
X1072100Y-449500D01*
X1071580Y-451860D01*
X1071380Y-454280D01*
X1071380Y-460000D01*
X1087940Y-460000D01*
X1087940Y-448060D01*
G37*
G36*
X1094140Y-491580D02*
G01*
X1073440Y-497060D01*
X1083080Y-500340D01*
X1086600Y-501380D01*
X1089620Y-501920D01*
X1092100Y-501960D01*
X1094040Y-501540D01*
X1095380Y-500660D01*
X1096120Y-499320D01*
X1096200Y-497540D01*
X1095600Y-495340D01*
G37*
G36*
X2440000Y-570000D02*
G01*
X2440000Y-615420D01*
X2456960Y-615420D01*
X2468420Y-602680D01*
X2472233Y-603100D01*
X2642040Y-603100D01*
X2642040Y-611380D01*
X2619600Y-611380D01*
X2619600Y-627940D01*
X2642040Y-627940D01*
X2642040Y-636200D01*
X2619600Y-636200D01*
X2619600Y-656900D01*
X2606120Y-656900D01*
X2606120Y-603100D01*
X2570200Y-603100D01*
X2570200Y-648620D01*
X2592660Y-648620D01*
X2592660Y-656900D01*
X2556740Y-656900D01*
X2556740Y-603100D01*
X2543260Y-603100D01*
X2543260Y-611380D01*
X2520820Y-611380D01*
X2520820Y-623800D01*
X2543260Y-623800D01*
X2543260Y-632060D01*
X2520820Y-632060D01*
X2520820Y-648620D01*
X2543260Y-648620D01*
X2543260Y-656900D01*
X2511840Y-656900D01*
X2511840Y-603100D01*
X2472233Y-603100D01*
X2490940Y-605180D01*
X2494240Y-614440D01*
X2471420Y-610420D01*
X2471420Y-619440D01*
X2498360Y-632280D01*
X2498360Y-647600D01*
X2485440Y-657500D01*
X2460900Y-654820D01*
X2457240Y-644560D01*
X2484900Y-649659D01*
X2484900Y-637540D01*
X2462200Y-628000D01*
X2456960Y-615420D01*
X2440000Y-615420D01*
X2440000Y-690000D01*
X2660000Y-690000D01*
X2660000Y-570000D01*
G37*
G36*
X390000Y-665000D02*
G01*
X390000Y-668100D01*
X660000Y-668100D01*
X660000Y-689820D01*
X710920Y-689820D01*
X717440Y-708680D01*
X719560Y-714100D01*
X721400Y-718000D01*
X722120Y-719220D01*
X722700Y-719900D01*
X723080Y-719960D01*
X723920Y-718400D01*
X725200Y-715100D01*
X726780Y-710560D01*
X732460Y-691860D01*
X739900Y-689460D01*
X726200Y-730180D01*
X718379Y-730180D01*
X709479Y-704120D01*
X705800Y-693700D01*
X704320Y-689820D01*
X698580Y-689820D01*
X698580Y-696040D01*
X682500Y-696040D01*
X682500Y-705340D01*
X688280Y-705340D01*
X690520Y-705480D01*
X692560Y-705860D01*
X694400Y-706460D01*
X696040Y-707280D01*
X697480Y-708259D01*
X698700Y-709419D01*
X699680Y-710720D01*
X700420Y-712140D01*
X700920Y-713660D01*
X701160Y-715260D01*
X701140Y-716919D01*
X700840Y-718620D01*
X700260Y-720320D01*
X699400Y-722020D01*
X698220Y-723680D01*
X696740Y-725300D01*
X691680Y-730180D01*
X676080Y-730180D01*
X676080Y-723960D01*
X688139Y-723960D01*
X695300Y-715639D01*
X693180Y-713600D01*
X691780Y-712800D01*
X689500Y-712159D01*
X686660Y-711720D01*
X683580Y-711560D01*
X676080Y-711560D01*
X676080Y-689820D01*
X660000Y-689820D01*
X660000Y-748800D01*
X547500Y-748800D01*
X547500Y-668100D01*
X390000Y-668100D01*
X390000Y-730180D01*
X406079Y-730180D01*
X406079Y-724380D01*
X423760Y-722420D01*
X423760Y-713100D01*
X409280Y-711120D01*
X409280Y-705340D01*
X422140Y-705340D01*
X422140Y-695320D01*
X406079Y-698280D01*
X406079Y-696120D01*
X406260Y-695100D01*
X406740Y-693940D01*
X407480Y-692780D01*
X408360Y-691760D01*
X410660Y-689539D01*
X426960Y-691380D01*
X427420Y-700680D01*
X427760Y-704700D01*
X428360Y-708740D01*
X429140Y-712340D01*
X430020Y-715040D01*
X432160Y-720060D01*
X431331Y-720860D01*
X457500Y-720860D01*
X457500Y-730180D01*
X447860Y-730180D01*
X447860Y-720860D01*
X431331Y-720860D01*
X421680Y-730180D01*
X390000Y-730180D01*
X390000Y-730560D01*
X473579Y-730560D01*
X473579Y-724380D01*
X490760Y-722420D01*
X493540Y-714240D01*
X486760Y-712540D01*
X483920Y-711640D01*
X481900Y-710639D01*
X480680Y-709560D01*
X480260Y-708439D01*
X480660Y-707340D01*
X481880Y-706260D01*
X483920Y-705260D01*
X486760Y-704360D01*
X493500Y-702660D01*
X488940Y-695540D01*
X473579Y-699260D01*
X473579Y-696620D01*
X473760Y-695040D01*
X474300Y-693680D01*
X475200Y-692520D01*
X476480Y-691560D01*
X478080Y-690800D01*
X480040Y-690260D01*
X482340Y-689940D01*
X484960Y-689820D01*
X511540Y-689820D01*
X519700Y-720560D01*
X521920Y-719240D01*
X522440Y-718680D01*
X523080Y-717620D01*
X523840Y-716100D01*
X525540Y-711940D01*
X527320Y-706720D01*
X532260Y-689820D01*
X535060Y-689820D01*
X535940Y-689940D01*
X536620Y-690320D01*
X537120Y-690960D01*
X537380Y-691900D01*
X537440Y-693160D01*
X537300Y-694760D01*
X536940Y-696760D01*
X536340Y-699140D01*
X534480Y-705180D01*
X531700Y-713100D01*
X526060Y-728620D01*
X516740Y-730380D01*
X503080Y-689820D01*
X492080Y-689820D01*
X500300Y-699400D01*
X493320Y-706140D01*
X500840Y-717780D01*
X493820Y-728620D01*
X473579Y-730560D01*
X390000Y-730560D01*
X390000Y-755000D01*
X750000Y-755000D01*
X750000Y-665000D01*
G37*
G36*
X390000Y985000D02*
G01*
X390000Y981900D01*
X660000Y981900D01*
X660000Y960180D01*
X710920Y960180D01*
X717440Y941320D01*
X719560Y935900D01*
X721400Y932000D01*
X722120Y930780D01*
X722700Y930100D01*
X723080Y930040D01*
X723920Y931600D01*
X725200Y934900D01*
X726780Y939440D01*
X732460Y958139D01*
X739900Y960540D01*
X726200Y919820D01*
X718379Y919820D01*
X709479Y945879D01*
X705800Y956300D01*
X704320Y960180D01*
X698580Y960180D01*
X698580Y953960D01*
X682500Y953960D01*
X682500Y944659D01*
X688280Y944659D01*
X690520Y944520D01*
X692560Y944140D01*
X694400Y943540D01*
X696040Y942720D01*
X697480Y941740D01*
X698700Y940580D01*
X699680Y939280D01*
X700420Y937860D01*
X700920Y936340D01*
X701160Y934740D01*
X701140Y933080D01*
X700840Y931380D01*
X700260Y929680D01*
X699400Y927980D01*
X698220Y926320D01*
X696740Y924700D01*
X691680Y919820D01*
X676080Y919820D01*
X676080Y926040D01*
X688139Y926040D01*
X695300Y934360D01*
X693180Y936400D01*
X691780Y937200D01*
X689500Y937840D01*
X686660Y938280D01*
X683580Y938439D01*
X676080Y938439D01*
X676080Y960180D01*
X660000Y960180D01*
X660000Y901200D01*
X547500Y901200D01*
X547500Y981900D01*
X390000Y981900D01*
X390000Y919820D01*
X406079Y919820D01*
X406079Y925620D01*
X423760Y927580D01*
X423760Y936900D01*
X409280Y938880D01*
X409280Y944659D01*
X422140Y944659D01*
X422140Y954680D01*
X406079Y951720D01*
X406079Y953880D01*
X406260Y954900D01*
X406740Y956060D01*
X407480Y957220D01*
X408360Y958240D01*
X410660Y960460D01*
X426960Y958620D01*
X427420Y949320D01*
X427760Y945300D01*
X428360Y941260D01*
X429140Y937660D01*
X430020Y934960D01*
X432160Y929940D01*
X431331Y929140D01*
X457500Y929140D01*
X457500Y919820D01*
X447860Y919820D01*
X447860Y929140D01*
X431331Y929140D01*
X421680Y919820D01*
X390000Y919820D01*
X390000Y919440D01*
X473579Y919440D01*
X473579Y925620D01*
X490760Y927580D01*
X493540Y935759D01*
X486760Y937460D01*
X483920Y938360D01*
X481900Y939360D01*
X480680Y940440D01*
X480260Y941560D01*
X480660Y942660D01*
X481880Y943740D01*
X483920Y944740D01*
X486760Y945639D01*
X493500Y947340D01*
X488940Y954460D01*
X473579Y950740D01*
X473579Y953379D01*
X473760Y954960D01*
X474300Y956320D01*
X475200Y957480D01*
X476480Y958439D01*
X478080Y959200D01*
X480040Y959740D01*
X482340Y960060D01*
X484960Y960180D01*
X511540Y960180D01*
X519700Y929440D01*
X521920Y930759D01*
X522440Y931320D01*
X523080Y932380D01*
X523840Y933900D01*
X525540Y938060D01*
X527320Y943280D01*
X532260Y960180D01*
X535060Y960180D01*
X535940Y960060D01*
X536620Y959680D01*
X537120Y959040D01*
X537380Y958100D01*
X537440Y956840D01*
X537300Y955240D01*
X536940Y953240D01*
X536340Y950860D01*
X534480Y944820D01*
X531700Y936900D01*
X526060Y921380D01*
X516740Y919620D01*
X503080Y960180D01*
X492080Y960180D01*
X500300Y950600D01*
X493320Y943860D01*
X500840Y932220D01*
X493820Y921380D01*
X473579Y919440D01*
X390000Y919440D01*
X390000Y895000D01*
X750000Y895000D01*
X750000Y985000D01*
G37*
G36*
X2190000Y330000D02*
G01*
X2190000Y302420D01*
X2266660Y302420D01*
X2266660Y295520D01*
X2250000Y295520D01*
X2250000Y285180D01*
X2266660Y285180D01*
X2266660Y278280D01*
X2250000Y278280D01*
X2250000Y267860D01*
X2272800Y267860D01*
X2292520Y263780D01*
X2296880Y271080D01*
X2277480Y281460D01*
X2273620Y291860D01*
X2284180Y302780D01*
X2287115Y302420D01*
X2376660Y302420D01*
X2376660Y295520D01*
X2366660Y295520D01*
X2366660Y257580D01*
X2356660Y257580D01*
X2356660Y295520D01*
X2346660Y295520D01*
X2346660Y302420D01*
X2340000Y302420D01*
X2340000Y295520D01*
X2323340Y295520D01*
X2323340Y285180D01*
X2340000Y285180D01*
X2340000Y278280D01*
X2323340Y278280D01*
X2323340Y264480D01*
X2340000Y264480D01*
X2340000Y257580D01*
X2313340Y257580D01*
X2313340Y302420D01*
X2287115Y302420D01*
X2301160Y300680D01*
X2303980Y291760D01*
X2287400Y296080D01*
X2282940Y288600D01*
X2290780Y285520D01*
X2294140Y283920D01*
X2297500Y281860D01*
X2300480Y279560D01*
X2302700Y277340D01*
X2306780Y272260D01*
X2302600Y260980D01*
X2294900Y258980D01*
X2291440Y258299D01*
X2287740Y257900D01*
X2284240Y257840D01*
X2281380Y258140D01*
X2275560Y259320D01*
X2272800Y267860D01*
X2250000Y267860D01*
X2250000Y264480D01*
X2266660Y264480D01*
X2266660Y257580D01*
X2243340Y257580D01*
X2243340Y302420D01*
X2225860Y302420D01*
X2234320Y291860D01*
X2226640Y274440D01*
X2231440Y265020D01*
X2232460Y262660D01*
X2233000Y260859D01*
X2233060Y259520D01*
X2232620Y258580D01*
X2231700Y257979D01*
X2230280Y257680D01*
X2228340Y257580D01*
X2223340Y257580D01*
X2223340Y262340D01*
X2222940Y264520D01*
X2221860Y266960D01*
X2220280Y269340D01*
X2218340Y271380D01*
X2213340Y275680D01*
X2213340Y257580D01*
X2203340Y257580D01*
X2203340Y302420D01*
X2190000Y302420D01*
X2190000Y230000D01*
X2390000Y230000D01*
X2390000Y330000D01*
G37*
G36*
X2213340Y296100D02*
G01*
X2213340Y281140D01*
X2221660Y284020D01*
X2221660Y293220D01*
G37*
G36*
X-200000Y-590000D02*
G01*
X-200000Y-593400D01*
X192860Y-593400D01*
X192860Y-640939D01*
X100000Y-640939D01*
X100000Y-593400D01*
X96420Y-593400D01*
X96420Y-640939D01*
X3580Y-640939D01*
X3580Y-593400D01*
X-3580Y-593400D01*
X-3580Y-640939D01*
X-96420Y-640939D01*
X-96420Y-593400D01*
X-100000Y-593400D01*
X-100000Y-640939D01*
X-192860Y-640939D01*
X-192860Y-593400D01*
X-200000Y-593400D01*
X-200000Y-681700D01*
X-171420Y-681700D01*
X-171420Y-669820D01*
X-171140Y-665200D01*
X-170380Y-661420D01*
X-169240Y-658860D01*
X-167860Y-657920D01*
X-166480Y-658600D01*
X-165340Y-660420D01*
X-164560Y-663120D01*
X-164100Y-669140D01*
X-163580Y-671320D01*
X-162780Y-672960D01*
X-161759Y-674080D01*
X-160580Y-674659D01*
X-159280Y-674720D01*
X-157940Y-674280D01*
X-156580Y-673340D01*
X-155300Y-671900D01*
X-154120Y-669980D01*
X-153100Y-667580D01*
X-152320Y-664720D01*
X-150180Y-654520D01*
X-141880Y-654520D01*
X-139220Y-654659D01*
X-136780Y-655040D01*
X-134580Y-655660D01*
X-132580Y-656540D01*
X-130820Y-657660D01*
X-129280Y-659020D01*
X-127980Y-660620D01*
X-126920Y-662460D01*
X-126080Y-664539D01*
X-125480Y-666860D01*
X-125120Y-669400D01*
X-125000Y-672180D01*
X-125033Y-672960D01*
X-71420Y-672960D01*
X-71420Y-670879D01*
X-71220Y-668720D01*
X-70800Y-666560D01*
X-70180Y-664460D01*
X-69380Y-662460D01*
X-68400Y-660660D01*
X-67240Y-659080D01*
X-65920Y-657800D01*
X-60420Y-653460D01*
X-52660Y-660840D01*
X-39260Y-652880D01*
X-33020Y-656600D01*
X-31740Y-657560D01*
X-30520Y-658880D01*
X-29360Y-660500D01*
X-28189Y-662560D01*
X25000Y-662560D01*
X25000Y-657920D01*
X38980Y-657920D01*
X41840Y-657840D01*
X44580Y-657580D01*
X47160Y-657200D01*
X49480Y-656680D01*
X51500Y-656040D01*
X53140Y-655320D01*
X54360Y-654539D01*
X55060Y-653680D01*
X57140Y-649440D01*
X59220Y-653680D01*
X60439Y-655320D01*
X62180Y-656680D01*
X64240Y-657580D01*
X68340Y-658199D01*
X69940Y-658920D01*
X71020Y-660000D01*
X71420Y-661320D01*
X71000Y-662640D01*
X69860Y-663720D01*
X68160Y-664440D01*
X66080Y-664720D01*
X60720Y-664720D01*
X60720Y-674900D01*
X60420Y-678860D01*
X59640Y-682099D01*
X58480Y-684300D01*
X57060Y-685100D01*
X125000Y-685100D01*
X125000Y-674320D01*
X125120Y-672039D01*
X125460Y-669659D01*
X126020Y-667240D01*
X126740Y-664900D01*
X127620Y-662660D01*
X128620Y-660600D01*
X129720Y-658820D01*
X130920Y-657340D01*
X132360Y-656000D01*
X133960Y-654820D01*
X135700Y-653820D01*
X137560Y-653000D01*
X139520Y-652340D01*
X141600Y-651840D01*
X143720Y-651520D01*
X145920Y-651360D01*
X148160Y-651400D01*
X150400Y-651580D01*
X152680Y-651960D01*
X154920Y-652500D01*
X157140Y-653220D01*
X159320Y-654100D01*
X161439Y-655180D01*
X163500Y-656420D01*
X171420Y-661700D01*
X171420Y-685100D01*
X57060Y-685100D01*
X55599Y-684900D01*
X53760Y-684320D01*
X51620Y-683420D01*
X49220Y-682240D01*
X46660Y-680819D01*
X41240Y-677460D01*
X35880Y-673680D01*
X31080Y-669880D01*
X29060Y-668080D01*
X27380Y-666400D01*
X26100Y-664880D01*
X25280Y-663600D01*
X25000Y-662560D01*
X-28189Y-662560D01*
X-27360Y-664400D01*
X-26600Y-666560D01*
X-26020Y-668780D01*
X-25660Y-671000D01*
X-25500Y-674000D01*
X-25620Y-676520D01*
X-25980Y-678520D01*
X-26560Y-680040D01*
X-27280Y-681040D01*
X-28120Y-681500D01*
X-29020Y-681420D01*
X-29940Y-680800D01*
X-30820Y-679620D01*
X-31620Y-677880D01*
X-32300Y-675540D01*
X-33280Y-669980D01*
X-34020Y-667680D01*
X-34960Y-665759D01*
X-36080Y-664200D01*
X-37280Y-663060D01*
X-38580Y-662340D01*
X-39880Y-662060D01*
X-41180Y-662220D01*
X-42420Y-662860D01*
X-43540Y-663980D01*
X-44520Y-665600D01*
X-46320Y-670759D01*
X-47480Y-672900D01*
X-48720Y-674200D01*
X-50000Y-674620D01*
X-51280Y-674200D01*
X-52520Y-672920D01*
X-53680Y-670780D01*
X-54700Y-667780D01*
X-55800Y-665020D01*
X-57260Y-663259D01*
X-58940Y-662580D01*
X-60759Y-663040D01*
X-62220Y-664620D01*
X-63060Y-667099D01*
X-63259Y-670180D01*
X-62720Y-673580D01*
X-62200Y-676240D01*
X-62120Y-678439D01*
X-62480Y-680120D01*
X-63200Y-681220D01*
X-64260Y-681760D01*
X-65620Y-681660D01*
X-67220Y-680900D01*
X-69040Y-679440D01*
X-70000Y-678220D01*
X-70720Y-676700D01*
X-71180Y-674920D01*
X-71420Y-672960D01*
X-125033Y-672960D01*
X-125120Y-675000D01*
X-125480Y-677320D01*
X-126020Y-679120D01*
X-126700Y-680400D01*
X-127480Y-681180D01*
X-128340Y-681460D01*
X-129240Y-681220D01*
X-130120Y-680480D01*
X-130960Y-679220D01*
X-131700Y-677440D01*
X-132340Y-675160D01*
X-132800Y-672360D01*
X-133640Y-668560D01*
X-135100Y-665600D01*
X-137020Y-663700D01*
X-139280Y-663020D01*
X-141560Y-663700D01*
X-143480Y-665600D01*
X-144920Y-668560D01*
X-145780Y-672360D01*
X-146900Y-681700D01*
X-200000Y-681700D01*
X-200000Y-719060D01*
X-171860Y-719060D01*
X-169640Y-693580D01*
X-158780Y-693060D01*
X-154580Y-692520D01*
X-150340Y-691680D01*
X-146580Y-690660D01*
X-143160Y-689460D01*
X-141340Y-689080D01*
X-139580Y-688940D01*
X-137900Y-689020D01*
X-136300Y-689360D01*
X-134780Y-689900D01*
X-133340Y-690680D01*
X-132000Y-691660D01*
X-130780Y-692860D01*
X-129660Y-694260D01*
X-128660Y-695860D01*
X-127800Y-697660D01*
X-127060Y-699640D01*
X-126440Y-701820D01*
X-125980Y-704160D01*
X-125680Y-706660D01*
X-124560Y-719060D01*
X-71860Y-719060D01*
X-69640Y-693580D01*
X-58780Y-693060D01*
X-54580Y-692520D01*
X-50340Y-691680D01*
X-46580Y-690660D01*
X-43160Y-689460D01*
X-41340Y-689080D01*
X-39580Y-688940D01*
X-37900Y-689020D01*
X-36300Y-689360D01*
X-34780Y-689900D01*
X-33340Y-690680D01*
X-32000Y-691660D01*
X-30780Y-692860D01*
X-29660Y-694260D01*
X-28660Y-695860D01*
X-27799Y-697660D01*
X-27060Y-699640D01*
X-26440Y-701820D01*
X-25980Y-704160D01*
X-25680Y-706660D01*
X-24560Y-719060D01*
X24560Y-719060D01*
X26780Y-693580D01*
X37640Y-693060D01*
X41860Y-692520D01*
X46080Y-691680D01*
X49840Y-690660D01*
X53259Y-689460D01*
X55080Y-689080D01*
X56840Y-688940D01*
X58520Y-689020D01*
X60140Y-689360D01*
X61660Y-689900D01*
X63080Y-690680D01*
X64420Y-691660D01*
X65640Y-692860D01*
X66760Y-694260D01*
X67760Y-695860D01*
X68640Y-697660D01*
X69380Y-699640D01*
X69980Y-701820D01*
X70440Y-704160D01*
X70760Y-706660D01*
X71860Y-719060D01*
X125000Y-719060D01*
X125000Y-714599D01*
X125340Y-713540D01*
X126340Y-712300D01*
X127899Y-710879D01*
X129980Y-709360D01*
X132500Y-707760D01*
X135380Y-706140D01*
X138560Y-704560D01*
X141960Y-703040D01*
X158920Y-695960D01*
X138860Y-695520D01*
X136100Y-695380D01*
X131520Y-694920D01*
X128200Y-694280D01*
X127000Y-693920D01*
X126100Y-693540D01*
X125480Y-693139D01*
X125160Y-692720D01*
X125120Y-692300D01*
X125360Y-691860D01*
X125860Y-691440D01*
X127700Y-690600D01*
X130559Y-689860D01*
X134420Y-689240D01*
X139260Y-688780D01*
X145000Y-688520D01*
X171420Y-688500D01*
X171420Y-693160D01*
X171080Y-694240D01*
X170100Y-695520D01*
X168520Y-696979D01*
X166439Y-698540D01*
X163939Y-700160D01*
X161060Y-701800D01*
X157880Y-703400D01*
X154460Y-704920D01*
X137500Y-712039D01*
X157880Y-712240D01*
X161060Y-712460D01*
X163939Y-712800D01*
X166439Y-713220D01*
X168520Y-713740D01*
X170100Y-714340D01*
X171080Y-714980D01*
X171420Y-715660D01*
X171220Y-716140D01*
X170620Y-716580D01*
X169640Y-717000D01*
X168320Y-717400D01*
X164740Y-718080D01*
X160060Y-718600D01*
X154480Y-718940D01*
X148220Y-719060D01*
X-200000Y-719060D01*
X-200000Y-756420D01*
X-171860Y-756420D01*
X-170760Y-744020D01*
X-170400Y-741340D01*
X-169840Y-738760D01*
X-169100Y-736320D01*
X-168200Y-734080D01*
X-167160Y-732060D01*
X-165980Y-730320D01*
X-164720Y-728920D01*
X-163400Y-727900D01*
X-157140Y-724180D01*
X-150900Y-727900D01*
X-149620Y-728840D01*
X-148380Y-730060D01*
X-147220Y-731520D01*
X-146140Y-733180D01*
X-145220Y-734960D01*
X-144440Y-736840D01*
X-143860Y-738740D01*
X-143520Y-740620D01*
X-142380Y-749620D01*
X-133700Y-749620D01*
X-130320Y-749880D01*
X-127560Y-750620D01*
X-125680Y-751700D01*
X-125000Y-753020D01*
X-125200Y-753480D01*
X-125820Y-753940D01*
X-126800Y-754360D01*
X-128140Y-754760D01*
X-131760Y-755440D01*
X-136480Y-755960D01*
X-142100Y-756300D01*
X-148420Y-756420D01*
X-71860Y-756420D01*
X-70760Y-744020D01*
X-70400Y-741340D01*
X-69840Y-738760D01*
X-69100Y-736320D01*
X-68200Y-734080D01*
X-67160Y-732060D01*
X-65980Y-730320D01*
X-64720Y-728920D01*
X-63400Y-727900D01*
X-57140Y-724180D01*
X-50900Y-727900D01*
X-49620Y-728840D01*
X-48380Y-730060D01*
X-47220Y-731520D01*
X-46140Y-733180D01*
X-45220Y-734960D01*
X-44440Y-736840D01*
X-43860Y-738740D01*
X-43520Y-740620D01*
X-42380Y-749620D01*
X-33700Y-749620D01*
X-30320Y-749880D01*
X-27559Y-750620D01*
X-25680Y-751700D01*
X-25000Y-753020D01*
X-25200Y-753480D01*
X-25820Y-753940D01*
X-26800Y-754360D01*
X-28140Y-754760D01*
X-31760Y-755440D01*
X-36480Y-755960D01*
X-42100Y-756300D01*
X-48420Y-756420D01*
X24560Y-756420D01*
X25680Y-744020D01*
X26020Y-741340D01*
X26580Y-738760D01*
X27320Y-736320D01*
X28240Y-734080D01*
X29280Y-732060D01*
X30440Y-730320D01*
X31700Y-728920D01*
X33040Y-727900D01*
X39280Y-724180D01*
X45540Y-727900D01*
X46820Y-728840D01*
X48060Y-730060D01*
X49220Y-731520D01*
X50279Y-733180D01*
X51220Y-734960D01*
X52126Y-737320D01*
X125820Y-737320D01*
X126020Y-734860D01*
X126480Y-732580D01*
X127200Y-730540D01*
X128200Y-728840D01*
X129460Y-727560D01*
X130960Y-726760D01*
X135160Y-725460D01*
X133220Y-732460D01*
X132820Y-735580D01*
X133160Y-738900D01*
X134160Y-742020D01*
X135720Y-744539D01*
X137440Y-746100D01*
X139540Y-747340D01*
X141960Y-748319D01*
X144580Y-749000D01*
X147320Y-749400D01*
X150100Y-749500D01*
X152800Y-749340D01*
X155360Y-748880D01*
X157660Y-748139D01*
X159620Y-747120D01*
X161140Y-745819D01*
X162120Y-744260D01*
X163260Y-741180D01*
X163920Y-738640D01*
X164100Y-736640D01*
X163780Y-735080D01*
X162960Y-733940D01*
X161580Y-733199D01*
X159640Y-732780D01*
X157140Y-732640D01*
X154360Y-733040D01*
X152080Y-734120D01*
X150560Y-735740D01*
X150000Y-737740D01*
X149720Y-739720D01*
X148960Y-741340D01*
X147820Y-742420D01*
X146420Y-742820D01*
X145040Y-742140D01*
X143900Y-740280D01*
X143140Y-737520D01*
X142860Y-734140D01*
X142860Y-725440D01*
X169640Y-727540D01*
X170760Y-735020D01*
X170900Y-736660D01*
X170880Y-738460D01*
X170720Y-740380D01*
X170400Y-742340D01*
X169960Y-744280D01*
X169400Y-746160D01*
X168720Y-747900D01*
X167960Y-749440D01*
X164040Y-756420D01*
X150120Y-756420D01*
X147100Y-756300D01*
X144120Y-756000D01*
X141240Y-755520D01*
X138500Y-754860D01*
X136000Y-754040D01*
X133780Y-753100D01*
X131900Y-752060D01*
X130420Y-750900D01*
X128960Y-749180D01*
X127780Y-747140D01*
X126880Y-744840D01*
X126240Y-742380D01*
X125900Y-739860D01*
X125820Y-737320D01*
X52126Y-737320D01*
X52560Y-738740D01*
X52920Y-740620D01*
X54040Y-749620D01*
X62740Y-749620D01*
X66120Y-749880D01*
X68880Y-750620D01*
X70740Y-751700D01*
X71420Y-753020D01*
X71220Y-753480D01*
X70620Y-753940D01*
X69620Y-754360D01*
X68300Y-754760D01*
X64680Y-755440D01*
X59960Y-755960D01*
X54340Y-756300D01*
X48000Y-756420D01*
X-200000Y-756420D01*
X-200000Y-770000D01*
X200000Y-770000D01*
X200000Y-590000D01*
G37*
G36*
X49120Y-600180D02*
G01*
X57240Y-609480D01*
X51820Y-613740D01*
X49900Y-615500D01*
X48400Y-617400D01*
X47320Y-619380D01*
X46680Y-621380D01*
X46500Y-623340D01*
X46800Y-625220D01*
X47560Y-626960D01*
X48800Y-628500D01*
X50180Y-629360D01*
X52160Y-630080D01*
X54460Y-630540D01*
X56840Y-630700D01*
X62500Y-630660D01*
X52060Y-624380D01*
X58620Y-617500D01*
X60260Y-615540D01*
X61520Y-613540D01*
X62420Y-611540D01*
X62939Y-609580D01*
X63120Y-607700D01*
X62939Y-605940D01*
X62420Y-604360D01*
X61580Y-602960D01*
X60400Y-601800D01*
X58920Y-600940D01*
X57120Y-600380D01*
X55039Y-600180D01*
G37*
G36*
X-47300Y-600180D02*
G01*
X-39200Y-609480D01*
X-44600Y-613740D01*
X-46520Y-615500D01*
X-48040Y-617400D01*
X-49100Y-619380D01*
X-49740Y-621380D01*
X-49920Y-623340D01*
X-49640Y-625220D01*
X-48860Y-626960D01*
X-47619Y-628500D01*
X-46240Y-629360D01*
X-44280Y-630080D01*
X-41960Y-630540D01*
X-39580Y-630700D01*
X-33920Y-630660D01*
X-44360Y-624380D01*
X-37820Y-617500D01*
X-36180Y-615540D01*
X-34900Y-613540D01*
X-34020Y-611540D01*
X-33480Y-609580D01*
X-33320Y-607700D01*
X-33500Y-605940D01*
X-34000Y-604360D01*
X-34860Y-602960D01*
X-36020Y-601800D01*
X-37520Y-600940D01*
X-39300Y-600380D01*
X-41400Y-600180D01*
G37*
G36*
X148220Y-657920D02*
G01*
X145960Y-658040D01*
X143820Y-658420D01*
X141820Y-659000D01*
X139960Y-659800D01*
X138260Y-660800D01*
X136720Y-662000D01*
X135400Y-663360D01*
X134260Y-664860D01*
X133360Y-666520D01*
X132700Y-668300D01*
X132280Y-670200D01*
X132140Y-672180D01*
X132140Y-678300D01*
X164280Y-678300D01*
X164280Y-672180D01*
X164140Y-670200D01*
X163740Y-668300D01*
X163060Y-666520D01*
X162160Y-664860D01*
X161040Y-663360D01*
X159700Y-662000D01*
X158180Y-660800D01*
X156460Y-659800D01*
X154600Y-659000D01*
X152600Y-658420D01*
X150460Y-658040D01*
G37*
G36*
X44640Y-664720D02*
G01*
X41180Y-664820D01*
X38340Y-665100D01*
X36420Y-665520D01*
X35720Y-666020D01*
X36420Y-666979D01*
X38340Y-668580D01*
X41180Y-670639D01*
X44640Y-672900D01*
X53580Y-678460D01*
X53580Y-664720D01*
G37*
G36*
X57140Y-696979D02*
G01*
X54980Y-697580D01*
X53019Y-699220D01*
X51500Y-701660D01*
X50640Y-704620D01*
X49500Y-712260D01*
X64780Y-712260D01*
X63640Y-704620D01*
X62779Y-701660D01*
X61260Y-699220D01*
X59320Y-697580D01*
G37*
G36*
X-39280Y-696979D02*
G01*
X-41460Y-697580D01*
X-43400Y-699220D01*
X-44920Y-701660D01*
X-45780Y-704620D01*
X-46920Y-712260D01*
X-31640Y-712260D01*
X-32780Y-704620D01*
X-33660Y-701660D01*
X-35160Y-699220D01*
X-37120Y-697580D01*
G37*
G36*
X-139280Y-696979D02*
G01*
X-141460Y-697580D01*
X-143400Y-699220D01*
X-144920Y-701660D01*
X-145780Y-704620D01*
X-146920Y-712260D01*
X-131640Y-712260D01*
X-132780Y-704620D01*
X-133660Y-701660D01*
X-135160Y-699220D01*
X-137120Y-697580D01*
G37*
G36*
X37500Y-698680D02*
G01*
X35400Y-699220D01*
X33700Y-700660D01*
X32559Y-702820D01*
X32140Y-705480D01*
X32559Y-708120D01*
X33700Y-710280D01*
X35400Y-711740D01*
X37500Y-712260D01*
X39600Y-711740D01*
X41300Y-710280D01*
X42440Y-708120D01*
X42859Y-705480D01*
X42440Y-702820D01*
X41300Y-700660D01*
X39600Y-699220D01*
G37*
G36*
X-58920Y-698680D02*
G01*
X-61020Y-699220D01*
X-62720Y-700660D01*
X-63860Y-702820D01*
X-64280Y-705480D01*
X-63860Y-708120D01*
X-62720Y-710280D01*
X-61020Y-711740D01*
X-58920Y-712260D01*
X-56840Y-711740D01*
X-55140Y-710280D01*
X-54000Y-708120D01*
X-53580Y-705480D01*
X-54000Y-702820D01*
X-55140Y-700660D01*
X-56840Y-699220D01*
G37*
G36*
X-158920Y-698680D02*
G01*
X-161020Y-699220D01*
X-162719Y-700660D01*
X-163860Y-702820D01*
X-164280Y-705480D01*
X-163860Y-708120D01*
X-162719Y-710280D01*
X-161020Y-711740D01*
X-158920Y-712260D01*
X-156840Y-711740D01*
X-155140Y-710280D01*
X-154000Y-708120D01*
X-153580Y-705480D01*
X-154000Y-702820D01*
X-155140Y-700660D01*
X-156840Y-699220D01*
G37*
G36*
X39280Y-734340D02*
G01*
X37120Y-734940D01*
X35160Y-736580D01*
X33660Y-739020D01*
X32780Y-741979D01*
X31640Y-749620D01*
X46920Y-749620D01*
X45780Y-741979D01*
X44920Y-739020D01*
X43400Y-736580D01*
X41460Y-734940D01*
G37*
G36*
X-57140Y-734340D02*
G01*
X-59320Y-734940D01*
X-61260Y-736580D01*
X-62779Y-739020D01*
X-63640Y-741979D01*
X-64780Y-749620D01*
X-49500Y-749620D01*
X-50640Y-741979D01*
X-51520Y-739020D01*
X-53019Y-736580D01*
X-54980Y-734940D01*
G37*
G36*
X-157140Y-734340D02*
G01*
X-159320Y-734940D01*
X-161260Y-736580D01*
X-162780Y-739020D01*
X-163640Y-741979D01*
X-164780Y-749620D01*
X-149500Y-749620D01*
X-150640Y-741979D01*
X-151520Y-739020D01*
X-153020Y-736580D01*
X-154980Y-734940D01*
G37*
G36*
X-199480Y773100D02*
G01*
X-199480Y751600D01*
X-169800Y751600D01*
X-169540Y754040D01*
X-168980Y756320D01*
X-168140Y758360D01*
X-167020Y760080D01*
X-165620Y761380D01*
X-163960Y762220D01*
X-159080Y763720D01*
X-161560Y756360D01*
X-162140Y754100D01*
X-162320Y751900D01*
X-162140Y749800D01*
X-161620Y747800D01*
X-160760Y745980D01*
X-159600Y744300D01*
X-158140Y742820D01*
X-156420Y741560D01*
X-154440Y740540D01*
X-152240Y739780D01*
X-149820Y739300D01*
X-147220Y739140D01*
X-144620Y739300D01*
X-142220Y739780D01*
X-140000Y740540D01*
X-138040Y741560D01*
X-136320Y742820D01*
X-134860Y744300D01*
X-133700Y745980D01*
X-132840Y747800D01*
X-132300Y749800D01*
X-132120Y751900D01*
X-132320Y754100D01*
X-132900Y756360D01*
X-135360Y763720D01*
X-130480Y762220D01*
X-128820Y761380D01*
X-127420Y760080D01*
X-126320Y758360D01*
X-125480Y756320D01*
X-124920Y754040D01*
X-124640Y751600D01*
X-124660Y749060D01*
X-125060Y746200D01*
X-72840Y746200D01*
X-72620Y749200D01*
X-71560Y757820D01*
X-54560Y760100D01*
X-33720Y741280D01*
X-33720Y752099D01*
X-33420Y756300D01*
X-32660Y759740D01*
X-31500Y762060D01*
X-30099Y762920D01*
X-29380Y762600D01*
X-28700Y761720D01*
X-28100Y760300D01*
X-27559Y758439D01*
X-27120Y756160D01*
X-26721Y752740D01*
X67180Y752740D01*
X67180Y757820D01*
X67480Y759800D01*
X68240Y761420D01*
X69400Y762520D01*
X70800Y762920D01*
X71520Y762600D01*
X72200Y761720D01*
X72800Y760300D01*
X73340Y758439D01*
X73780Y756160D01*
X74120Y753580D01*
X74320Y750699D01*
X74371Y746540D01*
X124980Y746540D01*
X125079Y748780D01*
X125500Y750980D01*
X126199Y753080D01*
X127180Y755040D01*
X128460Y756780D01*
X130000Y758240D01*
X131820Y759400D01*
X133900Y760360D01*
X136040Y761160D01*
X138240Y761820D01*
X140460Y762340D01*
X142720Y762720D01*
X144960Y762960D01*
X147220Y763060D01*
X149440Y763040D01*
X151640Y762880D01*
X153800Y762620D01*
X155880Y762240D01*
X157900Y761740D01*
X159840Y761120D01*
X161680Y760400D01*
X163400Y759580D01*
X165000Y758660D01*
X166460Y757660D01*
X167760Y756540D01*
X168920Y755360D01*
X169880Y754080D01*
X170660Y752720D01*
X171220Y751280D01*
X171580Y749780D01*
X171700Y748199D01*
X171620Y746160D01*
X171360Y744280D01*
X170960Y742560D01*
X170380Y740960D01*
X169620Y739539D01*
X168680Y738240D01*
X167540Y737080D01*
X166220Y736060D01*
X164720Y735160D01*
X163000Y734400D01*
X161080Y733760D01*
X158960Y733240D01*
X156620Y732860D01*
X154060Y732580D01*
X151280Y732400D01*
X148260Y732360D01*
X145220Y732440D01*
X142200Y732680D01*
X139280Y733060D01*
X136560Y733560D01*
X134120Y734160D01*
X132020Y734840D01*
X130340Y735620D01*
X129160Y736420D01*
X127680Y738120D01*
X126519Y740020D01*
X125700Y742099D01*
X125180Y744280D01*
X124980Y746540D01*
X74371Y746540D01*
X74320Y744560D01*
X74120Y741700D01*
X73780Y739100D01*
X73340Y736840D01*
X72800Y734980D01*
X72200Y733560D01*
X71520Y732660D01*
X70800Y732360D01*
X69400Y732880D01*
X68240Y734340D01*
X67480Y736500D01*
X67180Y739140D01*
X67180Y745939D01*
X37580Y745939D01*
X39620Y740960D01*
X40160Y738860D01*
X40100Y736880D01*
X39520Y735220D01*
X38420Y734080D01*
X36960Y733840D01*
X35300Y734500D01*
X33540Y735920D01*
X31800Y737940D01*
X30219Y740360D01*
X28920Y743040D01*
X28020Y745800D01*
X27660Y748480D01*
X27540Y752740D01*
X-26721Y752740D01*
X-26580Y750699D01*
X-26500Y747640D01*
X-26700Y741700D01*
X-27240Y736840D01*
X-27620Y734980D01*
X-28060Y733560D01*
X-28520Y732660D01*
X-29040Y732360D01*
X-29780Y732580D01*
X-30940Y733199D01*
X-34240Y735480D01*
X-38500Y738860D01*
X-43220Y743000D01*
X-54860Y753620D01*
X-66960Y749260D01*
X-65080Y742500D01*
X-64580Y739880D01*
X-64540Y737740D01*
X-65000Y736280D01*
X-65880Y735740D01*
X-67740Y735980D01*
X-69300Y736660D01*
X-70600Y737780D01*
X-71620Y739300D01*
X-72340Y741240D01*
X-72740Y743540D01*
X-72840Y746200D01*
X-125060Y746200D01*
X-125600Y744060D01*
X-126519Y741740D01*
X-127739Y739659D01*
X-129280Y737880D01*
X-130700Y736760D01*
X-132500Y735740D01*
X-134620Y734800D01*
X-136960Y733980D01*
X-139480Y733300D01*
X-142060Y732780D01*
X-144680Y732460D01*
X-147220Y732360D01*
X-149780Y732460D01*
X-152380Y732780D01*
X-154980Y733300D01*
X-157500Y733980D01*
X-159840Y734800D01*
X-161960Y735740D01*
X-163760Y736760D01*
X-165180Y737880D01*
X-166720Y739659D01*
X-167940Y741740D01*
X-168860Y744060D01*
X-169480Y746520D01*
X-169780Y749060D01*
X-169800Y751600D01*
X-199480Y751600D01*
X-199480Y714200D01*
X-169840Y714200D01*
X-169720Y716600D01*
X-169320Y718860D01*
X-168600Y720860D01*
X-167580Y722540D01*
X-166260Y723820D01*
X-164620Y724640D01*
X-160400Y725939D01*
X-162340Y718940D01*
X-162780Y716720D01*
X-162820Y714560D01*
X-162500Y712480D01*
X-161840Y710500D01*
X-160880Y708660D01*
X-159620Y707000D01*
X-158100Y705520D01*
X-156320Y704240D01*
X-154340Y703199D01*
X-152140Y702440D01*
X-149760Y701960D01*
X-147220Y701780D01*
X-144700Y701960D01*
X-142320Y702440D01*
X-140120Y703199D01*
X-138120Y704240D01*
X-136360Y705520D01*
X-134820Y707000D01*
X-133560Y708660D01*
X-132600Y710500D01*
X-131960Y712480D01*
X-131640Y714560D01*
X-131680Y716720D01*
X-132100Y718940D01*
X-134040Y725939D01*
X-129820Y724640D01*
X-128300Y723860D01*
X-127020Y722560D01*
X-126020Y720860D01*
X-125280Y718820D01*
X-124820Y716540D01*
X-124640Y714100D01*
X-124700Y711560D01*
X-125060Y709020D01*
X-125700Y706560D01*
X-126600Y704280D01*
X-127800Y702240D01*
X-129280Y700520D01*
X-130820Y699260D01*
X-132620Y698160D01*
X-134600Y697240D01*
X-136740Y696480D01*
X-139040Y695920D01*
X-141420Y695500D01*
X-143900Y695260D01*
X-146400Y695200D01*
X-148920Y695300D01*
X-151420Y695580D01*
X-153860Y696020D01*
X-156220Y696620D01*
X-158480Y697400D01*
X-160580Y698360D01*
X-162500Y699479D01*
X-164220Y700759D01*
X-165900Y702500D01*
X-167280Y704539D01*
X-168359Y706800D01*
X-169160Y709220D01*
X-169640Y711720D01*
X-169840Y714200D01*
X-199480Y714200D01*
X-199480Y695000D01*
X-73780Y695000D01*
X-71560Y720460D01*
X-60599Y720980D01*
X-56340Y721540D01*
X-52080Y722380D01*
X-50080Y722860D01*
X-44840Y724580D01*
X-43000Y724980D01*
X-41220Y725120D01*
X-39520Y725020D01*
X-37900Y724700D01*
X-36360Y724140D01*
X-34920Y723379D01*
X-33580Y722380D01*
X-32340Y721200D01*
X-31220Y719780D01*
X-30200Y718180D01*
X-29320Y716400D01*
X-28580Y714400D01*
X-27960Y712240D01*
X-27500Y709900D01*
X-27180Y707380D01*
X-26060Y695000D01*
X27120Y695000D01*
X29340Y720460D01*
X40300Y720980D01*
X44560Y721540D01*
X48820Y722380D01*
X50820Y722860D01*
X56060Y724580D01*
X57900Y724980D01*
X59680Y725120D01*
X61380Y725020D01*
X63000Y724700D01*
X64540Y724140D01*
X65980Y723379D01*
X67320Y722380D01*
X68560Y721200D01*
X69680Y719780D01*
X70700Y718180D01*
X71580Y716400D01*
X72320Y714400D01*
X72940Y712240D01*
X73400Y709900D01*
X73720Y707380D01*
X74840Y695000D01*
X124420Y695000D01*
X126640Y720460D01*
X137600Y720980D01*
X141840Y721540D01*
X146120Y722380D01*
X148120Y722860D01*
X153360Y724580D01*
X155200Y724980D01*
X156980Y725120D01*
X158680Y725020D01*
X160300Y724700D01*
X161840Y724140D01*
X163280Y723379D01*
X164620Y722380D01*
X165859Y721200D01*
X166980Y719780D01*
X168000Y718180D01*
X168880Y716400D01*
X169620Y714400D01*
X170240Y712240D01*
X170700Y709900D01*
X171000Y707380D01*
X172120Y695000D01*
X-199480Y695000D01*
X-199480Y690100D01*
X-171240Y690100D01*
X-171000Y690600D01*
X-170380Y690980D01*
X-169380Y691260D01*
X-167979Y691380D01*
X-166140Y691340D01*
X-164300Y691160D01*
X-159960Y690340D01*
X-154960Y689000D01*
X-149600Y687260D01*
X-144120Y685260D01*
X-138820Y683060D01*
X-133980Y680840D01*
X-129860Y678640D01*
X-128160Y677620D01*
X-126760Y676640D01*
X-125660Y675740D01*
X-124940Y674920D01*
X-124580Y674200D01*
X-123580Y669280D01*
X-150454Y661040D01*
X-73360Y661040D01*
X-73360Y669240D01*
X-73180Y672860D01*
X-72700Y676620D01*
X-72020Y680100D01*
X-71160Y682820D01*
X-70500Y683980D01*
X-69520Y685020D01*
X-68220Y685939D01*
X-66680Y686720D01*
X-64900Y687340D01*
X-62900Y687820D01*
X-60759Y688100D01*
X-58460Y688199D01*
X-47939Y688199D01*
X-43620Y667820D01*
X-35060Y667820D01*
X-31740Y667560D01*
X-29020Y666820D01*
X-27180Y665740D01*
X-26500Y664419D01*
X-26720Y663960D01*
X-27320Y663520D01*
X-28300Y663080D01*
X-31300Y662340D01*
X-35500Y661720D01*
X-40700Y661300D01*
X-46700Y661060D01*
X27540Y661040D01*
X27540Y669240D01*
X27719Y672860D01*
X28200Y676620D01*
X28880Y680100D01*
X29740Y682820D01*
X30400Y683980D01*
X31380Y685020D01*
X32679Y685939D01*
X34220Y686720D01*
X36020Y687340D01*
X38000Y687820D01*
X40140Y688100D01*
X42440Y688199D01*
X52960Y688199D01*
X57280Y667820D01*
X65840Y667820D01*
X69160Y667560D01*
X71880Y666820D01*
X73720Y665740D01*
X74400Y664419D01*
X74180Y663960D01*
X73580Y663520D01*
X72600Y663080D01*
X69600Y662340D01*
X65400Y661720D01*
X60199Y661300D01*
X54200Y661060D01*
X124840Y661040D01*
X124840Y669240D01*
X125020Y672860D01*
X125480Y676620D01*
X126180Y680100D01*
X127040Y682820D01*
X127700Y683980D01*
X128680Y685020D01*
X129980Y685939D01*
X131520Y686720D01*
X133300Y687340D01*
X135300Y687820D01*
X137440Y688100D01*
X139740Y688199D01*
X150260Y688199D01*
X154580Y667820D01*
X163140Y667820D01*
X166460Y667560D01*
X169180Y666820D01*
X171020Y665740D01*
X171700Y664419D01*
X171480Y663960D01*
X170880Y663520D01*
X169899Y663080D01*
X166900Y662340D01*
X162700Y661720D01*
X157500Y661300D01*
X151500Y661060D01*
X-150454Y661040D01*
X-170660Y654860D01*
X-170660Y659320D01*
X-170300Y660320D01*
X-169280Y661420D01*
X-167659Y662580D01*
X-165500Y663760D01*
X-162860Y664920D01*
X-159840Y666060D01*
X-156460Y667140D01*
X-149260Y669020D01*
X-146000Y669960D01*
X-143120Y670920D01*
X-140660Y671840D01*
X-138700Y672720D01*
X-137320Y673500D01*
X-136560Y674200D01*
X-136500Y674740D01*
X-137140Y675300D01*
X-138380Y676000D01*
X-142380Y677660D01*
X-147880Y679539D01*
X-157040Y682140D01*
X-159560Y682960D01*
X-163980Y684680D01*
X-167480Y686420D01*
X-168840Y687260D01*
X-169899Y688060D01*
X-170680Y688820D01*
X-171119Y689500D01*
X-171240Y690100D01*
X-199480Y690100D01*
X-199480Y644060D01*
X196920Y644060D01*
X196920Y599900D01*
X103219Y599900D01*
X103219Y644060D01*
X96020Y644060D01*
X96020Y599900D01*
X2320Y599900D01*
X2320Y644060D01*
X-1280Y644060D01*
X-1280Y599900D01*
X-94980Y599900D01*
X-94980Y644060D01*
X-102180Y644060D01*
X-102180Y599900D01*
X-195880Y599900D01*
X-195880Y644060D01*
X-199480Y644060D01*
X-199480Y593100D01*
X200520Y593100D01*
X200520Y773100D01*
G37*
G36*
X155600Y756120D02*
G01*
X153340Y755960D01*
X151720Y755440D01*
X150720Y754560D01*
X150320Y753319D01*
X150560Y751680D01*
X151400Y749659D01*
X152860Y747220D01*
X154920Y744380D01*
X159780Y738120D01*
X162460Y742200D01*
X163500Y744440D01*
X163900Y746780D01*
X163660Y749120D01*
X162900Y751300D01*
X161640Y753220D01*
X159960Y754760D01*
X157920Y755759D01*
G37*
G36*
X137080Y754460D02*
G01*
X135480Y754320D01*
X133780Y752920D01*
X132700Y751140D01*
X132180Y749120D01*
X132240Y746979D01*
X132820Y744900D01*
X133940Y743000D01*
X135540Y741440D01*
X137620Y740320D01*
X139920Y739680D01*
X142120Y739440D01*
X143920Y739580D01*
X145120Y740140D01*
X145760Y741700D01*
X145460Y743920D01*
X144440Y746500D01*
X142880Y749160D01*
X141000Y751580D01*
X139000Y753439D01*
G37*
G36*
X157280Y717080D02*
G01*
X155080Y716460D01*
X153120Y714820D01*
X151600Y712400D01*
X150720Y709419D01*
X149560Y701780D01*
X164980Y701780D01*
X163840Y709419D01*
X162960Y712400D01*
X161439Y714820D01*
X159460Y716460D01*
G37*
G36*
X137460Y717080D02*
G01*
X135960Y716460D01*
X134580Y714820D01*
X133440Y712400D01*
X132700Y709419D01*
X131560Y701780D01*
X143360Y701780D01*
X142220Y709419D01*
X141480Y712400D01*
X140340Y714820D01*
X138940Y716460D01*
G37*
G36*
X59980Y717080D02*
G01*
X57800Y716460D01*
X55820Y714820D01*
X54300Y712400D01*
X53420Y709419D01*
X52280Y701780D01*
X67680Y701780D01*
X66540Y709419D01*
X65660Y712400D01*
X64140Y714820D01*
X62180Y716460D01*
G37*
G36*
X40160Y717080D02*
G01*
X38680Y716460D01*
X37280Y714820D01*
X36140Y712400D01*
X35400Y709419D01*
X34260Y701780D01*
X46060Y701780D01*
X44920Y709419D01*
X44180Y712400D01*
X43040Y714820D01*
X41660Y716460D01*
G37*
G36*
X-40920Y717080D02*
G01*
X-43099Y716460D01*
X-45080Y714820D01*
X-46600Y712400D01*
X-47480Y709419D01*
X-48620Y701780D01*
X-33220Y701780D01*
X-34360Y709419D01*
X-35240Y712400D01*
X-36760Y714820D01*
X-38740Y716460D01*
G37*
G36*
X-60740Y717080D02*
G01*
X-62220Y716460D01*
X-63620Y714820D01*
X-64760Y712400D01*
X-65500Y709419D01*
X-66640Y701780D01*
X-54840Y701780D01*
X-55980Y709419D01*
X-56720Y712400D01*
X-57859Y714820D01*
X-59240Y716460D01*
G37*
G36*
X139260Y679720D02*
G01*
X137100Y679240D01*
X135160Y677960D01*
X133620Y676080D01*
X132740Y673760D01*
X131520Y667820D01*
X147000Y667820D01*
X145780Y673760D01*
X144900Y676080D01*
X143360Y677960D01*
X141420Y679240D01*
G37*
G36*
X41960Y679720D02*
G01*
X39800Y679240D01*
X37860Y677960D01*
X36340Y676080D01*
X35440Y673760D01*
X34220Y667820D01*
X49700Y667820D01*
X48480Y673760D01*
X47600Y676080D01*
X46060Y677960D01*
X44120Y679240D01*
G37*
G36*
X-58940Y679720D02*
G01*
X-61100Y679240D01*
X-63040Y677960D01*
X-64560Y676080D01*
X-65460Y673760D01*
X-66680Y667820D01*
X-51200Y667820D01*
X-52420Y673760D01*
X-53300Y676080D01*
X-54840Y677960D01*
X-56780Y679240D01*
G37*
G36*
X154680Y637200D02*
G01*
X148260Y637160D01*
X158800Y630880D01*
X152640Y624460D01*
X150440Y622000D01*
X148740Y619700D01*
X147540Y617560D01*
X146820Y615560D01*
X146600Y613720D01*
X146860Y612000D01*
X147620Y610420D01*
X148880Y608960D01*
X150240Y608080D01*
X152180Y607360D01*
X154460Y606880D01*
X156800Y606700D01*
X162320Y606700D01*
X153780Y614760D01*
X159560Y620780D01*
X161100Y622620D01*
X162220Y624500D01*
X162979Y626400D01*
X163380Y628260D01*
X163400Y630040D01*
X163100Y631720D01*
X162460Y633240D01*
X161500Y634580D01*
X160219Y635680D01*
X158660Y636520D01*
X156820Y637040D01*
G37*
G36*
X57400Y637200D02*
G01*
X50980Y637160D01*
X61500Y630880D01*
X55340Y624460D01*
X53140Y622000D01*
X51440Y619700D01*
X50240Y617560D01*
X49520Y615560D01*
X49300Y613720D01*
X49580Y612000D01*
X50320Y610420D01*
X51580Y608960D01*
X52939Y608080D01*
X54900Y607360D01*
X57160Y606880D01*
X59500Y606700D01*
X65020Y606700D01*
X56480Y614760D01*
X62260Y620780D01*
X63800Y622620D01*
X64920Y624500D01*
X65680Y626400D01*
X66080Y628260D01*
X66100Y630040D01*
X65800Y631720D01*
X65160Y633240D01*
X64200Y634580D01*
X62920Y635680D01*
X61360Y636520D01*
X59520Y637040D01*
G37*
G36*
X-294640Y950000D02*
G01*
X-294640Y946780D01*
X-246420Y946780D01*
X-246420Y863220D01*
X-288220Y863220D01*
X-288220Y946780D01*
X-294640Y946780D01*
X-294640Y824640D01*
X-252860Y824640D01*
X-252860Y818220D01*
X-281780Y818220D01*
X-281780Y824640D01*
X-294640Y824640D01*
X-294640Y770000D01*
X-240000Y770000D01*
X-240000Y950000D01*
G37*
G36*
X-268920Y921080D02*
G01*
X-270180Y920560D01*
X-271200Y919180D01*
X-271880Y917140D01*
X-272140Y914640D01*
X-272140Y908220D01*
X-278580Y908220D01*
X-281060Y907960D01*
X-283120Y907260D01*
X-284500Y906240D01*
X-285000Y905000D01*
X-284500Y903760D01*
X-283120Y902740D01*
X-281060Y902039D01*
X-278580Y901780D01*
X-272140Y901780D01*
X-272140Y895360D01*
X-271880Y892860D01*
X-271200Y890819D01*
X-270180Y889440D01*
X-268920Y888920D01*
X-267680Y889440D01*
X-266660Y890819D01*
X-265960Y892860D01*
X-265720Y895360D01*
X-265720Y901780D01*
X-259280Y901780D01*
X-256780Y902039D01*
X-254740Y902740D01*
X-253359Y903760D01*
X-252860Y905000D01*
X-253359Y906240D01*
X-254740Y907260D01*
X-256780Y907960D01*
X-259280Y908220D01*
X-265720Y908220D01*
X-265720Y914640D01*
X-265960Y917140D01*
X-266660Y919180D01*
X-267680Y920560D01*
G37*
G36*
X-295640Y-766020D02*
G01*
X-295640Y-769220D01*
X-247420Y-769220D01*
X-247420Y-852800D01*
X-289220Y-852800D01*
X-289220Y-769220D01*
X-295640Y-769220D01*
X-295640Y-891380D01*
X-253860Y-891380D01*
X-253860Y-897800D01*
X-282780Y-897800D01*
X-282780Y-891380D01*
X-295640Y-891380D01*
X-295640Y-946020D01*
X-241000Y-946020D01*
X-241000Y-766020D01*
G37*
G36*
X-269920Y-794940D02*
G01*
X-271180Y-795440D01*
X-272200Y-796840D01*
X-272880Y-798880D01*
X-273140Y-801380D01*
X-273140Y-807800D01*
X-279580Y-807800D01*
X-282060Y-808060D01*
X-284120Y-808740D01*
X-285500Y-809760D01*
X-286000Y-811020D01*
X-285500Y-812260D01*
X-284120Y-813280D01*
X-282060Y-813980D01*
X-279580Y-814220D01*
X-273140Y-814220D01*
X-273140Y-820660D01*
X-272880Y-823160D01*
X-272200Y-825200D01*
X-271180Y-826580D01*
X-269920Y-827080D01*
X-268680Y-826580D01*
X-267660Y-825200D01*
X-266960Y-823160D01*
X-266720Y-820660D01*
X-266720Y-814220D01*
X-260280Y-814220D01*
X-257780Y-813980D01*
X-255740Y-813280D01*
X-254360Y-812260D01*
X-253860Y-811020D01*
X-254360Y-809760D01*
X-255740Y-808740D01*
X-257780Y-808060D01*
X-260280Y-807800D01*
X-266720Y-807800D01*
X-266720Y-801380D01*
X-266960Y-798880D01*
X-267660Y-796840D01*
X-268680Y-795440D01*
G37*
G36*
X929000Y515100D02*
G01*
X929000Y497600D01*
X954960Y497600D01*
X956400Y497200D01*
X957780Y496140D01*
X958940Y494540D01*
X959720Y492600D01*
X961040Y487600D01*
X991960Y487600D01*
X993280Y492600D01*
X994060Y494540D01*
X995220Y496140D01*
X996600Y497200D01*
X998040Y497600D01*
X1001500Y497600D01*
X1001500Y470100D01*
X997740Y470100D01*
X996300Y470400D01*
X995100Y471200D01*
X994300Y472400D01*
X994000Y473860D01*
X994000Y477600D01*
X959000Y477600D01*
X959000Y473860D01*
X958700Y472400D01*
X957900Y471200D01*
X956700Y470400D01*
X955260Y470100D01*
X951500Y470100D01*
X951500Y497600D01*
X929000Y497600D01*
X929000Y427600D01*
X951500Y427600D01*
X951500Y447819D01*
X963780Y460100D01*
X989220Y460100D01*
X1001500Y447819D01*
X1001500Y427600D01*
X929000Y427600D01*
X929000Y387600D01*
X951500Y387600D01*
X951500Y410100D01*
X961500Y420100D01*
X974000Y420100D01*
X984000Y410100D01*
X984000Y397600D01*
X1001500Y397600D01*
X1001500Y387600D01*
X929000Y387600D01*
X929000Y380620D01*
X951500Y380620D01*
X994400Y378860D01*
X997960Y374000D01*
X999020Y372299D01*
X999900Y370439D01*
X1000560Y368459D01*
X1001020Y366400D01*
X1001300Y364300D01*
X1001360Y362180D01*
X1001220Y360100D01*
X1000879Y358100D01*
X1000360Y356200D01*
X999620Y354440D01*
X998700Y352879D01*
X997580Y351520D01*
X993640Y347600D01*
X951500Y347600D01*
X951500Y355100D01*
X988379Y355100D01*
X994620Y362600D01*
X988379Y370100D01*
X951500Y370100D01*
X951500Y380620D01*
X929000Y380620D01*
X929000Y332600D01*
X1029000Y332600D01*
X1029000Y515100D01*
G37*
G36*
X964180Y450100D02*
G01*
X960680Y443540D01*
X960000Y442100D01*
X959620Y440900D01*
X959539Y439940D01*
X959840Y439200D01*
X960560Y438620D01*
X961760Y438200D01*
X963480Y437920D01*
X965759Y437740D01*
X972220Y437600D01*
X984340Y437640D01*
X987240Y437740D01*
X989520Y437920D01*
X991240Y438200D01*
X992440Y438620D01*
X993160Y439200D01*
X993460Y439940D01*
X993379Y440900D01*
X993000Y442100D01*
X991420Y445260D01*
X988820Y450100D01*
G37*
G36*
X963319Y410540D02*
G01*
X961200Y407200D01*
X960360Y405640D01*
X959680Y403920D01*
X959220Y402200D01*
X959040Y400720D01*
X959000Y397600D01*
X976840Y397600D01*
X975240Y408860D01*
G37*
G36*
X770600Y-665200D02*
G01*
X770600Y-687700D01*
X818100Y-687700D01*
X818100Y-695200D01*
X805600Y-695200D01*
X805600Y-735780D01*
X823100Y-735780D01*
X823319Y-734460D01*
X824900Y-727880D01*
X830540Y-706480D01*
X833460Y-696100D01*
X836020Y-687400D01*
X838020Y-687700D01*
X1258100Y-687700D01*
X1258100Y-695200D01*
X1248100Y-695200D01*
X1248100Y-737700D01*
X1238100Y-737700D01*
X1238100Y-695200D01*
X1225600Y-695200D01*
X1225600Y-687700D01*
X1218100Y-687700D01*
X1218100Y-695200D01*
X1198100Y-695200D01*
X1198100Y-707700D01*
X1215600Y-707700D01*
X1215600Y-715200D01*
X1198100Y-715200D01*
X1198100Y-730200D01*
X1218100Y-730200D01*
X1218100Y-737700D01*
X1188100Y-737700D01*
X1188100Y-687700D01*
X1138100Y-687700D01*
X1138100Y-694920D01*
X1116860Y-696440D01*
X1115260Y-707700D01*
X1135600Y-707700D01*
X1135600Y-714900D01*
X1116860Y-716440D01*
X1116860Y-728940D01*
X1138100Y-730480D01*
X1138100Y-734980D01*
X1148100Y-734980D01*
X1148100Y-725639D01*
X1162700Y-731140D01*
X1166500Y-727980D01*
X1167980Y-726420D01*
X1168840Y-724780D01*
X1169120Y-723080D01*
X1168800Y-721420D01*
X1167940Y-719860D01*
X1166540Y-718420D01*
X1164640Y-717200D01*
X1159260Y-715140D01*
X1156520Y-713720D01*
X1154120Y-712039D01*
X1152060Y-710140D01*
X1150380Y-708080D01*
X1149140Y-705860D01*
X1148360Y-703560D01*
X1148100Y-701200D01*
X1148100Y-695480D01*
X1155760Y-690180D01*
X1157620Y-689120D01*
X1159300Y-688400D01*
X1160980Y-688000D01*
X1162760Y-687900D01*
X1164780Y-688100D01*
X1167140Y-688560D01*
X1169980Y-689280D01*
X1172160Y-690100D01*
X1173940Y-691260D01*
X1175160Y-692580D01*
X1175600Y-693900D01*
X1175600Y-697020D01*
X1157020Y-696440D01*
X1155360Y-704500D01*
X1165700Y-708840D01*
X1167960Y-709960D01*
X1169980Y-711120D01*
X1171760Y-712320D01*
X1173300Y-713560D01*
X1174600Y-714840D01*
X1175700Y-716200D01*
X1176580Y-717600D01*
X1177260Y-719100D01*
X1177720Y-720660D01*
X1178000Y-722320D01*
X1178100Y-724080D01*
X1178100Y-730080D01*
X1165620Y-738259D01*
X1148100Y-734980D01*
X1138100Y-734980D01*
X1138100Y-737700D01*
X1108100Y-737700D01*
X1108100Y-687700D01*
X1088100Y-687700D01*
X1093100Y-692700D01*
X1095080Y-694860D01*
X1096520Y-696840D01*
X1097440Y-698760D01*
X1097840Y-700660D01*
X1097720Y-702620D01*
X1097080Y-704720D01*
X1095920Y-707000D01*
X1094260Y-709560D01*
X1090420Y-715060D01*
X1097540Y-729060D01*
X1099020Y-732140D01*
X1099920Y-734380D01*
X1100240Y-735920D01*
X1100020Y-736900D01*
X1099260Y-737440D01*
X1097940Y-737660D01*
X1091560Y-737700D01*
X1087160Y-727700D01*
X1085160Y-723820D01*
X1082980Y-720639D01*
X1080900Y-718480D01*
X1079160Y-717700D01*
X1075600Y-717700D01*
X1075600Y-737700D01*
X1068100Y-737700D01*
X1068100Y-687700D01*
X1018100Y-687700D01*
X1018100Y-695200D01*
X1005600Y-695200D01*
X1005600Y-737700D01*
X998300Y-737700D01*
X996860Y-696440D01*
X991220Y-695660D01*
X989040Y-695060D01*
X987260Y-694040D01*
X986040Y-692720D01*
X985600Y-691280D01*
X985600Y-687700D01*
X975600Y-687700D01*
X975600Y-695200D01*
X955600Y-695200D01*
X955600Y-707700D01*
X975600Y-707700D01*
X975600Y-715200D01*
X955600Y-715200D01*
X955600Y-730200D01*
X975600Y-730200D01*
X975600Y-737700D01*
X948100Y-737700D01*
X948100Y-687700D01*
X875759Y-687700D01*
X880100Y-687900D01*
X884360Y-688460D01*
X886320Y-688840D01*
X888080Y-689280D01*
X889580Y-689760D01*
X890759Y-690280D01*
X895600Y-692880D01*
X895600Y-710360D01*
X891713Y-711840D01*
X905620Y-711840D01*
X905720Y-709640D01*
X906000Y-707500D01*
X906400Y-705420D01*
X906940Y-703400D01*
X907620Y-701460D01*
X908420Y-699620D01*
X909340Y-697880D01*
X910380Y-696240D01*
X911520Y-694700D01*
X912760Y-693319D01*
X914100Y-692060D01*
X915540Y-690960D01*
X917060Y-690000D01*
X918660Y-689220D01*
X920340Y-688600D01*
X922080Y-688180D01*
X923880Y-687960D01*
X925759Y-687940D01*
X927680Y-688139D01*
X929640Y-688560D01*
X931640Y-689220D01*
X933180Y-690100D01*
X934440Y-691360D01*
X935280Y-692840D01*
X935600Y-694380D01*
X935600Y-698040D01*
X930699Y-696480D01*
X928379Y-696100D01*
X925740Y-696180D01*
X923060Y-696720D01*
X920699Y-697640D01*
X915600Y-700380D01*
X915600Y-725020D01*
X920660Y-727720D01*
X922840Y-728720D01*
X924800Y-729220D01*
X926500Y-729240D01*
X927940Y-728820D01*
X929080Y-727920D01*
X929920Y-726560D01*
X930420Y-724780D01*
X930600Y-722560D01*
X930600Y-717700D01*
X926840Y-717700D01*
X925400Y-717400D01*
X924200Y-716600D01*
X923400Y-715400D01*
X923100Y-713940D01*
X923100Y-710200D01*
X938100Y-710200D01*
X938100Y-732800D01*
X932039Y-735580D01*
X929180Y-736520D01*
X925879Y-737060D01*
X922540Y-737140D01*
X919580Y-736740D01*
X913199Y-735120D01*
X909400Y-727780D01*
X908319Y-725520D01*
X907440Y-723220D01*
X906720Y-720920D01*
X906200Y-718620D01*
X905840Y-716340D01*
X905639Y-714080D01*
X905620Y-711840D01*
X891713Y-711840D01*
X888259Y-713180D01*
X900680Y-737700D01*
X891840Y-737680D01*
X886840Y-728480D01*
X884659Y-724840D01*
X882400Y-721700D01*
X880340Y-719400D01*
X878720Y-718280D01*
X875600Y-717280D01*
X875600Y-737700D01*
X865600Y-737700D01*
X865600Y-687700D01*
X838020Y-687700D01*
X846400Y-688940D01*
X854360Y-718700D01*
X856720Y-728220D01*
X857920Y-733960D01*
X857980Y-734580D01*
X857720Y-736360D01*
X856919Y-737420D01*
X855699Y-737800D01*
X854220Y-737560D01*
X852680Y-736740D01*
X851200Y-735420D01*
X849980Y-733640D01*
X849120Y-731440D01*
X847560Y-725200D01*
X833640Y-725200D01*
X832080Y-731440D01*
X831280Y-733439D01*
X830080Y-735160D01*
X828620Y-736540D01*
X827060Y-737520D01*
X825580Y-738020D01*
X824300Y-737940D01*
X823420Y-737220D01*
X823100Y-735780D01*
X805600Y-735780D01*
X805600Y-737700D01*
X795600Y-737700D01*
X795600Y-695200D01*
X783100Y-695200D01*
X783100Y-687700D01*
X770600Y-687700D01*
X770600Y-765200D01*
X1273100Y-765200D01*
X1273100Y-665200D01*
G37*
G36*
X1075600Y-694860D02*
G01*
X1075600Y-710540D01*
X1086860Y-708940D01*
X1086860Y-696440D01*
G37*
G36*
X875600Y-694860D02*
G01*
X875600Y-710540D01*
X886840Y-708940D01*
X886840Y-696440D01*
G37*
G36*
X840900Y-701000D02*
G01*
X840220Y-701480D01*
X839539Y-702980D01*
X838720Y-705240D01*
X837140Y-710819D01*
X835500Y-717700D01*
X840560Y-717700D01*
X842300Y-717600D01*
X843620Y-717220D01*
X844520Y-716500D01*
X845020Y-715380D01*
X845140Y-713760D01*
X844900Y-711580D01*
X844300Y-708760D01*
X843360Y-705220D01*
X842580Y-703000D01*
X841720Y-701560D01*
G37*
D72*
X3363521Y880000D02*
G01*
X3363521Y-40000D01*
X3348521Y820000D02*
G01*
X3363521Y880000D01*
X3378521Y820000D01*
X3348521Y20000D02*
G01*
X3363521Y-40000D01*
X3378521Y20000D01*
X3229394Y96352D02*
G01*
X3243094Y91851D01*
X3252193Y82752D01*
X3256693Y69052D01*
X3256693Y64551D01*
X3252193Y50952D01*
X3243094Y41851D01*
X3229394Y37251D01*
X3224894Y37251D01*
X3211293Y41851D01*
X3202193Y50952D01*
X3197593Y64551D01*
X3197593Y69052D01*
X3202193Y82752D01*
X3211293Y91851D01*
X3229394Y96352D01*
X3252193Y96352D01*
X3274894Y91851D01*
X3288494Y82752D01*
X3293094Y69052D01*
X3293094Y59951D01*
X3288494Y46352D01*
X3279394Y41851D01*
X3220294Y130952D02*
G01*
X3215793Y130952D01*
X3206693Y135452D01*
X3202193Y139951D01*
X3197593Y149052D01*
X3197593Y167251D01*
X3202193Y176352D01*
X3206693Y180952D01*
X3215793Y185452D01*
X3224894Y185452D01*
X3233994Y180952D01*
X3247593Y171851D01*
X3293094Y126352D01*
X3293094Y189951D01*
X3197593Y247251D02*
G01*
X3202193Y233652D01*
X3215793Y224551D01*
X3238494Y219951D01*
X3252193Y219951D01*
X3274894Y224551D01*
X3288494Y233652D01*
X3293094Y247251D01*
X3293094Y256352D01*
X3288494Y269951D01*
X3274894Y279052D01*
X3252193Y283652D01*
X3238494Y283652D01*
X3215793Y279052D01*
X3202193Y269951D01*
X3197593Y256352D01*
X3197593Y247251D01*
X3270294Y318152D02*
G01*
X3274894Y313652D01*
X3279394Y318152D01*
X3274894Y322752D01*
X3270294Y318152D01*
X3197593Y379951D02*
G01*
X3202193Y366352D01*
X3215793Y357251D01*
X3238494Y352752D01*
X3252193Y352752D01*
X3274894Y357251D01*
X3288494Y366352D01*
X3293094Y379951D01*
X3293094Y389052D01*
X3288494Y402752D01*
X3274894Y411851D01*
X3252193Y416352D01*
X3238494Y416352D01*
X3215793Y411851D01*
X3202193Y402752D01*
X3197593Y389052D01*
X3197593Y379951D01*
X3197593Y473652D02*
G01*
X3202193Y459951D01*
X3215793Y450952D01*
X3238494Y446352D01*
X3252193Y446352D01*
X3274894Y450952D01*
X3288494Y459951D01*
X3293094Y473652D01*
X3293094Y482752D01*
X3288494Y496352D01*
X3274894Y505452D01*
X3252193Y509951D01*
X3238494Y509951D01*
X3215793Y505452D01*
X3202193Y496352D01*
X3197593Y482752D01*
X3197593Y473652D01*
X3197593Y567251D02*
G01*
X3202193Y553652D01*
X3215793Y544551D01*
X3238494Y539951D01*
X3252193Y539951D01*
X3274894Y544551D01*
X3288494Y553652D01*
X3293094Y567251D01*
X3293094Y576352D01*
X3288494Y589951D01*
X3274894Y599052D01*
X3252193Y603652D01*
X3238494Y603652D01*
X3215793Y599052D01*
X3202193Y589951D01*
X3197593Y576352D01*
X3197593Y567251D01*
X3229394Y633652D02*
G01*
X3293094Y633652D01*
X3247593Y633652D02*
G01*
X3233994Y647251D01*
X3229394Y656352D01*
X3229394Y669951D01*
X3233994Y679052D01*
X3247593Y683652D01*
X3293094Y683652D01*
X3247593Y683652D02*
G01*
X3233994Y697251D01*
X3229394Y706352D01*
X3229394Y719951D01*
X3233994Y729052D01*
X3247593Y733652D01*
X3293094Y733652D01*
X3197593Y763652D02*
G01*
X3202193Y768152D01*
X3197593Y772752D01*
X3193094Y768152D01*
X3197593Y763652D01*
X3229394Y768152D02*
G01*
X3293094Y768152D01*
X3197593Y802752D02*
G01*
X3293094Y802752D01*
X1810000Y880000D02*
G01*
X3463521Y880000D01*
X1800000Y-40000D02*
G01*
X3463521Y-40000D01*
D63*
X1554600Y-930000D02*
G01*
X1597500Y-930000D01*
X1554600Y-930000D02*
G01*
X1554600Y-911599D01*
X1556599Y-905500D01*
X1558699Y-903400D01*
X1562799Y-901399D01*
X1566899Y-901399D01*
X1571000Y-903400D01*
X1573000Y-905500D01*
X1575000Y-911599D01*
X1575000Y-930000D01*
X1575000Y-915700D02*
G01*
X1597500Y-901399D01*
X1554600Y-887899D02*
G01*
X1597500Y-887899D01*
X1554600Y-887899D02*
G01*
X1554600Y-861300D01*
X1575000Y-887899D02*
G01*
X1575000Y-871500D01*
X1597500Y-887899D02*
G01*
X1597500Y-861300D01*
X1560699Y-819099D02*
G01*
X1556599Y-823200D01*
X1554600Y-829400D01*
X1554600Y-837500D01*
X1556599Y-843699D01*
X1560699Y-847800D01*
X1564799Y-847800D01*
X1568900Y-845700D01*
X1571000Y-843699D01*
X1573000Y-839600D01*
X1577100Y-827300D01*
X1579099Y-823200D01*
X1581199Y-821199D01*
X1585299Y-819099D01*
X1591400Y-819099D01*
X1595500Y-823200D01*
X1597500Y-829400D01*
X1597500Y-837500D01*
X1595500Y-843699D01*
X1591400Y-847800D01*
X2420000Y-749600D02*
G01*
X2420000Y-787800D01*
X2420000Y-749600D02*
G01*
X2443599Y-749600D01*
X2420000Y-767800D02*
G01*
X2434499Y-767800D01*
X2420000Y-787800D02*
G01*
X2443599Y-787800D01*
X2455600Y-749600D02*
G01*
X2455600Y-787800D01*
X2455600Y-749600D02*
G01*
X2471999Y-749600D01*
X2477500Y-751500D01*
X2479300Y-753299D01*
X2481099Y-756900D01*
X2481099Y-760500D01*
X2479300Y-764200D01*
X2477500Y-765999D01*
X2471999Y-767800D01*
X2455600Y-767800D01*
X2468400Y-767800D02*
G01*
X2481099Y-787800D01*
X2493100Y-749600D02*
G01*
X2493100Y-787800D01*
X2493100Y-749600D02*
G01*
X2509499Y-749600D01*
X2514899Y-751500D01*
X2516700Y-753299D01*
X2518500Y-756900D01*
X2518500Y-760500D01*
X2516700Y-764200D01*
X2514899Y-765999D01*
X2509499Y-767800D01*
X2493100Y-767800D01*
X2505799Y-767800D02*
G01*
X2518500Y-787800D01*
X2614700Y870000D02*
G01*
X2648100Y870000D01*
X2614700Y870000D02*
G01*
X2614700Y884299D01*
X2616300Y889099D01*
X2617899Y890700D01*
X2621000Y892300D01*
X2625799Y892300D01*
X2628999Y890700D01*
X2630600Y889099D01*
X2632200Y884299D01*
X2632200Y870000D01*
X2614700Y902800D02*
G01*
X2648100Y910700D01*
X2614700Y918699D02*
G01*
X2648100Y910700D01*
X2614700Y918699D02*
G01*
X2648100Y926599D01*
X2614700Y934600D02*
G01*
X2648100Y926599D01*
X2614700Y945100D02*
G01*
X2648100Y945100D01*
X2614700Y945100D02*
G01*
X2614700Y959400D01*
X2616300Y964200D01*
X2617899Y965799D01*
X2621000Y967399D01*
X2624200Y967399D01*
X2627399Y965799D01*
X2628999Y964200D01*
X2630600Y959400D01*
X2630600Y945100D01*
X2630600Y956199D02*
G01*
X2648100Y967399D01*
X2540000Y-749600D02*
G01*
X2540000Y-787800D01*
X2540000Y-749600D02*
G01*
X2556400Y-749600D01*
X2561800Y-751500D01*
X2563599Y-753299D01*
X2565500Y-756900D01*
X2565500Y-760500D01*
X2563599Y-764200D01*
X2561800Y-765999D01*
X2556400Y-767800D01*
X2540000Y-767800D01*
X2552700Y-767800D02*
G01*
X2565500Y-787800D01*
X2577500Y-749600D02*
G01*
X2577500Y-787800D01*
X2577500Y-749600D02*
G01*
X2590200Y-749600D01*
X2595600Y-751500D01*
X2599300Y-755100D01*
X2601099Y-758699D01*
X2602899Y-764200D01*
X2602899Y-773299D01*
X2601099Y-778699D01*
X2599300Y-782399D01*
X2595600Y-785999D01*
X2590200Y-787800D01*
X2577500Y-787800D01*
X2614899Y-749600D02*
G01*
X2629499Y-767800D01*
X2629499Y-787800D01*
X2643999Y-749600D02*
G01*
X2629499Y-767800D01*
X2330000Y-749600D02*
G01*
X2339099Y-787800D01*
X2348199Y-749600D02*
G01*
X2339099Y-787800D01*
X2348199Y-749600D02*
G01*
X2357299Y-787800D01*
X2366400Y-749600D02*
G01*
X2357299Y-787800D01*
X2378400Y-749600D02*
G01*
X2378400Y-787800D01*
X2378400Y-749600D02*
G01*
X2394700Y-749600D01*
X2400200Y-751500D01*
X2401999Y-753299D01*
X2403800Y-756900D01*
X2403800Y-760500D01*
X2401999Y-764200D01*
X2400200Y-765999D01*
X2394700Y-767800D01*
X2378400Y-767800D01*
X2391099Y-767800D02*
G01*
X2403800Y-787800D01*
X2451099Y375300D02*
G01*
X2451099Y341900D01*
X2440000Y375300D02*
G01*
X2462299Y375300D01*
X2472799Y375300D02*
G01*
X2495000Y341900D01*
X2495000Y375300D02*
G01*
X2472799Y341900D01*
X854600Y-930000D02*
G01*
X897500Y-930000D01*
X854600Y-930000D02*
G01*
X854600Y-911599D01*
X856599Y-905500D01*
X858699Y-903400D01*
X862800Y-901399D01*
X868899Y-901399D01*
X873000Y-903400D01*
X875000Y-905500D01*
X877100Y-911599D01*
X877100Y-930000D01*
X854600Y-887899D02*
G01*
X897500Y-887899D01*
X854600Y-887899D02*
G01*
X854600Y-869499D01*
X856599Y-863299D01*
X858699Y-861300D01*
X862800Y-859200D01*
X866900Y-859200D01*
X870999Y-861300D01*
X873000Y-863299D01*
X875000Y-869499D01*
X875000Y-887899D02*
G01*
X875000Y-869499D01*
X877100Y-863299D01*
X879099Y-861300D01*
X883200Y-859200D01*
X889400Y-859200D01*
X893499Y-861300D01*
X895500Y-863299D01*
X897500Y-869499D01*
X897500Y-887899D01*
X854600Y-833499D02*
G01*
X856599Y-839600D01*
X862800Y-843699D01*
X873000Y-845700D01*
X879099Y-845700D01*
X889400Y-843699D01*
X895500Y-839600D01*
X897500Y-833499D01*
X897500Y-829400D01*
X895500Y-823200D01*
X889400Y-819099D01*
X879099Y-817100D01*
X873000Y-817100D01*
X862800Y-819099D01*
X856599Y-823200D01*
X854600Y-829400D01*
X854600Y-833499D01*
X994600Y-930000D02*
G01*
X1037500Y-930000D01*
X994600Y-930000D02*
G01*
X994600Y-911599D01*
X996599Y-905500D01*
X998699Y-903400D01*
X1002799Y-901399D01*
X1008900Y-901399D01*
X1013000Y-903400D01*
X1015000Y-905500D01*
X1017100Y-911599D01*
X1017100Y-930000D01*
X994600Y-887899D02*
G01*
X1037500Y-887899D01*
X994600Y-887899D02*
G01*
X994600Y-869499D01*
X996599Y-863299D01*
X998699Y-861300D01*
X1002799Y-859200D01*
X1006899Y-859200D01*
X1011000Y-861300D01*
X1013000Y-863299D01*
X1015000Y-869499D01*
X1015000Y-887899D02*
G01*
X1015000Y-869499D01*
X1017100Y-863299D01*
X1019099Y-861300D01*
X1023199Y-859200D01*
X1029399Y-859200D01*
X1033500Y-861300D01*
X1035500Y-863299D01*
X1037500Y-869499D01*
X1037500Y-887899D01*
X1002799Y-845700D02*
G01*
X1000699Y-841599D01*
X994600Y-835500D01*
X1037500Y-835500D01*
X1134600Y-930000D02*
G01*
X1177500Y-930000D01*
X1134600Y-930000D02*
G01*
X1134600Y-911599D01*
X1136599Y-905500D01*
X1138699Y-903400D01*
X1142799Y-901399D01*
X1148900Y-901399D01*
X1153000Y-903400D01*
X1155000Y-905500D01*
X1157100Y-911599D01*
X1157100Y-930000D01*
X1134600Y-887899D02*
G01*
X1177500Y-887899D01*
X1134600Y-887899D02*
G01*
X1134600Y-869499D01*
X1136599Y-863299D01*
X1138699Y-861300D01*
X1142799Y-859200D01*
X1146899Y-859200D01*
X1151000Y-861300D01*
X1153000Y-863299D01*
X1155000Y-869499D01*
X1155000Y-887899D02*
G01*
X1155000Y-869499D01*
X1157100Y-863299D01*
X1159099Y-861300D01*
X1163199Y-859200D01*
X1169399Y-859200D01*
X1173500Y-861300D01*
X1175500Y-863299D01*
X1177500Y-869499D01*
X1177500Y-887899D01*
X1144799Y-843699D02*
G01*
X1142799Y-843699D01*
X1138699Y-841599D01*
X1136599Y-839600D01*
X1134600Y-835500D01*
X1134600Y-827300D01*
X1136599Y-823200D01*
X1138699Y-821199D01*
X1142799Y-819099D01*
X1146899Y-819099D01*
X1151000Y-821199D01*
X1157100Y-825300D01*
X1177500Y-845700D01*
X1177500Y-817100D01*
X1274600Y-930000D02*
G01*
X1317500Y-930000D01*
X1274600Y-930000D02*
G01*
X1274600Y-911599D01*
X1276599Y-905500D01*
X1278699Y-903400D01*
X1282799Y-901399D01*
X1288900Y-901399D01*
X1293000Y-903400D01*
X1295000Y-905500D01*
X1297100Y-911599D01*
X1297100Y-930000D01*
X1274600Y-887899D02*
G01*
X1317500Y-887899D01*
X1274600Y-887899D02*
G01*
X1274600Y-869499D01*
X1276599Y-863299D01*
X1278699Y-861300D01*
X1282799Y-859200D01*
X1286899Y-859200D01*
X1291000Y-861300D01*
X1293000Y-863299D01*
X1295000Y-869499D01*
X1295000Y-887899D02*
G01*
X1295000Y-869499D01*
X1297100Y-863299D01*
X1299099Y-861300D01*
X1303199Y-859200D01*
X1309399Y-859200D01*
X1313500Y-861300D01*
X1315500Y-863299D01*
X1317500Y-869499D01*
X1317500Y-887899D01*
X1274600Y-841599D02*
G01*
X1274600Y-819099D01*
X1291000Y-831399D01*
X1291000Y-825300D01*
X1293000Y-821199D01*
X1295000Y-819099D01*
X1301199Y-817100D01*
X1305299Y-817100D01*
X1311400Y-819099D01*
X1315500Y-823200D01*
X1317500Y-829400D01*
X1317500Y-835500D01*
X1315500Y-841599D01*
X1313500Y-843699D01*
X1309399Y-845700D01*
X1414600Y-930000D02*
G01*
X1457500Y-930000D01*
X1414600Y-930000D02*
G01*
X1414600Y-911599D01*
X1416599Y-905500D01*
X1418699Y-903400D01*
X1422799Y-901399D01*
X1428900Y-901399D01*
X1433000Y-903400D01*
X1435000Y-905500D01*
X1437100Y-911599D01*
X1437100Y-930000D01*
X1414600Y-887899D02*
G01*
X1457500Y-887899D01*
X1414600Y-887899D02*
G01*
X1414600Y-869499D01*
X1416599Y-863299D01*
X1418699Y-861300D01*
X1422799Y-859200D01*
X1426899Y-859200D01*
X1431000Y-861300D01*
X1433000Y-863299D01*
X1435000Y-869499D01*
X1435000Y-887899D02*
G01*
X1435000Y-869499D01*
X1437100Y-863299D01*
X1439099Y-861300D01*
X1443199Y-859200D01*
X1449399Y-859200D01*
X1453500Y-861300D01*
X1455500Y-863299D01*
X1457500Y-869499D01*
X1457500Y-887899D01*
X1414600Y-825300D02*
G01*
X1443199Y-845700D01*
X1443199Y-815000D01*
X1414600Y-825300D02*
G01*
X1457500Y-825300D01*
D73*
X1909200Y-501599D02*
G01*
X1906499Y-503000D01*
X1903699Y-505700D01*
X1902399Y-508499D01*
X1901000Y-512500D01*
X1901000Y-519400D01*
X1902399Y-523499D01*
X1903699Y-526199D01*
X1906499Y-528899D01*
X1909200Y-530300D01*
X1914600Y-530300D01*
X1917399Y-528899D01*
X1920100Y-526199D01*
X1921499Y-523499D01*
X1922799Y-519400D01*
X1922799Y-512500D01*
X1921499Y-508499D01*
X1920100Y-505700D01*
X1917399Y-503000D01*
X1914600Y-501599D01*
X1909200Y-501599D01*
X1931800Y-501599D02*
G01*
X1931800Y-530300D01*
X1931800Y-501599D02*
G01*
X1950900Y-530300D01*
X1950900Y-501599D02*
G01*
X1950900Y-530300D01*
X1933000Y-689149D02*
G01*
X1935699Y-687849D01*
X1939799Y-683750D01*
X1939799Y-712350D01*
X2033400Y-689549D02*
G01*
X2033400Y-688150D01*
X2034700Y-685450D01*
X2036099Y-684050D01*
X2038800Y-682750D01*
X2044300Y-682750D01*
X2046999Y-684050D01*
X2048400Y-685450D01*
X2049700Y-688150D01*
X2049700Y-690949D01*
X2048400Y-693649D01*
X2045600Y-697750D01*
X2031999Y-711350D01*
X2051099Y-711350D01*
X2132700Y-681750D02*
G01*
X2147700Y-681750D01*
X2139499Y-692649D01*
X2143599Y-692649D01*
X2146400Y-694050D01*
X2147700Y-695349D01*
X2149099Y-699450D01*
X2149099Y-702150D01*
X2147700Y-706250D01*
X2145000Y-709050D01*
X2140900Y-710349D01*
X2136800Y-710349D01*
X2132700Y-709050D01*
X2131400Y-707649D01*
X2130000Y-704949D01*
D63*
X1713199Y-764699D02*
G01*
X1730699Y-764699D01*
X1721099Y-777399D01*
X1725900Y-777399D01*
X1729099Y-779000D01*
X1730699Y-780599D01*
X1732299Y-785399D01*
X1732299Y-788499D01*
X1730699Y-793299D01*
X1727500Y-796500D01*
X1722700Y-798099D01*
X1718000Y-798099D01*
X1713199Y-796500D01*
X1711599Y-794899D01*
X1710000Y-791700D01*
X1742799Y-764699D02*
G01*
X1755500Y-798099D01*
X1768199Y-764699D02*
G01*
X1755500Y-798099D01*
X1781899Y-764699D02*
G01*
X1799399Y-764699D01*
X1789899Y-777399D01*
X1794600Y-777399D01*
X1797799Y-779000D01*
X1799399Y-780599D01*
X1801000Y-785399D01*
X1801000Y-788499D01*
X1799399Y-793299D01*
X1796199Y-796500D01*
X1791499Y-798099D01*
X1786700Y-798099D01*
X1781899Y-796500D01*
X1780299Y-794899D01*
X1778699Y-791700D01*
X1849099Y-764699D02*
G01*
X1833199Y-764699D01*
X1831599Y-779000D01*
X1833199Y-777399D01*
X1838000Y-775799D01*
X1842700Y-775799D01*
X1847500Y-777399D01*
X1850699Y-780599D01*
X1852299Y-785399D01*
X1852299Y-788499D01*
X1850699Y-793299D01*
X1847500Y-796500D01*
X1842700Y-798099D01*
X1838000Y-798099D01*
X1833199Y-796500D01*
X1831599Y-794899D01*
X1830000Y-791700D01*
X1862799Y-764699D02*
G01*
X1875500Y-798099D01*
X1888199Y-764699D02*
G01*
X1875500Y-798099D01*
G36*
X372780Y926900D02*
G01*
X372780Y908900D01*
X381120Y908900D01*
X381120Y926900D01*
G37*
G36*
X258880Y926900D02*
G01*
X258880Y908900D01*
X267220Y908900D01*
X267220Y926900D01*
G37*
G36*
X382780Y-753100D02*
G01*
X382780Y-771100D01*
X391120Y-771100D01*
X391120Y-753100D01*
G37*
G36*
X268880Y-753100D02*
G01*
X268880Y-771100D01*
X277220Y-771100D01*
X277220Y-753100D01*
G37*
G36*
X2366780Y367220D02*
G01*
X2366780Y336320D01*
X2378780Y336320D01*
X2378780Y367220D01*
G37*
G36*
X2366780Y463680D02*
G01*
X2366780Y432780D01*
X2378780Y432780D01*
X2378780Y463680D01*
G37*
G36*
X1521220Y-646320D02*
G01*
X1521220Y-677220D01*
X1533220Y-677220D01*
X1533220Y-646320D01*
G37*
G36*
X1521220Y-742780D02*
G01*
X1521220Y-773680D01*
X1533220Y-773680D01*
X1533220Y-742780D01*
G37*
D13*
X1190000Y-670000D02*
G01*
X1230000Y-630000D01*
X1500000Y-630000D01*
X1520000Y-650000D01*
D62*
X2098604Y872166D02*
G01*
X2098604Y804549D01*
X2098604Y977750D02*
G01*
X2098604Y914133D01*
X2391904Y777049D02*
G01*
X2409605Y777049D01*
X2421405Y790749D01*
X2421405Y802550D01*
X2421405Y872190D02*
G01*
X2421405Y802550D01*
X2421405Y979749D02*
G01*
X2421405Y914110D01*
X2395805Y1001449D02*
G01*
X2110000Y1001449D01*
X2421405Y979749D02*
G01*
X2421405Y1001449D01*
X2395805Y1001449D01*
X2098604Y977750D02*
G01*
X2098604Y1001449D01*
X2114305Y1001449D01*
X2118305Y777049D02*
G01*
X2098604Y777049D01*
X2098604Y804549D01*
D63*
X261882Y768103D02*
G01*
X261882Y911896D01*
X378117Y768103D02*
G01*
X378117Y911896D01*
X261882Y875603D02*
G01*
X378117Y875603D01*
X261882Y768103D02*
G01*
X265226Y768103D01*
X378117Y768103D02*
G01*
X374773Y768103D01*
X271882Y-911896D02*
G01*
X271882Y-768103D01*
X388117Y-911896D02*
G01*
X388117Y-768103D01*
X271882Y-804396D02*
G01*
X388117Y-804396D01*
X271882Y-911896D02*
G01*
X275226Y-911896D01*
X388117Y-911896D02*
G01*
X384773Y-911896D01*
D64*
X1286395Y-692278D02*
G01*
X1286395Y-652917D01*
X1433635Y-652907D01*
X1433635Y-693856D01*
X1433620Y-727710D02*
G01*
X1433620Y-767860D01*
X1286379Y-767869D01*
X1286379Y-726912D01*
X1486395Y-102278D02*
G01*
X1486395Y-62917D01*
X1633635Y-62907D01*
X1633635Y-103856D01*
X1633620Y-137710D02*
G01*
X1633620Y-177860D01*
X1486379Y-177869D01*
X1486379Y-136912D01*
X2285425Y-679513D02*
G01*
X2257592Y-651680D01*
X2361700Y-547559D01*
X2390657Y-576516D01*
X2414584Y-600464D02*
G01*
X2442974Y-628854D01*
X2338867Y-732975D01*
X2309906Y-704014D01*
D10*
X1673999Y-810500D02*
G01*
X1606000Y-810500D01*
X1606000Y-810500D02*
G01*
X1606000Y-868499D01*
X1673999Y-810500D02*
G01*
X1673999Y-868499D01*
X1606000Y-891500D02*
G01*
X1606000Y-937500D01*
X1673999Y-892500D02*
G01*
X1673999Y-937500D01*
X1673999Y-937500D02*
G01*
X1660000Y-951500D01*
X1620000Y-951500D01*
X1606000Y-937500D01*
D65*
X1656000Y-876999D02*
G01*
X1625000Y-876999D01*
X1640312Y-876999D02*
G01*
X1640312Y-883904D01*
D10*
X1435433Y478980D02*
G01*
X1364566Y478980D01*
X1435433Y601028D02*
G01*
X1364566Y601028D01*
D63*
X2184992Y529402D02*
G01*
X2255007Y529402D01*
X2184992Y650598D02*
G01*
X2255007Y650598D01*
D10*
X1260000Y-520000D02*
G01*
X1260000Y-470000D01*
X1660000Y-520000D02*
G01*
X1260000Y-520000D01*
X1660000Y-320000D02*
G01*
X1260000Y-320000D01*
X1660000Y-520000D02*
G01*
X1660000Y-320000D01*
X1260000Y-370000D02*
G01*
X1260000Y-320000D01*
D63*
X886779Y-646008D02*
G01*
X924531Y-646008D01*
X924531Y-593991D01*
X886779Y-593991D01*
X853220Y-646008D02*
G01*
X815468Y-646008D01*
X815468Y-593991D01*
X853220Y-593991D01*
X2369772Y339322D02*
G01*
X2210227Y339322D01*
X2210227Y339322D02*
G01*
X2210227Y365228D01*
X2369772Y460677D02*
G01*
X2210227Y460677D01*
X2210227Y460677D02*
G01*
X2210227Y434771D01*
X1530227Y-649322D02*
G01*
X1689772Y-649322D01*
X1689772Y-649322D02*
G01*
X1689772Y-675228D01*
X1530227Y-770677D02*
G01*
X1689772Y-770677D01*
X1689772Y-770677D02*
G01*
X1689772Y-744771D01*
D10*
X544998Y-750808D02*
G01*
X545039Y-696141D01*
X545039Y-688267D01*
X613937Y-688267D01*
X613499Y-750808D01*
X745001Y-794317D02*
G01*
X745001Y-827296D01*
X475001Y-794315D02*
G01*
X475001Y-827296D01*
X494596Y-870808D02*
G01*
X485243Y-870808D01*
X553656Y-870808D02*
G01*
X548229Y-870808D01*
X671765Y-870808D02*
G01*
X607289Y-870808D01*
X734758Y-870808D02*
G01*
X725399Y-870808D01*
X485243Y-750808D02*
G01*
X734758Y-750808D01*
X544998Y899191D02*
G01*
X545039Y953858D01*
X545039Y961732D01*
X613937Y961732D01*
X613499Y899191D01*
X745001Y855682D02*
G01*
X745001Y822703D01*
X475001Y855684D02*
G01*
X475001Y822703D01*
X494596Y779191D02*
G01*
X485243Y779191D01*
X553656Y779191D02*
G01*
X548229Y779191D01*
X671765Y779191D02*
G01*
X607289Y779191D01*
X734758Y779191D02*
G01*
X725399Y779191D01*
X485243Y899191D02*
G01*
X734758Y899191D01*
D66*
X907397Y263622D02*
G01*
X907397Y216377D01*
X877082Y263622D02*
G01*
X907397Y263622D01*
X832593Y263622D02*
G01*
X832593Y216377D01*
X862908Y263622D02*
G01*
X832593Y263622D01*
X862908Y216377D02*
G01*
X832593Y216377D01*
X877082Y216377D02*
G01*
X907397Y216377D01*
D67*
X820000Y355000D02*
G01*
X820000Y280000D01*
X920000Y280000D01*
X920000Y580000D01*
X820000Y580000D01*
D68*
X820000Y580000D02*
G01*
X820000Y355000D01*
D69*
X2495000Y675000D02*
G01*
X2465000Y675000D01*
X2495000Y785000D02*
G01*
X2465000Y785000D01*
X2455000Y745000D02*
G01*
X2455000Y775000D01*
X2505000Y745000D02*
G01*
X2505000Y775000D01*
X2455000Y715000D02*
G01*
X2455000Y685000D01*
X2505000Y715000D02*
G01*
X2505000Y685000D01*
D10*
X2464600Y-79645D02*
G01*
X2300353Y84600D01*
X2136107Y-79645D01*
X2300353Y-243892D01*
X2464600Y-79645D01*
D67*
X1020000Y-280000D02*
G01*
X820000Y-280000D01*
X820000Y-580000D01*
X1020000Y-580000D01*
X1020000Y-280000D01*
X1020000Y-471669D01*
X2450000Y-560000D02*
G01*
X2650000Y-560000D01*
X2650000Y-260000D01*
X2450000Y-260000D01*
X2450000Y-560000D01*
X2450000Y-368330D01*
D66*
X917397Y-166377D02*
G01*
X917397Y-213622D01*
X887082Y-166377D02*
G01*
X917397Y-166377D01*
X842593Y-166377D02*
G01*
X842593Y-213622D01*
X872908Y-166377D02*
G01*
X842593Y-166377D01*
X872908Y-213622D02*
G01*
X842593Y-213622D01*
X887082Y-213622D02*
G01*
X917397Y-213622D01*
X1007397Y-596377D02*
G01*
X1007397Y-643622D01*
X977082Y-596377D02*
G01*
X1007397Y-596377D01*
X932593Y-596377D02*
G01*
X932593Y-643622D01*
X962907Y-596377D02*
G01*
X932593Y-596377D01*
X962907Y-643622D02*
G01*
X932593Y-643622D01*
X977082Y-643622D02*
G01*
X1007397Y-643622D01*
D10*
X1400866Y319762D02*
G01*
X1259134Y319762D01*
X1400866Y40237D02*
G01*
X1259134Y40237D01*
X1400866Y40237D02*
G01*
X1400866Y106556D01*
X1400866Y253443D02*
G01*
X1400866Y319762D01*
X1259134Y40237D02*
G01*
X1259134Y63252D01*
X1259134Y115644D02*
G01*
X1259134Y153802D01*
X1259134Y206197D02*
G01*
X1259134Y244355D01*
X1259134Y296747D02*
G01*
X1259134Y319762D01*
D66*
X1532602Y186377D02*
G01*
X1532602Y233622D01*
X1562917Y186377D02*
G01*
X1532602Y186377D01*
X1607407Y186377D02*
G01*
X1607407Y233622D01*
X1577092Y186377D02*
G01*
X1607407Y186377D01*
X1577092Y233622D02*
G01*
X1607407Y233622D01*
X1562917Y233622D02*
G01*
X1532602Y233622D01*
X1653622Y702602D02*
G01*
X1606377Y702602D01*
X1653622Y732917D02*
G01*
X1653622Y702602D01*
X1653622Y777406D02*
G01*
X1606377Y777406D01*
X1653622Y747091D02*
G01*
X1653622Y777406D01*
X1606377Y747091D02*
G01*
X1606377Y777406D01*
X1606377Y732917D02*
G01*
X1606377Y702602D01*
X1577397Y463622D02*
G01*
X1577397Y416377D01*
X1547082Y463622D02*
G01*
X1577397Y463622D01*
X1502592Y463622D02*
G01*
X1502592Y416377D01*
X1532907Y463622D02*
G01*
X1502592Y463622D01*
X1532907Y416377D02*
G01*
X1502592Y416377D01*
X1547082Y416377D02*
G01*
X1577397Y416377D01*
X1713622Y702602D02*
G01*
X1666377Y702602D01*
X1713622Y732917D02*
G01*
X1713622Y702602D01*
X1713622Y777406D02*
G01*
X1666377Y777406D01*
X1713622Y747091D02*
G01*
X1713622Y777406D01*
X1666377Y747091D02*
G01*
X1666377Y777406D01*
X1666377Y732917D02*
G01*
X1666377Y702602D01*
X1532915Y523625D02*
G01*
X1508504Y523625D01*
X1547089Y523625D02*
G01*
X1571495Y523625D01*
X1547089Y476379D02*
G01*
X1571495Y476379D01*
X1577404Y484252D02*
G01*
X1577404Y515747D01*
X1532915Y476379D02*
G01*
X1508504Y476379D01*
X1502600Y484252D02*
G01*
X1502600Y515747D01*
X1577404Y482287D02*
G01*
X1577404Y484252D01*
X1577404Y517716D02*
G01*
X1577404Y515747D01*
X1502600Y482283D02*
G01*
X1502600Y484252D01*
X1502600Y517721D02*
G01*
X1502600Y515747D01*
D10*
X1846499Y62519D02*
G01*
X1814409Y62519D01*
X1814409Y88499D01*
X1814409Y151500D02*
G01*
X1814409Y177480D01*
X1814409Y151500D01*
X1814409Y177480D01*
X1846499Y177480D01*
D64*
X1875429Y108189D02*
G01*
X1875429Y131810D01*
D10*
X1715433Y182991D02*
G01*
X1715433Y142881D01*
X1644566Y59719D02*
G01*
X1644566Y57006D01*
X1644566Y134519D02*
G01*
X1644566Y105480D01*
X1644566Y182991D02*
G01*
X1644566Y180280D01*
X1715433Y57006D02*
G01*
X1644566Y57006D01*
X1715433Y182991D02*
G01*
X1644566Y182991D01*
X1715433Y97118D02*
G01*
X1715433Y57006D01*
X1407479Y-133499D02*
G01*
X1407479Y-165588D01*
X1381499Y-165590D01*
X1318500Y-165590D02*
G01*
X1292520Y-165588D01*
X1318500Y-165590D01*
X1292520Y-165588D01*
X1292520Y-133499D01*
D64*
X1361809Y-104569D02*
G01*
X1338190Y-104569D01*
D66*
X1426377Y-72602D02*
G01*
X1473622Y-72602D01*
X1426377Y-102917D02*
G01*
X1426377Y-72602D01*
X1426377Y-147406D02*
G01*
X1473622Y-147406D01*
X1426377Y-117091D02*
G01*
X1426377Y-147406D01*
X1473622Y-117091D02*
G01*
X1473622Y-147406D01*
X1473622Y-102917D02*
G01*
X1473622Y-72602D01*
X1273622Y-137397D02*
G01*
X1226377Y-137397D01*
X1273622Y-107082D02*
G01*
X1273622Y-137397D01*
X1273622Y-62593D02*
G01*
X1226377Y-62593D01*
X1273622Y-92908D02*
G01*
X1273622Y-62593D01*
X1226377Y-92908D02*
G01*
X1226377Y-62593D01*
X1226377Y-107082D02*
G01*
X1226377Y-137397D01*
X2133622Y-957397D02*
G01*
X2086377Y-957397D01*
X2133622Y-927082D02*
G01*
X2133622Y-957397D01*
X2133622Y-882593D02*
G01*
X2086377Y-882593D01*
X2133622Y-912908D02*
G01*
X2133622Y-882593D01*
X2086377Y-912908D02*
G01*
X2086377Y-882593D01*
X2086377Y-927082D02*
G01*
X2086377Y-957397D01*
X1963148Y-319740D02*
G01*
X1929740Y-353148D01*
X1941711Y-298303D02*
G01*
X1963148Y-319740D01*
X1910253Y-266844D02*
G01*
X1876845Y-300252D01*
X1931688Y-288281D02*
G01*
X1910253Y-266844D01*
X1898280Y-321689D02*
G01*
X1876845Y-300252D01*
X1908303Y-331712D02*
G01*
X1929740Y-353148D01*
X2073622Y-957397D02*
G01*
X2026377Y-957397D01*
X2073622Y-927082D02*
G01*
X2073622Y-957397D01*
X2073622Y-882593D02*
G01*
X2026377Y-882593D01*
X2073622Y-912908D02*
G01*
X2073622Y-882593D01*
X2026377Y-912908D02*
G01*
X2026377Y-882593D01*
X2026377Y-927082D02*
G01*
X2026377Y-957397D01*
X2013622Y-957397D02*
G01*
X1966377Y-957397D01*
X2013622Y-927082D02*
G01*
X2013622Y-957397D01*
X2013622Y-882593D02*
G01*
X1966377Y-882593D01*
X2013622Y-912908D02*
G01*
X2013622Y-882593D01*
X1966377Y-912908D02*
G01*
X1966377Y-882593D01*
X1966377Y-927082D02*
G01*
X1966377Y-957397D01*
X1953622Y-957397D02*
G01*
X1906377Y-957397D01*
X1953622Y-927082D02*
G01*
X1953622Y-957397D01*
X1953622Y-882593D02*
G01*
X1906377Y-882593D01*
X1953622Y-912908D02*
G01*
X1953622Y-882593D01*
X1906377Y-912908D02*
G01*
X1906377Y-882593D01*
X1906377Y-927082D02*
G01*
X1906377Y-957397D01*
D10*
X1602227Y489998D02*
G01*
X1602227Y580000D01*
X2120000Y580000D01*
X2120000Y580000D02*
G01*
X2120000Y338110D01*
X2120000Y338110D02*
G01*
X1600000Y338110D01*
X1600000Y425383D01*
X2513999Y-810500D02*
G01*
X2446000Y-810500D01*
X2446000Y-810500D02*
G01*
X2446000Y-868499D01*
X2513999Y-810500D02*
G01*
X2513999Y-868499D01*
X2446000Y-891500D02*
G01*
X2446000Y-937500D01*
X2513999Y-892500D02*
G01*
X2513999Y-937500D01*
X2513999Y-937500D02*
G01*
X2500000Y-951500D01*
X2460000Y-951500D01*
X2446000Y-937500D01*
D65*
X2496000Y-876999D02*
G01*
X2465000Y-876999D01*
X2480312Y-876999D02*
G01*
X2480312Y-883904D01*
D10*
X2599499Y895999D02*
G01*
X2599499Y964000D01*
X2599499Y964000D02*
G01*
X2541499Y964000D01*
X2599499Y895999D02*
G01*
X2541499Y895999D01*
X2518500Y964000D02*
G01*
X2472500Y964000D01*
X2517500Y895999D02*
G01*
X2472500Y895999D01*
X2472500Y895999D02*
G01*
X2458500Y910000D01*
X2458500Y950000D01*
X2472500Y964000D01*
D65*
X2533000Y914000D02*
G01*
X2533000Y945000D01*
X2533000Y929686D02*
G01*
X2526095Y929686D01*
D10*
X2613999Y-810500D02*
G01*
X2546000Y-810500D01*
X2546000Y-810500D02*
G01*
X2546000Y-868499D01*
X2613999Y-810500D02*
G01*
X2613999Y-868499D01*
X2546000Y-891500D02*
G01*
X2546000Y-937500D01*
X2613999Y-892500D02*
G01*
X2613999Y-937500D01*
X2613999Y-937500D02*
G01*
X2600000Y-951500D01*
X2560000Y-951500D01*
X2546000Y-937500D01*
D65*
X2596000Y-876999D02*
G01*
X2565000Y-876999D01*
X2580312Y-876999D02*
G01*
X2580312Y-883904D01*
D10*
X2413999Y-810500D02*
G01*
X2346000Y-810500D01*
X2346000Y-810500D02*
G01*
X2346000Y-868499D01*
X2413999Y-810500D02*
G01*
X2413999Y-868499D01*
X2346000Y-891500D02*
G01*
X2346000Y-937500D01*
X2413999Y-892500D02*
G01*
X2413999Y-937500D01*
X2413999Y-937500D02*
G01*
X2400000Y-951500D01*
X2360000Y-951500D01*
X2346000Y-937500D01*
D65*
X2396000Y-876999D02*
G01*
X2365000Y-876999D01*
X2380312Y-876999D02*
G01*
X2380312Y-883904D01*
D10*
X2649499Y394000D02*
G01*
X2591499Y394000D01*
X2649499Y325999D02*
G01*
X2591499Y325999D01*
X2649499Y325999D02*
G01*
X2649499Y394000D01*
X2568500Y394000D02*
G01*
X2522500Y394000D01*
X2567500Y325999D02*
G01*
X2522500Y325999D01*
X2522500Y325999D02*
G01*
X2508500Y340000D01*
X2508500Y380000D01*
X2522500Y394000D01*
D70*
X2585500Y345000D02*
G01*
X2585500Y375999D01*
X2575500Y365999D01*
X2575500Y351999D01*
X2585500Y341999D01*
X2585500Y350999D01*
X2580500Y369000D02*
G01*
X2580500Y349000D01*
D66*
X1682602Y-453622D02*
G01*
X1682602Y-406377D01*
X1712917Y-453622D02*
G01*
X1682602Y-453622D01*
X1757407Y-453622D02*
G01*
X1757407Y-406377D01*
X1727092Y-453622D02*
G01*
X1757407Y-453622D01*
X1727092Y-406377D02*
G01*
X1757407Y-406377D01*
X1712917Y-406377D02*
G01*
X1682602Y-406377D01*
X1682602Y-513622D02*
G01*
X1682602Y-466377D01*
X1712917Y-513622D02*
G01*
X1682602Y-513622D01*
X1757407Y-513622D02*
G01*
X1757407Y-466377D01*
X1727092Y-513622D02*
G01*
X1757407Y-513622D01*
X1727092Y-466377D02*
G01*
X1757407Y-466377D01*
X1712917Y-466377D02*
G01*
X1682602Y-466377D01*
X1983622Y92602D02*
G01*
X1936377Y92602D01*
X1983622Y122917D02*
G01*
X1983622Y92602D01*
X1983622Y167406D02*
G01*
X1936377Y167406D01*
X1983622Y137091D02*
G01*
X1983622Y167406D01*
X1936377Y137091D02*
G01*
X1936377Y167406D01*
X1936377Y122917D02*
G01*
X1936377Y92602D01*
X1273625Y-182914D02*
G01*
X1273625Y-158503D01*
X1273625Y-197089D02*
G01*
X1273625Y-221496D01*
X1226378Y-197089D02*
G01*
X1226378Y-221496D01*
X1234252Y-227404D02*
G01*
X1265748Y-227404D01*
X1226378Y-182914D02*
G01*
X1226378Y-158503D01*
X1234252Y-152600D02*
G01*
X1265748Y-152600D01*
X1232287Y-227404D02*
G01*
X1234252Y-227404D01*
X1267716Y-227404D02*
G01*
X1265748Y-227404D01*
X1232282Y-152600D02*
G01*
X1234252Y-152600D01*
X1267721Y-152600D02*
G01*
X1265748Y-152600D01*
X2028284Y171696D02*
G01*
X2011023Y154434D01*
X2038307Y181718D02*
G01*
X2055565Y198975D01*
X2071715Y148310D02*
G01*
X2088973Y165567D01*
X2087583Y175315D02*
G01*
X2065313Y197584D01*
X2061692Y138287D02*
G01*
X2044431Y121026D01*
X2034688Y122418D02*
G01*
X2012418Y144690D01*
X2088973Y173924D02*
G01*
X2087583Y175315D01*
X2063922Y198975D02*
G01*
X2065313Y197584D01*
X2036081Y121026D02*
G01*
X2034688Y122418D01*
X2011023Y146084D02*
G01*
X2012418Y144690D01*
X2532915Y-196374D02*
G01*
X2508504Y-196374D01*
X2547089Y-196374D02*
G01*
X2571495Y-196374D01*
X2547089Y-243620D02*
G01*
X2571495Y-243620D01*
X2577404Y-235747D02*
G01*
X2577404Y-204252D01*
X2532915Y-243620D02*
G01*
X2508504Y-243620D01*
X2502600Y-235747D02*
G01*
X2502600Y-204252D01*
X2577404Y-237712D02*
G01*
X2577404Y-235747D01*
X2577404Y-202283D02*
G01*
X2577404Y-204252D01*
X2502600Y-237716D02*
G01*
X2502600Y-235747D01*
X2502600Y-202278D02*
G01*
X2502600Y-204252D01*
X2613625Y717085D02*
G01*
X2613625Y741496D01*
X2613625Y702910D02*
G01*
X2613625Y678503D01*
X2566378Y702910D02*
G01*
X2566378Y678503D01*
X2574252Y672595D02*
G01*
X2605748Y672595D01*
X2566378Y717085D02*
G01*
X2566378Y741496D01*
X2574252Y747399D02*
G01*
X2605748Y747399D01*
X2572287Y672595D02*
G01*
X2574252Y672595D01*
X2607716Y672595D02*
G01*
X2605748Y672595D01*
X2572282Y747399D02*
G01*
X2574252Y747399D01*
X2607721Y747399D02*
G01*
X2605748Y747399D01*
X2332915Y523625D02*
G01*
X2308504Y523625D01*
X2347089Y523625D02*
G01*
X2371495Y523625D01*
X2347089Y476379D02*
G01*
X2371495Y476379D01*
X2377404Y484252D02*
G01*
X2377404Y515747D01*
X2332915Y476379D02*
G01*
X2308504Y476379D01*
X2302600Y484252D02*
G01*
X2302600Y515747D01*
X2377404Y482287D02*
G01*
X2377404Y484252D01*
X2377404Y517716D02*
G01*
X2377404Y515747D01*
X2302600Y482283D02*
G01*
X2302600Y484252D01*
X2302600Y517721D02*
G01*
X2302600Y515747D01*
D10*
X1518503Y738899D02*
G01*
X1581495Y738899D01*
X1518503Y601100D02*
G01*
X1581496Y601102D01*
X1590945Y689684D02*
G01*
X1590945Y731023D01*
X1509054Y689684D02*
G01*
X1509054Y731023D01*
X1590945Y650315D02*
G01*
X1590945Y608976D01*
X1509054Y650315D02*
G01*
X1509054Y608976D01*
X1517718Y601100D02*
G01*
X1518503Y601100D01*
X1516931Y601100D02*
G01*
X1518503Y601100D01*
X1583069Y601102D02*
G01*
X1581496Y601102D01*
X1516931Y738899D02*
G01*
X1518503Y738899D01*
X1583068Y738899D02*
G01*
X1581495Y738899D01*
D66*
X1532915Y583625D02*
G01*
X1508504Y583625D01*
X1547089Y583625D02*
G01*
X1571495Y583625D01*
X1547089Y536379D02*
G01*
X1571495Y536379D01*
X1577404Y544252D02*
G01*
X1577404Y575747D01*
X1532915Y536379D02*
G01*
X1508504Y536379D01*
X1502600Y544252D02*
G01*
X1502600Y575747D01*
X1577404Y542287D02*
G01*
X1577404Y544252D01*
X1577404Y577716D02*
G01*
X1577404Y575747D01*
X1502600Y542283D02*
G01*
X1502600Y544252D01*
X1502600Y577721D02*
G01*
X1502600Y575747D01*
D10*
X1288899Y461496D02*
G01*
X1288899Y398503D01*
X1151100Y461496D02*
G01*
X1151102Y398503D01*
X1239684Y389054D02*
G01*
X1281022Y389054D01*
X1239684Y470945D02*
G01*
X1281022Y470945D01*
X1200315Y389054D02*
G01*
X1158977Y389054D01*
X1200315Y470945D02*
G01*
X1158977Y470945D01*
X1151100Y462280D02*
G01*
X1151100Y461496D01*
X1151100Y463069D02*
G01*
X1151100Y461496D01*
X1151102Y396930D02*
G01*
X1151102Y398503D01*
X1288899Y463069D02*
G01*
X1288899Y461496D01*
X1288899Y396930D02*
G01*
X1288899Y398503D01*
D66*
X1257084Y486374D02*
G01*
X1281495Y486374D01*
X1242910Y486374D02*
G01*
X1218504Y486374D01*
X1242910Y533620D02*
G01*
X1218504Y533620D01*
X1212595Y525747D02*
G01*
X1212595Y494252D01*
X1257084Y533620D02*
G01*
X1281495Y533620D01*
X1287399Y525747D02*
G01*
X1287399Y494252D01*
X1212595Y527712D02*
G01*
X1212595Y525747D01*
X1212595Y492283D02*
G01*
X1212595Y494252D01*
X1287399Y527716D02*
G01*
X1287399Y525747D01*
X1287399Y492278D02*
G01*
X1287399Y494252D01*
X1047084Y66374D02*
G01*
X1071495Y66374D01*
X1032910Y66374D02*
G01*
X1008504Y66374D01*
X1032910Y113620D02*
G01*
X1008504Y113620D01*
X1002595Y105747D02*
G01*
X1002595Y74252D01*
X1047084Y113620D02*
G01*
X1071495Y113620D01*
X1077399Y105747D02*
G01*
X1077399Y74252D01*
X1002595Y107712D02*
G01*
X1002595Y105747D01*
X1002595Y72283D02*
G01*
X1002595Y74252D01*
X1077399Y107716D02*
G01*
X1077399Y105747D01*
X1077399Y72278D02*
G01*
X1077399Y74252D01*
X1207084Y316374D02*
G01*
X1231495Y316374D01*
X1192910Y316374D02*
G01*
X1168504Y316374D01*
X1192910Y363620D02*
G01*
X1168504Y363620D01*
X1162595Y355747D02*
G01*
X1162595Y324252D01*
X1207084Y363620D02*
G01*
X1231495Y363620D01*
X1237399Y355747D02*
G01*
X1237399Y324252D01*
X1162595Y357712D02*
G01*
X1162595Y355747D01*
X1162595Y322283D02*
G01*
X1162595Y324252D01*
X1237399Y357716D02*
G01*
X1237399Y355747D01*
X1237399Y322278D02*
G01*
X1237399Y324252D01*
X2242602Y166377D02*
G01*
X2242602Y213622D01*
X2272917Y166377D02*
G01*
X2242602Y166377D01*
X2317407Y166377D02*
G01*
X2317407Y213622D01*
X2287092Y166377D02*
G01*
X2317407Y166377D01*
X2287092Y213622D02*
G01*
X2317407Y213622D01*
X2272917Y213622D02*
G01*
X2242602Y213622D01*
X2643622Y422602D02*
G01*
X2596377Y422602D01*
X2643622Y452917D02*
G01*
X2643622Y422602D01*
X2643622Y497406D02*
G01*
X2596377Y497406D01*
X2643622Y467091D02*
G01*
X2643622Y497406D01*
X2596377Y467091D02*
G01*
X2596377Y497406D01*
X2596377Y452917D02*
G01*
X2596377Y422602D01*
X1502602Y356377D02*
G01*
X1502602Y403622D01*
X1532917Y356377D02*
G01*
X1502602Y356377D01*
X1577407Y356377D02*
G01*
X1577407Y403622D01*
X1547092Y356377D02*
G01*
X1577407Y356377D01*
X1547092Y403622D02*
G01*
X1577407Y403622D01*
X1532917Y403622D02*
G01*
X1502602Y403622D01*
X2028284Y-268303D02*
G01*
X2011023Y-285565D01*
X2038307Y-258281D02*
G01*
X2055565Y-241024D01*
X2071715Y-291689D02*
G01*
X2088973Y-274432D01*
X2087583Y-264684D02*
G01*
X2065313Y-242415D01*
X2061692Y-301712D02*
G01*
X2044431Y-318973D01*
X2034688Y-317581D02*
G01*
X2012418Y-295309D01*
X2088973Y-266075D02*
G01*
X2087583Y-264684D01*
X2063922Y-241024D02*
G01*
X2065313Y-242415D01*
X2036081Y-318973D02*
G01*
X2034688Y-317581D01*
X2011023Y-293915D02*
G01*
X2012418Y-295309D01*
X1848303Y-271714D02*
G01*
X1865565Y-288975D01*
X1838280Y-261691D02*
G01*
X1821023Y-244434D01*
X1871688Y-228283D02*
G01*
X1854431Y-211026D01*
X1844684Y-212415D02*
G01*
X1822415Y-234686D01*
X1881711Y-238306D02*
G01*
X1898973Y-255567D01*
X1897581Y-265311D02*
G01*
X1875309Y-287581D01*
X1846075Y-211026D02*
G01*
X1844684Y-212415D01*
X1821023Y-236078D02*
G01*
X1822415Y-234686D01*
X1898973Y-263917D02*
G01*
X1897581Y-265311D01*
X1873914Y-288975D02*
G01*
X1875309Y-287581D01*
D10*
X1230000Y630000D02*
G01*
X1213999Y670000D01*
X1213999Y670000D02*
G01*
X1246000Y670000D01*
X1246000Y670000D02*
G01*
X1230000Y630000D01*
X1190630Y590945D02*
G01*
X1190630Y709054D01*
X1269369Y590945D02*
G01*
X1269369Y709054D01*
X1210000Y630000D02*
G01*
X1250000Y630000D01*
X1230000Y620000D02*
G01*
X1230000Y680000D01*
D67*
X1570000Y960000D02*
G01*
X1570000Y860000D01*
X1170000Y860000D01*
X1170000Y960000D01*
X1245000Y960000D01*
D68*
X1570000Y960000D02*
G01*
X1245000Y960000D01*
D10*
X905999Y-810500D02*
G01*
X905999Y-868499D01*
X973999Y-810500D02*
G01*
X973999Y-868499D01*
X973999Y-810500D02*
G01*
X905999Y-810500D01*
X905999Y-891500D02*
G01*
X905999Y-937500D01*
X973999Y-892500D02*
G01*
X973999Y-937500D01*
X973999Y-937500D02*
G01*
X960000Y-951500D01*
X920000Y-951500D01*
X905999Y-937500D01*
D70*
X955000Y-874499D02*
G01*
X924000Y-874499D01*
X934000Y-884499D01*
X948000Y-884499D01*
X958000Y-874499D01*
X949000Y-874499D01*
X930999Y-879499D02*
G01*
X950999Y-879499D01*
D10*
X1046000Y-810500D02*
G01*
X1046000Y-868499D01*
X1113999Y-810500D02*
G01*
X1113999Y-868499D01*
X1113999Y-810500D02*
G01*
X1046000Y-810500D01*
X1046000Y-891500D02*
G01*
X1046000Y-937500D01*
X1113999Y-892500D02*
G01*
X1113999Y-937500D01*
X1113999Y-937500D02*
G01*
X1100000Y-951500D01*
X1060000Y-951500D01*
X1046000Y-937500D01*
D70*
X1095000Y-874499D02*
G01*
X1063999Y-874499D01*
X1073999Y-884499D01*
X1088000Y-884499D01*
X1098000Y-874499D01*
X1088999Y-874499D01*
X1071000Y-879499D02*
G01*
X1091000Y-879499D01*
D10*
X1186000Y-810500D02*
G01*
X1186000Y-868499D01*
X1253999Y-810500D02*
G01*
X1253999Y-868499D01*
X1253999Y-810500D02*
G01*
X1186000Y-810500D01*
X1186000Y-891500D02*
G01*
X1186000Y-937500D01*
X1253999Y-892500D02*
G01*
X1253999Y-937500D01*
X1253999Y-937500D02*
G01*
X1240000Y-951500D01*
X1200000Y-951500D01*
X1186000Y-937500D01*
D70*
X1235000Y-874499D02*
G01*
X1203999Y-874499D01*
X1213999Y-884499D01*
X1228000Y-884499D01*
X1238000Y-874499D01*
X1228999Y-874499D01*
X1211000Y-879499D02*
G01*
X1231000Y-879499D01*
D10*
X1326000Y-810500D02*
G01*
X1326000Y-868499D01*
X1393999Y-810500D02*
G01*
X1393999Y-868499D01*
X1393999Y-810500D02*
G01*
X1326000Y-810500D01*
X1326000Y-891500D02*
G01*
X1326000Y-937500D01*
X1393999Y-892500D02*
G01*
X1393999Y-937500D01*
X1393999Y-937500D02*
G01*
X1380000Y-951500D01*
X1340000Y-951500D01*
X1326000Y-937500D01*
D70*
X1375000Y-874499D02*
G01*
X1343999Y-874499D01*
X1353999Y-884499D01*
X1368000Y-884499D01*
X1378000Y-874499D01*
X1368999Y-874499D01*
X1351000Y-879499D02*
G01*
X1371000Y-879499D01*
D10*
X1466000Y-810500D02*
G01*
X1466000Y-868499D01*
X1533999Y-810500D02*
G01*
X1533999Y-868499D01*
X1533999Y-810500D02*
G01*
X1466000Y-810500D01*
X1466000Y-891500D02*
G01*
X1466000Y-937500D01*
X1533999Y-892500D02*
G01*
X1533999Y-937500D01*
X1533999Y-937500D02*
G01*
X1520000Y-951500D01*
X1480000Y-951500D01*
X1466000Y-937500D01*
D70*
X1515000Y-874499D02*
G01*
X1483999Y-874499D01*
X1493999Y-884499D01*
X1508000Y-884499D01*
X1518000Y-874499D01*
X1508999Y-874499D01*
X1491000Y-879499D02*
G01*
X1511000Y-879499D01*
D10*
X1441022Y378503D02*
G01*
X1441022Y441496D01*
X1368163Y441296D02*
G01*
X1318951Y441296D01*
X1368163Y378301D02*
G01*
X1318951Y378301D01*
X1391808Y441496D02*
G01*
X1441022Y441496D01*
X1391808Y378503D02*
G01*
X1441022Y378503D01*
X1318951Y378301D02*
G01*
X1318951Y441296D01*
D66*
X1583622Y92602D02*
G01*
X1536377Y92602D01*
X1583622Y122917D02*
G01*
X1583622Y92602D01*
X1583622Y167406D02*
G01*
X1536377Y167406D01*
X1583622Y137091D02*
G01*
X1583622Y167406D01*
X1536377Y137091D02*
G01*
X1536377Y167406D01*
X1536377Y122917D02*
G01*
X1536377Y92602D01*
D10*
X1581022Y278503D02*
G01*
X1581022Y341496D01*
X1508163Y341296D02*
G01*
X1458951Y341296D01*
X1508163Y278301D02*
G01*
X1458951Y278301D01*
X1531808Y341496D02*
G01*
X1581022Y341496D01*
X1531808Y278503D02*
G01*
X1581022Y278503D01*
X1458951Y278301D02*
G01*
X1458951Y341296D01*
X2190000Y-728110D02*
G01*
X2190000Y-491889D01*
X1890000Y-728110D02*
G01*
X1890000Y-491889D01*
X1890000Y-491889D02*
G01*
X2190000Y-491889D01*
X1890000Y-728110D02*
G01*
X2190000Y-728110D01*
X1913000Y-545000D02*
G01*
X1970000Y-545000D01*
X1970000Y-669000D01*
X1913000Y-669000D01*
X1913000Y-545000D01*
X1913000Y-609000D02*
G01*
X1968999Y-609000D01*
X1968999Y-648000D01*
X1913000Y-648000D01*
X1913000Y-609000D01*
X2013000Y-545000D02*
G01*
X2070000Y-545000D01*
X2070000Y-669000D01*
X2013000Y-669000D01*
X2013000Y-545000D01*
X2013000Y-609000D02*
G01*
X2068999Y-609000D01*
X2068999Y-648000D01*
X2013000Y-648000D01*
X2013000Y-609000D01*
X2111000Y-544000D02*
G01*
X2168000Y-544000D01*
X2168000Y-668000D01*
X2111000Y-668000D01*
X2111000Y-544000D01*
X2111000Y-608000D02*
G01*
X2166999Y-608000D01*
X2166999Y-646999D01*
X2111000Y-646999D01*
X2111000Y-608000D01*
X2539054Y540945D02*
G01*
X2420945Y540945D01*
X2420945Y548805D01*
X2420945Y651194D02*
G01*
X2420945Y659000D01*
X2539054Y540945D02*
G01*
X2539054Y548805D01*
X2539054Y651194D02*
G01*
X2539054Y660000D01*
X2539054Y660000D02*
G01*
X2501499Y660000D01*
X2458500Y659000D02*
G01*
X2420945Y659000D01*
X2063553Y19009D02*
G01*
X2019009Y63551D01*
X2160991Y116446D02*
G01*
X2116446Y160990D01*
X2047128Y105032D02*
G01*
X2017897Y75803D01*
X2105033Y47127D02*
G01*
X2075802Y17898D01*
X2074966Y132872D02*
G01*
X2104197Y162101D01*
X2132871Y74967D02*
G01*
X2162102Y104196D01*
X2161544Y115893D02*
G01*
X2160991Y116446D01*
X2162102Y115336D02*
G01*
X2160991Y116446D01*
X2115334Y162101D02*
G01*
X2116446Y160990D01*
X2064664Y17898D02*
G01*
X2063553Y19009D01*
X2017897Y64663D02*
G01*
X2019009Y63551D01*
X2291496Y-948899D02*
G01*
X2228504Y-948899D01*
X2291496Y-811100D02*
G01*
X2228503Y-811102D01*
X2219054Y-899684D02*
G01*
X2219054Y-941023D01*
X2300945Y-899684D02*
G01*
X2300945Y-941023D01*
X2219054Y-860315D02*
G01*
X2219054Y-818976D01*
X2300945Y-860315D02*
G01*
X2300945Y-818976D01*
X2292281Y-811100D02*
G01*
X2291496Y-811100D01*
X2293068Y-811100D02*
G01*
X2291496Y-811100D01*
X2226930Y-811102D02*
G01*
X2228503Y-811102D01*
X2293068Y-948899D02*
G01*
X2291496Y-948899D01*
X2226931Y-948899D02*
G01*
X2228504Y-948899D01*
D66*
X2227084Y466374D02*
G01*
X2251495Y466374D01*
X2212910Y466374D02*
G01*
X2188504Y466374D01*
X2212910Y513620D02*
G01*
X2188504Y513620D01*
X2182595Y505747D02*
G01*
X2182595Y474252D01*
X2227084Y513620D02*
G01*
X2251495Y513620D01*
X2257399Y505747D02*
G01*
X2257399Y474252D01*
X2182595Y507712D02*
G01*
X2182595Y505747D01*
X2182595Y472283D02*
G01*
X2182595Y474252D01*
X2257399Y507716D02*
G01*
X2257399Y505747D01*
X2257399Y472278D02*
G01*
X2257399Y474252D01*
X2542915Y523625D02*
G01*
X2518504Y523625D01*
X2557089Y523625D02*
G01*
X2581495Y523625D01*
X2557089Y476379D02*
G01*
X2581495Y476379D01*
X2587404Y484252D02*
G01*
X2587404Y515747D01*
X2542915Y476379D02*
G01*
X2518504Y476379D01*
X2512600Y484252D02*
G01*
X2512600Y515747D01*
X2587404Y482287D02*
G01*
X2587404Y484252D01*
X2587404Y517716D02*
G01*
X2587404Y515747D01*
X2512600Y482283D02*
G01*
X2512600Y484252D01*
X2512600Y517721D02*
G01*
X2512600Y515747D01*
X2613622Y772602D02*
G01*
X2566377Y772602D01*
X2613622Y802917D02*
G01*
X2613622Y772602D01*
X2613622Y847406D02*
G01*
X2566377Y847406D01*
X2613622Y817091D02*
G01*
X2613622Y847406D01*
X2566377Y817091D02*
G01*
X2566377Y847406D01*
X2566377Y802917D02*
G01*
X2566377Y772602D01*
D10*
X1498424Y650630D02*
G01*
X1498424Y729369D01*
X1360627Y739214D02*
G01*
X1309449Y739214D01*
X1360627Y640785D02*
G01*
X1309449Y640785D01*
X1439371Y739214D02*
G01*
X1490550Y739214D01*
X1439371Y640785D02*
G01*
X1490550Y640785D01*
X1301574Y650630D02*
G01*
X1301574Y729369D01*
X1498424Y650630D02*
G01*
X1498424Y648659D01*
X1490550Y640785D01*
X1301574Y650630D02*
G01*
X1301574Y648661D01*
X1309449Y640785D01*
X1301574Y729369D02*
G01*
X1301574Y731338D01*
X1309449Y739214D01*
X1498424Y729369D02*
G01*
X1498424Y731340D01*
X1490550Y739214D01*
D67*
X1854211Y-188859D02*
G01*
X1971135Y-305781D01*
X2065787Y-211131D01*
X1948864Y-94207D01*
X1854211Y-188859D01*
D10*
X1726000Y-810500D02*
G01*
X1726000Y-868499D01*
X1793999Y-810500D02*
G01*
X1793999Y-868499D01*
X1793999Y-810500D02*
G01*
X1726000Y-810500D01*
X1726000Y-891500D02*
G01*
X1726000Y-937500D01*
X1793999Y-892500D02*
G01*
X1793999Y-937500D01*
X1793999Y-937500D02*
G01*
X1780000Y-951500D01*
X1740000Y-951500D01*
X1726000Y-937500D01*
D70*
X1775000Y-874499D02*
G01*
X1743999Y-874499D01*
X1753999Y-884499D01*
X1768000Y-884499D01*
X1778000Y-874499D01*
X1768999Y-874499D01*
X1751000Y-879499D02*
G01*
X1771000Y-879499D01*
D10*
X1816000Y-810500D02*
G01*
X1816000Y-868499D01*
X1883999Y-810500D02*
G01*
X1883999Y-868499D01*
X1883999Y-810500D02*
G01*
X1816000Y-810500D01*
X1816000Y-891500D02*
G01*
X1816000Y-937500D01*
X1883999Y-892500D02*
G01*
X1883999Y-937500D01*
X1883999Y-937500D02*
G01*
X1870000Y-951500D01*
X1830000Y-951500D01*
X1816000Y-937500D01*
D70*
X1865000Y-874499D02*
G01*
X1833999Y-874499D01*
X1843999Y-884499D01*
X1858000Y-884499D01*
X1868000Y-874499D01*
X1858999Y-874499D01*
X1841000Y-879499D02*
G01*
X1861000Y-879499D01*
D10*
G75*
G01*
X1260000Y-370000D02*
G02*
X1260000Y-470000I0J-50000D01*
D69*
G75*
G01*
X2477500Y731250D02*
G02*
X2495000Y725000I8076J-5012D01*
G75*
G01*
X2477500Y731215D02*
G02*
X2460000Y735000I-8515J2978D01*
D71*
G75*
G01*
X2291515Y137789D02*
G03*
X2291444Y137718I-4212J4141D01*
D11*
G75*
G01*
X2305940Y37238D02*
G03*
X2305869Y37168I-5564J5572D01*
D66*
G75*
G01*
X1571496Y476379D02*
G03*
X1577405Y482288I0J5909D01*
G75*
G01*
X1571496Y523625D02*
G02*
X1577405Y517716I0J-5909D01*
G75*
G01*
X1508504Y476379D02*
G02*
X1502600Y482283I0J5904D01*
G75*
G01*
X1508504Y523625D02*
G03*
X1502600Y517721I0J-5904D01*
D10*
G75*
G01*
X1602228Y489999D02*
G02*
X1601228Y424999I-500J-32500D01*
D66*
G75*
G01*
X1226379Y-221496D02*
G03*
X1232288Y-227405I5909J0D01*
G75*
G01*
X1273625Y-221496D02*
G02*
X1267716Y-227405I-5909J0D01*
G75*
G01*
X1226379Y-158504D02*
G02*
X1232283Y-152600I5904J0D01*
G75*
G01*
X1273625Y-158504D02*
G03*
X1267721Y-152600I-5904J0D01*
G75*
G01*
X2088974Y165568D02*
G03*
X2088974Y173925I-4178J4179D01*
G75*
G01*
X2055566Y198976D02*
G02*
X2063922Y198976I4178J-4179D01*
G75*
G01*
X2044432Y121026D02*
G02*
X2036082Y121026I-4175J4175D01*
G75*
G01*
X2011024Y154434D02*
G03*
X2011024Y146085I4175J-4174D01*
G75*
G01*
X2571496Y-243621D02*
G03*
X2577405Y-237712I0J5909D01*
G75*
G01*
X2571496Y-196375D02*
G02*
X2577405Y-202284I0J-5909D01*
G75*
G01*
X2508504Y-243621D02*
G02*
X2502600Y-237717I0J5904D01*
G75*
G01*
X2508504Y-196375D02*
G03*
X2502600Y-202279I0J-5904D01*
G75*
G01*
X2566379Y678504D02*
G03*
X2572288Y672595I5909J0D01*
G75*
G01*
X2613625Y678504D02*
G02*
X2607716Y672595I-5909J0D01*
G75*
G01*
X2566379Y741496D02*
G02*
X2572283Y747400I5904J0D01*
G75*
G01*
X2613625Y741496D02*
G03*
X2607721Y747400I-5904J0D01*
G75*
G01*
X2371496Y476379D02*
G03*
X2377405Y482288I0J5909D01*
G75*
G01*
X2371496Y523625D02*
G02*
X2377405Y517716I0J-5909D01*
G75*
G01*
X2308504Y476379D02*
G02*
X2302600Y482283I0J5904D01*
G75*
G01*
X2308504Y523625D02*
G03*
X2302600Y517721I0J-5904D01*
D10*
G75*
G01*
X1509055Y608977D02*
G03*
X1516931Y601101I7876J0D01*
G75*
G01*
X1590945Y608977D02*
G02*
X1583070Y601102I-7875J0D01*
G75*
G01*
X1509055Y731023D02*
G02*
X1516931Y738899I7876J0D01*
G75*
G01*
X1590945Y731023D02*
G03*
X1583069Y738899I-7876J0D01*
D66*
G75*
G01*
X1571496Y536379D02*
G03*
X1577405Y542288I0J5909D01*
G75*
G01*
X1571496Y583625D02*
G02*
X1577405Y577716I0J-5909D01*
G75*
G01*
X1508504Y536379D02*
G02*
X1502600Y542283I0J5904D01*
G75*
G01*
X1508504Y583625D02*
G03*
X1502600Y577721I0J-5904D01*
D10*
G75*
G01*
X1158977Y470945D02*
G03*
X1151101Y463069I0J-7876D01*
G75*
G01*
X1158977Y389055D02*
G02*
X1151102Y396930I0J7875D01*
G75*
G01*
X1281023Y470945D02*
G02*
X1288899Y463069I0J-7876D01*
G75*
G01*
X1281023Y389055D02*
G03*
X1288899Y396931I0J7876D01*
D66*
G75*
G01*
X1218504Y533621D02*
G03*
X1212595Y527712I0J-5909D01*
G75*
G01*
X1218504Y486375D02*
G02*
X1212595Y492284I0J5909D01*
G75*
G01*
X1281496Y533621D02*
G02*
X1287400Y527717I0J-5904D01*
G75*
G01*
X1281496Y486375D02*
G03*
X1287400Y492279I0J5904D01*
G75*
G01*
X1008504Y113621D02*
G03*
X1002595Y107712I0J-5909D01*
G75*
G01*
X1008504Y66375D02*
G02*
X1002595Y72284I0J5909D01*
G75*
G01*
X1071496Y113621D02*
G02*
X1077400Y107717I0J-5904D01*
G75*
G01*
X1071496Y66375D02*
G03*
X1077400Y72279I0J5904D01*
G75*
G01*
X1168504Y363621D02*
G03*
X1162595Y357712I0J-5909D01*
G75*
G01*
X1168504Y316375D02*
G02*
X1162595Y322284I0J5909D01*
G75*
G01*
X1231496Y363621D02*
G02*
X1237400Y357717I0J-5904D01*
G75*
G01*
X1231496Y316375D02*
G03*
X1237400Y322279I0J5904D01*
G75*
G01*
X2088974Y-274432D02*
G03*
X2088974Y-266075I-4178J4179D01*
G75*
G01*
X2055566Y-241024D02*
G02*
X2063922Y-241024I4178J-4179D01*
G75*
G01*
X2044432Y-318974D02*
G02*
X2036082Y-318974I-4175J4175D01*
G75*
G01*
X2011024Y-285566D02*
G03*
X2011024Y-293915I4175J-4174D01*
G75*
G01*
X1854432Y-211026D02*
G03*
X1846075Y-211026I-4179J-4178D01*
G75*
G01*
X1821024Y-244434D02*
G02*
X1821024Y-236078I4179J4178D01*
G75*
G01*
X1898974Y-255568D02*
G02*
X1898974Y-263918I-4175J-4175D01*
G75*
G01*
X1865566Y-288976D02*
G03*
X1873915Y-288976I4174J4175D01*
G75*
G01*
X2386495Y668950D02*
G03*
X2386495Y668850I-4921J-50D01*
D10*
G75*
G01*
X2501500Y660000D02*
G02*
X2458500Y659000I-21510J-76D01*
G75*
G01*
X2162102Y104197D02*
G03*
X2162102Y115336I-5569J5570D01*
G75*
G01*
X2104197Y162102D02*
G02*
X2115334Y162102I5569J-5568D01*
G75*
G01*
X2075803Y17898D02*
G02*
X2064664Y17898I-5570J5569D01*
G75*
G01*
X2017898Y75803D02*
G03*
X2017898Y64664I5569J-5570D01*
G75*
G01*
X2300945Y-818977D02*
G03*
X2293069Y-811101I-7876J0D01*
G75*
G01*
X2219055Y-818977D02*
G02*
X2226930Y-811102I7875J0D01*
G75*
G01*
X2300945Y-941023D02*
G02*
X2293069Y-948899I-7876J0D01*
G75*
G01*
X2219055Y-941023D02*
G03*
X2226931Y-948899I7876J0D01*
D66*
G75*
G01*
X2188504Y513621D02*
G03*
X2182595Y507712I0J-5909D01*
G75*
G01*
X2188504Y466375D02*
G02*
X2182595Y472284I0J5909D01*
G75*
G01*
X2251496Y513621D02*
G02*
X2257400Y507717I0J-5904D01*
G75*
G01*
X2251496Y466375D02*
G03*
X2257400Y472279I0J5904D01*
G75*
G01*
X2581496Y476379D02*
G03*
X2587405Y482288I0J5909D01*
G75*
G01*
X2581496Y523625D02*
G02*
X2587405Y517716I0J-5909D01*
G75*
G01*
X2518504Y476379D02*
G02*
X2512600Y482283I0J5904D01*
G75*
G01*
X2518504Y523625D02*
G03*
X2512600Y517721I0J-5904D01*
D71*
G75*
G01*
X1850044Y-204167D02*
G03*
X1850115Y-204238I-4141J-4212D01*
D10*
G75*
G01
X1350000Y605000D02*
G03X1350000Y605000I-5000J0D01*
D71*
G75*
G01
X2174670Y655680D02*
G03X2174670Y655680I-5910J0D01*
M02*
