M48
INCH,LZ
;FILE_FORMAT=2:4
;TYPE=NON_PLATED
;Layer: Drill NPTH
;EasyEDA v6.4.17, 2021-03-02T21:30:00+01:00
;52dc7113b7e944b1bde967162dfd0e84,9c416354eb984020824aaf9c885bead6,10
;Gerber Generator version 0.2
;Holesize 1 = 0.0120 inch
T01C0.0120
;Holesize 2 = 0.0430 inch
T02C0.0430
;Holesize 3 = 0.0590 inch
T03C0.0590
;Holesize 4 = 0.0670 inch
T04C0.0670
%
G05
G90
T01
X005700Y007000
X005900Y007000
X006100Y007000
X006300Y007000
X006300Y006000
X006100Y006000
X005900Y006000
X005700Y006000
X020300Y007000
X020100Y007000
X019900Y007000
X019700Y007000
X020301Y006000
X020101Y006000
X019901Y006000
X019701Y006000
X006300Y-003000
X006100Y-003000
X005900Y-003000
X005700Y-003000
X020301Y-003000
X020101Y-003000
X019901Y-003000
X019701Y-003000
X005700Y-002000
X005900Y-002000
X006100Y-002000
X006300Y-002000
X019700Y-002000
X019900Y-002000
X020100Y-002000
X020300Y-002000
X006300Y-012000
X006100Y-012000
X005900Y-012000
X005700Y-012000
X020301Y-012000
X020101Y-012000
X019901Y-012000
X019701Y-012000
X005700Y-011000
X005900Y-011000
X006100Y-011000
X006300Y-011000
X019700Y-011000
X019900Y-011000
X020100Y-011000
X020300Y-011000
X006300Y-021000
X006100Y-021000
X005900Y-021000
X005700Y-021000
X020301Y-021000
X020101Y-021000
X019901Y-021000
X019701Y-021000
X005700Y-020000
X005900Y-020000
X006100Y-020000
X006300Y-020000
X019700Y-020000
X019900Y-020000
X020100Y-020000
X020300Y-020000
X006300Y-032000
X006100Y-032000
X005900Y-032000
X005700Y-032000
X020301Y-032000
X020101Y-032000
X019901Y-032000
X019701Y-032000
X005700Y-031000
X005900Y-031000
X006100Y-031000
X006300Y-031000
X019700Y-031000
X019900Y-031000
X020100Y-031000
X020300Y-031000
X006300Y-043000
X006100Y-043000
X005900Y-043000
X005700Y-043000
X020301Y-043000
X020101Y-043000
X019901Y-043000
X019701Y-043000
X005700Y-042000
X005900Y-042000
X006100Y-042000
X006300Y-042000
X019700Y-042000
X019900Y-042000
X020100Y-042000
X020300Y-042000
T02
X001249Y002886
X001249Y001114
T03
X017910Y-026000
X014960Y-026000
T04
X024769Y-016031
X022407Y-016031
M30
