G04 Layer: BottomSolderMaskLayer*
G04 EasyEDA v6.4.17, 2021-03-02T21:30:00+01:00*
G04 52dc7113b7e944b1bde967162dfd0e84,9c416354eb984020824aaf9c885bead6,10*
G04 Gerber Generator version 0.2*
G04 Scale: 100 percent, Rotated: No, Reflected: No *
G04 Dimensions in inches *
G04 leading zeros omitted , absolute positions ,3 integer and 6 decimal *
%FSLAX36Y36*%
%MOIN*%

%ADD62C,0.0592*%
%ADD63C,0.0671*%
%ADD74C,0.0700*%
%ADD75C,0.0680*%
%ADD90C,0.0552*%
%ADD91R,0.0710X0.0710*%
%ADD92C,0.0710*%

%LPD*%
D62*
X105407Y957500D02*
G01*
X69974Y957500D01*
X105407Y1242500D02*
G01*
X69974Y1242500D01*
X105407Y-842500D02*
G01*
X69974Y-842500D01*
X105407Y-557500D02*
G01*
X69974Y-557500D01*
X105407Y-1742500D02*
G01*
X69974Y-1742500D01*
X105407Y-1457500D02*
G01*
X69974Y-1457500D01*
X105407Y-4942500D02*
G01*
X69974Y-4942500D01*
X105407Y-4657500D02*
G01*
X69974Y-4657500D01*
X105407Y-2742500D02*
G01*
X69974Y-2742500D01*
X105407Y-2457500D02*
G01*
X69974Y-2457500D01*
D63*
X174092Y424400D02*
G01*
X75668Y424400D01*
X174092Y-24409D02*
G01*
X75668Y-24409D01*
G36*
X2400000Y965000D02*
G01*
X2400000Y1035000D01*
X2470000Y1035000D01*
X2470000Y965000D01*
G37*
D74*
G01*
X2435000Y1100000D03*
D75*
G01*
X2435000Y1200000D03*
D90*
G01*
X193989Y1195470D03*
G01*
X193989Y1004529D03*
G01*
X193989Y-604529D03*
G01*
X193989Y-795470D03*
G01*
X193989Y-1504529D03*
G01*
X193989Y-1695470D03*
G01*
X193989Y-4704530D03*
G01*
X193989Y-4895470D03*
G01*
X193989Y-2504529D03*
G01*
X193989Y-2695470D03*
D91*
G01*
X2445000Y-865000D03*
D92*
G01*
X2445000Y-765000D03*
G36*
X476999Y-692899D02*
G01*
X476999Y-637199D01*
X570900Y-637199D01*
X570900Y-692899D01*
G37*
G36*
X476999Y-790900D02*
G01*
X476999Y-735199D01*
X570900Y-735199D01*
X570900Y-790900D01*
G37*
G36*
X476999Y-594899D02*
G01*
X476999Y-539200D01*
X570900Y-539200D01*
X570900Y-594899D01*
G37*
G36*
X2215000Y-3085000D02*
G01*
X2215000Y-3015000D01*
X2285000Y-3015000D01*
X2285000Y-3085000D01*
G37*
D74*
G01*
X2150000Y-3050000D03*
G01*
X2050000Y-3050000D03*
G01*
X1950000Y-3050000D03*
G36*
X1915000Y-2185000D02*
G01*
X1915000Y-2115000D01*
X1985000Y-2115000D01*
X1985000Y-2185000D01*
G37*
G01*
X2050000Y-2150000D03*
G01*
X2150000Y-2150000D03*
G01*
X2250000Y-2150000D03*
G36*
X2215000Y-4185000D02*
G01*
X2215000Y-4115000D01*
X2285000Y-4115000D01*
X2285000Y-4185000D01*
G37*
G01*
X2150000Y-4150000D03*
G01*
X2050000Y-4150000D03*
G01*
X1950000Y-4150000D03*
G36*
X1915000Y-3285000D02*
G01*
X1915000Y-3215000D01*
X1985000Y-3215000D01*
X1985000Y-3285000D01*
G37*
G01*
X2050000Y-3250000D03*
G01*
X2150000Y-3250000D03*
G01*
X2250000Y-3250000D03*
G36*
X1815000Y-1285000D02*
G01*
X1815000Y-1215000D01*
X1885000Y-1215000D01*
X1885000Y-1285000D01*
G37*
G01*
X1950000Y-1250000D03*
G01*
X2050000Y-1250000D03*
G01*
X2150000Y-1250000D03*
G36*
X2115000Y-1985000D02*
G01*
X2115000Y-1915000D01*
X2185000Y-1915000D01*
X2185000Y-1985000D01*
G37*
G01*
X2050000Y-1950000D03*
G01*
X1950000Y-1950000D03*
G01*
X1850000Y-1950000D03*
G36*
X1915000Y-4385000D02*
G01*
X1915000Y-4315000D01*
X1985000Y-4315000D01*
X1985000Y-4385000D01*
G37*
G01*
X2050000Y-4350000D03*
G01*
X2150000Y-4350000D03*
G01*
X2250000Y-4350000D03*
G36*
X2215000Y-5285000D02*
G01*
X2215000Y-5215000D01*
X2285000Y-5215000D01*
X2285000Y-5285000D01*
G37*
G01*
X2150000Y-5250000D03*
G01*
X2050000Y-5250000D03*
G01*
X1950000Y-5250000D03*
G36*
X1815000Y515000D02*
G01*
X1815000Y585000D01*
X1885000Y585000D01*
X1885000Y515000D01*
G37*
G01*
X1950000Y550000D03*
G01*
X2050000Y550000D03*
G01*
X2150000Y550000D03*
G36*
X2115000Y-185000D02*
G01*
X2115000Y-115000D01*
X2185000Y-115000D01*
X2185000Y-185000D01*
G37*
G01*
X2050000Y-150000D03*
G01*
X1950000Y-150000D03*
G01*
X1850000Y-150000D03*
G36*
X2115000Y715000D02*
G01*
X2115000Y785000D01*
X2185000Y785000D01*
X2185000Y715000D01*
G37*
G01*
X2050000Y750000D03*
G01*
X1950000Y750000D03*
G01*
X1850000Y750000D03*
G36*
X1815000Y1415000D02*
G01*
X1815000Y1485000D01*
X1885000Y1485000D01*
X1885000Y1415000D01*
G37*
G01*
X1950000Y1450000D03*
G01*
X2050000Y1450000D03*
G01*
X2150000Y1450000D03*
G36*
X2115000Y-1085000D02*
G01*
X2115000Y-1015000D01*
X2185000Y-1015000D01*
X2185000Y-1085000D01*
G37*
G01*
X2050000Y-1050000D03*
G01*
X1950000Y-1050000D03*
G01*
X1850000Y-1050000D03*
G36*
X1815000Y-385000D02*
G01*
X1815000Y-315000D01*
X1885000Y-315000D01*
X1885000Y-385000D01*
G37*
G01*
X1950000Y-350000D03*
G01*
X2050000Y-350000D03*
G01*
X2150000Y-350000D03*
M02*
